<?xml version="1.0" standalone="no"?>
<!DOCTYPE svg PUBLIC "-//W3C//DTD SVG 1.1//EN" "http://www.w3.org/Graphics/SVG/1.1/DTD/svg11.dtd" >
<svg xmlns="http://www.w3.org/2000/svg">
<metadata>Generated by IcoMoon</metadata>
<defs>
<font id="wmsicon" horiz-adv-x="1024">
<font-face units-per-em="1024" ascent="960" descent="-64" />
<missing-glyph horiz-adv-x="1024" />
<glyph unicode="&#x20;" horiz-adv-x="512" d="" />
<glyph unicode="&#xe900;" glyph-name="wms-access-alarm" d="M234.577 915.775c8.969 7.176 10.424 20.265 3.247 29.236-7.175 8.97-20.264 10.425-29.235 3.248l-161.345-129.076c-8.97-7.176-10.425-20.266-3.248-29.236s20.265-10.425 29.236-3.248l161.346 129.076zM366.096 436.522c-11.487 0-20.799-9.314-20.799-20.801s9.311-20.799 20.799-20.799l145.906-0.007c11.487 0 20.801 9.311 20.801 20.799v225.883c0 11.487-9.314 20.799-20.801 20.799s-20.799-9.311-20.799-20.799v-205.075h-125.107zM355.852 792.697c49.503 20.505 102.561 31.059 156.144 31.059s106.64-10.554 156.146-31.059c49.503-20.505 94.485-50.56 132.373-88.45 37.888-37.888 67.945-82.87 88.448-132.373 20.506-49.503 31.060-102.563 31.060-156.146 0-53.581-10.554-106.64-31.060-156.144-20.503-49.503-50.56-94.485-88.448-132.373-19.272-19.272-40.376-36.517-62.978-51.51l51.223-102.449c5.139-10.275 0.973-22.768-9.302-27.906-10.273-5.136-22.768-0.973-27.904 9.302l-49.904 99.807c-10.908-5.725-22.088-10.964-33.508-15.695-49.506-20.506-102.563-31.060-156.146-31.060s-106.64 10.554-156.144 31.060c-11.413 4.727-22.586 9.963-33.487 15.683l-49.911-99.786c-5.139-10.275-17.634-14.436-27.906-9.297-10.275 5.139-14.438 17.634-9.3 27.906l51.23 102.421c-22.612 14.997-43.725 32.244-63.001 51.523-37.889 37.888-67.944 82.87-88.449 132.373s-31.059 102.563-31.059 156.144c0 53.583 10.554 106.643 31.059 156.146s50.56 94.485 88.449 132.373c37.89 37.889 82.869 67.944 132.375 88.45zM511.995 782.156c-48.119 0-95.767-9.478-140.225-27.893s-84.852-45.406-118.877-79.431c-34.026-34.027-61.017-74.422-79.432-118.877-18.415-44.458-27.893-92.106-27.893-140.227 0-48.119 9.478-95.767 27.893-140.225 18.415-44.456 45.405-84.85 79.432-118.877 34.025-34.025 74.419-61.016 118.877-79.432 44.458-18.413 92.106-27.892 140.225-27.892 48.121 0 95.77 9.479 140.225 27.892 44.458 18.416 84.852 45.407 118.877 79.432 34.027 34.027 61.019 74.422 79.432 118.877 18.416 44.458 27.892 92.106 27.892 140.225 0 48.121-9.477 95.77-27.892 140.227-18.413 44.456-45.405 84.85-79.432 118.877-34.025 34.025-74.419 61.016-118.877 79.431-44.456 18.415-92.104 27.893-140.225 27.893zM815.421 948.259c-8.972 7.176-22.060 5.722-29.238-3.248-7.175-8.97-5.72-22.060 3.249-29.236l161.345-129.076c8.969-7.176 22.060-5.722 29.235 3.248 7.177 8.97 5.723 22.060-3.249 29.236l-161.343 129.076z" />
<glyph unicode="&#xe901;" glyph-name="wms-access-time" d="M532.794 630.849c0 11.487-9.311 20.799-20.799 20.799s-20.801-9.311-20.801-20.799v-182.856c0-4.971 1.78-9.775 5.015-13.547l185.784-216.502c7.48-8.718 20.613-9.721 29.328-2.241 8.718 7.482 9.721 20.613 2.241 29.331l-180.769 210.66v175.155zM512.002 944.227c-274.060 0-496.23-222.17-496.23-496.23 0-274.062 222.17-496.228 496.23-496.228 274.062 0 496.228 222.166 496.228 496.228 0 274.060-222.166 496.23-496.228 496.23zM57.373 447.998c0 251.085 203.545 454.63 454.63 454.63 251.087 0 454.628-203.545 454.628-454.63 0-251.087-203.541-454.628-454.628-454.628-251.085 0-454.63 203.541-454.63 454.628z" />
<glyph unicode="&#xe902;" glyph-name="wms-accessibility-2" d="M499.777 948.795c-80.337 0-145.464-65.126-145.464-145.463s65.126-145.464 145.464-145.464c80.337 0 145.462 65.126 145.462 145.464s-65.124 145.463-145.462 145.463zM395.913 803.333c0 57.362 46.501 103.863 103.864 103.863s103.862-46.501 103.862-103.863c0-57.362-46.499-103.864-103.862-103.864s-103.864 46.502-103.864 103.864zM175.976 632.732c-13.234 0-26.338-2.607-38.563-7.671s-23.335-12.486-32.693-21.844c-9.357-9.358-16.78-20.466-21.844-32.691-5.064-12.227-7.671-25.33-7.671-38.565 0-13.233 2.607-26.338 7.671-38.563s12.487-23.336 21.844-32.694c9.357-9.356 20.466-16.78 32.693-21.844 11.612-4.81 24.017-7.403 36.571-7.65l183.895-33.59v-97.969l-143.814-172.202c-8.654-10.145-15.209-21.907-19.284-34.604-4.088-12.739-5.599-26.163-4.444-39.491s4.952-26.294 11.17-38.139c6.218-11.843 14.732-22.333 25.046-30.853 10.315-8.52 22.221-14.902 35.028-18.772 12.805-3.87 26.254-5.153 39.561-3.77 13.305 1.382 26.203 5.399 37.942 11.818 11.664 6.379 21.951 15.004 30.266 25.374l126.057 150.851 112.51-147.935c16.216-21.248 40.208-35.181 66.7-38.74 26.491-3.556 53.311 3.556 74.557 19.773 21.248 16.216 35.184 40.208 38.74 66.7 3.556 26.482-3.565 53.313-19.77 74.557l-128.689 169.23v103.806l210.344 33.953c26.089 0.456 51.011 11.017 69.492 29.498 18.897 18.9 29.514 44.53 29.514 71.256s-10.617 52.359-29.514 71.256c-18.897 18.897-44.53 29.514-71.256 29.514-0.733 0-1.464-0.037-2.192-0.114l-346.775-36.785-320.721 36.764c-0.786 0.091-1.577 0.135-2.369 0.135zM153.332 586.629c6.84 2.835 14.149 4.357 21.545 4.494l321.731-36.88c1.517-0.172 3.046-0.179 4.564-0.019l347.881 36.901c15.325-0.263 29.966-6.465 40.823-17.322 11.096-11.099 17.329-26.149 17.329-41.842s-6.232-30.743-17.329-41.84c-11.099-11.096-26.149-17.331-41.842-17.331-1.11 0-2.218-0.088-3.314-0.265l-229.381-37.025c-10.077-1.627-17.485-10.326-17.485-20.534v-128.528c0-4.547 1.492-8.969 4.243-12.591l132.976-174.869c9.523-12.477 13.701-28.225 11.611-43.781-2.088-15.555-10.273-29.645-22.749-39.168s-28.225-13.698-43.781-11.611c-15.555 2.090-29.645 10.273-39.168 22.749l-128.256 168.641c-3.833 5.039-9.751 8.057-16.079 8.201-6.328 0.147-12.379-2.6-16.438-7.457l-143.225-171.404c-4.899-6.139-10.971-11.243-17.864-15.013-6.891-3.768-14.466-6.128-22.279-6.94-7.813-0.81-15.709-0.058-23.229 2.213-7.519 2.274-14.513 6.021-20.568 11.024-6.056 5.001-11.055 11.162-14.706 18.115-3.651 6.956-5.881 14.569-6.559 22.395s0.209 15.709 2.61 23.189c2.399 7.48 6.267 14.406 11.373 20.375l148.878 178.267c3.123 3.742 4.836 8.46 4.836 13.333v122.857c0 10.045-7.182 18.655-17.064 20.461l-202.702 37.025c-1.233 0.223-2.484 0.337-3.737 0.337-7.771 0-15.465 1.531-22.644 4.506-7.179 2.972-13.702 7.331-19.197 12.826s-9.853 12.018-12.827 19.198c-2.974 7.177-4.504 14.871-4.504 22.642s1.53 15.465 4.504 22.644c2.974 7.18 7.332 13.703 12.827 19.198s12.018 9.851 19.197 12.826z" />
<glyph unicode="&#xe903;" glyph-name="wms-accessibility" d="M234.661 255.476c-11.137 0-22.164-2.192-32.452-6.454s-19.637-10.508-27.511-18.383c-7.874-7.873-14.121-17.222-18.382-27.511s-6.455-21.315-6.455-32.451c0-11.136 2.193-22.163 6.455-32.451s10.508-19.638 18.382-27.511c7.874-7.875 17.223-14.122 27.511-18.383s21.315-6.456 32.452-6.456c11.136 0 22.163 2.195 32.451 6.456s19.635 10.508 27.511 18.383c7.875 7.873 14.122 17.222 18.383 27.511s6.454 21.315 6.454 32.451c0 11.136-2.192 22.163-6.454 32.451s-10.508 19.638-18.383 27.511c-7.875 7.875-17.222 14.122-27.511 18.383s-21.315 6.454-32.451 6.454zM218.129 210.588c5.241 2.171 10.859 3.288 16.532 3.288 5.672 0 11.29-1.117 16.531-3.288 5.241-2.169 10.005-5.353 14.015-9.363 4.012-4.012 7.196-8.774 9.365-14.017 2.171-5.241 3.288-10.857 3.288-16.531s-1.117-11.292-3.288-16.533c-2.169-5.241-5.353-10.003-9.365-14.015-4.010-4.010-8.774-7.194-14.015-9.365-5.241-2.169-10.859-3.288-16.531-3.288-5.673 0-11.291 1.119-16.532 3.288-5.241 2.171-10.004 5.355-14.015 9.365-4.012 4.012-7.194 8.774-9.364 14.015s-3.288 10.859-3.288 16.533c0 5.674 1.118 11.29 3.288 16.531 2.171 5.243 5.353 10.005 9.364 14.017 4.012 4.010 8.774 7.194 14.015 9.363zM874.671 959.477c-5.518 0-10.808-2.192-14.708-6.093l-406.882-406.924c-64.393 29.496-136.92 36.815-206.15 20.538-74.215-17.448-139.743-60.863-184.748-122.401-45.005-61.535-66.519-137.139-60.657-213.153s38.715-147.423 92.624-201.33c53.909-53.909 125.319-86.763 201.333-92.625 76.011-5.862 151.615 15.653 213.153 60.658 61.535 45.005 104.951 110.534 122.398 184.748 16.277 69.229 8.958 141.759-20.538 206.152l123.459 123.497h55.382c11.487 0 20.801 9.311 20.801 20.799v55.384l9.149 9.149h55.384c11.487 0 20.799 9.314 20.799 20.801v55.384l9.151 9.149h55.384c11.487 0 20.799 9.314 20.799 20.801v55.383l36.575 36.574c3.901 3.901 6.090 9.191 6.090 14.708v128c0 11.488-9.311 20.8-20.799 20.8h-128zM472.013 506.561l411.273 411.316h98.583v-98.584l-36.573-36.574c-3.901-3.901-6.093-9.191-6.093-14.708v-43.2h-43.199c-5.518 0-10.808-2.192-14.708-6.093l-21.334-21.332c-3.901-3.901-6.093-9.193-6.093-14.708v-43.201h-43.199c-5.516 0-10.808-2.19-14.708-6.090l-21.334-21.334c-3.901-3.901-6.090-9.19-6.090-14.708v-43.199h-43.201c-5.518 0-10.808-2.192-14.711-6.095l-140.032-140.074c-6.402-6.407-7.924-16.221-3.763-24.266 30.476-58.892 38.884-126.743 23.708-191.293-15.176-64.552-52.938-121.546-106.461-160.691-53.525-39.145-119.282-57.858-185.398-52.759-66.114 5.099-128.226 33.676-175.115 80.563-46.889 46.89-75.463 109-80.563 175.116-5.099 66.113 13.614 131.873 52.759 185.395 39.144 53.525 96.14 91.285 160.69 106.461 64.552 15.178 132.401 6.77 191.295-23.706 8.045-4.163 17.862-2.639 24.266 3.766z" />
<glyph unicode="&#xe904;" glyph-name="wms-account-settings" d="M525.691 948.795c-110.911 0-200.816-89.908-200.816-200.816s89.903-200.819 200.816-200.819c110.904 0 200.816 89.912 200.816 200.819 0 110.908-89.912 200.816-200.816 200.816zM366.476 747.979c0 87.933 71.28 159.216 159.216 159.216 87.929 0 159.216-71.283 159.216-159.216s-71.287-159.219-159.216-159.219c-87.936 0-159.216 71.287-159.216 159.219zM525.696 534.751c-149.839 0-279.65-103.256-321.597-240.682-3.354-10.987 2.835-22.612 13.822-25.965s22.612 2.835 25.966 13.822c36.883 120.834 151.203 211.226 281.809 211.226s244.925-90.391 281.807-211.226c3.354-10.987 14.978-17.175 25.965-13.822s17.175 14.978 13.822 25.965c-41.944 137.425-171.755 240.682-321.594 240.682zM519.564 395.194c-8.913 0-17.613-5.048-20.673-17.294-0.091-0.358-0.191-0.717-0.3-1.073l-14.687-47.737c-0.337-1.094-0.763-2.16-1.278-3.184-10.131-20.264-32.759-39.191-63.076-33.129l-0.598 0.13-48.105 11.101c-23.033 5.758-40.036-20.741-23.512-39.401l32.682-36.312c19.628-20.101 16.987-50.162 1.499-70.814-0.372-0.496-0.766-0.975-1.18-1.434l-32.998-36.666c-16.528-18.66 0.479-45.163 23.51-39.405l0.368 0.091 48.335 11.143c12.87 2.574 26.894 1.55 39.087-4.545 12.39-6.198 22.118-17.359 25.537-32.647l14.417-46.857c0.109-0.356 0.209-0.712 0.3-1.073 3.060-12.244 11.76-17.294 20.673-17.294 9.121 0 19.323 5.439 23.806 18.623l14.608 47.481c0.337 1.096 0.763 2.162 1.275 3.186 10.133 20.261 32.759 39.189 63.078 33.126l0.598-0.128 48.105-11.101c23.031-5.76 40.036 20.741 23.512 39.398l-0.037 0.042-32.645 36.271c-19.631 20.101-16.989 50.164-1.499 70.814 0.37 0.496 0.766 0.975 1.18 1.436l33.001 36.666c16.524 18.66-0.482 45.161-23.512 39.403l-0.368-0.091-48.335-11.143c-12.872-2.574-26.896-1.548-39.087 4.547-12.39 6.195-22.121 17.357-25.537 32.645l-14.338 46.601c-4.482 13.186-14.685 18.623-23.806 18.623zM519.564 436.794c26.636 0 53.094-16.54 63.339-47.272l0.147-0.461 14.69-47.737c0.205-0.67 0.377-1.35 0.514-2.039 0.496-2.476 1.608-3.759 3.596-4.752 2.458-1.229 6.696-2.034 12.065-1.012l47.227 10.899c64.97 16.067 106.584-60.102 64.461-107.49l-0.086-0.095-32.344-35.938c-5.827-8.246-3.342-14.345-1.457-16.228 0.256-0.256 0.507-0.521 0.752-0.794l33.136-36.815c42.124-47.39 0.51-123.557-64.461-107.49l-47.211 10.894c-3.717 0.689-6.665-0.035-9.304-1.617-2.674-1.603-5.357-4.343-7.464-8.055l-14.113-45.866-0.147-0.461c-10.245-30.732-36.703-47.272-63.339-47.272-26.726 0-52.757 16.777-60.884 48.221l-14.538 47.248c-0.205 0.67-0.377 1.352-0.517 2.039-0.493 2.479-1.606 3.761-3.593 4.755-2.458 1.229-6.698 2.034-12.065 1.012l-47.23-10.899c-64.968-16.067-106.582 60.099-64.458 107.49l0.086 0.095 32.342 35.935c5.827 8.246 3.342 14.345 1.459 16.228-0.258 0.258-0.507 0.524-0.752 0.794l-33.136 36.817c-42.124 47.388-0.51 123.557 64.458 107.49l47.213-10.896c3.717-0.689 6.665 0.035 9.304 1.617 2.674 1.603 5.355 4.343 7.464 8.055l13.961 45.377c8.127 31.446 34.157 48.221 60.884 48.221zM448.040 192c0 40.262 32.642 72.904 72.904 72.904 40.266 0 72.904-32.642 72.904-72.904 0-40.266-32.638-72.904-72.904-72.904-40.262 0-72.904 32.638-72.904 72.904zM520.944 223.304c-17.287 0-31.304-14.017-31.304-31.304 0-17.289 14.015-31.304 31.304-31.304 17.292 0 31.304 14.013 31.304 31.304 0 17.287-14.015 31.304-31.304 31.304z" />
<glyph unicode="&#xe905;" glyph-name="wms-account" d="M521.144 884.795c-112.477 0-203.657-91.18-203.657-203.656s91.18-203.657 203.657-203.657c112.475 0 203.657 91.18 203.657 203.657s-91.183 203.656-203.657 203.656zM359.087 681.139c0 89.501 72.555 162.056 162.057 162.056 89.5 0 162.057-72.556 162.057-162.056 0-89.502-72.557-162.057-162.057-162.057-89.502 0-162.057 72.555-162.057 162.057zM521.193 405.171h-0.091c-5.271-0.012-10.547-0.144-15.825-0.393-59.201-2.802-116.727-20.564-167.203-51.628-50.476-31.062-92.258-74.412-121.438-125.996-29.181-51.589-44.812-109.726-45.43-168.997v-39.869c0-11.487 9.312-20.801 20.8-20.801h658.285c11.487 0 20.801 9.314 20.801 20.801v39.65l-0.002 0.219c-0.619 59.271-16.249 117.411-45.431 169-29.179 51.582-70.961 94.932-121.437 125.994-50.476 31.064-108.004 48.826-167.205 51.628-5.276 0.249-10.552 0.382-15.823 0.393zM359.875 317.722c44.488 27.378 95.19 43.034 147.368 45.503 4.638 0.219 9.277 0.335 13.905 0.347 4.629-0.012 9.265-0.128 13.903-0.347 52.177-2.469 102.879-18.125 147.368-45.503 44.488-27.376 81.313-65.585 107.031-111.048 25.702-45.44 39.475-96.64 40.041-148.843v-18.744h-616.687v18.742c0.563 52.203 14.337 103.405 40.040 148.845 25.719 45.463 62.543 83.67 107.031 111.048z" />
<glyph unicode="&#xe906;" glyph-name="wms-action-variables" d="M712.436 860.763c-7.498 7.498-19.656 7.498-27.152 0-7.498-7.498-7.498-19.655 0-27.153l184.448-184.45h-677.74c-10.604 0-19.2-8.597-19.2-19.2s8.596-19.2 19.2-19.2h677.735l-184.443-184.443c-7.498-7.498-7.498-19.656 0-27.152 7.496-7.498 19.654-7.498 27.152 0l217.223 217.223c7.498 7.496 7.498 19.654 0 27.152l-217.223 217.223zM839.27 242.695c0-10.605-8.597-19.2-19.2-19.2h-677.719l184.444-184.443c7.498-7.498 7.498-19.656 0-27.155-7.498-7.496-19.656-7.496-27.152 0l-216.939 216.939c-3.644 3.493-5.912 8.411-5.912 13.859 0 3.221 0.793 6.256 2.195 8.92 0.879 1.676 2.023 3.249 3.432 4.659l217.224 217.223c7.496 7.498 19.654 7.498 27.152 0s7.498-19.656 0-27.152l-184.45-184.45h677.725c10.603 0 19.2-8.597 19.2-19.2z" />
<glyph unicode="&#xe907;" glyph-name="wms-actions" d="M128 453.818c0-67.479 54.703-122.182 122.182-122.182h523.636c67.479 0 122.182 54.703 122.182 122.182s-54.703 122.182-122.182 122.182h-523.636c-67.479 0-122.182-54.703-122.182-122.182zM250.182 530.618h523.636c42.415 0 76.8-34.385 76.8-76.8s-34.385-76.8-76.8-76.8h-523.636c-42.415 0-76.8 34.385-76.8 76.8s34.385 76.8 76.8 76.8zM23.273 820.364v-733.091c0-38.561 31.259-69.818 69.818-69.818h837.818c38.561 0 69.818 31.258 69.818 69.818v733.091c0 38.559-31.258 69.818-69.818 69.818h-837.818c-38.559 0-69.818-31.259-69.818-69.818zM93.091 844.8h837.818c13.496 0 24.436-10.941 24.436-24.436v-733.091c0-13.496-10.941-24.436-24.436-24.436h-837.818c-13.496 0-24.436 10.941-24.436 24.436v733.091c0 13.496 10.941 24.436 24.436 24.436z" />
<glyph unicode="&#xe908;" glyph-name="wms-adb" d="M368.005 692.682c20.324 0 36.799-16.477 36.799-36.801s-16.475-36.799-36.799-36.799c-20.324 0-36.801 16.475-36.801 36.799s16.477 36.801 36.801 36.801zM656.005 692.682c20.324 0 36.799-16.477 36.799-36.801s-16.475-36.799-36.799-36.799c-20.324 0-36.801 16.475-36.801 36.799s16.477 36.801 36.801 36.801zM211.852 944.76c9.322 6.712 22.32 4.597 29.035-4.726l78.41-108.897c57.67 34.822 124.216 53.669 192.707 53.669 68.489 0 135.040-18.847 192.71-53.671l78.413 108.898c6.712 9.322 19.71 11.438 29.033 4.726s11.439-19.711 4.724-29.034l-77.803-108.056c12.793-9.826 25.002-20.524 36.531-32.055 69.916-69.912 109.191-164.737 109.191-263.609v-12.786c31.777-4.485 61.461-19.163 84.417-42.119 27.906-27.904 43.583-65.755 43.583-105.221v-256c0-11.487-9.311-20.799-20.799-20.799s-20.801 9.311-20.801 20.799v256c0 28.435-11.294 55.703-31.397 75.806-15.13 15.127-34.316 25.267-55.003 29.359v-425.039c0-22.488-8.93-44.060-24.834-59.965s-37.478-24.837-59.965-24.837h-576c-22.489 0-44.059 8.932-59.963 24.837-15.903 15.902-24.837 37.476-24.837 59.965v425.039c-20.687-4.091-39.873-14.231-55.002-29.359-20.103-20.103-31.398-47.372-31.398-75.806v-256c0-11.487-9.313-20.799-20.8-20.799s-20.8 9.311-20.8 20.799v256c0 39.466 15.677 77.317 43.583 105.221 22.956 22.956 52.641 37.634 84.417 42.119v12.786c0 98.872 39.277 193.697 109.19 263.609 11.532 11.532 23.743 22.23 36.536 32.056l-77.804 108.054c-6.713 9.322-4.597 22.321 4.726 29.034zM696.737 786.903c-54.221 36.436-118.454 56.303-184.732 56.303-66.274 0-130.499-19.863-184.718-56.293-0.368-0.305-0.749-0.6-1.143-0.883-0.701-0.504-1.422-0.959-2.16-1.364-16.412-11.318-31.879-24.171-46.173-38.466-62.113-62.113-97.007-146.353-97.007-234.193v-11.201h662.399v11.201c0 87.841-34.893 172.083-97.008 234.194-14.296 14.298-29.766 27.153-46.182 38.473-0.733 0.403-1.45 0.855-2.146 1.356-0.389 0.28-0.766 0.572-1.131 0.873zM180.805 459.206v-427.199c0-11.457 4.552-22.449 12.653-30.548 8.1-8.101 19.089-12.653 30.547-12.653h576c11.457 0 22.449 4.552 30.548 12.653 8.101 8.099 12.651 19.088 12.651 30.548v427.199h-662.399z" />
<glyph unicode="&#xe909;" glyph-name="wms-add-alert" d="M736.005 852.79c11.487 0 20.799-9.312 20.799-20.8v-107.2h107.201c11.487 0 20.799-9.311 20.799-20.799s-9.311-20.801-20.799-20.801h-107.201v-107.199c0-11.487-9.311-20.801-20.799-20.801s-20.801 9.314-20.801 20.801v107.199h-107.199c-11.487 0-20.801 9.314-20.801 20.801s9.314 20.799 20.801 20.799h107.199v107.2c0 11.488 9.314 20.8 20.801 20.8zM731.434 944.227c-132.675 0-240.23-107.554-240.23-240.23 0-132.673 107.555-240.228 240.23-240.228 132.678 0 240.228 107.555 240.228 240.228 0 132.675-107.55 240.23-240.228 240.23zM532.803 703.998c0 109.7 88.93 198.63 198.63 198.63 109.703 0 198.628-88.929 198.628-198.63 0-109.698-88.925-198.628-198.628-198.628-109.701 0-198.63 88.93-198.63 198.628zM436.669 834.285c1.268-11.417-6.959-21.701-18.376-22.97-132.769-14.752-187.064-107.008-213.378-151.722l-0.276-0.468c-24.612-41.816-37.581-89.463-37.557-137.984v-256.012c0-33.045-12.534-64.805-34.97-88.913h613.479c-22.435 24.111-34.967 55.869-34.967 88.913v118.858c0 11.487 9.314 20.799 20.801 20.799s20.799-9.311 20.799-20.799v-118.858c0-23.582 9.367-46.201 26.040-62.874s39.294-26.040 62.876-26.040c11.487 0 20.799-9.311 20.799-20.799s-9.311-20.801-20.799-20.801h-804.572c-11.487 0-20.8 9.314-20.8 20.801s9.313 20.799 20.8 20.799c23.583 0 46.198 9.367 62.872 26.040 16.674 16.675 26.042 39.294 26.042 62.874v255.991c-0.026 55.948 14.928 110.89 43.305 159.106l0.669 1.136c27.162 46.166 90.75 154.243 244.243 171.298 11.418 1.268 21.699-6.959 22.97-18.376zM344.909 36.568c0 11.487 9.311 20.799 20.799 20.799h146.285c11.487 0 20.801-9.311 20.801-20.799s-9.314-20.801-20.801-20.801h-146.285c-11.487 0-20.799 9.314-20.799 20.801z" />
<glyph unicode="&#xe90a;" glyph-name="wms-add-app" d="M930.909 891.345c13.496 0 24.436-10.941 24.436-24.436v-837.818c0-13.496-10.941-24.436-24.436-24.436h-837.818c-13.496 0-24.436 10.941-24.436 24.436v837.818c0 13.496 10.941 24.436 24.436 24.436h837.818zM93.091 936.727c-38.559 0-69.818-31.259-69.818-69.818v-837.818c0-38.561 31.259-69.818 69.818-69.818h837.818c38.561 0 69.818 31.258 69.818 69.818v837.818c0 38.559-31.258 69.818-69.818 69.818h-837.818z" />
<glyph unicode="&#xe90b;" glyph-name="wms-add-box" d="M512.002 749.96c12.532 0 22.691-10.159 22.691-22.69v-256.582h256.582c12.532 0 22.691-10.161 22.691-22.691 0-12.532-10.159-22.691-22.691-22.691h-256.582v-256.582c0-12.532-10.159-22.691-22.691-22.691-12.53 0-22.691 10.159-22.691 22.691v256.582h-256.582c-12.531 0-22.69 10.159-22.69 22.691 0 12.53 10.159 22.691 22.69 22.691h256.582v256.582c0 12.531 10.161 22.69 22.691 22.69zM93.091 936.727h837.818c38.561 0 69.818-31.259 69.818-69.818v-837.818c0-38.561-31.258-69.818-69.818-69.818h-837.818c-38.559 0-69.818 31.258-69.818 69.818v837.818c0 38.559 31.259 69.818 69.818 69.818zM930.909 891.345h-837.818c-13.496 0-24.436-10.941-24.436-24.436v-837.818c0-13.496 10.941-24.436 24.436-24.436h837.818c13.496 0 24.436 10.941 24.436 24.436v837.818c0 13.496-10.941 24.436-24.436 24.436z" />
<glyph unicode="&#xe90c;" glyph-name="wms-add-circle-outline" d="M512.002 773.233c12.532 0 22.691-10.159 22.691-22.691v-256.581h256.582c12.532 0 22.691-10.161 22.691-22.691 0-12.532-10.159-22.691-22.691-22.691h-256.582v-256.582c0-12.532-10.159-22.691-22.691-22.691-12.53 0-22.691 10.159-22.691 22.691v256.582h-256.582c-12.531 0-22.69 10.159-22.69 22.691 0 12.53 10.159 22.691 22.69 22.691h256.582v256.581c0 12.532 10.161 22.691 22.691 22.691zM512 960c269.917 0 488.727-218.811 488.727-488.727s-218.81-488.727-488.727-488.727c-269.917 0-488.727 218.81-488.727 488.727s218.81 488.727 488.727 488.727zM68.655 471.273c0-244.852 198.493-443.345 443.345-443.345s443.345 198.493 443.345 443.345c0 244.852-198.493 443.345-443.345 443.345s-443.345-198.493-443.345-443.345z" />
<glyph unicode="&#xe90d;" glyph-name="wms-add-circle" d="M512.002 749.96c12.532 0 22.691-10.159 22.691-22.69v-256.582h256.582c12.532 0 22.691-10.161 22.691-22.691 0-12.532-10.159-22.691-22.691-22.691h-256.582v-256.582c0-12.532-10.159-22.691-22.691-22.691-12.53 0-22.691 10.159-22.691 22.691v256.582h-256.582c-12.531 0-22.69 10.159-22.69 22.691 0 12.53 10.159 22.691 22.69 22.691h256.582v256.582c0 12.531 10.161 22.69 22.691 22.69zM512 936.727c269.917 0 488.727-218.81 488.727-488.727s-218.81-488.727-488.727-488.727c-269.917 0-488.727 218.81-488.727 488.727s218.81 488.727 488.727 488.727zM68.655 448c0-244.852 198.493-443.345 443.345-443.345s443.345 198.493 443.345 443.345c0 244.852-198.493 443.345-443.345 443.345s-443.345-198.493-443.345-443.345z" />
<glyph unicode="&#xe90e;" glyph-name="wms-add-column-left" d="M919.273 681.891c13.496 0 24.436-10.941 24.436-24.436v-628.364c0-13.496-10.941-24.436-24.436-24.436h-104.727c-13.496 0-24.436 10.941-24.436 24.436v628.364c0 13.496 10.941 24.436 24.436 24.436h104.727zM814.545 727.273c-38.561 0-69.818-31.258-69.818-69.818v-628.364c0-38.561 31.258-69.818 69.818-69.818h104.727c38.561 0 69.818 31.258 69.818 69.818v628.364c0 38.561-31.258 69.818-69.818 69.818h-104.727zM570.182 681.891c13.496 0 24.436-10.941 24.436-24.436v-628.364c0-13.496-10.941-24.436-24.436-24.436h-104.727c-13.496 0-24.436 10.941-24.436 24.436v628.364c0 13.496 10.941 24.436 24.436 24.436h104.727zM465.455 727.273c-38.561 0-69.818-31.258-69.818-69.818v-628.364c0-38.561 31.258-69.818 69.818-69.818h104.727c38.561 0 69.818 31.258 69.818 69.818v628.364c0 38.561-31.258 69.818-69.818 69.818h-104.727zM221.091 891.345c13.496 0 24.436-10.941 24.436-24.436v-593.455c0-13.496-10.941-24.436-24.436-24.436h-104.727c-13.496 0-24.436 10.941-24.436 24.436v593.455c0 13.496 10.941 24.436 24.436 24.436h104.727zM116.364 936.727c-38.559 0-69.818-31.259-69.818-69.818v-593.455c0-38.561 31.259-69.818 69.818-69.818h104.727c38.561 0 69.818 31.258 69.818 69.818v593.455c0 38.559-31.258 69.818-69.818 69.818h-104.727z" />
<glyph unicode="&#xe90f;" glyph-name="wms-add-column-right" d="M989.091 866.909v-593.455c0-38.561-31.258-69.818-69.818-69.818h-104.727c-38.561 0-69.818 31.258-69.818 69.818v593.455c0 38.559 31.258 69.818 69.818 69.818h104.727c38.561 0 69.818-31.259 69.818-69.818zM919.273 891.345h-104.727c-13.496 0-24.436-10.941-24.436-24.436v-593.455c0-13.496 10.941-24.436 24.436-24.436h104.727c13.496 0 24.436 10.941 24.436 24.436v593.455c0 13.496-10.941 24.436-24.436 24.436zM570.182 727.273h-104.727c-38.561 0-69.818-31.258-69.818-69.818v-628.364c0-38.561 31.258-69.818 69.818-69.818h104.727c38.561 0 69.818 31.258 69.818 69.818v628.364c0 38.561-31.258 69.818-69.818 69.818zM465.455 681.891h104.727c13.496 0 24.436-10.941 24.436-24.436v-628.364c0-13.496-10.941-24.436-24.436-24.436h-104.727c-13.496 0-24.436 10.941-24.436 24.436v628.364c0 13.496 10.941 24.436 24.436 24.436zM221.091 727.273h-104.727c-38.559 0-69.818-31.258-69.818-69.818v-628.364c0-38.561 31.259-69.818 69.818-69.818h104.727c38.561 0 69.818 31.258 69.818 69.818v628.364c0 38.561-31.258 69.818-69.818 69.818zM116.364 681.891h104.727c13.496 0 24.436-10.941 24.436-24.436v-628.364c0-13.496-10.941-24.436-24.436-24.436h-104.727c-13.496 0-24.436 10.941-24.436 24.436v628.364c0 13.496 10.941 24.436 24.436 24.436z" />
<glyph unicode="&#xe910;" glyph-name="wms-add-column" d="M861.091 871.564v-488.727c0-35.989-29.175-65.164-65.164-65.164h-65.164c-35.989 0-65.164 29.175-65.164 65.164v446.371h-4.073v42.356h4.073c0 35.989 29.175 65.164 65.164 65.164h65.164c35.989 0 65.164-29.175 65.164-65.164zM795.927 894.371h-65.164c-12.595 0-22.807-10.211-22.807-22.807v-488.727c0-12.595 10.212-22.807 22.807-22.807h65.164c12.595 0 22.807 10.212 22.807 22.807v488.727c0 12.596-10.212 22.807-22.807 22.807zM958.836-8.145v52.945h-42.356v-43.171h-43.171v-42.356h52.945c17.994 0 32.582 14.587 32.582 32.582zM916.48 150.691h42.356v105.891h-42.356v-105.891zM916.48 362.473h42.356v105.891h-42.356v-105.891zM916.48 574.255h42.356v105.891h-42.356v-105.891zM916.48 786.036h42.356v52.945c0 17.994-14.587 32.582-32.582 32.582h-52.945v-42.356h43.171v-43.171zM555.636 829.207v42.356h-105.891v-42.356h105.891zM343.855 829.207v42.356h-105.891v-42.356h105.891zM132.073 829.207v42.356h-52.945c-17.994 0-32.582-14.587-32.582-32.582v-52.945h42.356v43.171h43.171zM88.902 680.145h-42.356v-105.891h42.356v105.891zM88.902 468.364h-42.356v-105.891h42.356v105.891zM88.902 256.582h-42.356v-105.891h42.356v105.891zM88.902 44.8h-42.356v-52.945c0-17.994 14.587-32.582 32.582-32.582h52.945v42.356h-43.171v43.171zM237.964 1.629v-42.356h105.891v42.356h-105.891zM449.745 1.629v-42.356h105.891v42.356h-105.891zM661.527 1.629v-42.356h105.891v42.356h-105.891zM339.782 610.909v-488.727c0-35.989-29.175-65.164-65.164-65.164h-65.164c-35.989 0-65.164 29.175-65.164 65.164v488.727c0 35.989 29.175 65.164 65.164 65.164h65.164c35.989 0 65.164-29.175 65.164-65.164zM274.618 633.716h-65.164c-12.596 0-22.807-10.212-22.807-22.807v-488.727c0-12.595 10.211-22.807 22.807-22.807h65.164c12.595 0 22.807 10.212 22.807 22.807v488.727c0 12.595-10.212 22.807-22.807 22.807zM535.273 676.073h-65.164c-35.989 0-65.164-29.175-65.164-65.164v-488.727c0-35.989 29.175-65.164 65.164-65.164h65.164c35.989 0 65.164 29.175 65.164 65.164v488.727c0 35.989-29.175 65.164-65.164 65.164zM470.109 633.716h65.164c12.595 0 22.807-10.212 22.807-22.807v-488.727c0-12.595-10.212-22.807-22.807-22.807h-65.164c-12.595 0-22.807 10.212-22.807 22.807v488.727c0 12.595 10.212 22.807 22.807 22.807z" />
<glyph unicode="&#xe911;" glyph-name="wms-add-row-above" d="M93.091 913.455h593.455c38.561 0 69.818-31.259 69.818-69.818v-104.727c0-38.561-31.258-69.818-69.818-69.818h-593.455c-38.559 0-69.818 31.258-69.818 69.818v104.727c0 38.559 31.259 69.818 69.818 69.818zM68.655 843.636v-104.727c0-13.496 10.941-24.436 24.436-24.436h593.455c13.496 0 24.436 10.941 24.436 24.436v104.727c0 13.496-10.941 24.436-24.436 24.436h-593.455c-13.496 0-24.436-10.941-24.436-24.436zM232.727 145.455v-104.727c0-38.558 31.258-69.818 69.818-69.818h628.364c38.561 0 69.818 31.26 69.818 69.818v104.727c0 38.561-31.26 69.818-69.818 69.818h-628.364c-38.561 0-69.818-31.258-69.818-69.818zM278.109 40.727v104.727c0 13.496 10.941 24.436 24.436 24.436h628.364c13.496 0 24.436-10.941 24.436-24.436v-104.727c0-13.496-10.941-24.436-24.436-24.436h-628.364c-13.496 0-24.436 10.941-24.436 24.436zM232.727 494.545v-104.727c0-38.561 31.258-69.818 69.818-69.818h628.364c38.561 0 69.818 31.258 69.818 69.818v104.727c0 38.561-31.26 69.818-69.818 69.818h-628.364c-38.561 0-69.818-31.258-69.818-69.818zM278.109 389.818v104.727c0 13.496 10.941 24.436 24.436 24.436h628.364c13.496 0 24.436-10.941 24.436-24.436v-104.727c0-13.496-10.941-24.436-24.436-24.436h-628.364c-13.496 0-24.436 10.941-24.436 24.436z" />
<glyph unicode="&#xe912;" glyph-name="wms-add-row-below" d="M72.404-40.727h615.435c39.987 0 72.404 32.417 72.404 72.404v108.607c0 39.987-32.417 72.404-72.404 72.404h-615.435c-39.988 0-72.404-32.417-72.404-72.404v-108.607c0-39.987 32.416-72.404 72.404-72.404zM47.063 31.677v108.607c0 13.996 11.346 25.342 25.341 25.342h615.435c13.994 0 25.339-11.345 25.339-25.342v-108.607c0-13.996-11.345-25.342-25.339-25.342h-615.435c-13.996 0-25.341 11.345-25.341 25.342zM217.212 755.717v108.606c0 39.988 32.416 72.404 72.403 72.404h651.636c39.99 0 72.406-32.416 72.406-72.404v-108.606c0-39.988-32.417-72.404-72.406-72.404h-651.636c-39.987 0-72.403 32.417-72.403 72.404zM264.276 864.323v-108.606c0-13.996 11.345-25.341 25.339-25.341h651.636c13.996 0 25.342 11.346 25.342 25.341v108.606c0 13.996-11.345 25.341-25.342 25.341h-651.636c-13.994 0-25.339-11.346-25.339-25.341zM217.212 393.698v108.605c0 39.987 32.416 72.404 72.403 72.404h651.636c39.99 0 72.406-32.417 72.406-72.404v-108.605c0-39.99-32.417-72.404-72.406-72.404h-651.636c-39.987 0-72.403 32.414-72.403 72.404zM264.276 502.302v-108.605c0-13.996 11.345-25.342 25.339-25.342h651.636c13.996 0 25.342 11.345 25.342 25.342v108.605c0 13.996-11.345 25.342-25.342 25.342h-651.636c-13.994 0-25.339-11.345-25.339-25.342z" />
<glyph unicode="&#xe913;" glyph-name="wms-add-row" d="M88.436 98.909h488.727c35.989 0 65.164 29.175 65.164 65.164v65.164c0 35.989-29.175 65.164-65.164 65.164h-446.371v4.073h-42.356v-4.073c-35.989 0-65.164-29.175-65.164-65.164v-65.164c0-35.989 29.175-65.164 65.164-65.164zM65.629 164.073v65.164c0 12.595 10.211 22.807 22.807 22.807h488.727c12.595 0 22.807-10.212 22.807-22.807v-65.164c0-12.595-10.212-22.807-22.807-22.807h-488.727c-12.596 0-22.807 10.212-22.807 22.807zM968.145 1.164h-52.945v42.356h43.171v43.171h42.356v-52.945c0-17.994-14.587-32.582-32.582-32.582zM809.309 43.52v-42.356h-105.891v42.356h105.891zM597.527 43.52v-42.356h-105.891v42.356h105.891zM385.745 43.52v-42.356h-105.891v42.356h105.891zM173.964 43.52v-42.356h-52.945c-17.994 0-32.582 14.587-32.582 32.582v52.945h42.356v-43.171h43.171zM130.793 404.364h-42.356v105.891h42.356v-105.891zM130.793 616.145h-42.356v105.891h42.356v-105.891zM130.793 827.927h-42.356v52.945c0 17.994 14.587 32.582 32.582 32.582h52.945v-42.356h-43.171v-43.171zM279.855 871.098v42.356h105.891v-42.356h-105.891zM491.636 871.098v42.356h105.891v-42.356h-105.891zM703.418 871.098v42.356h105.891v-42.356h-105.891zM915.2 871.098v42.356h52.945c17.994 0 32.582-14.587 32.582-32.582v-52.945h-42.356v43.171h-43.171zM958.371 722.036h42.356v-105.891h-42.356v105.891zM958.371 510.255h42.356v-105.891h-42.356v105.891zM958.371 298.473h42.356v-105.891h-42.356v105.891zM349.091 620.218h488.727c35.989 0 65.164 29.175 65.164 65.164v65.164c0 35.989-29.175 65.164-65.164 65.164h-488.727c-35.989 0-65.164-29.175-65.164-65.164v-65.164c0-35.989 29.175-65.164 65.164-65.164zM326.284 685.382v65.164c0 12.596 10.212 22.807 22.807 22.807h488.727c12.595 0 22.807-10.211 22.807-22.807v-65.164c0-12.595-10.212-22.807-22.807-22.807h-488.727c-12.595 0-22.807 10.212-22.807 22.807zM283.927 424.727v65.164c0 35.989 29.175 65.164 65.164 65.164h488.727c35.989 0 65.164-29.175 65.164-65.164v-65.164c0-35.989-29.175-65.164-65.164-65.164h-488.727c-35.989 0-65.164 29.175-65.164 65.164zM326.284 489.891v-65.164c0-12.595 10.212-22.807 22.807-22.807h488.727c12.595 0 22.807 10.212 22.807 22.807v65.164c0 12.595-10.212 22.807-22.807 22.807h-488.727c-12.595 0-22.807-10.212-22.807-22.807z" />
<glyph unicode="&#xe914;" glyph-name="wms-add-variable" d="M333.822 293.053c11.75-15.665 29.375-23.498 52.873-23.498 21.053 0 41.125 8.078 60.218 24.234s39.654 42.347 61.684 78.576l4.408 7.345 4.406-13.219c12.728-37.208 24.234-62.666 34.516-76.374 10.771-13.708 22.763-20.561 35.982-20.561s25.702 5.63 37.453 16.889c12.239 11.75 22.030 25.702 29.375 41.858 7.343 16.647 11.015 31.579 11.015 44.798 0 5.385-0.489 8.811-1.469 10.28-0.98 1.96-2.937 2.939-5.874 2.939-2.939 0-5.385-1.471-7.345-4.408-1.957-2.448-4.65-6.854-8.078-13.219-5.874-12.239-10.771-21.050-14.687-26.435-3.426-4.897-7.587-7.345-12.483-7.345-7.834 0-14.687 7.589-20.561 22.765-13.219 27.418-24.478 63.891-33.78 109.419l8.078 13.219c18.602 27.418 32.556 46.019 41.858 55.813 9.791 10.28 18.849 15.421 27.171 15.421 4.894 0 8.567-1.224 11.015-3.672 2.937-1.957 4.65-2.937 5.141-2.937 2.937 0 9.546 5.63 19.826 16.891 10.771 11.259 19.828 22.274 27.173 33.045 3.917 5.385 5.874 9.302 5.874 11.75 0 0.98-0.735 2.202-2.204 3.672-5.874 4.406-12.728 8.078-20.561 11.015-7.834 3.426-15.667 5.141-23.498 5.141-16.647 0-33.047-7.589-49.203-22.765-15.665-14.687-34.513-37.942-56.546-69.765l-8.078-11.75c-11.259 39.657-21.786 66.828-31.576 81.515-9.302 15.176-21.541 22.765-36.717 22.765-15.667 0-29.619-6.121-41.858-18.36s-21.788-26.927-28.642-44.062c-6.363-16.645-9.546-31.088-9.546-43.327 0-7.834 2.693-11.75 8.078-11.75 2.937 0 5.385 1.224 7.345 3.672 1.957 2.448 4.406 7.098 7.343 13.954 5.385 12.239 9.791 21.050 13.219 26.435 3.917 5.385 8.567 8.078 13.952 8.078 4.408 0 8.078-2.204 11.017-6.609 3.426-4.406 6.854-12.483 10.28-24.234l26.438-91.059-28.642-46.999c-13.217-21.541-23.743-36.717-31.576-45.531-7.834-8.322-16.156-12.483-24.967-12.483-5.385 0-9.793 0.98-13.219 2.937-2.937 2.448-6.854 6.121-11.75 11.015-1.469 2.448-3.426 3.672-5.874 3.672-2.937 0-6.609-2.448-11.015-7.345l-10.282-12.483c-19.093-22.519-27.662-35.493-25.702-38.921zM512 913.455c-257.064 0-465.455-208.391-465.455-465.455s208.391-465.455 465.455-465.455c257.064 0 465.455 208.391 465.455 465.455s-208.391 465.455-465.455 465.455zM85.209 448c0 235.711 191.080 426.791 426.791 426.791s426.792-191.080 426.792-426.791c0-235.711-191.081-426.792-426.792-426.792s-426.791 191.081-426.791 426.792z" />
<glyph unicode="&#xe915;" glyph-name="wms-add" d="M549.595 899.133c0 20.763-16.831 37.594-37.595 37.594s-37.595-16.832-37.595-37.594v-413.538h-413.538c-20.763 0-37.594-16.831-37.594-37.595s16.832-37.595 37.594-37.595h413.538v-413.538c0-20.764 16.831-37.595 37.595-37.595s37.595 16.831 37.595 37.595v413.538h413.538c20.764 0 37.595 16.831 37.595 37.595s-16.831 37.595-37.595 37.595h-413.538v413.538z" />
<glyph unicode="&#xe916;" glyph-name="wms-adjust-2" d="M755.537 749.815h123.006c10.964 0 19.854-8.889 19.854-19.855s-8.89-19.854-19.854-19.854h-123.003c-9.272-48.191-51.663-84.594-102.558-84.594s-93.289 36.403-102.558 84.594h-404.971c-10.965 0-19.854 8.888-19.854 19.854s8.889 19.855 19.854 19.855h404.973c9.274 48.184 51.663 84.582 102.556 84.582 50.89 0 93.279-36.398 102.556-84.582zM717.712 730.337c-0.205 35.575-29.107 64.351-64.731 64.351-35.752 0-64.733-28.982-64.733-64.733s28.982-64.732 64.733-64.732c35.626 0 64.531 28.779 64.731 64.359l-0.002 0.379 0.002 0.377zM755.54 146.195h123.003c10.964 0 19.854 8.888 19.854 19.854 0 10.964-8.89 19.854-19.854 19.854h-123.006c-9.277 48.182-51.665 84.582-102.556 84.582-50.893 0-93.282-36.401-102.556-84.582h-404.973c-10.965 0-19.854-8.888-19.854-19.854s8.889-19.854 19.854-19.854h404.971c9.27-48.189 51.663-84.594 102.558-84.594s93.286 36.406 102.558 84.594zM717.712 165.669c-0.2-35.577-29.105-64.361-64.731-64.361-35.752 0-64.733 28.984-64.733 64.733 0 35.752 28.982 64.733 64.733 64.733 35.624 0 64.526-28.777 64.731-64.349l-0.002-0.377 0.002-0.379zM878.543 428.141h-263.983c-9.277-48.182-51.665-84.578-102.554-84.578s-93.279 36.396-102.556 84.578h-263.994c-10.965 0-19.854 8.89-19.854 19.856 0 10.964 8.889 19.854 19.854 19.854h263.989c9.272 48.191 51.663 84.596 102.561 84.596 50.895 0 93.289-36.406 102.558-84.596h263.978c10.964 0 19.854-8.89 19.854-19.854 0-10.966-8.89-19.856-19.854-19.856zM512.007 383.274c35.57 0 64.44 28.691 64.731 64.193l-0.007 0.531 0.007 0.533c-0.284 35.51-29.156 64.209-64.731 64.209-35.752 0-64.733-28.984-64.733-64.733 0-35.752 28.982-64.733 64.733-64.733zM23.273 875.636v-855.273c0-33.738 27.351-61.091 61.091-61.091h855.273c33.738 0 61.091 27.352 61.091 61.091v855.273c0 33.74-27.352 61.091-61.091 61.091h-855.273c-33.74 0-61.091-27.351-61.091-61.091zM84.364 897.018h855.273c11.809 0 21.383-9.573 21.383-21.382v-855.273c0-11.809-9.574-21.383-21.383-21.383h-855.273c-11.809 0-21.382 9.574-21.382 21.383v855.273c0 11.809 9.573 21.382 21.382 21.382z" />
<glyph unicode="&#xe917;" glyph-name="wms-adjust" d="M756.364 448c0 134.959-109.405 244.364-244.364 244.364s-244.364-109.405-244.364-244.364c0-134.959 109.405-244.364 244.364-244.364s244.364 109.405 244.364 244.364zM703.418 448c0-105.716-85.702-191.418-191.418-191.418s-191.418 85.702-191.418 191.418c0 105.716 85.702 191.418 191.418 191.418s191.418-85.702 191.418-191.418zM1000.727 448c0 269.917-218.81 488.727-488.727 488.727s-488.727-218.81-488.727-488.727c0-269.917 218.81-488.727 488.727-488.727s488.727 218.81 488.727 488.727zM947.782 448c0-240.675-195.107-435.782-435.782-435.782s-435.782 195.107-435.782 435.782c0 240.675 195.107 435.782 435.782 435.782s435.782-195.107 435.782-435.782z" />
<glyph unicode="&#xe918;" glyph-name="wms-align-center" d="M64.005 907.659c-11.488 0-20.8-9.313-20.8-20.8s9.312-20.8 20.8-20.8h911.36c11.487 0 20.799 9.312 20.799 20.8s-9.311 20.8-20.799 20.8h-911.36zM192.005 615.082c-11.488 0-20.8-9.314-20.8-20.801s9.312-20.799 20.8-20.799h652.863c11.487 0 20.799 9.311 20.799 20.799s-9.311 20.801-20.799 20.801h-652.863zM43.205 9.139c0 11.49 9.312 20.801 20.8 20.801h911.36c11.487 0 20.799-9.311 20.799-20.801 0-11.487-9.311-20.799-20.799-20.799h-911.36c-11.488 0-20.8 9.311-20.8 20.799zM192.005 322.518c-11.488 0-20.8-9.311-20.8-20.799s9.312-20.801 20.8-20.801h652.863c11.487 0 20.799 9.314 20.799 20.801s-9.311 20.799-20.799 20.799h-652.863z" />
<glyph unicode="&#xe919;" glyph-name="wms-align-content-bottom" d="M235.206 191.995c0-35.051 28.416-63.467 63.467-63.467h128c35.051 0 63.467 28.416 63.467 63.467v597.333c0 35.052-28.416 63.467-63.467 63.467h-128c-35.051 0-63.467-28.415-63.467-63.467v-597.333zM298.673 170.128c-12.076 0-21.867 9.791-21.867 21.867v597.333c0 12.077 9.791 21.867 21.867 21.867h128c12.076 0 21.867-9.79 21.867-21.867v-597.333c0-12.076-9.791-21.867-21.867-21.867h-128zM640 128.528c-35.051 0-63.467 28.416-63.467 63.467v341.334c0 35.051 28.416 63.467 63.467 63.467h128c35.053 0 63.467-28.416 63.467-63.467v-341.334c0-35.051-28.414-63.467-63.467-63.467h-128zM618.133 191.995c0-12.076 9.791-21.867 21.867-21.867h128c12.079 0 21.867 9.791 21.867 21.867v341.334c0 12.076-9.789 21.867-21.867 21.867h-128c-12.076 0-21.867-9.791-21.867-21.867v-341.334zM64.534 63.995c0 11.487 9.312 20.799 20.8 20.799h853.334c11.487 0 20.799-9.311 20.799-20.799s-9.311-20.801-20.799-20.801h-853.334c-11.488 0-20.8 9.314-20.8 20.801z" />
<glyph unicode="&#xe91a;" glyph-name="wms-align-content-center" d="M490.14 427.192h86.395v-149.855c0-35.051 28.416-63.467 63.467-63.467h128c35.051 0 63.467 28.416 63.467 63.467v149.855h107.19c11.487 0 20.801 9.314 20.801 20.801s-9.314 20.799-20.801 20.799h-107.19v149.879c0 35.051-28.416 63.465-63.467 63.465h-128c-35.051 0-63.467-28.414-63.467-63.465v-149.879h-86.395v277.878c0 35.052-28.414 63.467-63.467 63.467h-128c-35.051 0-63.465-28.415-63.465-63.467v-277.878h-149.877c-11.488 0-20.8-9.311-20.8-20.799s9.312-20.801 20.8-20.801h149.877v-277.855c0-35.051 28.414-63.467 63.465-63.467h128c35.053 0 63.467 28.416 63.467 63.467v277.855zM426.673 768.536c12.079 0 21.867-9.79 21.867-21.867v-298.046c-0.005-0.209-0.009-0.421-0.009-0.631 0-0.212 0.005-0.421 0.009-0.631v-298.026c0-12.076-9.789-21.867-21.867-21.867h-128c-12.076 0-21.865 9.791-21.865 21.867v597.333c0 12.077 9.789 21.867 21.865 21.867h128zM789.869 618.671v-170.047l-0.009-0.631 0.009-0.631v-170.026c0-12.076-9.791-21.867-21.867-21.867h-128c-12.076 0-21.867 9.791-21.867 21.867v341.334c0 12.076 9.791 21.865 21.867 21.865h128c12.076 0 21.867-9.789 21.867-21.865z" />
<glyph unicode="&#xe91b;" glyph-name="wms-align-content-left" d="M128.005 895.466c11.487 0 20.8-9.312 20.8-20.8v-853.334c0-11.487-9.313-20.799-20.8-20.799s-20.8 9.311-20.8 20.799v853.334c0 11.488 9.312 20.8 20.8 20.8zM192.533 704c0 35.051 28.415 63.466 63.467 63.466h341.332c35.053 0 63.467-28.415 63.467-63.466v-128c0-35.053-28.414-63.467-63.467-63.467h-341.332c-35.052 0-63.467 28.414-63.467 63.467v128zM256 725.867c-12.076 0-21.867-9.791-21.867-21.867v-128c0-12.079 9.791-21.867 21.867-21.867h341.332c12.079 0 21.867 9.789 21.867 21.867v128c0 12.076-9.789 21.867-21.867 21.867h-341.332zM256 426.138c-35.052 0-63.467-28.414-63.467-63.467v-128c0-35.051 28.415-63.467 63.467-63.467h597.332c35.053 0 63.467 28.416 63.467 63.467v128c0 35.053-28.414 63.467-63.467 63.467h-597.332zM234.133 362.671c0 12.076 9.791 21.867 21.867 21.867h597.332c12.079 0 21.867-9.791 21.867-21.867v-128c0-12.076-9.789-21.867-21.867-21.867h-597.332c-12.076 0-21.867 9.791-21.867 21.867v128z" />
<glyph unicode="&#xe91c;" glyph-name="wms-align-content-middle" d="M532.801 874.666v-107.2h149.858c35.051 0 63.465-28.415 63.465-63.466v-128c0-35.053-28.414-63.467-63.465-63.467h-149.858v-86.395h277.858c35.051 0 63.465-28.414 63.465-63.467v-128c0-35.051-28.414-63.467-63.465-63.467h-277.858v-149.876c0-11.487-9.311-20.799-20.799-20.799s-20.801 9.311-20.801 20.799v149.876h-277.877c-35.052 0-63.467 28.416-63.467 63.467v128c0 35.053 28.415 63.467 63.467 63.467h277.877v86.395h-149.876c-35.051 0-63.467 28.414-63.467 63.467v128c0 35.051 28.416 63.466 63.467 63.466h149.876v107.2c0 11.488 9.314 20.8 20.801 20.8s20.799-9.312 20.799-20.8zM213.325 384.538c-12.077 0-21.867-9.791-21.867-21.867v-128c0-12.076 9.79-21.867 21.867-21.867h597.334c12.076 0 21.865 9.791 21.865 21.867v128c0 12.076-9.789 21.867-21.865 21.867h-597.334zM512.002 554.138l0.47-0.005h170.186c12.076 0 21.865 9.789 21.865 21.867v128c0 12.076-9.789 21.867-21.865 21.867h-341.334c-12.076 0-21.867-9.791-21.867-21.867v-128c0-12.079 9.791-21.867 21.867-21.867l170.678 0.005z" />
<glyph unicode="&#xe91d;" glyph-name="wms-align-content-right" d="M896.002 895.466c11.487 0 20.801-9.312 20.801-20.8v-853.334c0-11.487-9.314-20.799-20.801-20.799s-20.799 9.311-20.799 20.799v853.334c0 11.488 9.311 20.8 20.799 20.8zM831.469 575.995c0-35.051-28.416-63.467-63.467-63.467h-341.334c-35.051 0-63.467 28.416-63.467 63.467v128c0 35.052 28.416 63.466 63.467 63.466h341.334c35.051 0 63.467-28.415 63.467-63.466v-128zM768.002 554.128c12.076 0 21.867 9.791 21.867 21.867v128c0 12.076-9.791 21.867-21.867 21.867h-341.334c-12.076 0-21.867-9.791-21.867-21.867v-128c0-12.076 9.791-21.867 21.867-21.867h341.334zM768.002 171.201c35.051 0 63.467 28.414 63.467 63.465v128c0 35.053-28.416 63.467-63.467 63.467h-597.334c-35.052 0-63.467-28.414-63.467-63.467v-128c0-35.051 28.415-63.465 63.467-63.465h597.334zM789.869 234.666c0-12.076-9.791-21.865-21.867-21.865h-597.334c-12.077 0-21.867 9.789-21.867 21.865v128c0 12.079 9.79 21.867 21.867 21.867h597.334c12.076 0 21.867-9.789 21.867-21.867v-128z" />
<glyph unicode="&#xe91e;" glyph-name="wms-align-content-top" d="M64.534 831.995c0 11.488 9.312 20.8 20.8 20.8h853.334c11.487 0 20.799-9.312 20.799-20.8s-9.311-20.8-20.799-20.8h-853.334c-11.488 0-20.8 9.313-20.8 20.8zM768.005 767.467c35.051 0 63.467-28.415 63.467-63.467v-341.332c0-35.053-28.416-63.467-63.467-63.467h-128c-35.051 0-63.467 28.414-63.467 63.467v341.332c0 35.052 28.416 63.467 63.467 63.467h128zM789.872 704c0 12.076-9.791 21.867-21.867 21.867h-128c-12.076 0-21.867-9.791-21.867-21.867v-341.332c0-12.079 9.791-21.867 21.867-21.867h128c12.076 0 21.867 9.789 21.867 21.867v341.332zM490.145 704c0 35.052-28.416 63.467-63.467 63.467h-128c-35.053 0-63.467-28.415-63.467-63.467v-597.332c0-35.053 28.414-63.467 63.467-63.467h128c35.051 0 63.467 28.414 63.467 63.467v597.332zM426.678 725.867c12.076 0 21.867-9.791 21.867-21.867v-597.332c0-12.079-9.791-21.867-21.867-21.867h-128c-12.076 0-21.867 9.789-21.867 21.867v597.332c0 12.076 9.791 21.867 21.867 21.867h128z" />
<glyph unicode="&#xe91f;" glyph-name="wms-align-justify" d="M11.205 831.995c0 11.488 9.312 20.8 20.8 20.8h960c11.487 0 20.799-9.312 20.799-20.8s-9.311-20.8-20.799-20.8h-960c-11.488 0-20.8 9.313-20.8 20.8zM11.205 644.278c0 11.487 9.312 20.799 20.8 20.799h960c11.487 0 20.799-9.311 20.799-20.799s-9.311-20.801-20.799-20.801h-960c-11.488 0-20.8 9.314-20.8 20.801zM32.005 468.797c-11.488 0-20.8-9.314-20.8-20.801s9.312-20.799 20.8-20.799h960c11.487 0 20.799 9.311 20.799 20.799s-9.311 20.801-20.799 20.801h-960zM11.205 260.278c0 11.487 9.312 20.799 20.8 20.799h960c11.487 0 20.799-9.311 20.799-20.799s-9.311-20.801-20.799-20.801h-960c-11.488 0-20.8 9.314-20.8 20.801zM32.005 84.797c-11.488 0-20.8-9.314-20.8-20.801s9.312-20.799 20.8-20.799h960c11.487 0 20.799 9.311 20.799 20.799s-9.311 20.801-20.799 20.801h-960z" />
<glyph unicode="&#xe920;" glyph-name="wms-align-left" d="M0.531 853.416c0 11.488 9.312 20.8 20.8 20.8h853.332c11.487 0 20.801-9.312 20.801-20.8s-9.314-20.8-20.801-20.8h-853.332c-11.488 0-20.8 9.313-20.8 20.8zM0.531 0.088c0 11.487 9.312 20.799 20.8 20.799h981.332c11.487 0 20.801-9.311 20.801-20.799s-9.314-20.801-20.801-20.801h-981.332c-11.488 0-20.8 9.314-20.8 20.801zM21.331 660.887c-11.488 0-20.8-9.311-20.8-20.799s9.312-20.801 20.8-20.801h682.666c11.487 0 20.801 9.314 20.801 20.801s-9.314 20.799-20.801 20.799h-682.666zM0.531 426.745c0 11.487 9.312 20.799 20.8 20.799h981.332c11.487 0 20.801-9.311 20.801-20.799s-9.314-20.801-20.801-20.801h-981.332c-11.488 0-20.8 9.314-20.8 20.801zM21.331 234.217c-11.488 0-20.8-9.314-20.8-20.801s9.312-20.799 20.8-20.799h810.666c11.487 0 20.801 9.311 20.801 20.799s-9.314 20.801-20.801 20.801h-810.666z" />
<glyph unicode="&#xe921;" glyph-name="wms-align-right" d="M1023.467 853.416c0 11.488-9.311 20.8-20.799 20.8h-853.334c-11.487 0-20.8-9.312-20.8-20.8s9.313-20.8 20.8-20.8h853.334c11.487 0 20.799 9.313 20.799 20.8zM1023.467 0.088c0 11.487-9.311 20.799-20.799 20.799h-981.334c-11.487 0-20.8-9.311-20.8-20.799s9.313-20.801 20.8-20.801h981.334c11.487 0 20.799 9.314 20.799 20.801zM1002.668 660.887c11.487 0 20.799-9.311 20.799-20.799s-9.311-20.801-20.799-20.801h-682.668c-11.487 0-20.799 9.314-20.799 20.801s9.311 20.799 20.799 20.799h682.668zM1023.467 426.745c0 11.487-9.311 20.799-20.799 20.799h-981.334c-11.487 0-20.8-9.311-20.8-20.799s9.313-20.801 20.8-20.801h981.334c11.487 0 20.799 9.314 20.799 20.801zM1002.668 234.217c11.487 0 20.799-9.314 20.799-20.801s-9.311-20.799-20.799-20.799h-810.668c-11.487 0-20.8 9.311-20.8 20.799s9.313 20.801 20.8 20.801h810.668z" />
<glyph unicode="&#xe922;" glyph-name="wms-all-out" d="M343.899 746.005c-19.884-23.196-3.4-59.034 27.15-59.034h305.545c30.552 0 47.034 35.838 27.152 59.034l-152.774 178.234c-14.271 16.651-40.031 16.651-54.302 0l-152.771-178.234zM666.452 727.397h-285.261l142.632 166.402 142.629-166.402zM770.567 588.951c0 30.55 35.835 47.034 59.034 27.15l178.232-152.771c16.652-14.271 16.652-40.031 0-54.302l-178.232-152.774c-23.198-19.882-59.034-3.4-59.034 27.152v305.545zM810.992 293.548l166.402 142.629-166.402 142.632v-285.261zM448.861 511.213c19.342 19.342 45.575 30.208 72.93 30.208 27.352 0 53.585-10.866 72.927-30.208s30.208-45.575 30.208-72.927c0-27.352-10.866-53.585-30.208-72.927s-45.575-30.208-72.927-30.208c-27.355 0-53.588 10.866-72.93 30.208-19.34 19.342-30.206 45.575-30.206 72.927s10.866 53.585 30.206 72.927zM521.791 500.997c-16.633 0-32.584-6.607-44.344-18.367-11.76-11.762-18.367-27.713-18.367-44.344 0-16.633 6.607-32.582 18.367-44.344 11.76-11.76 27.711-18.367 44.344-18.367 16.631 0 32.582 6.607 44.342 18.367 11.762 11.762 18.369 27.711 18.369 44.344 0 16.631-6.607 32.582-18.369 44.344-11.76 11.76-27.711 18.367-44.342 18.367zM273.029 287.455c0-30.552-35.838-47.034-59.034-27.152l-178.234 152.774c-16.651 14.271-16.651 40.029 0 54.302l178.234 152.771c23.196 19.884 59.034 3.4 59.034-27.15v-305.545zM232.603 297.598v285.261l-166.402-142.632 166.402-142.629zM708.373 149.995c19.884 23.196 3.402 59.034-27.15 59.034h-305.545c-30.55 0-47.034-35.838-27.15-59.034l152.771-178.234c14.271-16.652 40.031-16.652 54.302 0l152.771 178.234zM528.451 2.202l-142.632 166.402h285.261l-142.629-166.402z" />
<glyph unicode="&#xe923;" glyph-name="wms-analytics" d="M36.573 944.227c11.488 0 20.8-9.312 20.8-20.8v-930.058h930.057c11.487 0 20.801-9.311 20.801-20.799s-9.314-20.801-20.801-20.801h-950.857c-11.487 0-20.8 9.314-20.8 20.801v950.857c0 11.487 9.312 20.8 20.8 20.8zM632.913 639.995c0 11.487 9.311 20.801 20.799 20.801h219.429c11.487 0 20.799-9.314 20.799-20.801v-219.429c0-11.487-9.311-20.799-20.799-20.799s-20.801 9.311-20.801 20.799v198.63h-198.628c-11.487 0-20.799 9.311-20.799 20.799zM887.85 654.704c8.122-8.122 8.122-21.292 0-29.417l-310.090-310.088c-9.014-8.837-21.136-13.787-33.759-13.787-12.625 0-24.746 4.95-33.762 13.787l-0.149 0.144-126.071 126.075c-1.233 1.185-2.879 1.846-4.592 1.846-1.711 0-3.356-0.661-4.589-1.846l-200.131-200.131c-8.123-8.122-21.293-8.122-29.416 0-8.123 8.125-8.123 21.292 0 29.417l200.377 200.376c9.014 8.837 21.136 13.784 33.759 13.784 12.625 0 24.746-4.95 33.762-13.787l0.147-0.144 126.073-126.075c1.233-1.182 2.879-1.846 4.592-1.846 1.711 0 3.356 0.663 4.589 1.848l309.844 309.844c8.125 8.122 21.295 8.122 29.417 0z" />
<glyph unicode="&#xe924;" glyph-name="wms-android" d="M235.199 457.644c0 11.487 9.311 20.799 20.801 20.799h512c11.487 0 20.799-9.311 20.799-20.799v-256c0-22.491-8.934-44.060-24.837-59.965-15.905-15.902-37.474-24.837-59.962-24.837h-384c-22.491 0-44.060 8.934-59.965 24.837-15.902 15.905-24.837 37.474-24.837 59.965v256zM276.799 436.843v-235.199c0-11.459 4.552-22.447 12.653-30.548s19.088-12.653 30.548-12.653h384c11.457 0 22.444 4.552 30.545 12.653s12.653 19.088 12.653 30.548v235.199h-470.4zM316.272 781.37c51.91 51.91 122.314 81.073 195.728 81.073 73.411 0 143.816-29.163 195.726-81.073s81.073-122.315 81.073-195.726c0-11.487-9.311-20.801-20.799-20.801h-512c-5.518 0-10.808 2.192-14.708 6.093s-6.093 9.19-6.093 14.708c0 73.411 29.163 143.816 81.073 195.726zM512 820.843c-62.38 0-122.205-24.78-166.312-68.889-39.18-39.178-63.109-90.758-67.968-145.512h468.557c-4.859 54.754-28.788 106.333-67.966 145.512-44.109 44.109-103.934 68.889-166.312 68.889zM618.664 724.801c11.487 0 20.799-9.314 20.799-20.801v-21.332c0-11.487-9.311-20.801-20.799-20.801s-20.801 9.314-20.801 20.801v21.332c0 11.487 9.314 20.801 20.801 20.801zM405.327 724.801c11.487 0 20.799-9.314 20.799-20.801v-21.332c0-11.487-9.311-20.801-20.799-20.801s-20.801 9.314-20.801 20.801v21.332c0 11.487 9.314 20.801 20.801 20.801zM256 436.843c-28.432 0-55.699-11.294-75.803-31.397-20.104-20.105-31.398-47.372-31.398-75.802v-64c0-11.49-9.312-20.801-20.8-20.801s-20.8 9.311-20.8 20.801v64c0 39.464 15.677 77.312 43.583 105.216 27.905 27.906 65.753 43.583 105.219 43.583h512c39.464 0 77.312-15.677 105.216-43.583 27.906-27.904 43.583-65.752 43.583-105.216v-64c0-11.49-9.311-20.801-20.799-20.801-11.49 0-20.801 9.311-20.801 20.801v64c0 28.43-11.294 55.696-31.397 75.802-20.105 20.103-47.372 31.397-75.802 31.397h-512zM320 158.443c11.487 0 20.799-9.311 20.799-20.799v-133.292c0-11.487-9.311-20.799-20.799-20.799-11.49 0-20.801 9.311-20.801 20.799v133.292c0 11.487 9.311 20.799 20.801 20.799zM704 158.443c11.487 0 20.799-9.311 20.799-20.799v-133.292c0-11.487-9.311-20.799-20.799-20.799-11.49 0-20.801 9.311-20.801 20.799v133.292c0 11.487 9.311 20.799 20.801 20.799zM209.288 904.348c8.121 8.124 21.291 8.127 29.415 0.005l115.158-115.115c8.125-8.121 8.127-21.291 0.005-29.416s-21.29-8.127-29.414-0.005l-115.158 115.115c-8.124 8.121-8.127 21.291-0.005 29.416zM814.708 904.348c8.122-8.125 8.12-21.294-0.005-29.416l-115.158-115.115c-8.122-8.121-21.292-8.119-29.414 0.005s-8.12 21.294 0.005 29.416l115.158 115.115c8.125 8.121 21.295 8.119 29.414-0.005z" />
<glyph unicode="&#xe925;" glyph-name="wms-angle-double-down" d="M69.714 494.329c7.909 8.332 21.074 8.674 29.406 0.766l396.403-376.287c0.593-0.566 1.371-1.078 2.288-1.441 0.919-0.361 1.936-0.559 2.991-0.559 1.052 0 2.071 0.198 2.988 0.559 0.917 0.363 1.683 0.866 2.278 1.431l396.411 376.297c8.332 7.908 21.497 7.566 29.407-0.766 7.908-8.332 7.566-21.497-0.766-29.407l-396.39-376.273c-4.547-4.319-9.9-7.706-15.704-9.989-5.807-2.288-11.997-3.451-18.225-3.451-6.23 0-12.421 1.164-18.227 3.451-5.809 2.285-11.155 5.662-15.704 9.989l-396.389 376.273c-8.332 7.91-8.674 21.076-0.766 29.407zM69.714 825.531c7.909 8.332 21.074 8.674 29.406 0.765l396.403-376.286c0.593-0.566 1.371-1.080 2.288-1.441 0.919-0.361 1.936-0.559 2.991-0.559 1.052 0 2.071 0.198 2.988 0.559s1.683 0.863 2.278 1.431l396.411 376.296c8.332 7.909 21.497 7.566 29.407-0.766 7.908-8.331 7.566-21.497-0.766-29.406l-396.39-376.274c-0.005-0.005 0.002 0.002 0 0-4.547-4.322-9.9-7.706-15.704-9.991-5.807-2.285-11.997-3.449-18.225-3.449-6.23 0-12.421 1.164-18.227 3.449-5.809 2.288-11.155 5.665-15.704 9.991l-396.389 376.274c-8.332 7.909-8.674 21.074-0.766 29.406z" />
<glyph unicode="&#xe926;" glyph-name="wms-angle-double-left" d="M558.32 879.081c8.332-7.909 8.674-21.074 0.766-29.406l-376.286-396.402c-0.566-0.596-1.080-1.371-1.44-2.288-0.361-0.919-0.56-1.939-0.56-2.991s0.198-2.071 0.56-2.991c0.361-0.917 0.863-1.68 1.429-2.276l376.297-396.414c7.908-8.332 7.566-21.497-0.766-29.405s-21.497-7.566-29.407 0.766l-376.274 396.39c-4.32 4.547-7.704 9.898-9.989 15.702-2.286 5.809-3.45 11.999-3.45 18.227s1.165 12.418 3.45 18.227c2.287 5.809 5.664 11.152 9.989 15.702l376.274 396.391c7.91 8.331 21.076 8.674 29.407 0.765zM878.322 879.078c8.332-7.909 8.674-21.074 0.766-29.406l-376.285-396.401c-0.566-0.596-1.080-1.373-1.441-2.29-0.363-0.917-0.561-1.936-0.561-2.988 0-1.054 0.198-2.071 0.561-2.991 0.361-0.917 0.863-1.683 1.429-2.276l376.297-396.414c7.908-8.332 7.566-21.497-0.766-29.405-8.332-7.91-21.497-7.566-29.405 0.763l-376.276 396.39c-4.319 4.547-7.703 9.9-9.989 15.704-2.285 5.807-3.451 11.997-3.451 18.227 0 6.228 1.166 12.418 3.451 18.225 2.285 5.809 5.665 11.155 9.989 15.704l376.276 396.39c7.908 8.332 21.073 8.674 29.405 0.766z" />
<glyph unicode="&#xe927;" glyph-name="wms-angle-double-right" d="M465.68 879.081c-8.332-7.909-8.676-21.074-0.766-29.406l376.285-396.402c0.566-0.596 1.080-1.371 1.441-2.288 0.361-0.919 0.559-1.939 0.559-2.991s-0.198-2.071-0.559-2.991c-0.361-0.917-0.863-1.68-1.431-2.276l-376.294-396.414c-7.91-8.332-7.566-21.497 0.766-29.405 8.329-7.908 21.495-7.566 29.405 0.766l376.273 396.39c4.322 4.547 7.706 9.898 9.991 15.702 2.285 5.809 3.449 11.999 3.449 18.227s-1.164 12.418-3.449 18.227c-2.288 5.809-5.665 11.152-9.991 15.702l-376.273 396.391c-7.91 8.331-21.076 8.674-29.405 0.765zM145.676 879.078c-8.332-7.909-8.674-21.074-0.766-29.406l376.285-396.401c0.568-0.596 1.080-1.373 1.441-2.29 0.363-0.917 0.561-1.936 0.561-2.988 0-1.054-0.198-2.071-0.561-2.991-0.361-0.917-0.863-1.683-1.429-2.276l-376.296-396.414c-7.909-8.332-7.566-21.497 0.766-29.405 8.331-7.91 21.497-7.566 29.406 0.763l376.275 396.39c4.319 4.547 7.706 9.9 9.989 15.704 2.285 5.807 3.451 11.997 3.451 18.227 0 6.228-1.166 12.418-3.451 18.225-2.285 5.809-5.665 11.155-9.989 15.704l-376.275 396.39c-7.909 8.332-21.074 8.674-29.406 0.766z" />
<glyph unicode="&#xe928;" glyph-name="wms-angle-double-up" d="M913.678 400.91c8.332-7.908 21.497-7.566 29.407 0.766 7.908 8.332 7.566 21.497-0.766 29.405l-396.39 376.275c-4.55 4.325-9.896 7.703-15.704 9.989s-11.997 3.45-18.225 3.45c-6.23 0-12.421-1.164-18.227-3.45-5.804-2.284-11.157-5.669-15.704-9.989l-396.389-376.275c-8.332-7.908-8.674-21.073-0.766-29.405s21.074-8.674 29.406-0.766l396.412 376.296c0.596 0.566 1.361 1.069 2.278 1.43 0.919 0.361 1.936 0.559 2.991 0.559 1.052 0 2.071-0.198 2.988-0.559s1.694-0.875 2.288-1.44l396.402-376.286zM913.678 80.91c8.332-7.908 21.497-7.566 29.407 0.766 7.908 8.332 7.566 21.497-0.766 29.405l-396.39 376.276c-4.55 4.324-9.896 7.701-15.704 9.989-5.807 2.285-11.997 3.451-18.225 3.451-6.23 0-12.421-1.166-18.227-3.451-5.804-2.285-11.157-5.669-15.704-9.989l-396.389-376.276c-8.332-7.908-8.674-21.073-0.766-29.405s21.074-8.674 29.406-0.766l396.412 376.297c0.596 0.566 1.361 1.068 2.278 1.429 0.919 0.361 1.936 0.561 2.991 0.561 1.052 0 2.071-0.2 2.988-0.561s1.694-0.875 2.288-1.441l396.402-376.285z" />
<glyph unicode="&#xe929;" glyph-name="wms-angular" d="M512.002 746.139c8.397 0 15.97-5.049 19.2-12.8l213.334-511.999-38.4-16-65.773 157.857h-256.721l-65.773-157.857-38.4 16 213.334 511.999c3.23 7.751 10.803 12.8 19.2 12.8zM400.975 404.797h222.054l-111.027 266.463-111.027-266.463zM505.128 915.628c4.45 1.557 9.295 1.557 13.743 0l426.666-149.333c9.179-3.213 14.906-12.356 13.791-22.016l-64-554.666c-0.784-6.81-4.873-12.793-10.929-16l-362.668-192c-6.088-3.223-13.375-3.223-19.463 0l-362.667 192c-6.057 3.207-10.146 9.19-10.931 16l-64 554.666c-1.115 9.661 4.613 18.804 13.792 22.016l426.667 149.333zM107.901 732.524l60.839-527.268 343.26-181.725 343.259 181.725 60.837 527.268-404.096 141.434-404.099-141.434z" />
<glyph unicode="&#xe92a;" glyph-name="wms-announcement" d="M884.803 821.336v-704c0-7.671-4.222-14.72-10.985-18.339s-14.969-3.223-21.353 1.031l-48.384 32.256c-146.853 97.88-318.38 151.906-494.522 155.999 2.313-31.863 9.914-63.169 22.535-92.623 15.393-35.914 37.932-68.324 66.246-95.253 8.322-7.917 8.653-21.083 0.735-29.407-7.917-8.322-21.083-8.653-29.407-0.735-32.4 30.818-58.193 67.907-75.809 109.009-14.876 34.711-23.659 71.673-26.012 109.261h-75.843c-47.951 0-93.939 19.049-127.845 52.957-33.907 33.906-52.955 79.893-52.955 127.844s19.049 93.938 52.955 127.844c33.907 33.908 79.894 52.955 127.845 52.955h96.042c183.661 0.026 363.21 54.391 516.038 156.253l48.382 32.255c6.384 4.255 14.59 4.652 21.353 1.032s10.985-10.668 10.985-18.339zM308.803 329.912c184.62-3.963 364.456-60.437 518.353-163.011l16.047-10.698v626.269l-16.044-10.698c-153.898-102.576-333.736-159.049-518.356-163.013v-278.849zM267.203 608.535h-75.199c-36.918 0-72.324-14.664-98.429-40.769s-40.771-61.512-40.771-98.43c0-36.918 14.666-72.325 40.771-98.43s61.511-40.771 98.429-40.771h75.199v278.4zM992.005 554.135c11.487 0 20.799-9.311 20.799-20.799v-128c0-11.487-9.311-20.801-20.799-20.801s-20.801 9.314-20.801 20.801v128c0 11.487 9.314 20.799 20.801 20.799z" />
<glyph unicode="&#xe92b;" glyph-name="wms-api-designer" d="M553.965 960h155.857c19.279 0 34.909-15.629 34.909-34.909v-155.857c0-19.28-15.63-34.909-34.909-34.909h-155.857c-19.279 0-34.909 15.629-34.909 34.909v155.857c0 19.28 15.63 34.909 34.909 34.909zM709.823 929.745h-155.857c-2.569 0-4.655-2.084-4.655-4.655v-155.857c0-2.571 2.085-4.655 4.655-4.655h155.857c2.569 0 4.655 2.084 4.655 4.655v155.857c0 2.571-2.085 4.655-4.655 4.655zM34.909 440.944h155.857c19.28 0 34.909-15.63 34.909-34.909v-62.792h111.775c10.927 0 19.782 8.858 19.782 19.782v449.235c0 27.634 22.402 50.036 50.036 50.036h111.779v-30.255h-111.779c-10.924 0-19.782-8.857-19.782-19.782v-449.235c0-27.634-22.402-50.036-50.036-50.036h-111.775v-62.811c0-19.279-15.629-34.909-34.909-34.909h-155.857c-19.28 0-34.909 15.63-34.909 34.909v155.857c0 19.279 15.629 34.909 34.909 34.909zM190.766 410.689h-155.857c-2.571 0-4.655-2.085-4.655-4.655v-155.857c0-2.569 2.084-4.655 4.655-4.655h155.857c2.571 0 4.655 2.085 4.655 4.655v155.857c0 2.569-2.084 4.655-4.655 4.655z" />
<glyph unicode="&#xe92c;" glyph-name="wms-api-head" d="M289.226 660.797c-11.487 0-20.799-9.311-20.799-20.799s9.311-20.801 20.799-20.801h448c11.487 0 20.801 9.314 20.801 20.801s-9.314 20.799-20.801 20.799h-448zM268.428 447.998c0 11.487 9.311 20.799 20.799 20.799h448c11.487 0 20.801-9.311 20.801-20.799s-9.314-20.801-20.801-20.801h-448c-11.487 0-20.799 9.314-20.799 20.801zM289.226 276.797c-11.487 0-20.799-9.311-20.799-20.799s9.311-20.801 20.799-20.801h448c11.487 0 20.801 9.314 20.801 20.801s-9.314 20.799-20.801 20.799h-448zM513.224 960l-443.406-256v-512l443.406-256 443.404 256v512l-443.404 256zM111.418 679.983l401.806 231.982 401.804-231.982v-463.965l-401.804-231.983-401.806 231.983v463.965z" />
<glyph unicode="&#xe92d;" glyph-name="wms-apidocument" d="M430.548 542.371c0 11.781 9.551 21.332 21.332 21.332h256.512c11.783 0 21.334-9.551 21.334-21.332 0-11.783-9.551-21.334-21.334-21.334h-256.512c-11.781 0-21.332 9.551-21.332 21.334zM451.88 384.047c-11.781 0-21.332-9.551-21.332-21.334 0-11.781 9.551-21.332 21.332-21.332h332.246c11.783 0 21.334 9.551 21.334 21.332 0 11.783-9.551 21.334-21.334 21.334h-332.246zM736.221 824.738c12.819-12.37 19.747-29.399 19.747-46.754v-41.984h38.365l45.766-18.676 88.122-84.585c12.819-12.372 19.747-29.4 19.747-46.755v-531.242c0-36.145-29.263-65.408-65.408-65.408h-529.152c-36.215 0-65.408 29.289-65.408 65.45v126.55h-126.592c-36.214 0-65.408 29.289-65.408 65.45v615.808c0 36.187 29.221 65.408 65.408 65.408h440.925l45.768-18.679 88.12-84.583zM713.302 736v41.984c0 6.104-2.453 11.937-6.691 16.035l-88.413 84.862c-4.189 4.152-9.854 6.474-15.753 6.452h-441.037c-12.623 0-22.741-10.118-22.741-22.741v-615.808c0-12.651 10.145-22.784 22.741-22.784h126.592v446.592c0 36.187 29.221 65.408 65.408 65.408h359.894zM330.666 54.784c0-12.651 10.147-22.784 22.742-22.784h529.152c12.581 0 22.742 10.161 22.742 22.742v531.242c0 6.104-2.453 11.937-6.691 16.035l-88.411 84.864c-4.189 4.152-9.856 6.472-15.756 6.451h-441.037c-12.623 0-22.742-10.119-22.742-22.742v-615.808z" />
<glyph unicode="&#xe92e;" glyph-name="wms-application" d="M930.909 891.345c13.496 0 24.436-10.941 24.436-24.436v-837.818c0-13.496-10.941-24.436-24.436-24.436h-837.818c-13.496 0-24.436 10.941-24.436 24.436v837.818c0 13.496 10.941 24.436 24.436 24.436h837.818zM93.091 936.727c-38.559 0-69.818-31.259-69.818-69.818v-837.818c0-38.561 31.259-69.818 69.818-69.818h837.818c38.561 0 69.818 31.258 69.818 69.818v837.818c0 38.559-31.258 69.818-69.818 69.818h-837.818z" />
<glyph unicode="&#xe92f;" glyph-name="wms-apps" d="M109.71 944.239c-51.883 0-93.943-42.060-93.943-93.943v-73.143c0-51.884 42.060-93.942 93.943-93.942h73.143c51.883 0 93.944 42.058 93.944 93.942v73.143c0 51.883-42.061 93.943-93.944 93.943h-73.143zM57.367 850.296c0 28.908 23.435 52.343 52.343 52.343h73.143c28.908 0 52.344-23.435 52.344-52.343v-73.143c0-28.908-23.436-52.342-52.344-52.342h-73.143c-28.908 0-52.343 23.434-52.343 52.342v73.143zM381.487 850.296c0 51.883 42.058 93.943 93.943 93.943h73.142c51.884 0 93.943-42.059 93.943-93.943v-73.143c0-51.884-42.058-93.942-93.943-93.942h-73.142c-51.884 0-93.943 42.058-93.943 93.942v73.143zM475.429 902.639c-28.909 0-52.343-23.435-52.343-52.343v-73.143c0-28.908 23.433-52.342 52.343-52.342h73.142c28.909 0 52.343 23.435 52.343 52.342v73.143c0 28.908-23.433 52.343-52.343 52.343h-73.142zM747.203 850.296c0 51.883 42.058 93.943 93.945 93.943h73.142c51.884 0 93.943-42.060 93.943-93.943v-73.143c0-51.882-42.058-93.942-93.943-93.942h-73.142c-51.887 0-93.945 42.061-93.945 93.942v73.143zM841.149 902.639c-28.909 0-52.345-23.434-52.345-52.343v-73.143c0-28.908 23.436-52.342 52.345-52.342h73.142c28.909 0 52.343 23.434 52.343 52.342v73.143c0 28.908-23.433 52.343-52.343 52.343h-73.142zM747.203 484.578c0 51.882 42.058 93.943 93.945 93.943h73.142c51.884 0 93.943-42.061 93.943-93.943v-73.144c0-51.882-42.058-93.943-93.943-93.943h-73.142c-51.887 0-93.945 42.061-93.945 93.943v73.144zM841.149 536.92c-28.909 0-52.345-23.436-52.345-52.343v-73.144c0-28.907 23.436-52.343 52.345-52.343h73.142c28.909 0 52.343 23.436 52.343 52.343v73.144c0 28.907-23.433 52.343-52.343 52.343h-73.142zM841.149 212.801c-51.887 0-93.945-42.058-93.945-93.943v-73.144c0-51.884 42.058-93.943 93.945-93.943h73.142c51.884 0 93.943 42.058 93.943 93.943v73.144c0 51.884-42.058 93.943-93.943 93.943h-73.142zM788.803 118.858c0 28.909 23.436 52.343 52.345 52.343h73.142c28.909 0 52.343-23.433 52.343-52.343v-73.144c0-28.909-23.433-52.343-52.343-52.343h-73.142c-28.909 0-52.345 23.433-52.345 52.343v73.144zM475.429 578.52c-51.884 0-93.943-42.061-93.943-93.943v-73.144c0-51.882 42.058-93.943 93.943-93.943h73.142c51.884 0 93.943 42.061 93.943 93.943v73.144c0 51.882-42.058 93.943-93.943 93.943h-73.142zM423.087 484.578c0 28.907 23.433 52.343 52.343 52.343h73.142c28.909 0 52.343-23.436 52.343-52.343v-73.144c0-28.907-23.433-52.343-52.343-52.343h-73.142c-28.909 0-52.343 23.436-52.343 52.343v73.144zM381.487 118.858c0 51.884 42.058 93.943 93.943 93.943h73.142c51.884 0 93.943-42.058 93.943-93.943v-73.144c0-51.884-42.058-93.943-93.943-93.943h-73.142c-51.884 0-93.943 42.058-93.943 93.943v73.144zM475.429 171.201c-28.909 0-52.343-23.433-52.343-52.343v-73.144c0-28.909 23.433-52.343 52.343-52.343h73.142c28.909 0 52.343 23.433 52.343 52.343v73.144c0 28.909-23.433 52.343-52.343 52.343h-73.142zM15.767 484.578c0 51.882 42.060 93.943 93.943 93.943h73.143c51.883 0 93.944-42.061 93.944-93.943v-73.144c0-51.882-42.061-93.943-93.944-93.943h-73.143c-51.883 0-93.943 42.061-93.943 93.943v73.144zM109.71 536.92c-28.908 0-52.343-23.436-52.343-52.343v-73.144c0-28.907 23.435-52.343 52.343-52.343h73.143c28.908 0 52.344 23.436 52.344 52.343v73.144c0 28.907-23.436 52.343-52.344 52.343h-73.143zM109.71 212.801c-51.883 0-93.943-42.058-93.943-93.943v-73.144c0-51.884 42.060-93.943 93.943-93.943h73.143c51.883 0 93.944 42.058 93.944 93.943v73.144c0 51.884-42.061 93.943-93.944 93.943h-73.143zM57.367 118.858c0 28.909 23.434 52.343 52.343 52.343h73.143c28.908 0 52.344-23.433 52.344-52.343v-73.144c0-28.909-23.436-52.343-52.344-52.343h-73.143c-28.908 0-52.343 23.433-52.343 52.343v73.144z" />
<glyph unicode="&#xe930;" glyph-name="wms-archive-old" d="M402.285 395.66c-11.487 0-20.799-9.314-20.799-20.801s9.311-20.799 20.799-20.799h219.429c11.487 0 20.799 9.311 20.799 20.799s-9.311 20.801-20.799 20.801h-219.429zM15.767 813.716c0 51.883 42.060 93.943 93.943 93.943h804.571c51.884 0 93.943-42.060 93.943-93.943v-146.285c0-44.73-31.26-82.16-73.128-91.629v-493.521c0-24.916-9.903-48.812-27.518-66.427-17.613-17.613-41.512-27.515-66.427-27.515h-658.285c-24.918 0-48.811 9.903-66.426 27.515-17.619 17.615-27.517 41.514-27.517 66.427v493.514c-41.881 9.46-73.156 46.895-73.156 91.636v146.285zM109.71 866.059c-28.908 0-52.343-23.435-52.343-52.343v-146.285c0-28.909 23.435-52.345 52.343-52.345h804.571c28.909 0 52.343 23.436 52.343 52.345v146.285c0 28.908-23.433 52.343-52.343 52.343h-804.571zM130.523 573.482v-491.201c0-13.882 5.516-27.199 15.33-37.011 9.819-9.816 23.133-15.332 37.013-15.332h658.285c13.882 0 27.199 5.518 37.013 15.332s15.332 23.131 15.332 37.011v491.201h-762.973z" />
<glyph unicode="&#xe931;" glyph-name="wms-archive" d="M159.999 741.649c-11.457 0-22.445-4.551-30.547-12.653s-12.653-19.089-12.653-30.546v-256c0-11.487-9.312-20.801-20.8-20.801s-20.8 9.314-20.8 20.801v256c0 22.491 8.934 44.059 24.837 59.962s37.472 24.837 59.963 24.837h16c11.488 0 20.8-9.312 20.8-20.8s-9.312-20.8-20.8-20.8h-16zM864 747.196c11.457 0 22.444-4.551 30.545-12.653s12.653-19.090 12.653-30.547v-256c0-11.487 9.311-20.799 20.801-20.799 11.487 0 20.799 9.311 20.799 20.799v256c0 22.491-8.934 44.060-24.837 59.963-15.905 15.903-37.474 24.837-59.962 24.837h-16c-11.49 0-20.801-9.312-20.801-20.8s9.311-20.8 20.801-20.8h16zM63.999 335.677h320.001c11.487 0 20.799-9.314 20.799-20.801 0-28.43 11.294-55.699 31.397-75.802 20.105-20.103 47.372-31.397 75.804-31.397 28.43 0 55.696 11.294 75.802 31.397 20.103 20.103 31.397 47.372 31.397 75.802 0 11.487 9.311 20.801 20.801 20.801h320.27c13.875-0.182 27.131-5.776 36.941-15.588 9.812-9.812 15.404-23.066 15.586-36.941l0.005-0.272-0.002-213.334c0-22.488-8.934-44.058-24.837-59.962-15.905-15.902-37.474-24.837-59.962-24.837h-832.001c-22.49 0-44.059 8.934-59.963 24.837-15.903 15.905-24.837 37.474-24.837 59.962v213.606c0.181 13.875 5.775 27.129 15.587 36.941s23.067 15.404 36.941 15.586l0.272 0.002zM64.169 294.077c-2.994-0.067-5.848-1.285-7.967-3.405-2.119-2.118-3.337-4.973-3.403-7.966v-213.164c0-11.457 4.551-22.444 12.653-30.545s19.090-12.653 30.547-12.653h832.001c11.457 0 22.444 4.552 30.545 12.653s12.653 19.088 12.653 30.545v213.164c-0.065 2.993-1.282 5.848-3.402 7.966-2.12 2.12-4.973 3.337-7.969 3.405h-300.488c-4.487-31.779-19.167-61.463-42.124-84.419-27.904-27.904-65.752-43.581-105.216-43.581-39.466 0-77.314 15.677-105.218 43.581-22.956 22.956-37.637 52.641-42.124 84.419h-300.489zM520.532 916.795c11.487 0 20.801-9.312 20.801-20.8v-320c0-11.487-9.314-20.799-20.801-20.799s-20.799 9.311-20.799 20.799v320c0 11.488 9.311 20.8 20.799 20.8zM369.52 699.729c8.246 7.997 21.416 7.794 29.412-0.454l121.6-125.4 121.6 125.4c7.999 8.248 21.167 8.45 29.412 0.454 8.248-7.999 8.45-21.167 0.454-29.412l-136.534-140.8c-3.917-4.040-9.304-6.321-14.932-6.321s-11.015 2.281-14.932 6.321l-136.534 140.8c-7.997 8.246-7.794 21.413 0.454 29.412z" />
<glyph unicode="&#xe932;" glyph-name="wms-arrow-back" d="M986.668 427.201c11.487 0 20.799 9.311 20.799 20.799s-9.311 20.801-20.799 20.801h-897.745l250.845 241.552c8.273 7.969 8.522 21.136 0.554 29.411s-21.136 8.523-29.41 0.555l-287.806-277.145c-4.045-3.796-6.572-9.19-6.572-15.174 0-6.058 2.589-11.511 6.722-15.311l287.656-277.001c8.273-7.969 21.441-7.72 29.41 0.554 7.969 8.276 7.72 21.443-0.554 29.41l-250.839 241.55h897.74z" />
<glyph unicode="&#xe933;" glyph-name="wms-arrow-down-circle" d="M512.005 692.797c11.487 0 20.799-9.314 20.799-20.801v-429.784l124.493 124.493c1.015 1.015 2.109 1.904 3.263 2.665 8.073 5.332 19.046 4.443 26.154-2.665 1.015-1.015 1.904-2.111 2.665-3.263 5.329-8.073 4.443-19.046-2.665-26.154l-159.923-159.923c-0.254-0.254-0.512-0.503-0.777-0.745-1.766-1.613-3.745-2.865-5.839-3.759-2.506-1.071-5.269-1.664-8.169-1.664-0.358 0-0.717 0.007-1.071 0.026-2.385 0.121-4.666 0.645-6.775 1.503-2.497 1.015-4.836 2.537-6.863 4.561l-160 160c-8.122 8.125-8.122 21.292 0 29.417 1.015 1.015 2.109 1.904 3.263 2.665 8.073 5.332 19.046 4.443 26.154-2.665l124.49-124.493v429.784c0 11.487 9.314 20.801 20.801 20.801zM512.005 948.795c-132.82 0-260.201-52.763-354.119-146.681s-146.681-221.299-146.681-354.119c0-132.82 52.763-260.201 146.681-354.12 93.918-93.917 221.299-146.679 354.119-146.679s260.201 52.762 354.12 146.679c93.917 93.919 146.679 221.3 146.679 354.12s-52.762 260.201-146.679 354.119c-93.919 93.918-221.3 146.681-354.12 146.681zM187.301 772.699c86.116 86.117 202.915 134.496 324.704 134.496 121.786 0 238.587-48.38 324.703-134.496s134.495-202.915 134.495-324.704c0-121.786-48.379-238.587-134.495-324.703s-202.917-134.495-324.703-134.495c-121.789 0-238.587 48.379-324.704 134.495s-134.496 202.917-134.496 324.703c0 121.789 48.38 238.587 134.496 324.704z" />
<glyph unicode="&#xe934;" glyph-name="wms-arrow-down" d="M57.522 693.993c14.248 13.712 36.914 13.279 50.625-0.968l402.049-417.759c0.363-0.379 0.738-0.621 1.031-0.747 0.289-0.123 0.547-0.168 0.773-0.168s0.484 0.044 0.773 0.168c0.293 0.126 0.649 0.349 1.015 0.728l402.064 417.778c13.712 14.248 36.378 14.68 50.627 0.968 14.248-13.71 14.68-36.378 0.968-50.625l-402.029-417.738c-6.879-7.154-15.139-12.923-24.311-16.875-9.183-3.956-19.079-6.014-29.107-6.014s-19.924 2.057-29.107 6.014c-9.172 3.952-17.415 9.702-24.292 16.856l-402.049 417.757c-13.712 14.248-13.278 36.915 0.97 50.625z" />
<glyph unicode="&#xe935;" glyph-name="wms-arrow-downward" d="M532.801 922.666c0 11.488-9.311 20.8-20.799 20.8s-20.801-9.312-20.801-20.8v-897.759l-241.562 250.852c-7.966 8.273-21.135 8.522-29.409 0.554s-8.523-21.136-0.555-29.41l277.332-288c3.921-4.073 9.33-6.372 14.983-6.372 0.735 0 1.464 0.037 2.188 0.114 5.183 0.54 9.8 2.981 13.142 6.616l276.987 287.642c7.969 8.273 7.72 21.441-0.556 29.41-8.273 7.969-21.441 7.72-29.41-0.554l-241.541-250.831v897.738z" />
<glyph unicode="&#xe936;" glyph-name="wms-arrow-drop-down-circle" d="M512.005 948.795c-132.82 0-260.201-52.763-354.119-146.681s-146.681-221.299-146.681-354.119c0-132.82 52.763-260.201 146.681-354.12 93.918-93.917 221.299-146.679 354.119-146.679s260.201 52.762 354.12 146.679c93.917 93.919 146.679 221.3 146.679 354.12s-52.762 260.201-146.679 354.119c-93.919 93.918-221.3 146.681-354.12 146.681zM187.301 772.699c86.116 86.117 202.915 134.496 324.704 134.496 121.786 0 238.587-48.38 324.703-134.496s134.495-202.915 134.495-324.704c0-121.786-48.379-238.587-134.495-324.703s-202.917-134.495-324.703-134.495c-121.789 0-238.587 48.379-324.704 134.495s-134.496 202.917-134.496 324.703c0 121.789 48.38 238.587 134.496 324.704zM334.713 505.239c-8.125 5.907-21.295 5.907-29.417 0-8.122-5.909-8.122-15.486 0-21.395l192-139.636c8.125-5.907 21.292-5.907 29.417 0l192 139.636c8.122 5.909 8.122 15.486 0 21.395-8.125 5.907-21.292 5.907-29.417 0l-177.292-128.94-177.292 128.94z" />
<glyph unicode="&#xe937;" glyph-name="wms-arrow-drop-down" d="M57.522 693.993c14.248 13.712 36.914 13.279 50.625-0.968l402.049-417.759c0.363-0.379 0.738-0.621 1.031-0.747 0.289-0.123 0.547-0.168 0.773-0.168s0.484 0.044 0.773 0.168c0.293 0.126 0.649 0.349 1.015 0.728l402.064 417.778c13.712 14.248 36.378 14.68 50.627 0.968 14.248-13.71 14.68-36.378 0.968-50.625l-402.029-417.738c-6.879-7.154-15.139-12.923-24.311-16.875-9.183-3.956-19.079-6.014-29.107-6.014s-19.924 2.057-29.107 6.014c-9.172 3.952-17.415 9.702-24.292 16.856l-402.049 417.757c-13.712 14.248-13.278 36.915 0.97 50.625z" />
<glyph unicode="&#xe938;" glyph-name="wms-arrow-drop-up" d="M989.203 179.235c-14.96-14.399-38.761-13.943-53.157 1.017l-422.151 438.647c-0.382 0.398-0.775 0.652-1.082 0.784-0.303 0.13-0.575 0.177-0.812 0.177s-0.51-0.047-0.812-0.177c-0.307-0.133-0.682-0.368-1.064-0.766l-422.169-438.665c-14.397-14.96-38.197-15.416-53.157-1.017-14.96 14.397-15.416 38.195-1.019 53.155l422.133 438.628c7.222 7.51 15.895 13.568 25.526 17.718 9.642 4.154 20.033 6.314 30.562 6.314s20.92-2.16 30.562-6.314c9.63-4.15 18.285-10.189 25.507-17.699l422.151-438.647c14.399-14.96 13.943-38.758-1.017-53.155z" />
<glyph unicode="&#xe939;" glyph-name="wms-arrow-forward" d="M160.272 916.852c-9.205 0.048-18.262-2.311-26.274-6.844s-14.7-11.080-19.4-18.995c-4.7-7.915-7.249-16.92-7.395-26.124l-0.005-0.33 0.003-833.439c0.146-9.204 2.698-18.209 7.398-26.124s11.388-14.464 19.4-18.995c8.012-4.534 17.069-6.891 26.274-6.845 9.167 0.049 18.162 2.483 26.102 7.061l735.741 416.433c0.026 0.014 0.049 0.028 0.074 0.042 8.050 4.496 14.757 11.057 19.43 19.007 4.687 7.973 7.159 17.057 7.159 26.305 0 9.251-2.472 18.332-7.159 26.305-4.673 7.95-11.38 14.511-19.43 19.007-0.026 0.014-0.049 0.028-0.074 0.042l-735.746 416.436c-7.938 4.577-16.932 7.010-26.096 7.057zM154.481 873.8c1.7 0.962 3.621 1.462 5.573 1.452s3.868-0.531 5.558-1.51l0.184-0.107 736.089-416.627c1.603-0.894 2.942-2.199 3.87-3.782 0.931-1.583 1.422-3.386 1.422-5.222s-0.491-3.64-1.422-5.222c-0.929-1.583-2.267-2.888-3.87-3.782l-0.133-0.072-736.141-416.661c-1.69-0.977-3.605-1.499-5.557-1.51-1.953-0.009-3.874 0.491-5.573 1.452s-3.118 2.351-4.115 4.029c-0.976 1.643-1.515 3.51-1.566 5.418v832.697c0.051 1.91 0.59 3.775 1.566 5.418 0.997 1.679 2.415 3.068 4.115 4.029z" />
<glyph unicode="&#xe93a;" glyph-name="wms-arrow-left-circle" d="M430.706 622.704c8.125-8.125 8.125-21.292 0-29.417l-145.292-145.292 145.292-145.292c8.125-8.125 8.125-21.292 0-29.417-8.122-8.122-21.292-8.122-29.414 0l-160 160c-8.125 8.125-8.125 21.292 0 29.417l160 160c8.122 8.122 21.292 8.122 29.414 0zM756.799 447.995c0-11.487-9.311-20.799-20.799-20.799h-480c-11.49 0-20.801 9.311-20.801 20.799s9.311 20.801 20.801 20.801h480c11.487 0 20.799-9.314 20.799-20.801zM866.118 802.115c93.919-93.918 146.681-221.299 146.681-354.119s-52.762-260.201-146.681-354.12c-93.917-93.917-221.298-146.679-354.118-146.679-132.822 0-260.203 52.762-354.12 146.679-93.918 93.919-146.681 221.3-146.681 354.12s52.763 260.201 146.681 354.119c93.917 93.918 221.298 146.681 354.12 146.681 132.82 0 260.201-52.763 354.118-146.681zM971.199 447.995c0 121.789-48.379 238.587-134.495 324.703-86.118 86.117-202.917 134.497-324.703 134.497-121.789 0-238.587-48.38-324.705-134.496s-134.497-202.915-134.497-324.704c0-121.786 48.38-238.587 134.497-324.703s202.916-134.495 324.705-134.495c121.786 0 238.585 48.379 324.703 134.495 86.116 86.116 134.495 202.917 134.495 324.703z" />
<glyph unicode="&#xe93b;" glyph-name="wms-arrow-left" d="M780.765 925.202c14.399-14.96 13.943-38.759-1.017-53.157l-438.647-422.151c-0.398-0.382-0.652-0.775-0.784-1.082-0.13-0.303-0.177-0.575-0.177-0.812s0.047-0.51 0.177-0.812c0.133-0.307 0.368-0.682 0.763-1.064l438.668-422.17c14.96-14.397 15.416-38.195 1.017-53.157-14.397-14.96-38.195-15.416-53.155-1.017l-438.628 422.132c-7.51 7.222-13.568 15.895-17.718 25.526-4.154 9.642-6.314 20.033-6.314 30.562s2.16 20.92 6.314 30.562c4.15 9.63 10.189 18.285 17.699 25.507l438.647 422.152c14.96 14.398 38.758 13.941 53.155-1.019z" />
<glyph unicode="&#xe93c;" glyph-name="wms-arrow-right-circle" d="M593.292 622.704c-8.125-8.122-8.125-21.292 0-29.417l145.292-145.292-145.292-145.292c-8.125-8.122-8.125-21.292 0-29.417 8.122-8.122 21.292-8.122 29.414 0l160 160c8.125 8.125 8.125 21.295 0 29.417l-160 160c-8.122 8.122-21.292 8.122-29.414 0zM267.199 447.995c0-11.487 9.311-20.799 20.801-20.799h480c11.487 0 20.799 9.311 20.799 20.799s-9.311 20.801-20.799 20.801h-480c-11.49 0-20.801-9.314-20.801-20.801zM157.88 802.115c-93.918-93.918-146.681-221.299-146.681-354.119s52.763-260.201 146.681-354.12c93.917-93.917 221.298-146.679 354.12-146.679 132.82 0 260.201 52.762 354.118 146.681 93.919 93.917 146.681 221.298 146.681 354.118s-52.762 260.201-146.681 354.119c-93.917 93.918-221.298 146.681-354.118 146.681-132.822 0-260.203-52.763-354.12-146.681zM52.799 447.995c0 121.789 48.38 238.587 134.497 324.704s202.916 134.497 324.705 134.497c121.786 0 238.585-48.38 324.703-134.497 86.116-86.116 134.495-202.915 134.495-324.704 0-121.786-48.379-238.587-134.495-324.703-86.118-86.116-202.917-134.495-324.703-134.495-121.789 0-238.587 48.379-324.705 134.495s-134.497 202.917-134.497 324.703z" />
<glyph unicode="&#xe93d;" glyph-name="wms-arrow-right" d="M266.508-29.203c-14.399 14.96-13.943 38.761 1.017 53.157l438.647 422.151c0.398 0.382 0.652 0.775 0.784 1.082 0.13 0.303 0.177 0.575 0.177 0.812s-0.047 0.51-0.177 0.812c-0.133 0.307-0.368 0.682-0.766 1.064l-438.665 422.169c-14.96 14.397-15.416 38.197-1.017 53.157 14.397 14.96 38.195 15.416 53.155 1.019l438.628-422.133c7.51-7.222 13.568-15.895 17.718-25.526 4.154-9.642 6.314-20.033 6.314-30.562s-2.16-20.92-6.314-30.562c-4.15-9.63-10.189-18.285-17.699-25.507l-438.647-422.151c-14.96-14.399-38.758-13.943-53.155 1.017z" />
<glyph unicode="&#xe93e;" glyph-name="wms-arrow-up-circle" d="M686.708 529.296c-8.122-8.122-21.292-8.122-29.414 0l-145.294 145.292-145.292-145.292c-8.122-8.122-21.292-8.122-29.414 0-8.125 8.125-8.125 21.292 0 29.417l160 160c8.122 8.122 21.292 8.122 29.414 0l160-160c8.125-8.125 8.125-21.295 0-29.417zM512 203.203c-11.487 0-20.799 9.314-20.799 20.801v480c0 11.487 9.311 20.799 20.801 20.799 11.487 0 20.799-9.311 20.799-20.799v-480c0-11.487-9.311-20.801-20.801-20.801zM866.12 93.885c-93.917-93.917-221.298-146.681-354.12-146.681-132.82 0-260.201 52.764-354.118 146.681-93.918 93.919-146.681 221.3-146.681 354.12s52.763 260.201 146.681 354.119c93.917 93.918 221.298 146.681 354.12 146.681 132.82 0 260.201-52.763 354.118-146.681 93.919-93.918 146.681-221.299 146.681-354.119s-52.762-260.201-146.681-354.12zM512-11.197c121.789 0 238.587 48.382 324.706 134.498 86.116 86.116 134.495 202.915 134.495 324.703 0 121.786-48.379 238.587-134.495 324.703-86.118 86.117-202.917 134.497-324.703 134.497-121.789 0-238.587-48.38-324.705-134.497s-134.497-202.915-134.497-324.703c0-121.789 48.38-238.587 134.497-324.703s202.916-134.498 324.702-134.498z" />
<glyph unicode="&#xe93f;" glyph-name="wms-arrow-up" d="M989.203 179.235c-14.96-14.399-38.761-13.943-53.157 1.017l-422.151 438.647c-0.382 0.398-0.775 0.652-1.082 0.784-0.303 0.13-0.575 0.177-0.812 0.177s-0.51-0.047-0.812-0.177c-0.307-0.133-0.682-0.368-1.064-0.766l-422.169-438.665c-14.397-14.96-38.197-15.416-53.157-1.017-14.96 14.397-15.416 38.195-1.019 53.155l422.133 438.628c7.222 7.51 15.895 13.568 25.526 17.718 9.642 4.154 20.033 6.314 30.562 6.314s20.92-2.16 30.562-6.314c9.63-4.15 18.285-10.189 25.507-17.699l422.151-438.647c14.399-14.96 13.943-38.758-1.017-53.155z" />
<glyph unicode="&#xe940;" glyph-name="wms-arrow-upward" d="M491.199-26.671c0-11.487 9.311-20.799 20.799-20.799s20.801 9.311 20.801 20.799v897.761l241.559-250.851c7.969-8.276 21.136-8.525 29.412-0.556 8.273 7.969 8.522 21.136 0.554 29.41l-277.334 288.001c-3.919 4.072-9.33 6.372-14.981 6.372-0.735 0-1.464-0.039-2.188-0.115-5.183-0.539-9.802-2.982-13.142-6.617l-276.987-287.641c-7.968-8.273-7.72-21.441 0.555-29.41s21.442-7.72 29.411 0.556l241.541 250.829v-897.739z" />
<glyph unicode="&#xe941;" glyph-name="wms-aspect-ratio" d="M85.862 725.329c0 11.488 9.313 20.8 20.8 20.8h127.999c11.487 0 20.801-9.312 20.801-20.8s-9.314-20.799-20.801-20.799h-107.199v-107.201c0-11.487-9.312-20.799-20.8-20.799s-20.8 9.311-20.8 20.799v128zM895.462 255.993c0 11.487-9.314 20.801-20.801 20.801s-20.799-9.314-20.799-20.801v-107.199h-107.201c-11.487 0-20.799-9.314-20.799-20.801s9.311-20.799 20.799-20.799h128c11.487 0 20.801 9.311 20.801 20.799v128zM0.534 810.666c0 11.488 9.312 20.8 20.8 20.8h938.666c11.487 0 20.801-9.312 20.801-20.8v-768c0-11.487-9.314-20.801-20.801-20.801h-938.666c-11.488 0-20.8 9.314-20.8 20.801v768zM42.134 789.866v-726.399h897.067v726.399h-897.067z" />
<glyph unicode="&#xe942;" glyph-name="wms-assignment" d="M362.659 618.133c-11.487 0-20.801-9.314-20.801-20.801s9.314-20.799 20.801-20.799h298.666c11.487 0 20.799 9.311 20.799 20.799s-9.311 20.801-20.799 20.801h-298.666zM341.858 426.668c0 11.487 9.314 20.801 20.801 20.801h298.666c11.487 0 20.799-9.314 20.799-20.801s-9.311-20.799-20.799-20.799h-298.666c-11.487 0-20.801 9.311-20.801 20.799zM362.659 276.797c-11.487 0-20.801-9.311-20.801-20.799s9.314-20.801 20.801-20.801h192c11.487 0 20.799 9.314 20.799 20.801s-9.311 20.799-20.799 20.799h-192zM213.858 725.332c0 11.489 9.312 20.801 20.801 20.801h554.666c11.487 0 20.799-9.312 20.799-20.801v-459.178c-0.026-25.309-9.097-49.799-25.577-69.008l-81.857-95.467c-9.961-11.641-22.321-20.992-36.236-27.404s-29.054-9.735-44.374-9.742h-387.421c-11.489 0-20.801 9.311-20.801 20.799v640zM255.458 704.533v-598.4h366.604c9.314 0.005 18.523 2.027 26.982 5.923 8.46 3.901 15.977 9.584 22.032 16.663l81.892 95.507c10.021 11.681 15.539 26.561 15.555 41.951v438.356h-513.066zM422.942 932.688c26.496 17.331 57.472 26.562 89.135 26.562s62.636-9.231 89.135-26.562c22.614-14.791 41.13-34.936 53.958-58.555h219.49c16.831 0 32.975-6.687 44.877-18.589s18.588-28.045 18.588-44.878v-810.666c0-16.833-6.686-32.975-18.588-44.879-11.902-11.902-28.046-18.588-44.877-18.588h-725.334c-16.832 0-32.975 6.686-44.878 18.588-11.902 11.904-18.589 28.046-18.589 44.879v810.666c0 16.832 6.687 32.975 18.589 44.878s28.045 18.589 44.878 18.589h219.66c12.828 23.619 31.344 43.764 53.958 58.555zM512.077 917.65c-23.573 0-46.636-6.872-66.365-19.776-19.726-12.904-35.265-31.279-44.712-52.876-3.312-7.572-10.794-12.465-19.058-12.465h-232.618c-5.799 0-11.361-2.304-15.462-6.405s-6.405-9.663-6.405-15.462v-810.666c0-5.8 2.304-11.362 6.405-15.462s9.663-6.405 15.462-6.405h725.334c5.8 0 11.359 2.304 15.46 6.405s6.405 9.663 6.405 15.462v810.666c0 5.799-2.304 11.361-6.405 15.462s-9.661 6.405-15.46 6.405h-232.448c-8.266 0-15.746 4.893-19.058 12.465-9.446 21.598-24.986 39.973-44.714 52.876-19.726 12.904-42.789 19.776-66.362 19.776z" />
<glyph unicode="&#xe943;" glyph-name="wms-at" d="M397.231 826.174c78.974 23.968 163.47 22.61 241.634-3.883s146.071-76.793 194.197-143.84c48.119-67.042 74.045-147.489 74.14-230.011v-41.577c0-27.583-10.957-54.037-30.462-73.539-19.503-19.505-45.957-30.462-73.537-30.462-27.583 0-54.037 10.957-73.539 30.462-19.505 19.503-30.462 45.957-30.462 73.539v41.6c0 0.198-0.002 0.398-0.007 0.596-0.247 49.313-19.94 96.554-54.828 131.442-35.107 35.107-82.723 54.828-132.371 54.828s-97.264-19.721-132.371-54.828c-35.107-35.107-54.828-82.723-54.828-132.371s19.721-97.264 54.828-132.371c35.107-35.107 82.723-54.828 132.371-54.828s97.264 19.721 132.371 54.828c9.805 9.805 18.409 20.585 25.721 32.114 7.194-16.233 17.361-31.169 30.159-43.967 27.306-27.304 64.34-42.645 102.956-42.645 38.614 0 75.648 15.341 102.954 42.645 27.306 27.306 42.645 64.34 42.645 102.956v41.621c-0.1 91.22-28.756 180.119-81.946 254.224s-128.247 129.699-214.637 158.981c-86.391 29.282-179.782 30.783-267.069 4.292s-164.091-79.644-219.635-152.002c-55.544-72.36-87.041-160.291-90.072-251.459s22.556-180.997 73.172-256.884c50.615-75.888 123.72-134.025 209.054-166.256s178.621-36.934 266.764-13.454c11.101 2.956 17.704 14.352 14.746 25.451-2.956 11.101-14.352 17.704-25.453 14.746-79.749-21.243-164.15-16.987-241.357 12.174-77.21 29.161-143.35 81.762-189.145 150.421-45.795 68.662-68.945 149.935-66.203 232.42s31.24 162.043 81.494 227.51c50.253 65.468 119.743 113.559 198.717 137.527zM409.041 551.084c27.304 27.306 64.337 42.645 102.954 42.645s75.65-15.339 102.954-42.645c27.306-27.304 42.647-64.337 42.647-102.954s-15.341-75.65-42.647-102.954c-27.304-27.306-64.337-42.647-102.954-42.647s-75.65 15.341-102.954 42.647c-27.306 27.304-42.645 64.337-42.645 102.954s15.339 75.65 42.645 102.954z" />
<glyph unicode="&#xe944;" glyph-name="wms-attach-file" d="M293.644 858.35c57.912 57.911 136.457 90.445 218.356 90.445 81.897 0 160.442-32.534 218.354-90.445 57.91-57.911 90.445-136.456 90.445-218.355v-351.958c0-11.487-9.311-20.799-20.799-20.799-11.49 0-20.801 9.311-20.801 20.799v351.958c0 70.865-28.151 138.829-78.262 188.939-50.109 50.11-118.072 78.261-188.937 78.261-70.868 0-138.831-28.151-188.94-78.261-50.111-50.11-78.262-118.073-78.262-188.939v-480c0-45.405 18.036-88.951 50.143-121.058 32.107-32.105 75.653-50.141 121.058-50.141s88.948 18.036 121.055 50.141c32.107 32.107 50.143 75.653 50.143 121.058v480c0 19.945-7.922 39.073-22.025 53.174-14.103 14.103-33.231 22.028-53.174 22.028-19.945 0-39.073-7.924-53.176-22.028-14.103-14.101-22.025-33.229-22.025-53.174v-416c0-11.487-9.311-20.799-20.799-20.799-11.49 0-20.801 9.311-20.801 20.799v416c0 30.978 12.307 60.686 34.211 82.59s51.612 34.21 82.59 34.21c30.976 0 60.684-12.306 82.588-34.21s34.211-51.612 34.211-82.59v-480c0-56.439-22.421-110.564-62.327-150.472-39.908-39.908-94.036-62.327-150.472-62.327-56.439 0-110.566 22.419-150.474 62.327s-62.327 94.033-62.327 150.472v480c0 81.899 32.535 160.443 90.445 218.355z" />
<glyph unicode="&#xe945;" glyph-name="wms-attach-money" d="M512 884.795c11.487 0 20.799-9.312 20.799-20.8v-139.199h87.201c55.503 0 104.799-40.506 104.799-95.467v-53.404c0-11.49-9.311-20.801-20.799-20.801-11.49 0-20.801 9.311-20.801 20.801v53.404c0 27.513-25.928 53.867-63.199 53.867h-216.001c-37.276 0-63.199-26.349-63.199-53.862v-50.674c0-22.265 16.759-44.244 44.9-51.542l263.040-68.198c43.536-11.287 76.060-47.702 76.060-91.806v-100.487c0-54.97-49.303-95.43-104.799-95.43h-87.201v-139.201c0-11.487-9.311-20.799-20.799-20.799-11.49 0-20.801 9.311-20.801 20.799v139.201h-87.201c-55.508 0-104.799 40.504-104.799 95.467v53.376c0 11.487 9.314 20.801 20.801 20.801s20.799-9.314 20.799-20.801v-53.376c0-27.518 25.926-53.867 63.199-53.867h216.001c37.29 0 63.199 26.328 63.199 53.83v100.487c0 22.263-16.756 44.241-44.9 51.537l-263.040 68.198c-43.536 11.29-76.060 47.704-76.060 91.811v50.672c0 54.963 49.292 95.465 104.799 95.465h87.201v139.199c0 11.488 9.311 20.8 20.801 20.8z" />
<glyph unicode="&#xe946;" glyph-name="wms-attachment" d="M293.644 858.35c57.912 57.911 136.457 90.445 218.356 90.445 81.897 0 160.442-32.534 218.354-90.445 57.91-57.911 90.445-136.456 90.445-218.355v-351.958c0-11.487-9.311-20.799-20.799-20.799-11.49 0-20.801 9.311-20.801 20.799v351.958c0 70.865-28.151 138.829-78.262 188.939-50.109 50.11-118.072 78.261-188.937 78.261-70.868 0-138.831-28.151-188.94-78.261-50.111-50.11-78.262-118.073-78.262-188.939v-480c0-45.405 18.036-88.951 50.143-121.058 32.107-32.105 75.653-50.141 121.058-50.141 45.403 0 88.948 18.036 121.055 50.141 32.107 32.107 50.143 75.653 50.143 121.058v480c0 19.945-7.922 39.073-22.025 53.174-14.103 14.103-33.231 22.028-53.174 22.028-19.945 0-39.073-7.924-53.176-22.028-14.103-14.101-22.025-33.229-22.025-53.174v-416c0-11.487-9.311-20.799-20.799-20.799-11.49 0-20.801 9.311-20.801 20.799v416c0 30.978 12.307 60.686 34.211 82.59s51.612 34.21 82.59 34.21c30.976 0 60.684-12.306 82.588-34.21s34.211-51.612 34.211-82.59v-480c0-56.439-22.421-110.564-62.327-150.472-39.908-39.908-94.036-62.327-150.472-62.327-56.439 0-110.566 22.419-150.474 62.327s-62.327 94.033-62.327 150.472v480c0 81.899 32.535 160.443 90.445 218.355z" />
<glyph unicode="&#xe947;" glyph-name="wms-autorenew" d="M108.616 588.025c32.448 66.858 85.106 131.030 149.039 180.955 75.813 59.202 165.779 97.071 254.324 97.080 86.242-0.249 170.296-27.163 240.638-77.053 70.36-49.896 123.557-120.331 152.306-201.651 3.828-10.831 15.714-16.507 26.545-12.677 10.829 3.828 16.505 15.711 12.677 26.543-31.609 89.411-90.1 166.855-167.461 221.717-77.352 54.862-169.782 84.455-264.616 84.721h-0.061c-100.152 0-198.886-42.586-279.955-105.892-63.684-49.73-117.521-113.048-153.31-180.685l-21.992 87.966c-2.786 11.143-14.079 17.92-25.224 15.134s-17.92-14.080-15.134-25.225l36.572-146.285c1.117-4.468 3.602-8.234 6.897-10.964 0.965-0.801 2.011-1.522 3.133-2.148 2.672-1.492 5.675-2.402 8.803-2.604 2.317-0.154 4.613 0.088 6.801 0.684l145.876 36.471c11.144 2.786 17.921 14.078 15.135 25.223-2.788 11.145-14.080 17.92-25.225 15.134l-105.769-26.442zM971.187 342.73c-1.492 6.796-6.358 12.688-13.403 15.174-4.187 1.478-8.532 1.536-12.507 0.426l-145.75-36.438c-11.145-2.786-17.92-14.080-15.134-25.225 2.786-11.143 14.080-17.92 25.223-15.134l106.806 26.701c-32.775-72.72-83.484-136.201-147.635-184.318-74.661-55.992-164.194-88.681-257.359-93.968-85.634 0.105-169.174 26.496-239.323 75.627-70.306 49.24-123.752 118.924-153.077 199.594-3.925 10.796-15.859 16.368-26.655 12.442-10.796-3.924-16.367-15.858-12.442-26.654 32.244-88.699 91.008-165.315 168.31-219.455 77.3-54.142 169.393-83.167 263.766-83.153 0.384 0 0.768 0.012 1.152 0.033 101.571 5.641 199.203 41.221 280.588 102.256 64.396 48.3 116.34 110.832 151.994 182.358l21.509-86.039c2.786-11.145 14.080-17.922 25.225-15.134 11.143 2.786 17.92 14.078 15.134 25.223l-36.422 145.687z" />
<glyph unicode="&#xe948;" glyph-name="wms-award" d="M514.974 948.818c-8.497 0.024-16.838-2.286-24.113-6.677-7.273-4.391-13.203-10.695-17.14-18.225l-47.618-93.712h-77.754c-9.072 0.146-17.985-2.414-25.6-7.356-7.689-4.989-13.696-12.176-17.245-20.626s-4.475-17.772-2.655-26.755c1.818-8.967 6.284-17.182 12.823-23.579l0.033-0.033 73.083-71.923-40.592-93.233c-3.691-8.872-4.508-18.679-2.337-28.039 2.174-9.36 7.229-17.801 14.452-24.138s16.254-10.249 25.816-11.185c9.514-0.931 19.081 1.131 27.366 5.895l101.276 57.046 101.253-57.034c8.283-4.783 17.85-6.863 27.373-5.946 9.581 0.922 18.63 4.831 25.868 11.173 7.24 6.344 12.304 14.799 14.476 24.176 2.174 9.377 1.35 19.2-2.362 28.081l-40.574 93.184 73.225 71.839c6.54 6.395 11.008 14.606 12.828 23.571 1.822 8.975 0.903 18.29-2.634 26.737-3.54 8.446-9.537 15.634-17.213 20.629-7.608 4.952-16.517 7.524-25.591 7.389h-77.808l-47.528 93.607c-3.894 7.552-9.789 13.89-17.036 18.322-7.249 4.432-15.576 6.789-24.073 6.813zM512.363 906.527c0.752 0.454 1.615 0.693 2.493 0.691 0.88-0.003 1.741-0.246 2.49-0.705 0.74-0.452 1.343-1.095 1.745-1.861l53.206-104.793c3.547-6.984 10.715-11.383 18.546-11.383l91.169 0.004c0.817 0.016 1.62-0.213 2.306-0.659 0.684-0.446 1.219-1.087 1.534-1.84 0.317-0.754 0.398-1.585 0.235-2.385-0.161-0.801-0.561-1.534-1.145-2.105l-83.491-81.91c-6.156-6.039-7.945-15.248-4.506-23.152l46.080-105.828c0.321-0.815 0.386-1.708 0.189-2.562-0.205-0.884-0.682-1.683-1.366-2.281-0.682-0.598-1.534-0.966-2.439-1.052-0.903-0.088-1.808 0.114-2.593 0.57l-111.839 62.997c-6.337 3.57-14.078 3.57-20.415 0l-111.791-62.971c-0.784-0.454-1.692-0.652-2.593-0.563-0.903 0.088-1.755 0.456-2.434 1.054-0.682 0.598-1.159 1.394-1.364 2.276-0.198 0.852-0.133 1.741 0.184 2.553l46.071 105.807c3.437 7.894 1.655 17.089-4.482 23.128l-83.386 82.062c-0.584 0.571-0.984 1.305-1.147 2.107s-0.079 1.633 0.237 2.387c0.317 0.754 0.852 1.395 1.538 1.84s1.489 0.674 2.306 0.656l0.454-0.005h90.71c7.829 0 14.997 4.397 18.544 11.377l53.213 104.725c0.407 0.751 1.008 1.38 1.741 1.821zM75.653 948.81c-17.093 0-33.485-6.79-45.572-18.876s-18.876-28.479-18.876-45.571c0-132.82 52.763-260.202 146.681-354.119 65.915-65.915 148.312-111.558 237.504-132.915l-63.683-216.518h-43.702c-46.834 0-84.8-37.967-84.8-84.801v-64c0-46.832 37.966-84.799 84.8-84.799h448c46.834 0 84.799 37.967 84.799 84.799v64c0 46.834-37.965 84.801-84.799 84.801h-52.75l-57.498 215.841c90.291 21.062 173.747 66.972 240.368 133.592 93.917 93.917 146.679 221.299 146.679 354.119 0 17.093-6.789 33.485-18.874 45.571-12.088 12.086-28.481 18.876-45.573 18.876h-276.352c-11.487 0-20.801-9.312-20.801-20.8s9.314-20.8 20.801-20.8h276.352c6.060 0 11.871-2.407 16.156-6.692s6.691-10.096 6.691-16.156c0-121.788-48.379-238.586-134.495-324.705-86.116-86.116-202.917-134.495-324.703-134.495-121.789 0-238.587 48.379-324.704 134.495-86.117 86.118-134.496 202.917-134.496 324.705 0 6.060 2.407 11.871 6.692 16.156s10.096 6.692 16.156 6.692h276.352c11.487 0 20.799 9.312 20.799 20.8s-9.311 20.8-20.799 20.8h-276.352zM375.070 180.813l61.321 208.489c24.872-3.798 50.143-5.739 75.613-5.739 24.502 0 48.817 1.794 72.771 5.313l55.429-208.063h-265.135zM244.803 96.009c0 23.859 19.342 43.201 43.201 43.201h448c23.859 0 43.199-19.342 43.199-43.201v-64c0-23.857-19.34-43.199-43.199-43.199h-448c-23.859 0-43.201 19.342-43.201 43.199v64z" />
<glyph unicode="&#xe949;" glyph-name="wms-back" d="M986.671 427.201c11.487 0 20.799 9.311 20.799 20.799s-9.311 20.801-20.799 20.801h-897.744l250.844 241.552c8.273 7.969 8.522 21.136 0.554 29.411s-21.134 8.523-29.41 0.555l-287.805-277.145c-4.045-3.796-6.572-9.19-6.572-15.174 0-6.058 2.589-11.511 6.722-15.311l287.656-277.001c8.276-7.969 21.441-7.72 29.41 0.554 7.969 8.276 7.72 21.443-0.554 29.41l-250.839 241.55h897.739z" />
<glyph unicode="&#xe94a;" glyph-name="wms-backend-services" d="M114.732 187.248c7.293-12.43 18.169-22.44 31.244-28.763 13.075-6.316 27.76-8.664 42.188-6.73l86.65 13.040 107.21-60.844 31.574-80.398c5.327-13.61 14.694-25.323 26.88-33.594s26.619-12.719 41.411-12.763h61.684c14.792 0.044 29.226 4.492 41.411 12.763s21.553 19.984 26.88 33.594l31.574 80.398 107.213 60.844 86.649-13.040c14.429-1.934 29.11 0.414 42.186 6.73 13.079 6.323 23.955 16.333 31.246 28.763l29.373 50.702c7.526 12.628 10.992 27.21 9.942 41.823-1.050 14.611-6.565 28.567-15.816 40.024l-55.075 67.361v121.684l53.606 67.363c9.251 11.455 14.767 25.411 15.816 40.022 1.050 14.613-2.416 29.196-9.942 41.823l-29.373 50.702c-7.291 12.432-18.167 22.442-31.246 28.762-13.077 6.32-27.757 8.662-42.186 6.73l-86.649-13.038-107.213 60.842-31.574 80.399c-5.327 13.612-14.694 25.321-26.88 33.593s-26.619 12.72-41.411 12.763h-60.216c-14.792-0.043-29.226-4.492-41.411-12.763s-21.553-19.981-26.88-33.593l-31.574-80.399-108.679-60.842-86.65 13.038c-14.428 1.932-29.113-0.411-42.188-6.73s-23.95-16.33-31.244-28.762l-29.373-50.702c-7.527-12.628-10.994-27.21-9.946-41.823 1.048-14.611 6.565-28.567 15.82-40.022l55.074-67.363v-121.684l-53.605-67.361c-9.255-11.457-14.771-25.414-15.82-40.024-1.049-14.613 2.419-29.196 9.946-41.823l29.373-50.702zM266.659 121.893l-72.872-10.957c-22.646-3.037-45.681 0.649-66.18 10.552-20.501 9.914-37.579 25.621-49.022 45.123l-0.116 0.195-29.259 50.509c-11.707 19.754-17.095 42.538-15.457 65.364 1.641 22.87 10.257 44.712 24.714 62.659l44.607 56.055v92.907l-45.972 56.229c-14.519 17.971-23.172 39.866-24.817 62.79-1.638 22.828 3.75 45.61 15.458 65.366l29.373 50.701c11.442 19.502 28.505 35.206 49.014 45.119 20.512 9.914 43.55 13.589 66.183 10.559l0.68-0.097 72.333-10.883 83.133 46.541 26.177 66.652c0.005 0.012 0.009 0.023 0.014 0.035 8.355 21.34 23.047 39.695 42.154 52.663 19.116 12.976 41.761 19.955 64.963 20.023h60.462c23.203-0.068 45.847-7.046 64.963-20.023 19.107-12.969 33.797-31.322 42.152-52.659 0.007-0.013 0.012-0.026 0.016-0.039l26.226-66.779 81.752-46.394 72.879 10.96c22.635 3.031 45.666-0.645 66.176-10.557 20.517-9.914 37.578-25.62 49.022-45.124l0.112-0.192 29.258-50.506c11.711-19.759 17.096-42.543 15.455-65.371-1.643-22.863-10.256-44.705-24.709-62.653l-44.609-56.057v-92.907l45.975-56.234c14.515-17.971 23.163-39.862 24.811-62.781 1.641-22.828-3.745-45.612-15.455-65.371l-29.37-50.7c-11.443-19.505-28.504-35.205-49.012-45.121-20.499-9.898-43.543-13.594-66.192-10.559l-0.675 0.098-72.197 10.861-81.752-46.392-26.226-66.783c-8.353-21.346-23.047-39.717-42.166-52.696zM608.663-43.978c-19.119-12.977-41.765-19.954-64.966-20.022h-61.931c-23.201 0.067-45.845 7.045-64.966 20.022-19.109 12.975-33.811 31.36-42.166 52.696 0.005-0.007-0.002 0.007 0 0l-26.226 66.783-81.75 46.392zM408.15 550.433c27.541 27.169 64.896 42.431 103.848 42.431 29.047 0 57.442-8.497 81.592-24.413 24.152-15.919 42.975-38.544 54.093-65.012 11.115-26.473 14.024-55.599 8.357-83.698-5.667-28.102-19.654-53.914-40.194-74.173-20.538-20.261-46.708-34.057-75.197-39.647-28.488-5.588-58.017-2.721-84.855 8.243-26.833 10.966-49.771 29.533-65.908 53.355s-24.751 51.831-24.751 80.482c0 38.421 15.472 75.266 43.015 102.433zM471.778 352.223c19.207-7.845 40.336-9.898 60.723-5.9 20.387 4.001 39.114 13.875 53.811 28.372 14.699 14.497 24.711 32.97 28.765 53.080 4.056 20.11 1.974 40.953-5.981 59.897-7.955 18.942-21.425 35.133-38.707 46.522-17.285 11.392-37.604 17.473-58.391 17.473-27.874 0-54.607-10.922-74.317-30.364s-30.783-45.81-30.783-73.304c0-20.503 6.165-40.546 17.713-57.595 11.548-17.047 27.962-30.334 47.167-38.181z" />
<glyph unicode="&#xe94b;" glyph-name="wms-backspace" d="M529.296 590.704c8.125 8.125 21.292 8.125 29.417 0l113.292-113.292 113.292 113.292c8.125 8.125 21.292 8.125 29.417 0 8.122-8.122 8.122-21.292 0-29.414l-113.294-113.292 113.294-113.294c8.122-8.122 8.122-21.292 0-29.414-8.125-8.122-21.292-8.122-29.417 0l-113.292 113.292-113.292-113.292c-8.125-8.122-21.292-8.122-29.417 0-8.122 8.122-8.122 21.292 0 29.414l113.292 113.294-113.292 113.292c-8.122 8.122-8.122 21.292 0 29.414zM220.849 709.471l-161.778-224c-16.155-22.37-16.155-52.573 0-74.943l161.778-224c12.032-16.661 31.332-26.529 51.884-26.529h655.276c35.344 0 64 28.653 64 64v448c0 35.347-28.656 64-64 64h-655.276c-20.552 0-39.852-9.868-51.884-26.529zM272.733 694.4h655.276c12.369 0 22.4-10.028 22.4-22.4v-448c0-12.372-10.031-22.4-22.4-22.4h-655.276c-7.194 0-13.95 3.454-18.16 9.286l-161.778 224c-5.654 7.829-5.654 18.399 0 26.228l161.778 224c4.21 5.832 10.966 9.286 18.16 9.286z" />
</font>
</defs>
</svg>
