<?xml version="1.0" standalone="no"?>
<!DOCTYPE svg PUBLIC "-//W3C//DTD SVG 1.1//EN" "http://www.w3.org/Graphics/SVG/1.1/DTD/svg11.dtd" >
<svg xmlns="http://www.w3.org/2000/svg">
<metadata>Generated by IcoMoon</metadata>
<defs>
<font id="wmsicon" horiz-adv-x="1024">
<font-face units-per-em="1024" ascent="960" descent="-64" />
<missing-glyph horiz-adv-x="1024" />
<glyph unicode="&#x20;" horiz-adv-x="512" d="" />
<glyph unicode="&#xe900;" glyph-name="wms-access-alarm" d="M352.931 799.754c50.431 20.89 104.484 31.641 159.070 31.641s108.639-10.751 159.071-31.641c50.432-20.889 96.256-51.507 134.855-90.106s69.217-84.422 90.106-134.854c20.89-50.431 31.642-104.483 31.642-159.070s-10.752-108.638-31.642-159.070c-20.89-50.432-51.507-96.256-90.106-134.855s-84.423-69.217-134.855-90.106c-50.432-20.89-104.484-31.642-159.071-31.642s-108.639 10.752-159.070 31.642c-50.431 20.89-96.255 51.507-134.853 90.106s-69.217 84.423-90.106 134.855c-20.89 50.432-31.641 104.482-31.641 159.070s10.751 108.639 31.641 159.070c20.89 50.432 51.508 96.255 90.106 134.854s84.422 69.217 134.853 90.106zM512.002 774.506c-47.116 0-93.771-9.28-137.3-27.311s-83.081-44.458-116.397-77.774c-33.316-33.316-59.744-72.868-77.775-116.398s-27.311-90.184-27.311-137.3c0-47.118 9.28-93.773 27.311-137.298 18.030-43.531 44.458-83.081 77.775-116.4 33.316-33.314 72.868-59.745 116.397-77.773s90.184-27.312 137.3-27.312c47.116 0 93.768 9.284 137.3 27.312s83.081 44.459 116.4 77.773c33.314 33.32 59.739 72.869 77.773 116.4 18.028 43.526 27.312 90.18 27.312 137.298 0 47.116-9.284 93.771-27.312 137.3-18.034 43.53-44.459 83.081-77.773 116.398-33.32 33.316-72.869 59.744-116.4 77.774s-90.184 27.311-137.3 27.311zM326.208 108.624c14.050-7.031 19.743-24.115 12.715-38.167l-59.633-119.222c-7.027-14.052-24.114-19.74-38.164-12.715s-19.743 24.115-12.715 38.161l59.633 119.228c7.027 14.046 24.114 19.74 38.164 12.715zM337.659 415.724c0 15.709 12.735 28.444 28.444 28.444h145.898c15.71 0 28.444-12.735 28.444-28.444s-12.735-28.442-28.444-28.442h-145.898c-15.709 0-28.444 12.732-28.444 28.442zM512.002 670.051c15.71 0 28.444-12.735 28.444-28.444v-225.882c0-15.709-12.735-28.442-28.444-28.442s-28.444 12.732-28.444 28.442v225.882c0 15.709 12.735 28.444 28.444 28.444zM243.793 949.796c9.813-12.267 7.824-30.167-4.442-39.98l-161.345-129.076c-12.267-9.813-30.167-7.824-39.98 4.442s-7.825 30.166 4.442 39.98l161.344 129.076c12.267 9.814 30.167 7.825 39.981-4.442zM697.799 108.669c14.052 7.026 31.135 1.326 38.161-12.72l59.637-119.268c7.026-14.052 1.326-31.135-12.72-38.161-14.052-7.026-31.141-1.331-38.167 12.72l-59.631 119.262c-7.026 14.052-1.331 31.141 12.72 38.167zM780.208 949.796c9.813 12.267 27.716 14.256 39.982 4.442l161.348-129.076c12.265-9.814 14.251-27.713 4.437-39.98s-27.711-14.256-39.976-4.442l-161.348 129.076c-12.265 9.814-14.256 27.713-4.443 39.98z" />
<glyph unicode="&#xe901;" glyph-name="wms-access-time" d="M8.167 447.988c0 278.281 225.591 503.873 503.873 503.873 278.283 0 503.871-225.592 503.871-503.873 0-278.283-225.587-503.876-503.871-503.876-278.281 0-503.873 225.593-503.873 503.876zM512.040 894.972c-246.863 0-446.985-200.121-446.985-446.984 0-246.869 200.122-446.987 446.985-446.987s446.982 200.118 446.982 446.987c0 246.863-200.118 446.984-446.982 446.984zM512.040 659.29c15.709 0 28.444-12.735 28.444-28.444v-172.326l178.927-208.51c10.229-11.924 8.858-29.878-3.066-40.112-11.918-10.229-29.878-8.858-40.107 3.066l-185.785 216.501c-4.425 5.157-6.858 11.728-6.858 18.524v182.857c0 15.709 12.735 28.444 28.444 28.444z" />
<glyph unicode="&#xe902;" glyph-name="wms-accessibility-2" d="M499.783 899.556c-53.14 0-96.218-43.079-96.218-96.218s43.079-96.218 96.218-96.218c53.14 0 96.219 43.079 96.219 96.218s-43.079 96.218-96.219 96.218zM346.676 803.337c0 84.559 68.548 153.107 153.107 153.107 84.557 0 153.108-68.548 153.108-153.107s-68.551-153.107-153.108-153.107c-84.559 0-153.107 68.549-153.107 153.107zM134.482 632.133c13.153 5.448 27.251 8.253 41.488 8.253 1.083 0 2.164-0.062 3.24-0.185l319.883-36.667 345.934 36.694c0.996 0.106 1.997 0.159 3.004 0.159 28.752 0 56.326-11.423 76.658-31.754s31.755-47.908 31.755-76.662c0-28.753-11.423-56.329-31.755-76.661-19.752-19.753-46.342-31.097-74.206-31.726l-203.389-32.83v-94.72l127.118-167.168c0 0.006 0.006-0.006 0 0 17.442-22.858 25.099-51.718 21.271-80.213-3.829-28.501-18.819-54.312-41.677-71.76s-51.712-25.099-80.213-21.271c-28.501 3.829-54.312 18.819-71.76 41.677l-106.712 140.316-119.86-143.434c-8.938-11.133-19.988-20.389-32.514-27.238-12.628-6.906-26.505-11.23-40.821-12.715-14.316-1.49-28.785-0.108-42.563 4.056s-26.588 11.025-37.684 20.196c-11.097 9.165-20.257 20.452-26.947 33.195s-10.775 26.692-12.017 41.028c-1.242 14.342 0.383 28.786 4.781 42.49 4.38 13.648 11.423 26.288 20.72 37.2l142.011 170.041v88.822l-177.027 32.335c-13.293 0.34-26.419 3.123-38.719 8.217-13.154 5.449-25.106 13.434-35.173 23.502s-18.053 22.019-23.501 35.173c-5.449 13.153-8.253 27.251-8.253 41.488s2.804 28.335 8.253 41.489c5.448 13.153 13.434 25.105 23.501 35.173s22.019 18.053 35.173 23.501zM174.524 583.477c-6.273-0.176-12.465-1.497-18.271-3.902-6.252-2.59-11.932-6.385-16.716-11.17s-8.581-10.465-11.17-16.716c-2.59-6.252-3.922-12.952-3.922-19.719s1.333-13.467 3.922-19.718c2.589-6.252 6.385-11.932 11.17-16.717s10.465-8.58 16.716-11.17c6.252-2.589 12.952-3.922 19.718-3.922 1.715 0 3.425-0.155 5.111-0.463l202.701-37.025c13.515-2.468 23.334-14.243 23.334-27.981v-122.856c0-6.662-2.34-13.119-6.612-18.233l-148.936-178.335c-4.446-5.2-7.814-11.23-9.904-17.744s-2.863-13.38-2.272-20.196c0.59-6.81 2.532-13.443 5.711-19.496 3.18-6.059 7.533-11.423 12.807-15.781 5.274-4.352 11.362-7.617 17.91-9.597s13.425-2.634 20.229-1.929c6.804 0.705 13.399 2.765 19.401 6.047s11.29 7.726 15.556 13.073l0.403 0.506 142.932 171.031c5.551 6.645 13.825 10.394 22.479 10.194s16.748-4.324 21.988-11.218l128.246-168.63c0 0.006 0.006 0 0 0 8.294-10.854 20.571-17.988 34.111-19.809 13.545-1.82 27.261 1.82 38.127 10.109 10.866 8.294 17.988 20.565 19.809 34.111s-1.815 27.261-10.109 38.127l-132.983 174.882c-3.766 4.949-5.803 10.997-5.803 17.215v128.527c0 13.96 10.132 25.857 23.91 28.081l229.382 37.025c1.496 0.242 3.015 0.364 4.534 0.364 13.665 0 26.772 5.429 36.432 15.091 9.665 9.663 15.093 22.769 15.093 36.435s-5.427 26.772-15.093 36.435c-9.347 9.347-21.914 14.732-35.095 15.074l-347.395-36.849c-2.074-0.22-4.167-0.211-6.24 0.026l-321.209 36.82z" />
<glyph unicode="&#xe903;" glyph-name="wms-accessibility" d="M848.401 951.661c5.336 5.335 12.572 8.332 20.116 8.332h126.151c15.707 0 28.444-12.735 28.444-28.444v-126.145c0-7.545-2.998-14.78-8.334-20.114l-33.718-33.717v-51.29c0-15.709-12.732-28.444-28.444-28.444h-51.291l-4.363-4.362v-51.29c0-15.709-12.737-28.444-28.444-28.444h-51.297l-4.358-4.362v-51.29c0-15.709-12.737-28.444-28.444-28.444h-51.291l-115.479-115.509c27.904-63.79 34.509-135.094 18.483-203.236-17.63-74.985-61.497-141.193-123.672-186.664-62.178-45.471-138.569-67.209-215.373-61.286s-148.958 39.117-203.429 93.582c-54.471 54.471-87.666 126.623-93.589 203.423s15.815 153.19 61.289 215.366c45.474 62.176 111.685 106.040 186.673 123.67 68.143 16.020 139.451 9.417 203.24-18.486l397.132 397.156zM880.299 903.104l-403.003-403.027c-8.76-8.76-22.182-10.844-33.186-5.15-56.358 29.162-121.288 37.208-183.061 22.685s-116.314-50.657-153.774-101.874c-37.459-51.216-55.367-114.141-50.487-177.407s32.224-122.698 77.095-167.566c44.871-44.874 104.309-72.215 167.578-77.096 63.269-4.875 126.197 13.028 177.417 50.489 51.22 37.456 87.356 91.995 101.879 153.765s6.474 126.697-22.686 183.051c-5.693 11.001-3.611 24.422 5.147 33.182l138.007 138.045c5.336 5.336 12.572 8.334 20.116 8.334h34.634v34.628c0 7.545 2.992 14.78 8.329 20.114l21.026 21.024c5.336 5.334 12.567 8.331 20.11 8.331h34.634v34.628c0 7.544 2.998 14.779 8.329 20.114l21.026 21.024c5.336 5.334 12.572 8.331 20.116 8.331h34.628v34.628c0 7.544 2.998 14.779 8.334 20.114l33.718 33.717v85.918h-85.925zM202.742 259.231c11.104 4.597 23.004 6.963 35.023 6.963s23.919-2.367 35.023-6.963c11.104-4.602 21.193-11.344 29.691-19.837 8.498-8.499 15.239-18.591 19.839-29.69 4.599-11.105 6.967-23.006 6.967-35.026 0-12.015-2.367-23.916-6.967-35.021s-11.341-21.191-19.839-29.69c-8.499-8.499-18.588-15.241-29.691-19.837-11.104-4.602-23.004-6.969-35.023-6.969s-23.919 2.367-35.023 6.969c-11.104 4.597-21.193 11.338-29.691 19.837s-15.239 18.586-19.839 29.69c-4.599 11.105-6.967 23.006-6.967 35.021 0 12.021 2.367 23.922 6.967 35.026 4.599 11.099 11.341 21.191 19.839 29.69 8.499 8.494 18.588 15.235 29.691 19.837zM237.764 209.306c-4.548 0-9.051-0.893-13.253-2.634s-8.020-4.289-11.236-7.509c-3.215-3.214-5.766-7.031-7.506-11.23-1.74-4.204-2.636-8.704-2.636-13.255 0-4.545 0.895-9.051 2.636-13.249s4.291-8.021 7.506-11.236c3.216-3.214 7.034-5.763 11.236-7.504s8.705-2.64 13.253-2.64c4.548 0 9.051 0.899 13.253 2.64s8.020 4.289 11.235 7.504c3.216 3.214 5.767 7.037 7.507 11.236s2.636 8.704 2.636 13.249c0 4.551-0.895 9.051-2.636 13.255-1.74 4.198-4.291 8.016-7.507 11.23-3.215 3.22-7.033 5.769-11.235 7.509s-8.705 2.634-13.253 2.634z" />
<glyph unicode="&#xe904;" glyph-name="wms-account-settings" d="M316.952 691.809c0 116.699 94.603 211.302 211.301 211.302 116.696 0 211.302-94.603 211.302-211.302s-94.606-211.301-211.302-211.301c-116.698 0-211.301 94.603-211.301 211.301zM528.253 846.222c-85.279 0-154.412-69.133-154.412-154.413s69.133-154.412 154.412-154.412c85.282 0 154.414 69.133 154.414 154.412s-69.131 154.413-154.414 154.413zM528.191 423.48c-5.386-0.012-10.778-0.146-16.168-0.4-60.492-2.864-119.272-21.013-170.85-52.755-51.577-31.738-94.268-76.032-124.085-128.74-29.817-52.713-45.789-112.122-46.421-172.686v-39.947c0-15.707 12.735-28.444 28.444-28.444h658.284c15.713 0 28.444 12.737 28.444 28.444l0.006 39.652-0.006 0.296c-0.631 60.564-16.606 119.973-46.421 172.686-29.815 52.708-72.505 97.001-124.086 128.74-51.575 31.742-110.359 49.891-170.849 52.755-5.391 0.255-10.781 0.389-16.167 0.4h-0.126zM266.605 213.572c25.084 44.339 60.997 81.607 104.384 108.305s109.153 44.379 170.807 44.379zM541.795 366.256c50.885-2.412 100.338-17.681 143.722-44.379 43.389-26.698 79.303-63.966 104.385-108.299 25.060-44.305 38.491-94.225 39.049-145.124v-11.059h-601.395v11.054c0.556 50.898 13.99 100.824 39.049 145.124z" />
<glyph unicode="&#xe905;" glyph-name="wms-account" d="M316.952 691.809c0 116.699 94.603 211.302 211.301 211.302 116.696 0 211.302-94.603 211.302-211.302s-94.606-211.301-211.302-211.301c-116.698 0-211.301 94.603-211.301 211.301zM528.253 846.222c-85.279 0-154.412-69.133-154.412-154.413s69.133-154.412 154.412-154.412c85.282 0 154.414 69.133 154.414 154.412s-69.131 154.413-154.414 154.413zM528.191 423.48c-5.386-0.012-10.778-0.146-16.168-0.4-60.492-2.864-119.272-21.013-170.85-52.755-51.577-31.738-94.268-76.032-124.085-128.74-29.817-52.713-45.789-112.122-46.421-172.686v-39.947c0-15.707 12.735-28.444 28.444-28.444h658.284c15.713 0 28.444 12.737 28.444 28.444l0.006 39.652-0.006 0.296c-0.631 60.564-16.606 119.973-46.421 172.686-29.815 52.708-72.505 97.001-124.086 128.74-51.575 31.742-110.359 49.891-170.849 52.755-5.391 0.255-10.781 0.389-16.167 0.4h-0.126zM266.605 213.572c25.084 44.339 60.997 81.607 104.384 108.305s109.153 44.379 170.807 44.379zM541.795 366.256c50.885-2.412 100.338-17.681 143.722-44.379 43.389-26.698 79.303-63.966 104.385-108.299 25.060-44.305 38.491-94.225 39.049-145.124v-11.059h-601.395v11.054c0.556 50.898 13.99 100.824 39.049 145.124z" />
<glyph unicode="&#xe906;" glyph-name="wms-action-variables" d="M1001.409 686.861c0-15.709-12.732-28.444-28.444-28.444h-724.076c-15.709 0-28.444 12.735-28.444 28.444s12.735 28.444 28.444 28.444h724.076c15.713 0 28.444-12.735 28.444-28.444zM735.63 924.197c11.11 11.108 29.121 11.108 40.226 0l217.225-217.223c11.11-11.109 11.11-29.119 0-40.227l-217.225-217.223c-11.105-11.108-29.116-11.108-40.226 0s-11.11 29.119 0 40.227l197.109 197.11-197.109 197.11c-11.11 11.108-11.11 29.118 0 40.226zM791.632 185.805c0-15.707-12.732-28.444-28.444-28.444h-724.076c-15.709 0-28.445 12.737-28.444 28.444s12.735 28.444 28.444 28.444h724.076c15.713 0 28.444-12.737 28.444-28.444zM276.449 423.141c11.108-11.108 11.108-29.118 0-40.228l-197.11-197.109 197.11-197.109c11.108-11.11 11.108-29.121 0-40.226-11.108-11.11-29.119-11.11-40.227 0l-217.223 217.225c-11.108 11.105-11.108 29.116 0 40.226l217.223 217.221c11.108 11.109 29.119 11.109 40.227 0z" />
<glyph unicode="&#xe907;" glyph-name="wms-actions" d="M910.222 846.222c31.42 0 56.889-25.47 56.889-56.889v-686.729c0-31.42-25.469-56.889-56.889-56.889h-796.444c-31.419 0-56.889 25.469-56.889 56.889v686.729c0 31.419 25.47 56.889 56.889 56.889h796.444zM113.778 903.111c-62.838 0-113.778-50.94-113.778-113.778v-686.729c0-62.839 50.94-113.778 113.778-113.778h796.444c62.839 0 113.778 50.938 113.778 113.778v686.729c0 62.838-50.938 113.778-113.778 113.778h-796.444zM800.506 517.080v-142.222h-577.014v142.222h577.014zM223.492 573.968c-31.419 0-56.889-25.47-56.889-56.889v-142.222c0-31.42 25.47-56.889 56.889-56.889h577.014c31.42 0 56.889 25.469 56.889 56.889v142.222c0 31.419-25.469 56.889-56.889 56.889h-577.014z" />
<glyph unicode="&#xe908;" glyph-name="wms-adb" d="M418.134 668.729c0-27.307-22.187-50.062-49.493-50.062-9.102 0-17.636 2.276-25.031 7.396-1.138 0-2.276 0.569-2.844 1.138-7.396 5.12-13.653 11.947-17.636 20.48-1.138 2.844-2.276 5.689-2.844 8.533-1.138 3.982-1.707 7.964-1.707 12.516 0 3.413 0.569 6.827 1.138 10.24 1.138 5.12 2.844 9.671 5.689 14.222 1.707 2.276 3.413 4.551 5.12 6.827 8.533 11.378 22.187 18.773 38.116 18.773 27.307 0 49.493-22.756 49.493-50.062zM182.044 520.818c0 85.333 34.133 170.667 96.711 227.556 11.378 11.378 28.444 28.444 45.511 39.822 51.2 34.133 113.778 51.2 182.044 51.2s125.156-17.067 176.356-51.2c17.067-11.378 34.133-22.756 45.511-39.822 68.267-56.889 102.4-142.222 102.4-227.556h-648.533zM830.578 42.951c0-11.378-5.689-17.067-11.378-22.756s-17.067-11.378-22.756-11.378h-580.267c-11.378 0-17.067 5.689-22.756 11.378s-11.378 17.067-11.378 22.756v420.978h648.533v-420.978zM967.111 475.307c-22.756 22.756-51.2 34.133-79.644 45.511 0 102.4-39.822 199.111-113.778 267.378-11.378 11.378-22.756 17.067-28.444 28.444l68.267 94.436c1.138 1.707 2.276 3.413 3.982 5.12 2.276 4.551 3.982 9.671 3.982 15.36 0 15.929-12.516 28.444-28.444 28.444-7.396 0-14.222-2.844-19.342-6.827 0 0-0.569-1.138-1.138-1.138-1.707-2.276-2.844-4.551-4.551-6.827l-68.267-94.436c-56.889 34.133-125.156 51.2-187.733 51.2s-136.533-17.067-193.422-51.2l-73.387 94.436c-1.138 1.707-2.276 2.844-3.982 4.551-4.551 4.551-11.947 7.964-19.911 7.964-15.929 0-28.444-12.516-28.444-28.444 0-5.12 1.138-9.671 3.413-13.653 1.138-2.276 2.844-4.551 5.12-6.827l65.991-92.16c-11.378-5.689-17.067-17.067-28.444-28.444-68.267-68.267-113.778-164.978-113.778-267.378v-5.689c-28.444-5.689-56.889-22.756-79.644-45.511-28.444-28.444-45.511-68.267-45.511-113.778v-256c0-17.067 11.378-28.444 28.444-28.444s28.444 11.378 28.444 28.444v256c0 5.848 0.24 11.156 0.675 15.98 2.947 32.669 35.825 78.251 67.592 86.42v-415.289c0-22.756 11.378-45.511 28.444-68.267 17.067-17.067 39.822-28.444 68.267-28.444h574.578c22.756 0 45.511 11.378 68.267 28.444 17.067 17.067 28.444 39.822 28.444 68.267v415.289c17.067-5.689 28.444-11.378 39.822-22.756 17.067-17.067 28.444-45.511 28.444-68.267v-256c0-17.067 11.378-28.444 28.444-28.444s28.444 11.378 28.444 28.444v256c-5.689 34.133-17.067 73.956-51.2 108.089zM694.044 668.729c0-3.413-0.569-6.827-1.138-10.24-1.138-5.12-2.844-9.671-5.689-14.222-7.964-15.36-24.462-25.6-43.236-25.6-27.307 0-49.493 22.756-49.493 50.062s22.187 50.062 49.493 50.062c22.187 0 40.96-14.222 47.218-34.133 1.138-1.707 1.707-3.982 1.707-5.689 0.569-3.413 1.138-6.827 1.138-10.24z" />
<glyph unicode="&#xe909;" glyph-name="wms-add-alert" d="M337.254 36.534c0 15.707 12.735 28.444 28.444 28.444h146.286c15.709 0 28.444-12.737 28.444-28.444 0-15.713-12.735-28.444-28.444-28.444h-146.286c-15.71 0-28.444 12.732-28.444 28.444zM444.254 835.101c1.735-15.613-9.516-29.677-25.13-31.411-128.961-14.329-181.548-103.679-207.718-148.145l-0.191-0.325c-23.92-40.64-36.524-86.944-36.5-134.102v-256.015c0-29.383-9.36-57.799-26.428-81.271h581.109c-17.072 23.472-26.425 51.894-26.425 81.271v118.858c0 15.709 12.732 28.444 28.444 28.444 15.707 0 28.444-12.735 28.444-28.444v-118.858c0-21.555 8.562-42.229 23.797-57.469 15.241-15.241 35.914-23.802 57.469-23.802 15.713 0 28.444-12.732 28.444-28.444 0-15.707-12.732-28.444-28.444-28.444h-804.569c-15.709 0-28.444 12.737-28.444 28.444 0 15.713 12.735 28.444 28.444 28.444 21.556 0 42.227 8.562 57.466 23.802s23.803 35.914 23.803 57.469v255.987c-0.026 57.31 15.292 113.596 44.362 162.987 0.241 0.408 0.484 0.822 0.73 1.241 27.327 46.45 92.619 157.435 249.924 174.914 15.613 1.735 29.677-9.516 31.412-25.13zM483.54 703.96c0 136.896 110.978 247.873 247.875 247.873s247.871-110.977 247.871-247.873c0-136.896-110.973-247.873-247.871-247.873s-247.875 110.977-247.875 247.873zM731.415 894.945c-105.478 0-190.986-85.507-190.986-190.985s85.509-190.984 190.986-190.984c105.478 0 190.982 85.506 190.982 190.984s-85.504 190.985-190.982 190.985zM735.983 860.405c15.707 0 28.444-12.735 28.444-28.444v-256c0-15.709-12.737-28.444-28.444-28.444s-28.444 12.735-28.444 28.444v256c0 15.709 12.737 28.444 28.444 28.444zM579.538 703.96c0 15.709 12.737 28.444 28.444 28.444h256c15.707 0 28.444-12.735 28.444-28.444s-12.737-28.444-28.444-28.444h-256c-15.707 0-28.444 12.735-28.444 28.444z" />
<glyph unicode="&#xe90a;" glyph-name="wms-add-app" d="M910.222 903.111c31.42 0 56.889-25.47 56.889-56.889v-796.444c0-31.42-25.469-56.889-56.889-56.889h-796.444c-31.419 0-56.889 25.469-56.889 56.889v796.444c0 31.419 25.47 56.889 56.889 56.889h796.444zM113.778 960c-62.838 0-113.778-50.94-113.778-113.778v-796.444c0-62.839 50.94-113.778 113.778-113.778h796.444c62.839 0 113.778 50.938 113.778 113.778v796.444c0 62.838-50.938 113.778-113.778 113.778h-796.444z" />
<glyph unicode="&#xe90b;" glyph-name="wms-add-box" d="M910.222 903.111c31.42 0 56.889-25.47 56.889-56.889v-796.444c0-31.42-25.469-56.889-56.889-56.889h-796.444c-31.419 0-56.889 25.469-56.889 56.889v796.444c0 31.419 25.47 56.889 56.889 56.889h796.444zM113.778 960c-62.838 0-113.778-50.94-113.778-113.778v-796.444c0-62.839 50.94-113.778 113.778-113.778h796.444c62.839 0 113.778 50.938 113.778 113.778v796.444c0 62.838-50.938 113.778-113.778 113.778h-796.444zM511.999 641.025c15.709 0 28.444-12.735 28.444-28.444v-329.143c0-15.707-12.735-28.444-28.444-28.444s-28.444 12.737-28.444 28.444v329.143c0 15.71 12.735 28.444 28.444 28.444zM318.983 448.009c0 15.709 12.735 28.444 28.444 28.444h329.141c15.713 0 28.444-12.735 28.444-28.444s-12.732-28.444-28.444-28.444h-329.141c-15.709 0-28.444 12.735-28.444 28.444z" />
<glyph unicode="&#xe90c;" glyph-name="wms-add-circle-outline" d="M512.003 724.797c11.488 0 20.8-9.312 20.8-20.8v-235.2h235.2c11.488 0 20.8-9.312 20.8-20.8s-9.312-20.8-20.8-20.8h-235.2v-235.2c0-11.488-9.312-20.8-20.8-20.8s-20.8 9.312-20.8 20.8v235.2h-235.2c-11.488 0-20.8 9.312-20.8 20.8s9.312 20.8 20.8 20.8h235.2v235.2c0 11.488 9.312 20.8 20.8 20.8zM512 896c247.424 0 448-200.576 448-448s-200.576-448-448-448c-247.424 0-448 200.576-448 448s200.576 448 448 448zM105.6 448c0-224.448 181.951-406.4 406.4-406.4s406.4 181.952 406.4 406.4c0 224.449-181.952 406.4-406.4 406.4s-406.4-181.951-406.4-406.4z" />
<glyph unicode="&#xe90d;" glyph-name="wms-add-circle" d="M68.267 448c0 245.067 198.666 443.733 443.733 443.733s443.733-198.666 443.733-443.733c0-245.066-198.667-443.733-443.733-443.733-245.067 0-443.733 198.667-443.733 443.733zM512 960c-282.77 0-512-229.23-512-512 0-282.772 229.23-512 512-512 282.772 0 512 229.228 512 512 0 282.77-229.228 512-512 512zM511.993 646.703c18.851 0 34.133-15.282 34.133-34.133v-329.143c0-18.853-15.282-34.133-34.133-34.133s-34.133 15.28-34.133 34.133v329.143c0 18.851 15.282 34.133 34.133 34.133zM313.297 448.007c0 18.851 15.282 34.133 34.133 34.133h329.143c18.853 0 34.133-15.282 34.133-34.133s-15.28-34.133-34.133-34.133h-329.143c-18.851 0-34.133 15.282-34.133 34.133z" />
<glyph unicode="&#xe90e;" glyph-name="wms-add-column-left" d="M829.44 679.135h133.12v-681.69h-133.12v681.69zM819.2 740.575c-28.278 0-51.2-22.923-51.2-51.2v-702.17c0-28.278 22.922-51.2 51.2-51.2h153.6c28.278 0 51.2 22.922 51.2 51.2v702.17c0 28.277-22.922 51.2-51.2 51.2h-153.6zM445.44 679.135h133.12v-681.69h-133.12v681.69zM435.2 740.575c-28.277 0-51.2-22.923-51.2-51.2v-702.17c0-28.278 22.923-51.2 51.2-51.2h153.6c28.278 0 51.2 22.922 51.2 51.2v702.17c0 28.277-22.922 51.2-51.2 51.2h-153.6zM61.44 898.56h133.12v-645.12h-133.12v645.12zM51.2 960c-28.277 0-51.2-22.923-51.2-51.2v-665.6c0-28.278 22.923-51.2 51.2-51.2h153.6c28.277 0 51.2 22.922 51.2 51.2v665.6c0 28.277-22.923 51.2-51.2 51.2h-153.6z" />
<glyph unicode="&#xe90f;" glyph-name="wms-add-column-right" d="M194.56 679.135h-133.12v-681.69h133.12v681.69zM204.8 740.575c28.277 0 51.2-22.923 51.2-51.2v-702.17c0-28.278-22.923-51.2-51.2-51.2h-153.6c-28.277 0-51.2 22.922-51.2 51.2v702.17c0 28.277 22.923 51.2 51.2 51.2h153.6zM578.56 679.135h-133.12v-681.69h133.12v681.69zM588.8 740.575c28.278 0 51.2-22.923 51.2-51.2v-702.17c0-28.278-22.922-51.2-51.2-51.2h-153.6c-28.277 0-51.2 22.922-51.2 51.2v702.17c0 28.277 22.923 51.2 51.2 51.2h153.6zM962.56 898.56h-133.12v-645.12h133.12v645.12zM972.8 960c28.278 0 51.2-22.923 51.2-51.2v-665.6c0-28.278-22.922-51.2-51.2-51.2h-153.6c-28.278 0-51.2 22.922-51.2 51.2v665.6c0 28.277 22.922 51.2 51.2 51.2h153.6z" />
<glyph unicode="&#xe910;" glyph-name="wms-add-column" d="M926.72 898.56h46.080c28.278 0 51.2-22.923 51.2-51.2v-54.4h-61.44v44.16h-35.84v61.44zM1024 41.6v-54.4c0-28.278-22.922-51.2-51.2-51.2h-46.080v61.44h35.84v44.16h61.44zM1024 141.855h-61.44v108.8h61.44v-108.8zM1024 359.455h-61.44v108.802h61.44v-108.802zM1024 577.056h-61.44v108.8h61.44v-108.8zM650.24 898.56v-61.44h-92.16v61.44h92.16zM465.92 898.56v-61.44h-92.16v61.44h92.16zM281.6 898.56v-61.44h-92.16v61.44h92.16zM97.28 898.56v-61.44h-35.84v-44.16h-61.44v54.4c0 28.277 22.923 51.2 51.2 51.2h46.080zM0 685.856h61.44v-108.8h-61.44v108.8zM0 468.256h61.44v-108.802h-61.44v108.802zM0 250.655h61.44v-108.8h-61.44v108.8zM0 41.6h61.44v-44.16h35.84v-61.44h-46.080c-28.277 0-51.2 22.922-51.2 51.2v54.4zM189.44-64v61.44h92.16v-61.44h-92.16zM373.76-64v61.44h92.16v-61.44h-92.16zM558.080-64v61.44h92.16v-61.44h-92.16zM742.4-64v61.44h92.16v-61.44h-92.16zM288.435 642.543h-81.92v-525.654h81.92v525.654zM298.675 703.983c28.277 0 51.2-22.923 51.2-51.2v-546.134c0-28.278-22.923-51.2-51.2-51.2h-102.4c-28.277 0-51.2 22.922-51.2 51.2v546.134c0 28.277 22.923 51.2 51.2 51.2h102.4zM561.51 642.543h-81.921v-525.654h81.921v525.654zM571.75 703.983c28.278 0 51.2-22.923 51.2-51.2v-546.134c0-28.278-22.922-51.2-51.2-51.2h-102.401c-28.277 0-51.2 22.922-51.2 51.2v546.134c0 28.277 22.923 51.2 51.2 51.2h102.401zM834.56 898.56h-81.92v-525.655h81.92v525.655zM844.8 960c28.278 0 51.2-22.923 51.2-51.2v-546.135c0-28.278-22.922-51.2-51.2-51.2h-102.4c-28.278 0-51.2 22.922-51.2 51.2v546.135c0 28.277 22.922 51.2 51.2 51.2h102.4z" />
<glyph unicode="&#xe911;" glyph-name="wms-add-row-above" d="M280.865 130.56v-133.12h681.69v133.12h-681.69zM219.425 140.8c0 28.278 22.923 51.2 51.199 51.2h702.17c28.278 0 51.2-22.922 51.2-51.2v-153.6c0-28.278-22.922-51.2-51.2-51.2h-702.17c-28.277 0-51.2 22.922-51.2 51.2v153.6zM280.865 514.56v-133.12h681.69v133.12h-681.69zM219.425 524.8c0 28.277 22.923 51.2 51.2 51.2h702.17c28.278 0 51.2-22.923 51.2-51.2v-153.6c0-28.278-22.922-51.2-51.2-51.2h-702.17c-28.277 0-51.2 22.922-51.2 51.2l-0.001 153.6zM61.44 898.56v-133.12h645.12v133.12h-645.12zM0 908.8c0 28.277 22.923 51.2 51.2 51.2h665.6c28.278 0 51.2-22.923 51.2-51.2v-153.6c0-28.277-22.922-51.2-51.2-51.2h-665.6c-28.277 0-51.2 22.923-51.2 51.2v153.6z" />
<glyph unicode="&#xe912;" glyph-name="wms-add-row-below" d="M280.865 765.44v133.12h681.69v-133.12h-681.69zM219.425 755.2c0-28.277 22.923-51.2 51.199-51.2h702.17c28.278 0 51.2 22.923 51.2 51.2v153.6c0 28.277-22.922 51.2-51.2 51.2h-702.17c-28.277 0-51.2-22.923-51.2-51.2v-153.6zM280.865 381.44v133.12h681.69v-133.12h-681.69zM219.425 371.2c0-28.278 22.923-51.2 51.2-51.2h702.17c28.278 0 51.2 22.922 51.2 51.2v153.6c0 28.277-22.922 51.2-51.2 51.2h-702.17c-28.277 0-51.2-22.923-51.2-51.2l-0.001-153.6zM61.44-2.56v133.12h645.12v-133.12h-645.12zM0-12.8c0-28.278 22.923-51.2 51.2-51.2h665.6c28.278 0 51.2 22.922 51.2 51.2v153.6c0 28.278-22.922 51.2-51.2 51.2h-665.6c-28.277 0-51.2-22.922-51.2-51.2v-153.6z" />
<glyph unicode="&#xe913;" glyph-name="wms-add-row" d="M61.44 33.28v-46.080c0-28.278 22.923-51.2 51.2-51.2h54.4v61.44h-44.16v35.84h-61.44zM918.4-64h54.4c28.278 0 51.2 22.922 51.2 51.2v46.080h-61.44v-35.84h-44.16v-61.44zM818.145-64v61.44h-108.8v-61.44h108.8zM600.545-64v61.44h-108.802v-61.44h108.802zM382.944-64v61.44h-108.8v-61.44h108.8zM61.44 309.76h61.44v92.16h-61.44v-92.16zM61.44 494.080h61.44v92.16h-61.44v-92.16zM61.44 678.4h61.44v92.16h-61.44v-92.16zM61.44 862.72h61.44v35.84h44.16v61.44h-54.4c-28.277 0-51.2-22.923-51.2-51.2v-46.080zM274.144 960v-61.44h108.8v61.44h-108.8zM491.744 960v-61.44h108.802v61.44h-108.802zM709.345 960v-61.44h108.8v61.44h-108.8zM918.4 960v-61.44h44.16v-35.84h61.44v46.080c0 28.277-22.922 51.2-51.2 51.2h-54.4zM1024 770.56h-61.44v-92.16h61.44v92.16zM1024 586.24h-61.44v-92.16h61.44v92.16zM1024 401.92h-61.44v-92.16h61.44v92.16zM1024 217.6h-61.44v-92.16h61.44v92.16zM317.457 671.565v81.92h525.654v-81.92h-525.654zM256.017 661.325c0-28.277 22.923-51.2 51.2-51.2h546.134c28.278 0 51.2 22.923 51.2 51.2v102.4c0 28.277-22.922 51.2-51.2 51.2h-546.134c-28.277 0-51.2-22.923-51.2-51.2v-102.4zM317.457 398.49v81.921h525.654v-81.921h-525.654zM256.017 388.25c0-28.278 22.923-51.2 51.2-51.2h546.134c28.278 0 51.2 22.922 51.2 51.2v102.401c0 28.277-22.922 51.2-51.2 51.2h-546.134c-28.277 0-51.2-22.923-51.2-51.2v-102.401zM61.44 125.44v81.92h525.655v-81.92h-525.655zM0 115.2c0-28.278 22.923-51.2 51.2-51.2h546.135c28.278 0 51.2 22.922 51.2 51.2v102.4c0 28.278-22.922 51.2-51.2 51.2h-546.135c-28.277 0-51.2-22.922-51.2-51.2v-102.4z" />
<glyph unicode="&#xe914;" glyph-name="wms-add-variable" d="M303.799 220.444c-33.712 0-58.995 11.236-75.852 33.712-2.809 4.915 9.482 23.529 36.873 55.836l14.749 17.909c6.321 7.020 11.588 10.536 15.803 10.536 3.511 0 6.321-1.758 8.428-5.268 7.024-7.026 12.642-12.294 16.856-15.804 4.916-2.81 11.237-4.215 18.963-4.215 12.642 0 24.582 5.973 35.819 17.909 11.237 12.646 26.338 34.418 45.301 65.319l41.086 67.424-37.926 130.633c-4.916 16.856-9.832 28.444-14.748 34.765-4.214 6.321-9.482 9.482-15.803 9.482-7.726 0-14.398-3.863-20.016-11.588-4.916-7.726-11.238-20.368-18.963-37.926-4.214-9.833-7.726-16.505-10.535-20.016s-6.321-5.267-10.535-5.267c-7.726 0-11.588 5.618-11.588 16.856 0 17.559 4.565 38.277 13.695 62.157 9.833 24.582 23.528 45.651 41.086 63.21s37.575 26.337 60.050 26.337c21.772 0 39.33-10.886 52.675-32.658 14.047-21.070 29.147-60.050 45.301-116.939l11.588 16.856c31.603 45.652 58.642 79.012 81.119 100.082 23.177 21.772 46.706 32.658 70.582 32.658 11.241 0 22.477-2.458 33.712-7.375 11.241-4.214 21.072-9.482 29.503-15.803 2.105-2.107 3.157-3.863 3.157-5.267 0-3.512-2.81-9.13-8.425-16.856-10.536-15.451-23.529-31.254-38.98-47.407-14.751-16.154-24.229-24.231-28.444-24.231-0.705 0-3.163 1.405-7.373 4.214-3.516 3.512-8.784 5.267-15.804 5.267-11.941 0-24.934-7.375-38.98-22.124-13.346-14.046-33.36-40.735-60.050-80.065l-11.588-18.963c13.344-65.317 29.495-117.639 48.462-156.972 8.425-21.771 18.261-32.66 29.497-32.66 7.026 0 12.993 3.516 17.909 10.536 5.621 7.726 12.641 20.372 21.072 37.928 4.915 9.131 8.778 15.451 11.588 18.961 2.81 4.215 6.32 6.32 10.536 6.32 4.21 0 7.020-1.399 8.425-4.21 1.405-2.111 2.111-7.026 2.111-14.751 0-18.961-5.268-40.385-15.804-64.262-10.536-23.177-24.582-43.196-42.143-60.052-16.856-16.151-34.765-24.229-53.726-24.229s-36.171 9.83-51.622 29.497c-14.749 19.666-31.254 56.189-49.514 109.562l-6.321 18.967-6.321-10.536c-31.605-51.974-61.103-89.549-88.494-112.725s-56.186-34.765-86.387-34.765zM512-7.111c-251.351 0-455.111 203.759-455.111 455.111s203.76 455.111 455.111 455.111c251.352 0 455.111-203.76 455.111-455.111s-203.759-455.111-455.111-455.111zM512-64c282.772 0 512 229.228 512 512 0 282.77-229.228 512-512 512-282.77 0-512-229.23-512-512 0-282.772 229.23-512 512-512z" />
<glyph unicode="&#xe915;" glyph-name="wms-add" d="M0 448c0 24.026 19.477 43.503 43.503 43.503h936.994c24.030 0 43.503-19.476 43.503-43.503s-19.473-43.503-43.503-43.503h-936.994c-24.026 0-43.503 19.476-43.503 43.503zM512-64c-24.026 0-43.503 19.473-43.503 43.503v936.994c0 24.026 19.476 43.503 43.503 43.503s43.503-19.477 43.503-43.503v-936.994c0-24.030-19.476-43.503-43.503-43.503z" />
<glyph unicode="&#xe916;" glyph-name="wms-adjust-2" d="M910.222 903.104c31.42 0 56.889-25.47 56.889-56.889v-796.443c0-31.42-25.469-56.889-56.889-56.889h-796.444c-31.419 0-56.889 25.469-56.889 56.889v796.443c0 31.419 25.47 56.889 56.889 56.889h796.444zM113.778 959.993c-62.838 0-113.778-50.94-113.778-113.778v-796.443c0-62.839 50.94-113.778 113.778-113.778h796.444c62.839 0 113.778 50.938 113.778 113.778v796.443c0 62.838-50.938 113.778-113.778 113.778h-796.444zM643.271 817.771c59.216 0 107.213-48.001 107.213-107.214s-47.997-107.213-107.213-107.213c-59.21 0-107.213 48.001-107.213 107.213s48.003 107.214 107.213 107.214zM693.595 710.557c0 27.794-22.528 50.325-50.324 50.325-27.79 0-50.324-22.531-50.324-50.325s22.534-50.324 50.324-50.324c27.796 0 50.324 22.531 50.324 50.324zM592.947 710.557c0-15.709-12.715-28.424-28.426-28.424h-393.846c-15.709 0-28.444 12.735-28.444 28.444s12.735 28.444 28.444 28.444h393.846c15.711 0 28.426-12.755 28.426-28.465zM881.778 710.577c0-15.709-12.737-28.444-28.444-28.444h-131.282c-15.707 0-28.456 12.715-28.456 28.424s12.749 28.465 28.456 28.465h131.282c15.707 0 28.444-12.735 28.444-28.444zM643.271 292.602c59.216 0 107.213-48.003 107.213-107.213s-47.997-107.213-107.213-107.213c-59.21 0-107.213 48.003-107.213 107.213s48.003 107.213 107.213 107.213zM693.595 185.39c0 27.79-22.528 50.324-50.324 50.324-27.79 0-50.324-22.534-50.324-50.324 0-27.796 22.534-50.324 50.324-50.324 27.796 0 50.324 22.528 50.324 50.324zM881.778 185.407c0-15.707-12.737-28.444-28.444-28.444h-131.282c-15.707 0-28.456 12.715-28.456 28.427 0 15.707 12.749 28.462 28.456 28.462h131.282c15.707 0 28.444-12.732 28.444-28.444zM592.947 185.39c0-15.713-12.715-28.427-28.426-28.427h-393.846c-15.709 0-28.444 12.737-28.444 28.444 0 15.713 12.735 28.444 28.444 28.444h393.846c15.711 0 28.426-12.754 28.426-28.462zM512.002 555.187c59.214 0 107.211-48.001 107.211-107.214 0-59.211-47.997-107.214-107.211-107.214-59.213 0-107.213 48.003-107.213 107.214 0 59.213 48.001 107.214 107.213 107.214zM562.327 447.973c0 27.794-22.531 50.325-50.325 50.325s-50.325-22.531-50.325-50.325c0-27.794 22.531-50.324 50.325-50.324s50.325 22.531 50.325 50.324zM881.778 447.993c0-15.709-12.737-28.444-28.444-28.444h-262.565c-15.707 0-28.442 12.715-28.442 28.424s12.735 28.465 28.442 28.465h262.565c15.707 0 28.444-12.735 28.444-28.444zM461.677 447.973c0-15.709-12.738-28.424-28.447-28.424h-262.564c-15.709 0-28.444 12.735-28.444 28.444s12.735 28.444 28.444 28.444h262.564c15.709 0 28.447-12.756 28.447-28.465z" />
<glyph unicode="&#xe917;" glyph-name="wms-adjust" d="M512-7.111c-251.351 0-455.111 203.759-455.111 455.111s203.76 455.111 455.111 455.111c251.352 0 455.111-203.76 455.111-455.111s-203.759-455.111-455.111-455.111zM512-64c282.772 0 512 229.228 512 512 0 282.77-229.228 512-512 512-282.77 0-512-229.23-512-512 0-282.772 229.23-512 512-512zM512 248.889c-109.966 0-199.111 89.145-199.111 199.111s89.145 199.111 199.111 199.111c109.966 0 199.111-89.145 199.111-199.111s-89.145-199.111-199.111-199.111zM512 192c141.386 0 256 114.614 256 256s-114.614 256-256 256c-141.385 0-256-114.615-256-256s114.615-256 256-256z" />
<glyph unicode="&#xe918;" glyph-name="wms-align-center" d="M35.556 886.861c0 15.709 12.735 28.444 28.444 28.444h911.36c15.707 0 28.444-12.735 28.444-28.444s-12.737-28.444-28.444-28.444h-911.36c-15.709 0-28.444 12.735-28.444 28.444zM163.556 594.29c0 15.709 12.735 28.444 28.444 28.444h652.863c15.707 0 28.444-12.735 28.444-28.444s-12.737-28.444-28.444-28.444h-652.863c-15.709 0-28.444 12.735-28.444 28.444zM35.556 9.148c0 15.707 12.735 28.444 28.444 28.444h911.36c15.707 0 28.444-12.737 28.444-28.444 0-15.713-12.737-28.444-28.444-28.444h-911.36c-15.709 0-28.444 12.732-28.444 28.444zM163.556 301.716c0 15.713 12.735 28.444 28.444 28.444h652.863c15.707 0 28.444-12.732 28.444-28.444 0-15.707-12.737-28.444-28.444-28.444h-652.863c-15.709 0-28.444 12.737-28.444 28.444z" />
<glyph unicode="&#xe919;" glyph-name="wms-align-content-bottom" d="M56.889 21.333c0 15.707 12.735 28.444 28.444 28.444h853.333c15.707 0 28.444-12.737 28.444-28.444s-12.737-28.444-28.444-28.444h-853.333c-15.709 0-28.444 12.737-28.444 28.444zM625.778 192c0-7.856 6.366-14.222 14.222-14.222h128c7.856 0 14.222 6.366 14.222 14.222v341.333c0 7.855-6.366 14.222-14.222 14.222h-128c-7.856 0-14.222-6.368-14.222-14.222v-341.333zM640 120.889c-39.276 0-71.111 31.835-71.111 71.111v341.333c0 39.274 31.835 71.111 71.111 71.111h128c39.276 0 71.111-31.837 71.111-71.111v-341.333c0-39.276-31.835-71.111-71.111-71.111h-128zM284.444 192c0-7.856 6.368-14.222 14.222-14.222h128c7.855 0 14.222 6.366 14.222 14.222v597.333c0 7.855-6.367 14.222-14.222 14.222h-128c-7.855 0-14.222-6.368-14.222-14.222v-597.333zM298.667 120.889c-39.273 0-71.111 31.835-71.111 71.111v597.333c0 39.274 31.838 71.111 71.111 71.111h128c39.274 0 71.112-31.837 71.112-71.111v-597.333c0-39.276-31.838-71.111-71.112-71.111h-128z" />
<glyph unicode="&#xe91a;" glyph-name="wms-align-content-center" d="M284.444 448c0-15.709-12.735-28.444-28.444-28.444h-170.667c-15.709 0-28.444 12.735-28.444 28.444s12.735 28.444 28.444 28.444h170.667c15.709 0 28.444-12.735 28.444-28.444zM625.778 448c0-15.709-12.737-28.444-28.444-28.444h-128c-15.709 0-28.444 12.735-28.444 28.444s12.735 28.444 28.444 28.444h128c15.707 0 28.444-12.735 28.444-28.444zM967.111 448c0-15.709-12.737-28.444-28.444-28.444h-128c-15.707 0-28.444 12.735-28.444 28.444s12.737 28.444 28.444 28.444h128c15.707 0 28.444-12.735 28.444-28.444zM782.222 618.667c0 7.855-6.366 14.222-14.222 14.222h-128c-7.856 0-14.222-6.368-14.222-14.222v-341.333c0-7.856 6.366-14.222 14.222-14.222h128c7.856 0 14.222 6.366 14.222 14.222v341.333zM768 689.778c39.276 0 71.111-31.837 71.111-71.111v-341.333c0-39.276-31.835-71.111-71.111-71.111h-128c-39.276 0-71.111 31.835-71.111 71.111v341.333c0 39.274 31.835 71.111 71.111 71.111h128zM440.889 746.667c0 7.855-6.368 14.222-14.222 14.222h-128c-7.855 0-14.222-6.368-14.222-14.222v-597.333c0-7.856 6.368-14.222 14.222-14.222h128c7.855 0 14.222 6.366 14.222 14.222v597.333zM426.667 817.778c39.274 0 71.111-31.837 71.111-71.111v-597.333c0-39.276-31.837-71.111-71.111-71.111h-128c-39.274 0-71.111 31.835-71.111 71.111v597.333c0 39.274 31.837 71.111 71.111 71.111h128z" />
<glyph unicode="&#xe91b;" glyph-name="wms-align-content-left" d="M85.333-7.111c15.709 0 28.444 12.737 28.444 28.444v853.333c0 15.709-12.735 28.445-28.444 28.445s-28.444-12.735-28.444-28.445v-853.333c0-15.707 12.735-28.444 28.444-28.444zM256 561.778c-7.855 0-14.222 6.367-14.222 14.222v128c0 7.855 6.368 14.222 14.222 14.222h341.333c7.856 0 14.222-6.368 14.222-14.222v-128c0-7.855-6.366-14.222-14.222-14.222h-341.333zM184.889 576.001c0-39.274 31.837-71.111 71.111-71.111h341.333c39.276-0.001 71.111 31.837 71.111 71.111v128c0 39.274-31.835 71.112-71.111 71.112h-341.333c-39.274 0-71.111-31.838-71.111-71.111v-128zM256 220.444c-7.855 0-14.222 6.366-14.222 14.222v128c0 7.856 6.368 14.222 14.222 14.222h597.333c7.856 0 14.222-6.366 14.222-14.222v-128c0-7.856-6.366-14.222-14.222-14.222h-597.333zM184.889 234.667c0-39.276 31.837-71.111 71.111-71.111h597.333c39.276 0 71.111 31.835 71.111 71.111v128c0 39.274-31.835 71.112-71.111 71.112h-597.333c-39.274 0-71.111-31.838-71.111-71.112v-128z" />
<glyph unicode="&#xe91c;" glyph-name="wms-align-content-middle" d="M512 220.444c15.709 0 28.444-12.737 28.444-28.444v-170.667c0-15.707-12.735-28.444-28.444-28.444s-28.444 12.737-28.444 28.444v170.667c0 15.707 12.735 28.444 28.444 28.444zM512 561.778c15.709 0 28.444-12.735 28.444-28.444v-128c0-15.707-12.735-28.444-28.444-28.444s-28.444 12.737-28.444 28.444v128c0 15.709 12.735 28.444 28.444 28.444zM512 903.111c15.709 0 28.444-12.735 28.444-28.444v-128c0-15.709-12.735-28.444-28.444-28.444s-28.444 12.735-28.444 28.444v128c0 15.709 12.735 28.444 28.444 28.444zM341.333 718.222c-7.855 0-14.222-6.368-14.222-14.222v-128c0-7.855 6.368-14.222 14.222-14.222h341.333c7.856 0 14.222 6.368 14.222 14.222v128c0 7.855-6.366 14.222-14.222 14.222h-341.333zM270.222 704c0 39.274 31.837 71.111 71.111 71.111h341.333c39.276 0 71.111-31.837 71.111-71.111v-128c0-39.274-31.835-71.111-71.111-71.111h-341.333c-39.274 0-71.111 31.837-71.111 71.111v128zM213.333 376.889c-7.855 0-14.222-6.366-14.222-14.222v-128c0-7.856 6.368-14.222 14.222-14.222h597.333c7.856 0 14.222 6.366 14.222 14.222v128c0 7.856-6.366 14.222-14.222 14.222h-597.333zM142.222 362.667c0 39.274 31.837 71.111 71.111 71.111h597.333c39.276 0 71.111-31.837 71.111-71.111v-128c0-39.276-31.835-71.111-71.111-71.111h-597.333c-39.274 0-71.111 31.835-71.111 71.111v128z" />
<glyph unicode="&#xe91d;" glyph-name="wms-align-content-right" d="M938.667-7.111c-15.707 0-28.444 12.737-28.444 28.444v853.333c0 15.709 12.737 28.445 28.444 28.445s28.444-12.735 28.444-28.445v-853.333c0-15.707-12.737-28.444-28.444-28.444zM768 561.778c7.856 0 14.222 6.367 14.222 14.222v128c0 7.855-6.366 14.222-14.222 14.222h-341.333c-7.855 0-14.222-6.368-14.222-14.222v-128c0-7.855 6.368-14.222 14.222-14.222h341.333zM839.111 576.001c0-39.274-31.835-71.111-71.111-71.111h-341.333c-39.274-0.001-71.111 31.837-71.111 71.111v128c0 39.274 31.837 71.112 71.111 71.112h341.333c39.276 0 71.111-31.838 71.111-71.111v-128zM768 220.444c7.856 0 14.222 6.366 14.222 14.222v128c0 7.856-6.366 14.222-14.222 14.222h-597.333c-7.855 0-14.222-6.366-14.222-14.222v-128c0-7.856 6.368-14.222 14.222-14.222h597.333zM839.111 234.667c0-39.276-31.835-71.111-71.111-71.111h-597.333c-39.274 0-71.111 31.835-71.111 71.111v128c0 39.274 31.837 71.112 71.111 71.112h597.333c39.276 0 71.111-31.838 71.111-71.112v-128z" />
<glyph unicode="&#xe91e;" glyph-name="wms-align-content-top" d="M56.889 874.667c0-15.709 12.735-28.444 28.444-28.444h853.333c15.707 0 28.444 12.735 28.444 28.444s-12.737 28.444-28.444 28.444h-853.333c-15.709 0-28.444-12.735-28.444-28.444zM625.778 704c0 7.855 6.366 14.222 14.222 14.222h128c7.856 0 14.222-6.368 14.222-14.222v-341.333c0-7.856-6.366-14.222-14.222-14.222h-128c-7.856 0-14.222 6.366-14.222 14.222v341.333zM640 775.111c-39.276 0-71.111-31.837-71.111-71.111v-341.333c0-39.276 31.835-71.111 71.111-71.111h128c39.276 0 71.111 31.835 71.111 71.111v341.333c0 39.274-31.835 71.111-71.111 71.111h-128zM284.444 704c0 7.855 6.368 14.222 14.222 14.222h128c7.855 0 14.222-6.368 14.222-14.222v-597.333c0-7.856-6.367-14.222-14.222-14.222h-128c-7.855 0-14.222 6.366-14.222 14.222v597.333zM298.667 775.111c-39.273 0-71.111-31.837-71.111-71.111v-597.333c0-39.276 31.838-71.111 71.111-71.111h128c39.274 0 71.112 31.835 71.112 71.111v597.333c0 39.274-31.838 71.111-71.112 71.111h-128z" />
<glyph unicode="&#xe91f;" glyph-name="wms-align-justify" d="M3.556 832c0 15.709 12.735 28.444 28.444 28.444h960c15.707 0 28.444-12.735 28.444-28.444s-12.737-28.444-28.444-28.444h-960c-15.709 0-28.444 12.735-28.444 28.444zM3.556 644.271c0 15.71 12.735 28.444 28.444 28.444h960c15.707 0 28.444-12.735 28.444-28.444s-12.737-28.444-28.444-28.444h-960c-15.709 0-28.444 12.735-28.444 28.444zM3.556 448c0 15.709 12.735 28.444 28.444 28.444h960c15.707 0 28.444-12.735 28.444-28.444s-12.737-28.444-28.444-28.444h-960c-15.709 0-28.444 12.735-28.444 28.444zM3.556 260.272c0 15.707 12.735 28.444 28.444 28.444h960c15.707 0 28.444-12.737 28.444-28.444 0-15.713-12.737-28.444-28.444-28.444h-960c-15.709 0-28.444 12.732-28.444 28.444zM3.556 64c0 15.707 12.735 28.444 28.444 28.444h960c15.707 0 28.444-12.737 28.444-28.444s-12.737-28.444-28.444-28.444h-960c-15.709 0-28.444 12.737-28.444 28.444z" />
<glyph unicode="&#xe920;" glyph-name="wms-align-left" d="M-7.111 0.085c0 15.707 12.735 28.444 28.444 28.444h981.333c15.707 0 28.444-12.737 28.444-28.444 0-15.713-12.737-28.444-28.444-28.444h-981.333c-15.709 0-28.444 12.732-28.444 28.444zM-7.111 853.416c0 15.71 12.735 28.444 28.444 28.444h853.333c15.707 0 28.444-12.735 28.444-28.444s-12.737-28.444-28.444-28.444h-853.333c-15.709 0-28.444 12.735-28.444 28.444zM-7.111 640.083c0 15.71 12.735 28.444 28.444 28.444h682.667c15.707 0 28.444-12.735 28.444-28.444s-12.737-28.444-28.444-28.444h-682.667c-15.709 0-28.444 12.735-28.444 28.444zM-7.111 426.75c0 15.71 12.735 28.444 28.444 28.444h981.333c15.707 0 28.444-12.735 28.444-28.444s-12.737-28.444-28.444-28.444h-981.333c-15.709 0-28.444 12.735-28.444 28.444zM-7.111 213.419c0 15.707 12.735 28.444 28.444 28.444h810.667c15.707 0 28.444-12.737 28.444-28.444 0-15.713-12.737-28.444-28.444-28.444h-810.667c-15.709 0-28.444 12.732-28.444 28.444z" />
<glyph unicode="&#xe921;" glyph-name="wms-align-right" d="M1031.111 0.085c0 15.707-12.737 28.444-28.444 28.444h-981.333c-15.709 0-28.444-12.737-28.444-28.444 0-15.713 12.735-28.444 28.444-28.444h981.333c15.707 0 28.444 12.732 28.444 28.444zM1031.111 853.416c0 15.71-12.737 28.444-28.444 28.444h-853.333c-15.709 0-28.444-12.735-28.444-28.444s12.735-28.444 28.444-28.444h853.333c15.707 0 28.444 12.735 28.444 28.444zM1031.111 640.083c0 15.71-12.737 28.444-28.444 28.444h-682.667c-15.709 0-28.444-12.735-28.444-28.444s12.735-28.444 28.444-28.444h682.667c15.707 0 28.444 12.735 28.444 28.444zM1031.111 426.75c0 15.71-12.737 28.444-28.444 28.444h-981.333c-15.709 0-28.444-12.735-28.444-28.444s12.735-28.444 28.444-28.444h981.333c15.707 0 28.444 12.735 28.444 28.444zM1031.111 213.419c0 15.707-12.737 28.444-28.444 28.444h-810.667c-15.709 0-28.444-12.737-28.444-28.444 0-15.713 12.735-28.444 28.444-28.444h810.667c15.707 0 28.444 12.732 28.444 28.444z" />
<glyph unicode="&#xe922;" glyph-name="wms-all-out" d="M512 339.888c-28.444 0-56.889 11.378-73.956 34.133-22.756 17.067-34.133 45.512-34.133 73.956s11.378 56.889 34.133 73.956c39.822 39.822 113.778 39.822 153.6 0 17.067-17.067 28.444-45.511 28.444-73.956s-11.378-56.889-34.133-73.956c-17.067-22.756-45.511-34.133-73.956-34.133zM512 499.178c-11.378 0-28.444-5.689-34.133-17.067-11.378-5.689-17.067-22.756-17.067-34.133s5.689-28.444 17.067-34.133c17.067-17.067 51.2-17.067 73.956 0 5.689 5.689 11.378 22.756 11.378 34.133s-5.689 28.444-17.067 34.133c-5.689 11.378-22.756 17.067-34.133 17.067zM790.756 260.244c-5.689 0-11.378 0-17.067 5.689s-17.067 11.378-22.756 17.067c-5.689 5.689-5.689 17.067-5.689 28.444v273.067c0 11.378 0 17.067 5.689 28.444 5.689 5.689 11.378 17.067 22.756 17.067 11.378 5.689 17.067 5.689 28.444 5.689s17.067-5.689 22.756-11.378l159.289-136.533c5.689-5.689 11.378-11.378 11.378-17.067s5.689-11.378 5.689-17.067c0-5.689 0-11.378-5.689-17.067 0-5.689-5.689-11.378-11.378-17.067l-159.289-136.534c-5.689-5.689-17.067-11.378-22.756-11.378-5.689-11.378-11.378-11.378-11.378-11.378zM796.444 567.444v-238.934l136.533 119.467-136.533 119.467zM233.244 260.244h-5.689c-11.378 0-17.067 5.689-22.756 11.378l-159.289 142.223c-5.689 5.689-11.378 5.689-11.378 17.067 0 5.689-5.689 11.378-5.689 17.067s0 11.378 5.689 17.067c0 5.689 5.689 11.378 11.378 17.067l159.289 136.533c5.689 11.378 11.378 11.378 22.756 17.067 11.378 0 17.067 0 28.444-5.689 5.689-5.689 17.067-11.378 17.067-17.067 5.689-5.689 11.378-17.067 11.378-28.444v-278.756c0-11.378 0-17.067-5.689-28.444-5.689-5.689-11.378-11.378-22.756-17.067-5.689 0-17.067 0-22.756 0zM91.022 447.978l136.533-119.467v238.934l-136.533-119.467zM648.533 675.533h-273.067c-11.378 0-17.067 0-28.444 5.689-5.689 5.689-11.378 17.067-17.067 22.756-5.689 11.378-5.689 17.067-5.689 28.444s5.689 17.067 11.378 22.756l136.533 159.289c5.689 5.689 11.378 11.378 17.067 11.378 11.378 5.689 28.444 5.689 39.822 0 5.689 0 11.378-5.689 17.067-11.378l136.533-159.289c5.689-5.689 11.378-17.067 11.378-22.756 0-11.378 0-17.067-5.689-28.444s-11.378-17.067-17.067-22.756c0 0-11.378-5.689-22.756-5.689zM392.533 732.422h238.933l-119.467 136.533-119.467-136.533zM512-35.578c-5.689 0-11.378 0-17.067 5.689-5.689 0-11.378 5.689-17.067 11.378l-136.533 159.289c-5.689 5.689-11.378 17.067-11.378 22.756 0 11.378 0 17.067 5.689 28.444 5.689 5.689 11.378 17.067 17.067 22.756 0 0 11.378 5.689 22.756 5.689h278.756c11.378 0 17.067 0 28.444-5.689 5.689-5.689 17.067-11.378 17.067-22.756 5.689-11.378 5.689-17.067 5.689-28.444s-5.689-17.067-11.378-22.756l-136.533-159.289c-5.689-5.689-11.378-11.378-17.067-11.378-17.067-5.689-22.756-5.689-28.444-5.689zM392.533 163.533l119.467-136.533 119.467 136.533h-238.933z" />
<glyph unicode="&#xe923;" glyph-name="wms-analytics" d="M36.556 951.889c15.709 0 28.445-12.735 28.445-28.444v-922.415h922.415c15.707 0 28.444-12.732 28.444-28.444 0-15.707-12.737-28.444-28.444-28.444h-950.859c-15.709 0-28.444 12.737-28.444 28.444v950.859c0 15.709 12.735 28.444 28.444 28.444zM625.254 640.016c0 15.709 12.732 28.444 28.444 28.444h219.426c15.713 0 28.444-12.735 28.444-28.444v-219.428c0-15.71-12.732-28.444-28.444-28.444-15.707 0-28.444 12.735-28.444 28.444v190.984h-190.982c-15.713 0-28.444 12.735-28.444 28.444zM893.241 660.129c11.11-11.108 11.11-29.118 0-40.226l-310.147-310.143c-10.439-10.24-24.484-15.974-39.11-15.974s-28.667 5.734-39.111 15.974l-0.203 0.199-125.257 125.259-199.315-199.316c-11.108-11.105-29.118-11.105-40.226 0-11.108 11.11-11.108 29.121 0 40.226l200.43 200.432c10.444 10.237 24.487 15.971 39.112 15.971s28.667-5.735 39.112-15.972l0.203-0.199 125.257-125.257 309.031 309.028c11.105 11.108 29.116 11.108 40.226 0z" />
<glyph unicode="&#xe924;" glyph-name="wms-android" d="M682.667-29.872c-11.378 0-22.756 0-34.133 0-45.511 5.689-79.644 39.822-79.644 91.022 0 11.378 0 22.756 0 39.822-34.13 0-79.642 0-113.775 0 0-17.067 0-28.444 0-39.822 0-51.2-34.133-85.333-79.644-91.022-17.067 0-45.511 0-62.578 0-45.511 5.689-79.644 39.822-79.644 91.022 0 17.067 0 34.133 0 56.889-34.133 17.067-62.578 51.2-79.644 85.333-11.378 0-28.444 0-39.822 0-51.2 5.689-96.711 45.511-96.711 96.711 0 22.756 0 51.2 0 85.333v28.444c0 85.333 56.889 147.911 130.845 159.289 5.689 91.022 39.822 164.978 96.711 227.556l-73.956 73.956c-11.378 11.378-11.378 28.444 0 39.822s28.444 11.378 39.822 0l68.267-68.267c62.578 51.2 142.222 79.645 233.244 79.645 91.019 0 170.664-28.445 233.242-79.645l68.267 68.267c11.378 11.378 28.444 11.378 39.822 0s11.378-28.445 0-39.822l-68.267-68.267c56.889-56.889 91.022-136.533 96.711-227.556 73.956-11.378 130.844-79.644 130.844-159.289v-28.444c0-34.133 0-62.578 0-85.333 0-51.2-45.511-96.711-96.711-96.711-11.378 0-22.756 0-39.822 0-11.378-39.822-39.822-68.267-79.644-85.333 0-22.756 0-39.822 0-56.889 0-51.2-34.133-85.333-79.644-91.022-11.378-5.689-22.756-5.689-34.133-5.689zM597.333 157.861c5.689 0 17.067-5.689 17.067-5.689 5.689-5.689 11.378-11.378 11.378-22.756 0-28.444 0-45.511 0-68.267 0-17.067 11.378-34.133 28.444-34.133s39.822 0 56.889 0c17.067 0 28.444 17.067 28.444 34.133s0 45.511 0 73.956c0 11.378 11.378 22.756 22.756 28.444 39.822 11.378 62.578 45.511 62.578 91.022v273.067h-625.775v-273.067c0-39.822 28.444-79.644 62.578-91.022 17.067 0 22.756-11.378 22.756-22.756 0-28.444 0-56.889 0-73.956s11.378-34.133 28.444-34.133c17.067 0 39.822 0 56.889 0s28.444 17.067 28.444 28.444c0 17.067 0 39.822 0 68.267 0 5.689 5.689 17.067 11.378 22.756s11.378 5.689 22.756 5.689c45.511 0 113.778 0 164.975 0zM142.225 521.95c-39.822-11.378-68.267-51.2-68.267-102.4v-28.444c0-34.133 0-62.578 0-85.333s17.067-45.511 39.822-45.511c5.689 0 17.067 0 28.444 0v261.689zM881.778 521.95v-256c11.378 0 17.067 0 28.444 0 22.756 0 39.828 17.067 39.828 45.511 0 22.756 0 51.2 0 85.333v28.444c0 45.511-28.45 85.333-68.272 96.711zM199.114 584.528h620.086c-17.067 164.978-142.222 284.444-312.886 284.444-170.667 0-290.133-119.467-307.2-284.444zM620.089 652.794c-17.067 0-28.444 11.378-28.444 28.444v22.756c0 17.067 11.378 28.444 28.444 28.444s28.444-11.378 28.444-28.444v-22.756c0-17.067-11.378-28.444-28.444-28.444zM403.914 652.794c-17.067 0-28.444 11.378-28.444 28.444v22.756c0 17.067 11.378 28.444 28.444 28.444s28.444-11.378 28.444-28.444v-22.756c0-17.067-11.378-28.444-28.444-28.444z" />
<glyph unicode="&#xe925;" glyph-name="wms-angle-double-down" d="M512 173.354l371.939 353.062c25.635 24.335 66.144 23.281 90.478-2.355 24.335-25.636 23.281-66.144-2.355-90.479l-396.366-376.252c-0.012-0.010-0.024-0.022-0.036-0.033-8.648-8.212-18.737-14.564-29.61-18.844-10.885-4.284-22.446-6.452-34.049-6.452s-23.165 2.168-34.049 6.452c-10.875 4.28-20.963 10.632-29.61 18.844-0.003 0.003-0.005 0.005-0.008 0.006-0.009 0.009-0.019 0.018-0.028 0.027l-396.367 376.252c-25.635 24.335-26.69 64.844-2.356 90.479s64.844 26.691 90.479 2.355l371.939-353.062zM512 560.005l370.117 380.613c24.641 25.34 65.16 25.907 90.501 1.265s25.906-65.16 1.265-90.501l-396.367-407.607c-0.005-0.005-0.009-0.009-0.013-0.013-0.008-0.008-0.014-0.015-0.022-0.023-8.424-8.667-18.523-15.642-29.769-20.438-11.265-4.804-23.406-7.301-35.712-7.301s-24.447 2.497-35.712 7.301c-11.246 4.796-21.345 11.771-29.769 20.438-0.008 0.008-0.015 0.015-0.022 0.023-0.004 0.004-0.009 0.008-0.013 0.013l-396.368 407.607c-24.642 25.341-24.075 65.859 1.265 90.501s65.859 24.075 90.501-1.265l370.117-380.613z" />
<glyph unicode="&#xe926;" glyph-name="wms-angle-double-left" d="M237.354 448.063l353.062-371.939c24.335-25.636 23.281-66.144-2.355-90.479-25.636-24.334-66.144-23.279-90.479 2.356l-376.252 396.366c-0.011 0.012-0.022 0.023-0.033 0.036-8.213 8.648-14.564 18.735-18.845 29.61-4.285 10.884-6.453 22.446-6.453 34.049s2.168 23.164 6.453 34.049c4.28 10.874 10.632 20.963 18.845 29.61 0.002 0.003 0.004 0.005 0.006 0.008 0.009 0.009 0.018 0.018 0.027 0.028l376.252 396.366c24.335 25.635 64.844 26.69 90.479 2.356s26.691-64.844 2.355-90.479l-353.062-371.939zM624.005 448.063l380.613-370.117c25.34-24.641 25.906-65.16 1.265-90.501s-65.16-25.907-90.501-1.265l-407.607 396.367c-0.005 0.004-0.009 0.009-0.013 0.013-0.008 0.008-0.015 0.014-0.023 0.022-8.666 8.424-15.642 18.523-20.438 29.769-4.804 11.265-7.301 23.406-7.301 35.712s2.497 24.447 7.301 35.712c4.796 11.246 11.772 21.345 20.438 29.769 0.008 0.008 0.015 0.014 0.023 0.022 0.004 0.004 0.008 0.008 0.013 0.013l407.607 396.367c25.341 24.642 65.86 24.075 90.501-1.265s24.076-65.859-1.265-90.501l-380.613-370.117z" />
<glyph unicode="&#xe927;" glyph-name="wms-angle-double-right" d="M786.646 448.063l-353.062-371.939c-24.335-25.636-23.281-66.144 2.355-90.479 25.636-24.334 66.144-23.279 90.479 2.356l376.252 396.366c0.010 0.012 0.022 0.023 0.033 0.036 8.212 8.648 14.564 18.735 18.844 29.61 4.284 10.884 6.452 22.446 6.452 34.049s-2.168 23.164-6.452 34.049c-4.28 10.874-10.632 20.963-18.844 29.61-0.003 0.003-0.005 0.005-0.006 0.008-0.009 0.009-0.018 0.018-0.027 0.028l-376.252 396.366c-24.335 25.635-64.844 26.69-90.479 2.356s-26.691-64.844-2.355-90.479l353.062-371.939zM399.995 448.063l-380.613-370.117c-25.34-24.641-25.907-65.16-1.265-90.501s65.16-25.907 90.501-1.265l407.607 396.367c0.005 0.004 0.009 0.009 0.013 0.013 0.008 0.008 0.015 0.014 0.023 0.022 8.666 8.424 15.642 18.523 20.438 29.769 4.804 11.265 7.301 23.406 7.301 35.712s-2.497 24.447-7.301 35.712c-4.796 11.246-11.772 21.345-20.438 29.769-0.008 0.008-0.015 0.014-0.023 0.022-0.004 0.004-0.008 0.008-0.013 0.013l-407.607 396.367c-25.341 24.642-65.859 24.075-90.501-1.265s-24.075-65.859 1.265-90.501l380.613-370.117z" />
<glyph unicode="&#xe928;" glyph-name="wms-angle-double-up" d="M512 722.646l-371.939-353.062c-25.635-24.335-66.144-23.281-90.479 2.355s-23.28 66.144 2.356 90.479l396.366 376.252c0.012 0.011 0.024 0.022 0.036 0.033 8.648 8.213 18.737 14.564 29.61 18.845 10.885 4.285 22.446 6.453 34.049 6.453s23.165-2.168 34.049-6.453c10.875-4.28 20.963-10.632 29.61-18.845 0.003-0.002 0.005-0.004 0.008-0.006 0.009-0.009 0.019-0.018 0.028-0.027l396.366-376.252c25.636-24.335 26.691-64.844 2.356-90.479s-64.844-26.691-90.479-2.355l-371.939 353.062zM512 335.995l-370.117-380.613c-24.641-25.34-65.16-25.906-90.5-1.265s-25.907 65.16-1.265 90.501l396.367 407.607c0.005 0.005 0.009 0.009 0.013 0.013 0.008 0.008 0.014 0.015 0.022 0.023 8.424 8.667 18.523 15.642 29.769 20.438 11.265 4.804 23.406 7.301 35.712 7.301s24.447-2.497 35.712-7.301c11.246-4.796 21.345-11.771 29.769-20.438 0.008-0.008 0.015-0.015 0.022-0.023 0.004-0.004 0.009-0.008 0.013-0.013l396.367-407.607c24.643-25.341 24.076-65.86-1.265-90.501s-65.86-24.076-90.501 1.265l-370.117 380.613z" />
<glyph unicode="&#xe929;" glyph-name="wms-angular" d="M505.737 913.898c4.056 1.419 8.473 1.419 12.529 0l426.667-149.333c8.368-2.93 13.591-11.266 12.574-20.072l-64-554.667c-0.717-6.207-4.445-11.662-9.967-14.586l-362.667-192c-5.549-2.937-12.195-2.937-17.744 0l-362.667 192c-5.522 2.924-9.249 8.38-9.965 14.586l-64 554.667c-1.016 8.806 4.206 17.143 12.574 20.072l426.667 149.333zM105.91 733.778l61.118-529.689 344.972-182.632 344.974 182.632 61.118 529.689-406.092 142.132-406.090-142.132zM512 744.296c7.655 0 14.562-4.602 17.505-11.67l213.333-512-35.008-14.586-195.831 469.989-195.829-469.989-35.008 14.586 213.333 512c2.943 7.067 9.847 11.67 17.503 11.67zM652.225 365.037h-283.54v37.926h283.54v-37.926z" />
<glyph unicode="&#xe92a;" glyph-name="wms-announcement" d="M877.42 846.412c9.25-4.95 15.024-14.589 15.024-25.079v-704c0-10.49-5.774-20.127-15.024-25.077s-20.469-4.409-29.201 1.411l-48.378 32.25c0 0.006 0 0 0 0-143.275 95.494-310.227 148.901-481.921 154.482 2.895-28.103 10.025-55.66 21.197-81.732 14.984-34.958 36.924-66.509 64.486-92.723 11.383-10.826 11.834-28.831 1.007-40.215s-28.831-11.833-40.214-1.007c-33.153 31.534-59.544 69.484-77.568 111.536-14.275 33.308-23.064 68.642-26.089 104.63h-68.74c-49.979 0-97.91 19.854-133.25 55.194s-55.194 83.272-55.194 133.251c0 49.979 19.854 97.91 55.194 133.25s83.272 55.194 133.25 55.194h95.998c-0.001 0 0.001 0 0 0 182.166 0.016 360.257 53.935 511.837 154.966 0-0.001 0.006 0.001 0 0l48.384 32.256c8.732 5.819 19.951 6.362 29.201 1.412zM259.556 600.889h-67.556c-34.891 0-68.353-13.86-93.024-38.532s-38.532-58.133-38.532-93.024c0-34.891 13.86-68.353 38.532-93.025s58.133-38.531 93.024-38.531h67.556v263.111zM316.444 337.362c183.446-5.342 361.921-62.111 514.947-164.102l4.164-2.776v597.7l-4.159-2.774c-153.031-101.996-331.507-158.765-514.953-164.106v-263.942zM992 561.778c-15.707 0-28.444-12.735-28.444-28.444v-128c0-15.707 12.737-28.444 28.444-28.444s28.444 12.737 28.444 28.444v128c0 15.709-12.737 28.444-28.444 28.444z" />
<glyph unicode="&#xe92b;" glyph-name="wms-api-designer" d="M947.205 898.56c8.484 0 15.36-6.877 15.36-15.36v-156.703c0-8.483-6.876-15.36-15.36-15.36h-156.703c-8.484 0-15.36 6.877-15.36 15.36v156.703c0 8.483 6.876 15.36 15.36 15.36h156.703zM790.502 960c-42.414 0-76.8-34.385-76.8-76.8v-156.703c0-42.415 34.386-76.8 76.8-76.8h156.703c42.414 0 76.8 34.385 76.8 76.8v156.703c0 42.415-34.386 76.8-76.8 76.8h-156.703zM233.503 184.858c8.483 0 15.36-6.876 15.36-15.36v-156.703c0-8.484-6.877-15.36-15.36-15.36h-156.703c-8.483 0-15.36 6.876-15.36 15.36v156.703c0 8.484 6.877 15.36 15.36 15.36h156.703zM76.8 246.298c-42.415 0-76.8-34.386-76.8-76.8v-156.703c0-42.414 34.385-76.8 76.8-76.8h156.703c42.415 0 76.8 34.386 76.8 76.8v156.703c0 42.414-34.385 76.8-76.8 76.8h-156.703zM481.274 728.042c0 59.382 48.139 107.52 107.521 107.52h124.897v-61.44h-124.897c-25.452 0-46.080-20.631-46.080-46.080v-560.096c0-59.382-48.139-107.52-107.521-107.52h-124.897v61.44h124.897c25.449 0 46.080 20.628 46.080 46.080v560.096z" />
<glyph unicode="&#xe92c;" glyph-name="wms-api-head" d="M512.002 894.31l386.518-223.155v-446.313l-386.518-223.152-386.516 223.152v446.313l386.516 223.155zM955.409 704l-443.407 256-443.405-256v-512l443.405-256 443.407 256v512zM259.558 640c0 15.709 12.735 28.444 28.444 28.444h447.998c15.713 0 28.444-12.735 28.444-28.444s-12.732-28.444-28.444-28.444h-447.998c-15.709 0-28.444 12.735-28.444 28.444zM259.558 448c0 15.709 12.735 28.444 28.444 28.444h447.998c15.713 0 28.444-12.735 28.444-28.444s-12.732-28.444-28.444-28.444h-447.998c-15.709 0-28.444 12.735-28.444 28.444zM259.558 256c0 15.707 12.735 28.444 28.444 28.444h447.998c15.713 0 28.444-12.737 28.444-28.444s-12.732-28.444-28.444-28.444h-447.998c-15.709 0-28.444 12.737-28.444 28.444z" />
<glyph unicode="&#xe92d;" glyph-name="wms-apidocument" d="M853.333-35.556h-500.622c-17.067 0-34.133 5.689-45.511 17.067s-17.067 28.444-17.067 45.511v136.533h-142.222c-17.067 0-34.133 5.689-45.511 17.067s-17.067 28.444-17.067 45.511v671.289c0 17.067 5.689 34.133 17.067 45.511s28.444 17.067 45.511 17.067h375.467c5.689 0 17.067 0 28.444-5.689s17.067-11.378 22.756-17.067l119.467-125.156c11.378-11.378 17.067-28.444 17.067-51.2v-11.378h17.067c11.378 0 17.067 0 28.444-5.689s17.067-11.378 22.756-17.067l119.467-125.156c11.378 0 17.067-17.067 17.067-39.822v-534.756c0-17.067-5.689-34.133-17.067-45.511s-28.444-17.067-45.511-17.067zM347.022 197.689v-170.667h512v534.756c0 5.689 0 5.689-5.689 11.378l-113.778 119.467-11.378 5.689h-381.156v-500.622zM147.911 903.111h-5.689v-671.289h142.222v460.8c0 17.067 5.689 34.133 17.067 45.511s28.444 17.067 45.511 17.067h301.511v11.378c0 5.689 0 5.689-5.689 11.378l-108.089 119.467-11.378 5.689h-375.467zM728.178 169.244h-244.622c-17.067 0-28.444 11.378-28.444 28.444s11.378 28.444 28.444 28.444h244.622c17.067 0 28.444-11.378 28.444-28.444s-17.067-28.444-28.444-28.444zM728.178 351.289h-244.622c-17.067 0-28.444 11.378-28.444 28.444s11.378 28.444 28.444 28.444h244.622c17.067 0 28.444-11.378 28.444-28.444s-17.067-28.444-28.444-28.444zM625.778 533.333h-142.222c-17.067 0-28.444 17.067-28.444 28.444s11.378 28.444 28.444 28.444h142.222c17.067 0 28.444-11.378 28.444-28.444s-17.067-28.444-28.444-28.444z" />
<glyph unicode="&#xe92e;" glyph-name="wms-application" d="M910.222 903.111c31.42 0 56.889-25.47 56.889-56.889v-796.444c0-31.42-25.469-56.889-56.889-56.889h-796.444c-31.419 0-56.889 25.469-56.889 56.889v796.444c0 31.419 25.47 56.889 56.889 56.889h796.444zM113.778 960c-62.838 0-113.778-50.94-113.778-113.778v-796.444c0-62.839 50.94-113.778 113.778-113.778h796.444c62.839 0 113.778 50.938 113.778 113.778v796.444c0 62.838-50.938 113.778-113.778 113.778h-796.444z" />
<glyph unicode="&#xe92f;" glyph-name="wms-apps" d="M841.125 894.996c-24.684 0-44.698-20.012-44.698-44.698v-73.143c0-24.686 20.014-44.698 44.698-44.698h73.142c24.69 0 44.703 20.012 44.703 44.698v73.143c0 24.686-20.014 44.698-44.703 44.698h-73.142zM739.538 850.298c0 56.105 45.483 101.587 101.586 101.587h73.142c56.11 0 101.592-45.482 101.592-101.587v-73.143c0-56.104-45.483-101.587-101.592-101.587h-73.142c-56.104 0-101.586 45.483-101.586 101.587v73.143zM841.125 529.282c-24.684 0-44.698-20.012-44.698-44.699v-73.143c0-24.688 20.014-44.701 44.698-44.701h73.142c24.69 0 44.703 20.014 44.703 44.701v73.143c0 24.686-20.014 44.699-44.703 44.699h-73.142zM739.538 484.584c0 56.105 45.483 101.588 101.586 101.588h73.142c56.11 0 101.592-45.483 101.592-101.588v-73.143c0-56.102-45.483-101.59-101.592-101.59h-73.142c-56.104 0-101.586 45.488-101.586 101.59v73.143zM841.125 163.567c-24.684 0-44.698-20.008-44.698-44.698v-73.142c0-24.69 20.014-44.698 44.698-44.698h73.142c24.69 0 44.703 20.008 44.703 44.698v73.142c0 24.69-20.014 44.698-44.703 44.698h-73.142zM739.538 118.869c0 56.104 45.483 101.586 101.586 101.586h73.142c56.11 0 101.592-45.483 101.592-101.586v-73.142c0-56.11-45.483-101.586-101.592-101.586h-73.142c-56.104 0-101.586 45.477-101.586 101.586v73.142zM475.412 894.996c-24.686 0-44.698-20.012-44.698-44.698v-73.143c0-24.686 20.012-44.698 44.698-44.698h73.143c24.685 0 44.699 20.012 44.699 44.698v73.143c0 24.686-20.014 44.698-44.699 44.698h-73.143zM373.825 850.298c0 56.105 45.483 101.587 101.587 101.587h73.143c56.105 0 101.588-45.482 101.588-101.587v-73.143c0-56.104-45.483-101.587-101.588-101.587h-73.143c-56.104 0-101.587 45.483-101.587 101.587v73.143zM475.412 529.282c-24.686 0-44.698-20.012-44.698-44.699v-73.143c0-24.688 20.012-44.701 44.698-44.701h73.143c24.685 0 44.699 20.014 44.699 44.701v73.143c0 24.686-20.014 44.699-44.699 44.699h-73.143zM373.825 484.584c0 56.105 45.483 101.588 101.587 101.588h73.143c56.105 0 101.588-45.483 101.588-101.588v-73.143c0-56.107-45.483-101.59-101.588-101.59h-73.143c-56.104 0-101.587 45.483-101.587 101.59v73.143zM475.412 163.567c-24.686 0-44.698-20.008-44.698-44.698v-73.142c0-24.69 20.012-44.698 44.698-44.698h73.143c24.685 0 44.699 20.008 44.699 44.698v73.142c0 24.69-20.014 44.698-44.699 44.698h-73.143zM373.825 118.869c0 56.11 45.483 101.586 101.587 101.586h73.143c56.105 0 101.588-45.477 101.588-101.586v-73.142c0-56.11-45.483-101.586-101.588-101.586h-73.143c-56.104 0-101.587 45.477-101.587 101.586v73.142zM109.698 894.996c-24.686 0-44.698-20.012-44.698-44.698v-73.143c0-24.686 20.012-44.698 44.698-44.698h73.143c24.686 0 44.698 20.012 44.698 44.698v73.143c0 24.686-20.012 44.698-44.698 44.698h-73.143zM8.111 850.298c0 56.105 45.482 101.587 101.587 101.587h73.143c56.104 0 101.587-45.482 101.587-101.587v-73.143c0-56.104-45.483-101.587-101.587-101.587h-73.143c-56.105 0-101.587 45.483-101.587 101.587v73.143zM109.698 529.282c-24.686 0-44.698-20.012-44.698-44.699v-73.143c0-24.688 20.012-44.701 44.698-44.701h73.143c24.686 0 44.698 20.014 44.698 44.701v73.143c0 24.686-20.012 44.699-44.698 44.699h-73.143zM8.111 484.584c0 56.105 45.482 101.588 101.587 101.588h73.143c56.104 0 101.587-45.483 101.587-101.588v-73.143c0-56.107-45.483-101.59-101.587-101.59h-73.143c-56.105 0-101.587 45.483-101.587 101.59v73.143zM109.698 163.567c-24.686 0-44.698-20.008-44.698-44.698v-73.142c0-24.69 20.012-44.698 44.698-44.698h73.143c24.686 0 44.698 20.008 44.698 44.698v73.142c0 24.69-20.012 44.698-44.698 44.698h-73.143zM8.111 118.869c0 56.11 45.482 101.586 101.587 101.586h73.143c56.104 0 101.587-45.477 101.587-101.586v-73.142c0-56.11-45.483-101.586-101.587-101.586h-73.143c-56.105 0-101.587 45.477-101.587 101.586v73.142z" />
<glyph unicode="&#xe930;" glyph-name="wms-archive-old" horiz-adv-x="970" d="M872.771 889.937h-774.585c-54.548 0-98.187-43.639-98.187-98.187v-141.825c0-43.639 27.274-81.822 70.913-92.732v-469.114c0-27.271 10.909-49.093 27.274-70.909 16.365-16.368 43.639-27.276 70.913-27.276h632.758c27.276 0 49.093 10.908 70.915 27.276 16.362 16.362 27.271 43.639 27.271 70.909v474.569c43.639 10.91 70.915 49.093 70.915 92.732v136.37c0 54.548-43.639 98.187-98.185 98.187zM845.495 93.534c0-10.908-5.454-21.817-10.908-27.271-10.914-10.914-21.822-10.914-32.73-10.914h-632.758c-10.91 0-21.819 5.46-32.729 10.914-5.455 5.454-10.909 16.362-10.909 27.271v463.66h720.035v-463.66zM916.405 655.381c0-21.819-16.362-43.639-43.633-43.639h-774.585c-21.819 0-43.639 16.365-43.639 43.639v136.37c0 21.819 16.365 43.639 43.639 43.639h769.125c21.822 0 49.093-21.819 49.093-43.639v-136.37zM616.394 371.734c0-16.368-10.908-27.276-27.276-27.276h-207.282c-16.364 0-27.274 10.908-27.274 27.276 0 16.362 10.91 27.271 27.274 27.271h212.736c10.914 0 21.822-10.908 21.822-27.271z" />
<glyph unicode="&#xe931;" glyph-name="wms-archive" d="M160 734.009c-9.43 0-18.474-3.746-25.141-10.414s-10.414-15.712-10.414-25.141v-256c0-15.709-12.735-28.444-28.444-28.444s-28.444 12.735-28.444 28.444v256c0 24.518 9.739 48.031 27.076 65.368s40.85 27.076 65.368 27.076h16c15.709 0 28.444-12.735 28.444-28.444s-12.735-28.444-28.444-28.444h-16zM864 739.556c9.432 0 18.472-3.746 25.139-10.414 6.673-6.668 10.416-15.712 10.416-25.142v-256c0-15.709 12.737-28.444 28.444-28.444s28.444 12.735 28.444 28.444v256c0 24.518-9.739 48.032-27.079 65.368-17.334 17.337-40.846 27.076-65.365 27.076h-16.003c-15.707 0-28.444-12.735-28.444-28.444s12.737-28.444 28.444-28.444h16.003zM64 343.324h320c15.709 0 28.444-12.737 28.444-28.444 0-26.402 10.489-51.723 29.159-70.394s43.993-29.161 70.397-29.161c26.404 0 51.726 10.49 70.394 29.161 18.671 18.671 29.161 43.992 29.161 70.394 0 15.707 12.737 28.444 28.444 28.444h320.37c15.866-0.205 31.027-6.605 42.251-17.823 11.218-11.224 17.613-26.385 17.823-42.251v-213.703c0-24.519-9.739-48.031-27.079-65.365-17.334-17.34-40.846-27.079-65.365-27.079h-832c-24.518 0-48.031 9.739-65.368 27.079-17.337 17.334-27.076 40.846-27.076 65.365v213.703c0.207 15.866 6.605 31.027 17.826 42.251 11.221 11.218 26.379 17.613 42.246 17.823h0.372zM64.275 286.436c-1.003-0.040-1.956-0.455-2.668-1.166s-1.126-1.661-1.163-2.662v-213.060c0-9.432 3.746-18.472 10.414-25.139 6.668-6.673 15.712-10.416 25.141-10.416h832c9.432 0 18.472 3.743 25.139 10.416 6.673 6.667 10.416 15.707 10.416 25.139v213.055c-0.040 1.007-0.449 1.957-1.166 2.668-0.711 0.711-1.661 1.126-2.662 1.166h-293.888c-5.717-30.919-20.673-59.637-43.218-82.176-29.338-29.343-69.129-45.824-110.62-45.824s-81.284 16.481-110.623 45.824c-22.544 22.539-37.498 51.257-43.215 82.176h-293.887zM520.533 924.444c15.709 0 28.444-12.735 28.444-28.444v-320c0-15.709-12.735-28.444-28.444-28.444s-28.444 12.735-28.444 28.444v320c0 15.709 12.735 28.444 28.444 28.444zM364.199 705.221c11.278 10.936 29.286 10.659 40.222-0.618l116.112-119.741 116.111 119.741c10.94 11.278 28.945 11.555 40.226 0.618 11.275-10.936 11.554-28.944 0.614-40.222l-136.531-140.8c-5.357-5.524-12.724-8.643-20.42-8.643s-15.063 3.119-20.42 8.643l-136.533 140.8c-10.936 11.278-10.659 29.286 0.619 40.222z" />
<glyph unicode="&#xe932;" glyph-name="wms-arrow-back" d="M1015.114 447.993c0-15.71-12.737-28.444-28.444-28.444h-949.336c-15.709 0-28.444 12.735-28.444 28.444s12.735 28.444 28.444 28.444h949.336c15.707 0 28.444-12.735 28.444-28.444zM345.822 745.057c10.896-11.316 10.557-29.323-0.759-40.219l-266.723-256.844 266.723-256.847c11.316-10.894 11.655-28.9 0.759-40.215-10.896-11.321-28.904-11.657-40.219-0.762l-288 277.334c-5.568 5.362-8.714 12.759-8.714 20.489s3.146 15.127 8.714 20.489l288 277.333c11.316 10.896 29.323 10.557 40.219-0.759z" />
<glyph unicode="&#xe933;" glyph-name="wms-arrow-down-circle" d="M331.887 372.116c11.108 11.105 29.118 11.105 40.226 0l139.887-139.89 139.884 139.89c11.11 11.105 29.121 11.105 40.232 0 11.105-11.11 11.105-29.121 0-40.232l-160.003-160c-11.108-11.105-29.118-11.105-40.226 0l-160 160c-11.109 11.11-11.109 29.121 0 40.232zM512 700.444c15.709 0 28.444-12.735 28.444-28.444v-480c0-15.707-12.735-28.444-28.444-28.444s-28.444 12.737-28.444 28.444v480c0 15.709 12.735 28.444 28.444 28.444zM152.475 807.525c95.352 95.351 224.677 148.92 359.525 148.92s264.175-53.568 359.526-148.92 148.918-224.677 148.918-359.525c0-134.849-53.567-264.175-148.918-359.526s-224.677-148.918-359.526-148.918c-134.848 0-264.173 53.567-359.525 148.918s-148.92 224.677-148.92 359.526c0 134.848 53.568 264.173 148.92 359.525zM512 899.556c-119.76 0-234.615-47.574-319.298-132.258s-132.258-199.538-132.258-319.298c0-119.762 47.574-234.615 132.258-319.3 84.683-84.679 199.538-132.255 319.298-132.255 119.762 0 234.615 47.576 319.3 132.255 84.679 84.685 132.255 199.538 132.255 319.3 0 119.76-47.576 234.615-132.255 319.298-84.685 84.683-199.538 132.258-319.3 132.258z" />
<glyph unicode="&#xe934;" glyph-name="wms-arrow-down" d="M172.932 680.847c-16.745 14.913-38.386 23.153-60.809 23.153-84.026 0-123.556-103.818-60.808-159.704l419.571-373.684c5.396-4.813 11.805-8.631 18.861-11.236 7.054-2.606 14.616-3.946 22.254-3.946s15.2 1.34 22.254 3.946c7.055 2.605 13.464 6.423 18.861 11.236l419.571 373.684c62.747 55.886 23.218 159.704-60.809 159.704-22.423 0-44.064-8.239-60.809-23.153l-339.068-301.988-339.068 301.988z" />
<glyph unicode="&#xe935;" glyph-name="wms-arrow-downward" d="M512.014 951.104c15.71 0 28.444-12.735 28.444-28.444v-949.335c0-15.707-12.735-28.444-28.444-28.444s-28.444 12.737-28.444 28.444v949.335c0 15.709 12.735 28.444 28.444 28.444zM214.95 281.816c11.316 10.894 29.323 10.559 40.219-0.762l256.844-266.718 256.845 266.718c10.894 11.321 28.905 11.657 40.22 0.762 11.315-10.9 11.651-28.905 0.757-40.22l-277.333-288c-5.362-5.569-12.759-8.715-20.489-8.715s-15.127 3.146-20.489 8.715l-277.333 288c-10.896 11.315-10.557 29.321 0.759 40.22z" />
<glyph unicode="&#xe936;" glyph-name="wms-arrow-drop-down-circle" d="M287.087 536.38c11.108 11.109 29.118 11.109 40.226 0l184.687-184.687 184.684 184.687c11.11 11.109 29.121 11.109 40.232 0 11.105-11.108 11.105-29.118 0-40.226l-204.803-204.803c-11.108-11.105-29.118-11.105-40.226 0l-204.8 204.803c-11.109 11.108-11.109 29.118 0 40.226zM56.889 448c0-120.701 47.949-236.464 133.299-321.815 85.35-85.345 201.109-133.296 321.812-133.296 120.701 0 236.464 47.952 321.815 133.296 85.345 85.35 133.296 201.114 133.296 321.815 0 120.703-47.952 236.462-133.296 321.812-85.35 85.35-201.114 133.299-321.815 133.299-120.703 0-236.462-47.949-321.812-133.299s-133.299-201.109-133.299-321.812zM149.961 85.959c-96.019 96.023-149.961 226.253-149.961 362.041 0 135.791 53.943 266.020 149.961 362.039s226.248 149.961 362.039 149.961c135.788 0 266.018-53.943 362.041-149.961 96.017-96.019 149.959-226.248 149.959-362.039 0-135.788-53.942-266.018-149.959-362.041-96.023-96.017-226.253-149.959-362.041-149.959-135.791 0-266.020 53.942-362.039 149.959z" />
<glyph unicode="&#xe937;" glyph-name="wms-arrow-drop-down" d="M37.165 696.050c11.319 10.894 29.326 10.548 40.219-0.771l425.874-442.516c1.249-1.297 2.686-2.281 4.172-2.924 1.484-0.637 3.034-0.95 4.571-0.95s3.087 0.313 4.571 0.95c1.487 0.643 2.909 1.61 4.157 2.913l425.886 442.528c10.894 11.319 28.9 11.664 40.22 0.771s11.662-28.9 0.774-40.219l-425.862-442.498c-6.427-6.69-14.119-12.055-22.666-15.735-8.55-3.686-17.756-5.598-27.080-5.598s-18.53 1.911-27.080 5.598c-8.541 3.675-16.228 9.040-22.652 15.718-0.005 0.006 0.005-0.006 0 0l-425.874 442.515c-10.893 11.319-10.548 29.326 0.771 40.219z" />
<glyph unicode="&#xe938;" glyph-name="wms-arrow-drop-up" d="M986.834 199.947c-11.321-10.889-29.326-10.547-40.22 0.774l-425.871 442.514c-1.249 1.299-2.686 2.284-4.172 2.924-1.483 0.639-3.033 0.953-4.57 0.953s-3.087-0.313-4.571-0.953c-1.487-0.64-2.909-1.61-4.157-2.909l-425.888-442.528c-10.893-11.321-28.9-11.662-40.219-0.774-11.319 10.894-11.664 28.9-0.771 40.22l425.86 442.501c6.427 6.687 14.119 12.054 22.666 15.736 8.55 3.684 17.756 5.595 27.080 5.595s18.53-1.911 27.080-5.595c8.541-3.68 16.228-9.041 22.652-15.722 0.005-0.005-0.005 0.005 0 0l425.876-442.515c10.889-11.321 10.547-29.326-0.774-40.22z" />
<glyph unicode="&#xe939;" glyph-name="wms-arrow-forward" d="M305.209 817.777c9.515-0.059 18.479-3.076 25.982-8.209l470.851-317.224c7.612-5.074 13.369-12.056 17.163-19.738 3.812-7.716 5.683-16.194 5.683-24.606s-1.872-16.89-5.683-24.606c-3.794-7.682-9.552-14.664-17.163-19.738l-470.852-317.225c-7.503-5.131-16.467-8.146-25.981-8.209-9.582-0.057-18.65 2.89-26.256 8.010-7.545 5.080-13.276 12.021-17.090 19.666-3.812 7.64-5.749 16.031-5.861 24.383l-0.002 635.060 0.005 0.378c0.111 8.35 2.046 16.741 5.858 24.382 3.814 7.645 9.545 14.585 17.090 19.665 7.605 5.121 16.674 8.069 26.256 8.009zM312.891 753.301v-610.601l453.152 305.3-453.152 305.301zM770.509 444.991v0z" />
<glyph unicode="&#xe93a;" glyph-name="wms-arrow-left-circle" d="M436.113 628.113c11.108-11.108 11.108-29.118 0-40.226l-139.886-139.887 139.886-139.884c11.108-11.11 11.108-29.121 0-40.232-11.108-11.105-29.118-11.105-40.226 0l-160 160.003c-11.109 11.108-11.109 29.118 0 40.226l160 160c11.108 11.109 29.118 11.109 40.226 0zM764.444 448c0-15.709-12.737-28.444-28.444-28.444h-480c-15.709 0-28.444 12.735-28.444 28.444s12.735 28.444 28.444 28.444h480c15.707 0 28.444-12.735 28.444-28.444zM871.526 807.525c95.351-95.352 148.918-224.677 148.918-359.525s-53.567-264.175-148.918-359.526-224.677-148.918-359.526-148.918c-134.848 0-264.173 53.567-359.525 148.918s-148.92 224.677-148.92 359.526c0 134.848 53.568 264.173 148.92 359.525s224.677 148.92 359.525 148.92c134.849 0 264.175-53.568 359.526-148.92zM963.556 448c0 119.76-47.576 234.615-132.255 319.298-84.685 84.683-199.538 132.258-319.3 132.258-119.76 0-234.615-47.574-319.298-132.258s-132.258-199.538-132.258-319.298c0-119.762 47.574-234.615 132.258-319.3 84.683-84.679 199.538-132.255 319.298-132.255 119.762 0 234.615 47.576 319.3 132.255 84.679 84.685 132.255 199.538 132.255 319.3z" />
<glyph unicode="&#xe93b;" glyph-name="wms-arrow-left" d="M731.227 895.27c-11.11 10.455-29.121 10.455-40.232 0l-434.995-409.41c-22.216-20.91-22.217-54.811 0-75.72l434.995-409.412c11.11-10.45 29.121-10.45 40.232 0 11.105 10.456 11.105 27.409 0 37.86l-435 409.412 435 409.41c11.105 10.454 11.105 27.405 0 37.86z" />
<glyph unicode="&#xe93c;" glyph-name="wms-arrow-right-circle" d="M587.873 628.127c-11.11-11.108-11.11-29.119 0-40.227l139.884-139.887-139.884-139.886c-11.11-11.11-11.11-29.116 0-40.226s29.116-11.11 40.226 0l160 159.999c11.11 11.108 11.11 29.119 0 40.227l-160 160c-11.11 11.108-29.116 11.108-40.226 0zM259.542 448.014c0-15.709 12.735-28.444 28.444-28.444h480.002c15.707 0 28.444 12.735 28.444 28.444s-12.737 28.444-28.444 28.444h-480.002c-15.71 0-28.444-12.735-28.444-28.444zM152.462 807.538c-95.352-95.352-148.92-224.676-148.92-359.525 0-134.846 53.568-264.172 148.92-359.523s224.676-148.924 359.525-148.924c134.846 0 264.172 53.572 359.523 148.924s148.924 224.677 148.924 359.523c0 134.848-53.572 264.173-148.924 359.525s-224.677 148.92-359.523 148.92c-134.848 0-264.173-53.568-359.525-148.92zM60.431 448.014c0 119.76 47.574 234.615 132.258 319.298s199.538 132.258 319.298 132.258c119.759 0 234.612-47.574 319.297-132.258s132.261-199.538 132.261-319.298c0-119.759-47.576-234.612-132.261-319.297s-199.538-132.261-319.297-132.261c-119.76 0-234.615 47.576-319.298 132.261s-132.258 199.538-132.258 319.297z" />
<glyph unicode="&#xe93d;" glyph-name="wms-arrow-right" d="M292.776 895.27c11.108 10.455 29.118 10.455 40.226 0l434.998-409.41c22.215-20.91 22.215-54.811 0-75.72l-434.998-409.412c-11.108-10.45-29.118-10.45-40.226 0-11.109 10.456-11.109 27.409 0 37.86l434.998 409.412-434.998 409.41c-11.109 10.454-11.109 27.405 0 37.86z" />
<glyph unicode="&#xe93e;" glyph-name="wms-arrow-up-circle" d="M692.116 523.887c-11.11-11.108-29.121-11.108-40.232 0l-139.884 139.886-139.887-139.886c-11.108-11.108-29.118-11.108-40.226 0s-11.109 29.118 0 40.226l160 160c11.108 11.109 29.118 11.109 40.226 0l160.003-160c11.105-11.108 11.105-29.118 0-40.226zM512 195.556c-15.709 0-28.444 12.737-28.444 28.444v480c0 15.709 12.735 28.444 28.444 28.444s28.444-12.735 28.444-28.444v-480c0-15.707-12.735-28.444-28.444-28.444zM871.526 88.474c-95.351-95.351-224.677-148.918-359.526-148.918s-264.173 53.567-359.525 148.918-148.92 224.677-148.92 359.526c0 134.848 53.568 264.173 148.92 359.525s224.677 148.92 359.525 148.92c134.849 0 264.175-53.568 359.526-148.92s148.918-224.677 148.918-359.525c0-134.849-53.567-264.175-148.918-359.526zM512-3.556c119.762 0 234.615 47.576 319.3 132.255 84.679 84.685 132.255 199.538 132.255 319.3 0 119.76-47.576 234.615-132.255 319.298-84.685 84.683-199.538 132.258-319.3 132.258-119.76 0-234.615-47.574-319.298-132.258s-132.258-199.538-132.258-319.298c0-119.762 47.574-234.615 132.258-319.3 84.683-84.679 199.538-132.255 319.298-132.255z" />
<glyph unicode="&#xe93f;" glyph-name="wms-arrow-up" d="M986.834 199.947c-11.321-10.889-29.326-10.547-40.22 0.774l-425.871 442.514c-1.249 1.299-2.686 2.284-4.172 2.924-1.483 0.639-3.033 0.953-4.57 0.953s-3.087-0.313-4.571-0.953c-1.487-0.64-2.909-1.61-4.157-2.909l-425.888-442.528c-10.893-11.321-28.9-11.662-40.219-0.774-11.319 10.894-11.664 28.9-0.771 40.22l425.86 442.501c6.427 6.687 14.119 12.054 22.666 15.736 8.55 3.684 17.756 5.595 27.080 5.595s18.53-1.911 27.080-5.595c8.541-3.68 16.228-9.041 22.652-15.722 0.005-0.005-0.005 0.005 0 0l425.876-442.515c10.889-11.321 10.547-29.326-0.774-40.22z" />
<glyph unicode="&#xe940;" glyph-name="wms-arrow-upward" d="M512-55.114c-15.709 0-28.444 12.737-28.444 28.444v949.336c0 15.709 12.735 28.444 28.444 28.444s28.444-12.735 28.444-28.444v-949.336c0-15.707-12.735-28.444-28.444-28.444zM809.062 614.178c-11.315-10.896-29.321-10.557-40.22 0.759l-256.842 266.723-256.844-266.723c-10.896-11.316-28.904-11.655-40.219-0.759s-11.655 28.904-0.759 40.219l277.333 288c5.362 5.568 12.759 8.714 20.489 8.714s15.127-3.146 20.489-8.714l277.336-288c10.894-11.316 10.553-29.323-0.762-40.219z" />
<glyph unicode="&#xe941;" glyph-name="wms-aspect-ratio" d="M0 810.667c0 15.709 12.735 28.444 28.444 28.444h938.667c15.707 0 28.444-12.735 28.444-28.444v-768c0-15.707-12.737-28.444-28.444-28.444h-938.667c-15.709 0-28.444 12.737-28.444 28.444v768zM68.267 782.222c-6.284 0-11.378-5.094-11.378-11.378v-688.356c0-6.286 5.094-11.378 11.378-11.378h859.022c6.286 0 11.378 5.092 11.378 11.378v688.356c0 6.284-5.092 11.378-11.378 11.378h-859.022zM120.889 689.778c0 15.709 12.735 28.444 28.444 28.444h128c15.709 0 28.444-12.735 28.444-28.444s-12.735-28.444-28.444-28.444h-99.556v-99.556c0-15.709-12.735-28.444-28.444-28.444s-28.444 12.735-28.444 28.444v128zM846.222 320c15.707 0 28.444-12.737 28.444-28.444v-128c0-15.707-12.737-28.444-28.444-28.444h-128c-15.707 0-28.444 12.737-28.444 28.444s12.737 28.444 28.444 28.444h99.556v99.556c0 15.707 12.737 28.444 28.444 28.444z" />
<glyph unicode="&#xe942;" glyph-name="wms-assignment" d="M802.111-58.311h-580.266c-28.444 0-51.2 11.378-73.956 28.444s-28.444 45.511-28.444 73.956v733.868c0 28.444 11.378 51.2 28.444 73.956 17.067 17.067 45.511 28.444 73.956 28.444h85.333c11.378 39.822 51.2 73.956 96.711 73.956h221.866c45.511 0 85.333-28.444 96.711-73.956h85.333c28.444 0 51.2-11.378 73.956-28.444 17.067-17.067 28.444-45.511 28.444-73.956v-733.868c0-28.444-11.378-51.2-28.444-73.956s-51.2-28.444-79.644-28.444zM221.844 823.468c-11.378 0-22.756-5.689-34.133-11.378-5.689-11.378-11.378-22.756-11.378-34.133v-733.868c0-11.378 5.689-22.756 11.378-34.133 5.689-5.689 17.067-11.378 34.133-11.378h585.955c11.378 0 22.756 5.689 34.133 11.378s11.378 17.067 11.378 34.133v733.868c0 11.378-5.689 22.756-11.378 34.133-5.689 5.689-17.067 11.378-34.133 11.378h-79.644v-5.689c0-56.889-45.511-102.4-102.4-102.4h-221.866c-56.889 0-102.4 45.511-102.4 102.4v5.689h-79.644zM358.378 851.912v-34.133c0-22.756 22.756-45.511 45.511-45.511h221.866c22.756 0 45.511 22.756 45.511 45.511v34.133c0 22.756-22.756 45.511-45.511 45.511h-221.866c-28.444 0-45.511-22.756-45.511-45.511zM694.022 129.422h-364.088c-17.067 0-28.444 11.378-28.444 28.444s11.378 28.444 28.444 28.444h364.088c17.067 0 28.444-11.378 28.444-28.444s-11.378-28.444-28.444-28.444zM694.022 317.156h-364.088c-17.067 0-28.444 11.378-28.444 28.444s11.378 28.444 28.444 28.444h364.088c17.067 0 28.444-11.378 28.444-28.444s-11.378-28.444-28.444-28.444zM694.022 510.579h-364.088c-17.067 0-28.444 11.378-28.444 28.444s11.378 28.444 28.444 28.444h364.088c17.067 0 28.444-11.378 28.444-28.444s-11.378-28.444-28.444-28.444z" />
<glyph unicode="&#xe943;" glyph-name="wms-at" d="M511.989-58.288c-5.689 0-17.066 0-22.756 0-73.956 5.689-147.911 22.756-210.489 56.889s-125.156 85.333-164.978 142.222c-45.511 56.889-73.955 130.844-91.022 199.111-17.067 79.644-17.067 159.288 0 227.555 17.067 73.956 51.2 142.222 96.711 199.111 51.2 56.889 108.089 102.4 176.356 136.533s142.222 51.2 216.178 51.2c91.022 0 176.356-22.756 250.311-68.267s142.222-108.089 187.733-182.044c102.4-170.667 68.267-318.577 0-403.911-51.2-62.578-119.467-91.022-170.667-73.956-22.756 5.689-51.2 28.444-62.578 73.956-28.444-34.133-62.578-62.578-102.4-79.644-45.511-17.067-96.711-22.756-142.222-17.067-45.511 11.378-91.022 34.133-125.156 68.267s-56.889 79.644-68.267 125.155c-17.067 45.511-11.378 96.711 5.689 142.222s51.2 85.333 91.022 113.778c39.822 28.444 85.333 39.822 136.533 45.511 34.133 0 62.578-5.689 96.711-17.067 28.444-11.378 56.889-28.444 79.644-51.2s39.822-51.2 56.889-79.644c11.378-28.444 17.067-62.578 17.067-96.711v-96.711c0-22.756 5.689-62.578 34.133-73.956 22.756-11.378 68.267 5.689 108.089 51.2 56.889 68.266 85.333 193.422-5.689 341.333-39.822 68.267-96.711 125.156-164.978 164.978-68.267 34.133-142.222 51.2-221.867 56.889-62.578 0-130.844-17.067-193.422-45.511-56.889-28.444-113.778-68.267-153.6-119.467s-68.267-113.778-85.333-176.356c-17.067-62.578-17.067-130.844-5.689-193.422s39.822-125.156 79.644-176.356c39.822-51.2 91.022-96.711 147.911-125.156s125.156-51.2 187.733-51.2c68.267 0 130.844 11.378 193.422 34.133 17.067 5.689 28.444 0 39.822-17.067 5.689-17.067 0-28.444-17.067-39.822-56.889-28.444-125.156-45.511-193.422-45.511zM517.678 641.444c-5.689 0-5.689 0 0 0-39.822 0-79.644-11.378-108.089-34.133s-56.889-51.2-68.267-85.333c-17.067-39.822-22.756-73.956-11.378-113.778 5.689-34.133 28.444-68.266 51.2-96.711 28.444-28.444 62.578-45.511 96.711-51.2 39.822-5.689 73.956-5.689 108.089 11.378s62.578 39.822 85.333 68.267c22.756 34.133 34.133 68.266 34.133 108.088 0 22.756-5.689 51.2-17.067 73.956s-22.756 45.511-39.822 62.578c-17.067 17.067-39.822 34.133-62.578 39.822-22.755 11.378-45.511 17.067-68.267 17.067z" />
<glyph unicode="&#xe944;" glyph-name="wms-attach-file" d="M438.042-58.311c-56.889 0-102.4 22.756-142.222 56.889-39.822 39.822-56.889 91.022-56.889 147.911l11.378 631.468c0 22.756 5.689 45.511 11.378 68.267 11.378 22.756 22.756 39.822 39.822 56.889s34.133 28.444 56.889 39.822c17.067 5.689 39.822 11.378 62.578 11.378h73.956c22.756 0 45.511-5.689 68.267-11.378 22.758-5.689 39.825-22.756 56.892-34.133 17.067-17.067 28.444-34.134 34.133-56.889s11.378-45.511 11.378-68.267l-11.378-563.201c0-11.378-5.689-28.444-5.689-39.822-5.689-11.378-11.378-22.756-22.756-34.133s-22.756-17.067-34.133-22.756c-11.378-5.689-22.758-5.689-39.825-5.689h-34.133c-11.378 0-28.444 0-39.822 5.689s-22.756 11.378-34.133 22.756c-11.378 11.378-17.067 22.756-22.756 34.133s-5.689 22.756-5.689 39.822l5.689 375.468c0 17.067 17.067 28.444 28.444 28.444 17.067 0 28.444-11.378 28.444-28.444l-5.689-375.468c0-5.689 0-11.378 5.689-17.067 0-5.689 5.689-11.378 11.378-11.378 5.689-5.689 5.689-5.689 11.378-11.378 5.689 0 11.378 0 17.067-5.689h34.133c5.689 0 11.378 0 17.067 5.689 5.692 0 11.381 5.689 17.070 11.378s5.689 11.378 11.378 17.067c0 5.689 5.689 11.378 5.689 17.067v563.201c0 17.067 0 28.444-5.689 45.511-5.689 11.378-11.378 28.444-22.756 34.133-11.381 5.689-22.758 17.067-39.825 22.756-11.378 5.689-28.444 5.689-39.822 5.689h-73.956c-17.067 0-28.444-5.689-45.511-11.378-11.378-5.689-22.756-11.378-34.133-22.756s-22.756-22.756-28.444-39.822c-5.689-11.378-5.689-28.444-5.689-45.511l-11.378-637.157c0-39.822 17.067-73.956 39.822-102.4 28.444-28.444 62.578-45.511 102.4-39.822h182.047c17.067 0 39.822 5.689 56.889 11.378s34.133 17.067 51.2 34.133c17.067 17.067 22.756 28.444 34.133 51.2 5.689 17.067 11.378 39.822 11.378 56.889l5.689 597.334c0 17.067 11.378 28.444 28.444 28.444s28.444-11.378 28.444-28.444l-5.689-597.334c0-28.444-5.689-51.2-17.067-79.644-11.378-22.756-28.444-45.511-45.511-68.267-17.067-17.067-39.822-34.133-68.267-45.511-22.756-11.378-51.2-17.067-79.644-17.067h-182.047z" />
<glyph unicode="&#xe945;" glyph-name="wms-attach-money" d="M512 892.444c15.709 0 28.444-12.735 28.444-28.444v-160c0-15.709-12.735-28.444-28.444-28.444s-28.444 12.735-28.444 28.444v160c0 15.709 12.735 28.444 28.444 28.444zM512 220.444c15.709 0 28.444-12.737 28.444-28.444v-160c0-15.707-12.735-28.444-28.444-28.444s-28.444 12.737-28.444 28.444v160c0 15.707 12.735 28.444 28.444 28.444zM404 675.556c-33.927 0-55.555-23.748-55.555-46.218l0.001-50.674c0-18.251 13.86-37.577 39.174-44.141l263.042-68.198c46.364-12.022 81.783-51.088 81.783-99.209v-100.483c0-60.018-53.601-103.077-112.447-103.077h-215.998c-58.859 0-112.444 43.105-112.444 103.111v53.379c0 15.707 12.735 28.444 28.444 28.444s28.444-12.737 28.444-28.444v-53.379c0-22.471 21.631-46.222 55.555-46.222h215.998c33.946 0 55.558 23.734 55.558 46.188v100.483c0 18.25-13.858 37.577-39.174 44.141l-263.041 68.198c-46.365 12.022-81.785 51.089-81.785 99.209l-0.001 50.674c0 60.006 53.587 103.107 112.444 103.107h215.998c58.857 0 112.447-43.106 112.447-103.111v-53.404c0-15.709-12.737-28.444-28.444-28.444s-28.444 12.735-28.444 28.444v53.404c0 22.47-21.635 46.222-55.558 46.222h-215.998z" />
<glyph unicode="&#xe946;" glyph-name="wms-attachment" d="M438.042-58.288c-56.889 0-102.4 22.756-142.222 56.889-39.822 39.822-56.889 91.022-56.889 142.222l11.378 637.155c0 22.756 5.689 45.511 11.378 68.267 11.378 22.756 22.756 39.822 39.822 56.889s34.133 28.444 56.889 39.822c17.067 5.689 39.822 11.378 62.578 11.378h73.956c22.756 0 45.511-5.689 68.267-11.378 22.758-5.689 39.825-22.756 56.892-34.133 17.067-17.067 28.444-34.133 34.133-56.889s11.378-45.511 11.378-68.267l-11.378-563.199c0-11.378-5.689-28.444-5.689-39.822-5.689-11.378-11.378-22.756-22.756-34.133s-22.756-17.067-34.133-22.756c-11.378-5.689-22.758-5.689-39.825-5.689h-34.133c-11.378 0-22.756 0-39.822 5.689-11.378 5.689-22.756 11.378-34.133 22.756s-17.067 22.756-22.756 34.133c-5.689 11.378-5.689 22.756-5.689 39.822l5.689 375.466c0 17.067 17.067 28.444 28.444 28.444 17.067 0 28.444-11.378 28.444-28.444l-5.689-375.466c0-5.689 0-11.378 5.689-17.067 0-5.689 5.689-11.378 11.378-11.378 5.689-5.689 5.689-5.689 11.378-11.378 5.689 0 11.378 0 17.067 0h34.133c5.689 0 11.378 0 17.067 5.689 5.692 0 11.381 5.689 17.070 11.378s5.689 11.378 11.378 17.067c0 5.689 5.689 11.378 5.689 17.067v557.511c0 17.067 0 28.444-5.689 45.511-5.689 11.378-11.378 28.444-22.756 34.133-11.381 5.689-22.758 17.067-39.825 22.756-11.378 5.689-28.444 5.689-39.822 5.689h-73.956c-17.067 0-28.444-5.689-45.511-11.378-11.378-5.689-22.756-11.378-34.133-22.756s-22.756-22.756-28.444-39.822c-5.689-11.378-5.689-28.444-5.689-45.511l-11.378-637.155c0-39.822 17.067-73.956 39.822-102.4s62.578-39.822 102.4-39.822h182.047c17.067 0 39.822 5.689 56.889 11.378s34.133 17.067 51.2 34.133c17.067 17.067 22.756 28.444 34.133 51.2 5.689 17.067 11.378 39.822 11.378 56.889l5.689 597.333c0 17.067 11.378 28.444 28.444 28.444s28.444-11.378 28.444-28.444l-5.689-597.333c0-28.444-5.689-51.2-17.067-79.644-11.378-22.756-28.444-45.511-45.511-68.267s-39.822-34.133-68.267-45.511c-28.444-11.378-51.2-17.067-79.644-17.067h-182.047z" />
<glyph unicode="&#xe947;" glyph-name="wms-autorenew" d="M943.963 365.858c15.241 3.812 30.686-5.456 34.492-20.696l36.574-146.29c3.812-15.235-5.456-30.68-20.696-34.492s-30.686 5.456-34.492 20.696l-29.673 118.693-118.693-29.673c-15.241-3.812-30.686 5.456-34.492 20.696-3.812 15.241 5.456 30.68 20.696 34.492l146.284 36.574zM960.33 365.084c14.814-5.228 22.585-21.476 17.357-36.289-34.361-97.354-96.768-182.363-179.354-244.304-82.591-61.941-181.675-98.048-284.752-103.771-0.523-0.028-1.048-0.046-1.572-0.046-95.943-0.017-189.566 29.491-268.154 84.537-78.586 55.040-138.328 132.927-171.109 223.101-5.367 14.768 2.251 31.084 17.015 36.454 14.764 5.365 31.084-2.253 36.451-17.015 28.789-79.195 81.258-147.604 150.278-195.942 68.804-48.191 150.734-74.098 234.725-74.246 91.58 5.239 179.587 37.393 252.985 92.439 73.603 55.205 129.217 130.964 159.841 217.725 5.228 14.814 21.476 22.585 36.289 17.357zM29.677 731.571c15.24 3.81 30.684-5.456 34.494-20.696l29.673-118.691 118.691 29.673c15.241 3.81 30.684-5.456 34.494-20.696s-5.456-30.684-20.697-34.494l-146.285-36.572c-15.241-3.81-30.684 5.456-34.494 20.696l-36.571 146.286c-3.81 15.241 5.456 30.684 20.696 34.494zM262.357 762.929c-74.834-58.437-133.835-136.533-162.491-214.996-5.39-14.756-21.72-22.35-36.477-16.961s-22.349 21.72-16.96 36.477c32.784 89.766 98.858 176.241 180.915 240.318 82.034 64.059 182.377 107.511 284.661 107.511h0.080c96.41-0.271 190.379-30.356 269.017-86.13 78.649-55.774 138.115-134.506 170.246-225.405 5.239-14.811-2.526-31.062-17.334-36.299-14.814-5.236-31.067 2.526-36.301 17.337-28.223 79.832-80.447 148.979-149.521 197.963-69.052 48.976-151.563 75.399-236.227 75.645-86.412-0.011-174.762-37.014-249.607-95.46z" />
<glyph unicode="&#xe948;" glyph-name="wms-award" d="M288 131.556c-19.637 0-35.556-15.918-35.556-35.556v-64c0-19.638 15.919-35.556 35.556-35.556h448c19.638 0 35.556 15.918 35.556 35.556v64c0 19.638-15.918 35.556-35.556 35.556h-448zM195.556 96c0 51.058 41.389 92.444 92.444 92.444h448c51.058 0 92.444-41.387 92.444-92.444v-64c0-51.052-41.387-92.444-92.444-92.444h-448c-51.056 0-92.444 41.392-92.444 92.444v64zM24.671 935.33c13.52 13.52 31.857 21.115 50.977 21.115h276.352c15.709 0 28.444-12.735 28.444-28.444s-12.735-28.444-28.444-28.444h-276.352c-4.032 0-7.9-1.602-10.75-4.453s-4.453-6.719-4.453-10.751c0-119.76 47.574-234.614 132.258-319.297s199.538-132.258 319.298-132.258c119.762 0 234.615 47.574 319.3 132.258 84.679 84.683 132.255 199.538 132.255 319.297 0 4.032-1.604 7.9-4.454 10.751s-6.719 4.453-10.752 4.453h-276.349c-15.707 0-28.444 12.735-28.444 28.444s12.737 28.444 28.444 28.444h276.349c19.12 0 37.461-7.595 50.978-21.115 13.522-13.52 21.117-31.857 21.117-50.977 0-134.848-53.567-264.172-148.918-359.524s-224.677-148.918-359.526-148.918c-134.848 0-264.173 53.566-359.525 148.918s-148.92 224.676-148.92 359.524c0 19.12 7.595 37.457 21.115 50.977zM429.658 440.132c15.071-4.433 23.695-20.244 19.262-35.315l-63.641-216.373h244.97l-57.714 216.651c-4.044 15.18 4.983 30.764 20.161 34.808 15.184 4.044 30.766-4.984 34.81-20.164l67.243-252.417c2.276-8.539 0.449-17.647-4.932-24.656-5.382-7.003-13.716-11.11-22.556-11.11h-319.997c-8.965 0-17.405 4.227-22.775 11.406-5.37 7.174-7.043 16.464-4.514 25.065l74.368 252.843c4.433 15.071 20.244 23.695 35.315 19.263zM486.915 948.669c-8.472-5.115-15.379-12.457-19.965-21.228l-45.534-89.609h-73.006c-10.569 0.157-20.95-2.831-29.821-8.589-8.974-5.824-15.989-14.214-20.132-24.078s-5.222-20.746-3.099-31.232c2.12-10.465 7.332-20.051 14.961-27.518l69.365-68.264-38.543-88.533c-4.307-10.348-5.26-21.786-2.725-32.704s8.43-20.766 16.856-28.157c8.426-7.392 18.958-11.955 30.113-13.046 11.088-1.085 22.236 1.314 31.894 6.859l97.493 54.917 97.465-54.902c9.654-5.564 20.799-7.982 31.892-6.914 11.179 1.075 21.732 5.634 30.174 13.033 8.448 7.399 14.353 17.263 16.885 28.2 2.537 10.937 1.576 22.395-2.753 32.754l-38.519 88.464 69.467 68.15c7.629 7.464 12.846 17.049 14.967 27.512 2.128 10.477 1.058 21.352-3.072 31.212-4.136 9.861-11.133 18.251-20.093 24.082-8.869 5.77-19.246 8.772-29.815 8.627h-73.062l-45.426 89.466c-4.536 8.796-11.399 16.178-19.843 21.341s-18.142 7.907-28.039 7.935c-9.897 0.028-19.611-2.662-28.084-7.777zM514.846 896.118l50.639-99.736c4.849-9.551 14.651-15.567 25.363-15.567h82.512l-77.261-75.795c-8.414-8.257-10.866-20.85-6.155-31.66l42.069-96.618-103.28 58.175c-8.666 4.882-19.253 4.882-27.92 0l-103.22-58.143 42.055 96.586c4.7 10.795 2.264 23.37-6.128 31.629l-77.179 75.954h82.529c10.708 0 20.508 6.013 25.358 15.559l50.619 99.616z" />
<glyph unicode="&#xe949;" glyph-name="wms-back" d="M1015.114 448c0-15.709-12.737-28.444-28.444-28.444h-949.336c-15.709 0-28.444 12.735-28.444 28.444s12.735 28.444 28.444 28.444h949.336c15.707 0 28.444-12.735 28.444-28.444zM345.822 745.064c10.896-11.316 10.557-29.323-0.759-40.219l-266.723-256.844 266.723-256.842c11.316-10.9 11.655-28.905 0.759-40.22s-28.904-11.657-40.219-0.762l-288 277.336c-5.568 5.362-8.714 12.759-8.714 20.489s3.146 15.127 8.714 20.489l288 277.333c11.316 10.896 29.323 10.557 40.219-0.759z" />
<glyph unicode="&#xe94a;" glyph-name="wms-backend-services" d="M546.117-58.311h-62.578c-22.756 0-39.822 5.689-56.889 17.067s-28.444 28.444-39.822 45.511l-28.444 73.956-91.023 51.2-73.955-11.378c-22.756 0-39.822 0-56.889 11.378s-34.133 22.756-45.511 39.822l-28.444 51.2c-11.378 17.067-17.067 39.822-11.378 56.889 0 22.756 11.378 39.822 22.756 56.889l45.511 62.579v102.399l-51.2 62.578c-11.378 11.378-17.067 34.133-22.756 56.889s5.689 39.822 11.378 56.889l28.445 51.2c17.067 17.067 28.444 28.444 45.511 39.822s39.822 11.378 56.889 11.378l79.644-11.378 91.023 51.2 28.444 73.956c5.689 17.067 22.756 34.134 39.822 45.511s34.133 17.067 56.889 17.067h62.578c22.755 0 39.821-5.689 56.888-17.067s28.444-28.444 39.822-45.511l28.444-73.956 91.022-51.2 73.956 11.378c22.756 0 39.822 0 56.889-11.378s34.133-22.756 45.511-39.822l22.756-51.2c11.378-17.067 17.067-39.822 11.378-56.889 0-22.756-11.378-39.822-22.756-56.889l-45.511-62.578v-102.399l51.2-62.579c11.378-17.067 22.756-34.133 22.756-56.889s-5.689-39.822-11.378-56.889l-28.444-51.2c-11.378-17.067-22.756-34.133-45.511-39.822-17.067-11.378-39.822-11.378-56.889-11.378l-79.644 11.378-91.022-51.2-28.444-73.956c-5.689-17.067-22.756-34.133-39.822-45.511s-34.132-17.067-51.199-17.067zM273.051 192c5.689 0 11.378 0 11.378-5.689l113.778-62.578c5.689-5.689 11.378-5.689 11.378-17.067l34.133-79.644c5.689-5.689 11.378-17.067 17.067-22.756s17.067-5.689 22.756-5.689h62.578c11.378 0 17.066 0 22.755 5.689s11.377 11.378 17.066 22.756l34.133 79.644c0 5.689 5.689 11.378 11.378 17.067l108.089 62.578c5.689 5.689 11.378 5.689 17.067 5.689l85.333-11.378c5.689 0 17.067 0 22.756 5.689s17.067 11.378 17.067 17.067l28.444 51.2c5.689 5.689 5.689 17.067 5.689 28.444s-5.689 17.067-11.378 22.756l-56.889 68.267c-5.689 5.689-5.689 11.378-5.689 17.068v119.467c0 5.689 0 11.378 5.689 17.067l62.578 68.267c5.689 5.689 11.378 17.067 11.378 22.756 0 11.378 0 17.067-5.689 28.444l-28.444 51.2c-5.689 5.689-11.378 11.378-17.067 17.067s-17.067 5.689-28.444 5.689l-85.333-11.378c-5.689 0-11.378 0-17.067 5.689l-113.778 56.889c-5.689 5.689-11.378 5.689-11.378 17.067l-34.133 79.644c-5.689 5.689-11.377 17.067-17.066 22.756s-11.378 5.689-22.756 5.689h-56.888c-11.378 0-17.067 0-22.756-5.689-11.378-11.378-17.067-17.067-22.756-22.756l-28.444-85.333c0-5.689-5.689-11.378-11.378-17.067l-108.089-56.889c-5.689-5.689-11.378-5.689-22.756-5.689l-85.333 17.067c-5.689 0-17.067 0-22.756-5.689s-17.067-11.378-17.067-17.067l-34.133-51.2c0-11.378-5.689-17.067-5.689-28.444s5.689-17.067 11.378-22.756l56.889-68.267c0-5.689 5.688-11.378 5.688-17.067v-125.157c0-5.689 0-11.378-5.688-17.067l-56.889-68.267c-5.689-5.689-11.378-17.067-11.378-22.756 0-11.378 0-17.067 5.689-28.444l28.444-51.2c5.689-5.689 11.378-11.378 17.067-17.067s17.067-5.689 22.755-5.689l96.712 17.067zM511.984 271.644c-22.756 0-45.511 5.689-68.266 11.378-34.133 11.378-56.889 34.133-79.644 62.578-17.067 34.133-28.444 68.268-28.444 102.401 0 45.511 17.067 91.022 51.2 125.156 56.889 56.889 153.599 68.267 221.866 22.756 28.444-17.067 51.2-45.511 62.578-79.644 17.067-34.133 17.067-68.267 11.378-102.4-5.689-34.134-22.756-62.579-45.511-91.023-22.756-22.756-56.889-39.822-91.021-45.511-11.378-5.689-22.756-5.689-34.134-5.689zM511.984 567.468c-34.133 0-62.577-11.378-85.333-34.133s-34.133-56.889-34.133-85.333c0-22.755 5.689-45.511 17.067-68.268 11.377-17.067 28.444-34.133 51.2-45.511 28.444-5.689 51.199-5.689 73.955 0s45.511 17.067 62.577 34.133c17.067 17.067 28.444 39.823 34.133 62.579s0 45.511-5.689 68.267c-11.378 22.756-22.756 39.822-45.511 51.2s-45.511 17.067-68.266 17.067z" />
<glyph unicode="&#xe94b;" glyph-name="wms-backspace" d="M212.524 696.969c19.3 22.517 47.475 35.475 77.131 35.475h624.646c56.104 0 101.586-45.483 101.586-101.587v-365.715c0-56.104-45.483-101.586-101.586-101.586h-624.646c-29.658 0-57.832 12.965-77.129 35.47l-156.737 182.864c-32.609 38.042-32.609 94.179 0 132.223l156.735 182.857zM289.655 675.556c-13.048 0-25.445-5.702-33.936-15.609l-156.735-182.858c-14.348-16.739-14.348-41.439 0-58.179l156.733-182.856c8.494-9.904 20.892-15.61 33.939-15.61h624.646c24.684 0 44.698 20.014 44.698 44.698v365.715c0 24.686-20.014 44.698-44.698 44.698h-624.646zM523.901 596.113c11.108 11.109 29.118 11.109 40.227 0l255.999-255.997c11.11-11.11 11.11-29.121 0-40.232-11.11-11.105-29.116-11.105-40.226 0l-256 256.003c-11.108 11.108-11.108 29.118 0 40.226zM820.127 596.113c11.11-11.108 11.11-29.118 0-40.226l-255.999-256.003c-11.109-11.105-29.119-11.105-40.227 0-11.108 11.11-11.108 29.121 0 40.232l256 255.997c11.11 11.109 29.116 11.109 40.226 0z" />
<glyph unicode="&#xe94c;" glyph-name="wms-badge" d="M256-52.622c-17.067 0-22.756 11.378-28.444 22.756l-39.822 147.911-147.911-39.822c-11.378 0-22.756 0-28.444 11.378s-5.689 22.756 0 34.133l153.6 261.689c-28.444 45.511-45.511 108.088-45.511 176.355 0 216.178 176.356 392.534 392.533 392.534s392.533-176.356 392.533-392.534c0-62.578-17.067-125.156-45.511-176.355l153.6-261.689c5.689-11.378 5.689-22.756 0-34.133s-17.067-11.378-28.444-11.378l-147.911 39.822-39.822-153.6c-5.689-11.378-11.378-17.067-22.756-22.756-11.378 0-22.756 5.689-28.444 11.378l-125.156 221.867c-62.578-17.067-136.533-17.067-204.8 0l-130.844-216.178c-5.689-5.689-17.067-11.378-28.444-11.378zM210.489 174.933c11.378 0 22.756-5.689 28.444-22.756l28.444-102.4 85.333 153.6c-62.578 28.444-113.778 68.267-159.289 125.156l-102.4-176.356 108.089 28.444c5.689-5.689 11.378-5.689 11.378-5.689zM671.289 203.378l85.333-153.6 28.444 108.089c5.689 17.067 17.067 22.756 34.133 22.756l108.089-28.444-102.4 176.356c-39.822-56.889-91.022-102.4-153.6-125.156zM415.289 237.511c62.578-17.067 130.844-17.067 193.422 0 5.689 0 11.378 5.689 11.378 5.689 73.956 28.444 130.844 79.644 170.667 142.222 0 5.689 5.689 11.377 5.689 11.377 34.133 51.2 51.2 108.089 51.2 164.978 0 182.044-147.911 335.644-335.644 335.644-182.044-5.689-335.644-153.6-335.644-335.644 0-56.889 11.378-108.089 39.822-159.289 5.689-5.689 5.689-11.377 11.378-17.066 39.822-62.578 102.4-113.778 170.667-142.222 5.689 0 11.378 0 17.067-5.689zM625.778 345.6c-5.689 0-17.067 0-22.756 5.689l-91.022 51.199-91.022-51.199c-5.689-5.689-17.067-5.689-22.756-5.689s-17.067 5.689-22.756 11.378c-5.689 5.689-11.378 11.378-17.067 22.756-5.689 5.689-5.689 17.066 0 28.444l17.067 108.089-79.644 62.578c-5.689 5.689-11.378 17.067-17.067 22.756 0 5.689 0 17.067 0 22.756s5.689 17.067 11.378 22.756c5.689 5.689 17.067 11.378 22.756 11.378l108.089 17.067 45.511 96.711c5.689 5.689 11.378 11.378 17.067 17.067 11.378 0 17.067 5.689 28.444 5.689 5.689 0 17.067 0 22.756-5.689s11.378-11.378 17.067-17.067l45.511-96.711 102.4-17.067c5.689 0 17.067-5.689 22.756-11.378 11.378-5.689 17.067-11.378 17.067-22.756s0-17.067 0-28.444c0-5.689-5.689-17.067-11.378-22.756l-73.956-68.267 17.067-108.089c0-5.688 0-17.066 0-22.755s-11.378-17.067-17.067-22.756c-5.689 0-17.067 0-28.444-5.689zM512 459.377c5.689 0 11.378 0.001 17.067-5.689l79.644-45.511-11.378 85.333c0 5.689 0 11.378 0 17.067s0 17.067 5.689 22.756l68.267 68.267-85.333 17.067c-5.689 0-17.067 0-22.756 5.689s-11.378 11.378-11.378 17.067l-39.822 79.644-39.822-79.644c0-5.689-5.689-11.378-11.378-17.067-11.378-5.689-17.067-5.689-22.756-5.689l-85.333-11.378 62.578-62.578c5.689-5.689 11.378-17.067 11.378-22.756s0-17.067 0-22.756l-17.067-85.333 79.644 39.822c11.378 5.689 17.067 5.689 22.756 5.689zM420.978 669.866c0-5.689 0-5.689 0 0v0zM432.356 675.555c-5.689 0-5.689 0 0 0v0z" />
<glyph unicode="&#xe94d;" glyph-name="wms-bar-chart" d="M3.556 32c0 15.707 12.735 28.444 28.444 28.444h960c15.707 0 28.444-12.737 28.444-28.444s-12.737-28.444-28.444-28.444h-960c-15.709 0-28.444 12.737-28.444 28.444zM85.259 490.741c11.336 11.336 26.71 17.704 42.741 17.704h128c16.031 0 31.405-6.368 42.741-17.704s17.704-26.71 17.704-42.741v-416c0-15.707-12.735-28.444-28.444-28.444h-192c-15.709 0-28.444 12.737-28.444 28.444v416c0 16.031 6.368 31.405 17.704 42.741zM128 451.556c-0.943 0-1.847-0.374-2.514-1.042s-1.042-1.571-1.042-2.514v-387.556h135.111v387.556c0 0.943-0.374 1.847-1.042 2.514s-1.571 1.042-2.514 1.042h-128zM405.259 874.741c11.336 11.336 26.71 17.704 42.741 17.704h128c16.031 0 31.403-6.368 42.741-17.704s17.704-26.71 17.704-42.741v-800c0-15.707-12.737-28.444-28.444-28.444h-192c-15.709 0-28.444 12.737-28.444 28.444v800c0 16.031 6.368 31.405 17.704 42.741zM448 835.556c-0.943 0-1.847-0.374-2.514-1.042s-1.042-1.571-1.042-2.514v-771.556h135.111v771.556c0 0.943-0.375 1.847-1.041 2.514s-1.57 1.042-2.514 1.042h-128zM725.259 682.741c11.338 11.336 26.709 17.704 42.741 17.704h128c16.031 0 31.403-6.368 42.741-17.704s17.704-26.71 17.704-42.741v-608c0-15.707-12.737-28.444-28.444-28.444h-192c-15.707 0-28.444 12.737-28.444 28.444v608c0 16.031 6.366 31.405 17.704 42.741zM768 643.556c-0.944 0-1.849-0.375-2.514-1.042s-1.041-1.571-1.041-2.514v-579.556h135.111v579.556c0 0.943-0.375 1.847-1.041 2.514s-1.57 1.042-2.514 1.042h-128z" />
<glyph unicode="&#xe94e;" glyph-name="wms-bell-slash" d="M585.978-58.311h-147.912c-17.067 0-28.444 11.378-28.444 28.444s11.378 28.444 28.444 28.444h147.912c17.067 0 28.444-11.378 28.444-28.444s-11.378-28.444-28.444-28.444zM989.889-58.311c-5.689 0-17.067 0-22.756 5.689l-950.045 955.735c-11.378 11.378-11.378 28.444 0 39.822s28.444 11.378 39.822 0l153.6-153.6c17.067 22.756 34.133 39.822 51.2 56.889 68.267 68.267 153.6 108.089 250.311 108.089s182.045-34.133 250.312-102.4c68.267-68.267 102.4-153.6 102.4-250.311v-284.446c0-22.756 11.378-51.2 28.444-68.267s34.133-28.444 56.889-28.444c17.067 0 28.444-11.378 28.444-28.444s-11.378-28.444-28.444-28.444h-113.778l170.667-170.667c11.378-11.378 11.378-28.444 0-39.822-5.689-5.689-11.378-11.378-17.067-11.378zM779.401 220.444h62.578c-22.756 28.444-34.133 56.889-34.133 91.022v284.446c0 79.644-28.444 153.6-85.333 210.489s-130.844 91.022-210.489 91.022c-79.644 0-153.6-28.444-210.489-85.333-17.067-22.756-34.133-45.511-45.511-68.267l523.378-523.379zM546.156 163.556h-472.178c-17.067 0-28.444 11.378-28.444 28.444s11.378 28.444 28.444 28.444c22.756 0 39.822 5.689 56.889 28.444 17.067 17.067 28.444 39.822 28.444 68.267v238.934c0 17.067 11.378 28.444 28.444 28.444s28.444-11.378 28.444-28.444v-244.623c0-34.133-11.378-68.267-34.133-91.022h364.089c17.067 0 28.445-11.378 28.445-28.444s-11.378-28.444-28.445-28.444z" />
</font>
</defs>
</svg>
