<?xml version="1.0" encoding="utf-8"?>
<!-- Generator: Adobe Illustrator 21.1.0, SVG Export Plug-In . SVG Version: 6.00 Build 0)  -->
<svg version="1.1" id="Layer_1" xmlns="http://www.w3.org/2000/svg" xmlns:xlink="http://www.w3.org/1999/xlink" x="0px" y="0px"
	 viewBox="0 0 24 24" style="enable-background:new 0 0 24 24;" xml:space="preserve">
<path d="M22.2,7.5l-1.1,1.1c-0.1,0-0.2-0.1-0.4-0.2V0H6.1v2.4H2.6V24h14.8v-2.4h3.5v-8.7l3,0.8L22.2,7.5z M12.6,8.4
	c-1.3,1.7-1,5.1,0.8,10l0.5-0.1c0,0-0.7-4.3,0.8-6.3c0.4-0.5,0.8-0.8,1.4-1v11.6h-12V3.7h12v3.4C14.4,7,13.3,7.5,12.6,8.4z M17.4,11
	c0.3,0.1,0.8,0.1,1.2,0.3l-0.8,0.8l1.8,0.5v7.7h-2.2V11z M7.5,2.4v-1h12v6.4c-0.5-0.2-1.3-0.4-2.2-0.5V2.4H7.5z"/>
</svg>
