<?xml version="1.0" encoding="utf-8"?>
<!-- Generator: Adobe Illustrator 21.1.0, SVG Export Plug-In . SVG Version: 6.00 Build 0)  -->
<svg version="1.1" id="Layer_1" xmlns="http://www.w3.org/2000/svg" xmlns:xlink="http://www.w3.org/1999/xlink" x="0px" y="0px"
	 viewBox="0 0 24 24" style="enable-background:new 0 0 24 24;" xml:space="preserve">
<path d="M22.3,13.3V9.4H10.7v1.8H6V9.1h4v-8H2v8h3.5v11.3h0.2v0h4.9v1.5h11.6v-3.8H10.7v1.8H6v-3.8h4.7v1.5h11.6v-3.8H10.7v1.8H6
	v-3.8h4.7v1.5H22.3z M2.5,1.6h7v7h-7V1.6z M11.2,18.6h10.6v2.8H11.2V18.6z M11.2,14.2h10.6v2.8H11.2V14.2z M11.2,9.9h10.6v2.8H11.2
	V9.9z"/>
</svg>
