<?xml version="1.0" encoding="utf-8"?>
<!-- Generator: Adobe Illustrator 21.1.0, SVG Export Plug-In . SVG Version: 6.00 Build 0)  -->
<svg version="1.1" id="Layer_1" xmlns="http://www.w3.org/2000/svg" xmlns:xlink="http://www.w3.org/1999/xlink" x="0px" y="0px"
	 viewBox="0 0 24 24" style="enable-background:new 0 0 24 24;" xml:space="preserve">
<path d="M23.8,13.4l-1.5-5.5l-0.9,0.9c0,0-0.3-0.1-0.7-0.3V0H6.2v2.4H2.6V24h14.6v-2.4h3.6v-9L23.8,13.4z M7.1,0.9h12.8v7.2
	c-0.7-0.3-1.7-0.6-2.7-0.7v-5H7.1V0.9z M16.3,21.6v1.5H3.5V3.3h2.7v0h0.9v0h9.2v4C13,7,10,8.8,13.6,18.5c0,0-1.2-7.2,2.7-7.8V21.6
	C16.3,21.6,16.3,21.6,16.3,21.6L16.3,21.6z M19.9,20.7h-2.7V10.7c0.5,0.1,1.2,0.2,1.9,0.5L18.3,12l1.6,0.4V20.7z"/>
</svg>
