<?xml version="1.0" encoding="utf-8"?>
<!-- Generator: Adobe Illustrator 21.1.0, SVG Export Plug-In . SVG Version: 6.00 Build 0)  -->
<svg version="1.1" id="Layer_1" xmlns="http://www.w3.org/2000/svg" xmlns:xlink="http://www.w3.org/1999/xlink" x="0px" y="0px"
	 viewBox="0 0 24 24" style="enable-background:new 0 0 24 24;" xml:space="preserve">
<path d="M6,6.3h0.9v1.2H6.4v0.7H5.3V7.1C5.3,6.6,5.6,6.3,6,6.3z M17.7,7.9h-1.2v1.4h1.2V7.9z M17.7,13.2h-1.2v1.4h1.2V13.2z
	 M17.7,10.5h-1.2v1.4h1.2V10.5z M5.3,10.8h1.2V9.4H5.3V10.8z M5.3,16h1.2v-1.4H5.3V16z M5.3,13.3h1.2v-1.4H5.3V13.3z M11.4,17.4h1.4
	v-1.1h-1.4V17.4z M8.6,17.4H10v-1.1H8.6V17.4z M14.5,17.7H16v-0.1h0.9c0.4,0,0.8-0.3,0.8-0.7v-1.1h-1.2v0.7h-1.9V17.7z M24,6.3V24
	H6.3v-6.3H0V0h17.7v6.3H24z M7.8,16.3v6.3h14.8V7.8h-6.4V1.5H1.4v14.8H7.8z M9.5,7.2L9.5,7.2h0.3V6.3H8.3v1.2h1.1V7.2z M12.7,6.3
	h-1.4v1.2h1.4V6.3z M15.6,6.3h-1.4v1.2h1.4V6.3z"/>
</svg>
