<?xml version="1.0" encoding="utf-8"?>
<!-- Generator: Adobe Illustrator 21.1.0, SVG Export Plug-In . SVG Version: 6.00 Build 0)  -->
<svg version="1.1" id="Layer_1" xmlns="http://www.w3.org/2000/svg" xmlns:xlink="http://www.w3.org/1999/xlink" x="0px" y="0px"
	 viewBox="0 0 24 24" style="enable-background:new 0 0 24 24;" xml:space="preserve">
<path d="M18.5,11V7.8c0-0.2-0.1-0.4-0.2-0.6c0,0,0-0.1,0-0.1c0.1-0.1,0.2-0.3,0.2-0.5V2.3C18.5,0.8,15,0,9.2,0s-9.4,0.8-9.4,2.3v4.4
	c0,0.2,0.1,0.5,0.2,0.6C0,7.3,0,7.4,0,7.5c0,0.1-0.1,0.2-0.1,0.4V11c0,0.2,0.1,0.4,0.2,0.6c0,0,0,0.1,0,0.1C0,11.8-0.1,12-0.1,12.2
	v3.2c0,0.3,0.1,0.5,0.4,0.8c1.2,1.2,5.8,1.8,11.1,1.5c0.1,3.5,3,6.4,6.5,6.4c3.6,0,6.5-2.9,6.5-6.5C24.5,14.2,21.9,11.4,18.5,11z
	 M17.3,6.6C17,6.8,15.2,7.8,9.2,7.8c-5.9,0-7.8-0.9-8.1-1.1v-3c0.7,0.3,3,1.1,8.1,1.1c5.1,0,7.3-0.7,8.1-1.1V6.6z M1.1,8.1
	c0.1,0,0.1,0,0.2,0.1C2.2,8.4,4.6,9,9.2,9c4.5,0,7-0.7,7.9-0.9c0.1,0,0.2-0.1,0.3-0.1v3c-0.8,0.1-1.6,0.3-2.4,0.7
	c-1.4,0.3-3.3,0.4-5.8,0.4c-6,0-7.8-1-8.1-1.2V8.1z M1.1,12.3L1.1,12.3c3.6,1.3,10.2,1,12,0.8c-0.9,1-1.4,2.1-1.6,3.3
	c-1.8,0.2-8.6,0.2-10.4-1.1V12.3z M9.3,3.4c-5.5,0-7.5-0.8-8-1.1c0.5-0.3,2.5-1.1,8-1.1c5.3,0,7.4,0.8,8,1.1
	C16.7,2.6,14.7,3.4,9.3,3.4z M18,23c-3,0-5.4-2.4-5.4-5.4c0-3,2.4-5.4,5.4-5.4c3,0,5.4,2.4,5.4,5.4C23.3,20.5,20.9,23,18,23z M21,17
	c0.1,0.1,0.1,0.2,0.1,0.3c0,0.1-0.2,0.2-0.5,0.3c-0.1,0.1-0.1,0.1-0.3,0.1c-0.2,0-0.3-0.1-0.3-0.2l-2.4-2.4v6.6
	c0,0.2-0.2,0.4-0.4,0.4c-0.2,0-0.4-0.2-0.4-0.4v-6.6l-2.4,2.4c-0.2,0.2-0.4,0.2-0.5,0c-0.2-0.2-0.2-0.4,0-0.5l3.2-3.2
	c0.1-0.1,0.2-0.2,0.3-0.2c0.2,0,0.3,0.1,0.3,0.2L21,17z"/>
</svg>
