<?xml version="1.0" encoding="utf-8"?>
<!-- Generator: Adobe Illustrator 21.1.0, SVG Export Plug-In . SVG Version: 6.00 Build 0)  -->
<svg version="1.1" id="Layer_1" xmlns="http://www.w3.org/2000/svg" xmlns:xlink="http://www.w3.org/1999/xlink" x="0px" y="0px"
	 viewBox="0 0 24 24" style="enable-background:new 0 0 24 24;" xml:space="preserve">
<path d="M18.3,11v-3c0-0.2-0.1-0.4-0.2-0.6c0,0,0,0,0,0c0.1-0.1,0.2-0.3,0.2-0.5V2.6c0-1.5-3.3-2.3-9.1-2.3S0,1.2,0,2.6v4.2
	c0,0.2,0.1,0.5,0.2,0.6c0,0.1,0,0.1,0,0.2c0,0.1-0.1,0.2-0.1,0.4v3c0,0.2,0.1,0.4,0.2,0.6c0,0,0,0,0,0c-0.1,0.1-0.2,0.3-0.2,0.5v3
	c0,0.3,0.1,0.6,0.4,0.8c1.4,1.3,6.5,1.7,10.7,1.5c0.1,3.4,3,6.2,6.4,6.2c3.5,0,6.4-2.9,6.4-6.4C24,14.1,21.5,11.4,18.3,11z
	 M17.6,22.4c-2.8,0-5.1-2.3-5.1-5.1c0-2.8,2.3-5.1,5.1-5.1c2.8,0,5.1,2.3,5.1,5.1C22.6,20.2,20.4,22.4,17.6,22.4z M16.8,6.7
	c-0.4,0.2-2.2,1.1-7.7,1.1c-5.8,0-7.4-0.9-7.7-1V4.1c0.8,0.3,3.1,1,7.7,1c4.6,0,6.8-0.6,7.7-1V6.7z M1.5,8.4
	C1.5,8.4,1.5,8.4,1.5,8.4c0.9,0.3,3.3,0.9,7.7,0.9c4.4,0,6.7-0.6,7.6-0.9c0.1,0,0.1,0,0.1,0V11c-0.8,0.1-1.5,0.3-2.2,0.6
	c-1.3,0.3-3.2,0.4-5.6,0.4c-5.5,0-7.3-0.9-7.7-1.1V8.4z M1.5,12.5c3.3,1.2,9,1,11.1,0.8c-0.7,0.9-1.2,1.9-1.3,2.9
	c-2,0.2-8.1,0.1-9.8-1V12.5z M9.2,3.6c-4.7,0-6.7-0.6-7.4-0.9c0.7-0.3,2.7-0.9,7.4-0.9c4.5,0,6.6,0.6,7.4,0.9
	C15.9,2.9,13.8,3.6,9.2,3.6z M20.2,16.6l0.8,0.8l-3.7,3.7l-3.7-3.7l0.8-0.8l2.4,2.4v-5.8h1.1v5.8L20.2,16.6z"/>
</svg>
