<?xml version="1.0" encoding="UTF-8"?>
<svg xmlns="http://www.w3.org/2000/svg" xmlns:xlink="http://www.w3.org/1999/xlink" width="24pt" height="24pt" viewBox="0 0 24 24" version="1.1">
<g id="surface1">
<path style=" stroke:none;fill-rule:nonzero;fill:rgb(0%,0%,0%);fill-opacity:1;" d="M 18.109375 11.128906 L 18.109375 7.855469 C 18.109375 7.636719 18 7.417969 17.890625 7.308594 C 18 7.089844 18.109375 6.980469 18.109375 6.761719 L 18.109375 2.398438 C 18.109375 1.417969 15.710938 0.21875 9.054688 0.21875 C 2.289062 0.21875 0 1.308594 0 2.398438 L 0 6.761719 C 0 6.980469 0.109375 7.199219 0.21875 7.308594 C 0.109375 7.417969 0 7.636719 0 7.855469 L 0 11.019531 C 0 11.238281 0.109375 11.453125 0.21875 11.5625 C 0.109375 11.78125 0 12 0 12.21875 L 0 15.382812 C 0 17.019531 5.5625 17.78125 11.34375 17.453125 C 11.34375 20.945312 14.183594 23.78125 17.671875 23.78125 C 21.164062 23.78125 24 20.945312 24 17.453125 C 24 14.183594 21.382812 11.453125 18.109375 11.128906 Z M 9.054688 1.089844 C 15.164062 1.089844 17.019531 2.183594 17.238281 2.289062 C 17.019531 2.507812 15.273438 3.601562 9.054688 3.601562 C 2.726562 3.601562 1.089844 2.507812 0.871094 2.398438 C 1.089844 2.183594 2.726562 1.089844 9.054688 1.089844 Z M 0.871094 3.382812 C 1.308594 3.601562 3.601562 4.472656 9.054688 4.472656 C 14.507812 4.472656 16.800781 3.601562 17.238281 3.382812 L 17.238281 6.65625 C 17.128906 6.761719 15.382812 7.964844 9.054688 7.964844 C 2.398438 7.964844 0.980469 6.871094 0.871094 6.65625 Z M 0.871094 7.855469 C 0.980469 7.855469 0.980469 7.855469 0.871094 7.855469 C 1.417969 7.964844 3.710938 8.835938 9.054688 8.835938 C 14.289062 8.835938 16.691406 7.964844 17.128906 7.746094 C 17.238281 7.746094 17.238281 7.855469 17.238281 7.855469 L 17.238281 11.128906 C 16.363281 11.238281 15.601562 11.453125 14.835938 11.78125 C 13.308594 12.109375 11.128906 12.21875 9.054688 12.21875 C 2.726562 12.21875 0.980469 11.128906 0.871094 10.910156 Z M 0.871094 15.382812 L 0.871094 12.328125 C 0.871094 12.328125 0.871094 12.328125 0.980469 12.21875 C 4.691406 13.746094 11.890625 13.199219 13.199219 13.089844 C 12.21875 14.074219 11.5625 15.273438 11.34375 16.691406 C 9.816406 16.691406 2.617188 16.691406 0.871094 15.382812 Z M 17.671875 22.910156 C 14.726562 22.910156 12.21875 20.507812 12.21875 17.453125 C 12.21875 14.507812 14.617188 12 17.671875 12 C 20.617188 12 23.128906 14.398438 23.128906 17.453125 C 23.128906 20.507812 20.617188 22.910156 17.671875 22.910156 Z M 17.671875 22.910156 "/>
<path style=" stroke:none;fill-rule:nonzero;fill:rgb(0%,0%,0%);fill-opacity:1;" d="M 17.128906 19.351562 C 17.128906 19.351562 17.019531 19.351562 17.019531 19.351562 L 15.601562 18.042969 C 15.492188 17.933594 15.492188 17.824219 15.601562 17.824219 C 15.710938 17.714844 15.816406 17.714844 15.816406 17.824219 L 17.019531 18.914062 L 17.019531 13.351562 C 17.019531 13.242188 17.128906 13.132812 17.238281 13.132812 C 17.34375 13.132812 17.453125 13.242188 17.453125 13.351562 L 17.453125 18.914062 L 18.65625 17.824219 C 18.761719 17.714844 18.871094 17.714844 18.871094 17.824219 C 18.980469 17.933594 18.980469 18.042969 18.871094 18.042969 L 17.453125 19.351562 C 17.238281 19.351562 17.238281 19.351562 17.128906 19.351562 Z M 14.289062 18.367188 C 14.183594 18.367188 14.183594 18.476562 14.183594 18.585938 L 14.183594 20.332031 C 14.183594 20.441406 14.289062 20.550781 14.398438 20.550781 L 19.964844 20.550781 C 20.074219 20.550781 20.183594 20.441406 20.183594 20.332031 L 20.183594 18.585938 C 20.183594 18.476562 20.074219 18.367188 19.964844 18.367188 C 19.855469 18.367188 19.746094 18.476562 19.746094 18.585938 L 19.746094 20.113281 L 14.507812 20.113281 L 14.507812 18.585938 C 14.507812 18.476562 14.398438 18.367188 14.289062 18.367188 C 14.398438 18.367188 14.289062 18.367188 14.289062 18.367188 Z M 14.289062 18.367188 "/>
</g>
</svg>
