<?xml version="1.0" encoding="UTF-8"?>
<svg xmlns="http://www.w3.org/2000/svg" xmlns:xlink="http://www.w3.org/1999/xlink" width="24pt" height="24pt" viewBox="0 0 24 24" version="1.1">
<g id="surface1">
<path style=" stroke:none;fill-rule:nonzero;fill:rgb(0%,0%,0%);fill-opacity:1;" d="M 23.890625 12.042969 C 23.890625 18.476562 18.65625 23.714844 12.21875 23.714844 C 5.78125 23.714844 0.546875 18.476562 0.546875 12.042969 C 0.546875 9.203125 1.746094 6.476562 3.382812 4.40625 L 0.65625 4.949219 C 0.328125 5.058594 0 4.839844 0 4.515625 C 0 4.1875 0.21875 3.859375 0.4375 3.859375 C 0.4375 3.859375 4.800781 2.988281 4.800781 2.988281 C 5.128906 2.988281 5.34375 3.203125 5.453125 3.421875 L 6 7.785156 C 6 8.113281 5.78125 8.332031 5.5625 8.441406 C 5.238281 8.441406 5.019531 8.222656 4.910156 8.003906 L 4.472656 4.839844 C 2.835938 6.804688 1.636719 9.421875 1.636719 12.042969 C 1.636719 17.933594 6.328125 22.625 12.21875 22.625 C 18.109375 22.625 22.800781 17.933594 22.800781 12.042969 C 22.800781 6.148438 18.109375 1.460938 12.21875 1.460938 C 11.890625 1.460938 11.671875 1.242188 11.671875 0.914062 C 11.671875 0.585938 11.890625 0.367188 12.21875 0.367188 C 18.65625 0.257812 23.890625 5.496094 23.890625 12.042969 Z M 23.890625 12.042969 "/>
</g>
</svg>
