<?xml version="1.0" encoding="utf-8"?>
<!-- Generator: Adobe Illustrator 21.1.0, SVG Export Plug-In . SVG Version: 6.00 Build 0)  -->
<svg version="1.1" id="Layer_1" xmlns="http://www.w3.org/2000/svg" xmlns:xlink="http://www.w3.org/1999/xlink" x="0px" y="0px"
	 viewBox="0 0 24 24" style="enable-background:new 0 0 24 24;" xml:space="preserve">
<path d="M22.6,1.3c-0.8-0.8-1.9-1.3-3-1.3c-2,0-3.7,1.4-4.2,3.4c-1.5-0.2-3.2-0.3-4.7-0.3c-1,0-9.4,0.1-9.4,2.7v15.4
	c0,2.6,8.4,2.7,9.4,2.7s9.4-0.1,9.4-2.7V8.4c2.1-0.3,3.6-2,3.6-4.2C23.7,3.1,23.3,2.1,22.6,1.3z M18.9,10.9c-0.1,0.4-3,1.4-8.2,1.4
	c-5.3,0-8-1.1-8.2-1.4V7.3c1.9,0.9,5.6,1.2,8.2,1.2c1.9,0,4.6-0.1,6.6-0.6c0.4,0.3,1,0.5,1.6,0.6V10.9z M2.5,16.1v-3.7
	c1.9,0.9,5.6,1.2,8.2,1.2s6.3-0.3,8.2-1.2v3.7c-0.1,0.4-3,1.4-8.2,1.4C5.4,17.5,2.6,16.4,2.5,16.1z M2.5,17.6
	c1.9,0.9,5.6,1.2,8.2,1.2s6.3-0.3,8.2-1.2v3.7c-0.1,0.4-3,1.4-8.2,1.4c-5.3,0-8-1.1-8.2-1.4V17.6z M10.7,7.2c-5.2,0-7.9-1.1-8.2-1.4
	c0.3-0.5,3.1-1.5,8.2-1.4h0c1.8,0,3.4,0.1,4.5,0.3c0.1,0.8,0.4,1.5,0.9,2.1C14.9,7,13.1,7.2,10.7,7.2z M19.6,1.3c1.7,0,3,1.3,3,3
	c-0.1,1.6-1.5,2.9-3,2.9c-1.7,0-3-1.3-3-3C16.6,2.6,17.9,1.3,19.6,1.3z M19.9,6.3c0,0.2-0.2,0.3-0.3,0.3c-0.2,0-0.3-0.2-0.3-0.3
	c0-0.2,0.2-0.3,0.3-0.3C19.7,6,19.9,6.1,19.9,6.3z M18.1,3.1C18.3,2.4,18.9,2,19.6,2c0.4,0,0.7,0.1,1,0.4C20.7,2.5,21,2.9,21,3.3
	c0,0.4-0.1,0.6-0.2,0.8l0,0c-0.1,0.1-0.2,0.1-0.2,0.2c-0.1,0-0.2,0.1-0.2,0.1c0,0-0.1,0.1-0.1,0.1c-0.1,0-0.1,0.1-0.2,0.2
	c0,0.1,0,0.2,0,0.3c0,0.1-0.1,0.3-0.1,0.6c0,0.1-0.1,0.2-0.2,0.2c0,0-0.1,0-0.1,0c0,0-0.1,0-0.1,0c-0.1,0-0.2-0.1-0.2-0.3
	c0-0.5,0.1-0.8,0.2-1c0.1-0.2,0.2-0.3,0.3-0.4c0,0,0.1-0.1,0.1-0.1c0.1-0.1,0.2-0.2,0.3-0.3c0,0,0-0.1,0-0.1c0-0.1,0.1-0.2,0.1-0.4
	c0-0.1-0.1-0.3-0.3-0.4l0,0c-0.1-0.1-0.4-0.2-0.6-0.2c-0.4,0-0.8,0.4-0.8,0.7c0,0.2-0.2,0.2-0.3,0.2C18.1,3.5,18.1,3.3,18.1,3.1z"/>
</svg>
