<?xml version="1.0" encoding="UTF-8"?>
<svg xmlns="http://www.w3.org/2000/svg" xmlns:xlink="http://www.w3.org/1999/xlink" width="24pt" height="24pt" viewBox="0 0 24 24" version="1.1">
<g id="surface1">
<path style=" stroke:none;fill-rule:nonzero;fill:rgb(0%,0%,0%);fill-opacity:1;" d="M 21.054688 3.492188 L 20.289062 4.253906 L 21.054688 5.019531 C 21.273438 5.238281 21.273438 5.5625 21.054688 5.78125 C 20.835938 6 20.507812 6 20.289062 5.78125 L 19.636719 4.910156 L 18.871094 5.671875 C 18.65625 5.890625 18.328125 5.890625 18.109375 5.671875 C 17.890625 5.453125 17.890625 5.128906 18.109375 4.910156 L 18.871094 4.144531 L 18.109375 3.382812 C 17.890625 3.164062 17.890625 2.835938 18.109375 2.617188 C 18.328125 2.398438 18.65625 2.398438 18.871094 2.617188 L 19.636719 3.492188 L 20.398438 2.726562 C 20.617188 2.507812 20.945312 2.507812 21.164062 2.726562 C 21.273438 2.945312 21.273438 3.273438 21.054688 3.492188 Z M 20.074219 8.289062 L 20.074219 21.382812 C 20.074219 23.453125 14.183594 24 10.691406 24 C 7.199219 24 1.308594 23.453125 1.308594 21.382812 L 1.308594 5.78125 C 1.308594 3.710938 7.199219 3.164062 10.691406 3.164062 C 12 3.164062 13.855469 3.273438 15.492188 3.492188 C 15.816406 1.417969 17.453125 0 19.636719 0 C 21.925781 0 23.78125 1.855469 23.78125 4.144531 C 23.78125 6.328125 22.144531 8.074219 20.074219 8.289062 Z M 2.398438 5.78125 C 2.507812 6.21875 5.453125 7.308594 10.691406 7.308594 C 13.089844 7.308594 14.945312 7.089844 16.363281 6.871094 C 15.816406 6.21875 15.492188 5.453125 15.382812 4.582031 C 14.183594 4.363281 12.546875 4.253906 10.691406 4.253906 C 5.453125 4.144531 2.507812 5.238281 2.398438 5.78125 Z M 2.398438 7.089844 L 2.398438 10.910156 C 2.507812 11.453125 5.5625 12.4375 10.800781 12.4375 C 16.035156 12.4375 19.089844 11.34375 19.199219 10.910156 L 19.199219 8.289062 C 18.546875 8.183594 18 7.964844 17.453125 7.636719 C 15.492188 8.183594 12.761719 8.289062 10.800781 8.289062 C 8.074219 8.398438 4.144531 8.074219 2.398438 7.089844 Z M 2.398438 16.144531 C 2.507812 16.691406 5.5625 17.671875 10.800781 17.671875 C 16.035156 17.671875 19.089844 16.582031 19.199219 16.144531 L 19.199219 12.21875 C 17.34375 13.199219 13.417969 13.527344 10.800781 13.527344 C 8.183594 13.527344 4.253906 13.199219 2.398438 12.21875 Z M 19.089844 21.382812 L 19.089844 17.453125 C 17.238281 18.4375 13.308594 18.761719 10.691406 18.761719 C 8.074219 18.761719 4.144531 18.4375 2.289062 17.453125 L 2.289062 21.382812 C 2.507812 21.925781 5.453125 22.910156 10.691406 22.910156 C 15.925781 22.910156 18.980469 21.925781 19.089844 21.382812 Z M 22.691406 4.144531 C 22.691406 2.398438 21.273438 1.089844 19.636719 1.089844 C 18 1.089844 16.472656 2.507812 16.472656 4.253906 C 16.472656 6 17.890625 7.417969 19.636719 7.417969 C 21.273438 7.308594 22.691406 5.890625 22.691406 4.144531 Z M 22.691406 4.144531 "/>
</g>
</svg>
