<?xml version="1.0" encoding="UTF-8"?>
<svg xmlns="http://www.w3.org/2000/svg" xmlns:xlink="http://www.w3.org/1999/xlink" width="24pt" height="24pt" viewBox="0 0 24 24" version="1.1">
<g id="surface1">
<path style=" stroke:none;fill-rule:nonzero;fill:rgb(0%,0%,0%);fill-opacity:1;" d="M 19.636719 0 C 17.5625 0 15.925781 1.417969 15.492188 3.492188 C 13.855469 3.273438 12.109375 3.164062 10.691406 3.164062 C 7.199219 3.164062 1.308594 3.710938 1.308594 5.78125 L 1.308594 21.382812 C 1.308594 23.453125 7.199219 24 10.691406 24 C 14.183594 24 20.074219 23.453125 20.074219 21.382812 L 20.074219 8.289062 C 22.144531 8.074219 23.671875 6.328125 23.671875 4.144531 C 23.78125 1.855469 21.925781 0 19.636719 0 Z M 10.691406 4.253906 C 12.546875 4.253906 14.183594 4.363281 15.382812 4.582031 C 15.492188 5.453125 15.816406 6.21875 16.363281 6.871094 C 14.945312 7.089844 13.089844 7.308594 10.691406 7.308594 C 5.453125 7.308594 2.398438 6.21875 2.289062 5.78125 C 2.507812 5.238281 5.453125 4.144531 10.691406 4.253906 Z M 19.089844 21.382812 C 18.980469 21.925781 15.925781 22.910156 10.691406 22.910156 C 5.453125 22.910156 2.398438 21.816406 2.289062 21.382812 L 2.289062 17.453125 C 4.144531 18.4375 8.074219 18.761719 10.691406 18.761719 C 13.308594 18.761719 17.238281 18.4375 19.089844 17.453125 Z M 19.089844 16.144531 C 18.980469 16.691406 15.925781 17.671875 10.691406 17.671875 C 5.453125 17.671875 2.398438 16.582031 2.289062 16.144531 L 2.289062 12.21875 C 4.144531 13.199219 8.074219 13.527344 10.691406 13.527344 C 13.308594 13.527344 17.238281 13.199219 19.089844 12.21875 Z M 19.089844 10.910156 C 18.980469 11.453125 15.925781 12.4375 10.691406 12.4375 C 5.453125 12.4375 2.398438 11.34375 2.289062 10.910156 L 2.289062 7.089844 C 4.144531 8.074219 8.074219 8.398438 10.691406 8.398438 C 12.65625 8.398438 15.382812 8.289062 17.34375 7.746094 C 17.78125 8.074219 18.4375 8.289062 19.089844 8.398438 Z M 19.636719 7.308594 C 17.890625 7.308594 16.472656 5.890625 16.472656 4.144531 C 16.472656 2.398438 17.890625 1.089844 19.636719 1.089844 C 21.382812 1.089844 22.800781 2.507812 22.800781 4.253906 C 22.691406 5.890625 21.273438 7.308594 19.636719 7.308594 Z M 19.636719 7.308594 "/>
<path style=" stroke:none;fill-rule:nonzero;fill:rgb(0%,0%,0%);fill-opacity:1;" d="M 19.855469 6.257812 C 19.855469 6.367188 19.746094 6.476562 19.636719 6.476562 C 19.527344 6.476562 19.417969 6.367188 19.417969 6.257812 C 19.417969 6.148438 19.527344 6.042969 19.636719 6.042969 C 19.746094 6.042969 19.855469 6.148438 19.855469 6.257812 Z M 18.4375 3.3125 C 18.546875 3.3125 18.65625 3.3125 18.65625 3.203125 C 18.761719 2.878906 19.199219 2.441406 19.636719 2.441406 C 19.855469 2.441406 20.183594 2.550781 20.289062 2.660156 C 20.507812 2.769531 20.617188 2.988281 20.617188 3.203125 C 20.617188 3.53125 20.507812 3.640625 20.507812 3.75 C 20.398438 3.859375 20.289062 3.96875 20.183594 4.078125 C 20.074219 4.1875 19.855469 4.296875 19.746094 4.515625 C 19.636719 4.730469 19.527344 5.058594 19.527344 5.496094 C 19.527344 5.605469 19.636719 5.714844 19.746094 5.605469 C 19.855469 5.605469 19.855469 5.496094 19.855469 5.496094 C 19.855469 5.058594 19.964844 4.839844 19.964844 4.625 C 20.074219 4.40625 20.183594 4.40625 20.289062 4.296875 C 20.398438 4.1875 20.617188 4.078125 20.726562 3.96875 C 20.835938 3.75 20.945312 3.53125 20.945312 3.203125 C 20.945312 2.878906 20.726562 2.550781 20.507812 2.332031 C 20.289062 2.113281 19.964844 2.003906 19.636719 2.003906 C 18.980469 2.003906 18.4375 2.441406 18.328125 2.988281 C 18.328125 3.203125 18.328125 3.3125 18.4375 3.3125 Z M 18.4375 3.3125 "/>
</g>
</svg>
