<?xml version="1.0" encoding="UTF-8"?>
<svg xmlns="http://www.w3.org/2000/svg" xmlns:xlink="http://www.w3.org/1999/xlink" width="24pt" height="24pt" viewBox="0 0 24 24" version="1.1">
<g id="surface1">
<path style=" stroke:none;fill-rule:nonzero;fill:rgb(0%,0%,0%);fill-opacity:1;" d="M 4.253906 4.253906 C 6.328125 2.183594 9.054688 1.089844 12 1.089844 C 14.507812 1.089844 16.910156 1.964844 18.871094 3.492188 L 17.671875 3.601562 C 17.34375 3.601562 17.128906 3.925781 17.238281 4.144531 C 17.238281 4.472656 17.453125 4.582031 17.78125 4.582031 C 17.78125 4.582031 17.78125 4.582031 17.890625 4.582031 L 20.289062 4.363281 C 20.289062 4.363281 20.398438 4.363281 20.398438 4.363281 C 20.507812 4.363281 20.507812 4.253906 20.507812 4.253906 C 20.507812 4.253906 20.617188 4.144531 20.617188 4.035156 C 20.617188 3.925781 20.617188 3.925781 20.617188 3.816406 C 20.617188 3.816406 20.617188 3.816406 20.617188 3.710938 L 20.398438 1.308594 C 20.398438 0.980469 20.074219 0.761719 19.855469 0.871094 C 19.527344 0.871094 19.308594 1.199219 19.417969 1.417969 L 19.527344 2.507812 C 17.34375 0.871094 14.726562 0 12 0 C 8.835938 0 5.78125 1.199219 3.492188 3.492188 C 0 7.089844 -0.980469 12.4375 1.089844 17.019531 C 1.199219 17.238281 1.417969 17.34375 1.636719 17.34375 C 1.746094 17.34375 1.746094 17.34375 1.855469 17.34375 C 2.074219 17.238281 2.289062 16.910156 2.074219 16.582031 C 0.21875 12.4375 1.089844 7.527344 4.253906 4.253906 Z M 22.910156 7.089844 C 22.800781 6.761719 22.472656 6.65625 22.144531 6.871094 C 21.816406 6.980469 21.710938 7.308594 21.925781 7.636719 C 23.78125 11.78125 22.910156 16.691406 19.636719 19.855469 C 15.710938 23.78125 9.382812 24.109375 5.128906 20.617188 L 6.328125 20.507812 C 6.65625 20.507812 6.871094 20.183594 6.761719 19.964844 C 6.761719 19.636719 6.4375 19.417969 6.21875 19.527344 L 3.816406 19.746094 C 3.816406 19.746094 3.816406 19.746094 3.710938 19.746094 C 3.710938 19.746094 3.601562 19.746094 3.601562 19.746094 C 3.601562 19.746094 3.601562 19.746094 3.492188 19.746094 C 3.492188 19.746094 3.382812 19.746094 3.382812 19.855469 C 3.273438 19.964844 3.273438 20.074219 3.273438 20.289062 L 3.492188 22.691406 C 3.492188 23.019531 3.710938 23.128906 4.035156 23.128906 C 4.035156 23.128906 4.035156 23.128906 4.144531 23.128906 C 4.472656 23.128906 4.691406 22.800781 4.582031 22.582031 L 4.472656 21.492188 C 6.65625 23.238281 9.273438 24.109375 11.890625 24.109375 C 14.945312 24.109375 18 22.910156 20.398438 20.617188 C 24 17.019531 24.980469 11.5625 22.910156 7.089844 Z M 22.910156 7.089844 "/>
</g>
</svg>
