<?xml version="1.0" encoding="UTF-8"?>
<svg xmlns="http://www.w3.org/2000/svg" xmlns:xlink="http://www.w3.org/1999/xlink" width="24pt" height="24pt" viewBox="0 0 24 24" version="1.1">
<g id="surface1">
<path style=" stroke:none;fill-rule:nonzero;fill:rgb(0%,0%,0%);fill-opacity:1;" d="M 18.21875 10.910156 L 18.21875 7.636719 C 18.21875 7.417969 18.109375 7.199219 18 7.089844 C 18.109375 6.871094 18.21875 6.761719 18.21875 6.546875 L 18.21875 2.289062 C 18.21875 1.308594 15.925781 0.21875 9.273438 0.21875 C 2.617188 0.21875 0.328125 1.308594 0.328125 2.289062 L 0.328125 6.546875 C 0.328125 6.761719 0.4375 6.980469 0.546875 7.089844 C 0.546875 7.308594 0.4375 7.527344 0.4375 7.746094 L 0.4375 10.800781 C 0.4375 11.019531 0.546875 11.238281 0.65625 11.34375 C 0.546875 11.5625 0.4375 11.671875 0.4375 11.890625 L 0.4375 14.945312 C 0.4375 16.582031 5.890625 17.34375 11.5625 17.019531 C 11.5625 20.398438 14.289062 23.238281 17.78125 23.238281 C 21.164062 23.238281 24 20.507812 24 17.019531 C 24 13.855469 21.492188 11.238281 18.21875 10.910156 Z M 9.382812 1.089844 C 15.382812 1.089844 17.238281 2.183594 17.34375 2.289062 C 17.238281 2.398438 15.492188 3.492188 9.382812 3.492188 C 3.164062 3.492188 1.527344 2.398438 1.417969 2.289062 C 1.527344 2.183594 3.164062 1.089844 9.382812 1.089844 Z M 1.308594 3.382812 C 1.746094 3.601562 3.925781 4.472656 9.273438 4.472656 C 14.726562 4.472656 16.800781 3.601562 17.238281 3.382812 L 17.238281 6.546875 C 17.128906 6.65625 15.492188 7.746094 9.273438 7.746094 C 2.726562 7.746094 1.308594 6.65625 1.308594 6.546875 Z M 1.308594 7.746094 C 1.308594 7.746094 1.417969 7.636719 1.308594 7.746094 C 1.855469 7.855469 4.144531 8.726562 9.273438 8.726562 C 14.398438 8.726562 16.691406 7.855469 17.238281 7.746094 C 17.34375 7.746094 17.34375 7.855469 17.34375 7.855469 L 17.34375 10.910156 C 16.472656 11.019531 15.710938 11.238281 14.945312 11.5625 C 13.417969 11.890625 11.34375 12 9.273438 12 C 3.054688 12 1.417969 10.910156 1.308594 10.800781 Z M 1.308594 15.054688 L 1.308594 12 C 1.308594 12 1.308594 12 1.417969 11.890625 C 5.019531 13.308594 12.21875 12.871094 13.417969 12.65625 C 12.4375 13.636719 11.78125 14.835938 11.671875 16.144531 C 10.035156 16.363281 3.054688 16.363281 1.308594 15.054688 Z M 17.78125 22.472656 C 14.835938 22.472656 12.4375 20.074219 12.4375 17.128906 C 12.4375 14.183594 14.835938 11.78125 17.78125 11.78125 C 20.726562 11.78125 23.128906 14.183594 23.128906 17.128906 C 23.128906 20.074219 20.726562 22.472656 17.78125 22.472656 Z M 17.78125 22.472656 "/>
<path style=" stroke:none;fill-rule:nonzero;fill:rgb(0%,0%,0%);fill-opacity:1;" d="M 20.617188 16.691406 L 17.5625 13.636719 C 17.5625 13.636719 17.453125 13.527344 17.34375 13.527344 C 17.238281 13.527344 17.238281 13.527344 17.128906 13.636719 L 14.074219 16.691406 C 13.964844 16.800781 13.964844 16.910156 14.074219 17.019531 C 14.183594 17.128906 14.289062 17.128906 14.398438 17.019531 L 16.910156 14.507812 L 16.910156 21.164062 C 16.910156 21.273438 17.019531 21.382812 17.128906 21.382812 C 17.238281 21.382812 17.34375 21.273438 17.34375 21.164062 L 17.34375 14.507812 L 19.855469 17.019531 C 19.855469 17.019531 19.964844 17.128906 20.074219 17.128906 C 20.183594 17.128906 20.183594 17.128906 20.289062 17.019531 C 20.726562 16.910156 20.726562 16.800781 20.617188 16.691406 Z M 20.617188 16.691406 "/>
</g>
</svg>
