<?xml version="1.0" encoding="utf-8"?>
<!-- Generator: Adobe Illustrator 21.1.0, SVG Export Plug-In . SVG Version: 6.00 Build 0)  -->
<svg version="1.1" id="Layer_1" xmlns="http://www.w3.org/2000/svg" xmlns:xlink="http://www.w3.org/1999/xlink" x="0px" y="0px"
	 viewBox="0 0 24 24" style="enable-background:new 0 0 24 24;" xml:space="preserve">
<path d="M18,3.6c-0.3-0.3-0.3-0.7,0-0.9c0.1-0.1,0.3-0.2,0.5-0.2c0,0,0,0,0,0c0.2,0,0.3,0.1,0.5,0.2l0.7,0.8l0.7-0.7
	c0.3-0.3,0.7-0.3,0.9,0l0,0c0.1,0.2,0.1,0.6-0.1,0.9h0l-0.7,0.7L21.1,5c0.3,0.3,0.3,0.7,0,0.9c-0.1,0.1-0.3,0.2-0.5,0.2
	c-0.2,0-0.3-0.1-0.5-0.2l-0.6-0.8l-0.7,0.7C18.8,6,18.6,6,18.4,6c0,0,0,0,0,0C18.3,6,18.1,6,18,5.8c-0.3-0.3-0.3-0.7,0-0.9l0.7-0.7
	L18,3.6z M23.8,4.2c0,2.1-1.6,3.9-3.7,4.2v12.8c0,2.6-8.4,2.7-9.4,2.7s-9.4-0.1-9.4-2.7V5.8c0-2.6,8.4-2.7,9.4-2.7
	c1.4,0,3.2,0.1,4.6,0.3C15.7,1.4,17.4,0,19.6,0C21.9,0,23.8,1.9,23.8,4.2z M2.5,21.3c0.2,0.4,2.9,1.4,8.2,1.4c5.2,0,8.1-1,8.2-1.4
	v-3.7c-1.9,0.9-5.6,1.2-8.2,1.2s-6.3-0.3-8.2-1.2V21.3z M16.1,6.8c-0.5-0.6-0.7-1.3-0.9-2.1c-1.2-0.2-2.7-0.3-4.5-0.3
	c-5.2-0.1-7.9,1-8.1,1.4c0.2,0.3,2.9,1.4,8.1,1.4C13.1,7.2,14.9,7,16.1,6.8z M2.6,16.1c0.1,0.4,3,1.4,8.2,1.4c5.3,0,8.1-1.1,8.2-1.4
	l0-3.7c-1.9,0.9-5.6,1.2-8.2,1.2c-2.6,0-6.3-0.3-8.2-1.2V16.1z M19,8.4c-0.6-0.1-1.1-0.3-1.6-0.6c-1.5,0.4-3.8,0.6-6.6,0.6
	C8,8.6,4.4,8.2,2.6,7.3v3.6c0.1,0.4,3,1.4,8.2,1.4c5.3,0,8-1.1,8.2-1.4V8.4z M16.6,4.3c0,1.7,1.3,3,3,3c1.6-0.1,2.9-1.5,2.9-3.1
	c0-1.6-1.3-2.9-2.9-2.9C18,1.3,16.6,2.7,16.6,4.3z"/>
</svg>
