<?xml version="1.0" encoding="utf-8"?>
<!-- Generator: Adobe Illustrator 21.1.0, SVG Export Plug-In . SVG Version: 6.00 Build 0)  -->
<svg version="1.1" id="Layer_1" xmlns="http://www.w3.org/2000/svg" xmlns:xlink="http://www.w3.org/1999/xlink" x="0px" y="0px"
	 viewBox="0 0 24 24" style="enable-background:new 0 0 24 24;" xml:space="preserve">
<path d="M20.4,20.6c-2.3,2.2-5.4,3.5-8.5,3.5c-2.6,0-5.1-0.9-7.2-2.4l0.1,0.8c0.1,0.1,0,0.3,0,0.4c-0.1,0.2-0.3,0.3-0.5,0.3H4.2
	c-0.5,0-0.7-0.3-0.7-0.6l-0.2-2.4c0-0.2,0-0.4,0.1-0.5c0-0.1,0.1-0.2,0.2-0.2h0.3l2.3-0.2c0.1-0.1,0.3,0,0.4,0
	C6.8,19.4,7,19.6,7,19.8c0.1,0.1,0,0.3,0,0.4c-0.1,0.2-0.3,0.3-0.5,0.3l-0.9,0.1c4.1,3.2,10.2,2.8,13.9-0.9
	c3.2-3.1,4.1-7.8,2.2-11.9c-0.1-0.2-0.2-0.4-0.1-0.6c0.1-0.2,0.2-0.3,0.4-0.3c0.2-0.1,0.4-0.2,0.6-0.1c0.2,0.1,0.3,0.2,0.4,0.4
	C24.9,11.6,23.9,17,20.4,20.6z M4.5,4.5c2-2,4.7-3.1,7.5-3.1c2.3,0,4.6,0.8,6.4,2.1l-0.9,0.1c-0.2,0-0.4,0.1-0.5,0.3
	C17,4,17,4.2,17,4.3c0,0.2,0.1,0.5,0.7,0.5l2.5-0.2h0.1c0.1,0,0.2-0.1,0.2-0.2c0-0.1,0.1-0.2,0.1-0.3V3.9l-0.2-2.5
	c0-0.2-0.1-0.4-0.3-0.5c-0.1-0.1-0.3-0.1-0.4,0c-0.2,0-0.4,0.1-0.5,0.3c-0.1,0.1-0.1,0.3,0,0.4l0.1,0.8c-2.1-1.5-4.6-2.3-7.3-2.3
	c-3.2,0-6.2,1.2-8.5,3.5C0,7.2-0.9,12.4,1.1,17c0.1,0.2,0.4,0.4,0.6,0.4H2l0,0c0.2-0.1,0.3-0.2,0.4-0.4c0-0.2,0-0.3-0.1-0.5
	C0.5,12.5,1.4,7.6,4.5,4.5z"/>
</svg>
