<?xml version="1.0" encoding="utf-8"?>
<!-- Generator: Adobe Illustrator 21.1.0, SVG Export Plug-In . SVG Version: 6.00 Build 0)  -->
<svg version="1.1" id="Layer_1" xmlns="http://www.w3.org/2000/svg" xmlns:xlink="http://www.w3.org/1999/xlink" x="0px" y="0px"
	 viewBox="0 0 24 24" style="enable-background:new 0 0 24 24;" xml:space="preserve">
<path d="M18.2,10.9v-3c0-0.2-0.1-0.4-0.2-0.6c0,0,0,0,0,0c0.1-0.1,0.2-0.3,0.2-0.5V2.6c0-1.2-2.4-2.4-9.1-2.4C3.2,0.2,0,1.1,0,2.6
	v4.3c0,0.2,0.1,0.4,0.2,0.5C0.1,7.6,0,7.7,0,7.9V11c0,0.2,0.1,0.4,0.2,0.6C0.1,11.8,0,12,0,12.2v3.1c0,0.3,0.1,0.6,0.4,0.8
	c1.4,1.3,6.5,1.7,10.7,1.5c0.1,3.4,3,6.2,6.4,6.2c3.6,0,6.4-2.9,6.4-6.4C24,14.1,21.5,11.4,18.2,10.9z M17.6,22.4
	c-2.8,0-5.1-2.3-5.1-5.1c0-2.8,2.3-5.1,5.1-5.1c2.8,0,5.1,2.3,5.1,5.1C22.7,20.2,20.4,22.4,17.6,22.4z M9.1,3.5
	c-4.4,0-6.6-0.5-7.5-1c0.7-0.3,2.7-1,7.5-1c4.3,0,6.5,0.6,7.5,1C15.9,2.9,13.9,3.5,9.1,3.5z M16.9,6.6c-0.4,0.2-2.3,1.2-7.8,1.2
	c-6.2,0-7.6-1-7.8-1.1V3.9c0.8,0.3,3.1,0.9,7.8,0.9s6.9-0.6,7.8-0.9V6.6z M16.9,8.2v2.8c-0.8,0.1-1.5,0.3-2.2,0.6
	c-1.6,0.4-3.9,0.4-5.6,0.4c-5.5,0-7.5-0.9-7.8-1.1V8.3c0,0,0,0,0,0c0.9,0.2,3.2,0.9,7.7,0.9C13.9,9.1,16.2,8.4,16.9,8.2z M1.3,12.5
	c3.3,1.2,8.8,1,11.2,0.8c-0.7,0.9-1.2,1.9-1.4,3c-5.2,0-8.7-0.4-9.8-1.2V12.5z M15.4,18.1c-0.1-0.1-0.2-0.3-0.1-0.4
	c0-0.1,0.1-0.1,0.2-0.2c0.1-0.1,0.3-0.1,0.4-0.1c0.1,0,0.1,0.1,0.2,0.2l0.7,0.6v-4.9c0-0.2,0.2-0.5,0.5-0.5c0.2,0,0.5,0.2,0.5,0.5
	v4.9l0.8-0.7c0.1-0.1,0.3-0.2,0.4-0.1c0.1,0,0.1,0.1,0.2,0.2c0.1,0.1,0.1,0.3,0.1,0.4c0,0.1-0.1,0.1-0.2,0.2l-1.4,1.3h-0.6
	L15.4,18.1z M20.3,18.5v1.7c0,0.2-0.2,0.5-0.5,0.5h-5.5c-0.2,0-0.5-0.2-0.5-0.5v-1.7c0-0.4,0.2-0.5,0.3-0.5l0,0
	c0.2,0,0.4,0.2,0.4,0.5v1.3h4.6v-1.3c0-0.2,0.2-0.5,0.5-0.5S20.3,18.2,20.3,18.5z"/>
</svg>
