<svg xmlns="http://www.w3.org/2000/svg" width="18" height="19" viewBox="0 0 18 19">
  <metadata><?xpacket begin="﻿" id="W5M0MpCehiHzreSzNTczkc9d"?>
<x:xmpmeta xmlns:x="adobe:ns:meta/" x:xmptk="Adobe XMP Core 5.6-c140 79.160451, 2017/05/06-01:08:21        ">
   <rdf:RDF xmlns:rdf="http://www.w3.org/1999/02/22-rdf-syntax-ns#">
      <rdf:Description rdf:about=""/>
   </rdf:RDF>
</x:xmpmeta>
                                                                                                    
                                                                                                    
                                                                                                    
                                                                                                    
                                                                                                    
                                                                                                    
                                                                                                    
                                                                                                    
                                                                                                    
                                                                                                    
                                                                                                    
                                                                                                    
                                                                                                    
                                                                                                    
                                                                                                    
                                                                                                    
                                                                                                    
                                                                                                    
                                                                                                    
                                                                                                    
                           
<?xpacket end="w"?></metadata>
<defs>
    <style>
      .cls-1 {
        fill-rule: evenodd;
      }
    </style>
  </defs>
  <path class="cls-1" d="M221.5,120H220v2h-1v-2h-1.5a0.5,0.5,0,0,1-.5-0.5V118h-1.464L213,120.536V122h-1v-1.464L209.464,118H207v4h-1v-5h3.464L212,114.464V112h-3.5a0.5,0.5,0,0,1-.5-0.5v-3a0.5,0.5,0,0,1,.5-0.5h8a0.5,0.5,0,0,1,.5.5v3a0.5,0.5,0,0,1-.5.5H213v2.464L215.536,117H217v-1.5a0.5,0.5,0,0,1,.5-0.5h4a0.5,0.5,0,0,1,.5.5v4A0.5,0.5,0,0,1,221.5,120Zm-5.5-9v-2h-7v2h7Zm-3.5,4.379-2.121,2.121,2.121,2.121,2.121-2.121ZM221,116h-3v3h3v-3Zm1,8.5a2.5,2.5,0,1,1-2.5-2.5A2.5,2.5,0,0,1,222,124.5Zm-2.5-1.5a1.5,1.5,0,1,0,1.5,1.5A1.5,1.5,0,0,0,219.5,123Zm-4.5,1.5a2.5,2.5,0,1,1-2.5-2.5A2.5,2.5,0,0,1,215,124.5Zm-2.5-1.5a1.5,1.5,0,1,0,1.5,1.5A1.5,1.5,0,0,0,212.5,123Zm-3.5,1.5a2.5,2.5,0,1,1-2.5-2.5A2.5,2.5,0,0,1,209,124.5Zm-2.5-1.5a1.5,1.5,0,1,0,1.5,1.5A1.5,1.5,0,0,0,206.5,123Z" transform="translate(-204 -108)"/>
</svg>
