<svg xmlns="http://www.w3.org/2000/svg" width="20" height="21" viewBox="0 0 20 21">
  <metadata><?xpacket begin="﻿" id="W5M0MpCehiHzreSzNTczkc9d"?>
<x:xmpmeta xmlns:x="adobe:ns:meta/" x:xmptk="Adobe XMP Core 5.6-c140 79.160451, 2017/05/06-01:08:21        ">
   <rdf:RDF xmlns:rdf="http://www.w3.org/1999/02/22-rdf-syntax-ns#">
      <rdf:Description rdf:about=""/>
   </rdf:RDF>
</x:xmpmeta>
                                                                                                    
                                                                                                    
                                                                                                    
                                                                                                    
                                                                                                    
                                                                                                    
                                                                                                    
                                                                                                    
                                                                                                    
                                                                                                    
                                                                                                    
                                                                                                    
                                                                                                    
                                                                                                    
                                                                                                    
                                                                                                    
                                                                                                    
                                                                                                    
                                                                                                    
                                                                                                    
                           
<?xpacket end="w"?></metadata>
<defs>
    <style>
      .cls-1 {
        fill: #7a7979;
        fill-rule: evenodd;
      }
    </style>
  </defs>
  <path id="Rectangle_5_copy" data-name="Rectangle 5 copy" class="cls-1" d="M14,2.95a3.744,3.744,0,0,0-2.821.913,0.5,0.5,0,0,1-.7-0.717A4.672,4.672,0,0,1,14,1.948V0h5V5H14V2.95ZM15,4h3V1H15V4ZM9,7.5A4.7,4.7,0,0,0,7.64,3.7,3.834,3.834,0,0,0,5,2.95V5H0V0H5V1.949a4.773,4.773,0,0,1,3.268.972A5.614,5.614,0,0,1,10,7.5V8.7a6.986,6.986,0,0,0-1,.567V7.5ZM4,1H1V4H4V1ZM5,15.051a4.97,4.97,0,0,0,1-.061S6,15,6,15a6.934,6.934,0,0,0,.1,1,5.744,5.744,0,0,1-.815.067c-0.1,0-.2,0-0.285-0.009V18H0V13H5v2.051ZM4,14H1v3H4V14Zm9.5-6A6.5,6.5,0,1,1,7,14.5,6.5,6.5,0,0,1,13.5,8Zm0,12A5.5,5.5,0,1,0,8,14.5,5.5,5.5,0,0,0,13.5,20ZM13,16.793V11h1v5.755l2.362-2.362L17.07,15.1,14,18H13L9.9,15.111l0.707-.707Z"/>
</svg>
