<svg xmlns="http://www.w3.org/2000/svg" width="19" height="18" viewBox="0 0 19 18">
  <metadata><?xpacket begin="﻿" id="W5M0MpCehiHzreSzNTczkc9d"?>
<x:xmpmeta xmlns:x="adobe:ns:meta/" x:xmptk="Adobe XMP Core 5.6-c140 79.160451, 2017/05/06-01:08:21        ">
   <rdf:RDF xmlns:rdf="http://www.w3.org/1999/02/22-rdf-syntax-ns#">
      <rdf:Description rdf:about=""/>
   </rdf:RDF>
</x:xmpmeta>
                                                                                                    
                                                                                                    
                                                                                                    
                                                                                                    
                                                                                                    
                                                                                                    
                                                                                                    
                                                                                                    
                                                                                                    
                                                                                                    
                                                                                                    
                                                                                                    
                                                                                                    
                                                                                                    
                                                                                                    
                                                                                                    
                                                                                                    
                                                                                                    
                                                                                                    
                                                                                                    
                           
<?xpacket end="w"?></metadata>
<defs>
    <style>
      .cls-1 {
        fill: #7a7979;
        fill-rule: evenodd;
      }
    </style>
  </defs>
  <path class="cls-1" d="M1413,1348v1.95a4.682,4.682,0,0,0-3.52,1.2,0.492,0.492,0,0,0-.01.7,0.508,0.508,0,0,0,.36.15,0.475,0.475,0,0,0,.35-0.14,3.747,3.747,0,0,1,2.82-.91V1353h5v-5h-5Zm4,4h-3v-3h3v3Zm-4,11.05a3.828,3.828,0,0,1-2.64-.75,4.693,4.693,0,0,1-1.36-3.8v-3c0-2.1-.58-3.64-1.73-4.58a4.772,4.772,0,0,0-3.27-.97V1348h-5v5h5v-2.05a3.816,3.816,0,0,1,2.64.75,4.693,4.693,0,0,1,1.36,3.8v3c0,2.1.58,3.64,1.73,4.58a4.689,4.689,0,0,0,2.99.98,2.528,2.528,0,0,0,.28-0.01V1366h5v-5h-5v2.05ZM1403,1352h-3v-3h3v3Zm11,10h3v3h-3v-3Zm-7.22.18a3.74,3.74,0,0,1-2.78.87V1361h-5v5h5v-1.95a2.622,2.622,0,0,0,.29.01,4.6,4.6,0,0,0,3.17-1.15,0.492,0.492,0,0,0,.02-0.7A0.484,0.484,0,0,0,1406.78,1362.18ZM1403,1365h-3v-3h3v3Z" transform="translate(-1399 -1348)"/>
</svg>
