<?xml version="1.0" encoding="UTF-8"?>
<svg width="14px" height="14px" viewBox="0 0 14 14" version="1.1" xmlns="http://www.w3.org/2000/svg" xmlns:xlink="http://www.w3.org/1999/xlink">
    <!-- Generator: Sketch 50.2 (55047) - http://www.bohemiancoding.com/sketch -->
    <title>en_account</title>
    <desc>Created with Sketch.</desc>
    <defs></defs>
    <g id="en_account" stroke="none" stroke-width="1" fill="none" fill-rule="evenodd">
        <path d="M7,9.00002183 C7.8662718,9.00002183 8.8163621,8.88622629 9.8502994,9.13772455 C11.023958,9.43113919 11.9740483,9.82235284 12.7005988,10.3113772 C13.5668706,10.8842344 14,11.5269425 14,12.239521 L14,14 L0,14 L0,12.239521 C0,11.5269425 0.433129401,10.8842344 1.2994012,10.3113772 C2.02595174,9.82235284 2.97604204,9.43113919 4.1497006,9.13772455 C5.1836379,8.88622629 6.1337282,9.00002183 7,9.00002183 Z M7,7 C6.37125434,7 5.79141982,6.84281594 5.26047904,6.52844311 C4.72953826,6.21407028 4.3068878,5.79141982 3.99251497,5.26047904 C3.67814214,4.72953826 3.52095808,4.14970374 3.52095808,3.52095808 C3.52095808,2.89221243 3.67814214,2.30539195 3.99251497,1.76047904 C4.3068878,1.21556614 4.72953826,0.785929716 5.26047904,0.471556886 C5.79141982,0.157184057 6.37125434,0 7,0 C7.62874566,0 8.20858018,0.157184057 8.73952096,0.471556886 C9.27046174,0.785929716 9.6931122,1.21556614 10.007485,1.76047904 C10.3218579,2.30539195 10.4790419,2.89221243 10.4790419,3.52095808 C10.4790419,4.14970374 10.3218579,4.72953826 10.007485,5.26047904 C9.6931122,5.79141982 9.27046174,6.21407028 8.73952096,6.52844311 C8.20858018,6.84281594 7.62874566,7 7,7 Z" id="î©" fill="#7F7F7F"></path>
    </g>
</svg>