<?xml version="1.0" encoding="UTF-8"?>
<svg width="18px" height="18px" viewBox="0 0 18 18" version="1.1" xmlns="http://www.w3.org/2000/svg" xmlns:xlink="http://www.w3.org/1999/xlink">
    <!-- Generator: Sketch 50.2 (55047) - http://www.bohemiancoding.com/sketch -->
    <title>en-go-to-link</title>
    <desc>Created with Sketch.</desc>
    <defs></defs>
    <g id="en-go-to-link" stroke="none" stroke-width="1" fill="none" fill-rule="evenodd">
        <path d="M10.0372382,0 L18,0 L18,8.05064478 L15.9690571,8.05064478 L15.9690571,3.97050665 L6.88,12.6933333 L5.30666667,11.12 L14.9001164,2.01558619 L10.0372382,2.01558619 L10.0372382,0 Z M15.9690571,15.9418741 L15.9690571,12 L18,12 L18,15.76 C18,16.3644475 17.77778,16.8888867 17.3333333,17.3333333 C16.8888867,17.77778 16.3644475,18 15.76,18 L2.24,18 C1.61777467,18 1.08889107,17.77778 0.653333333,17.3333333 C0.2177756,16.8888867 0,16.3644475 0,15.76 L0,2.24 C0,1.63555253 0.2177756,1.11111333 0.653333333,0.666666667 C1.08889107,0.22222 1.61777467,0 2.24,0 L6,0 L6,2.01558619 L2.02093927,2.01558619 L2.02093927,15.9418741 L15.9690571,15.9418741 Z" id="open_in_new---material" fill="#13619E"></path>
    </g>
</svg>