<?xml version="1.0" encoding="UTF-8"?>
<svg width="15px" height="14px" viewBox="0 0 15 14" version="1.1" xmlns="http://www.w3.org/2000/svg" xmlns:xlink="http://www.w3.org/1999/xlink">
    <!-- Generator: Sketch 50.2 (55047) - http://www.bohemiancoding.com/sketch -->
    <title>en_logout</title>
    <desc>Created with Sketch.</desc>
    <defs></defs>
    <g id="en_logout" stroke="none" stroke-width="1" fill="none" fill-rule="evenodd">
        <path d="M10.999,6.01787284 L10.999,3 L14.9775087,7.05136481 L10.999,10.9798655 L10.999,8.00607513 L6,8.00607513 L6,6.01787284 L10.999,6.01787284 Z M4,10 L9,10 L9,12 C9,13.1 8.1,14 7,14 L2,14 C0.9,14 0,13.1 0,12 L0,2 C0,0.9 0.9,0 2,0 L7,0 C8.1,0 9,0.9 9,2 L9,4 L4,4 L4,10 Z" id="Combined-Shape" fill="#7F7F7F"></path>
    </g>
</svg>