<?xml version="1.0" encoding="UTF-8"?>
<svg width="14px" height="9px" viewBox="0 0 14 9" version="1.1" xmlns="http://www.w3.org/2000/svg" xmlns:xlink="http://www.w3.org/1999/xlink">
    <!-- Generator: Sketch 50.2 (55047) - http://www.bohemiancoding.com/sketch -->
    <title>en_members</title>
    <desc>Created with Sketch.</desc>
    <defs></defs>
    <g id="en_members" stroke="none" stroke-width="1" fill="none" fill-rule="evenodd">
        <path d="M8,8.276842 L8,9 L0,9 L0,8.276842 C0,6.41487079 1.35482817,4.99816295 4.02755192,5.0000012 C6.70027567,5.00183944 8,6.3865236 8,8.276842 Z M5,8.95486187 L9,8.95486187 L9,7.79955892 C9,6.92801347 8.83416601,5.8466828 8.08961867,5.06071159 C8.38173981,5.02050256 8.69440807,4.99977207 9.02755192,5.0000012 C11.7002757,5.00183944 13,6.29340462 13,8.276842 L13,9 L5,9 L5,8.95486187 Z M4,4 C3.64799824,4 3.31733488,3.90933424 3.008,3.728 C2.69866512,3.54666576 2.45333424,3.30133488 2.272,2.992 C2.09066576,2.68266512 2,2.35200176 2,2 C2,1.64799824 2.09066576,1.31733488 2.272,1.008 C2.45333424,0.69866512 2.69866512,0.45333424 3.008,0.272 C3.31733488,0.09066576 3.64799824,0 4,0 C4.35200176,0 4.68266512,0.09066576 4.992,0.272 C5.30133488,0.45333424 5.54666576,0.69866512 5.728,1.008 C5.90933424,1.31733488 6,1.64799824 6,2 C6,2.35200176 5.90933424,2.68266512 5.728,2.992 C5.54666576,3.30133488 5.30133488,3.54666576 4.992,3.728 C4.68266512,3.90933424 4.35200176,4 4,4 Z M9,4 C8.64799824,4 8.31733488,3.90933424 8.008,3.728 C7.69866512,3.54666576 7.45333424,3.30133488 7.272,2.992 C7.09066576,2.68266512 7,2.35200176 7,2 C7,1.64799824 7.09066576,1.31733488 7.272,1.008 C7.45333424,0.69866512 7.69866512,0.45333424 8.008,0.272 C8.31733488,0.09066576 8.64799824,0 9,0 C9.35200176,0 9.68266512,0.09066576 9.992,0.272 C10.3013349,0.45333424 10.5466658,0.69866512 10.728,1.008 C10.9093342,1.31733488 11,1.64799824 11,2 C11,2.35200176 10.9093342,2.68266512 10.728,2.992 C10.5466658,3.30133488 10.3013349,3.54666576 9.992,3.728 C9.68266512,3.90933424 9.35200176,4 9,4 Z" id="Combined-Shape" fill="#B2B2B2"></path>
    </g>
</svg>