<?xml version="1.0" encoding="UTF-8"?>
<svg width="10px" height="10px" viewBox="0 0 10 10" version="1.1" xmlns="http://www.w3.org/2000/svg" xmlns:xlink="http://www.w3.org/1999/xlink">
    <!-- Generator: Sketch 50.2 (55047) - http://www.bohemiancoding.com/sketch -->
    <title>en_member</title>
    <desc>Created with Sketch.</desc>
    <defs></defs>
    <g id="en_member" stroke="none" stroke-width="1" fill="none" fill-rule="evenodd">
        <path d="M5,6 C5.61876557,6 6.2974015,6.09599904 7.03592814,6.288 C7.87425569,6.51200112 8.55289162,6.8106648 9.07185629,7.184 C9.69062186,7.62133552 10,8.11199728 10,8.656 L10,10 L0,10 L0,8.656 C0,8.11199728 0.309378144,7.62133552 0.928143713,7.184 C1.44710838,6.8106648 2.12574431,6.51200112 2.96407186,6.288 C3.7025985,6.09599904 4.38123443,6 5,6 Z M5,5 C4.55089596,5 4.13672844,4.88772567 3.75748503,4.66317365 C3.37824162,4.43862163 3.07634843,4.13672844 2.85179641,3.75748503 C2.62724439,3.37824162 2.51497006,2.9640741 2.51497006,2.51497006 C2.51497006,2.06586602 2.62724439,1.64670853 2.85179641,1.25748503 C3.07634843,0.868261527 3.37824162,0.561378368 3.75748503,0.336826347 C4.13672844,0.112274326 4.55089596,0 5,0 C5.44910404,0 5.86327156,0.112274326 6.24251497,0.336826347 C6.62175838,0.561378368 6.92365157,0.868261527 7.14820359,1.25748503 C7.37275561,1.64670853 7.48502994,2.06586602 7.48502994,2.51497006 C7.48502994,2.9640741 7.37275561,3.37824162 7.14820359,3.75748503 C6.92365157,4.13672844 6.62175838,4.43862163 6.24251497,4.66317365 C5.86327156,4.88772567 5.44910404,5 5,5 Z" id="î©-copy-3" fill="#B2B2B2"></path>
    </g>
</svg>