<?xml version="1.0" encoding="UTF-8"?>
<svg width="50px" height="50px" viewBox="0 0 50 50" version="1.1" xmlns="http://www.w3.org/2000/svg" xmlns:xlink="http://www.w3.org/1999/xlink">
    <!-- Generator: Sketch 50.2 (55047) - http://www.bohemiancoding.com/sketch -->
    <title>en_no-artifacts</title>
    <desc>Created with Sketch.</desc>
    <defs></defs>
    <g id="en_no-artifacts" stroke="none" stroke-width="1" fill="none" fill-rule="evenodd">
        <rect id="Rectangle-3" x="0" y="0" width="50" height="50"></rect>
        <g id="Group" transform="translate(2.000000, 3.000000)" fill="#C6C6C6" fill-rule="nonzero">
            <path d="M27.7907852,30.1403703 C26.5188077,32.6843253 26.7974757,35.7292217 28.5100985,38.000027 L39.0100985,27.510027 C37.7162456,26.5268895 36.1350911,25.9963243 34.5100985,26.000027 C31.6658806,25.9924119 29.0627626,27.5964154 27.7907852,30.1403703 Z" id="Shape"></path>
            <path d="M30,39.5 C32.978881,41.8087334 37.2101527,41.5406558 39.8738388,38.8744304 C42.537525,36.208205 42.8015707,31.9766798 40.49,29 L30,39.5 Z" id="Shape"></path>
            <path d="M34.5,22 C28.1487254,22 23,27.1487254 23,33.5 C23,39.8512746 28.1487254,45 34.5,45 C40.8512746,45 46,39.8512746 46,33.5 C46,27.1487254 40.8512746,22 34.5,22 Z M34.5,43 C29.2532949,43 25,38.7467051 25,33.5 C25,28.2532949 29.2532949,24 34.5,24 C39.7467051,24 44,28.2532949 44,33.5 C43.9944883,38.7444204 39.7444204,42.9944883 34.5,43 Z" id="Shape"></path>
            <path d="M42,5.37030526 L42,8.00879789 L19.0339367,8.00879789 L0,8.00879789 L0,5.37030526 C0,2.60888151 2.233917,0 4.99534075,0 L37.039307,0 C39.8007308,0 42,2.60888151 42,5.37030526 Z M6,3 L6,5 L8,5 L8,3 L6,3 Z M10,3 L10,5 L12,5 L12,3 L10,3 Z M14,3 L14,5 L16,5 L16,3 L14,3 Z" id="Combined-Shape"></path>
            <path d="M42,21.8528731 L42,10 L0,10.0727663 L0,26.5728731 C0,29.3342969 2.2278023,31.0647156 4.98922604,31.0647156 L21,31.0647156 C21.7636594,24.2343316 27.6270595,19.5761355 34.5,19.5728731 C37.171108,19.57012 39.7823641,20.3639419 42,21.8528731 Z" id="Shape"></path>
        </g>
    </g>
</svg>