<?xml version="1.0" encoding="UTF-8"?>
<svg width="50px" height="50px" viewBox="0 0 50 50" version="1.1" xmlns="http://www.w3.org/2000/svg" xmlns:xlink="http://www.w3.org/1999/xlink">
    <!-- Generator: Sketch 50.2 (55047) - http://www.bohemiancoding.com/sketch -->
    <title>en_no-projects</title>
    <desc>Created with Sketch.</desc>
    <defs></defs>
    <g id="en_no-projects" stroke="none" stroke-width="1" fill="none" fill-rule="evenodd">
        <rect id="Rectangle-3" x="0" y="0" width="50" height="50"></rect>
        <g id="no-projects-found" transform="translate(3.000000, 3.000000)" fill="#C6C6C6" fill-rule="nonzero">
            <path d="M34.0975563,26.0000037 C31.4064695,26.0009459 28.9472081,27.5232434 27.7462598,29.9314943 C26.5453115,32.3397452 26.8091137,35.2199821 28.4275563,37.3700037 L38.3575563,27.4400037 C37.134574,26.5045501 35.6372825,25.9984234 34.0975563,26.0000037 Z" id="Shape"></path>
            <path d="M39.93,29 L30,38.93 C31.2256999,39.8675402 32.7268514,40.3737833 34.27,40.37 C36.9627269,40.3728851 39.4246751,38.8501449 40.6246578,36.439579 C41.8246404,34.0290131 41.5555132,31.1467401 39.93,29 Z" id="Shape"></path>
            <path d="M33.9803154,22.0000736 C29.5518943,21.9838819 25.5505134,24.6390368 23.8445988,28.7257262 C22.1386842,32.8124156 23.0647651,37.5244504 26.1904121,40.6615677 C29.3160592,43.7986851 34.0246701,44.7420198 38.1175809,43.0510862 C42.2104916,41.3601525 44.8802858,37.3685243 44.8803154,32.9400736 C44.8803556,26.913665 40.0066837,22.022108 33.9803154,22.0000736 Z M33.9803154,42.0000736 C30.3068909,42.0041193 26.9929256,39.7944151 25.5843627,36.4017739 C24.1757999,33.0091327 24.9501759,29.1020237 27.5462493,26.503088 C30.1423227,23.9041524 34.048576,23.1254715 37.4427673,24.530295 C40.8369586,25.9351186 43.0503131,29.2466469 43.0503154,32.9200736 C43.0558461,37.9364449 38.9966775,42.0090396 33.9803154,42.0200736 L33.9803154,42.0000736 Z" id="Shape"></path>
            <path d="M34.3981982,20.2213095 C37.0902661,20.2209008 39.835382,20.9382244 42.0106406,22.5242508 L42.0106406,8.94183613 C42.0106406,8.38955138 41.5657921,7.93065335 41.0135073,7.93065335 L37.9983411,7.93065335 L37.9983411,4.9310806 C37.9983411,4.37879585 37.5553255,3.93877103 37.0030408,3.93877103 C31.3745681,3.93877103 27.172354,3.93877103 24.3963985,3.93877103 C21.6353768,3.93877103 17.5079858,3.93877103 12.0142255,3.93877103 L11.9718009,1.17586744 C11.9718009,0.62358269 11.5465559,2.06058985e-13 10.9942712,2.06057393e-13 C9.26006288,2.25079215e-13 7.91557916,2.34590125e-13 6.96082003,2.34590125e-13 C5.72002361,2.34590125e-13 3.7274808,2.34590125e-13 0.983191592,2.34590125e-13 C0.430906842,2.34590125e-13 0,0.279024729 0,0.831309479 L0,31.6013095 C-0.000171081536,33.7910687 1.76867257,35.9539926 3.95826068,35.9813646 L21.8081982,35.9813646 C21.6438654,35.1513816 21.5601427,33.9274024 21.5581982,33.0813095 C21.5340809,29.6667607 22.8784707,26.3847812 25.2911018,23.9683921 C27.7037329,21.5520029 30.983616,20.2025067 34.3981982,20.2213095 Z M6.01603538,8.9433082 L6.01603538,31.0963267 C5.86111529,32.0669177 5.30607517,32.9110038 4.32319824,32.9110038 C3.34032131,32.9110038 2.15848439,32.5719005 2.00356431,31.6013095 C2.00356431,25.2078489 2.00356431,20.4127535 2.00356431,17.2160232 C2.00356431,13.8149757 2.00356431,8.71340447 2.00356431,1.91130948 L10.2981982,1.91130948 L10.2981982,4.91130948 C10.2981982,5.46359423 10.7459135,5.91130948 11.2981982,5.91130948 L36.0081982,5.91130948 L36.0081982,7.91130948 L7.29819824,7.91130948 C6.77570453,7.90963502 6.0578324,8.42248627 6.01603538,8.9433082 Z" id="Shape"></path>
        </g>
    </g>
</svg>