<?xml version="1.0" encoding="UTF-8"?>
<svg width="50px" height="50px" viewBox="0 0 50 50" version="1.1" xmlns="http://www.w3.org/2000/svg" xmlns:xlink="http://www.w3.org/1999/xlink">
    <!-- Generator: Sketch 50.2 (55047) - http://www.bohemiancoding.com/sketch -->
    <title>en_no-data</title>
    <desc>Created with Sketch.</desc>
    <defs></defs>
    <g id="en_no-data" stroke="none" stroke-width="1" fill="none" fill-rule="evenodd">
        <rect id="Rectangle-3" x="0" y="0" width="50" height="50"></rect>
        <g id="no-data-found" transform="translate(2.000000, 2.000000)" fill="#C6C6C6" fill-rule="nonzero">
            <path d="M35.1000211,28.0000211 C31.1810831,28.0055291 28.0055291,31.1810831 28.0000211,35.1000211 C27.9962378,36.6431696 28.5024809,38.1443211 29.4400211,39.3700211 L39.3700211,29.4400211 C38.1443211,28.5024809 36.6431696,27.9962378 35.1000211,28.0000211 Z" id="Shape"></path>
            <path d="M40.93,31 L31,40.9 C32.2177083,41.8405269 33.711376,42.3536457 35.25,42.36 C39.1728426,42.3600039 42.3544826,39.1828388 42.36,35.26 C42.3644523,33.7214337 41.8618792,32.2242579 40.93,31 Z" id="Shape"></path>
            <path d="M34.8999969,24.0001648 C28.8577636,24.0277576 23.979849,28.9444198 24.0000626,34.9866822 C24.0202762,41.0289446 28.9309775,45.9128602 34.9732601,45.9000259 C41.0155427,45.8871915 45.9054519,40.9824585 45.8999969,34.9401648 C45.9000407,32.0282707 44.7392042,29.2365073 42.674561,27.1831259 C40.6099178,25.1297444 37.8118471,23.9841946 34.8999969,24.0001648 Z M34.8999969,44.0001648 C29.8852513,44.0001648 25.8199969,39.9349103 25.8199969,34.9201648 C25.8199969,29.9054192 29.8852513,25.8401648 34.8999969,25.8401648 C39.9147424,25.8401648 43.9799969,29.9054192 43.9799969,34.9201648 C43.9853088,37.3317939 43.0310143,39.6464688 41.3276079,41.3536272 C39.6242015,43.0607856 37.3116318,44.0201706 34.8999969,44.0201648 L34.8999969,44.0001648 Z" id="Shape"></path>
            <path d="M33.9956322,21.9526698 L33.9956322,12.6189913 C33.9971689,12.3531884 34.1828187,10.4351516 33.9956322,10.2464328 L23.9956322,0.290016736 C23.8069134,0.102830222 23.5514352,-0.00152002252 23.2856322,1.67362797e-05 L1.02061244,1.67362797e-05 C0.468327694,1.67362797e-05 0,0.447731986 0,1.00001674 C0,10.312307 0,17.2965247 0,21.9526698 C0,26.629858 0,33.6456403 0,43.0000167 C0,43.5523015 0.468327694,44.0000167 1.02061244,44.0000167 L25.9356322,44.0000167 C22.4328487,40.3786056 21.337961,35.0593421 23.125771,30.3489444 C24.913581,25.6385468 28.9721216,22.3379649 33.9956322,21.9526698 Z M22.0439845,1.92001674 L32.0312772,11.8709338 L22.0439845,11.8709338 L22.0439845,1.92001674 Z M7.28563219,12.0000167 C9.57607907,12.0000167 11.2427457,12.0000167 12.2856322,12.0000167 C13.2427457,12.0000167 14.5760791,12.0000167 16.2856322,12.0000167 C16.8379169,12.0000167 17.2856322,12.447732 17.2856322,13.0000167 C17.2856322,13.5523015 16.8379169,14.0000167 16.2856322,14.0000167 C14.5450865,14.0000167 13.2117532,14.0000167 12.2856322,14.0000167 C11.2117532,14.0000167 9.47961953,14.0000167 7.08923123,14.0000167 C6.53694648,14.0000167 6.28563219,13.5523015 6.28563219,13.0000167 C6.28563219,12.447732 6.73334744,12.0000167 7.28563219,12.0000167 Z M7.28563219,18.0000167 L23.2856322,18.0000167 C23.8379169,18.0000167 24.2856322,18.447732 24.2856322,19.0000167 C24.2856322,19.5523015 23.8379169,20.0000167 23.2856322,20.0000167 L7.28563219,20.0000167 C6.73334744,20.0000167 6.28563219,19.5523015 6.28563219,19.0000167 C6.28563219,18.447732 6.73334744,18.0000167 7.28563219,18.0000167 Z M17.2856322,32.0000167 L7.28563219,32.0000167 C6.73334744,32.0000167 6.28563219,31.5523015 6.28563219,31.0000167 C6.28563219,30.447732 6.73334744,30.0000167 7.28563219,30.0000167 L17.2856322,30.0000167 C17.8379169,30.0000167 18.2856322,30.447732 18.2856322,31.0000167 C18.2856322,31.5523015 17.8379169,32.0000167 17.2856322,32.0000167 Z M19.2856322,26.0000167 L7.28563219,26.0000167 C6.73334744,26.0000167 6.28563219,25.5523015 6.28563219,25.0000167 C6.28563219,24.447732 6.73334744,24.0000167 7.28563219,24.0000167 L19.2856322,24.0000167 C19.8379169,24.0000167 20.2856322,24.447732 20.2856322,25.0000167 C20.2856322,25.5523015 19.8379169,26.0000167 19.2856322,26.0000167 Z" id="Shape"></path>
        </g>
    </g>
</svg>