<?xml version="1.0" encoding="UTF-8"?>
<svg width="15px" height="15px" viewBox="0 0 15 15" version="1.1" xmlns="http://www.w3.org/2000/svg" xmlns:xlink="http://www.w3.org/1999/xlink">
    <!-- Generator: Sketch 51.1 (57501) - http://www.bohemiancoding.com/sketch -->
    <title>project-shell</title>
    <desc>Created with Sketch.</desc>
    <defs></defs>
    <g id="project-shell" stroke="none" stroke-width="1" fill="none" fill-rule="evenodd">
        <path d="M1,7 C1.16578012,6.27423797 1.80390188,6.08327213 2,6 C2.56702884,7.12164892 3.14800536,8.51450606 4,10 C4.32662578,10.4862284 4.51830041,10.587679 5,11 C4.81831288,10.587679 4.92426966,10.5578406 5,10 C5.29452315,10.3227139 5.37905047,9.95152405 5,10 C2.57774357,5.25973191 3.15514852,3.6424899 3,4 C3.71350506,2.69482189 4.51472883,2.81059493 5,3 C4.95760438,3.1101726 4.93379387,3.22475211 5,3 C4.94093702,3.46465296 5.09570536,5.78130738 6,9 C5.85049863,9.31417554 6.08979429,9.50633492 6,10 C6.40052149,9.50633492 6.44218989,9.50156078 6,9 C6.79934759,9.42040029 6.99935591,9.09814543 7,9 C6.25884894,5.6285347 6.10169955,3.32739625 6,3 C6.10050902,1.10145061 7.49104301,1.00358061 8,1 C8.41489093,1 9.89471433,1.02745134 10,3 C9.89471433,3.30949321 9.74113652,5.58795446 9,9 C9.00777271,9.03966214 9.20778102,9.36072347 10,9 C9.84352173,9.50633492 10.1494868,9.29746603 10,9 C10.9007085,5.7526625 11.0542863,3.46345942 11,3 C11.06262,3.19849431 11.0411906,3.09465663 11,3 C11.4840661,2.80582079 12.2745751,2.68766067 13,4 C12.8257885,3.60787734 13.4353377,5.18573265 11,10 C10.6816518,9.84171869 10.7685602,10.2129086 11,10 C11.1376231,10.4480353 11.2423894,10.4766801 11,10 C11.5435924,10.4766801 11.735267,10.374036 12,10 C12.869838,8.45482923 13.4341471,7.09897172 14,6 C14.1829878,6.08207859 14.8306338,6.28139919 15,7 C14.9961168,7.11210062 15.5211386,10.0350716 8,14 C7.73748182,13.8627433 7.49104301,13.7278737 7,14 C7.24341367,13.590617 7.23865156,13.5858428 7,14 C0.514562583,9.8321704 0.999106531,7.10971355 1,7" id="Fill-1" fill="#D770AD"></path>
    </g>
</svg>