<?xml version="1.0" encoding="UTF-8"?>
<svg width="15px" height="15px" viewBox="0 0 15 15" version="1.1" xmlns="http://www.w3.org/2000/svg" xmlns:xlink="http://www.w3.org/1999/xlink">
    <!-- Generator: Sketch 51.1 (57501) - http://www.bohemiancoding.com/sketch -->
    <title>theme</title>
    <desc>Created with Sketch.</desc>
    <defs></defs>
    <g id="theme" stroke="none" stroke-width="1" fill="none" fill-rule="evenodd">
        <path d="M8.98624953,5.11209661 C8.38625628,5.11209661 7.93626134,4.66317309 7.93626134,4.06317984 C7.93626134,3.53818574 8.46125543,3.01319164 8.98624953,3.01319164 C9.58624278,3.01319164 10.0351663,3.46318658 10.0351663,4.06317984 C10.0351663,4.66317309 9.58624278,5.11209661 8.98624953,5.11209661 Z M6.9612723,4.13817899 C6.9612723,4.73710083 6.51127736,5.18709577 5.91235553,5.18709577 C5.31236228,5.18709577 4.86236734,4.58817393 4.86236734,4.06317984 C4.86236734,3.53818574 5.31236228,3.01319164 5.91235553,3.01319164 C6.51127736,3.01319164 6.9612723,3.53818574 6.9612723,4.13817899 Z M4.03737661,5.78708902 C4.56344213,5.78708902 5.08736481,6.31208311 5.08736481,6.91207637 C5.08736481,7.43599905 4.56344213,7.96099314 3.96344887,7.96099314 C3.36345562,7.96099314 2.91346068,7.5109982 2.91346068,6.91207637 C2.91346068,6.31208311 3.51345394,5.78708902 4.03737661,5.78708902 Z M2.0134708,10.0609695 C2.0134708,9.46097627 2.46346574,9.01098133 3.063459,9.01098133 C3.66345225,9.01098133 4.11344719,9.53490401 4.11344719,10.0609695 C4.11344719,10.6598914 3.66345225,11.1098863 3.063459,11.1098863 C2.46346574,11.1098863 2.0134708,10.6598914 2.0134708,10.0609695 Z M13.5590552,3.76318321 L13.2590586,3.46318658 L10.6351596,9.75990148 L11.0101553,9.83597205 C11.2351528,9.90989979 11.5351494,9.90989979 11.9090738,9.90989979 C12.8840628,9.90989979 13.7079821,9.53490401 14.3829745,8.71098471 C15.3579636,7.5109982 15.057967,5.78708902 14.3090468,4.66317309 C14.0840493,4.36317646 13.8590519,4.06317984 13.5590552,3.76318321 Z M6.43734962,10.5109645 C6.66234709,9.61097458 7.11127061,9.16097965 7.78626302,9.01098133 L8.53625459,9.01098133 L8.8351798,9.08490907 L12.1340713,2.71319502 L11.9090738,2.56426812 C11.0851545,2.03927403 10.0351663,1.58927909 8.8351798,1.28928246 C7.11127061,0.839287522 5.53735974,0.914286678 4.26237408,1.51427993 C2.76346237,2.2642715 1.86454391,3.83818237 1.1895515,5.26209492 C0.289561621,7.28600073 -0.5354291,9.53490401 0.439559934,11.4088115 C0.439559934,11.4088115 0.439559934,11.4848821 0.514559091,11.4848821 C1.03955319,12.2348736 2.08846996,13.583787 3.58845309,13.583787 L3.88844972,13.583787 C5.53735974,13.4337887 5.98735468,11.934877 6.28627989,10.6598914 L6.43734962,10.5109645 Z M9.51017221,11.3348838 C9.66017052,11.5598812 9.66017052,11.8588064 9.66017052,12.1598745 L9.66017052,12.2348736 C9.36124531,13.3587896 8.31125712,14.1087811 7.18626977,14.1087811 C7.03627146,14.1087811 6.81234541,14.1087811 6.66234709,14.033782 L6.58734794,14.033782 C6.51127736,14.033782 6.36235047,13.9587828 6.28627989,13.9587828 L6.137353,13.8837837 L6.28627989,13.8087845 C7.03627146,13.3587896 7.4862664,12.6098694 7.71126387,11.7098796 L7.71126387,11.633809 C7.86126218,11.1098863 8.38625628,10.8098897 8.91125037,10.8848888 C9.13624784,10.959888 9.36124531,11.1098863 9.51017221,11.3348838 Z" id="Fill-1" fill="#FC6E51"></path>
    </g>
</svg>