<?xml version="1.0" encoding="UTF-8"?>
<svg width="15px" height="15px" viewBox="0 0 15 15" version="1.1" xmlns="http://www.w3.org/2000/svg" xmlns:xlink="http://www.w3.org/1999/xlink">
    <!-- Generator: Sketch 51.1 (57501) - http://www.bohemiancoding.com/sketch -->
    <title>globe</title>
    <desc>Created with Sketch.</desc>
    <defs></defs>
    <g id="globe" stroke="none" stroke-width="1" fill="none" fill-rule="evenodd">
        <path d="M7.5,0 C3.35786438,0 0,3.35786438 0,7.5 C0,11.6421356 3.35786438,15 7.5,15 C11.6421356,15 15,11.6421356 15,7.5 C15,3.35786438 11.6421356,0 7.5,0 Z M11.744,10 C11.8822708,9.34146631 11.9645645,8.67241243 11.99,8 L13.981,8 C13.9295846,8.68803462 13.767853,9.36332319 13.502,10 L11.745,10 L11.744,10 Z M3.256,5 C3.11772916,5.65853369 3.03543553,6.32758757 3.01,7 L1.02,7 C1.07141539,6.31196538 1.233147,5.63667681 1.499,5 L3.257,5 L3.256,5 Z M10.719,5 C10.8715932,5.65671104 10.9619924,6.32633491 10.989,7 L8,7 L8,5 L10.72,5 L10.719,5 Z M8,4 L8,1.073 C8.2420554,1.14590234 8.47020572,1.2587945 8.675,1.407 C9.14235179,1.75776171 9.53330868,2.20009761 9.824,2.707 C10.065876,3.11590396 10.2668481,3.54765893 10.424,3.996 L8,3.996 L8,4 Z M5.176,2.711 C5.46623177,2.20376814 5.85726478,1.76134612 6.325,1.411 C6.52962639,1.26156106 6.75776091,1.14732481 7,1.073 L7,4 L4.575,4 C4.73247153,3.55162079 4.93377912,3.11986458 5.176,2.711 Z M7,5 L7,7 L4.012,7 C4.03900759,6.32633491 4.12940682,5.65671104 4.282,5 L7,5 Z M1.5,10 C1.23371484,9.36346424 1.07196622,8.68810465 1.021,8 L3.01,8 C3.03593218,8.67237247 3.11822069,9.34138472 3.256,10 L1.5,10 Z M4.013,8 L7,8 L7,10 L4.281,10 C4.12825533,9.34334612 4.03818472,8.67367619 4.012,8 L4.013,8 Z M7,11 L7,13.927 C6.7579446,13.8540977 6.52979428,13.7412055 6.325,13.593 C5.85764821,13.2422383 5.46669132,12.7999024 5.176,12.293 C4.934124,11.884096 4.73315194,11.4523411 4.576,11.004 L7,11.004 L7,11 Z M9.825,12.289 C9.53476823,12.7962319 9.14373522,13.2386539 8.676,13.589 C8.47109906,13.7370287 8.24297953,13.8499056 8.001,13.923 L8.001,11 L10.427,11 C10.2690989,11.448204 10.0678105,11.879919 9.826,12.289 L9.825,12.289 Z M8,10 L8,8 L10.989,8 C10.9619924,8.67366509 10.8715932,9.34328896 10.719,10 L8,10 Z M11.99,7 C11.9640678,6.32762753 11.8817793,5.65861528 11.744,5 L13.5,5 C13.7662852,5.63653576 13.9280338,6.31189535 13.979,7 L11.991,7 L11.99,7 Z M12.979,4 L11.479,4 C11.2218135,3.1510328 10.823953,2.3512554 10.302,1.634 C11.3967647,2.15912286 12.3239616,2.97829683 12.98,4 L12.979,4 Z M2.9,2.9 C3.42096705,2.37807927 4.02694982,1.94861603 4.692,1.63 C4.17180103,2.34905391 3.77565858,3.15012696 3.52,4 L2.02,4 C2.27238464,3.60236998 2.56746978,3.23351355 2.9,2.9 Z M2.022,11 L3.522,11 C3.77918651,11.8489672 4.17704703,12.6487446 4.699,13.366 C3.60460249,12.8407237 2.67776685,12.021563 2.022,11 Z M12.1,12.1 C11.579033,12.6219207 10.9730502,13.051384 10.308,13.37 C10.8289041,12.6510838 11.2257263,11.8500032 11.482,11 L12.982,11 C12.728988,11.3977296 12.4332291,11.76659 12.1,12.1 Z" id="Color_Fill_1_copy_11-Copy" fill="#7F7F7F"></path>
    </g>
</svg>