<svg id="Layer_2" data-name="Layer 2" xmlns="http://www.w3.org/2000/svg" viewBox="0 0 23.54 24.15"><defs><style>.cls-1{stroke:#000;stroke-miterlimit:10;stroke-width:0.15px;}</style></defs><title>icon_backend_services</title><path class="cls-1" d="M23.19,14.35l-2-1.59c0-.23,0-.49,0-.77s0-.53,0-.77l2-1.59a1.34,1.34,0,0,0,.32-1.7L21.28,4.09a1.34,1.34,0,0,0-1.64-.59l-2.4,1a9,9,0,0,0-1.31-.77l-.37-2.55A1.31,1.31,0,0,0,14.25,0H9.75A1.31,1.31,0,0,0,8.44,1.13L8.08,3.68a9.3,9.3,0,0,0-1.31.77l-2.41-1a1.31,1.31,0,0,0-1.63.58L.49,7.94A1.33,1.33,0,0,0,.81,9.65l2,1.59c0,.28,0,.52,0,.77a5.41,5.41,0,0,0,0,.77l-2,1.59a1.34,1.34,0,0,0-.32,1.7l2.24,3.85a1.34,1.34,0,0,0,1.64.59l2.4-1a9,9,0,0,0,1.31.77l.37,2.55A1.32,1.32,0,0,0,9.75,24h4.49a1.31,1.31,0,0,0,1.31-1.13l.37-2.55a9.27,9.27,0,0,0,1.31-.77l2.41,1a1.31,1.31,0,0,0,1.63-.58L23.53,16A1.33,1.33,0,0,0,23.19,14.35ZM20,19,17.41,18a.77.77,0,0,0-.75.1,7.81,7.81,0,0,1-1.73,1,.77.77,0,0,0-.47.6l-.4,2.79H9.93l-.4-2.79a.77.77,0,0,0-.47-.6,7.49,7.49,0,0,1-1.72-1,.77.77,0,0,0-.75-.1L4,19,1.9,15.45l2.22-1.74a.77.77,0,0,0,.29-.7,8.12,8.12,0,0,1-.07-1,8.12,8.12,0,0,1,.07-1,.77.77,0,0,0-.29-.7L1.9,8.56,4,5,6.59,6a.77.77,0,0,0,.75-.1,7.82,7.82,0,0,1,1.73-1,.77.77,0,0,0,.47-.6l.4-2.79h4.13l.4,2.79a.77.77,0,0,0,.47.6,7.39,7.39,0,0,1,1.72,1,.77.77,0,0,0,.75.1L20,5,22.1,8.55l-2.22,1.74a.77.77,0,0,0-.29.7,7,7,0,0,1,0,2,.77.77,0,0,0,.29.7l2.22,1.74Z" transform="translate(-0.23 0.08)"/><path d="M9.17,9.71l1.7,1.7.32-.32-1.7-1.7c-.07-.07,0-.3,0-.3l-1.15-1-.46.46,1,1.15S9.11,9.65,9.17,9.71Z" transform="translate(-0.23 0.08)"/><path d="M13.31,12.41l-1.12,1.12L14.63,16a.5.5,0,0,0,.71,0h0l.4-.4a.5.5,0,0,0,0-.71h0Z" transform="translate(-0.23 0.08)"/><path d="M9,15.92l4.44-4.44a1.88,1.88,0,0,0,.76.17,1.91,1.91,0,0,0,1.9-1.9A1.88,1.88,0,0,0,15.95,9l-1.07,1.07a.68.68,0,0,1-1-1L15,8a1.88,1.88,0,0,0-.76-.17,1.91,1.91,0,0,0-1.9,1.9,1.88,1.88,0,0,0,.17.76L8.07,15a.68.68,0,0,0,1,1Z" transform="translate(-0.23 0.08)"/></svg>