<svg id="Layer_1" data-name="Layer 1" xmlns="http://www.w3.org/2000/svg" viewBox="0 0 24.67 23.87"><defs><style>.cls-1{font-size:21.96px;font-family:MyriadPro-Regular, Myriad Pro;}.cls-2{fill:none;stroke:#000;stroke-miterlimit:10;}</style></defs><title>icon_integrate_widgets</title><text class="cls-1" transform="translate(18.43 18.38)">}</text><text class="cls-1" transform="translate(0 18.38)">{</text><path class="cls-2" d="M6.94,17.21a3.82,3.82,0,0,0,.38,0c2.54,0,4.6-2.43,4.6-5.42S9.86,6.41,7.32,6.41a2.4,2.4,0,0,0-.38,0" transform="translate(0.37 0.37)"/><path class="cls-2" d="M17,17.21a3.82,3.82,0,0,1-.38,0c-2.54,0-4.6-2.43-4.6-5.42s2.06-5.42,4.6-5.42a2.4,2.4,0,0,1,.38,0" transform="translate(0.37 0.37)"/></svg>