<svg id="Layer_2" data-name="Layer 2" xmlns="http://www.w3.org/2000/svg" viewBox="0 0 13.93 11.71"><defs><style>.cls-1{isolation:isolate;}</style></defs><title>icon_variable</title><g class="cls-1"><path d="M14.47,7V8a1.21,1.21,0,0,0-.76.26,1.17,1.17,0,0,0-.39.66,7.34,7.34,0,0,0-.1,1.43q0,1,0,1.34a2.54,2.54,0,0,1-.2.83,1.36,1.36,0,0,1-.93.78,3,3,0,0,1-.76.07h-.34v-1h.19a1.14,1.14,0,0,0,.84-.23,1.68,1.68,0,0,0,.21-1q0-1.52.05-1.93a2.41,2.41,0,0,1,.39-1.08,1.89,1.89,0,0,1,.83-.63,2.06,2.06,0,0,1-1-.89,4.35,4.35,0,0,1-.29-1.86q0-1.19,0-1.42a.82.82,0,0,0-.24-.57,1.31,1.31,0,0,0-.78-.16h-.19v-1h.34a2.74,2.74,0,0,1,.86.1,1.39,1.39,0,0,1,.65.45,1.66,1.66,0,0,1,.33.8,11.92,11.92,0,0,1,.08,1.58,7.92,7.92,0,0,0,.1,1.51,1.17,1.17,0,0,0,.39.66A1.21,1.21,0,0,0,14.47,7Z" transform="translate(-0.53 -1.65)"/></g><g class="cls-1"><path d="M.53,7a1.22,1.22,0,0,0,.76-.25,1.16,1.16,0,0,0,.39-.66,7.43,7.43,0,0,0,.1-1.44q0-1,0-1.34A2.55,2.55,0,0,1,2,2.49,1.48,1.48,0,0,1,2.4,2,1.49,1.49,0,0,1,3,1.71a3.3,3.3,0,0,1,.76-.06h.34v1H3.87A1.14,1.14,0,0,0,3,2.83a1.66,1.66,0,0,0-.21,1,17.58,17.58,0,0,1-.07,2,2.31,2.31,0,0,1-.37,1,2.23,2.23,0,0,1-.83.63,1.86,1.86,0,0,1,1,.86,4.33,4.33,0,0,1,.3,1.89q0,1.19,0,1.41a.86.86,0,0,0,.25.58,1.28,1.28,0,0,0,.78.16h.19v1H3.72a2.76,2.76,0,0,1-.87-.1,1.45,1.45,0,0,1-.65-.45A1.64,1.64,0,0,1,1.88,12a11.81,11.81,0,0,1-.08-1.58,8,8,0,0,0-.1-1.52,1.17,1.17,0,0,0-.39-.66A1.22,1.22,0,0,0,.53,8Z" transform="translate(-0.53 -1.65)"/></g><path d="M4.75,11.15H4.62L4.67,10h.16A2.32,2.32,0,0,0,6.9,7.5,2.3,2.3,0,0,0,4.86,5H4.69L4.6,3.88H4.9A3.42,3.42,0,0,1,8,7.5a3.44,3.44,0,0,1-3.18,3.65Z" transform="translate(-0.53 -1.65)"/><path d="M10.25,11.15h-.13A3.44,3.44,0,0,1,7,7.5a3.44,3.44,0,0,1,3.18-3.65h.26L10.31,5h-.12A2.32,2.32,0,0,0,8.1,7.5a2.32,2.32,0,0,0,2,2.51h.19l.05,1.13Z" transform="translate(-0.53 -1.65)"/></svg>