<?xml version="1.0" encoding="utf-8"?>
<!-- Generator: Adobe Illustrator 21.1.0, SVG Export Plug-In . SVG Version: 6.00 Build 0)  -->
<svg version="1.1" id="Layer_1" xmlns="http://www.w3.org/2000/svg" xmlns:xlink="http://www.w3.org/1999/xlink" x="0px" y="0px"
	 viewBox="0 0 24 24" style="enable-background:new 0 0 24 24;" xml:space="preserve">
<path d="M21.7,0c1.1,0,2,0.9,2,2V22c0,1.1-0.9,2-2,2l0,0l0,0H10.6l0,0c-1.1,0-2-0.9-2-2V2c0-1.1,0.9-2,2-2H21.7z M9.6,2v2h13V2
	c0-0.5-0.4-1-1-1H10.6C10,1,9.6,1.4,9.6,2z M7.5,2.3c0.1,0.1,0.1,0.3,0,0.5C7.4,3,7.3,3,7.1,3c-0.5,0-1,0.4-1,1v1.5h1
	c0.7,0,0.7,1.1,0,1.1h-1v11h1c0.7,0,0.7,1,0,1h-1v1.5c0,0.5,0.4,1,1,1c0.2,0,0.3,0.1,0.4,0.2c0.1,0.1,0.1,0.3,0,0.5
	C7.4,21.9,7.3,22,7.1,22c-1.1,0-2-0.9-2-2v-16c0-1.1,0.9-2,2-2C7.3,2,7.4,2.1,7.5,2.3z M17.2,2c0.3,0,0.5,0.2,0.5,0.5
	s-0.2,0.5-0.5,0.5h-2.1c-0.3,0-0.5-0.2-0.5-0.5S14.8,2,15.1,2H17.2z M4,4.3c0.1,0.1,0.1,0.3,0,0.5C3.9,4.9,3.8,5,3.6,5
	c-0.5,0-1,0.4-1,1v0.5h1c0.7,0,0.7,1,0,1h-1v9h1c0.7,0,0.7,1,0,1h-1v0.5c0,0.5,0.4,1,1,1c0.2,0,0.3,0.1,0.4,0.2
	c0.1,0.2,0.1,0.4,0,0.5c-0.1,0.1-0.2,0.2-0.4,0.2c-1.1,0-2-0.9-2-2V6c0-1.1,0.9-2,2-2C3.8,4.1,3.9,4.2,4,4.3z M9.6,19.1h13V5h-13
	V19.1z M9.6,22.1c0,0.5,0.4,1,1,1h11.1c0.5,0,1-0.4,1-1v-2l-13-0.1V22.1z M16.6,21.6c0,0.3-0.2,0.5-0.5,0.5s-0.5-0.2-0.5-0.5
	s0.2-0.5,0.5-0.5S16.6,21.4,16.6,21.6z"/>
</svg>
