<?xml version="1.0" encoding="utf-8"?>
<!-- Generator: Adobe Illustrator 21.1.0, SVG Export Plug-In . SVG Version: 6.00 Build 0)  -->
<svg version="1.1" id="Layer_1" xmlns="http://www.w3.org/2000/svg" xmlns:xlink="http://www.w3.org/1999/xlink" x="0px" y="0px"
	 viewBox="0 0 24 24" style="enable-background:new 0 0 24 24;" xml:space="preserve">
<path d="M18.5,0.8H5.4L0,9.3l2.2,13.9h3.9L5.8,20h1.9L8,23.2h8l0.3-3.2h1.9l-0.3,3.2h3.9L24,9.3L18.5,0.8z M18.5,18.4H5.4l-1-8.8
	l2.2-4.5h3.5L9.8,6.7h4.4L14,5.1h3.5l2.2,4.5L18.5,18.4z M15.5,11.1c0.3,0,0.5,0.9,0.5,2s-0.3,2-0.5,2c-0.3,0-0.5-0.9-0.5-2
	C15,12.1,15.2,11.1,15.5,11.1z M8.6,11.3c0.3,0,0.5,0.9,0.5,2s-0.3,2-0.5,2c-0.3,0-0.5-0.9-0.5-2S8.4,11.3,8.6,11.3z"/>
</svg>
