<?xml version="1.0" encoding="UTF-8"?>
<svg viewBox="0 0 15 15" version="1.1" xmlns="http://www.w3.org/2000/svg" xmlns:xlink="http://www.w3.org/1999/xlink" x="0px" y="0px" style="enable-background:new 0 0 15 15;" >
    <title>React-icon Copy</title>
    <g>
        <g>
            <path d="M14,6.50148775 C14,5.53444724 12.838565,4.61799039 11.0578883,4.04966812 C11.4688137,2.15724422 11.2861802,0.65163653 10.4814513,0.169604028 C10.2959641,0.0565346761 10.0790868,0.00297550927 9.842234,0.00297550927 L9.842234,0.666514076 C9.97350183,0.666514076 10.0790868,0.69329366 10.1675499,0.743877317 C10.5556461,0.975967041 10.7240114,1.85969329 10.5927436,2.99633783 C10.5613534,3.27603571 10.5099878,3.57061112 10.4472075,3.87113756 C9.88789238,3.72831312 9.27721158,3.61821927 8.63514064,3.54680705 C8.24989808,2.99633783 7.85038728,2.49645228 7.44802283,2.05905241 C8.37831227,1.15747311 9.25152874,0.663538567 9.84508765,0.663538567 L9.84508765,0 C9.84508765,0 9.84508765,0 9.84508765,0 C9.06033428,0 8.03302079,0.583199817 6.9942927,1.59487297 C5.95556461,0.589150835 4.92825112,0.0119020371 4.14349776,0.0119020371 L4.14349776,0.675440604 C4.73420302,0.675440604 5.61027313,1.16639963 6.54056258,2.06202792 C6.14105177,2.49942779 5.74154097,2.99633783 5.36200571,3.54680705 C4.71708113,3.61821927 4.10640033,3.72831312 3.5470852,3.87411307 C3.48145128,3.57656214 3.43293926,3.28793774 3.39869547,3.01121538 C3.26457399,1.87457084 3.43008561,0.990844587 3.81532817,0.755779355 C3.90093763,0.702220188 4.01222992,0.678416114 4.14349776,0.678416114 L4.14349776,0.0148775463 C4.14349776,0.0148775463 4.14349776,0.0148775463 4.14349776,0.0148775463 C3.90379128,0.0148775463 3.68691398,0.0684367132 3.49857318,0.181506065 C2.69669792,0.663538567 2.51691806,2.16617075 2.93069711,4.05264363 C1.15572768,4.62394141 0,5.53742275 0,6.50148775 C0,7.46852827 1.16143498,8.38498512 2.9421117,8.95330739 C2.5311863,10.8457313 2.71381981,12.351339 3.51854872,12.8333715 C3.70403587,12.9464408 3.92091317,13 4.16061965,13 C4.94537301,13 5.97268651,12.4168002 7.01141459,11.405127 C8.05014268,12.4108492 9.07745618,12.988098 9.86220954,12.988098 C10.101916,12.988098 10.3187933,12.9345388 10.5071341,12.8214694 C11.3090094,12.3394369 11.4887892,10.8368048 11.0750102,8.95033188 C12.8442723,8.38200961 14,7.46555276 14,6.50148775 Z M10.2845495,4.51682307 C10.1789645,4.90066377 10.0476967,5.2964065 9.89930697,5.69214923 C9.78230738,5.45410849 9.65960049,5.21606775 9.52547901,4.97802701 C9.39421117,4.73998627 9.25438239,4.50789654 9.11455361,4.28175784 C9.51977171,4.34424353 9.91072157,4.42160678 10.2845495,4.51682307 Z M8.97757848,7.68574044 C8.75499389,8.0874342 8.526702,8.46829938 8.28984916,8.82238499 C7.86465552,8.86106661 7.43375459,8.88189517 7,8.88189517 C6.56909906,8.88189517 6.13819812,8.86106661 5.71585813,8.82536049 C5.4790053,8.47127489 5.24785976,8.09338521 5.02527517,7.69466697 C4.80839788,7.30487526 4.61149613,6.90913252 4.43171627,6.51041428 C4.60864248,6.11169604 4.80839788,5.7129778 5.02242152,5.32318608 C5.24500611,4.92149233 5.473298,4.54062715 5.71015084,4.18654154 C6.13534448,4.14785992 6.56624541,4.12703136 7,4.12703136 C7.43090094,4.12703136 7.86180188,4.14785992 8.28414187,4.18356603 C8.5209947,4.53765164 8.75214024,4.91554131 8.97472483,5.31425956 C9.19160212,5.70405127 9.38850387,6.099794 9.56828373,6.49851225 C9.38850387,6.89723049 9.19160212,7.29594873 8.97757848,7.68574044 Z M9.89930697,7.29892424 C10.053404,7.69764248 10.1846718,8.09636072 10.2931105,8.48317693 C9.91928251,8.57839322 9.52547901,8.65873198 9.11740726,8.72121767 C9.25723604,8.49210346 9.39706482,8.25703822 9.52833265,8.01602197 C9.65960049,7.77798123 9.78230738,7.53696498 9.89930697,7.29892424 Z M7.0057073,10.4737926 C6.74031798,10.1881437 6.47492866,9.86976425 6.21239299,9.52162966 C6.46922136,9.5335317 6.73175703,9.54245823 6.99714635,9.54245823 C7.26538932,9.54245823 7.53077864,9.53650721 7.79046066,9.52162966 C7.53363229,9.86976425 7.26824297,10.1881437 7.0057073,10.4737926 Z M4.88259274,8.72121767 C4.47737464,8.65873198 4.08642479,8.58136873 3.71259682,8.48615244 C3.81818182,8.10231174 3.94944965,7.70656901 4.09783938,7.31082628 C4.21483897,7.54886702 4.33754586,7.78690776 4.47166735,8.0249485 C4.60578883,8.26298924 4.74276396,8.49507897 4.88259274,8.72121767 Z M6.99143905,2.52918288 C7.25682837,2.81483177 7.52221769,3.13321126 7.78475336,3.48134585 C7.52792499,3.46944381 7.26538932,3.46051728 7,3.46051728 C6.73175703,3.46051728 6.46636771,3.4664683 6.20668569,3.48134585 C6.46351406,3.13321126 6.72890338,2.81483177 6.99143905,2.52918288 Z M4.87973909,4.28175784 C4.73991031,4.51087205 4.60008153,4.74593729 4.4688137,4.98695354 C4.33754586,5.22499428 4.21483897,5.46303502 4.09783938,5.70107576 C3.94374236,5.30235752 3.81247452,4.90363928 3.70403587,4.51682307 C4.07786384,4.42458228 4.47166735,4.34424353 4.87973909,4.28175784 Z M2.29718712,8.00709545 C1.28699552,7.55779355 0.633509988,6.96864271 0.633509988,6.50148775 C0.633509988,6.0343328 1.28699552,5.44220645 2.29718712,4.99588006 C2.5426009,4.88578622 2.81084386,4.78759442 3.08764778,4.69535363 C3.25030575,5.27855344 3.46432939,5.88555734 3.72971871,6.50743877 C3.46718304,7.1263447 3.25601305,7.73037308 3.09620872,8.31059739 C2.81369751,8.2183566 2.54545455,8.11718929 2.29718712,8.00709545 Z M3.83245006,12.2590982 C3.44435385,12.0270085 3.27598859,11.1432822 3.40725642,10.0066377 C3.43864656,9.7269398 3.49001223,9.43236439 3.5527925,9.13183795 C4.11210762,9.27466239 4.72278842,9.38475624 5.36485936,9.45616846 C5.75010192,10.0066377 6.14961272,10.5065232 6.55197717,10.9439231 C5.62168773,11.8455024 4.74847126,12.3394369 4.15491235,12.3394369 C4.02649817,12.3364614 3.91805952,12.3096818 3.83245006,12.2590982 Z M10.6013045,9.99176013 C10.735426,11.1284047 10.5699144,12.0121309 10.1846718,12.2471962 C10.0990624,12.3007553 9.98777008,12.3245594 9.85650224,12.3245594 C9.26579698,12.3245594 8.38972687,11.8336004 7.45943742,10.9379721 C7.85894823,10.5005722 8.25845903,10.0036622 8.63799429,9.45319295 C9.28291887,9.38178073 9.89359967,9.27168688 10.4529148,9.12588693 C10.5185487,9.42641337 10.5699144,9.71503777 10.6013045,9.99176013 Z M11.6999592,8.00709545 C11.4545455,8.11718929 11.1863025,8.21538109 10.9094986,8.30762188 C10.7468406,7.72442206 10.532817,7.11741817 10.2674276,6.49553674 C10.5299633,5.87663081 10.7411333,5.27260243 10.9009376,4.69237812 C11.1834488,4.78461891 11.4516918,4.88578622 11.7028129,4.99588006 C12.7130045,5.44518196 13.36649,6.0343328 13.36649,6.50148775 C13.3636364,6.96864271 12.7101508,7.56076905 11.6999592,8.00709545 Z"></path>
            <path d="M6.99571953,7.55907664 C7.54800428,7.55907664 7.9972656,7.05228475 7.9972656,6.5 C7.9972656,5.94771525 7.55371157,5.46587726 7.00142682,5.46587726 C6.44914207,5.46587726 5.9972656,5.94771525 5.9972656,6.5 C5.9972656,7.05228475 6.44343478,7.55907664 6.99571953,7.55907664 Z"></path>
        </g>
    </g>
</svg>