<?xml version="1.0" encoding="utf-8"?>
<!-- Generator: Adobe Illustrator 21.1.0, SVG Export Plug-In . SVG Version: 6.00 Build 0)  -->
<svg version="1.1" id="Layer_1" xmlns="http://www.w3.org/2000/svg" xmlns:xlink="http://www.w3.org/1999/xlink" x="0px" y="0px"
	 viewBox="0 0 24 24" style="enable-background:new 0 0 24 24;" xml:space="preserve">
<path d="M3.1,7.8v8.3h0.7c0.5,0,0.8,0.4,0.8,0.7c0,0.4-0.3,0.7-0.8,0.7H3.1v0.2c0,0.4,0.3,0.7,0.7,0.7c0.3,0,0.5,0.2,0.6,0.3l0,0.1
	c0.1,0.3,0.1,0.6,0,0.8C4.2,19.8,4.1,20,3.8,20c-1.2,0-2.2-1-2.2-2.2V6.1c0-1.2,1-2.2,2.2-2.2l0.1,0c0.2,0.1,0.3,0.2,0.5,0.3l0,0
	c0.2,0.2,0.2,0.5,0,0.8l0,0.1C4.2,5.2,4.1,5.4,3.8,5.4c-0.4,0-0.7,0.3-0.7,0.7v0.2h0.7c0.5,0,0.8,0.4,0.8,0.7S4.3,7.8,3.8,7.8H3.1z
	 M7.2,7C7.7,7,8,6.6,8,6.2c0-0.4-0.3-0.8-0.8-0.8H6.5V4.2c0-0.5,0.4-0.7,0.7-0.7c0.2,0,0.4,0,0.6-0.3C8,2.8,8,2.5,7.8,2.4
	C7.7,2.2,7.5,2,7.2,2C6,2,5,2.9,5,4.2v15.7C5,21.1,6,22,7.2,22c0.3,0,0.5-0.2,0.6-0.3l0-0.1c0.1-0.3,0.1-0.6,0-0.8
	c-0.1-0.1-0.3-0.3-0.6-0.3c-0.5,0-0.7-0.4-0.7-0.7v-1.2h0.7C7.7,18.7,8,18.3,8,18c0-0.4-0.3-0.7-0.8-0.7H6.5V7H7.2z M23.7,2.2v19.6
	c0,1.2-1,2.2-2.2,2.2H10.6c-1.2,0-2.2-1-2.2-2.2V2.2C8.4,1,9.4,0,10.6,0h10.9C22.7,0,23.7,1,23.7,2.2z M10,20.1v2.1H10
	c0.1,0.3,0.3,0.5,0.7,0.5h10.9c0.4,0,0.7-0.3,0.7-0.7v-1.7L10,20.1z M22.2,18.7V5.4H9.9v13.3H22.2z M22.2,3.9V2.2
	c0-0.4-0.3-0.7-0.7-0.7H10.6c-0.5,0-0.7,0.3-0.7,0.7v1.7H22.2z M17.1,2H15c-0.4,0-0.7,0.3-0.7,0.7s0.3,0.7,0.7,0.7h2.1
	c0.4,0,0.7-0.3,0.7-0.7S17.5,2,17.1,2z M16,22.1c0.4,0,0.7-0.3,0.7-0.7c0-0.3-0.3-0.7-0.7-0.7c-0.4,0-0.7,0.3-0.7,0.7
	C15.3,21.8,15.6,22.1,16,22.1z"/>
</svg>
