<?xml version="1.0" encoding="utf-8"?>
<!-- Generator: Adobe Illustrator 21.1.0, SVG Export Plug-In . SVG Version: 6.00 Build 0)  -->
<svg version="1.1" id="Layer_1" xmlns="http://www.w3.org/2000/svg" xmlns:xlink="http://www.w3.org/1999/xlink" x="0px" y="0px"
	 viewBox="0 0 24 24" style="enable-background:new 0 0 24 24;" xml:space="preserve">
<path d="M6,18.2c0.1,1.2,0.9,2.2,2,2.6V24h1.2v-2.9h5.6V24h1.2v-3.2c1.1-0.4,1.9-1.3,2-2.5V10c0-0.1,0.1-0.2,0.1-0.3H6V18.2z
	 M7.2,10.9h9.6V18c0,1.1-0.9,1.9-1.9,1.9H9.1C8,19.9,7.2,19,7.2,18V10.9z M6.7,9.2H12h5.3c0.3,0,0.5-0.2,0.5-0.5v-2
	c0-1.4-0.7-2.7-1.7-3.5l1.6-2.5l-1-0.7l-1.6,2.5c-1-0.4-2.1-0.7-3.2-0.7S9.8,2.1,8.8,2.5L7.2,0l-1,0.7l1.5,2.4C6.7,3.9,6,5.1,6,6.5
	v2C6,8.8,6.3,9.2,6.7,9.2z M7.2,6.5c0-1.1,0.5-2.1,1.5-2.6s2.1-0.9,3.2-0.9s2.3,0.3,3.3,0.9c1,0.5,1.5,1.5,1.5,2.6V8H7.2V6.5z
	 M4.7,9.8h0.2v6.4H4.1v-5.9C4.1,10,4.4,9.8,4.7,9.8z M19.7,10.4v5.9H19V10c0-0.1-0.1-0.2-0.1-0.3h0.3C19.5,9.7,19.9,10,19.7,10.4z
	 M9.7,6.9c-1.4,0-1.4-2.2,0-2.2C11.1,4.7,11.1,6.9,9.7,6.9z M14.1,6.9c-1.4,0-1.4-2.2,0-2.2C15.5,4.7,15.5,6.9,14.1,6.9z"/>
</svg>
