<?xml version="1.0" encoding="utf-8"?>
<!-- Generator: Adobe Illustrator 21.1.0, SVG Export Plug-In . SVG Version: 6.00 Build 0)  -->
<svg version="1.1" id="Layer_1" xmlns="http://www.w3.org/2000/svg" xmlns:xlink="http://www.w3.org/1999/xlink" x="0px" y="0px"
	 viewBox="0 0 24 24" style="enable-background:new 0 0 24 24;" xml:space="preserve">
<path d="M15.2,5.9c0,0.6-0.4,1.2-1.2,1.2s-1.2-0.6-1.2-1.2c0-0.3,0.1-0.6,0.3-0.8c0.2-0.3,0.5-0.4,0.9-0.4
	C14.8,4.7,15.2,5.3,15.2,5.9z M9.7,4.7C9,4.7,8.6,5.3,8.6,5.9c0,0.6,0.4,1.2,1.2,1.2c0.4,0,0.7-0.1,0.9-0.4c0.2-0.2,0.3-0.5,0.3-0.8
	C10.9,5.3,10.5,4.7,9.7,4.7z M19.7,9.9c-0.1-0.2-0.4-0.3-0.6-0.3h-0.4v0.1c0,0.1,0,0.1,0.1,0.2c0,0,0,0.1,0,0.1v6.3h0.9v-5.9
	C19.8,10.3,19.8,10.1,19.7,9.9z M6,8.5v-2c0-1.3,0.6-2.5,1.6-3.4L6.1,0.8L7.3,0l1.6,2.5c0.8-0.3,1.9-0.7,3-0.7c1,0,2,0.2,3.1,0.7
	L16.6,0l1.2,0.8l-1.6,2.5c1,0.9,1.6,2.2,1.6,3.5v2c0,0.4-0.3,0.6-0.6,0.6H6.8C6.3,9.4,6,8.9,6,8.5z M16.5,7.9V6.6
	c0-1.1-0.5-2-1.4-2.5c-0.9-0.6-2.1-0.9-3.2-0.9C11,3.2,10,3.5,8.8,4.1C7.9,4.6,7.4,5.5,7.4,6.6v1.4H16.5z M4.1,10.3v6h1V9.7H4.8
	C4.4,9.7,4.1,9.9,4.1,10.3z M6,9.6h12.2v0.1c0,0.1,0,0.1-0.1,0.2c0,0,0,0.1,0,0.1v8.2c-0.1,1.2-0.8,2.1-2,2.6V24h-1.4v-2.9H9.4V24
	H7.9v-3.2c-1.1-0.4-1.9-1.5-2-2.6l0,0V9.6z M7.4,11v6.9c0,1,0.8,1.8,1.8,1.8h5.7c1,0,1.8-0.8,1.8-1.8V11H7.4z"/>
</svg>
