<?xml version="1.0" encoding="utf-8"?>
<!-- Generator: Adobe Illustrator 21.0.2, SVG Export Plug-In . SVG Version: 6.00 Build 0)  -->
<svg version="1.1" id="Layer_2" xmlns="http://www.w3.org/2000/svg" xmlns:xlink="http://www.w3.org/1999/xlink" x="0px" y="0px"
	 viewBox="0 0 16 16" style="enable-background:new 0 0 16 16;" xml:space="preserve">
<style type="text/css">
	.st0{fill:#020202;}
</style>
<g>
	<g>
		<path class="st0" d="M8.1,5.8c-0.8,0-1.5-0.7-1.5-1.5s0.7-1.5,1.5-1.5c0.8,0,1.5,0.7,1.5,1.5S8.9,5.8,8.1,5.8z M8.1,3.5
			c-0.5,0-0.9,0.4-0.9,0.9s0.4,0.9,0.9,0.9c0.5,0,0.9-0.4,0.9-0.9S8.5,3.5,8.1,3.5z"/>
	</g>
	<g>
		<path class="st0" d="M4.5,11.4C3.7,11.4,3,10.7,3,9.9c0-0.8,0.7-1.5,1.5-1.5S6,9.1,6,9.9C6,10.7,5.3,11.4,4.5,11.4z M4.5,9.1
			C4,9.1,3.6,9.4,3.6,9.9s0.4,0.9,0.9,0.9s0.9-0.4,0.9-0.9S5,9.1,4.5,9.1z"/>
	</g>
	<g>
		<path class="st0" d="M11.3,11.4c-0.8,0-1.5-0.7-1.5-1.5c0-0.8,0.7-1.5,1.5-1.5c0.8,0,1.5,0.7,1.5,1.5
			C12.8,10.7,12.1,11.4,11.3,11.4z M11.3,9.1c-0.5,0-0.9,0.4-0.9,0.9s0.4,0.9,0.9,0.9s0.9-0.4,0.9-0.9S11.8,9.1,11.3,9.1z"/>
	</g>
	<g>
		<path class="st0" d="M4.9,9.1c-0.1,0-0.1,0-0.2,0C4.6,9,4.5,8.8,4.6,8.6L7,5C7,4.9,7.2,4.8,7.4,4.9C7.5,5,7.6,5.2,7.5,5.4L5.1,9
			C5.1,9.1,5,9.1,4.9,9.1z"/>
	</g>
	<g>
		<path class="st0" d="M11.3,8.9c-0.1,0-0.2,0-0.3-0.1L8.8,5.4C8.7,5.2,8.7,5,8.8,4.9C9,4.8,9.2,4.9,9.3,5l2.3,3.4
			c0.1,0.1,0.1,0.3-0.1,0.4C11.4,8.9,11.3,8.9,11.3,8.9z"/>
	</g>
	<g>
		<path class="st0" d="M9.9,10.4H5.6c-0.2,0-0.3-0.1-0.3-0.3c0-0.2,0.1-0.3,0.3-0.3h4.3c0.2,0,0.3,0.1,0.3,0.3
			C10.2,10.3,10.1,10.4,9.9,10.4z"/>
	</g>
	<g>
		<path class="st0" d="M2.9,14C2.9,14,2.9,14,2.9,14c-1-0.1-1.6-0.4-1.9-0.9c-0.5-0.8-0.3-1.7-0.1-2.7c0.3-1.2,0.4-2-0.3-2.3
			C0.5,8,0.4,7.9,0.4,7.8c0-0.1,0.1-0.2,0.2-0.3c1.2-0.6,1.1-0.9,0.5-2.6c-0.4-1-0.4-1.9,0-2.5c0.5-0.9,1.6-1,1.6-1
			c0.2,0,0.3,0.1,0.3,0.3C3.1,1.8,3,2,2.8,2c0,0-0.8,0.1-1.2,0.7c-0.3,0.5-0.3,1.1,0,2C2.3,6.3,2.5,7,1.3,7.8
			c0.7,0.7,0.4,1.7,0.2,2.7c-0.2,0.8-0.4,1.7,0,2.2c0.2,0.4,0.7,0.6,1.5,0.7c0.2,0,0.3,0.2,0.3,0.3C3.2,13.9,3.1,14,2.9,14z"/>
	</g>
	<g>
		<path class="st0" d="M13.3,14c-0.1,0-0.3-0.1-0.3-0.3c0-0.2,0.1-0.3,0.3-0.3c0.7-0.1,1.2-0.3,1.5-0.7c0.4-0.5,0.2-1.4,0-2.2
			c-0.2-1-0.4-2,0.2-2.7c-1.2-0.8-1-1.5-0.4-3.1c0.3-0.8,0.3-1.5,0-2C14.2,2.1,13.4,2,13.4,2c-0.2,0-0.3-0.2-0.3-0.3
			c0-0.2,0.2-0.3,0.3-0.3c0,0,1.1,0.2,1.6,1c0.4,0.6,0.4,1.5,0,2.5c-0.6,1.7-0.6,1.9,0.5,2.6c0.1,0.1,0.2,0.2,0.2,0.3S15.8,8,15.7,8
			c-0.7,0.4-0.6,1.1-0.3,2.3c0.2,1,0.4,1.9-0.1,2.7C14.9,13.6,14.3,13.9,13.3,14C13.3,14,13.3,14,13.3,14z"/>
	</g>
</g>
</svg>
