<?xml version="1.0" encoding="utf-8"?>
<!-- Generator: Adobe Illustrator 21.0.2, SVG Export Plug-In . SVG Version: 6.00 Build 0)  -->
<svg version="1.1" id="iconmonstr" xmlns="http://www.w3.org/2000/svg" xmlns:xlink="http://www.w3.org/1999/xlink" x="0px" y="0px"
	 viewBox="0 0 16 16" style="enable-background:new 0 0 16 16;" xml:space="preserve">
<g>
	<g>
		<path d="M6.5,5.1C2.9,5.1,0.1,4,0.1,2.6c0-1.4,2.8-2.5,6.4-2.5c3.6,0,6.4,1.1,6.4,2.5C13,4,10.2,5.1,6.5,5.1z M6.5,0.6
			c-3.6,0-6,1.1-6,2.1c0,1,2.4,2.1,6,2.1s6-1.1,6-2.1C12.6,1.6,10.1,0.6,6.5,0.6z"/>
	</g>
	<g>
		<path d="M6.5,15.7c-3.6,0-6.4-1.1-6.4-2.5c0-0.1,0.1-0.2,0.2-0.2s0.2,0.1,0.2,0.2c0,1,2.4,2.1,6,2.1c1.9,0,3.6-0.3,4.8-0.8
			c0.1,0,0.2,0,0.3,0.1c0,0.1,0,0.2-0.1,0.3C10.3,15.4,8.5,15.7,6.5,15.7z"/>
	</g>
	<g>
		<path d="M6.5,14.3c-3.6,0-6.4-1.1-6.4-2.5c0-0.1,0.1-0.2,0.2-0.2s0.2,0.1,0.2,0.2c0,1,2.4,2.1,6,2.1c1.7,0,3.3-0.3,4.4-0.7
			c0.1,0,0.2,0,0.3,0.1c0,0.1,0,0.2-0.1,0.3C9.9,14,8.3,14.3,6.5,14.3z"/>
	</g>
	<g>
		<path d="M6.5,6.8c-3.6,0-6.4-1.1-6.4-2.5c0-0.1,0.1-0.2,0.2-0.2s0.2,0.1,0.2,0.2c0,1,2.4,2.1,6,2.1c3.5,0,5.8-1,6-2
			c0-0.1,0.1-0.2,0.2-0.2c0.1,0,0.2,0.1,0.2,0.2C12.7,5.8,10,6.8,6.5,6.8z"/>
	</g>
	<g>
		<path d="M0.3,13.3c-0.1,0-0.2-0.1-0.2-0.2V2.6c0-0.1,0.1-0.2,0.2-0.2s0.2,0.1,0.2,0.2v10.5C0.5,13.2,0.4,13.3,0.3,13.3z"/>
	</g>
	<g>
		<path d="M12.8,11.1c-0.1,0-0.2-0.1-0.2-0.2V2.8c0-0.1,0.1-0.2,0.2-0.2c0.1,0,0.2,0.1,0.2,0.2v8.1C13,11,12.9,11.1,12.8,11.1z"/>
	</g>
	<g>
		<path d="M13.4,15.7c-1.4,0-2.5-1.1-2.5-2.5c0-1.4,1.1-2.5,2.5-2.5s2.5,1.1,2.5,2.5C15.9,14.6,14.8,15.7,13.4,15.7z M13.4,11.1
			c-1.2,0-2.1,0.9-2.1,2.1s0.9,2.1,2.1,2.1s2.1-0.9,2.1-2.1S14.6,11.1,13.4,11.1z"/>
	</g>
	<g>
		<path d="M13.3,14.4c-0.1,0-0.2-0.1-0.2-0.2v-2c0-0.1,0.1-0.2,0.2-0.2c0.1,0,0.2,0.1,0.2,0.2v2C13.5,14.3,13.4,14.4,13.3,14.4z"/>
	</g>
	<g>
		<path d="M14.3,13.4h-2c-0.1,0-0.2-0.1-0.2-0.2c0-0.1,0.1-0.2,0.2-0.2h2c0.1,0,0.2,0.1,0.2,0.2C14.5,13.3,14.4,13.4,14.3,13.4z"/>
	</g>
	<g>
		<path d="M3.8,9.8c0,0.2,0,0.3-0.1,0.4c-0.1,0.1-0.1,0.2-0.2,0.3c-0.1,0.1-0.2,0.2-0.4,0.2c-0.1,0.1-0.3,0.1-0.5,0.1
			c-0.2,0-0.4,0-0.5-0.1s-0.3-0.2-0.4-0.3c-0.1-0.1-0.2-0.3-0.2-0.5S1.3,9.6,1.3,9.4V9.1c0-0.2,0-0.4,0.1-0.6
			c0.1-0.2,0.1-0.3,0.3-0.5c0.1-0.1,0.2-0.2,0.4-0.3c0.2-0.1,0.3-0.1,0.5-0.1c0.2,0,0.3,0,0.5,0.1C3.2,7.8,3.4,7.9,3.5,8
			c0.1,0.1,0.2,0.2,0.2,0.3c0.1,0.1,0.1,0.3,0.1,0.4H3.3c0-0.1,0-0.2-0.1-0.3c0-0.1-0.1-0.1-0.1-0.2C3,8.2,3,8.2,2.9,8.1
			c-0.1,0-0.2,0-0.3,0c-0.1,0-0.2,0-0.3,0.1S2.1,8.3,2.1,8.4C2,8.4,2,8.6,1.9,8.7c0,0.1,0,0.3,0,0.4v0.3c0,0.2,0,0.3,0,0.4
			C2,9.9,2,10,2,10.1s0.1,0.2,0.2,0.2c0.1,0,0.2,0.1,0.3,0.1c0.1,0,0.2,0,0.3,0c0.1,0,0.1-0.1,0.2-0.1c0.1-0.1,0.1-0.1,0.1-0.2
			s0-0.2,0.1-0.3H3.8z"/>
		<path d="M5.4,9.6H4.8v1.2H4.3V7.7h1.1c0.2,0,0.3,0,0.5,0.1c0.1,0,0.3,0.1,0.4,0.2C6.3,8,6.4,8.1,6.4,8.2c0,0.1,0.1,0.3,0.1,0.4
			c0,0.2,0,0.4-0.1,0.5C6.2,9.3,6.1,9.4,5.9,9.5l0.7,1.3v0H6L5.4,9.6z M4.8,9.2h0.6c0.1,0,0.2,0,0.3,0S5.8,9.1,5.8,9
			c0,0,0.1-0.1,0.1-0.2c0-0.1,0-0.1,0-0.2c0-0.1,0-0.2,0-0.2c0-0.1-0.1-0.1-0.1-0.2c0,0-0.1-0.1-0.2-0.1c-0.1,0-0.2,0-0.3,0H4.8V9.2
			z"/>
		<path d="M9.2,7.7v2.1c0,0.2,0,0.3-0.1,0.5S9,10.5,8.9,10.6c-0.1,0.1-0.2,0.2-0.4,0.2s-0.3,0.1-0.4,0.1c-0.2,0-0.3,0-0.5-0.1
			c-0.1,0-0.3-0.1-0.4-0.2c-0.1-0.1-0.2-0.2-0.2-0.3S6.9,9.9,6.9,9.8V7.7h0.5v2.1c0,0.1,0,0.2,0,0.3c0,0.1,0.1,0.1,0.1,0.2
			c0.1,0.1,0.1,0.1,0.2,0.1c0.1,0,0.2,0,0.3,0s0.2,0,0.3,0c0.1,0,0.1-0.1,0.2-0.1c0.1-0.1,0.1-0.1,0.1-0.2c0-0.1,0-0.2,0-0.3V7.7
			H9.2z"/>
		<path d="M9.8,10.8V7.7h0.9c0.2,0,0.4,0,0.6,0.1c0.2,0.1,0.3,0.2,0.4,0.3C11.9,8.2,12,8.4,12,8.6c0.1,0.2,0.1,0.4,0.1,0.6v0.2
			c0,0.2,0,0.4-0.1,0.6c-0.1,0.2-0.2,0.3-0.3,0.5c-0.1,0.1-0.3,0.2-0.4,0.3c-0.2,0.1-0.4,0.1-0.6,0.1H9.8z M10.4,8.1v2.2h0.3
			c0.1,0,0.3,0,0.4-0.1c0.1,0,0.2-0.1,0.3-0.2c0.1-0.1,0.1-0.2,0.2-0.3c0-0.1,0.1-0.3,0.1-0.4V9.2c0-0.3-0.1-0.6-0.2-0.8
			S11,8.1,10.7,8.1H10.4z"/>
	</g>
</g>
</svg>
