<?xml version="1.0" encoding="utf-8"?>
<!-- Generator: Adobe Illustrator 22.1.0, SVG Export Plug-In . SVG Version: 6.00 Build 0)  -->
<svg version="1.1" id="iconmonstr" xmlns="http://www.w3.org/2000/svg" xmlns:xlink="http://www.w3.org/1999/xlink" x="0px" y="0px"
	 viewBox="0 0 60 60" style="enable-background:new 0 0 60 60;" xml:space="preserve">
<g>
	<path d="M49.9,37.9V9.2V9.1V9V8.8C49.3,4.4,38.6,1,25.4,1C12.6,1,2.1,4.3,1.1,8.4H1V9v0.1v0.1V50c0,5.8,12.6,9,24.4,9
		c5.8,0,11.8-0.8,16.4-2.2c1.8,1.4,4.1,2.2,6.5,2.2C54.2,59,59,54.2,59,48.4C59,43,55,38.6,49.9,37.9z M25.4,2.8
		C39,2.8,48,6.6,48,9.1s-9,6.3-22.6,6.3c-13.6,0-22.6-3.8-22.6-6.3S11.8,2.8,25.4,2.8z M2.8,12.2c3.6,3,12.4,5,22.6,5
		c10.2,0,19-2.1,22.6-5.1V17c0,3.4-9.3,7.2-22.6,7.2c-13.3,0-22.6-3.8-22.6-7.2V12.2z M2.8,20.5C6.7,24.1,16.3,26,25.4,26
		c9.2,0,18.8-1.9,22.6-5.5v17.3c-5.7,0.2-10.3,4.8-10.3,10.6c0,0.1,0,0.2,0,0.2c-3.5,0.8-7.6,1.2-12.3,1.2
		c-13.3,0-22.6-3.8-22.6-7.2V20.5z M25.4,57.3C12.1,57.2,2.8,53.4,2.8,50v-3.8c3.9,3.6,13.5,5.5,22.6,5.5c4.3,0,8.7-0.4,12.5-1.2
		c0.4,1.9,1.2,3.5,2.4,4.9C36.4,56.5,31.3,57.3,25.4,57.3z M48.4,57.2c-4.9,0-8.9-4-8.9-8.9c0-4.9,4-8.9,8.9-8.9
		c4.9,0,8.9,4,8.9,8.9C57.2,53.3,53.3,57.2,48.4,57.2z"/>
	<path d="M10.4,39.3c1.2,0,2.2-0.3,2.9-1s1-1.5,1-2.6h-1.7c0,0.7-0.2,1.2-0.6,1.6c-0.4,0.4-0.9,0.6-1.6,0.6c-0.7,0-1.3-0.3-1.7-0.8
		c-0.4-0.5-0.6-1.3-0.6-2.1v-2c-0.2-1.2,0-1.9,0.4-2.4c0.4-0.6,1-0.8,1.7-0.8s1.3,0.2,1.7,0.6c0.4,0.4,0.6,0.9,0.6,1.6h1.7
		c0-1.1-0.3-2-1-2.6c-0.7-0.6-1.7-0.9-2.9-0.9s-2.2,0.4-2.9,1.2c-0.7,0.8-1.1,1.9-1.1,3.2v2c0,1.3,0.4,2.3,1.1,3.2
		C8.2,38.9,9.1,39.3,10.4,39.3z"/>
	<path d="M17.4,34.6h2.1c0.5,0,1,0.2,1.3,0.5c0.3,0.3,0.5,0.7,0.5,1.3v0.8c0,0.3,0,0.7,0.1,1c0.1,0.3,0.2,0.6,0.4,0.7h1.8v-0.2
		c-0.2-0.2-0.3-0.4-0.4-0.7c-0.1-0.2-0.1-0.5-0.1-0.8v-0.9c0-0.6-0.1-1.1-0.4-1.6S22,34,21.4,33.8c0.5-0.2,0.9-0.5,1.2-0.9
		c0.3-0.4,0.4-0.9,0.4-1.4c0-1-0.3-1.7-1-2.3c-0.6-0.5-1.5-0.8-2.7-0.8h-3.6v10.5h1.7V34.6z M17.6,29.9h1.9c0.6,0,1.1,0.1,1.4,0.4
		c0.3,0.3,0.5,0.7,0.5,1.2c-0.1,0.6-0.2,1-0.5,1.3c-0.3,0.3-0.8,0.4-1.5,0.4h-1.8V29.9z"/>
	<path d="M29.2,39.1c1.2,0,2.2-0.3,3-1c0.8-0.7,1.1-1.6,1.1-2.7v-6.9h-1.7l-0.1,6.9l0,0c0,0.7-0.2,1.3-0.6,1.7
		c-0.4,0.4-1,0.6-1.7,0.6s-1.2-0.2-1.7-0.6c-0.4-0.4-0.6-1-0.6-1.7v-6.9h-1.7v6.9c0,1.2,0.4,2.1,1.1,2.7C27,38.8,28,39.1,29.2,39.1z
		"/>
	<path d="M42,37.8c0.8-0.8,1.2-1.9,1.2-3.2V33c0-1.4-0.4-2.5-1.2-3.3s-1.9-1.2-3.2-1.2h-3.5V39h3.5C40.1,39,41.2,38.6,42,37.8z
		 M37,29.9h1.7c0.8,0,1.5,0.3,2,0.9c0.5,0.6,0.7,1.3,0.7,2.2v1.5l0,0c0,0.9-0.1,1.6-0.6,2.2c-0.5,0.6-1.2,0.9-2,0.9H37V29.9z"/>
	<path d="M52.8,47.5h-3.6v-3.6c0-0.5-0.4-0.9-0.9-0.9s-0.9,0.4-0.9,0.9v3.6h-3.7c-0.5,0-0.9,0.4-0.9,0.9s0.4,0.9,0.9,0.9h3.7v3.6
		c0,0.5,0.4,0.9,0.9,0.9s0.9-0.4,0.9-0.9v-3.6h3.6c0.5,0,0.9-0.4,0.9-0.9S53.3,47.5,52.8,47.5z"/>
</g>
</svg>
