<?xml version="1.0" encoding="utf-8"?>
<!-- Generator: Adobe Illustrator 22.1.0, SVG Export Plug-In . SVG Version: 6.00 Build 0)  -->
<svg version="1.1" id="iconmonstr" xmlns="http://www.w3.org/2000/svg" xmlns:xlink="http://www.w3.org/1999/xlink" x="0px" y="0px"
	 viewBox="0 0 60 60" style="enable-background:new 0 0 60 60;" xml:space="preserve">
<style type="text/css">
	.st0{fill:none;}
</style>
<path class="st0" d="M38.7,29.9H37v7.7h1.7c0.8,0,1.5-0.3,2-0.9s0.7-1.3,0.7-2.2v-1.6c0-0.9-0.2-1.6-0.7-2.2S39.6,29.9,38.7,29.9z"
	/>
<path class="st0" d="M25.4,25.9c-9.2,0-18.8-1.9-22.6-5.5v22.2c0,3.4,9.3,7.2,22.6,7.2c4.7,0,8.9-0.5,12.3-1.2c0-0.1,0-0.2,0-0.2
	c0-5.8,4.6-10.4,10.3-10.6V20.5C44.2,24,34.6,25.9,25.4,25.9z M8.5,36.8c0.4,0.6,1,0.8,1.7,0.8c0.7,0,1.3-0.2,1.6-0.6
	c0.4-0.4,0.6-0.9,0.6-1.6h1.7l0,0c0,1.1-0.3,1.9-1,2.6c-0.7,0.7-1.7,1-2.9,1c-1.2,0-2.2-0.4-3-1.2C6.5,37,6.1,36,6.1,34.7v-2
	c0-1.3,0.4-2.3,1.1-3.2c0.7-0.8,1.7-1.2,2.9-1.2c1.2,0,2.2,0.3,2.9,0.9c0.7,0.6,1.1,1.5,1,2.6l0,0h-1.7c0-0.7-0.2-1.2-0.6-1.6
	c-0.4-0.4-0.9-0.6-1.7-0.6c-0.7,0-1.3,0.3-1.7,0.8s-0.6,1.3-0.6,2.1v2C7.9,35.6,8.1,36.3,8.5,36.8z M23.6,38.9h-1.8
	c-0.2-0.2-0.3-0.4-0.4-0.7c-0.1-0.3-0.1-0.7-0.1-1v-0.8c0-0.5-0.2-1-0.5-1.3c-0.3-0.3-0.7-0.5-1.3-0.5h-2.1v4.3h-1.7V28.5h3.6
	c1.2,0,2.1,0.3,2.7,0.8c0.6,0.5,1,1.3,1,2.3c0,0.5-0.1,1-0.4,1.4c-0.3,0.4-0.7,0.7-1.2,0.9c0.6,0.2,1,0.5,1.3,0.9s0.4,0.9,0.4,1.6
	v0.9c0,0.3,0,0.6,0.1,0.9c0.1,0.3,0.2,0.5,0.4,0.7V38.9z M33.2,35.4c0,1.2-0.4,2.1-1.1,2.7c-0.8,0.7-1.8,1-3,1c-1.2,0-2.2-0.3-2.9-1
	c-0.7-0.7-1.1-1.6-1.1-2.7v-6.9h1.7v6.9c0,0.7,0.2,1.3,0.6,1.7c0.4,0.4,1,0.6,1.7,0.6c0.7,0,1.3-0.2,1.7-0.6c0.4-0.4,0.6-1,0.6-1.7
	v-6.9h1.7V35.4z M42,37.7c-0.8,0.8-1.9,1.2-3.2,1.2h-3.5V28.5h3.5c1.3,0,2.4,0.4,3.2,1.2c0.8,0.8,1.2,1.9,1.2,3.2v1.6
	C43.2,35.8,42.8,36.9,42,37.7z"/>
<path class="st0" d="M2.8,46.2V50c0,3.4,9.3,7.2,22.6,7.2c5.9,0,11-0.8,14.9-1.9c-1.2-1.4-2-3.1-2.4-4.9c-3.8,0.8-8.2,1.2-12.5,1.2
	C16.3,51.6,6.7,49.7,2.8,46.2z"/>
<path class="st0" d="M25.4,15.4C39,15.4,48,11.6,48,9.1c0-2.5-9-6.3-22.6-6.3h0C11.8,2.8,2.8,6.6,2.8,9.1
	C2.8,11.6,11.8,15.4,25.4,15.4z"/>
<path class="st0" d="M19.4,29.9h-1.9v3.3h1.8c0.7,0,1.2-0.1,1.5-0.4s0.5-0.7,0.5-1.2c0-0.5-0.2-0.9-0.5-1.2S20.1,29.9,19.4,29.9z"/>
<path class="st0" d="M25.4,24.2c13.3,0,22.6-3.8,22.6-7.2v-4.8c-3.6,3-12.4,5.1-22.6,5.1c0,0,0,0,0,0c-10.2,0-19-2.1-22.6-5V17
	C2.8,20.4,12.1,24.2,25.4,24.2z"/>
<path d="M8.5,30.6c0.4-0.6,1-0.8,1.7-0.8c0.7,0,1.3,0.2,1.7,0.6c0.4,0.4,0.6,0.9,0.6,1.6h1.7l0,0c0-1.1-0.3-2-1-2.6
	c-0.7-0.6-1.7-0.9-2.9-0.9c-1.2,0-2.2,0.4-2.9,1.2c-0.7,0.8-1.1,1.9-1.1,3.2v2c0,1.3,0.4,2.3,1.1,3.2c0.8,0.8,1.7,1.2,3,1.2
	c1.2,0,2.2-0.3,2.9-1c0.7-0.7,1-1.5,1-2.6l0,0h-1.7c0,0.7-0.2,1.2-0.6,1.6c-0.4,0.4-0.9,0.6-1.6,0.6c-0.7,0-1.3-0.3-1.7-0.8
	s-0.6-1.3-0.6-2.1v-2C7.9,31.8,8.1,31.1,8.5,30.6z"/>
<path d="M23.1,37.2v-0.9c0-0.6-0.1-1.1-0.4-1.6S22,34,21.4,33.8c0.5-0.2,0.9-0.5,1.2-0.9c0.3-0.4,0.4-0.9,0.4-1.4c0-1-0.3-1.7-1-2.3
	c-0.6-0.5-1.5-0.8-2.7-0.8h-3.6v10.5h1.7v-4.3h2.1c0.5,0,1,0.2,1.3,0.5c0.3,0.3,0.5,0.7,0.5,1.3v0.8c0,0.3,0,0.7,0.1,1
	c0.1,0.3,0.2,0.6,0.4,0.7h1.8v-0.2c-0.2-0.2-0.3-0.4-0.4-0.7C23.1,37.8,23.1,37.5,23.1,37.2z M20.9,32.8c-0.3,0.3-0.8,0.4-1.5,0.4
	h-1.8v-3.3h1.9c0.6,0,1.1,0.1,1.4,0.4s0.5,0.7,0.5,1.2C21.3,32.1,21.2,32.5,20.9,32.8z"/>
<path d="M31.5,35.4c0,0.7-0.2,1.3-0.6,1.7c-0.4,0.4-1,0.6-1.7,0.6c-0.7,0-1.2-0.2-1.7-0.6c-0.4-0.4-0.6-1-0.6-1.7v-6.9h-1.7v6.9
	c0,1.2,0.4,2.1,1.1,2.7c0.7,0.7,1.7,1,2.9,1c1.2,0,2.2-0.3,3-1c0.8-0.7,1.1-1.6,1.1-2.7v-6.9h-1.7V35.4z"/>
<path d="M42,29.7c-0.8-0.8-1.9-1.2-3.2-1.2h-3.5v10.5h3.5c1.3,0,2.4-0.4,3.2-1.2s1.2-1.9,1.2-3.2v-1.6C43.2,31.6,42.8,30.5,42,29.7z
	 M41.5,34.5c0,0.9-0.2,1.6-0.7,2.2s-1.2,0.9-2,0.9H37v-7.7h1.7c0.8,0,1.5,0.3,2,0.9s0.7,1.3,0.7,2.2V34.5z"/>
<path d="M52.8,47.5h-3.6v-3.6c0-0.5-0.4-0.9-0.9-0.9s-0.9,0.4-0.9,0.9v3.6h-3.7c-0.5,0-0.9,0.4-0.9,0.9s0.4,0.9,0.9,0.9h3.7v3.6
	c0,0.5,0.4,0.9,0.9,0.9s0.9-0.4,0.9-0.9v-3.6h3.6c0.5,0,0.9-0.4,0.9-0.9S53.3,47.5,52.8,47.5z"/>
<path d="M49.9,37.9V9.2c0,0,0-0.1,0-0.1c0,0,0-0.1,0-0.1V8.8h0C49.3,4.4,38.6,1,25.4,1c0,0,0,0,0,0C12.6,1,2.1,4.3,1.1,8.4H1V9
	c0,0,0,0.1,0,0.1s0,0.1,0,0.1V50c0,5.8,12.6,9,24.4,9c5.8,0,11.8-0.8,16.4-2.2c1.8,1.4,4.1,2.2,6.5,2.2C54.2,59,59,54.2,59,48.4
	C59,43,55,38.6,49.9,37.9z M49.2,37.8c-0.3,0-0.6,0-0.8,0C48.7,37.7,48.9,37.8,49.2,37.8z M25.4,2.8L25.4,2.8C39,2.8,48,6.6,48,9.1
	c0,2.5-9,6.3-22.6,6.3c-13.6,0-22.6-3.8-22.6-6.3C2.8,6.6,11.8,2.8,25.4,2.8z M2.8,12.2c3.6,3,12.4,5,22.6,5c0,0,0,0,0,0
	c10.2,0,19-2.1,22.6-5.1V17c0,3.4-9.3,7.2-22.6,7.2c-13.3,0-22.6-3.8-22.6-7.2V12.2z M2.8,20.5c3.9,3.6,13.5,5.5,22.6,5.5
	c9.2,0,18.8-1.9,22.6-5.5v17.3c-5.7,0.2-10.3,4.8-10.3,10.6c0,0.1,0,0.2,0,0.2c-3.5,0.8-7.6,1.2-12.3,1.2c-13.3,0-22.6-3.8-22.6-7.2
	V20.5z M2.8,50v-3.8c3.9,3.6,13.5,5.5,22.6,5.5c4.3,0,8.7-0.4,12.5-1.2c0.4,1.9,1.2,3.5,2.4,4.9c-3.9,1.1-9,1.9-14.9,1.9
	C12.1,57.2,2.8,53.4,2.8,50z M41.1,56.1C41.1,56.1,41.1,56.1,41.1,56.1C41.1,56.1,41.1,56.1,41.1,56.1z M48.4,57.2
	c-4.9,0-8.9-4-8.9-8.9c0-4.9,4-8.9,8.9-8.9s8.9,4,8.9,8.9C57.2,53.3,53.3,57.2,48.4,57.2z"/>
</svg>
