<?xml version="1.0" encoding="utf-8"?>
<!-- Generator: Adobe Illustrator 21.0.2, SVG Export Plug-In . SVG Version: 6.00 Build 0)  -->
<svg version="1.1" id="iconmonstr" xmlns="http://www.w3.org/2000/svg" xmlns:xlink="http://www.w3.org/1999/xlink" x="0px" y="0px"
	 viewBox="0 0 16 16" style="enable-background:new 0 0 16 16;" xml:space="preserve">
<style type="text/css">
	.st0{enable-background:new    ;}
</style>
<g>
	<path d="M7.8,5.1C4.1,5.1,1.2,4,1.2,2.6S4.1,0,7.8,0c3.7,0,6.6,1.1,6.6,2.5S11.5,5.1,7.8,5.1z M7.8,0.5c-3.7,0-6.2,1.1-6.2,2.1
		s2.5,2.1,6.2,2.1S14,3.6,14,2.6S11.5,0.5,7.8,0.5z"/>
</g>
<g>
	<path d="M7.8,15.9c-3.7,0-6.6-1.1-6.6-2.5c0-0.1,0.1-0.2,0.2-0.2c0.1,0,0.2,0.1,0.2,0.2c0,1,2.5,2.1,6.1,2.1c3.5,0,6-1,6.1-2
		c0-0.1,0.1-0.2,0.2-0.2c0.1,0,0.2,0.1,0.2,0.2C14.2,14.9,11.3,15.9,7.8,15.9z"/>
</g>
<g>
	<path d="M7.9,14.5c-3.7,0-6.6-1.1-6.6-2.5c0-0.1,0.1-0.2,0.2-0.2c0.1,0,0.2,0.1,0.2,0.2c0,1,2.5,2.1,6.2,2.1c2.8,0,6-0.8,6.2-2
		c0-0.1,0.1-0.2,0.2-0.2c0.1,0,0.2,0.1,0.2,0.2C14.2,13.5,11.4,14.5,7.9,14.5z"/>
</g>
<g>
	<path d="M7.8,6.8c-3.7,0-6.6-1.1-6.6-2.5c0-0.1,0.1-0.2,0.2-0.2c0.1,0,0.2,0.1,0.2,0.2c0,1,2.5,2.1,6.1,2.1c2.8,0,5.9-0.8,6.1-2
		c0-0.1,0.1-0.2,0.2-0.2c0.1,0,0.2,0.1,0.2,0.2C14.2,5.8,11.4,6.8,7.8,6.8z"/>
</g>
<g>
	<path d="M1.4,13.6c-0.1,0-0.2-0.1-0.2-0.2V2.6c0-0.1,0.1-0.2,0.2-0.2c0.1,0,0.2,0.1,0.2,0.2v10.9C1.7,13.5,1.6,13.6,1.4,13.6z"/>
</g>
<g>
	<path d="M14.2,13.6c-0.1,0-0.2-0.1-0.2-0.2V2.8c0-0.1,0.1-0.2,0.2-0.2s0.2,0.1,0.2,0.2v10.7C14.4,13.5,14.3,13.6,14.2,13.6z"/>
</g>
<g>
	<path d="M6.4,7.3v0.7H5.5v0.3l0,0v3H4.9v-0.7H3.1v1.8h1.8v-0.7h0.9v-0.2l0,0V8.4h0.5v0.7h1.8V7.3C8.2,7.3,6.4,7.3,6.4,7.3z
		 M4.7,12.1H3.4V11h1.3V12.1z M7.9,8.8H6.7V7.7h1.3V8.8z"/>
</g>
<g class="st0">
	<path d="M8.6,11.6l-0.8,0l-0.2,0.5l-0.4,0L7.9,10l0.3,0L9.1,12l-0.4,0L8.6,11.6z M7.9,11.3l0.6,0l-0.3-0.9L7.9,11.3z"/>
	<path d="M9.7,11.2l0,0.8l-0.4,0L9.3,9.9l0.8,0c0.1,0,0.2,0,0.3,0c0.1,0,0.2,0.1,0.2,0.1c0.1,0.1,0.1,0.1,0.2,0.2
		c0,0.1,0.1,0.2,0.1,0.3c0,0.1,0,0.2,0,0.3c0,0.1-0.1,0.2-0.1,0.2c-0.1,0.1-0.1,0.1-0.2,0.1c-0.1,0-0.2,0.1-0.3,0.1L9.7,11.2z
		 M9.7,11l0.4,0c0.1,0,0.1,0,0.2,0c0,0,0.1,0,0.1-0.1c0,0,0.1-0.1,0.1-0.1c0,0,0-0.1,0-0.1c0,0,0-0.1,0-0.1c0,0,0-0.1-0.1-0.1
		c0,0-0.1-0.1-0.1-0.1c-0.1,0-0.1,0-0.2,0l-0.4,0L9.7,11z"/>
	<path d="M11.7,12l-0.4,0l-0.1-2.1l0.4,0L11.7,12z"/>
	<path d="M12.9,11.5C12.9,11.5,12.9,11.4,12.9,11.5c0-0.1,0-0.1-0.1-0.1c0,0-0.1,0-0.1,0c0,0-0.1,0-0.2,0c-0.1,0-0.2,0-0.2-0.1
		c-0.1,0-0.1-0.1-0.2-0.1c-0.1,0-0.1-0.1-0.1-0.1c0,0,0-0.1,0-0.2c0-0.1,0-0.1,0-0.2c0-0.1,0.1-0.1,0.1-0.2c0.1,0,0.1-0.1,0.2-0.1
		c0.1,0,0.2,0,0.2,0c0.1,0,0.2,0,0.3,0c0.1,0,0.1,0.1,0.2,0.1c0.1,0,0.1,0.1,0.1,0.2c0,0.1,0,0.1,0,0.2l-0.4,0c0,0,0-0.1,0-0.1
		c0,0,0-0.1-0.1-0.1c0,0-0.1,0-0.1,0c0,0-0.1,0-0.1,0c0,0-0.1,0-0.1,0c0,0-0.1,0-0.1,0c0,0,0,0,0,0.1c0,0,0,0,0,0.1c0,0,0,0,0,0.1
		c0,0,0,0,0.1,0.1c0,0,0.1,0,0.1,0c0,0,0.1,0,0.2,0c0.1,0,0.2,0,0.2,0.1c0.1,0,0.1,0.1,0.2,0.1c0.1,0,0.1,0.1,0.1,0.1
		c0,0.1,0,0.1,0,0.2c0,0.1,0,0.1,0,0.2c0,0.1-0.1,0.1-0.1,0.2c-0.1,0-0.1,0.1-0.2,0.1c-0.1,0-0.2,0-0.3,0c-0.1,0-0.2,0-0.3,0
		c-0.1,0-0.2-0.1-0.2-0.1c-0.1,0-0.1-0.1-0.1-0.2c0-0.1,0-0.1,0-0.2l0.3,0c0,0,0,0.1,0,0.1c0,0,0,0.1,0.1,0.1c0,0,0.1,0,0.1,0
		c0,0,0.1,0,0.1,0c0.1,0,0.2,0,0.2-0.1C12.9,11.6,12.9,11.5,12.9,11.5z"/>
</g>
</svg>
