<?xml version="1.0" encoding="utf-8"?>
<!-- Generator: Adobe Illustrator 22.1.0, SVG Export Plug-In . SVG Version: 6.00 Build 0)  -->
<svg version="1.1" id="iconmonstr" xmlns="http://www.w3.org/2000/svg" xmlns:xlink="http://www.w3.org/1999/xlink" x="0px" y="0px"
	 viewBox="0 0 60 60" style="enable-background:new 0 0 60 60;" xml:space="preserve">
<g>
	<path d="M54.4,9V8.8h0C53.8,4.4,43.2,1,30,1c0,0,0,0,0,0C17.2,1,6.7,4.3,5.7,8.4H5.6V9c0,0,0,0.1,0,0.1s0,0.1,0,0.1V50
		c0,5.8,12.6,9,24.4,9c11.8,0,24.4-3.2,24.4-9V9.2C54.4,9.2,54.4,9.1,54.4,9C54.4,9.1,54.4,9,54.4,9z M30,2.8L30,2.8
		c13.6,0,22.6,3.8,22.6,6.3c0,2.5-9,6.3-22.6,6.3c-13.6,0-22.6-3.8-22.6-6.3C7.4,6.6,16.4,2.8,30,2.8z M52.6,50
		c0,3.4-9.3,7.2-22.6,7.2c-13.3,0-22.6-3.8-22.6-7.2v-3.8c3.9,3.6,13.5,5.5,22.6,5.5c9.2,0,18.8-1.9,22.6-5.5V50z M52.6,42.6
		c0,3.4-9.3,7.2-22.6,7.2c-13.3,0-22.6-3.8-22.6-7.2V20.5c3.9,3.6,13.5,5.5,22.6,5.5c9.2,0,18.8-1.9,22.6-5.5V42.6z M52.6,17
		c0,3.4-9.3,7.2-22.6,7.2c-13.3,0-22.6-3.8-22.6-7.2v-4.8c3.6,3,12.4,5,22.6,5c0,0,0,0,0,0c10.2,0,19-2.1,22.6-5.1V17z"/>
	<path d="M27.2,35.7L24,44.9h1.6l0.7-2.1h3.3l0.7,2.1h1.6l-3.2-9.2H27.2z M26.7,41.5l1.2-3.6h0l1.2,3.6H26.7z"/>
	<path d="M34.3,41.4h2c1,0,1.8-0.3,2.4-0.8c0.6-0.5,0.9-1.2,0.9-2.1c0-0.9-0.3-1.5-0.9-2.1c-0.6-0.5-1.4-0.8-2.4-0.8h-3.5v9.2h1.5
		V41.4z M34.3,37h2c0.6,0,1,0.2,1.3,0.5c0.3,0.3,0.4,0.7,0.4,1.2s-0.1,0.9-0.4,1.2c-0.3,0.3-0.7,0.5-1.3,0.5h-2V37z"/>
	<rect x="40.6" y="35.7" width="1.5" height="9.2"/>
	<path d="M46,45c0.8,0,1.5-0.2,2-0.6c0.5-0.4,0.8-0.9,0.8-1.5c0-0.5-0.2-1-0.6-1.3c-0.4-0.3-1.1-0.6-1.9-0.7
		c-0.6-0.1-0.9-0.2-1.1-0.4c-0.2-0.1-0.3-0.3-0.3-0.6c0-0.2,0.1-0.4,0.3-0.6c0.2-0.2,0.5-0.3,0.8-0.3c0.4,0,0.7,0.1,0.9,0.3
		c0.2,0.2,0.3,0.4,0.3,0.7h1.5l0,0c0-0.6-0.2-1.1-0.7-1.5c-0.5-0.4-1.2-0.6-2-0.6c-0.8,0-1.4,0.2-1.9,0.6c-0.5,0.4-0.7,0.9-0.7,1.5
		c0,0.5,0.2,1,0.6,1.3c0.4,0.3,1,0.6,1.8,0.7c0.6,0.1,0.9,0.3,1.1,0.4c0.2,0.2,0.3,0.3,0.3,0.6c0,0.3-0.1,0.5-0.3,0.6
		s-0.5,0.2-0.9,0.2c-0.4,0-0.7-0.1-1-0.3c-0.3-0.2-0.4-0.5-0.4-0.9h-1.4l0,0c0,0.6,0.2,1.1,0.7,1.6C44.5,44.8,45.2,45,46,45z"/>
	<path d="M28.6,34.3v-6.4h-6.5v2.5h-3.2V40h-1.5v-2.3h-6.5v6.4h6.5v-2.5h3V32h1.7v2.3H28.6z M23.7,29.5h3.4v3.3h-3.4V29.5z
		 M15.8,42.6h-3.4v-3.3h3.4V42.6z"/>
</g>
</svg>
