<?xml version="1.0" encoding="utf-8"?>
<!-- Generator: Adobe Illustrator 21.0.2, SVG Export Plug-In . SVG Version: 6.00 Build 0)  -->
<svg version="1.1" id="Layer_3" xmlns="http://www.w3.org/2000/svg" xmlns:xlink="http://www.w3.org/1999/xlink" x="0px" y="0px"
	 viewBox="0 0 16 16" style="enable-background:new 0 0 16 16;" xml:space="preserve">
<style type="text/css">
	.st0{fill:#020202;}
</style>
<g>
	<g>
		<path class="st0" d="M11.4,15.8H4.7c-0.6,0-1.2-0.5-1.2-1.2V1.4c0-0.6,0.5-1.2,1.2-1.2h6.8c0.6,0,1.2,0.5,1.2,1.2v13.2
			C12.6,15.2,12.1,15.8,11.4,15.8z M4.7,0.7C4.3,0.7,4,1,4,1.4v13.2c0,0.4,0.3,0.7,0.7,0.7h6.8c0.4,0,0.7-0.3,0.7-0.7V1.4
			c0-0.4-0.3-0.7-0.7-0.7H4.7z"/>
	</g>
	<g>
		<path class="st0" d="M8.2,15c-0.5,0-0.9-0.4-0.9-0.9c0-0.5,0.4-0.9,0.9-0.9c0.5,0,0.9,0.4,0.9,0.9C9.1,14.6,8.7,15,8.2,15z
			 M8.2,13.5c-0.4,0-0.6,0.3-0.6,0.6s0.3,0.6,0.6,0.6c0.4,0,0.6-0.3,0.6-0.6S8.6,13.5,8.2,13.5z"/>
	</g>
	<g>
		<path class="st0" d="M9.3,2.3H6.9C6.6,2.3,6.3,2,6.3,1.7s0.3-0.5,0.5-0.5h2.4c0.3,0,0.5,0.3,0.5,0.5C9.9,2,9.6,2.3,9.3,2.3z
			 M6.9,1.4c-0.2,0-0.3,0.1-0.3,0.3S6.7,2,6.9,2h2.4c0.1,0,0.3-0.1,0.3-0.3c0-0.2-0.1-0.3-0.3-0.3H6.9z"/>
	</g>
	<g>
		<g>
			<path class="st0" d="M7.2,9.3C7.1,9.3,7.1,9.3,7.2,9.3C7,9.2,7,9.1,7.1,9.1C7.8,8.5,8.2,7.9,8,7.3C7.9,6.9,7.6,6.7,7,6.6
				C7,6.6,6.9,6.5,6.9,6.4C7,6.4,7,6.3,7.1,6.3c0.7,0.1,1.1,0.5,1.2,0.9C8.4,7.9,8,8.7,7.2,9.3C7.2,9.3,7.2,9.3,7.2,9.3z"/>
		</g>
		<g>
			<path class="st0" d="M9.4,9.2C9.4,9.2,9.4,9.2,9.4,9.2C8.7,9,8.2,8.5,8.2,7.9c0-0.6,0.4-1.2,1.2-1.6c0.1,0,0.1,0,0.2,0.1
				c0,0.1,0,0.1-0.1,0.2C8.8,6.9,8.4,7.4,8.4,7.9c0,0.5,0.4,0.9,1,1.1c0.1,0,0.1,0.1,0.1,0.2C9.5,9.2,9.5,9.2,9.4,9.2z"/>
		</g>
		<g>
			<path class="st0" d="M6.3,10C6.3,10,6.3,10,6.3,10c-0.3,0-0.6-0.2-0.7-0.3C5.4,9.4,5.5,9,5.6,8.7C5.6,8.3,5.7,8,5.5,7.9
				c0,0-0.1-0.1-0.1-0.1c0,0,0-0.1,0.1-0.1c0.4-0.2,0.4-0.3,0.2-0.9c-0.1-0.4-0.1-0.7,0-0.9c0.2-0.3,0.6-0.4,0.6-0.4
				c0.1,0,0.1,0,0.1,0.1c0,0.1,0,0.1-0.1,0.1c0,0-0.3,0-0.4,0.2c-0.1,0.2-0.1,0.4,0,0.7c0.2,0.5,0.3,0.8-0.1,1.1
				C6,8,5.9,8.4,5.8,8.7C5.7,9,5.7,9.3,5.8,9.5c0.1,0.1,0.2,0.2,0.5,0.2c0.1,0,0.1,0.1,0.1,0.1C6.4,9.9,6.4,10,6.3,10z"/>
		</g>
		<g>
			<path class="st0" d="M9.8,10c-0.1,0-0.1,0-0.1-0.1c0-0.1,0-0.1,0.1-0.1c0.3,0,0.4-0.1,0.5-0.2c0.1-0.2,0.1-0.5,0-0.7
				c-0.1-0.3-0.1-0.7,0.1-0.9c-0.4-0.3-0.3-0.5-0.1-1.1c0.1-0.3,0.1-0.5,0-0.7c-0.1-0.2-0.4-0.2-0.4-0.2c-0.1,0-0.1-0.1-0.1-0.1
				c0-0.1,0.1-0.1,0.1-0.1c0,0,0.4,0,0.6,0.4c0.1,0.2,0.1,0.5,0,0.9c-0.2,0.6-0.2,0.6,0.2,0.9c0,0,0.1,0.1,0.1,0.1
				c0,0,0,0.1-0.1,0.1c-0.2,0.1-0.2,0.4-0.1,0.8c0.1,0.3,0.1,0.7,0,0.9C10.4,9.8,10.2,9.9,9.8,10C9.9,10,9.8,10,9.8,10z"/>
		</g>
	</g>
	<g>
		<path class="st0" d="M12.2,13.1H3.8c-0.1,0-0.1-0.1-0.1-0.1V2.7c0-0.1,0.1-0.1,0.1-0.1h8.4c0.1,0,0.1,0.1,0.1,0.1V13
			C12.4,13.1,12.3,13.1,12.2,13.1z M3.9,12.9h8.2V2.8H3.9V12.9z"/>
	</g>
</g>
</svg>
