<?xml version="1.0" encoding="utf-8"?>
<!-- Generator: Adobe Illustrator 21.0.2, SVG Export Plug-In . SVG Version: 6.00 Build 0)  -->
<svg version="1.1" id="Layer_1" xmlns="http://www.w3.org/2000/svg" xmlns:xlink="http://www.w3.org/1999/xlink" x="0px" y="0px"
	 viewBox="0 0 16 16" style="enable-background:new 0 0 16 16;" xml:space="preserve">
<style type="text/css">
	.st0{fill:#020202;}
	.st1{fill:none;stroke:#020202;stroke-width:2.5;stroke-linecap:round;stroke-miterlimit:10;}
</style>
<g>
	<g>
		<g>
			<path class="st0" d="M13.4,7.9H1.1C1,7.9,0.8,7.7,0.8,7.6S1,7.3,1.1,7.3h12.3c0.2,0,0.3,0.1,0.3,0.3S13.6,7.9,13.4,7.9z"/>
		</g>
	</g>
	<g>
		<g>
			<path class="st0" d="M5.6,15.7c0,0-0.1,0-0.1,0c-3-1.4-4.9-4.7-4.7-8.1c0-0.2,0.2-0.3,0.3-0.3c0.2,0,0.3,0.2,0.3,0.3
				c-0.2,3.2,1.6,6.2,4.3,7.5c0.2,0.1,0.2,0.2,0.1,0.4C5.8,15.6,5.7,15.7,5.6,15.7z"/>
		</g>
	</g>
	<g>
		<g>
			<path class="st0" d="M8.9,15.7c-0.1,0-0.2-0.1-0.3-0.2c-0.1-0.2,0-0.3,0.1-0.4c2.8-1.3,4.5-4.3,4.3-7.5c0-0.2,0.1-0.3,0.3-0.3
				c0.2,0,0.3,0.1,0.3,0.3c0.2,3.5-1.7,6.7-4.7,8.1C9,15.6,9,15.7,8.9,15.7z"/>
		</g>
	</g>
	<g>
		<g>
			<rect x="5.6" y="15.1" class="st0" width="3.4" height="0.6"/>
		</g>
	</g>
	<g>
		<g>
			<path class="st0" d="M5.7,5.7c-0.1,0-0.2-0.1-0.3-0.2C4.9,4.6,5.2,3.9,5.5,3.3c0.3-0.7,0.7-1.4-0.2-2.7C5.3,0.5,5.3,0.3,5.5,0.2
				c0.1-0.1,0.3-0.1,0.4,0.1c1,1.5,0.6,2.5,0.2,3.3c-0.3,0.6-0.5,1-0.1,1.7C6,5.4,6,5.6,5.8,5.7C5.8,5.7,5.7,5.7,5.7,5.7z"/>
		</g>
	</g>
	<g>
		<g>
			<path class="st0" d="M7.7,5.7c-0.1,0-0.2-0.1-0.3-0.2C6.9,4.6,7.2,3.9,7.5,3.3c0.3-0.7,0.7-1.4-0.2-2.7C7.3,0.4,7.3,0.3,7.5,0.2
				c0.1-0.1,0.3-0.1,0.4,0.1c1,1.5,0.6,2.5,0.2,3.3c-0.3,0.6-0.5,1-0.1,1.7C8,5.4,8,5.5,7.8,5.6C7.8,5.6,7.7,5.7,7.7,5.7z"/>
		</g>
	</g>
	<g>
		<g>
			<path class="st0" d="M9.5,5.7c-0.1,0-0.2-0.1-0.3-0.2C8.8,4.6,9.1,3.9,9.4,3.3C9.7,2.6,10,1.9,9.2,0.7C9.1,0.5,9.2,0.3,9.3,0.2
				c0.1-0.1,0.3-0.1,0.4,0.1c1,1.5,0.6,2.5,0.2,3.3c-0.3,0.6-0.5,1-0.1,1.7c0.1,0.1,0,0.3-0.1,0.4C9.6,5.7,9.6,5.7,9.5,5.7z"/>
		</g>
	</g>
	<g>
		<g>
			<path class="st0" d="M13.2,13.2c0,0-0.1,0-0.1,0c-0.3-0.1-0.5-0.4-0.6-0.6c-0.1-0.3-0.1-0.6,0.1-0.9l0,0c0.2-0.3,0.6-0.5,1.1-0.7
				c0.2-0.1,0.5-0.2,0.8-0.4c0.5-0.3,0.6-0.6,0.6-0.8c0-0.3-0.1-0.6-0.4-0.7c-0.3-0.2-0.7-0.1-1,0.2c-0.1,0.1-0.3,0.1-0.4-0.1
				c-0.1-0.1-0.1-0.3,0.1-0.4c0.6-0.4,1.2-0.5,1.7-0.2c0.4,0.2,0.7,0.7,0.7,1.2c0,0.6-0.4,1.1-0.9,1.3c-0.3,0.2-0.6,0.3-0.9,0.4
				c-0.4,0.1-0.7,0.3-0.8,0.4c-0.1,0.2-0.1,0.3-0.1,0.5c0,0.1,0.1,0.2,0.2,0.3c0.2,0.1,0.2,0.2,0.1,0.4
				C13.4,13.2,13.3,13.2,13.2,13.2z"/>
		</g>
	</g>
	<g>
		<g>
			<path class="st1" d="M14.9,11.3"/>
		</g>
	</g>
</g>
</svg>
