<?xml version="1.0" encoding="utf-8"?>
<!-- Generator: Adobe Illustrator 21.0.2, SVG Export Plug-In . SVG Version: 6.00 Build 0)  -->
<svg version="1.1" id="Layer_5" xmlns="http://www.w3.org/2000/svg" xmlns:xlink="http://www.w3.org/1999/xlink" x="0px" y="0px"
	 viewBox="0 0 16 16" style="enable-background:new 0 0 16 16;" xml:space="preserve">
<style type="text/css">
	.st0{fill:#020202;}
</style>
<g>
	<path class="st0" d="M14.7,15.8H1.2c-0.6,0-1.1-0.5-1.1-1.1V9.2C0.1,9.1,0.2,9,0.3,9s0.3,0.1,0.3,0.3v5.5c0,0.3,0.3,0.6,0.6,0.6
		h13.5c0.3,0,0.6-0.3,0.6-0.6V1.2c0-0.3-0.3-0.6-0.6-0.6H1.2c-0.3,0-0.6,0.3-0.6,0.6v5c0,0.1-0.1,0.3-0.3,0.3S0.1,6.3,0.1,6.2v-5
		c0-0.6,0.5-1.1,1.1-1.1h13.5c0.6,0,1.1,0.5,1.1,1.1v13.5C15.8,15.3,15.3,15.8,14.7,15.8z"/>
</g>
<g>
	<path d="M8.3,11.1c-0.1,0-0.1,0-0.2,0C8,11,7.9,10.9,7.9,10.7V10H4.9c-0.2,0-0.4-0.2-0.4-0.4V6.4C4.5,6.2,4.6,6,4.9,6H8V5.2
		C8,5,8,4.9,8.2,4.8c0.1-0.1,0.3-0.1,0.4,0l3.1,2.7c0.1,0.1,0.2,0.2,0.1,0.4c0,0.1-0.1,0.2-0.2,0.2L8.6,11
		C8.5,11.1,8.4,11.1,8.3,11.1z M8.3,10.7C8.3,10.7,8.3,10.7,8.3,10.7L8.3,10.7z M5,9.5H8c0.2,0,0.4,0.2,0.4,0.4v0.6l2.8-2.7L8.5,5.4
		v0.7c0,0.2-0.2,0.4-0.4,0.4H5V9.5z"/>
</g>
</svg>
