<?xml version="1.0" encoding="utf-8"?>
<!-- Generator: Adobe Illustrator 21.0.2, SVG Export Plug-In . SVG Version: 6.00 Build 0)  -->
<svg version="1.1" id="Layer_7" xmlns="http://www.w3.org/2000/svg" xmlns:xlink="http://www.w3.org/1999/xlink" x="0px" y="0px"
	 viewBox="0 0 16 16" style="enable-background:new 0 0 16 16;" xml:space="preserve">
<g>
	<g>
		<path d="M7.8,6.3c-0.2,0-0.4-0.2-0.4-0.4V0.5c0-0.2,0.2-0.4,0.4-0.4c0.2,0,0.4,0.2,0.4,0.4v5.4C8.2,6.1,8,6.3,7.8,6.3z"/>
	</g>
	<g>
		<path d="M7.8,15.7c-3.8,0-6.9-3.1-6.9-7c0-2.9,1.8-5.5,4.5-6.5c0.2-0.1,0.4,0,0.5,0.2c0.1,0.2,0,0.4-0.2,0.5c-2.4,0.9-4,3.2-4,5.8
			c0,3.5,2.8,6.3,6.2,6.3c3.4,0,6.2-2.8,6.2-6.2c0-2.7-1.7-5.1-4.3-5.9C9.6,2.7,9.5,2.5,9.6,2.3C9.6,2.1,9.9,2,10,2.1
			c2.8,0.9,4.7,3.6,4.7,6.6C14.8,12.5,11.7,15.7,7.8,15.7z"/>
	</g>
</g>
</svg>
