<?xml version="1.0" encoding="utf-8"?>
<!-- Generator: Adobe Illustrator 21.0.2, SVG Export Plug-In . SVG Version: 6.00 Build 0)  -->
<svg version="1.1" id="Layer_8" xmlns="http://www.w3.org/2000/svg" xmlns:xlink="http://www.w3.org/1999/xlink" x="0px" y="0px"
	 viewBox="0 0 16 16" style="enable-background:new 0 0 16 16;" xml:space="preserve">
<style type="text/css">
	.st0{fill:#050505;}
</style>
<g>
	<g>
		<path d="M8.1,15.9c-4.3,0-7.9-3.5-7.9-7.9c0-4.3,3.5-7.9,7.9-7.9c4.3,0,7.9,3.5,7.9,7.9C15.9,12.3,12.4,15.9,8.1,15.9z M8.1,0.7
			C4,0.7,0.7,4,0.7,8c0,4.1,3.3,7.4,7.4,7.4c4.1,0,7.4-3.3,7.4-7.4C15.4,4,12.1,0.7,8.1,0.7z"/>
	</g>
	<g>
		<polygon class="st0" points="11.1,12.3 9.5,7.3 5.5,3.9 7.1,8.9 		"/>
	</g>
</g>
</svg>
