<?xml version="1.0" encoding="utf-8"?>
<!-- Generator: Adobe Illustrator 21.0.2, SVG Export Plug-In . SVG Version: 6.00 Build 0)  -->
<svg version="1.1" id="Layer_9" xmlns="http://www.w3.org/2000/svg" xmlns:xlink="http://www.w3.org/1999/xlink" x="0px" y="0px"
	 viewBox="0 0 16 16" style="enable-background:new 0 0 16 16;" xml:space="preserve">
<style type="text/css">
	.st0{fill:#050505;}
</style>
<g>
	<g>
		<path d="M13.4,14.2H2.1c-0.2,0-0.3-0.1-0.4-0.3c-0.1-0.2-0.1-0.4,0-0.5l1.6-2.8c0,0,0,0,0,0l0-5.3c0.2-2.2,2-3.8,4.6-3.8
			c0,0,0,0,0.1,0c2.4,0,4.2,1.8,4.3,4.2l0,4.9l1.6,2.8c0.1,0.2,0.1,0.3,0,0.5C13.7,14.1,13.6,14.2,13.4,14.2z M3.7,10.9l-1.6,2.8
			l0,0h11.2c0,0,0,0,0,0l-1.6-2.8c-0.1-0.1-0.1-0.2-0.1-0.2V5.7C11.7,3.5,10.1,2,8,2c0,0,0,0-0.1,0C6,2,4,3,3.8,5.3l0,5.3
			C3.8,10.7,3.8,10.8,3.7,10.9z"/>
	</g>
	<g>
		<path class="st0" d="M6.2,14.4c0.1,0.8,0.7,1.4,1.5,1.4s1.5-0.6,1.5-1.4H6.2z"/>
	</g>
	<g>
		<path d="M7.8,1.8c-0.1,0-0.3-0.1-0.3-0.3V0.4c0-0.1,0.1-0.3,0.3-0.3c0.1,0,0.3,0.1,0.3,0.3v1.1C8.1,1.7,8,1.8,7.8,1.8z"/>
	</g>
</g>
</svg>
