<?xml version="1.0" encoding="utf-8"?>
<!-- Generator: Adobe Illustrator 21.0.2, SVG Export Plug-In . SVG Version: 6.00 Build 0)  -->
<svg version="1.1" id="Layer_6" xmlns="http://www.w3.org/2000/svg" xmlns:xlink="http://www.w3.org/1999/xlink" x="0px" y="0px"
	 viewBox="0 0 16 16" style="enable-background:new 0 0 16 16;" xml:space="preserve">
<style type="text/css">
	.st0{fill:#020202;}
</style>
<g>
	<g>
		<path class="st0" d="M8,15.8L8,15.8c-0.1,0-0.1,0-0.1,0c-3.3-0.9-5.6-3.1-6.8-6.6c-1.1-3.2-1-6.4-0.9-7c0-0.1,0-0.1,0.1-0.2
			s0.1-0.1,0.2,0c2.6,0.5,6.3-0.4,7.4-1.4c0.1-0.1,0.3-0.1,0.4,0c1.1,1.1,4.7,1.9,7.3,1.4c0.1,0,0.1,0,0.2,0c0.1,0,0.1,0.1,0.1,0.2
			c0,0.6,0.2,3.7-0.9,7C13.7,12.7,11.4,14.9,8,15.8C8.1,15.8,8.1,15.8,8,15.8z M0.7,2.5C0.6,4.1,0.8,6.6,1.6,9
			c1.2,3.4,3.3,5.5,6.4,6.3c3.1-0.8,5.2-2.9,6.4-6.3c0.8-2.3,1-4.9,0.9-6.5C12.7,2.9,9.3,2.1,8,1C6.7,2.1,3.3,2.9,0.7,2.5z"/>
	</g>
	<g>
		<path d="M7.3,8.3c0,0,0.4,2.5,0.9,6.6c2.5-0.5,5.6-3.3,6.2-6.9C9.8,8.2,7.3,8.3,7.3,8.3z"/>
	</g>
	<g>
		<path class="st0" d="M7.4,8.4c0,0-2.5-0.1-5.5,0c-0.7-1.6-1-4-0.8-5.5c1.8,0.3,3.8,0.1,5.3-0.5C6.6,3.3,7.4,8.4,7.4,8.4z"/>
	</g>
</g>
</svg>
