<?xml version="1.0" encoding="utf-8"?>
<!-- Generator: Adobe Illustrator 21.0.2, SVG Export Plug-In . SVG Version: 6.00 Build 0)  -->
<svg version="1.1" id="Layer_10" xmlns="http://www.w3.org/2000/svg" xmlns:xlink="http://www.w3.org/1999/xlink" x="0px" y="0px"
	 viewBox="0 0 16 16" style="enable-background:new 0 0 16 16;" xml:space="preserve">
<style type="text/css">
	.st0{fill:#070707;}
	.st1{fill:#020202;}
</style>
<g>
	<g>
		<path d="M8.1,15.9c-4,0-7.2-3.2-7.2-7.2s3.2-7.2,7.2-7.2c4,0,7.2,3.2,7.2,7.2S12.1,15.9,8.1,15.9z M8.1,1.9c-3.7,0-6.7,3-6.7,6.7
			c0,3.7,3,6.7,6.7,6.7s6.7-3,6.7-6.7C14.9,4.9,11.9,1.9,8.1,1.9z"/>
	</g>
	<g>
		<rect x="7.7" y="0.8" width="0.7" height="1"/>
	</g>
	<g>
		<path d="M9,1.1h-2V0.4c0-0.1,0.1-0.2,0.2-0.2h1.5c0.1,0,0.2,0.1,0.2,0.2L9,1.1L9,1.1z"/>
	</g>
	<g>
		<circle class="st0" cx="8.1" cy="8.6" r="1"/>
	</g>
	<g>
		<polygon points="9.9,4.8 7.9,7.9 8.9,8.4 		"/>
	</g>
	<g>
		<rect x="7.8" y="1.9" class="st1" width="0.5" height="0.6"/>
	</g>
	<g>
		<rect x="7.8" y="14.7" class="st1" width="0.5" height="0.6"/>
	</g>
	<g>
		<rect x="1.2" y="8.5" class="st1" width="0.6" height="0.5"/>
	</g>
	<g>
		<rect x="14.3" y="8.5" class="st1" width="0.6" height="0.5"/>
	</g>
</g>
</svg>
