<?xml version="1.0" encoding="utf-8"?>
<!-- Generator: Adobe Illustrator 21.0.2, SVG Export Plug-In . SVG Version: 6.00 Build 0)  -->
<svg version="1.1" id="Layer_1" xmlns="http://www.w3.org/2000/svg" xmlns:xlink="http://www.w3.org/1999/xlink" x="0px" y="0px"
	 viewBox="0 0 16 16" style="enable-background:new 0 0 16 16;" xml:space="preserve">
<g>
	<g>
		<path d="M8,15.9c-4.3,0-7.9-3.5-7.9-7.9c0-4.3,3.5-7.8,7.9-7.8c4.3,0,7.9,3.5,7.9,7.8C15.9,12.4,12.4,15.9,8,15.9z M8,0.7
			C4,0.7,0.7,4,0.7,8.1c0,4.1,3.3,7.4,7.4,7.4s7.4-3.3,7.4-7.4C15.4,4,12.1,0.7,8,0.7z"/>
	</g>
	<g>
		<rect x="7.8" y="0.4" width="0.5" height="15.2"/>
	</g>
	<g>
		<path d="M7.9,15.8c-2.4-1.4-4-4.3-4.1-7.4c-0.1-3.2,1.3-6.2,4-8.1l0.3,0.4c-2.6,1.8-4,4.6-3.8,7.7c0.1,2.9,1.7,5.7,3.9,7L7.9,15.8
			z"/>
	</g>
	<g>
		<path d="M8.4,15.8l-0.3-0.4c2.6-1.8,4-4.6,3.8-7.7C11.8,4.7,10.3,2,8,0.7l0.2-0.4c2.4,1.4,4,4.3,4.1,7.4
			C12.6,10.9,11.1,13.9,8.4,15.8z"/>
	</g>
	<g>
		<path d="M2.4,12.9l-0.4-0.2c1.1-1.9,3.4-3.2,5.9-3.3c2.6-0.1,5,1,6.5,3.2L14,12.8c-1.4-2-3.7-3.1-6.1-3C5.6,10,3.4,11.2,2.4,12.9z
			"/>
	</g>
	<g>
		<path d="M8.2,6.9c-0.1,0-0.2,0-0.3,0C5.3,6.8,3,5.5,1.9,3.6l0.4-0.3c1,1.8,3.2,2.9,5.6,3c2.4,0.1,4.7-1,6.1-3l0.4,0.3
			C12.9,5.8,10.7,6.9,8.2,6.9z"/>
	</g>
	<g>
		<rect x="0.4" y="7.8" width="15.2" height="0.5"/>
	</g>
</g>
</svg>
