<?xml version="1.0" encoding="utf-8"?>
<!-- Generator: Adobe Illustrator 21.1.0, SVG Export Plug-In . SVG Version: 6.00 Build 0)  -->
<svg version="1.1" id="Layer_1" xmlns="http://www.w3.org/2000/svg" xmlns:xlink="http://www.w3.org/1999/xlink" x="0px" y="0px"
	 viewBox="0 0 24 24" style="enable-background:new 0 0 24 24;" xml:space="preserve">
<path d="M21.6,8.6V5.3l-5.2-5.2c-0.2-0.2-0.3-0.2-0.5-0.2H2.8c-0.2,0-0.4,0.2-0.4,0.4v8.2H0v12.8h2.4v2.2c0,0.2,0.2,0.4,0.4,0.4
	h18.4c0.2,0,0.4-0.2,0.4-0.4v-2.2H24V8.6H21.6z M16.4,1.4l3.7,3.7h-3.7V1.4z M3.2,0.8h12.3v4.8c0,0.2,0.2,0.4,0.4,0.4h4.8v2.5H3.2
	V0.8z M20.8,23.3H3.2v-1.9h17.5V23.3z M23.2,20.7H0.8V9.5h22.4V20.7z M2.9,15.8l0.7-0.1c0,0.2,0.1,0.4,0.3,0.5
	c0.1,0.1,0.3,0.2,0.5,0.2c0.2,0,0.4,0,0.5-0.1c0.1-0.1,0.2-0.2,0.2-0.3c0-0.1,0-0.2-0.1-0.2c0-0.1-0.1-0.1-0.3-0.2
	c-0.1,0-0.3-0.1-0.6-0.2c-0.4-0.1-0.7-0.2-0.8-0.4c-0.2-0.2-0.3-0.4-0.3-0.7c0-0.2,0.1-0.4,0.2-0.5c0.1-0.2,0.3-0.3,0.4-0.4
	c0.2-0.1,0.4-0.1,0.7-0.1c0.4,0,0.8,0.1,1,0.3c0.2,0.2,0.3,0.5,0.4,0.8l-0.7,0c0-0.2-0.1-0.3-0.2-0.4c-0.1-0.1-0.3-0.1-0.5-0.1
	c-0.2,0-0.4,0-0.5,0.1c-0.1,0.1-0.1,0.1-0.1,0.2c0,0.1,0,0.2,0.1,0.2c0.1,0.1,0.3,0.2,0.7,0.2s0.6,0.2,0.8,0.3
	c0.2,0.1,0.3,0.2,0.4,0.4c0.1,0.2,0.1,0.3,0.1,0.6c0,0.2-0.1,0.4-0.2,0.6s-0.3,0.3-0.5,0.4C5,16.9,4.7,17,4.4,17
	c-0.5,0-0.8-0.1-1-0.3S3,16.2,2.9,15.8z M8.7,15.6l0.7,0.2c-0.1,0.4-0.3,0.7-0.5,0.9C8.7,16.9,8.3,17,8,17c-0.5,0-0.9-0.2-1.2-0.5
	s-0.5-0.8-0.5-1.3c0-0.6,0.2-1.1,0.5-1.4c0.3-0.3,0.7-0.5,1.2-0.5c0.4,0,0.8,0.1,1.1,0.4c0.2,0.2,0.3,0.4,0.4,0.7l-0.7,0.2
	c0-0.2-0.1-0.3-0.3-0.4c-0.1-0.1-0.3-0.2-0.5-0.2c-0.3,0-0.5,0.1-0.6,0.3c-0.2,0.2-0.2,0.5-0.2,0.9c0,0.5,0.1,0.8,0.2,1
	c0.2,0.2,0.4,0.3,0.6,0.3c0.2,0,0.4-0.1,0.5-0.2S8.7,15.9,8.7,15.6z M10.1,16.9v-3.6h1.5c0.4,0,0.7,0,0.8,0.1
	c0.2,0.1,0.3,0.2,0.4,0.3c0.1,0.2,0.2,0.4,0.2,0.6c0,0.3-0.1,0.5-0.2,0.7c-0.2,0.2-0.4,0.3-0.7,0.3c0.2,0.1,0.3,0.2,0.4,0.3
	c0.1,0.1,0.2,0.3,0.4,0.6l0.4,0.7h-0.9l-0.5-0.8c-0.2-0.3-0.3-0.5-0.4-0.5s-0.1-0.1-0.2-0.1s-0.2,0-0.4,0h-0.1v1.5H10.1z M10.8,14.9
	h0.5c0.3,0,0.6,0,0.6,0s0.2-0.1,0.2-0.2c0-0.1,0.1-0.2,0.1-0.3c0-0.1,0-0.2-0.1-0.3C12.1,14,12,14,11.9,14c-0.1,0-0.2,0-0.5,0h-0.6
	V14.9z M13.6,16.9v-3.6h0.7v3.6H13.6z M15.1,16.9v-3.6h1.2c0.4,0,0.7,0,0.9,0.1c0.2,0.1,0.4,0.2,0.5,0.4c0.1,0.2,0.2,0.4,0.2,0.7
	c0,0.2,0,0.4-0.1,0.6c-0.1,0.2-0.2,0.3-0.3,0.4s-0.2,0.1-0.4,0.2c-0.2,0-0.4,0.1-0.7,0.1h-0.5v1.3H15.1z M15.8,13.9v1h0.4
	c0.3,0,0.5,0,0.6-0.1c0.1,0,0.2-0.1,0.2-0.2s0.1-0.2,0.1-0.3c0-0.1,0-0.2-0.1-0.3S16.8,14,16.7,14c-0.1,0-0.3,0-0.5,0H15.8z
	 M19.2,16.9v-3h-1.1v-0.6H21v0.6h-1.1v3H19.2z"/>
</svg>
