<?xml version="1.0" encoding="utf-8"?>
<!-- Generator: Adobe Illustrator 21.1.0, SVG Export Plug-In . SVG Version: 6.00 Build 0)  -->
<svg version="1.1" id="Layer_1" xmlns="http://www.w3.org/2000/svg" xmlns:xlink="http://www.w3.org/1999/xlink" x="0px" y="0px"
	 viewBox="0 0 24 24" style="enable-background:new 0 0 24 24;" xml:space="preserve">
<path d="M15.2,12.5l-0.7,2.4l-0.7-2.4h-1.4c-0.1,0-0.2,0-0.2-0.1h-0.2v5.1h1.5v-1.8l0.4,1.8h1.2l0.5-2v2h1.3v-5H15.2z"/>
<path d="M21.7,8.4V5.4l-5.1-5.1C16.3,0,16.1,0,15.8,0H3C2.7,0,2.3,0.3,2.3,0.7v7.8H0v13h2.3v1.9C2.3,23.7,2.7,24,3,24h18
	c0.4,0,0.7-0.3,0.7-0.7v-1.9H24v-13H21.7z M16.5,2.2L19.3,5h-2.8V2.2z M3.7,1.3h11.5v4.5c0,0.3,0.3,0.7,0.7,0.7h4.5v2.1H3.7V1.3z
	 M20.3,22.7H3.7v-1.2h16.6V22.7z M22.7,20.2H1.3V9.8h21.3V20.2z"/>
<polygon points="4.9,15.5 6.2,15.5 6.2,17.5 7.8,17.5 7.8,12.4 6.3,12.4 6.3,14.2 5,14.2 5,12.4 3.5,12.4 3.5,17.5 4.9,17.5 "/>
<polygon points="9.2,17.5 10.5,17.5 10.5,13.6 11.9,13.6 11.9,12.4 7.8,12.4 7.8,13.6 9.2,13.6 "/>
<path d="M17.9,12.4c-0.1,0-0.1,0.1-0.2,0.1h-0.2v4.8h0.2v0.1h3.6v-1.2h-2.4v-3.7H17.9z"/>
</svg>
