<?xml version="1.0" encoding="UTF-8"?>
<svg xmlns="http://www.w3.org/2000/svg" xmlns:xlink="http://www.w3.org/1999/xlink" width="24pt" height="24pt" viewBox="0 0 24 24" version="1.1">
<g id="surface1">
<path style=" stroke:none;fill-rule:nonzero;fill:rgb(0%,0%,0%);fill-opacity:1;" d="M 21.601562 8.617188 L 21.601562 5.453125 C 21.601562 5.453125 21.601562 5.34375 21.601562 5.34375 L 16.472656 0.21875 C 16.253906 0 16.144531 0 15.925781 0 L 2.835938 0 C 2.617188 0 2.398438 0.21875 2.398438 0.4375 L 2.398438 8.617188 L 0 8.617188 L 0 21.382812 L 2.398438 21.382812 L 2.398438 23.5625 C 2.398438 23.78125 2.617188 24 2.835938 24 L 21.164062 24 C 21.382812 24 21.601562 23.78125 21.601562 23.5625 L 21.601562 21.382812 L 24 21.382812 L 24 8.617188 Z M 16.363281 1.417969 L 20.074219 5.128906 L 16.363281 5.128906 Z M 3.273438 0.871094 L 15.492188 0.871094 L 15.492188 5.671875 C 15.492188 5.890625 15.710938 6.109375 15.925781 6.109375 L 20.726562 6.109375 L 20.726562 8.726562 L 3.273438 8.726562 Z M 20.726562 23.128906 L 3.273438 23.128906 L 3.273438 21.382812 L 20.726562 21.382812 Z M 23.128906 20.617188 L 0.871094 20.617188 L 0.871094 9.492188 L 23.128906 9.492188 Z M 3.273438 18 L 3.273438 11.78125 L 4.582031 11.78125 L 4.582031 14.289062 L 7.089844 14.289062 L 7.089844 11.78125 L 8.398438 11.78125 L 8.398438 18 L 6.980469 18 L 6.980469 15.273438 L 4.582031 15.273438 L 4.582031 18 Z M 11.019531 18 L 11.019531 12.761719 L 9.164062 12.761719 L 9.164062 11.671875 L 14.183594 11.671875 L 14.183594 12.761719 L 12.328125 12.761719 L 12.328125 18 Z M 14.835938 18 L 14.835938 11.78125 L 16.691406 11.78125 L 17.78125 16.035156 L 18.871094 11.78125 L 20.726562 11.78125 L 20.726562 18 L 19.527344 18 L 19.527344 13.089844 L 18.546875 18 L 17.34375 18 L 16.035156 13.089844 L 16.035156 18 Z M 14.835938 18 "/>
</g>
</svg>
