<?xml version="1.0" encoding="utf-8"?>
<!-- Generator: Adobe Illustrator 21.1.0, SVG Export Plug-In . SVG Version: 6.00 Build 0)  -->
<svg version="1.1" id="Layer_1" xmlns="http://www.w3.org/2000/svg" xmlns:xlink="http://www.w3.org/1999/xlink" x="0px" y="0px"
	 viewBox="0 0 24 24" style="enable-background:new 0 0 24 24;" xml:space="preserve">
<path d="M21.6,8.4V5.3l-5.2-5.2c-0.2-0.2-0.4-0.3-0.7-0.3H3c-0.3,0-0.6,0.3-0.6,0.6v7.8H0v13h2.4v1.9c0,0.3,0.3,0.6,0.6,0.6h18
	c0.3,0,0.6-0.3,0.6-0.6v-1.9H24V8.4H21.6z M20.3,21.5v1.4H3.6v-1.4H20.3z M16.6,5V2.2L19.3,5H16.6z M15.8,6.4h4.5v2H3.6V1.3h11.6
	v4.5C15.2,6.1,15.5,6.4,15.8,6.4z M22.7,9.8v10.5H1.3V9.8H22.7z M16.8,18.1h-1.6v-6.2h4.3v1.5h-2.7v0.9h2.4v1.5h-2.4V18.1z
	 M7.1,18.1c0.9,0,1.5-0.1,2-0.8C9.7,16.7,10,15.9,10,15c0-0.9-0.3-1.8-0.9-2.3c-0.6-0.6-1.3-0.9-2.1-0.9c-0.4,0-0.8,0-1.3,0.2
	c-0.2,0.1-0.5,0.3-0.7,0.5c-0.2,0.2-0.4,0.5-0.5,0.8c-0.2,0.4-0.3,1-0.3,1.6c0,1,0.3,1.8,0.9,2.3C5.6,17.8,6.2,18.1,7.1,18.1z
	 M7.1,16.7c-0.5,0-0.8-0.1-1-0.4c-0.2-0.3-0.3-0.7-0.3-1.3c0-0.7,0.1-1.1,0.3-1.3c0.2-0.2,0.7-0.4,1-0.4c0.4,0,0.7,0.1,0.9,0.4
	c0.3,0.3,0.3,0.7,0.3,1.3c0,0.7-0.1,1.1-0.3,1.3C7.7,16.5,7.5,16.7,7.1,16.7z M11.7,13.3H10v-1.5h5v1.5h-1.7V18h-1.7V13.3z"/>
</svg>
