<?xml version="1.0" encoding="utf-8"?>
<!-- Generator: Adobe Illustrator 21.1.0, SVG Export Plug-In . SVG Version: 6.00 Build 0)  -->
<svg version="1.1" id="Layer_1" xmlns="http://www.w3.org/2000/svg" xmlns:xlink="http://www.w3.org/1999/xlink" x="0px" y="0px"
	 viewBox="0 0 24 24" style="enable-background:new 0 0 24 24;" xml:space="preserve">
<path d="M21.7,8.4V5.4l-5.1-5.1C16.3,0,16.1,0,15.8,0H3C2.7,0,2.3,0.3,2.3,0.7v7.8H0v13h2.3v1.9C2.3,23.7,2.7,24,3,24h18
	c0.4,0,0.7-0.3,0.7-0.7v-1.9H24v-13H21.7z M20.3,21.4v1.2H3.7v-1.2H20.3z M16.5,5V2.2L19.3,5H16.5z M15.8,6.5h4.5v2.1H3.7V1.3h11.5
	v4.5C15.2,6.1,15.5,6.5,15.8,6.5z M22.7,9.8v10.4H1.3V9.8H22.7z M8.8,15.1c0-0.7,0.1-1.3,0.5-1.8c0.2-0.5,0.6-0.9,1.3-1.3
	c0.5-0.3,1-0.4,1.6-0.4c0.9,0,1.5,0.2,2,0.5c0.5,0.4,0.8,0.9,0.9,1.4l0,0.2l-1.6,0.3l-0.1-0.2c-0.1-0.3-0.2-0.5-0.4-0.6
	c-0.2-0.2-0.4-0.2-0.7-0.2c-0.4,0-0.8,0.2-1.1,0.5c-0.2,0.2-0.4,0.7-0.4,1.3c0,0.6,0.2,1.1,0.5,1.4c0.3,0.3,0.7,0.5,1.1,0.5
	c0.2,0,0.5,0,0.6-0.1c0.1,0,0.2-0.1,0.3-0.1c0.1,0,0.2-0.1,0.3-0.1v-0.4h-1.6v-1.6H15v2.9L15,17.5c-0.2,0.2-0.6,0.4-1.3,0.7
	c-0.5,0.2-1,0.3-1.6,0.3c-0.7,0-1.3-0.1-1.8-0.5c-0.6-0.4-0.9-0.7-1.2-1.3C8.9,16.2,8.8,15.7,8.8,15.1z M20.7,18.6h-5.5V17l2.9-3.6
	h-2.6v-1.6h5v1.3l-3,3.8h3.3V18.6z M5.2,13.3H3.4v-1.6h5.4v1.6H6.9v5.1H5.2V13.3z"/>
</svg>
