<?xml version="1.0" encoding="utf-8"?>
<!-- Generator: Adobe Illustrator 21.1.0, SVG Export Plug-In . SVG Version: 6.00 Build 0)  -->
<svg version="1.1" id="Layer_1" xmlns="http://www.w3.org/2000/svg" xmlns:xlink="http://www.w3.org/1999/xlink" x="0px" y="0px"
	 viewBox="0 0 24 24" style="enable-background:new 0 0 24 24;" xml:space="preserve">
<path d="M21.6,8.7V5.4l-5.2-5.2C16.2,0,16.1,0,15.9,0H2.8C2.6,0,2.4,0.2,2.4,0.4v8.2H0v12.8h2.4v2.2c0,0.2,0.2,0.4,0.4,0.4h18.4
	c0.2,0,0.4-0.2,0.4-0.4v-2.2H24V8.7H21.6z M16.4,1.5l3.7,3.7h-3.7V1.5z M3.2,0.9h12.3v4.8c0,0.2,0.2,0.4,0.4,0.4h4.8v2.5H3.2V0.9z
	 M20.7,23.4H3.2v-1.9h17.5V23.4z M23.2,20.8H0.8V9.6h22.4V20.8z M14.7,18l2-3l-1.8-2.7h1.4l1.1,1.8l1.1-1.8h1.3l-1.8,2.8l2,2.9h-1.4
	l-1.3-2l-1.3,2H14.7z M5.8,15.6h0.2c0.3,0,0.5,0,0.6,0.1s0.2,0.1,0.3,0.2c0.1,0.1,0.3,0.4,0.6,0.8L8.4,18h1.4l-0.7-1.1
	c-0.3-0.4-0.5-0.8-0.7-0.9c-0.2-0.2-0.4-0.3-0.6-0.5c0.5-0.1,0.9-0.2,1.1-0.5c0.3-0.3,0.4-0.6,0.4-1.1c0-0.3-0.1-0.6-0.2-0.9
	c-0.2-0.3-0.4-0.4-0.7-0.5s-0.7-0.2-1.3-0.2H4.7V18h1.2V15.6z M5.8,13.2h0.9c0.5,0,0.8,0,0.8,0c0.2,0,0.3,0.1,0.4,0.2
	c0.1,0.1,0.2,0.3,0.2,0.5c0,0.2,0,0.3-0.1,0.4c-0.1,0.1-0.2,0.2-0.3,0.2s-0.5,0.1-1,0.1H5.8V13.2z M11.7,13.2H10v-1h4.6v1h-1.7V18
	h-1.2V13.2z"/>
</svg>
