<?xml version="1.0" encoding="utf-8"?>
<!-- Generator: Adobe Illustrator 21.1.0, SVG Export Plug-In . SVG Version: 6.00 Build 0)  -->
<svg version="1.1" id="Layer_1" xmlns="http://www.w3.org/2000/svg" xmlns:xlink="http://www.w3.org/1999/xlink" x="0px" y="0px"
	 viewBox="0 0 24 24" style="enable-background:new 0 0 24 24;" xml:space="preserve">
<path d="M21.6,8.6V5.3l-5.2-5.2c-0.2-0.2-0.3-0.2-0.5-0.2H2.8c-0.2,0-0.4,0.2-0.4,0.4v8.2H0v12.8h2.4v2.2c0,0.2,0.2,0.4,0.4,0.4
	h18.4c0.2,0,0.4-0.2,0.4-0.4v-2.2H24V8.6H21.6z M16.4,1.4l3.7,3.7h-3.7V1.4z M3.2,0.8h12.3v4.8c0,0.2,0.2,0.4,0.4,0.4h4.8v2.5H3.2
	V0.8z M20.8,23.3H3.2v-1.9h17.5V23.3z M23.2,20.7H0.8V9.5h22.4V20.7z M3.5,17.8v-5.7h2.4c0.6,0,1.1,0.1,1.3,0.2s0.5,0.3,0.7,0.5
	s0.2,0.6,0.2,0.9c0,0.4-0.1,0.8-0.4,1.1c-0.3,0.3-0.6,0.5-1.1,0.5c0.2,0.1,0.5,0.3,0.6,0.5c0.2,0.2,0.4,0.5,0.7,0.9l0.7,1.1H7.2
	l-0.8-1.2c-0.3-0.4-0.5-0.7-0.6-0.8c-0.1-0.1-0.2-0.2-0.3-0.2s-0.3-0.1-0.6-0.1H4.6v2.4H3.5z M4.6,14.5h0.9c0.6,0,0.9,0,1-0.1
	s0.2-0.1,0.3-0.2C6.9,14.1,7,14,7,13.8c0-0.2-0.1-0.3-0.2-0.5c-0.1-0.1-0.2-0.2-0.4-0.2c-0.1,0-0.4,0-0.8,0H4.6V14.5z M14.4,17.8
	h-1.3l-0.5-1.3h-2.3l-0.5,1.3H8.7l2.2-5.7h1.2L14.4,17.8z M12.3,15.6l-0.8-2.1l-0.8,2.1H12.3z M15,17.8v-5.7h1.7l1,3.9l1-3.9h1.7
	v5.7h-1.1v-4.5l-1.1,4.5h-1.1l-1.1-4.5v4.5H15z"/>
</svg>
