<?xml version="1.0" encoding="utf-8"?>
<!-- Generator: Adobe Illustrator 21.1.0, SVG Export Plug-In . SVG Version: 6.00 Build 0)  -->
<svg version="1.1" id="Layer_1" xmlns="http://www.w3.org/2000/svg" xmlns:xlink="http://www.w3.org/1999/xlink" x="0px" y="0px"
	 viewBox="0 0 24 24" style="enable-background:new 0 0 24 24;" xml:space="preserve">
<path d="M14.5,12.2c-0.1-0.1-0.4-0.1-0.6-0.1h-2.9v6.1h1.6v-2H13c0.5,0,0.9,0,1.3-0.1l0.6-0.3l0.1,0c0.2-0.2,0.4-0.4,0.5-0.7l0-0.1
	c0.1-0.2,0.2-0.5,0.2-0.8c0-0.5-0.1-0.9-0.3-1.2C15.1,12.5,14.8,12.3,14.5,12.2z M13.9,14.2c-0.1,0.1-0.2,0.2-0.4,0.3
	c-0.1,0-0.4,0-0.7,0h-0.3v-1.1h1c0.1,0.1,0.3,0.2,0.4,0.2c0,0,0.1,0.2,0.1,0.3C13.9,14.1,13.9,14.2,13.9,14.2z M21.6,8.4V5.3
	l-5.2-5.2c-0.2-0.2-0.4-0.3-0.7-0.3H3c-0.3,0-0.6,0.3-0.6,0.6v7.8H0v13h2.4v1.9c0,0.3,0.3,0.6,0.6,0.6h18c0.3,0,0.6-0.3,0.6-0.6
	v-1.9H24V8.4H21.6z M20.3,21.5v1.4H3.6v-1.4H20.3z M16.6,5V2.2L19.3,5H16.6z M15.8,6.4h4.5v2H3.6V1.3h11.6v4.5
	C15.2,6.1,15.5,6.4,15.8,6.4z M22.7,9.8v10.5H1.3V9.8H22.7z M10.1,12.1v6.1H8.7v-2.8L8,18.1H6.5l-0.6-2.6v2.6H4.3V12h0.3
	c0,0,0,0,0.1,0h1.8l0.8,3.1L8,12.1H10.1z M17.3,16v0.3c0,0.3,0.1,0.3,0.2,0.4c0.1,0,0.1,0.1,0.2,0.1c0.1,0.1,0.2,0.1,0.2,0.1
	c0.1,0,0.3-0.1,0.4-0.2c0.1-0.1,0.1-0.2,0.1-0.5c0-0.2-0.1-0.4-0.2-0.6c0,0-0.1-0.1-0.3-0.1c-0.1,0-0.2,0-0.4,0.1l-0.4,0.2l0.2-1.5
	h0.2c0.2,0,0.4-0.1,0.6-0.2c0,0,0.1-0.1,0.1-0.3c0-0.1,0-0.1-0.1-0.2c0,0-0.1-0.1-0.1-0.2c0,0-0.1-0.1-0.3-0.1c-0.1,0-0.1,0-0.2,0.1
	c0,0-0.1,0.1-0.2,0.1c0,0-0.1,0.1-0.1,0.4v0.3l-1.5-0.3l0.1-0.3c0.1-0.3,0.2-0.6,0.3-0.8c0.1-0.3,0.4-0.5,0.7-0.6l0.1,0
	c0.2-0.1,0.5-0.2,0.8-0.2c0.5,0,1.1,0.2,1.4,0.6c0.3,0.3,0.5,0.7,0.5,1.2c0,0.4-0.2,0.8-0.5,1.1c0.2,0.1,0.3,0.2,0.5,0.4
	c0.2,0.3,0.3,0.6,0.3,1c0,0.5-0.2,1-0.7,1.4c-0.5,0.5-0.9,0.6-1.5,0.6c-0.6,0-1-0.1-1.4-0.4c-0.5-0.3-0.6-0.8-0.7-1.3l-0.1-0.3
	L17.3,16z"/>
</svg>
