<?xml version="1.0" encoding="UTF-8"?>
<svg xmlns="http://www.w3.org/2000/svg" xmlns:xlink="http://www.w3.org/1999/xlink" width="24pt" height="24pt" viewBox="0 0 24 24" version="1.1">
<g id="surface1">
<path style=" stroke:none;fill-rule:nonzero;fill:rgb(0%,0%,0%);fill-opacity:1;" d="M 21.601562 8.617188 L 21.601562 5.453125 C 21.601562 5.453125 21.601562 5.34375 21.601562 5.34375 L 16.472656 0.21875 C 16.253906 0 16.144531 0 15.925781 0 L 2.835938 0 C 2.617188 0 2.398438 0.21875 2.398438 0.4375 L 2.398438 8.617188 L 0 8.617188 L 0 21.382812 L 2.398438 21.382812 L 2.398438 23.5625 C 2.398438 23.78125 2.617188 24 2.835938 24 L 21.164062 24 C 21.382812 24 21.601562 23.78125 21.601562 23.5625 L 21.601562 21.382812 L 24 21.382812 L 24 8.617188 Z M 16.363281 1.417969 L 20.074219 5.128906 L 16.363281 5.128906 Z M 3.273438 0.871094 L 15.492188 0.871094 L 15.492188 5.671875 C 15.492188 5.890625 15.710938 6.109375 15.925781 6.109375 L 20.726562 6.109375 L 20.726562 8.726562 L 3.273438 8.726562 Z M 20.726562 23.128906 L 3.273438 23.128906 L 3.273438 21.382812 L 20.726562 21.382812 Z M 23.128906 20.617188 L 0.871094 20.617188 L 0.871094 9.492188 L 23.128906 9.492188 Z M 3.601562 17.34375 L 3.601562 12.65625 L 4.582031 12.65625 L 4.582031 14.507812 L 6.4375 14.507812 L 6.4375 12.65625 L 7.417969 12.65625 L 7.417969 17.34375 L 6.328125 17.34375 L 6.328125 15.273438 L 4.472656 15.273438 L 4.472656 17.34375 Z M 9.382812 17.34375 L 9.382812 13.417969 L 7.964844 13.417969 L 7.964844 12.65625 L 11.671875 12.65625 L 11.671875 13.417969 L 10.253906 13.417969 L 10.253906 17.34375 Z M 12.328125 17.34375 L 12.328125 12.65625 L 13.746094 12.65625 L 14.617188 15.816406 L 15.492188 12.65625 L 16.910156 12.65625 L 16.910156 17.34375 L 16.035156 17.34375 L 16.035156 13.636719 L 15.054688 17.34375 L 14.183594 17.34375 L 13.308594 13.636719 L 13.308594 17.34375 Z M 17.78125 17.34375 L 17.78125 12.65625 L 18.761719 12.65625 L 18.761719 16.472656 L 21.164062 16.472656 L 21.164062 17.238281 L 17.78125 17.238281 Z M 17.78125 17.34375 "/>
</g>
</svg>
