<?xml version="1.0" encoding="UTF-8"?>
<svg xmlns="http://www.w3.org/2000/svg" xmlns:xlink="http://www.w3.org/1999/xlink" width="24pt" height="24pt" viewBox="0 0 24 24" version="1.1">
<g id="surface1">
<path style=" stroke:none;fill-rule:nonzero;fill:rgb(0%,0%,0%);fill-opacity:1;" d="M 21.492188 5.34375 C 21.492188 5.34375 21.492188 5.453125 21.492188 5.453125 C 21.601562 5.453125 21.492188 5.34375 21.492188 5.34375 Z M 3.273438 0.871094 L 15.492188 0.871094 L 15.492188 5.671875 C 15.492188 5.890625 15.710938 6.109375 15.925781 6.109375 L 20.726562 6.109375 L 20.726562 9.492188 L 21.601562 9.492188 L 21.601562 5.453125 C 21.601562 5.453125 21.601562 5.34375 21.601562 5.34375 L 16.472656 0.21875 C 16.253906 0 16.144531 0 15.925781 0 L 2.835938 0 C 2.617188 0 2.398438 0.21875 2.398438 0.4375 L 2.398438 9.492188 L 3.273438 9.492188 Z M 16.363281 1.417969 L 20.074219 5.128906 L 16.363281 5.128906 Z M 21.601562 20.617188 L 21.601562 23.5625 C 21.601562 23.78125 21.382812 24 21.164062 24 L 2.835938 24 C 2.617188 24 2.398438 23.78125 2.398438 23.5625 L 2.398438 20.617188 L 3.273438 20.617188 L 3.273438 23.238281 L 20.726562 23.238281 L 20.726562 20.617188 Z M 21.601562 20.617188 "/>
<path style=" stroke:none;fill-rule:nonzero;fill:rgb(0%,0%,0%);fill-opacity:1;" d="M 23.890625 21.382812 L 0 21.382812 L 0 8.617188 L 23.890625 8.617188 Z M 0.871094 20.617188 L 23.128906 20.617188 L 23.128906 9.492188 L 0.871094 9.492188 Z M 0.871094 20.617188 "/>
<path style=" stroke:none;fill-rule:nonzero;fill:rgb(0%,0%,0%);fill-opacity:1;" d="M 10.800781 17.890625 L 9.492188 17.890625 L 8.945312 16.472656 L 6.4375 16.472656 L 5.890625 17.890625 L 4.582031 17.890625 L 6.980469 11.671875 L 8.289062 11.671875 Z M 8.507812 15.492188 L 7.636719 13.089844 L 6.761719 15.382812 L 8.507812 15.382812 Z M 12.4375 17.890625 L 10.253906 11.671875 L 11.671875 11.671875 L 13.199219 16.253906 L 14.726562 11.671875 L 16.035156 11.671875 L 13.746094 17.890625 Z M 16.582031 17.890625 L 16.582031 11.671875 L 17.890625 11.671875 L 17.890625 17.890625 Z M 16.582031 17.890625 "/>
</g>
</svg>
