<?xml version="1.0" encoding="utf-8"?>
<!-- Generator: Adobe Illustrator 21.1.0, SVG Export Plug-In . SVG Version: 6.00 Build 0)  -->
<svg version="1.1" id="Layer_1" xmlns="http://www.w3.org/2000/svg" xmlns:xlink="http://www.w3.org/1999/xlink" x="0px" y="0px"
	 viewBox="0 0 24 24" style="enable-background:new 0 0 24 24;" xml:space="preserve">
<path d="M16.4,16.7C16.1,16.4,16,16,16,15.5v-0.2l1.2-0.1l0.1,0.2c0.1,0.3,0.2,0.4,0.2,0.5c0.2,0.1,0.3,0.1,0.4,0.1
	c0.3,0,0.4-0.1,0.4-0.1c0.1-0.1,0.1-0.2,0.1-0.2c0-0.1,0-0.1,0-0.1c0,0,0,0-0.1-0.1c0,0-0.1,0-0.1-0.1c-0.1,0-0.1,0-0.2-0.1
	c-0.1,0-0.2-0.1-0.4-0.1c-0.4-0.1-0.7-0.2-0.9-0.4l-0.1-0.1C16,14.4,16,14,16,13.7c0-0.3,0.1-0.5,0.2-0.7c0.1-0.3,0.4-0.4,0.6-0.5
	c0.2-0.1,0.6-0.1,0.9-0.1c0.6,0,1,0.1,1.3,0.5c0.4,0.3,0.5,0.9,0.5,1.1v0.2h-1.4v-0.2c0-0.1-0.1-0.3-0.1-0.3c0,0-0.2,0-0.3,0
	c-0.2,0-0.2,0-0.4,0.1c0,0-0.1,0-0.1,0c0,0,0,0,0,0.1c0,0.1,0,0.1,0,0.1c0,0,0.1,0.1,0.7,0.2c0.4,0.1,0.7,0.2,0.9,0.3
	c0.2,0.1,0.4,0.3,0.5,0.4l0.1,0.1c0.1,0.2,0.2,0.4,0.2,0.8c0,0.2-0.1,0.6-0.2,0.8c-0.1,0.3-0.4,0.5-0.7,0.6c-0.1,0-0.2,0.1-0.3,0.1
	c-0.1,0-0.1,0-0.2,0c-0.1,0-0.2,0-0.3,0C17.2,17.1,16.7,17,16.4,16.7z M24,8.4v12.9h-2.4v1.9c0,0.3-0.3,0.6-0.6,0.6H3
	c-0.3,0-0.6-0.3-0.6-0.6v-1.9H0v-13h2.4V0.5c0-0.3,0.3-0.6,0.6-0.6h12.8c0.2,0,0.4,0,0.7,0.3l5.2,5.2v3.1H24z M3.6,21.5v1.4h16.7
	v-1.4H3.6z M19.3,5l-2.8-2.8V5H19.3z M15.2,5.7V1.3H3.6v7.1h16.7v-2h-4.5C15.5,6.4,15.2,6.1,15.2,5.7z M1.3,9.8v10.5h21.5V9.8H1.3z
	 M10,17.1c0.5,0,0.9-0.1,1.2-0.3c0.4-0.2,0.6-0.6,0.7-1.1l0-0.2L10.8,15l-0.1,0.2c0,0.1,0,0.1-0.1,0.2c0,0.2-0.1,0.2-0.1,0.2
	c-0.2,0.1-0.3,0.2-0.5,0.2c-0.4,0-0.5,0-0.6-0.2c-0.2-0.3-0.3-0.6-0.3-1c0-0.4,0.1-0.8,0.2-0.9c0.1-0.1,0.4-0.2,0.6-0.2
	c0.2,0,0.4,0.1,0.4,0.1c0.1,0.1,0.2,0.3,0.2,0.4l0.1,0.2l1.3-0.3c0,0.3,0.2,0.6,0.5,0.8l0.1,0.1c0.2,0.1,0.5,0.3,0.9,0.4
	c0.2,0,0.3,0.1,0.4,0.1c0.1,0,0.1,0,0.2,0.1c0.1,0,0.1,0.1,0.1,0.1c0,0,0.1,0,0.1,0.1c0,0,0,0,0,0.1c0,0-0.1,0.2-0.1,0.2
	c0,0-0.1,0.1-0.4,0.1c-0.1,0-0.3-0.1-0.4-0.1c0-0.1-0.1-0.2-0.2-0.5l-0.1-0.2L12,15.3v0.2c0,0.5,0.1,0.8,0.5,1.2
	c0.3,0.3,0.8,0.5,1.4,0.5c0.1,0,0.2,0,0.3,0c0.1,0,0.1,0,0.2,0c0.1,0,0.2,0,0.3-0.1c0.3-0.1,0.6-0.3,0.7-0.6
	c0.1-0.2,0.2-0.6,0.2-0.8c0-0.4-0.1-0.6-0.2-0.8l-0.1-0.1c-0.1-0.1-0.3-0.3-0.5-0.4c-0.2-0.1-0.5-0.2-0.9-0.3
	c-0.5-0.1-0.7-0.2-0.7-0.2c0,0,0,0,0-0.1c0-0.1,0-0.1,0-0.1c0,0,0.1,0,0.1,0c0.1-0.1,0.2-0.1,0.4-0.1c0.1,0,0.3,0,0.3,0
	c0,0,0.1,0.2,0.1,0.3v0.2h1.4v-0.2c0-0.2,0-0.8-0.5-1.1c-0.3-0.3-0.7-0.5-1.3-0.5c-0.3,0-0.6,0-0.9,0.1c-0.2,0.1-0.5,0.2-0.6,0.5
	c-0.1,0.2-0.2,0.4-0.2,0.7c0,0,0,0,0,0.1l0,0c-0.1-0.4-0.2-0.7-0.5-0.9c-0.3-0.3-0.9-0.6-1.4-0.6c-0.7,0-1.2,0.2-1.6,0.7
	c-0.4,0.4-0.7,1.1-0.7,1.8c0,0.7,0.2,1.3,0.7,1.7C9,16.9,9.4,17.1,10,17.1z M5.7,16c-0.2,0-0.4-0.1-0.4-0.1c0,0-0.1-0.1-0.2-0.5
	L5,15.2l-1.3,0.2l0.1,0.3C3.9,16,4,16.3,4.4,16.7c0.3,0.3,0.8,0.5,1.4,0.5c0.1,0,0.2,0,0.3,0c0.1,0,0.1,0,0.2,0c0.1,0,0.2,0,0.3-0.1
	c0.3-0.1,0.6-0.3,0.7-0.6c0.1-0.2,0.2-0.6,0.2-0.8c0-0.3-0.1-0.7-0.3-0.9c-0.1-0.1-0.3-0.3-0.5-0.4c-0.2-0.1-0.5-0.2-0.9-0.3
	c-0.5-0.1-0.7-0.2-0.7-0.2c0,0,0,0,0-0.1c0-0.1,0-0.1,0-0.1c0,0,0.1,0,0.1,0c0.1-0.1,0.2-0.1,0.4-0.1c0.1,0,0.3,0,0.3,0
	c0,0,0.1,0.2,0.1,0.3v0.2h1.4v-0.2c0-0.4-0.2-0.7-0.5-1.1c-0.3-0.3-0.7-0.5-1.3-0.5c-0.3,0-0.6,0-0.9,0.1C4.4,12.6,4.2,12.7,4,13
	c-0.1,0.2-0.2,0.4-0.2,0.7c0,0.3,0.1,0.8,0.5,1.1l0.1,0.1c0.2,0.1,0.5,0.3,0.9,0.4c0.2,0,0.3,0.1,0.4,0.1c0.1,0,0.1,0,0.2,0.1
	c0.1,0,0.1,0.1,0.1,0.1c0,0,0.1,0,0.1,0.1c0,0,0,0,0,0.1c0,0-0.1,0.2-0.1,0.2C6.1,15.9,6,16,5.7,16z"/>
</svg>
