<?xml version="1.0" encoding="utf-8"?>
<!-- Generator: Adobe Illustrator 21.1.0, SVG Export Plug-In . SVG Version: 6.00 Build 0)  -->
<svg version="1.1" id="Layer_1" xmlns="http://www.w3.org/2000/svg" xmlns:xlink="http://www.w3.org/1999/xlink" x="0px" y="0px"
	 viewBox="0 0 24 24" style="enable-background:new 0 0 24 24;" xml:space="preserve">
<path d="M21.5,5.4c0,0.1,0.1,0.1,0.1,0.2C21.5,5.4,21.5,5.4,21.5,5.4z M20.7,22.6v0.5H3.3V0.9h12.3v4.7C15.5,5.8,15.7,6,16,6h4.7
	v7.6c0.1,0,0.2,0.1,0.3,0.1c0.3,0.2,0.4,0.4,0.6,0.6V5.6c0,0,0-0.1,0-0.1c0-0.1,0-0.1-0.1-0.2c0,0,0-0.1-0.1-0.1l-5.2-5.1
	C16.2,0.1,16.1,0,16,0H2.9C2.6,0,2.4,0.2,2.4,0.4v23.1c0,0.2,0.2,0.4,0.4,0.4h18.3c0.2,0,0.4-0.2,0.4-0.4v-1.4
	C21.4,22.4,21.1,22.6,20.7,22.6z M16.4,1.4l3.7,3.7h-3.7V1.4z"/>
<path d="M18.1,17.2v3.6c0,0.2-0.2,0.4-0.4,0.4c-0.2,0-0.4-0.2-0.4-0.4v-3.6c0-0.2,0.2-0.4,0.4-0.4C17.9,16.8,18.1,17,18.1,17.2z"/>
<path d="M17.7,12c-3.3,0-6,2.7-6,6s2.7,6,6,6c3.3,0,6-2.7,6-6S21,12,17.7,12z M17.7,23.2c-2.9,0-5.2-2.3-5.2-5.2s2.3-5.2,5.2-5.2
	c2.9,0,5.2,2.3,5.2,5.2S20.6,23.2,17.7,23.2z"/>
<g>
	<g>
		<path d="M17.6,16.2c1,0,1-1.5,0-1.5C16.7,14.7,16.7,16.2,17.6,16.2L17.6,16.2z"/>
	</g>
</g>
</svg>
