<?xml version="1.0" encoding="utf-8"?>
<!-- Generator: Adobe Illustrator 21.1.0, SVG Export Plug-In . SVG Version: 6.00 Build 0)  -->
<svg version="1.1" id="Layer_1" xmlns="http://www.w3.org/2000/svg" xmlns:xlink="http://www.w3.org/1999/xlink" x="0px" y="0px"
	 viewBox="0 0 24 24" style="enable-background:new 0 0 24 24;" xml:space="preserve">
<path d="M21.6,8.4V5.3l-5.2-5.2c-0.2-0.2-0.4-0.3-0.7-0.3H3c-0.3,0-0.6,0.3-0.6,0.6v7.8H0v13h2.4v1.9c0,0.3,0.3,0.6,0.6,0.6h18
	c0.3,0,0.6-0.3,0.6-0.6v-1.9H24V8.4H21.6z M20.3,21.5v1.4H3.6v-1.4H20.3z M16.6,5V2.2L19.3,5H16.6z M15.8,6.4h4.5v2H3.6V1.3h11.6
	v4.5C15.2,6.1,15.5,6.4,15.8,6.4z M22.7,9.8v10.5H1.3V9.8H22.7z M9.6,12V18H8.2v-2.6L7.6,18H6l-0.6-2.6V18H3.8v-6.1h0.3
	c0,0,0.1,0,0.1,0h1.7L6.7,15L7.5,12H9.6z M12,16.1h0.5c0.5,0,0.9,0,1.3-0.1c0.1,0,0.1,0,0.2-0.1c0.1,0,0.3-0.1,0.5-0.3
	c0.2-0.2,0.4-0.4,0.5-0.7l0-0.1c0.1-0.2,0.2-0.5,0.2-0.8c0-0.5-0.1-0.9-0.3-1.2c-0.2-0.3-0.5-0.6-0.9-0.7c-0.2-0.1-0.7-0.1-1.5-0.1
	h-2.1v6.3H12V16.1z M13.4,14c0,0.2,0,0.2,0,0.2c-0.1,0.1-0.2,0.2-0.4,0.3c-0.1,0-0.4,0-0.7,0H12v-1.1h1c0.1,0.1,0.3,0.2,0.4,0.2
	C13.3,13.7,13.4,13.8,13.4,14z M16.1,18l0.4-1.3h1.9l0.5,1.3h1.8l-2.4-6.1h-1.5L14.4,18H16.1z M17.1,15.4l0.4-1.1l0.4,1.1H17.1z"/>
</svg>
