<?xml version="1.0" encoding="utf-8"?>
<!-- Generator: Adobe Illustrator 21.1.0, SVG Export Plug-In . SVG Version: 6.00 Build 0)  -->
<svg version="1.1" id="Layer_1" xmlns="http://www.w3.org/2000/svg" xmlns:xlink="http://www.w3.org/1999/xlink" x="0px" y="0px"
	 viewBox="0 0 24 24" style="enable-background:new 0 0 24 24;" xml:space="preserve">
<path d="M21.6,8.7V5.4l-5.2-5.2C16.2,0,16.1,0,15.9,0H2.8C2.6,0,2.4,0.2,2.4,0.4v8.2H0v12.8h2.4v2.2c0,0.2,0.2,0.4,0.4,0.4h18.4
	c0.2,0,0.4-0.2,0.4-0.4v-2.2H24V8.7H21.6z M16.4,1.5l3.7,3.7h-3.7V1.5z M3.2,0.9h12.3v4.8c0,0.2,0.2,0.4,0.4,0.4h4.8v2.5H3.2V0.9z
	 M20.7,23.4H3.2v-1.9h17.5V23.4z M23.2,20.8H0.8V9.6h22.4V20.8z M16.4,17.5h-4.7v-1l3-3.7h-2.7v-1h4.2v0.9l-3.1,3.9h3.3V17.5z
	 M6.2,16.2c-0.2-0.5-0.3-1-0.3-1.5c0-0.6,0.1-1.1,0.4-1.6c0.2-0.5,0.6-0.8,1.1-1.1c0.4-0.2,0.8-0.3,1.4-0.3c0.7,0,1.3,0.1,1.7,0.4
	s0.7,0.7,0.8,1.2L10,13.6c-0.1-0.3-0.2-0.5-0.5-0.7S9,12.7,8.7,12.7c-0.5,0-0.9,0.2-1.2,0.5C7.2,13.5,7,14,7,14.6
	c0,0.7,0.2,1.2,0.5,1.5s0.7,0.5,1.2,0.5c0.2,0,0.5,0,0.7-0.1c0.2-0.1,0.5-0.2,0.6-0.3v-0.7H8.7v-1h2.5v2.3c-0.2,0.2-0.6,0.4-1.1,0.6
	c-0.5,0.2-0.9,0.3-1.4,0.3c-0.6,0-1.1-0.1-1.6-0.4C6.7,17,6.4,16.7,6.2,16.2z"/>
</svg>
