<?xml version="1.0" encoding="utf-8"?>
<!-- Generator: Adobe Illustrator 21.1.0, SVG Export Plug-In . SVG Version: 6.00 Build 0)  -->
<svg version="1.1" id="Layer_1" xmlns="http://www.w3.org/2000/svg" xmlns:xlink="http://www.w3.org/1999/xlink" x="0px" y="0px"
	 viewBox="0 0 24 24" style="enable-background:new 0 0 24 24;" xml:space="preserve">
<path d="M15.1,18.1h-4.9v-6.6H12v5h3.1V18.1z M24,8.4v13h-2.3v1.9c0,0.4-0.3,0.7-0.7,0.7H3c-0.4,0-0.7-0.3-0.7-0.7v-1.9H0v-13h2.3
	V0.7C2.3,0.3,2.7,0,3,0h12.8c0.3,0,0.4,0,0.7,0.3l5.1,5.1v3.1H24z M3.7,21.4v1.2h16.6v-1.2H3.7z M19.3,5l-2.8-2.8V5H19.3z M15.2,5.8
	V1.3H3.7v7.2h16.6V6.5h-4.5C15.5,6.5,15.2,6.1,15.2,5.8z M1.3,9.8v10.4h21.3V9.8H1.3z M6.7,18.1H4.1v-6.6h2.5c0.5,0,0.9,0,1.3,0.1
	c0.3,0.1,0.7,0.3,1,0.6c0.4,0.3,0.5,0.7,0.6,1l0,0.1c0.1,0.5,0.2,0.9,0.2,1.6c0,0.6-0.1,1.1-0.2,1.4c-0.1,0.3-0.3,0.9-0.7,1.2
	c-0.1,0.1-0.3,0.2-0.5,0.3C8.1,17.8,8,17.9,7.9,18l-0.1,0C7.4,18.1,7.1,18.1,6.7,18.1z M5.7,12.9v3.7h0.7c0.2,0,0.5,0,0.6,0l0.1-0.1
	l0.1,0c0.1,0,0.1,0,0.3-0.1c0,0,0.1-0.1,0.2-0.1c0.1,0,0.1-0.1,0.1-0.3c0-0.1,0-0.1,0.1-0.2c0.1-0.3,0.1-0.6,0.1-1
	c0-0.4,0-0.8-0.1-1l-0.3-0.6c0-0.1-0.1-0.1-0.2-0.1c-0.1,0-0.1,0-0.2-0.1c-0.1,0-0.2,0-0.3,0c-0.2,0-0.4-0.1-0.6-0.1H5.7z
	 M20.4,16.6h-3.1v-5h-1.8v6.6h4.9V16.6z"/>
</svg>
