<?xml version="1.0" encoding="UTF-8"?>
<svg xmlns="http://www.w3.org/2000/svg" xmlns:xlink="http://www.w3.org/1999/xlink" width="24pt" height="24pt" viewBox="0 0 24 24" version="1.1">
<g id="surface1">
<path style=" stroke:none;fill-rule:nonzero;fill:rgb(0%,0%,0%);fill-opacity:1;" d="M 21.601562 8.617188 L 21.601562 5.453125 C 21.601562 5.453125 21.601562 5.34375 21.601562 5.34375 L 16.472656 0.21875 C 16.253906 0 16.144531 0 15.925781 0 L 2.835938 0 C 2.617188 0 2.398438 0.21875 2.398438 0.4375 L 2.398438 8.617188 L 0 8.617188 L 0 21.382812 L 2.398438 21.382812 L 2.398438 23.5625 C 2.398438 23.78125 2.617188 24 2.835938 24 L 21.164062 24 C 21.382812 24 21.601562 23.78125 21.601562 23.5625 L 21.601562 21.382812 L 24 21.382812 L 24 8.617188 Z M 16.363281 1.417969 L 20.074219 5.128906 L 16.363281 5.128906 Z M 3.273438 0.871094 L 15.492188 0.871094 L 15.492188 5.671875 C 15.492188 5.890625 15.710938 6.109375 15.925781 6.109375 L 20.726562 6.109375 L 20.726562 8.726562 L 3.273438 8.726562 Z M 20.726562 23.128906 L 3.273438 23.128906 L 3.273438 21.382812 L 20.726562 21.382812 Z M 23.128906 20.617188 L 0.871094 20.617188 L 0.871094 9.492188 L 23.128906 9.492188 Z M 5.78125 18.21875 L 5.78125 13.089844 L 3.925781 13.089844 L 3.925781 12 L 8.945312 12 L 8.945312 13.089844 L 6.980469 13.089844 L 6.980469 18.328125 L 5.78125 18.328125 Z M 9.054688 18.21875 L 11.238281 14.945312 L 9.273438 12 L 10.800781 12 L 12 13.964844 L 13.199219 12 L 14.617188 12 L 12.65625 15.054688 L 14.835938 18.21875 L 13.308594 18.21875 L 11.890625 16.035156 L 10.472656 18.21875 Z M 16.910156 18.21875 L 16.910156 13.089844 L 15.054688 13.089844 L 15.054688 12 L 20.074219 12 L 20.074219 13.089844 L 18.21875 13.089844 L 18.21875 18.328125 L 16.910156 18.328125 Z M 16.910156 18.21875 "/>
</g>
</svg>
