<?xml version="1.0" encoding="utf-8"?>
<!-- Generator: Adobe Illustrator 21.1.0, SVG Export Plug-In . SVG Version: 6.00 Build 0)  -->
<svg version="1.1" id="Layer_1" xmlns="http://www.w3.org/2000/svg" xmlns:xlink="http://www.w3.org/1999/xlink" x="0px" y="0px"
	 viewBox="0 0 24 24" style="enable-background:new 0 0 24 24;" xml:space="preserve">
<path d="M21.7,8.4V5.3l-5.1-5.1c-0.3-0.3-0.4-0.3-0.7-0.3H3c-0.4,0-0.7,0.3-0.7,0.7v7.8h-2.4v13.1h2.4v1.9c0,0.4,0.3,0.7,0.7,0.7h18
	c0.4,0,0.7-0.3,0.7-0.7v-1.9h2.3V8.4H21.7z M20.3,21.5v1.3H3.7v-1.3H20.3z M16.5,5V2.2L19.4,5H16.5z M15.9,6.4h4.5v2H3.7V1.3h11.5
	v4.5C15.2,6.1,15.5,6.4,15.9,6.4z M22.7,9.8v10.5H1.3V9.8H22.7z M16.4,15.7c0.2,0,0.3,0,0.4,0.1c0.1,0,0.1,0,0.2,0
	c0,0,0.1,0.1,0.2,0.1c0.1,0.1,0.2,0.2,0.3,0.4c0.1,0.1,0.2,0.3,0.3,0.4l0.9,1.4h2.1l-1-1.6c-0.1-0.2-0.3-0.3-0.4-0.5
	c-0.2-0.2-0.3-0.3-0.3-0.4c-0.1-0.1-0.1-0.2-0.2-0.3c0.3-0.1,0.5-0.3,0.7-0.5c0.3-0.3,0.5-0.8,0.5-1.4c0-0.4,0-0.9-0.3-1.1
	c-0.2-0.2-0.6-0.5-0.8-0.6c-0.3-0.1-0.9-0.2-1.5-0.2h-2.8v6.7h1.8V15.7z M17,14.1h-0.7v-1h1.6c0.1,0,0.1,0,0.2,0.1
	c0,0,0,0.1,0.1,0.1c0.1,0.1,0.1,0.2,0.1,0.3c0,0,0,0.1,0,0.1c0,0.1,0,0.1-0.1,0.2c0,0,0,0,0,0C18.1,14,18,14,18,14.1
	C17.9,14.1,17.5,14.1,17,14.1z M9.5,18.1l0.5-1.4h2l0.5,1.4h1.9l-2.7-6.6h-1.6l-2.5,6.6H9.5z M10.5,15.2l0.5-1.3l0.5,1.3H10.5z
	 M5.2,13H3.4v-1.6h5.4V13H6.9v5.2H5.2V13z"/>
</svg>
