<?xml version="1.0" encoding="utf-8"?>
<!-- Generator: Adobe Illustrator 21.1.0, SVG Export Plug-In . SVG Version: 6.00 Build 0)  -->
<svg version="1.1" id="Layer_1" xmlns="http://www.w3.org/2000/svg" xmlns:xlink="http://www.w3.org/1999/xlink" x="0px" y="0px"
	 viewBox="0 0 24 24" style="enable-background:new 0 0 24 24;" xml:space="preserve">
<path d="M21.6,8.4V5.3l-5.2-5.2c-0.2-0.2-0.4-0.3-0.7-0.3H3c-0.3,0-0.6,0.3-0.6,0.6v7.8H0v13h2.4v1.9c0,0.3,0.3,0.6,0.6,0.6h18
	c0.3,0,0.6-0.3,0.6-0.6v-1.9H24V8.4H21.6z M20.3,21.5v1.4H3.6v-1.4H20.3z M16.6,5V2.2L19.3,5H16.6z M15.8,6.4h4.5v2H3.6V1.3h11.6
	v4.5C15.2,6.1,15.5,6.4,15.8,6.4z M22.7,9.8v10.5H1.3V9.8H22.7z M16.7,18.1h-1.6v-6.2h4.3v1.5h-2.7v0.9H19v1.5h-2.4V18.1z M6.3,15.8
	L6.3,15.8c0.2,0,0.3,0,0.4,0.1c0.1,0,0.1,0,0.2,0C6.9,15.9,7,16,7,16c0.1,0.1,0.1,0.2,0.3,0.4c0.1,0.1,0.2,0.3,0.3,0.4L8.4,18h1.9
	l-0.9-1.5l-0.2-0.3C9,16,8.8,15.8,8.7,15.7c0-0.1-0.1-0.1-0.2-0.2C8.8,15.4,9,15.2,9.1,15c0.3-0.3,0.5-0.7,0.5-1.3
	c0-0.3,0-0.7-0.3-1.1c-0.2-0.2-0.5-0.4-0.7-0.5c-0.3-0.1-0.8-0.2-1.4-0.2H4.6v6.2h1.7V15.8z M7.7,14.3c-0.1,0-0.4,0-0.8,0H6.3v-0.9
	h1.4c0.1,0,0.1,0,0.2,0.1c0,0,0,0.1,0.1,0.1C8,13.7,8,13.8,8,13.9c0,0.1,0,0.2,0,0.2c0,0,0,0-0.1,0.1C7.9,14.2,7.8,14.2,7.7,14.3z
	 M11.6,13.3H9.9v-1.5h4.9v1.5h-1.7V18h-1.6V13.3z"/>
</svg>
