<?xml version="1.0" encoding="utf-8"?>
<!-- Generator: Adobe Illustrator 21.1.0, SVG Export Plug-In . SVG Version: 6.00 Build 0)  -->
<svg version="1.1" id="Layer_1" xmlns="http://www.w3.org/2000/svg" xmlns:xlink="http://www.w3.org/1999/xlink" x="0px" y="0px"
	 viewBox="0 0 24 24" style="enable-background:new 0 0 24 24;" xml:space="preserve">
<path d="M21.6,8.5V5.4l-5.2-5.2C16.2,0,16.1,0,15.8,0H3C2.7,0,2.4,0.3,2.4,0.6v7.8H0v13h2.4v1.9C2.4,23.7,2.7,24,3,24h18
	c0.3,0,0.6-0.3,0.6-0.6v-1.9H24V8.5H21.6z M20.3,21.6v1.4H3.6v-1.4H20.3z M16.6,5.1V2.3l2.8,2.8H16.6z M15.8,6.5h4.5v2H3.6V1.4h11.6
	v4.5C15.2,6.2,15.5,6.5,15.8,6.5z M22.7,9.9v10.5H1.3V9.9H22.7z M20,16h2v1.2h-3.2v-4.3H20V16z M18.4,12.9v4.3h-1.2v-1.4l-0.3,1.4
	h-1.2l-0.3-1.4v1.4h-1.2V14H13v3.1h-1.3V14h-1.1v3.1H9.3v-1.7h-1v1.7H7.1v-4.3h1.3v1.5h1.1v-1.5h6.4l0.5,1.9l0.5-1.9H18.4z
	 M6.8,12.9v4.3H5.5v-1.4l-0.3,1.4H4.1l-0.3-1.4v1.4H2.5v-4.3h0.1c0,0,0.1,0,0.1,0h1.3l0.5,1.9l0.5-1.9H6.8z"/>
</svg>
