<?xml version="1.0" encoding="utf-8"?>
<!-- Generator: Adobe Illustrator 21.1.0, SVG Export Plug-In . SVG Version: 6.00 Build 0)  -->
<svg version="1.1" id="Layer_1" xmlns="http://www.w3.org/2000/svg" xmlns:xlink="http://www.w3.org/1999/xlink" x="0px" y="0px"
	 viewBox="0 0 24 24" style="enable-background:new 0 0 24 24;" xml:space="preserve">
<style type="text/css">
	.st0{fill:none;stroke:#000000;stroke-width:1.5;stroke-miterlimit:10;}
</style>
<path d="M21.5,8.4V5.4l-5.1-5.1C16.3,0,16.1,0,15.8,0H3C2.7,0,2.3,0.3,2.3,0.7v7.8H0v13h2.3v1.9C2.3,23.7,2.7,24,3,24h18
	c0.4,0,0.7-0.3,0.7-0.7v-1.9H24v-13H21.5z M20.3,21.4v1.2H3.7v-1.2H20.3z M16.5,5V2.2L19.3,5H16.5z M15.8,6.5h4.5v2.1H3.7V1.3h11.5
	v4.5C15.2,6.1,15.5,6.5,15.8,6.5z M22.7,9.8v10.4H1.3V9.8H22.7z M3.6,17.3C3,16.8,2.8,16,2.8,14.9c0-1.2,0.3-2,0.8-2.5
	c0.6-0.6,1.3-0.9,2.2-0.9c0.8,0,1.5,0.2,2,0.7c0.3,0.2,0.6,0.7,0.7,1.3l0,0.2l-1.7,0.5v-0.3c0-0.4-0.2-0.6-0.4-0.8
	c-0.2-0.2-0.4-0.2-0.7-0.2c-0.3,0-0.7,0.2-0.9,0.4c-0.1,0.2-0.4,0.7-0.4,1.5c0,0.7,0.1,1.2,0.4,1.4c0.3,0.3,0.6,0.5,0.9,0.5
	c0.3,0,0.5-0.1,0.7-0.2c0.2-0.2,0.4-0.4,0.5-0.8L7,15.2l1.7,0.6L8.6,16c-0.2,0.7-0.6,1.3-1,1.6C7,18,6.4,18.2,5.8,18.2
	C4.9,18.2,4.2,17.9,3.6,17.3z M14.3,18H9.2v-6.6h5V13h-3.3v0.9H14v1.6h-3.1v1h3.4V18z M16.7,15.5c0.2,0,0.4,0,0.4,0
	c0.1,0.1,0.2,0.1,0.2,0.2c0,0,0.1,0,0.1,0.1c0.1,0.1,0.2,0.2,0.3,0.4c0.1,0.1,0.2,0.3,0.3,0.4l0.9,1.4h2.1l-1-1.6L19.9,16
	c-0.2-0.3-0.4-0.5-0.5-0.7c-0.1-0.1-0.2-0.2-0.3-0.2c0.4-0.1,0.6-0.2,0.8-0.5c0.4-0.4,0.5-0.7,0.5-1.3c0-0.4-0.1-0.7-0.2-1
	c-0.1-0.4-0.6-0.6-0.9-0.7c-0.3-0.1-0.8-0.2-1.5-0.2H15v6.6h1.8V15.5z M18.6,13.6L18.6,13.6c-0.1,0.2-0.2,0.2-0.2,0.2
	c0,0-0.1,0-0.2,0c-0.2,0-0.5,0.1-1,0.1h-0.7v-1.1h1.7c0.1,0,0.2,0,0.3,0.1c0.1,0.1,0.1,0.2,0.1,0.4C18.6,13.6,18.6,13.6,18.6,13.6z"
	/>
<line class="st0" x1="-16.7" y1="-1.6" x2="-10.2" y2="-1.6"/>
</svg>
