<?xml version="1.0" encoding="utf-8"?>
<!-- Generator: Adobe Illustrator 21.1.0, SVG Export Plug-In . SVG Version: 6.00 Build 0)  -->
<svg version="1.1" id="Layer_1" xmlns="http://www.w3.org/2000/svg" xmlns:xlink="http://www.w3.org/1999/xlink" x="0px" y="0px"
	 viewBox="0 0 24 24" style="enable-background:new 0 0 24 24;" xml:space="preserve">
<path d="M21.6,8.6V5.3l-5.2-5.2c-0.2-0.2-0.3-0.2-0.5-0.2H2.8c-0.2,0-0.4,0.2-0.4,0.4v8.2H0v12.8h2.4v2.2c0,0.2,0.2,0.4,0.4,0.4
	h18.4c0.2,0,0.4-0.2,0.4-0.4v-2.2H24V8.6H21.6z M16.4,1.4l3.7,3.7h-3.7V1.4z M3.2,0.8h12.3v4.8c0,0.2,0.2,0.4,0.4,0.4h4.8v2.5H3.2
	V0.8z M20.8,23.3H3.2v-1.9h17.5V23.3z M23.2,20.7H0.8V9.5h22.4V20.7z M4.8,16.9v-4.3h0.9v3.5h2.2v0.7H4.8z M8.4,16.9v-4.3h3.2v0.7
	H9.3v1h2.2V15H9.3v1.2h2.4v0.7H8.4z M12.2,15.5l0.8-0.1c0.1,0.3,0.2,0.5,0.3,0.6c0.2,0.1,0.4,0.2,0.6,0.2c0.3,0,0.5-0.1,0.6-0.2
	s0.2-0.3,0.2-0.4c0-0.1,0-0.2-0.1-0.3s-0.2-0.1-0.3-0.2c-0.1,0-0.3-0.1-0.7-0.2c-0.5-0.1-0.8-0.3-1-0.4c-0.3-0.2-0.4-0.5-0.4-0.9
	c0-0.2,0.1-0.4,0.2-0.6c0.1-0.2,0.3-0.3,0.5-0.4s0.5-0.1,0.8-0.1c0.5,0,0.9,0.1,1.2,0.4c0.3,0.2,0.4,0.6,0.4,0.9l-0.9,0
	c0-0.2-0.1-0.4-0.2-0.5c-0.1-0.1-0.3-0.1-0.5-0.1c-0.3,0-0.4,0.1-0.6,0.2c-0.1,0.1-0.1,0.2-0.1,0.3c0,0.1,0,0.2,0.1,0.3
	c0.1,0.1,0.4,0.2,0.8,0.3s0.7,0.2,0.9,0.3c0.2,0.1,0.4,0.3,0.5,0.4c0.1,0.2,0.2,0.4,0.2,0.7c0,0.2-0.1,0.5-0.2,0.7s-0.3,0.4-0.6,0.5
	S14.4,17,14,17c-0.5,0-1-0.1-1.3-0.4S12.3,16,12.2,15.5z M16.2,15.5l0.8-0.1c0.1,0.3,0.2,0.5,0.3,0.6c0.2,0.1,0.4,0.2,0.6,0.2
	c0.3,0,0.5-0.1,0.6-0.2s0.2-0.3,0.2-0.4c0-0.1,0-0.2-0.1-0.3s-0.2-0.1-0.3-0.2c-0.1,0-0.3-0.1-0.7-0.2c-0.5-0.1-0.8-0.3-1-0.4
	c-0.3-0.2-0.4-0.5-0.4-0.9c0-0.2,0.1-0.4,0.2-0.6c0.1-0.2,0.3-0.3,0.5-0.4s0.5-0.1,0.8-0.1c0.5,0,0.9,0.1,1.2,0.4
	c0.3,0.2,0.4,0.6,0.4,0.9l-0.9,0c0-0.2-0.1-0.4-0.2-0.5c-0.1-0.1-0.3-0.1-0.5-0.1c-0.3,0-0.4,0.1-0.6,0.2c-0.1,0.1-0.1,0.2-0.1,0.3
	c0,0.1,0,0.2,0.1,0.3c0.1,0.1,0.4,0.2,0.8,0.3s0.7,0.2,0.9,0.3c0.2,0.1,0.4,0.3,0.5,0.4c0.1,0.2,0.2,0.4,0.2,0.7
	c0,0.2-0.1,0.5-0.2,0.7s-0.3,0.4-0.6,0.5S18.4,17,18,17c-0.5,0-1-0.1-1.3-0.4S16.3,16,16.2,15.5z"/>
</svg>
