<?xml version="1.0" encoding="utf-8"?>
<!-- Generator: Adobe Illustrator 21.1.0, SVG Export Plug-In . SVG Version: 6.00 Build 0)  -->
<svg version="1.1" id="Layer_1" xmlns="http://www.w3.org/2000/svg" xmlns:xlink="http://www.w3.org/1999/xlink" x="0px" y="0px"
	 viewBox="0 0 24 24" style="enable-background:new 0 0 24 24;" xml:space="preserve">
<path d="M21.6,8.5V5.4l-5.2-5.2C16.2,0,16.1,0,15.8,0H3C2.7,0,2.4,0.3,2.4,0.6v7.8H0v13h2.4v1.9C2.4,23.7,2.7,24,3,24h18
	c0.3,0,0.6-0.3,0.6-0.6v-1.9H24V8.5H21.6z M20.3,21.6v1.4H3.6v-1.4H20.3z M16.6,5.1V2.3l2.8,2.8H16.6z M15.8,6.5h4.5v2H3.6V1.4h11.6
	v4.5C15.2,6.2,15.5,6.5,15.8,6.5z M22.7,9.9v10.5H1.3V9.9H22.7z M6.1,16.2c-0.2-0.5-0.3-1-0.3-1.6c0-0.7,0.1-1.2,0.4-1.7
	c0.2-0.6,0.7-0.9,1.2-1.2c0.5-0.2,0.9-0.3,1.5-0.3c0.8,0,1.4,0.1,1.8,0.4c0.5,0.4,0.8,0.8,0.9,1.3l0,0.2l-1.7,0.4l-0.1-0.2
	c-0.1-0.3-0.2-0.4-0.4-0.6c-0.2-0.2-0.4-0.2-0.6-0.2c-0.4,0-0.7,0.1-1,0.4c-0.3,0.3-0.4,0.7-0.4,1.2c0,0.6,0.1,1,0.4,1.3
	c0.3,0.3,0.6,0.4,1,0.4c0.2,0,0.4,0,0.6-0.1c0.1,0,0.1-0.1,0.2-0.1c0.1,0,0.2-0.1,0.2-0.1v-0.3H8.5v-1.5h2.9v2.1l2.7-3.3h-2.4v-1.5
	h4.6v1.2l-2.8,3.5h3v1.4h-5.1v-0.8l-0.1,0.1c-0.2,0.2-0.6,0.4-1.2,0.6c-0.5,0.2-0.9,0.3-1.5,0.3c-0.7,0-1.2-0.1-1.7-0.4
	C6.6,17.1,6.3,16.8,6.1,16.2z"/>
</svg>
