<?xml version="1.0" encoding="utf-8"?>
<!-- Generator: Adobe Illustrator 21.1.0, SVG Export Plug-In . SVG Version: 6.00 Build 0)  -->
<svg version="1.1" id="Layer_1" xmlns="http://www.w3.org/2000/svg" xmlns:xlink="http://www.w3.org/1999/xlink" x="0px" y="0px"
	 viewBox="0 0 24 24" style="enable-background:new 0 0 24 24;" xml:space="preserve">
<path d="M21.6,8.6V5.3l-5.2-5.2c-0.2-0.2-0.3-0.2-0.5-0.2H2.8c-0.2,0-0.4,0.2-0.4,0.4v8.2H0v12.8h2.4v2.2c0,0.2,0.2,0.4,0.4,0.4
	h18.4c0.2,0,0.4-0.2,0.4-0.4v-2.2H24V8.6H21.6z M16.4,1.4l3.7,3.7h-3.7V1.4z M3.2,0.8h12.3v4.8c0,0.2,0.2,0.4,0.4,0.4h4.8v2.5H3.2
	V0.8z M20.8,23.3H3.2v-1.9h17.5V23.3z M23.2,20.7H0.8V9.5h22.4V20.7z M4.2,15c0-0.6,0.1-1.1,0.3-1.5C4.6,13.3,4.8,13,5,12.8
	c0.2-0.2,0.5-0.4,0.7-0.5c0.4-0.2,0.8-0.2,1.2-0.2c0.8,0,1.5,0.3,2,0.8s0.8,1.3,0.8,2.2c0,0.9-0.3,1.6-0.8,2.2S7.8,18,7,18
	c-0.9,0-1.5-0.3-2-0.8S4.2,16,4.2,15z M5.4,15c0,0.6,0.1,1.1,0.4,1.5S6.5,17,7,17s0.8-0.2,1.1-0.5s0.4-0.8,0.4-1.5
	c0-0.7-0.1-1.1-0.4-1.5S7.4,13,7,13s-0.9,0.2-1.2,0.5S5.4,14.3,5.4,15z M11.9,17.9v-4.8h-1.7v-1h4.6v1h-1.7v4.8H11.9z M15.5,17.9
	v-5.7h3.9v1h-2.8v1.4h2.4v1h-2.4v2.4H15.5z"/>
</svg>
