<?xml version="1.0" encoding="UTF-8"?>
<svg xmlns="http://www.w3.org/2000/svg" xmlns:xlink="http://www.w3.org/1999/xlink" width="24pt" height="24pt" viewBox="0 0 24 24" version="1.1">
<g id="surface1">
<path style=" stroke:none;fill-rule:nonzero;fill:rgb(0%,0%,0%);fill-opacity:1;" d="M 21.601562 8.617188 L 21.601562 5.453125 C 21.601562 5.453125 21.601562 5.34375 21.601562 5.34375 L 16.472656 0.21875 C 16.253906 0 16.144531 0 15.925781 0 L 2.835938 0 C 2.617188 0 2.398438 0.21875 2.398438 0.4375 L 2.398438 8.617188 L 0 8.617188 L 0 21.382812 L 2.398438 21.382812 L 2.398438 23.5625 C 2.398438 23.78125 2.617188 24 2.835938 24 L 21.164062 24 C 21.382812 24 21.601562 23.78125 21.601562 23.5625 L 21.601562 21.382812 L 24 21.382812 L 24 8.617188 Z M 16.363281 1.417969 L 20.074219 5.128906 L 16.363281 5.128906 Z M 3.273438 0.871094 L 15.492188 0.871094 L 15.492188 5.671875 C 15.492188 5.890625 15.710938 6.109375 15.925781 6.109375 L 20.726562 6.109375 L 20.726562 8.726562 L 3.273438 8.726562 Z M 20.726562 23.128906 L 3.273438 23.128906 L 3.273438 21.382812 L 20.726562 21.382812 Z M 23.128906 20.617188 L 0.871094 20.617188 L 0.871094 9.492188 L 23.128906 9.492188 Z M 5.34375 18.328125 L 5.34375 13.089844 L 3.492188 13.089844 L 3.492188 12 L 8.507812 12 L 8.507812 13.089844 L 6.546875 13.089844 L 6.546875 18.328125 Z M 12.109375 15.925781 L 12.109375 14.835938 L 14.835938 14.835938 L 14.835938 17.453125 C 14.617188 17.671875 14.183594 17.890625 13.636719 18.109375 C 13.089844 18.328125 12.65625 18.4375 12.109375 18.4375 C 11.453125 18.4375 10.910156 18.328125 10.363281 18 C 9.816406 17.671875 9.492188 17.34375 9.273438 16.800781 C 9.054688 16.253906 8.945312 15.710938 8.945312 15.164062 C 8.945312 14.507812 9.054688 13.964844 9.382812 13.417969 C 9.601562 12.871094 10.035156 12.546875 10.582031 12.21875 C 11.019531 12 11.453125 11.890625 12.109375 11.890625 C 12.871094 11.890625 13.527344 12 13.964844 12.328125 C 14.398438 12.65625 14.726562 13.089844 14.835938 13.636719 L 13.636719 13.855469 C 13.527344 13.527344 13.417969 13.308594 13.089844 13.089844 C 12.871094 12.871094 12.546875 12.871094 12.21875 12.871094 C 11.671875 12.871094 11.238281 13.089844 10.910156 13.417969 C 10.582031 13.746094 10.472656 14.289062 10.472656 14.945312 C 10.472656 15.710938 10.691406 16.253906 11.019531 16.582031 C 11.34375 16.910156 11.78125 17.128906 12.328125 17.128906 C 12.546875 17.128906 12.871094 17.128906 13.089844 17.019531 C 13.308594 16.910156 13.636719 16.800781 13.746094 16.691406 L 13.746094 15.925781 Z M 15.492188 18.328125 L 15.492188 17.238281 L 18.761719 13.199219 L 15.816406 13.199219 L 15.816406 12.109375 L 20.398438 12.109375 L 20.398438 13.089844 L 17.019531 17.34375 L 20.617188 17.34375 L 20.617188 18.4375 L 15.492188 18.4375 Z M 15.492188 18.328125 "/>
</g>
</svg>
