<?xml version="1.0" encoding="UTF-8"?>
<svg xmlns="http://www.w3.org/2000/svg" xmlns:xlink="http://www.w3.org/1999/xlink" width="24pt" height="24pt" viewBox="0 0 24 24" version="1.1">
<g id="surface1">
<path style=" stroke:none;fill-rule:nonzero;fill:rgb(0%,0%,0%);fill-opacity:1;" d="M 21.601562 8.617188 L 21.601562 5.453125 C 21.601562 5.453125 21.601562 5.34375 21.601562 5.34375 L 16.472656 0.21875 C 16.253906 0 16.144531 0 15.925781 0 L 2.835938 0 C 2.617188 0 2.398438 0.21875 2.398438 0.4375 L 2.398438 8.617188 L 0 8.617188 L 0 21.382812 L 2.398438 21.382812 L 2.398438 23.5625 C 2.398438 23.78125 2.617188 24 2.835938 24 L 21.164062 24 C 21.382812 24 21.601562 23.78125 21.601562 23.5625 L 21.601562 21.382812 L 24 21.382812 L 24 8.617188 Z M 16.363281 1.417969 L 20.074219 5.128906 L 16.363281 5.128906 Z M 3.273438 0.871094 L 15.492188 0.871094 L 15.492188 5.671875 C 15.492188 5.890625 15.710938 6.109375 15.925781 6.109375 L 20.726562 6.109375 L 20.726562 8.726562 L 3.273438 8.726562 Z M 20.726562 23.128906 L 3.273438 23.128906 L 3.273438 21.382812 L 20.726562 21.382812 Z M 23.128906 20.617188 L 0.871094 20.617188 L 0.871094 9.492188 L 23.128906 9.492188 Z M 5.238281 12.761719 L 6.21875 12.761719 L 6.21875 15.710938 C 6.21875 16.144531 6.21875 16.363281 6.109375 16.582031 C 6 16.800781 5.890625 17.128906 5.5625 17.238281 C 5.34375 17.453125 5.019531 17.453125 4.582031 17.453125 C 4.144531 17.453125 3.710938 17.34375 3.492188 17.019531 C 3.273438 16.800781 3.164062 16.363281 3.164062 15.925781 L 4.035156 15.816406 C 4.035156 16.035156 4.035156 16.253906 4.144531 16.363281 C 4.253906 16.582031 4.363281 16.582031 4.582031 16.582031 C 4.800781 16.582031 4.910156 16.472656 5.019531 16.363281 C 5.128906 16.253906 5.128906 16.035156 5.128906 15.601562 L 5.128906 12.761719 Z M 6.871094 15.925781 L 7.746094 15.816406 C 7.855469 16.144531 7.964844 16.363281 8.074219 16.472656 C 8.183594 16.582031 8.507812 16.691406 8.726562 16.691406 C 9.054688 16.691406 9.273438 16.582031 9.382812 16.472656 C 9.710938 16.363281 9.816406 16.253906 9.816406 16.144531 C 9.816406 16.035156 9.816406 15.925781 9.710938 15.816406 C 9.601562 15.710938 9.492188 15.710938 9.382812 15.601562 C 9.273438 15.601562 9.054688 15.492188 8.617188 15.382812 C 8.074219 15.273438 7.746094 15.054688 7.527344 14.945312 C 7.199219 14.726562 7.089844 14.398438 7.089844 13.964844 C 7.089844 13.746094 7.199219 13.527344 7.308594 13.308594 C 7.417969 13.089844 7.636719 12.980469 7.855469 12.871094 C 8.074219 12.761719 8.398438 12.761719 8.726562 12.761719 C 9.273438 12.761719 9.710938 12.871094 10.035156 13.199219 C 10.363281 13.527344 10.472656 13.855469 10.472656 14.183594 L 9.492188 14.183594 C 9.492188 13.964844 9.382812 13.746094 9.273438 13.636719 C 9.164062 13.527344 8.945312 13.527344 8.726562 13.527344 C 8.398438 13.527344 8.289062 13.636719 8.074219 13.746094 C 7.964844 13.855469 7.964844 13.964844 7.964844 14.074219 C 7.964844 14.183594 7.964844 14.289062 8.074219 14.398438 C 8.183594 14.507812 8.507812 14.617188 8.945312 14.726562 C 9.382812 14.835938 9.710938 14.945312 9.925781 15.054688 C 10.144531 15.164062 10.363281 15.382812 10.472656 15.492188 C 10.582031 15.710938 10.691406 15.925781 10.691406 16.253906 C 10.691406 16.472656 10.582031 16.800781 10.472656 17.019531 C 10.363281 17.238281 10.144531 17.453125 9.816406 17.5625 C 9.601562 17.671875 9.164062 17.78125 8.835938 17.78125 C 8.289062 17.78125 7.746094 17.671875 7.417969 17.34375 C 7.199219 16.800781 6.980469 16.472656 6.871094 15.925781 Z M 11.34375 15.164062 C 11.34375 14.726562 11.453125 14.289062 11.5625 13.964844 C 11.671875 13.746094 11.78125 13.527344 12 13.308594 C 12.21875 13.089844 12.4375 12.980469 12.65625 12.871094 C 12.980469 12.761719 13.308594 12.65625 13.636719 12.65625 C 14.289062 12.65625 14.835938 12.871094 15.273438 13.308594 C 15.710938 13.746094 15.925781 14.289062 15.925781 15.054688 C 15.925781 15.816406 15.710938 16.363281 15.273438 16.800781 C 14.835938 17.238281 14.289062 17.453125 13.636719 17.453125 C 12.980469 17.453125 12.4375 17.238281 12 16.800781 C 11.5625 16.472656 11.34375 15.925781 11.34375 15.164062 Z M 12.328125 15.054688 C 12.328125 15.601562 12.4375 16.035156 12.65625 16.253906 C 12.871094 16.582031 13.199219 16.691406 13.636719 16.691406 C 14.074219 16.691406 14.289062 16.582031 14.617188 16.253906 C 14.835938 16.035156 14.945312 15.601562 14.945312 15.054688 C 14.945312 14.507812 14.835938 14.074219 14.617188 13.855469 C 14.398438 13.636719 14.074219 13.417969 13.636719 13.417969 C 13.199219 13.417969 12.980469 13.527344 12.65625 13.855469 C 12.4375 14.183594 12.328125 14.617188 12.328125 15.054688 Z M 16.582031 17.453125 L 16.582031 12.761719 L 17.453125 12.761719 L 19.417969 15.925781 L 19.417969 12.761719 L 20.289062 12.761719 L 20.289062 17.453125 L 19.308594 17.453125 L 17.453125 14.398438 L 17.453125 17.453125 Z M 16.582031 17.453125 "/>
</g>
</svg>
