<?xml version="1.0" encoding="utf-8"?>
<!-- Generator: Adobe Illustrator 21.1.0, SVG Export Plug-In . SVG Version: 6.00 Build 0)  -->
<svg version="1.1" id="Layer_1" xmlns="http://www.w3.org/2000/svg" xmlns:xlink="http://www.w3.org/1999/xlink" x="0px" y="0px"
	 viewBox="0 0 24 24" style="enable-background:new 0 0 24 24;" xml:space="preserve">
<path d="M16.5,18.2h-1.7v-6.7h4.7v1.6h-3v1h2.6v1.6h-2.6V18.2z M24,8.4v13h-2.3v1.9c0,0.4-0.3,0.7-0.7,0.7H3c-0.4,0-0.7-0.3-0.7-0.7
	v-1.9H0v-13h2.3V0.7C2.3,0.3,2.7,0,3,0h12.8c0.3,0,0.4,0,0.7,0.3l5.1,5.1v3.1H24z M3.7,21.4v1.2h16.6v-1.2H3.7z M19.3,5l-2.8-2.8V5
	H19.3z M15.2,5.8V1.3H3.7v7.2h16.6V6.5h-4.5C15.5,6.5,15.2,6.1,15.2,5.8z M1.3,9.8v10.4h21.3V9.8H1.3z M5.8,18.1h1.7V13H11v5.1h1.8
	V13h1.8v-1.6H4V13h1.8V18.1z"/>
</svg>
