<?xml version="1.0" encoding="utf-8"?>
<!-- Generator: Adobe Illustrator 21.1.0, SVG Export Plug-In . SVG Version: 6.00 Build 0)  -->
<svg version="1.1" id="Layer_1" xmlns="http://www.w3.org/2000/svg" xmlns:xlink="http://www.w3.org/1999/xlink" x="0px" y="0px"
	 viewBox="0 0 24 24" style="enable-background:new 0 0 24 24;" xml:space="preserve">
<path d="M21.6,8.5V5.4l-5.2-5.2C16.2,0,16.1,0,15.8,0H3C2.7,0,2.4,0.3,2.4,0.6v7.8H0v13h2.4v1.9C2.4,23.7,2.7,24,3,24h18
	c0.3,0,0.6-0.3,0.6-0.6v-1.9H24V8.5H21.6z M20.3,21.6v1.4H3.6v-1.4H20.3z M16.6,5.1V2.3l2.8,2.8H16.6z M15.8,6.5h4.5v2H3.6V1.4h11.6
	v4.5C15.2,6.2,15.5,6.5,15.8,6.5z M22.7,9.9v10.5H1.3V9.9H22.7z M11.6,18.3h-1.4v-6.1h1.7v2.3h1.8v-2.3h1.6v6.1h-1.7v-2.4h-1.8v2.2
	h-0.1V18.3z M17.1,13.7h-1.7v-1.5h5v1.5h-1.7v4.7h-1.7V13.7z M9.4,12.2v6.1H8v-2.6l-0.6,2.6H5.8l-0.6-2.6v2.6H3.6v-6.1h2.1l0.8,3.1
	l0.8-3.1H9.4z"/>
</svg>
