<?xml version="1.0" encoding="UTF-8"?>
<svg xmlns="http://www.w3.org/2000/svg" xmlns:xlink="http://www.w3.org/1999/xlink" width="24pt" height="24pt" viewBox="0 0 24 24" version="1.1">
<g id="surface1">
<path style=" stroke:none;fill-rule:nonzero;fill:rgb(0%,0%,0%);fill-opacity:1;" d="M 21.601562 8.617188 L 21.601562 5.453125 C 21.601562 5.453125 21.601562 5.34375 21.601562 5.34375 L 16.472656 0.21875 C 16.253906 0 16.144531 0 15.925781 0 L 2.835938 0 C 2.617188 0 2.398438 0.21875 2.398438 0.4375 L 2.398438 8.617188 L 0 8.617188 L 0 21.382812 L 2.398438 21.382812 L 2.398438 23.5625 C 2.398438 23.78125 2.617188 24 2.835938 24 L 21.164062 24 C 21.382812 24 21.601562 23.78125 21.601562 23.5625 L 21.601562 21.382812 L 24 21.382812 L 24 8.617188 Z M 16.363281 1.417969 L 20.074219 5.128906 L 16.363281 5.128906 Z M 3.273438 0.871094 L 15.492188 0.871094 L 15.492188 5.671875 C 15.492188 5.890625 15.710938 6.109375 15.925781 6.109375 L 20.726562 6.109375 L 20.726562 8.726562 L 3.273438 8.726562 Z M 20.726562 23.128906 L 3.273438 23.128906 L 3.273438 21.382812 L 20.726562 21.382812 Z M 23.128906 20.617188 L 0.871094 20.617188 L 0.871094 9.492188 L 23.128906 9.492188 Z M 7.089844 15.925781 L 8.289062 16.363281 C 8.074219 17.019531 7.746094 17.5625 7.308594 17.890625 C 6.871094 18.21875 6.328125 18.4375 5.671875 18.4375 C 4.800781 18.4375 4.144531 18.109375 3.601562 17.5625 C 3.054688 17.019531 2.835938 16.253906 2.835938 15.273438 C 2.835938 14.183594 3.054688 13.417969 3.601562 12.871094 C 4.144531 12.328125 4.800781 12 5.671875 12 C 6.4375 12 7.089844 12.21875 7.527344 12.65625 C 7.855469 12.871094 8.074219 13.308594 8.183594 13.855469 L 6.980469 14.183594 C 6.871094 13.855469 6.761719 13.636719 6.546875 13.417969 C 6.328125 13.199219 6 13.089844 5.671875 13.089844 C 5.238281 13.089844 4.800781 13.308594 4.582031 13.636719 C 4.253906 13.964844 4.144531 14.507812 4.144531 15.273438 C 4.144531 16.035156 4.253906 16.582031 4.582031 16.910156 C 4.910156 17.238281 5.238281 17.453125 5.671875 17.453125 C 6 17.453125 6.328125 17.34375 6.546875 17.128906 C 6.761719 16.910156 6.980469 16.363281 7.089844 15.925781 Z M 9.164062 16.144531 L 10.363281 16.035156 C 10.472656 16.472656 10.582031 16.800781 10.800781 16.910156 C 11.019531 17.128906 11.34375 17.238281 11.671875 17.238281 C 12.109375 17.238281 12.4375 17.128906 12.546875 17.019531 C 12.761719 16.800781 12.871094 16.691406 12.871094 16.363281 C 12.871094 16.253906 12.871094 16.144531 12.761719 16.035156 C 12.65625 15.925781 12.546875 15.816406 12.328125 15.816406 C 12.21875 15.816406 11.890625 15.710938 11.34375 15.601562 C 10.691406 15.382812 10.144531 15.273438 9.925781 14.945312 C 9.492188 14.617188 9.382812 14.183594 9.382812 13.636719 C 9.382812 13.308594 9.492188 12.980469 9.601562 12.761719 C 9.710938 12.546875 10.035156 12.328125 10.363281 12.109375 C 10.691406 11.890625 11.128906 11.890625 11.5625 11.890625 C 12.328125 11.890625 12.980469 12.109375 13.308594 12.4375 C 13.746094 12.761719 13.964844 13.199219 13.964844 13.855469 L 12.65625 13.964844 C 12.65625 13.636719 12.4375 13.417969 12.328125 13.308594 C 12.109375 13.199219 11.890625 13.089844 11.5625 13.089844 C 11.238281 13.089844 10.910156 13.199219 10.691406 13.308594 C 10.582031 13.417969 10.472656 13.527344 10.472656 13.746094 C 10.472656 13.855469 10.582031 14.074219 10.691406 14.074219 C 10.800781 14.183594 11.238281 14.289062 11.890625 14.507812 C 12.546875 14.726562 12.980469 14.835938 13.199219 14.945312 C 13.527344 15.054688 13.746094 15.273438 13.855469 15.601562 C 13.964844 15.925781 14.183594 15.925781 14.183594 16.363281 C 14.183594 16.691406 14.074219 17.019531 13.855469 17.34375 C 13.636719 17.671875 13.417969 17.890625 12.980469 18 C 12.65625 18.109375 12.21875 18.21875 11.671875 18.21875 C 10.910156 18.21875 10.253906 18 9.816406 17.671875 C 9.492188 17.34375 9.164062 16.800781 9.164062 16.144531 Z M 14.945312 16.144531 L 16.144531 16.035156 C 16.253906 16.472656 16.363281 16.800781 16.582031 16.910156 C 16.800781 17.128906 17.128906 17.238281 17.453125 17.238281 C 17.890625 17.238281 18.21875 17.128906 18.328125 17.019531 C 18.546875 16.800781 18.65625 16.691406 18.65625 16.363281 C 18.65625 16.253906 18.65625 16.144531 18.546875 16.035156 C 18.4375 15.925781 18.328125 15.816406 18.109375 15.816406 C 18 15.816406 17.671875 15.710938 17.128906 15.601562 C 16.472656 15.382812 15.925781 15.273438 15.710938 14.945312 C 15.273438 14.617188 15.164062 14.183594 15.164062 13.636719 C 15.164062 13.308594 15.273438 12.980469 15.382812 12.761719 C 15.492188 12.546875 15.816406 12.328125 16.144531 12.109375 C 16.472656 11.890625 16.910156 11.890625 17.34375 11.890625 C 18.109375 11.890625 18.761719 12.109375 19.089844 12.4375 C 19.417969 12.761719 19.746094 13.199219 19.746094 13.855469 L 18.546875 13.746094 C 18.546875 13.417969 18.328125 13.199219 18.21875 13.089844 C 18 12.980469 17.78125 12.871094 17.453125 12.871094 C 17.128906 12.871094 16.800781 12.980469 16.582031 13.089844 C 16.472656 13.199219 16.363281 13.308594 16.363281 13.527344 C 16.363281 13.636719 16.472656 13.855469 16.582031 13.855469 C 16.691406 13.964844 17.128906 14.074219 17.78125 14.289062 C 18.4375 14.507812 18.871094 14.617188 19.089844 14.726562 C 19.417969 14.835938 19.636719 15.054688 19.746094 15.382812 C 19.855469 15.710938 19.964844 16.035156 19.964844 16.363281 C 19.964844 16.691406 19.855469 17.019531 19.636719 17.34375 C 19.417969 17.671875 19.199219 17.890625 18.761719 18 C 18.4375 18.109375 18 18.21875 17.453125 18.21875 C 16.691406 18.21875 16.035156 18 15.601562 17.671875 C 15.273438 17.34375 15.054688 16.800781 14.945312 16.144531 Z M 14.945312 16.144531 "/>
</g>
</svg>
