<?xml version="1.0" encoding="utf-8"?>
<!-- Generator: Adobe Illustrator 21.1.0, SVG Export Plug-In . SVG Version: 6.00 Build 0)  -->
<svg version="1.1" id="Layer_1" xmlns="http://www.w3.org/2000/svg" xmlns:xlink="http://www.w3.org/1999/xlink" x="0px" y="0px"
	 viewBox="0 0 24 24" style="enable-background:new 0 0 24 24;" xml:space="preserve">
<path d="M21.6,8.4V5.3l-5.2-5.2c-0.2-0.2-0.4-0.3-0.7-0.3H3c-0.3,0-0.6,0.3-0.6,0.6v7.8H0v13h2.4v1.9c0,0.3,0.3,0.6,0.6,0.6h18
	c0.3,0,0.6-0.3,0.6-0.6v-1.9H24V8.4H21.6z M20.3,21.5v1.4H3.6v-1.4H20.3z M16.6,5V2.2L19.3,5H16.6z M15.8,6.4h4.5v2H3.6V1.3h11.6
	v4.5C15.2,6.1,15.5,6.4,15.8,6.4z M22.7,9.8v10.5H1.3V9.8H22.7z M6.4,16.1c0.1-0.1,0.1-0.2,0.1-0.2c0-0.1,0-0.1,0-0.1
	c0,0,0,0-0.1-0.1c0,0-0.1,0-0.1-0.1c-0.1,0-0.1,0-0.2-0.1c-0.1,0-0.2-0.1-0.4-0.1c-0.4-0.1-0.7-0.2-0.9-0.4l-0.1-0.1
	c-0.5-0.3-0.5-0.8-0.5-1.1c0-0.3,0.1-0.5,0.2-0.7c0.1-0.3,0.4-0.4,0.6-0.5c0.2-0.1,0.5-0.1,0.8,0c0.1,0,0.2,0,0.3,0
	c0.6,0,1,0.1,1.3,0.5c0.3,0.3,0.5,0.7,0.5,1.1v0.2H6.5v-0.2c0-0.1-0.1-0.3-0.1-0.3c0,0-0.2,0-0.3,0c-0.2,0-0.2,0-0.4,0.1l-0.1,0
	c0,0,0,0,0,0.1c0,0.1,0,0.1,0,0.1c0,0,0.1,0.1,0.7,0.2c0.4,0.1,0.7,0.2,0.9,0.3c0.2,0.1,0.4,0.3,0.5,0.4l0.1,0.1
	C7.9,15.5,8,15.8,8,16.1c0,0.2-0.1,0.6-0.2,0.8c-0.1,0.3-0.4,0.5-0.7,0.6c-0.2,0.1-0.6,0.2-1,0.2c-0.6,0-1.1-0.2-1.4-0.5
	c-0.4-0.5-0.5-0.9-0.6-1.4l-0.1-0.3l1.2-0.2l0.1,0.2c0.1,0.3,0.2,0.5,0.2,0.5c0,0,0.3,0.1,0.4,0.1C6.3,16.3,6.4,16.2,6.4,16.1z
	 M16.5,16.9c-0.1-0.3-0.2-0.6-0.2-1.1v-0.2l1.2-0.2l0.1,0.2c0.1,0.3,0.2,0.4,0.2,0.5c0.2,0.1,0.3,0.1,0.4,0.1c0.3,0,0.4-0.1,0.4-0.1
	c0.1-0.1,0.1-0.2,0.1-0.2c0-0.1,0-0.1,0-0.1c0,0,0,0-0.1-0.1c0,0-0.1,0-0.1-0.1c-0.1,0-0.1,0-0.2-0.1c-0.1,0-0.2-0.1-0.4-0.1
	c-0.4-0.1-0.7-0.2-0.9-0.4l-0.1-0.1c-0.5-0.3-0.5-0.8-0.5-1.1c0-0.3,0.1-0.5,0.2-0.7c0.1-0.3,0.4-0.4,0.6-0.5
	c0.2-0.1,0.6-0.1,0.9-0.1c0.6,0,1,0.1,1.3,0.5c0.4,0.3,0.5,0.9,0.5,1.1v0.2h-1.4v-0.2c0-0.1-0.1-0.3-0.1-0.3c0,0-0.2,0-0.3,0
	c-0.2,0-0.2,0-0.4,0.1c0,0,0,0-0.1,0c0,0,0,0,0,0.1c0,0.1,0,0.1,0,0.1c0,0,0.1,0.1,0.7,0.2c0.4,0.1,0.7,0.2,0.9,0.3
	c0.2,0.1,0.4,0.3,0.6,0.4l0,0.1c0.1,0.2,0.2,0.4,0.2,0.8c0,0.2-0.1,0.6-0.2,0.8c-0.1,0.3-0.4,0.5-0.7,0.6c-0.2,0.1-0.6,0.2-1,0.2
	c-0.7,0-1.1-0.2-1.4-0.5l-0.1-0.1C16.5,17,16.5,17,16.5,16.9z M9.1,17.4l0.4-1h1.3l0.4,1h1.4l-1.9-4.7H9.6l-1.9,4.7H9.1z M9.9,15.3
	l0.2-0.6l0.2,0.6H9.9z M12.6,16.9c-0.1-0.3-0.2-0.6-0.2-1.1v-0.2l1.2-0.2l0.1,0.2c0.1,0.3,0.2,0.4,0.2,0.5c0.2,0.1,0.3,0.1,0.4,0.1
	c0.3,0,0.4-0.1,0.4-0.1c0.1-0.1,0.1-0.2,0.1-0.2c0-0.1,0-0.1,0-0.1c0,0,0,0-0.1-0.1c0,0-0.1,0-0.1-0.1c-0.1,0-0.1,0-0.2-0.1
	c-0.1,0-0.2-0.1-0.4-0.1c-0.4-0.1-0.7-0.2-0.9-0.4l-0.1-0.1c-0.5-0.3-0.5-0.8-0.5-1.1c0-0.3,0.1-0.5,0.2-0.7
	c0.1-0.3,0.4-0.4,0.6-0.5c0.2-0.1,0.6-0.1,0.9-0.1c0.6,0,1,0.1,1.3,0.5c0.4,0.3,0.5,0.9,0.5,1.1v0.2h-1.4v-0.2
	c0-0.1-0.1-0.3-0.1-0.3c0,0-0.2,0-0.3,0c-0.2,0-0.2,0-0.4,0.1c0,0,0,0-0.1,0c0,0,0,0,0,0.1c0,0.1,0,0.1,0,0.1c0,0,0.1,0.1,0.7,0.2
	c0.4,0.1,0.7,0.2,0.9,0.3c0.2,0.1,0.4,0.3,0.6,0.4l0,0.1c0.1,0.2,0.2,0.4,0.2,0.8c0,0.2-0.1,0.6-0.2,0.8c-0.1,0.3-0.4,0.5-0.7,0.6
	c-0.2,0.1-0.6,0.2-1,0.2c-0.7,0-1.1-0.2-1.4-0.5l-0.1-0.1C12.6,17,12.6,17,12.6,16.9z"/>
</svg>
