<?xml version="1.0" encoding="utf-8"?>
<!-- Generator: Adobe Illustrator 21.1.0, SVG Export Plug-In . SVG Version: 6.00 Build 0)  -->
<svg version="1.1" id="Layer_1" xmlns="http://www.w3.org/2000/svg" xmlns:xlink="http://www.w3.org/1999/xlink" x="0px" y="0px"
	 viewBox="0 0 24 24" style="enable-background:new 0 0 24 24;" xml:space="preserve">
<path d="M15.3,12.6c-0.2-0.3-0.6-0.6-0.9-0.7c-0.2-0.1-0.6-0.1-1.1-0.1c-0.1,0-0.1,0.1-0.2,0.1h-2.5v6.7h1.8v-2.4h0.5
	c0.6,0,1,0,1.4-0.1l0.6-0.3l0.1,0c0.2-0.2,0.5-0.5,0.6-0.7l0.1-0.2c0.1-0.3,0.2-0.5,0.2-0.9C15.7,13.4,15.5,13,15.3,12.6z
	 M13.9,14.2c-0.1,0.1-0.2,0.2-0.4,0.3l-0.1,0c-0.1,0-0.4,0-0.8,0h-0.4v-1.2h1.1c0.2,0.1,0.3,0.2,0.4,0.2c0.1,0.1,0.1,0.2,0.1,0.4
	C13.9,14.1,13.9,14.2,13.9,14.2z M9.6,11.8v6.5H8.1v-3l-0.7,3H5.8l-0.7-3v3H3.3v-6.6h0.1c0.1,0,0.1,0.1,0.2,0.1h1.9l0.9,3.4l0.9-3.4
	H9.6z M21.7,8.4V5.4l-5.1-5.1C16.3,0,16.1,0,15.8,0H3C2.7,0,2.3,0.3,2.3,0.7v7.8H0v13h2.3v1.9C2.3,23.7,2.7,24,3,24h18
	c0.4,0,0.7-0.3,0.7-0.7v-1.9H24v-13H21.7z M20.3,21.4v1.2H3.7v-1.2H20.3z M16.5,5V2.2L19.3,5H16.5z M15.8,6.5h4.5v2.1H3.7V1.3h11.5
	v4.5C15.2,6.1,15.5,6.5,15.8,6.5z M22.7,9.8v10.4H1.3V9.8H22.7z M18.3,18.3h1.7v-1.3h0.7v-1.6h-0.7v-3.8h-1.3l-2.8,4v1.4h2.5V18.3z
	 M17.6,15.6l0.7-1.1v1.1H17.6z"/>
</svg>
