<?xml version="1.0" encoding="utf-8"?>
<!-- Generator: Adobe Illustrator 21.1.0, SVG Export Plug-In . SVG Version: 6.00 Build 0)  -->
<svg version="1.1" id="Layer_1" xmlns="http://www.w3.org/2000/svg" xmlns:xlink="http://www.w3.org/1999/xlink" x="0px" y="0px"
	 viewBox="0 0 24 24" style="enable-background:new 0 0 24 24;" xml:space="preserve">
<path d="M4.2,16.8l-0.9-4h1.3l0.4,1.9l0.5-1.9h1.3l0.4,1.8l0.4-1.8H12V14H9.9v0.4h1.9v1.1H9.9V16H12v1.1H8.7v-3.8l-1,3.8H6.6L6,15
	l-0.6,2.2H4.2V16.8z M24,8.4v13h-2.3v1.9c0,0.4-0.3,0.7-0.7,0.7H3c-0.4,0-0.7-0.3-0.7-0.7v-1.9H0v-13h2.3V0.7C2.3,0.3,2.7,0,3,0
	h12.8c0.3,0,0.4,0,0.7,0.3l5.1,5.1v3.1H24z M3.7,21.4v1.2h16.6v-1.2H3.7z M19.3,5l-2.8-2.8V5H19.3z M15.2,5.8V1.3H3.7v7.2h16.6V6.5
	h-4.5C15.5,6.5,15.2,6.1,15.2,5.8z M1.3,9.8v10.4h21.3V9.8H1.3z M18.6,12.8l-0.4,1.8l-0.4-1.8h-1.3c0,0,0,0,0,0h-0.3v4.3h1.1v-1.2
	l0.3,1.2h1.1l0.3-1.2v1.2h1.2v-4.3H18.6z M14.8,17.1h-2.5v-4.2h2.4c0.1,0,0.2,0,0.3,0.1c0,0,0.1,0,0.1,0l0.1,0l0.1,0.1l0.3,0.3
	c0.2,0.2,0.2,0.5,0.2,0.6c0,0.2,0,0.4-0.1,0.6l0,0.1c0,0-0.1,0.1-0.1,0.1c0.1,0.1,0.2,0.1,0.2,0.2l0,0.1c0,0.1,0.1,0.1,0.1,0.1
	c0.1,0.1,0.2,0.3,0.2,0.5c0,0.2,0,0.4-0.1,0.6c-0.1,0.3-0.3,0.4-0.4,0.5c-0.1,0.1-0.2,0.1-0.4,0.2C15,17,15,17,14.8,17.1L14.8,17.1z
	 M14.5,14.1c0-0.1,0-0.1,0-0.1c0,0,0,0-0.1,0h-0.8v0.4h0.8c0,0,0,0,0.1,0C14.4,14.3,14.5,14.3,14.5,14.1
	C14.5,14.2,14.5,14.2,14.5,14.1z M14.7,15.7l-0.2-0.2c-0.1,0-0.4,0-0.6,0h-0.4V16h1c0,0,0,0,0.1,0c0,0,0.1,0,0.1-0.1c0,0,0,0,0-0.1
	C14.7,15.7,14.7,15.7,14.7,15.7z"/>
</svg>
