<?xml version="1.0" encoding="utf-8"?>
<!-- Generator: Adobe Illustrator 21.1.0, SVG Export Plug-In . SVG Version: 6.00 Build 0)  -->
<svg version="1.1" id="Layer_1" xmlns="http://www.w3.org/2000/svg" xmlns:xlink="http://www.w3.org/1999/xlink" x="0px" y="0px"
	 viewBox="0 0 24 24" style="enable-background:new 0 0 24 24;" xml:space="preserve">
<path d="M21.6,8.4V5.3l-5.2-5.2c-0.2-0.2-0.4-0.3-0.7-0.3H3c-0.3,0-0.6,0.3-0.6,0.6v7.8H0v13h2.4v1.9c0,0.3,0.3,0.6,0.6,0.6h18
	c0.3,0,0.6-0.3,0.6-0.6v-1.9H24V8.4H21.6z M20.3,21.5v1.4H3.6v-1.4H20.3z M16.6,5V2.2L19.3,5H16.6z M15.8,6.4h4.5v2H3.6V1.3h11.6
	v4.5C15.2,6.1,15.5,6.4,15.8,6.4z M22.7,9.8v10.5H1.3V9.8H22.7z M17.8,16.3c0.2-0.2,0.2-0.2,0.2-0.4c0,0,0-0.1,0-0.1l0,0
	c-0.2-0.2-0.2-0.1-0.6-0.2c-0.1,0-0.3-0.1-0.6-0.1c-0.1,0-0.2-0.1-0.4-0.1c-0.4-0.1-0.8-0.3-1.1-0.5c-0.5-0.4-0.6-0.9-0.6-1.3
	c0-0.4,0.2-0.8,0.2-0.9c0.1-0.3,0.4-0.5,0.8-0.7c0.4-0.2,0.8-0.2,1.2-0.2c0.7,0,1.4,0.2,1.7,0.6c0.3,0.3,0.7,0.7,0.7,1.4v0.2
	L17.8,14v-0.3c0-0.2-0.1-0.3-0.2-0.4c0,0-0.3-0.1-0.5-0.1c-0.3,0-0.5,0.1-0.6,0.2c-0.1,0.1-0.1,0.1-0.1,0.2c0,0,0,0,0,0h0l0.1,0.1
	c0,0,0.3,0.1,0.5,0.2c0.1,0,0.3,0.1,0.5,0.1c0.2,0.1,0.4,0.1,0.6,0.2c0.3,0.1,0.5,0.1,0.6,0.2c0.3,0.1,0.6,0.4,0.7,0.7l0,0.1
	c0.1,0.2,0.2,0.5,0.2,0.8c0,0.3-0.1,0.7-0.3,1c-0.2,0.3-0.5,0.6-0.9,0.7c-0.3,0.1-0.7,0.2-1.2,0.2c-0.7,0-1.3-0.2-1.8-0.5l-0.1-0.1
	l0-0.1c0-0.2-0.1-0.4-0.2-0.6c-0.1-0.3-0.2-0.6-0.3-0.9l0-0.3l1.5-0.1l0.1,0.2c0,0.2,0.1,0.6,0.3,0.6l0.1,0c0.1,0.1,0.4,0.2,0.6,0.2
	C17.6,16.5,17.8,16.4,17.8,16.3z M6.2,15.7h0.5c0.5,0,0.9,0,1.2-0.1c0,0,0.1,0,0.1,0c0.2,0,0.4,0.1,0.6-0.2c0.2-0.2,0.4-0.4,0.5-0.7
	l0-0.1c0.1-0.2,0.2-0.5,0.2-0.8c0-0.5-0.1-0.9-0.3-1.2c-0.2-0.3-0.5-0.6-0.9-0.7c-0.2-0.1-0.7-0.1-1.5-0.1H4.6v6.1h1.6V15.7z
	 M7.6,13.7c0,0.1,0,0.2,0,0.2C7.5,14,7.4,14,7.2,14.2c-0.1,0-0.4,0-0.7,0H6.2v-1.1h1c0.1,0.1,0.3,0.2,0.4,0.2
	C7.6,13.4,7.6,13.5,7.6,13.7z M11.4,15.9h0.5c0.5,0,0.9,0,1.3-0.1l0.6-0.3l0.1,0c0.2-0.2,0.4-0.4,0.5-0.7l0-0.1
	c0.1-0.2,0.2-0.5,0.2-0.8c0-0.5-0.1-0.9-0.3-1.2c-0.2-0.3-0.5-0.6-0.9-0.7c-0.2-0.1-0.7-0.1-1.5-0.1H9.8V18h1.6V15.9z M12.9,13.7
	c0,0.1,0,0.2,0,0.2c-0.1,0.1-0.2,0.2-0.4,0.3c-0.1,0-0.4,0-0.7,0h-0.3v-1.1h1c0.1,0.1,0.3,0.2,0.4,0.2
	C12.9,13.4,12.9,13.5,12.9,13.7z"/>
</svg>
