<?xml version="1.0" encoding="utf-8"?>
<!-- Generator: Adobe Illustrator 21.1.0, SVG Export Plug-In . SVG Version: 6.00 Build 0)  -->
<svg version="1.1" id="Layer_1" xmlns="http://www.w3.org/2000/svg" xmlns:xlink="http://www.w3.org/1999/xlink" x="0px" y="0px"
	 viewBox="0 0 24 24" style="enable-background:new 0 0 24 24;" xml:space="preserve">
<path d="M21.7,8.4V5.4l-5.1-5.1C16.3,0,16.1,0,15.8,0H3C2.7,0,2.3,0.3,2.3,0.7v7.8H0v13h2.3v1.9C2.3,23.7,2.7,24,3,24h18
	c0.4,0,0.7-0.3,0.7-0.7v-1.9H24v-13H21.7z M20.3,21.4v1.2H3.7v-1.2H20.3z M16.5,5V2.2L19.3,5H16.5z M15.8,6.5h4.5v2.1H3.7V1.3h11.5
	v4.5C15.2,6.1,15.5,6.5,15.8,6.5z M22.7,9.8v10.4H1.3V9.8H22.7z M5.1,12.9H3.3v-1.6h5.4v1.6H6.9V18H5.1V12.9z M16.3,17.9L14,11.4
	h1.9l1.3,4l1.3-4h1.8L17.9,18h-1.6L16.3,17.9z M9.5,14.7c-0.5-0.4-0.6-1-0.6-1.5c0-0.4,0.2-0.8,0.2-1c0.1-0.3,0.5-0.5,0.8-0.7
	c0.4-0.3,0.9-0.3,1.3-0.3c0.8,0,1.5,0.2,1.9,0.6c0.5,0.4,0.7,0.9,0.7,1.6v0.2l-1.8,0.1v-0.3c0-0.2-0.2-0.4-0.2-0.5
	c-0.1,0-0.3-0.1-0.6-0.1c-0.3,0-0.6,0.1-0.7,0.2c-0.1,0.1-0.1,0.1-0.1,0.2c0,0,0,0.1,0,0.1h0l0.1,0.1c0.1,0,0.3,0.1,0.6,0.2
	c0.1,0,0.3,0.1,0.5,0.2c0.2,0.1,0.4,0.1,0.6,0.2c0.3,0.1,0.6,0.2,0.7,0.2c0.4,0.1,0.6,0.4,0.8,0.8c0.1,0.3,0.2,0.7,0.2,1
	c0,0.4-0.1,0.7-0.4,1.1c-0.2,0.4-0.5,0.6-1,0.7l-0.2,0c-0.3,0.1-0.7,0.2-1.2,0.2c-0.8,0-1.5-0.2-2-0.6c-0.4-0.3-0.5-0.9-0.6-1.5
	c0-0.1,0-0.2,0-0.4l0-0.3l1.6-0.1l0.1,0.2c0.1,0.2,0.2,0.6,0.3,0.7l0.1,0.1c0.2,0.1,0.4,0.2,0.6,0.2c0.4,0,0.6-0.1,0.7-0.1
	c0.1-0.1,0.2-0.2,0.2-0.5c0-0.1,0-0.1,0-0.1c-0.2-0.2-0.2-0.1-0.6-0.2c-0.2,0-0.4-0.1-0.6-0.1c-0.1,0-0.3-0.1-0.4-0.1
	C10.1,15.2,9.7,15,9.5,14.7z"/>
</svg>
