<?xml version="1.0" encoding="utf-8"?>
<!-- Generator: Adobe Illustrator 21.1.0, SVG Export Plug-In . SVG Version: 6.00 Build 0)  -->
<svg version="1.1" id="Layer_1" xmlns="http://www.w3.org/2000/svg" xmlns:xlink="http://www.w3.org/1999/xlink" x="0px" y="0px"
	 viewBox="0 0 24 24" style="enable-background:new 0 0 24 24;" xml:space="preserve">
<path d="M21.6,8.4V5.3l-5.2-5.2c-0.2-0.2-0.4-0.3-0.7-0.3H3c-0.3,0-0.6,0.3-0.6,0.6v7.8H0v13h2.4v1.9c0,0.3,0.3,0.6,0.6,0.6h18
	c0.3,0,0.6-0.3,0.6-0.6v-1.9H24V8.4H21.6z M20.3,21.5v1.4H3.6v-1.4H20.3z M16.6,5V2.2L19.3,5H16.6z M15.8,6.4h4.5v2H3.6V1.3h11.6
	v4.5C15.2,6.1,15.5,6.4,15.8,6.4z M22.7,9.8v10.5H1.3V9.8H22.7z M9.8,17.9l-1.5-6.1H10l0.7,3l0.8-3h1.8L14,15l0.7-3.1h5.9v1.5h-2.7
	v0.9h2.4v1.5h-2.4V18h-1.6v-5.9l0,0l-1.4,5.8h-1.6l-0.9-3.5l-0.9,3.5H9.8z M6.6,16.5c0.1-0.1,0.2-0.3,0.2-0.4c0,0,0-0.1,0-0.1l0,0
	c-0.2-0.2-0.2-0.1-0.6-0.2c-0.1,0-0.3-0.1-0.6-0.1l-0.1,0c-0.2-0.1-0.3-0.1-0.4-0.2c-0.4-0.2-0.7-0.3-0.9-0.5
	c-0.5-0.4-0.6-0.9-0.6-1.3c0-0.4,0.2-0.8,0.2-0.9c0.2-0.3,0.4-0.4,0.6-0.6L4.7,12c0.4-0.2,0.8-0.2,1.2-0.2c0.7,0,1.4,0.2,1.7,0.6
	c0.4,0.4,0.7,0.9,0.7,1.3v0.2L6.7,14v-0.3c0-0.2-0.1-0.3-0.2-0.4c0,0-0.3-0.1-0.5-0.1c-0.3,0-0.5,0-0.6,0.1
	c-0.1,0.1-0.1,0.1-0.1,0.2c0,0,0,0,0,0h0l0.1,0.1c0,0,0.3,0.1,0.5,0.2C6,13.9,6.1,14,6.3,14c0.2,0.1,0.4,0.1,0.6,0.2
	c0.3,0.1,0.5,0.2,0.6,0.2c0.4,0.1,0.6,0.4,0.8,0.7c0.2,0.4,0.2,0.6,0.2,1c0,0.3-0.1,0.7-0.3,1c-0.2,0.3-0.5,0.6-0.9,0.7
	C6.9,18,6.4,18,6,18c-0.7,0-1.3-0.2-1.8-0.5c-0.4-0.3-0.7-0.8-0.8-1.5l0-0.3l1.5-0.1L5,15.8c0,0.2,0.1,0.6,0.3,0.6
	C5.9,16.8,6.6,16.6,6.6,16.5z"/>
</svg>
