<?xml version="1.0" encoding="utf-8"?>
<!-- Generator: Adobe Illustrator 21.1.0, SVG Export Plug-In . SVG Version: 6.00 Build 0)  -->
<svg version="1.1" id="Layer_1" xmlns="http://www.w3.org/2000/svg" xmlns:xlink="http://www.w3.org/1999/xlink" x="0px" y="0px"
	 viewBox="0 0 24 24" style="enable-background:new 0 0 24 24;" xml:space="preserve">
<path d="M21.6,8.4V5.3l-5.2-5.2c-0.2-0.2-0.4-0.3-0.7-0.3H3c-0.3,0-0.6,0.3-0.6,0.6v7.8H0v13h2.4v1.9c0,0.3,0.3,0.6,0.6,0.6h18
	c0.3,0,0.6-0.3,0.6-0.6v-1.9H24V8.4H21.6z M20.3,21.5v1.4H3.6v-1.4H20.3z M16.6,5V2.2L19.3,5H16.6z M15.8,6.4h4.5v2H3.6V1.3h11.6
	v4.5C15.2,6.1,15.5,6.4,15.8,6.4z M22.7,9.8v10.5H1.3V9.8H22.7z M9.1,11.6v6H7.6V15L7,17.6H5.5l-0.7-2.8v2.8H3.3v-6.1h0.2
	c0,0,0.1,0,0.2,0h1.8l0.8,3l0.8-3H9.1z M14.3,12.4c-0.2-0.3-0.5-0.6-0.9-0.7c-0.2-0.1-0.7-0.1-1.5-0.1h-0.8c0,0-0.1,0-0.2,0H9.8v6.2
	h1.6v-2.2h0.5c0.5,0,0.9,0,1.3-0.1l0.6-0.3l0.1,0c0.2-0.2,0.4-0.4,0.5-0.7l0-0.1c0.1-0.2,0.2-0.5,0.2-0.8
	C14.6,13.1,14.5,12.7,14.3,12.4z M12.9,13.7c-0.1,0.1-0.2,0.2-0.4,0.3c-0.1,0-0.4,0-0.7,0h-0.3v-1.1h1c0.1,0.1,0.3,0.2,0.4,0.2
	c0,0,0.1,0.2,0.1,0.3C12.9,13.6,12.9,13.7,12.9,13.7z M15.1,16.1c-0.2-0.5-0.3-1-0.3-1.6c0-0.7,0.1-1.2,0.4-1.7
	c0.3-0.5,0.6-0.8,1.2-1.2c0.5-0.2,0.9-0.3,1.5-0.3c0.8,0,1.4,0.1,1.8,0.4c0.5,0.4,0.8,0.8,0.9,1.3l0,0.2l-1.5,0.3L19,13.4
	c-0.1-0.3-0.2-0.4-0.4-0.6c-0.2-0.2-0.4-0.2-0.6-0.2c-0.4,0-0.7,0.1-1,0.4c-0.2,0.2-0.3,0.6-0.3,1.2c0,0.6,0.1,1,0.4,1.3
	c0.3,0.3,0.6,0.4,1,0.4c0.2,0,0.4,0,0.6-0.1c0.1,0,0.2-0.1,0.2-0.1c0.1,0,0.2-0.1,0.2-0.1v-0.3h-1.2v-0.1h-0.2v-1.2h2.9v2.6
	l-0.1,0.1c-0.2,0.2-0.6,0.4-1.2,0.6c-0.6,0.2-1,0.3-1.5,0.3c-0.7,0-1.2-0.1-1.7-0.4C15.6,17,15.3,16.6,15.1,16.1z"/>
</svg>
