<?xml version="1.0" encoding="utf-8"?>
<!-- Generator: Adobe Illustrator 21.1.0, SVG Export Plug-In . SVG Version: 6.00 Build 0)  -->
<svg version="1.1" id="Layer_1" xmlns="http://www.w3.org/2000/svg" xmlns:xlink="http://www.w3.org/1999/xlink" x="0px" y="0px"
	 viewBox="0 0 24 24" style="enable-background:new 0 0 24 24;" xml:space="preserve">
<path d="M21.7,8.4V5.4l-5.1-5.1C16.3,0,16.1,0,15.8,0H3C2.7,0,2.3,0.3,2.3,0.7v7.8H0v13h2.3v1.9C2.3,23.7,2.7,24,3,24h18
	c0.4,0,0.7-0.3,0.7-0.7v-1.9H24v-13H21.7z M20.3,21.4v1.2H3.7v-1.2H20.3z M16.5,5V2.2L19.3,5H16.5z M15.8,6.5h4.5v2.1H3.7V1.3h11.5
	v4.5C15.2,6.1,15.5,6.5,15.8,6.5z M22.7,9.8v10.4H1.3V9.8H22.7z M9.7,17.8C9.5,17.5,9,16.9,9,16.1v-0.2l1.6-0.1l0.1,0.2
	c0.1,0.2,0.2,0.6,0.3,0.7l0.1,0c0.2,0.2,0.4,0.2,0.7,0.2c0.4,0,0.6-0.1,0.7-0.1c0.2-0.2,0.2-0.3,0.2-0.5c0-0.1,0-0.1,0-0.1
	c-0.2-0.2-0.2-0.1-0.6-0.2c-0.2,0-0.4-0.1-0.6-0.1c-0.2,0-0.3-0.1-0.4-0.1c-0.5-0.2-0.9-0.3-1.1-0.6c-0.5-0.4-0.6-1-0.6-1.5
	c0-0.4,0.2-0.8,0.2-1c0.1-0.3,0.5-0.5,0.8-0.7c0.4-0.3,0.9-0.3,1.3-0.3c0.8,0,1.5,0.2,1.9,0.6c0.5,0.4,0.7,0.9,0.7,1.6V14l-1.8,0.1
	v-0.3c0-0.2-0.1-0.3-0.2-0.4c-0.2-0.1-0.4-0.2-0.6-0.2c-0.3,0-0.6,0.1-0.7,0.2c-0.1,0.1-0.1,0.1-0.1,0.2c0,0,0,0.1,0,0.1h0l0.1,0.1
	c0.1,0,0.3,0.1,0.6,0.2c0.2,0,0.3,0.1,0.5,0.2c0.2,0.1,0.4,0.1,0.6,0.2c0.3,0.1,0.5,0.2,0.7,0.2c0.4,0.1,0.6,0.4,0.8,0.8
	c0,0.1,0.1,0.1,0.1,0.2c0.1,0.1,0.2,0.3,0.2,0.6c0,0.4-0.1,0.7-0.4,1.1c-0.2,0.4-0.5,0.6-1,0.7c-0.4,0.1-0.9,0.2-1.3,0.2
	C10.9,18.3,10.2,18.1,9.7,17.8z M18,16.7c0.2-0.2,0.2-0.2,0.2-0.5c0-0.1,0-0.1,0-0.1c-0.2-0.2-0.2-0.1-0.7-0.2
	c-0.2,0-0.4-0.1-0.6-0.1c-0.1,0-0.3-0.1-0.4-0.1c-0.5-0.2-0.9-0.3-1.1-0.6c-0.5-0.4-0.6-1-0.6-1.5c0-0.4,0.2-0.8,0.2-1
	c0.1-0.3,0.5-0.5,0.8-0.7c0.4-0.3,0.9-0.3,1.3-0.3c0.8,0,1.5,0.2,1.9,0.6c0.3,0.3,0.7,0.8,0.7,1.6v0.3l-1.7-0.2v-0.2
	c0-0.2-0.1-0.3-0.2-0.4c-0.2-0.1-0.4-0.2-0.6-0.2c-0.3,0-0.6,0.1-0.7,0.2c-0.1,0.1-0.1,0.1-0.1,0.2c0,0,0,0.1,0,0.1h0l0.1,0.1
	c0.1,0,0.3,0.1,0.6,0.2c0.1,0,0.3,0.1,0.5,0.2c0.2,0.1,0.5,0.1,0.6,0.2c0.3,0.1,0.5,0.2,0.7,0.2c0.4,0.1,0.6,0.4,0.8,0.8
	c0.1,0.3,0.2,0.7,0.2,1c0,0.4-0.1,0.7-0.4,1.1c-0.2,0.4-0.5,0.6-1,0.7c-0.4,0.1-0.9,0.2-1.3,0.2c-0.8,0-1.5-0.2-2-0.6
	c-0.4-0.4-0.6-0.9-0.7-1.7l0-0.3l1.6-0.2l0.1,0.2c0.1,0.2,0.2,0.6,0.3,0.7l0.1,0c0.2,0.2,0.4,0.2,0.7,0.2C17.7,16.9,18,16.8,18,16.7
	z M3.6,17.6c-0.6-0.5-0.8-1.3-0.8-2.4c0-1.2,0.3-2,0.8-2.5c0.6-0.6,1.3-0.9,2.2-0.9c0.8,0,1.5,0.2,2,0.7c0.3,0.2,0.6,0.7,0.7,1.3
	l0,0.2l-1.6,0.4l-0.1-0.2c-0.1-0.3-0.2-0.5-0.4-0.7c-0.2-0.2-0.4-0.2-0.7-0.2c-0.3,0-0.7,0.2-0.9,0.4c-0.3,0.3-0.4,0.7-0.4,1.5
	s0.1,1.2,0.4,1.4c0.3,0.3,0.6,0.5,0.9,0.5c0.3,0,0.5-0.1,0.7-0.2c0.1-0.2,0.4-0.6,0.5-1.1L7,15.5l1.7,0.6l-0.1,0.2
	c-0.2,0.7-0.6,1.3-1,1.6c-0.5,0.4-1.1,0.6-1.8,0.6C4.9,18.6,4.2,18.2,3.6,17.6z"/>
</svg>
