<?xml version="1.0" encoding="UTF-8"?>
<svg xmlns="http://www.w3.org/2000/svg" xmlns:xlink="http://www.w3.org/1999/xlink" width="24pt" height="24pt" viewBox="0 0 24 24" version="1.1">
<g id="surface1">
<path style=" stroke:none;fill-rule:nonzero;fill:rgb(0%,0%,0%);fill-opacity:1;" d="M 21.601562 8.617188 L 21.601562 5.453125 C 21.601562 5.453125 21.601562 5.34375 21.601562 5.34375 L 16.472656 0.21875 C 16.253906 0 16.144531 0 15.925781 0 L 2.835938 0 C 2.617188 0 2.398438 0.21875 2.398438 0.4375 L 2.398438 8.617188 L 0 8.617188 L 0 21.382812 L 2.398438 21.382812 L 2.398438 23.5625 C 2.398438 23.78125 2.617188 24 2.835938 24 L 21.164062 24 C 21.382812 24 21.601562 23.78125 21.601562 23.5625 L 21.601562 21.382812 L 24 21.382812 L 24 8.617188 Z M 16.363281 1.417969 L 20.074219 5.128906 L 16.363281 5.128906 Z M 3.273438 0.871094 L 15.492188 0.871094 L 15.492188 5.671875 C 15.492188 5.890625 15.710938 6.109375 15.925781 6.109375 L 20.726562 6.109375 L 20.726562 8.726562 L 3.273438 8.726562 Z M 20.726562 23.128906 L 3.273438 23.128906 L 3.273438 21.382812 L 20.726562 21.382812 Z M 23.128906 20.617188 L 0.871094 20.617188 L 0.871094 9.492188 L 23.128906 9.492188 Z M 3.382812 18.21875 L 3.382812 12 L 5.238281 12 L 6.328125 16.253906 L 7.417969 12 L 9.273438 12 L 9.273438 18.21875 L 8.289062 18.21875 L 8.289062 13.308594 L 7.089844 18.21875 L 5.890625 18.21875 L 4.691406 13.308594 L 4.691406 18.21875 Z M 10.691406 18.21875 L 10.691406 12 L 12.761719 12 C 13.527344 12 14.074219 12 14.289062 12.109375 C 14.617188 12.21875 14.945312 12.4375 15.164062 12.761719 C 15.382812 13.089844 15.492188 13.527344 15.492188 13.964844 C 15.492188 14.398438 15.382812 14.617188 15.273438 14.945312 C 15.164062 15.164062 14.945312 15.382812 14.726562 15.601562 C 14.507812 15.710938 14.289062 15.816406 14.074219 15.925781 C 13.746094 16.035156 13.308594 16.035156 12.761719 16.035156 L 12 16.035156 L 12 18.4375 L 10.691406 18.4375 Z M 12 13.089844 L 12 14.835938 L 12.65625 14.835938 C 13.199219 14.835938 13.527344 14.835938 13.636719 14.726562 C 13.855469 14.617188 13.964844 14.507812 14.074219 14.398438 C 14.183594 14.289062 14.183594 14.074219 14.183594 13.964844 C 14.183594 13.746094 14.074219 13.527344 13.964844 13.417969 C 13.855469 13.308594 13.636719 13.199219 13.417969 13.089844 C 13.308594 13.089844 12.980469 13.089844 12.546875 13.089844 Z M 18.65625 18.21875 L 18.65625 16.910156 L 16.144531 16.910156 L 16.144531 15.816406 L 18.871094 11.890625 L 19.855469 11.890625 L 19.855469 15.816406 L 20.617188 15.816406 L 20.617188 16.910156 L 19.855469 16.910156 L 19.855469 18.21875 Z M 18.65625 15.925781 L 18.65625 13.746094 L 17.238281 15.925781 Z M 18.65625 15.925781 "/>
</g>
</svg>
