<?xml version="1.0" encoding="utf-8"?>
<!-- Generator: Adobe Illustrator 21.1.0, SVG Export Plug-In . SVG Version: 6.00 Build 0)  -->
<svg version="1.1" id="Layer_1" xmlns="http://www.w3.org/2000/svg" xmlns:xlink="http://www.w3.org/1999/xlink" x="0px" y="0px"
	 viewBox="0 0 24 24" style="enable-background:new 0 0 24 24;" xml:space="preserve">
<path d="M21.6,8.6V5.3l-5.2-5.2c-0.2-0.2-0.3-0.2-0.5-0.2H2.8c-0.2,0-0.4,0.2-0.4,0.4v8.2H0v12.8h2.4v2.2c0,0.2,0.2,0.4,0.4,0.4
	h18.4c0.2,0,0.4-0.2,0.4-0.4v-2.2H24V8.6H21.6z M16.4,1.4l3.7,3.7h-3.7V1.4z M3.2,0.8h12.3v4.8c0,0.2,0.2,0.4,0.4,0.4h4.8v2.5H3.2
	V0.8z M20.8,23.3H3.2v-1.9h17.5V23.3z M23.2,20.7H0.8V9.5h22.4V20.7z M4.4,18v-5.7h1.7l1,3.9l1-3.9h1.7V18H8.9v-4.5L7.7,18H6.6
	l-1.1-4.5V18H4.4z M11.1,18v-5.7h1.9c0.7,0,1.2,0,1.4,0.1c0.3,0.1,0.6,0.3,0.8,0.6c0.2,0.3,0.3,0.7,0.3,1.1c0,0.4-0.1,0.6-0.2,0.9
	c-0.1,0.2-0.3,0.4-0.5,0.6c-0.2,0.1-0.4,0.2-0.6,0.3c-0.3,0.1-0.7,0.1-1.2,0.1h-0.8V18H11.1z M12.2,13.2v1.6h0.6
	c0.5,0,0.8,0,0.9-0.1c0.2-0.1,0.3-0.2,0.4-0.3c0.1-0.1,0.1-0.3,0.1-0.4c0-0.2-0.1-0.4-0.2-0.5c-0.1-0.1-0.3-0.2-0.5-0.3
	c-0.1,0-0.4,0-0.8,0H12.2z M16.1,16.5l1.1-0.1c0,0.3,0.1,0.5,0.3,0.6s0.3,0.2,0.5,0.2c0.2,0,0.4-0.1,0.6-0.3s0.2-0.4,0.2-0.7
	c0-0.3-0.1-0.5-0.2-0.7s-0.3-0.2-0.5-0.2c-0.1,0-0.3,0-0.5,0.1l0.1-0.9c0.3,0,0.5-0.1,0.7-0.2s0.2-0.3,0.2-0.5
	c0-0.2-0.1-0.3-0.2-0.5s-0.3-0.2-0.5-0.2c-0.2,0-0.3,0.1-0.5,0.2s-0.2,0.3-0.2,0.6l-1-0.2c0.1-0.3,0.2-0.6,0.3-0.8s0.3-0.4,0.6-0.5
	s0.5-0.2,0.9-0.2c0.5,0,1,0.2,1.3,0.5c0.3,0.3,0.4,0.6,0.4,1c0,0.5-0.3,0.9-0.8,1.2c0.3,0.1,0.6,0.2,0.8,0.5s0.3,0.5,0.3,0.9
	c0,0.5-0.2,0.9-0.6,1.3s-0.8,0.5-1.4,0.5c-0.5,0-0.9-0.1-1.3-0.4S16.2,17,16.1,16.5z"/>
</svg>
