<?xml version="1.0" encoding="utf-8"?>
<!-- Generator: Adobe Illustrator 21.1.0, SVG Export Plug-In . SVG Version: 6.00 Build 0)  -->
<svg version="1.1" id="Layer_1" xmlns="http://www.w3.org/2000/svg" xmlns:xlink="http://www.w3.org/1999/xlink" x="0px" y="0px"
	 viewBox="0 0 24 24" style="enable-background:new 0 0 24 24;" xml:space="preserve">
<path d="M10.7,17.9l-2.1-6.1h1.8l1.2,3.6l1.2-3.6h1.7l-2.2,6.1H10.7z M24,8.4v12.9h-2.4v1.9c0,0.3-0.3,0.6-0.6,0.6H3
	c-0.3,0-0.6-0.3-0.6-0.6v-1.9H0v-13h2.4V0.5c0-0.3,0.3-0.6,0.6-0.6h12.8c0.2,0,0.4,0,0.7,0.3l5.2,5.2v3.1H24z M3.6,21.5v1.4h16.7
	v-1.4H3.6z M19.3,5l-2.8-2.8V5H19.3z M15.2,5.7V1.3H3.6v7.1h16.7v-2h-4.5C15.5,6.4,15.2,6.1,15.2,5.7z M1.3,9.8v10.5h21.5V9.8H1.3z
	 M14.6,16.4c0.2,0.6,0.6,0.9,1.1,1.2c0.5,0.3,1,0.4,1.7,0.4c0.5,0,0.9-0.1,1.5-0.3c0.6-0.2,1-0.4,1.2-0.6l0.1-0.1v-2.6h-2.9v1.2h0.2
	v0.1h1.2v0.3c-0.1,0-0.2,0.1-0.2,0.1c-0.1,0-0.2,0.1-0.2,0.1c-0.1,0.1-0.4,0.1-0.6,0.1c-0.4,0-0.7-0.1-1-0.4
	c-0.3-0.3-0.4-0.7-0.4-1.3c0-0.6,0.1-1,0.3-1.2c0.3-0.3,0.6-0.4,1-0.4c0.3,0,0.5,0,0.6,0.2c0.2,0.2,0.3,0.3,0.4,0.6l0.1,0.2l1.5-0.3
	l0-0.2c-0.1-0.5-0.4-1-0.9-1.3c-0.4-0.3-1-0.4-1.8-0.4c-0.6,0-1,0.1-1.5,0.3c-0.4,0.3-0.9,0.6-1.2,1.2c-0.3,0.5-0.4,1-0.4,1.7
	C14.3,15.4,14.4,15.9,14.6,16.4z M6.3,16.7c-0.2,0-0.5-0.1-0.6-0.2l-0.1,0c-0.1-0.1-0.2-0.5-0.3-0.6l-0.1-0.2l-1.6,0.1l0,0.3
	c0.1,0.7,0.3,1.2,0.7,1.5C4.9,17.8,5.5,18,6.2,18c0.4,0,0.8-0.1,1.2-0.2c0.5-0.1,0.7-0.4,0.9-0.7c0.2-0.3,0.3-0.7,0.3-1
	c0-0.3-0.1-0.7-0.2-1c-0.1-0.4-0.4-0.6-0.7-0.7c-0.1-0.1-0.3-0.1-0.6-0.2C7,14.2,6.8,14.1,6.6,14c-0.2-0.1-0.3-0.1-0.5-0.1
	c-0.2-0.1-0.5-0.2-0.5-0.2l-0.1-0.1h0c0,0,0,0,0,0c0-0.1,0-0.1,0.1-0.2c0.1-0.1,0.4-0.2,0.6-0.2c0.2,0,0.4,0.1,0.5,0.2
	C6.8,13.5,7,13.7,7,13.9v0.3L8.6,14v-0.2c0-0.7-0.4-1.2-0.7-1.4c-0.4-0.4-1-0.6-1.7-0.6c-0.4,0-1,0-1.3,0.2
	c-0.3,0.2-0.6,0.4-0.8,0.7c-0.1,0.1-0.2,0.5-0.2,0.9c0,0.6,0.3,0.9,0.6,1.4c0.2,0.3,0.6,0.4,1.1,0.6c0.1,0,0.2,0.1,0.4,0.1
	c0.2,0,0.4,0.1,0.6,0.1c0.4,0.1,0.4,0,0.6,0.2c0,0,0,0,0,0.1c0,0.2,0,0.2-0.2,0.4C6.9,16.6,6.7,16.7,6.3,16.7z"/>
</svg>
