<?xml version="1.0" encoding="utf-8"?>
<!-- Generator: Adobe Illustrator 21.1.0, SVG Export Plug-In . SVG Version: 6.00 Build 0)  -->
<svg version="1.1" id="Layer_1" xmlns="http://www.w3.org/2000/svg" xmlns:xlink="http://www.w3.org/1999/xlink" x="0px" y="0px"
	 viewBox="0 0 24 24" style="enable-background:new 0 0 24 24;" xml:space="preserve">
<path d="M21.6,8.4V5.3l-5.2-5.2c-0.2-0.2-0.4-0.3-0.7-0.3H3c-0.3,0-0.6,0.3-0.6,0.6v7.8H0v13h2.4v1.9c0,0.3,0.3,0.6,0.6,0.6h18
	c0.3,0,0.6-0.3,0.6-0.6v-1.9H24V8.4H21.6z M20.3,21.5v1.4H3.6v-1.4H20.3z M16.6,5V2.2L19.3,5H16.6z M15.8,6.4h4.5v2H3.6V1.3h11.6
	v4.5C15.2,6.1,15.5,6.4,15.8,6.4z M22.7,9.8v10.5H1.3V9.8H22.7z M18.2,15.7c0.1-0.1,0.1-0.2,0.1-0.2c0-0.1,0-0.1,0-0.1
	c0,0,0,0-0.1-0.1c0,0-0.1,0-0.1-0.1c-0.1,0-0.1,0-0.2-0.1c-0.1,0-0.2-0.1-0.4-0.1c-0.4-0.1-0.7-0.2-0.9-0.4l-0.1-0.1
	c-0.5-0.3-0.5-0.8-0.5-1.1c0-0.3,0.1-0.5,0.2-0.7c0.1-0.3,0.4-0.4,0.6-0.5c0.3-0.1,0.6-0.1,0.9-0.1c0.6,0,1,0.1,1.3,0.5
	c0.4,0.3,0.5,0.9,0.5,1.1V14H18v-0.2c0-0.1-0.1-0.3-0.1-0.3c0,0-0.2,0-0.3,0c-0.2,0-0.2,0-0.4,0.1l-0.1,0c0,0,0,0,0,0.1
	c0,0.1,0,0.1,0,0.1c0,0,0.1,0.1,0.7,0.2c0.4,0.1,0.7,0.2,0.9,0.3c0.2,0.1,0.4,0.3,0.6,0.4l0,0.1c0.1,0.2,0.2,0.4,0.2,0.8
	c0,0.2-0.1,0.6-0.2,0.8c-0.1,0.3-0.4,0.5-0.7,0.6c-0.3,0.1-0.3,0.1-0.8,0.1c-0.7,0-1.1-0.2-1.4-0.5c-0.3-0.3-0.5-0.7-0.6-1.2
	l-0.1-0.3l1.2-0.2l0.1,0.2c0.1,0.3,0.2,0.4,0.2,0.5c0.2,0.1,0.3,0.1,0.4,0.1C18.1,15.9,18.2,15.8,18.2,15.7z M14.3,15.7
	c0.1-0.1,0.1-0.2,0.1-0.2c0-0.1,0-0.1,0-0.1c0,0,0,0-0.1-0.1c0,0-0.1,0-0.1-0.1c-0.1,0-0.1,0-0.2-0.1c-0.1,0-0.2-0.1-0.4-0.1
	c-0.4-0.1-0.7-0.2-0.9-0.4l-0.1-0.1C12,14.4,12,13.9,12,13.6c0-0.3,0.1-0.5,0.2-0.7c0.1-0.3,0.4-0.4,0.6-0.5
	c0.3-0.1,0.6-0.1,0.9-0.1c0.6,0,1,0.1,1.3,0.5c0.4,0.3,0.5,0.9,0.5,1.1V14h-1.4v-0.2c0-0.1-0.1-0.3-0.1-0.3c0,0-0.2,0-0.3,0
	c-0.2,0-0.2,0-0.4,0.1l-0.1,0c0,0,0,0,0,0.1c0,0.1,0,0.1,0,0.1c0,0,0.1,0.1,0.7,0.2c0.4,0.1,0.7,0.2,0.9,0.3
	c0.2,0.1,0.4,0.3,0.6,0.4l0,0.1c0.1,0.2,0.2,0.4,0.2,0.8c0,0.2-0.1,0.6-0.2,0.8c-0.1,0.3-0.4,0.5-0.7,0.6c-0.3,0.1-0.3,0.1-0.8,0.1
	c-0.7,0-1.1-0.2-1.4-0.5c-0.3-0.3-0.5-0.7-0.6-1.2l-0.1-0.3l1.2-0.2l0.1,0.2c0.1,0.3,0.2,0.4,0.2,0.5c0.2,0.1,0.3,0.1,0.4,0.1
	C14.1,15.9,14.3,15.8,14.3,15.7z M4.9,16.8H4.7v-4.5h1.4v3.4h2.2v-3.4h3.6v1.2H9.6V14h2.2v1.2H9.6v0.7H12V17H8.2v-0.1H4.9V16.8z"/>
</svg>
