<?xml version="1.0" encoding="utf-8"?>
<!-- Generator: Adobe Illustrator 21.1.0, SVG Export Plug-In . SVG Version: 6.00 Build 0)  -->
<svg version="1.1" id="Layer_1" xmlns="http://www.w3.org/2000/svg" xmlns:xlink="http://www.w3.org/1999/xlink" x="0px" y="0px"
	 viewBox="0 0 24 24" style="enable-background:new 0 0 24 24;" xml:space="preserve">
<path d="M21.6,8.6V5.3l-5.2-5.2c-0.2-0.2-0.3-0.2-0.5-0.2H2.8c-0.2,0-0.4,0.2-0.4,0.4v8.2H0v12.8h2.4v2.2c0,0.2,0.2,0.4,0.4,0.4
	h18.4c0.2,0,0.4-0.2,0.4-0.4v-2.2H24V8.6H21.6z M16.4,1.4l3.7,3.7h-3.7V1.4z M3.2,0.8h12.3v4.8c0,0.2,0.2,0.4,0.4,0.4h4.8v2.5H3.2
	V0.8z M20.8,23.3H3.2v-1.9h17.5V23.3z M23.2,20.7H0.8V9.5h22.4V20.7z M4.9,17.9l-1.4-5.7h1.2l0.9,3.9l1-3.9H8l1,4l0.9-4H11l-1.4,5.7
	H8.4l-1.1-4.3l-1.1,4.3H4.9z M16.3,17.9h-1.3l-0.5-1.3h-2.3l-0.5,1.3h-1.2l2.2-5.7H14L16.3,17.9z M14.2,15.7l-0.8-2.1l-0.8,2.1H14.2
	z M17.8,17.9l-2-5.7H17l1.4,4.2l1.4-4.2h1.2L19,17.9H17.8z"/>
</svg>
