<?xml version="1.0" encoding="utf-8"?>
<!-- Generator: Adobe Illustrator 21.1.0, SVG Export Plug-In . SVG Version: 6.00 Build 0)  -->
<svg version="1.1" id="Layer_1" xmlns="http://www.w3.org/2000/svg" xmlns:xlink="http://www.w3.org/1999/xlink" x="0px" y="0px"
	 viewBox="0 0 24 24" style="enable-background:new 0 0 24 24;" xml:space="preserve">
<path d="M8.2,15.5c0.1,0,0.2,0,0.3,0.1c0.1,0,0.1,0,0.2,0c0,0,0.1,0.1,0.1,0.1c0,0,0.2,0.2,0.6,0.8l0.9,1.3h2.8l0.5-1.3h1.9l0.5,1.3
	h1.8l-2.6-6.1h-1.5l-2,5.3l-0.4-0.7l-0.2-0.3c-0.2-0.2-0.3-0.4-0.5-0.6c0-0.1-0.1-0.1-0.2-0.2c0.3-0.1,0.5-0.3,0.6-0.4
	c0.3-0.3,0.5-0.7,0.5-1.3c0-0.3,0-0.8-0.3-1.1c-0.2-0.2-0.5-0.4-0.7-0.5c-0.3-0.1-0.8-0.2-1.4-0.2H6.6v6.1h1.7V15.5z M9.7,14.1
	c-0.1,0-0.4,0-0.8,0H8.2v-1h1.4c0,0,0,0,0.1,0c0.1,0,0.1,0.1,0.2,0.1c0,0.1,0.1,0.1,0.1,0.2c0.1,0.1,0.1,0.2,0.1,0.2
	c0,0.1,0,0.2,0,0.2c0,0,0,0-0.1,0.1C9.8,14,9.7,14,9.7,14.1z M14.3,15.1l0.4-1.1l0.4,1.1H14.3z M21.6,8.4V5.3l-5.2-5.2
	c-0.2-0.2-0.4-0.3-0.7-0.3H3c-0.3,0-0.6,0.3-0.6,0.6v7.8H0v13h2.4v1.9c0,0.3,0.3,0.6,0.6,0.6h18c0.3,0,0.6-0.3,0.6-0.6v-1.9H24V8.4
	H21.6z M20.3,21.5v1.4H3.6v-1.4H20.3z M16.6,5V2.2L19.3,5H16.6z M15.8,6.4h4.5v2H3.6V1.3h11.6v4.5C15.2,6.1,15.5,6.4,15.8,6.4z
	 M22.7,9.8v10.5H1.3V9.8H22.7z"/>
</svg>
