<?xml version="1.0" encoding="utf-8"?>
<!-- Generator: Adobe Illustrator 21.1.0, SVG Export Plug-In . SVG Version: 6.00 Build 0)  -->
<svg version="1.1" id="Layer_1" xmlns="http://www.w3.org/2000/svg" xmlns:xlink="http://www.w3.org/1999/xlink" x="0px" y="0px"
	 viewBox="0 0 24 24" style="enable-background:new 0 0 24 24;" xml:space="preserve">
<path d="M21.6,8.6V5.3l-5.2-5.2c-0.2-0.2-0.3-0.2-0.5-0.2H2.8c-0.2,0-0.4,0.2-0.4,0.4v8.2H0v12.8h2.4v2.2c0,0.2,0.2,0.4,0.4,0.4
	h18.4c0.2,0,0.4-0.2,0.4-0.4v-2.2H24V8.6H21.6z M16.4,1.4l3.7,3.7h-3.7V1.4z M3.2,0.8h12.3v4.8c0,0.2,0.2,0.4,0.4,0.4h4.8v2.5H3.2
	V0.8z M20.8,23.3H3.2v-1.9h17.5V23.3z M23.2,20.7H0.8V9.5h22.4V20.7z M3.5,16l1.1-0.1c0.1,0.4,0.2,0.7,0.4,0.8
	C5.3,16.9,5.6,17,5.9,17c0.4,0,0.7-0.1,0.8-0.2C6.9,16.6,7,16.4,7,16.2c0-0.1,0-0.3-0.1-0.3c-0.1-0.1-0.2-0.2-0.4-0.2
	c-0.1,0-0.4-0.1-0.9-0.2C5,15.2,4.5,15,4.3,14.8c-0.4-0.3-0.5-0.7-0.5-1.2c0-0.3,0.1-0.6,0.2-0.8c0.2-0.3,0.4-0.4,0.7-0.6
	S5.4,12,5.8,12c0.7,0,1.3,0.2,1.6,0.5S8,13.2,8,13.7l-1.2,0.1c0-0.3-0.2-0.5-0.3-0.6S6.1,13,5.8,13C5.5,13,5.2,13,5,13.2
	c-0.1,0.1-0.2,0.2-0.2,0.4c0,0.1,0.1,0.3,0.2,0.3c0.1,0.1,0.5,0.2,1.1,0.4s1,0.3,1.2,0.4C7.6,14.8,7.8,15,8,15.3s0.2,0.5,0.2,0.9
	c0,0.3-0.1,0.6-0.3,0.9c-0.2,0.3-0.4,0.5-0.8,0.6c-0.3,0.1-0.7,0.2-1.2,0.2c-0.7,0-1.3-0.2-1.7-0.5C3.8,17.1,3.6,16.6,3.5,16z
	 M10,17.8l-1.4-5.7h1.2l0.9,3.9l1-3.9h1.4l1,4l0.9-4h1.2l-1.4,5.7h-1.2l-1.1-4.3l-1.1,4.3H10z M16.7,17.8v-5.7h3.9v1h-2.8v1.4h2.4v1
	h-2.4v2.4H16.7z"/>
</svg>
