<?xml version="1.0" encoding="utf-8"?>
<!-- Generator: Adobe Illustrator 21.1.0, SVG Export Plug-In . SVG Version: 6.00 Build 0)  -->
<svg version="1.1" id="Layer_1" xmlns="http://www.w3.org/2000/svg" xmlns:xlink="http://www.w3.org/1999/xlink" x="0px" y="0px"
	 viewBox="0 0 24 24" style="enable-background:new 0 0 24 24;" xml:space="preserve">
<path d="M6.3,16.6C6.1,16,6,15.4,6,14.9c0-0.7,0.1-1.3,0.5-1.8c0.2-0.6,0.8-1,1.3-1.3c0.5-0.3,1-0.4,1.6-0.4c0.9,0,1.5,0.2,2,0.5
	c0.5,0.4,0.8,0.9,0.9,1.4l0,0.2l-1.6,0.3l-0.1-0.2c-0.1-0.3-0.2-0.5-0.4-0.6c-0.2-0.2-0.4-0.2-0.7-0.2c-0.4,0-0.8,0.2-1.1,0.5
	C8.1,13.6,8,14,8,14.7c0,0.6,0.2,1.1,0.5,1.4c0.3,0.3,0.7,0.5,1.1,0.5c0.2,0,0.5,0,0.6-0.1c0.1,0,0.2-0.1,0.3-0.1
	c0.1,0,0.2-0.1,0.3-0.1v-0.4H9.3v-0.1H9.1v-1.3h3.2v2.8l-0.1,0.1c-0.2,0.2-0.6,0.4-1.3,0.7c-0.6,0.2-1.1,0.3-1.6,0.3
	c-0.7,0-1.3-0.1-1.8-0.5C6.9,17.5,6.5,17.1,6.3,16.6z M14.2,18.2H16v-5.1h1.8v-1.6h-5.4v1.6h1.8V18.2z M24,8.4v13h-2.3v1.9
	c0,0.4-0.3,0.7-0.7,0.7H3c-0.4,0-0.7-0.3-0.7-0.7v-1.9H0v-13h2.3V0.7C2.3,0.3,2.7,0,3,0h12.8c0.3,0,0.4,0,0.7,0.3l5.1,5.1v3.1H24z
	 M3.7,21.4v1.2h16.6v-1.2H3.7z M19.3,5l-2.8-2.8V5H19.3z M15.2,5.8V1.3H3.7v7.2h16.6V6.5h-4.5C15.5,6.5,15.2,6.1,15.2,5.8z M1.3,9.8
	v10.4h21.3V9.8H1.3z"/>
</svg>
