<?xml version="1.0" encoding="utf-8"?>
<!-- Generator: Adobe Illustrator 21.1.0, SVG Export Plug-In . SVG Version: 6.00 Build 0)  -->
<svg version="1.1" id="Layer_1" xmlns="http://www.w3.org/2000/svg" xmlns:xlink="http://www.w3.org/1999/xlink" x="0px" y="0px"
	 viewBox="0 0 24 24" style="enable-background:new 0 0 24 24;" xml:space="preserve">
<path d="M21.6,8.4V5.3l-5.2-5.2c-0.2-0.2-0.4-0.3-0.7-0.3H3c-0.3,0-0.6,0.3-0.6,0.6v7.8H0v13h2.4v1.9c0,0.3,0.3,0.6,0.6,0.6h18
	c0.3,0,0.6-0.3,0.6-0.6v-1.9H24V8.4H21.6z M20.3,21.5v1.4H3.6v-1.4H20.3z M16.6,5V2.2L19.3,5H16.6z M15.8,6.4h4.5v2H3.6V1.3h11.6
	v4.5C15.2,6.1,15.5,6.4,15.8,6.4z M22.7,9.8v10.5H1.3V9.8H22.7z M15.5,16.3c-0.2-0.5-0.3-1-0.3-1.6c0-0.7,0.1-1.2,0.4-1.7
	c0.2-0.6,0.7-0.9,1.2-1.2c0.5-0.2,0.9-0.3,1.5-0.3c0.8,0,1.4,0.1,1.8,0.4c0.5,0.4,0.8,0.8,0.9,1.3l0,0.2l-1.5,0.3l-0.1-0.2
	c-0.1-0.3-0.2-0.4-0.4-0.6c-0.2-0.2-0.4-0.2-0.6-0.2c-0.4,0-0.7,0.1-1,0.4C17.1,13.6,17,14,17,14.5c0,0.6,0.1,1,0.4,1.3
	c0.3,0.3,0.6,0.4,1,0.4c0.2,0,0.4,0,0.6-0.1c0.1,0,0.1-0.1,0.2-0.1c0.1,0,0.2-0.1,0.2-0.1v-0.3h-1.2v-0.1H18v-1.2H21v2.6L20.9,17
	c-0.2,0.2-0.6,0.4-1.2,0.6c-0.6,0.2-1,0.3-1.5,0.3c-0.7,0-1.2-0.1-1.7-0.4C16.1,17.2,15.7,16.9,15.5,16.3z M5.9,17.9
	c0.8,0,1.6-0.3,2.1-0.9c0.6-0.7,0.8-1.4,0.8-2.3c0-0.9-0.3-1.8-0.9-2.3c-0.6-0.6-1.3-0.9-2.1-0.9c-0.4,0-0.8,0-1.3,0.2
	c-0.2,0.1-0.5,0.3-0.7,0.5c-0.2,0.2-0.4,0.6-0.5,0.8c-0.2,0.4-0.3,1-0.3,1.6c0,1.1,0.2,1.8,0.8,2.3C4.4,17.7,5.1,17.9,5.9,17.9z
	 M4.7,14.7c0-0.7,0.1-1.1,0.3-1.3C5.3,13.2,5.6,13,5.9,13s0.6,0.2,0.9,0.4c0.3,0.3,0.3,0.7,0.3,1.3c0,0.7-0.1,1.1-0.3,1.3
	c-0.5,0.5-1.3,0.5-1.8,0C4.8,15.7,4.7,15.3,4.7,14.7z M9.4,16.3c-0.2-0.5-0.3-1-0.3-1.6c0-0.7,0.1-1.2,0.4-1.7
	c0.2-0.6,0.7-0.9,1.2-1.2c0.5-0.2,0.9-0.3,1.5-0.3c0.8,0,1.4,0.1,1.8,0.4c0.5,0.4,0.8,0.8,0.9,1.3l0,0.2l-1.5,0.3l-0.1-0.2
	c-0.1-0.3-0.2-0.4-0.4-0.6c-0.2-0.2-0.4-0.2-0.6-0.2c-0.4,0-0.7,0.1-1,0.4C11.1,13.6,11,14,11,14.5c0,0.6,0.1,1,0.4,1.3
	c0.3,0.3,0.6,0.4,1,0.4c0.2,0,0.4,0,0.6-0.1c0.1,0,0.1-0.1,0.2-0.1c0.1,0,0.2-0.1,0.2-0.1v-0.3h-1.2v-0.1H12v-1.2h2.9v2.6L14.8,17
	c-0.2,0.2-0.6,0.4-1.2,0.6c-0.6,0.2-1,0.3-1.5,0.3c-0.7,0-1.2-0.1-1.7-0.4C10.1,17.2,9.6,16.9,9.4,16.3z"/>
</svg>
