<?xml version="1.0" encoding="utf-8"?>
<!-- Generator: Adobe Illustrator 21.1.0, SVG Export Plug-In . SVG Version: 6.00 Build 0)  -->
<svg version="1.1" id="Layer_1" xmlns="http://www.w3.org/2000/svg" xmlns:xlink="http://www.w3.org/1999/xlink" x="0px" y="0px"
	 viewBox="0 0 24 24" style="enable-background:new 0 0 24 24;" xml:space="preserve">
<path d="M10.6,12.9H8.9c-0.1,0-0.2,0.1-0.3,0.1c-0.2,0.1-0.4,0.2-0.6,0.5c-0.2,0.2-0.3,0.4-0.4,0.7c-0.1,0.3-0.2,0.6-0.2,1.2
	c0,0.9,0.3,1.4,0.6,1.6c0.4,0.4,1.1,0.5,1.6,0.5c0.7,0,1.2-0.2,1.6-0.7c0.4-0.5,0.5-1,0.5-1.7c0-0.7-0.2-1.2-0.5-1.7
	C11,13,10.8,12.9,10.6,12.9z M10.2,15.9c-0.2,0.2-0.4,0.3-0.6,0.3c-0.3,0-0.5-0.1-0.6-0.3c-0.1-0.1-0.2-0.5-0.2-0.9
	c0-0.3,0.1-0.7,0.2-0.8c0.2-0.2,0.4-0.3,0.6-0.3c0.2,0,0.5,0.1,0.6,0.2c0.1,0.1,0.2,0.5,0.2,0.9C10.4,15.5,10.3,15.7,10.2,15.9z
	 M21.6,8.5V5.4l-5.2-5.2C16.2,0,16.1,0,15.8,0H3C2.7,0,2.4,0.3,2.4,0.6v7.8H0v13h2.4v1.9C2.4,23.7,2.7,24,3,24h18
	c0.3,0,0.6-0.3,0.6-0.6v-1.9H24V8.5H21.6z M20.3,21.6v1.4H3.6v-1.4H20.3z M16.6,5.1V2.3l2.8,2.8H16.6z M15.8,6.5h4.5v2H3.6V1.4h11.6
	v4.5C15.2,6.2,15.5,6.5,15.8,6.5z M22.7,9.9v10.5H1.3V9.9H22.7z M16.9,12.8v4.5h-1.3v-4.2l-1.5,4.2H13l-1.6-4.5h1.4l0.8,2.4l0.8-2.4
	h1.4c0,0,0.1,0,0.1,0H16.9z M20.8,17.3h-3.5v-4.5h3.4V14h-2.2v0.4h2.1v1.2h-2.1v0.6h2.3V17.3z M7.1,12.9v4.5H6v-1.4l-0.3,1.4H4.5
	l-0.3-1.4v1.4H2.8v-4.5h0.1c0,0,0.1,0,0.1,0h1.4l0.5,2l0.5-2H7.1z"/>
</svg>
