<?xml version="1.0" encoding="utf-8"?>
<!-- Generator: Adobe Illustrator 21.1.0, SVG Export Plug-In . SVG Version: 6.00 Build 0)  -->
<svg version="1.1" id="Layer_1" xmlns="http://www.w3.org/2000/svg" xmlns:xlink="http://www.w3.org/1999/xlink" x="0px" y="0px"
	 viewBox="0 0 24 24" style="enable-background:new 0 0 24 24;" xml:space="preserve">
<path d="M21.6,8.7V5.4l-5.2-5.2C16.2,0,16.1,0,15.9,0H2.8C2.6,0,2.4,0.2,2.4,0.4v8.2H0v12.8h2.4v2.2c0,0.2,0.2,0.4,0.4,0.4h18.4
	c0.2,0,0.4-0.2,0.4-0.4v-2.2H24V8.7H21.6z M16.4,1.5l3.7,3.7h-3.7V1.5z M3.2,0.9h12.3v4.8c0,0.2,0.2,0.4,0.4,0.4h4.8v2.5H3.2V0.9z
	 M20.7,23.4H3.2v-1.9h17.5V23.4z M23.2,20.8H0.8V9.6h22.4V20.8z M11.6,18.2h-1.2v-5.7h1.2v2.3h2.3v-2.3H15v5.7h-1.2v-2.5h-2.3V18.2z
	 M17.5,13.5h-1.7v-1h4.6v1h-1.7v4.8h-1.2V13.5z M4.8,18.2H3.7v-5.7h1.7l1,3.9l1-3.9h1.7v5.7H8.2v-4.5l-1.1,4.5H5.9l-1.1-4.5V18.2z"
	/>
</svg>
