<?xml version="1.0" encoding="utf-8"?>
<!-- Generator: Adobe Illustrator 21.1.0, SVG Export Plug-In . SVG Version: 6.00 Build 0)  -->
<svg version="1.1" id="Layer_1" xmlns="http://www.w3.org/2000/svg" xmlns:xlink="http://www.w3.org/1999/xlink" x="0px" y="0px"
	 viewBox="0 0 24 24" style="enable-background:new 0 0 24 24;" xml:space="preserve">
<path d="M21.6,8.7V5.4l-5.2-5.2C16.2,0,16.1,0,15.9,0H2.8C2.6,0,2.4,0.2,2.4,0.4v8.2H0v12.8h2.4v2.2c0,0.2,0.2,0.4,0.4,0.4h18.4
	c0.2,0,0.4-0.2,0.4-0.4v-2.2H24V8.7H21.6z M16.4,1.5l3.7,3.7h-3.7V1.5z M3.2,0.9h12.3v4.8c0,0.2,0.2,0.4,0.4,0.4h4.8v2.5H3.2V0.9z
	 M20.7,23.4H3.2v-1.9h17.5V23.4z M23.2,20.8H0.8V9.6h22.4V20.8z M20.7,17.2h-3.1v-4.1h3v0.7h-2.2v0.9h2.1v0.7h-2.1v1.1h2.3V17.2z
	 M13.2,17.2l-1.5-4.1h0.9l1,3l1-3h0.9l-1.5,4.1H13.2z M3.7,17.2H2.9v-4.1h1.2l0.7,2.8l0.7-2.8h1.2v4.1H6.1v-3.2l-0.8,3.2H4.5
	l-0.8-3.2V17.2z M16.8,17.2H16v-4.1h0.8V17.2z M9.5,17.2c0.6,0,1.1-0.2,1.4-0.6s0.5-0.9,0.5-1.6c0-0.7-0.2-1.2-0.5-1.6
	S10.1,13,9.5,13c-0.3,0-0.6,0.1-0.9,0.2c-0.2,0.1-0.4,0.2-0.5,0.4c-0.2,0.2-0.3,0.4-0.4,0.6c-0.1,0.3-0.2,0.6-0.2,1.1
	c0,0.7,0.2,1.2,0.5,1.5S8.9,17.2,9.5,17.2z M8.7,14.1c0.2-0.2,0.5-0.4,0.8-0.4s0.6,0.1,0.8,0.3s0.3,0.6,0.3,1.1
	c0,0.5-0.1,0.8-0.3,1.1c-0.2,0.2-0.5,0.4-0.8,0.4s-0.6-0.1-0.8-0.4c-0.2-0.2-0.3-0.6-0.3-1.1C8.4,14.7,8.5,14.3,8.7,14.1z"/>
</svg>
