<?xml version="1.0" encoding="utf-8"?>
<!-- Generator: Adobe Illustrator 21.1.0, SVG Export Plug-In . SVG Version: 6.00 Build 0)  -->
<svg version="1.1" id="Layer_1" xmlns="http://www.w3.org/2000/svg" xmlns:xlink="http://www.w3.org/1999/xlink" x="0px" y="0px"
	 viewBox="0 0 24 24" style="enable-background:new 0 0 24 24;" xml:space="preserve">
<path d="M21.6,8.6V5.3l-5.2-5.2c-0.2-0.2-0.3-0.2-0.5-0.2H2.8c-0.2,0-0.4,0.2-0.4,0.4v8.2H0v12.8h2.4v2.2c0,0.2,0.2,0.4,0.4,0.4
	h18.4c0.2,0,0.4-0.2,0.4-0.4v-2.2H24V8.6H21.6z M16.4,1.4l3.7,3.7h-3.7V1.4z M3.2,0.8h12.3v4.8c0,0.2,0.2,0.4,0.4,0.4h4.8v2.5H3.2
	V0.8z M20.8,23.3H3.2v-1.9h17.5V23.3z M23.2,20.7H0.8V9.5h22.4V20.7z M6.7,17.7v-5.7h2.4c0.6,0,1.1,0.1,1.3,0.2s0.5,0.3,0.7,0.5
	s0.2,0.6,0.2,0.9c0,0.4-0.1,0.8-0.4,1.1c-0.3,0.3-0.6,0.5-1.1,0.5c0.2,0.1,0.5,0.3,0.6,0.5c0.2,0.2,0.4,0.5,0.7,0.9l0.7,1.1h-1.4
	l-0.8-1.2C9.3,16,9.1,15.7,9,15.6c-0.1-0.1-0.2-0.2-0.3-0.2s-0.3-0.1-0.6-0.1H7.9v2.4H6.7z M7.9,14.4h0.9c0.6,0,0.9,0,1-0.1
	s0.2-0.1,0.3-0.2c0.1-0.1,0.1-0.3,0.1-0.4c0-0.2-0.1-0.3-0.2-0.5C9.9,13,9.8,13,9.6,12.9c-0.1,0-0.4,0-0.8,0H7.9V14.4z M17.6,17.7
	h-1.3l-0.5-1.3h-2.3l-0.5,1.3h-1.2l2.2-5.7h1.2L17.6,17.7z M15.5,15.4l-0.8-2.1L14,15.4H15.5z"/>
</svg>
