<?xml version="1.0" encoding="utf-8"?>
<!-- Generator: Adobe Illustrator 21.1.0, SVG Export Plug-In . SVG Version: 6.00 Build 0)  -->
<svg version="1.1" id="Layer_1" xmlns="http://www.w3.org/2000/svg" xmlns:xlink="http://www.w3.org/1999/xlink" x="0px" y="0px"
	 viewBox="0 0 24 24" style="enable-background:new 0 0 24 24;" xml:space="preserve">
<path d="M15.5,11.3h1.2v6.6H15v-2.8l-0.6,2.8h-1.6l-0.7-3v3H8.3L7.1,16l-1.3,1.9h-2l2.3-3.5l-2.1-3.1h2.1l1,1.7l1-1.7h2l-2.1,3.2
	l2.2,3.3v-6.5h1.2v0h0.1l0,0h1l0.9,3.4l0.9-3.4h0.9l0,0L15.5,11.3L15.5,11.3z M24,8.4v13h-2.3v1.9c0,0.4-0.3,0.7-0.7,0.7H3
	c-0.4,0-0.7-0.3-0.7-0.7v-1.9H0v-13h2.3V0.7C2.3,0.3,2.7,0,3,0h12.8c0.3,0,0.4,0,0.7,0.3l5.1,5.1v3.1H24z M3.7,21.4v1.2h16.6v-1.2
	H3.7z M19.3,5l-2.8-2.8V5H19.3z M15.2,5.8V1.3H3.7v7.2h16.6V6.5h-4.5C15.5,6.5,15.2,6.1,15.2,5.8z M1.3,9.8v10.4h21.3V9.8H1.3z
	 M19.2,11.3h-1.8v6.6h1.8V11.3z"/>
</svg>
