<?xml version="1.0" encoding="utf-8"?>
<!-- Generator: Adobe Illustrator 21.1.0, SVG Export Plug-In . SVG Version: 6.00 Build 0)  -->
<svg version="1.1" id="Layer_1" xmlns="http://www.w3.org/2000/svg" xmlns:xlink="http://www.w3.org/1999/xlink" x="0px" y="0px"
	 viewBox="0 0 24 24" style="enable-background:new 0 0 24 24;" xml:space="preserve">
<path d="M21.7,8.4V5.4l-5.1-5.1C16.3,0,16.1,0,15.8,0H3C2.7,0,2.3,0.3,2.3,0.7v7.8H0v13h2.3v1.9C2.3,23.7,2.7,24,3,24h18
	c0.4,0,0.7-0.3,0.7-0.7v-1.9H24v-13H21.7z M20.3,21.4v1.2H3.7v-1.2H20.3z M16.5,5V2.2L19.3,5H16.5z M15.8,6.5h4.5v2.1H3.7V1.3h11.5
	v4.5C15.2,6.1,15.5,6.5,15.8,6.5z M22.7,9.8v10.4H1.3V9.8H22.7z M14.7,12.9c-0.4-0.4-1-0.7-1.5-0.8h-1.8c-0.1,0-0.3,0.1-0.4,0.1
	c-0.2,0.1-0.6,0.3-0.8,0.6C10,13,9.7,13.4,9.6,13.7c-0.2,0.5-0.3,1-0.3,1.7c0,1.1,0.3,2,0.8,2.5c0.6,0.6,1.4,0.9,2.3,0.9
	c0.9,0,1.7-0.3,2.3-0.9c0.6-0.7,0.9-1.6,0.9-2.5C15.7,14.4,15.3,13.5,14.7,12.9z M13.4,16.7c-0.3,0.3-0.7,0.5-1,0.5
	c-0.3,0-0.7-0.2-1-0.4c-0.3-0.3-0.4-0.8-0.4-1.5c0-0.6,0.1-1.1,0.3-1.5c0.3-0.3,0.7-0.4,1.1-0.4c0.3,0,0.7,0.2,1,0.4
	c0.3,0.4,0.4,0.7,0.4,1.5C13.8,16.1,13.7,16.5,13.4,16.7z M7.6,12.1h1.1v6.6H7.2v-3l-0.7,3H4.8l-0.7-3v3H2.3v-6.6h1.2v0h0.1l0,0h1.1
	l0.9,3.4l0.9-3.4h1.1l0,0L7.6,12.1L7.6,12.1z M17.8,18.5l-2.3-6.4h1.9l1.3,4l1.3-4h1.8l-2.4,6.6h-1.6L17.8,18.5z"/>
</svg>
