<?xml version="1.0" encoding="UTF-8"?>
<svg xmlns="http://www.w3.org/2000/svg" xmlns:xlink="http://www.w3.org/1999/xlink" width="24pt" height="24pt" viewBox="0 0 24 24" version="1.1">
<g id="surface1">
<path style=" stroke:none;fill-rule:nonzero;fill:rgb(0%,0%,0%);fill-opacity:1;" d="M 21.601562 8.617188 L 21.601562 5.453125 C 21.601562 5.453125 21.601562 5.34375 21.601562 5.34375 L 16.472656 0.21875 C 16.253906 0 16.144531 0 15.925781 0 L 2.835938 0 C 2.617188 0 2.398438 0.21875 2.398438 0.4375 L 2.398438 8.617188 L 0 8.617188 L 0 21.382812 L 2.398438 21.382812 L 2.398438 23.5625 C 2.398438 23.78125 2.617188 24 2.835938 24 L 21.164062 24 C 21.382812 24 21.601562 23.78125 21.601562 23.5625 L 21.601562 21.382812 L 24 21.382812 L 24 8.617188 Z M 16.363281 1.417969 L 20.074219 5.128906 L 16.363281 5.128906 Z M 3.273438 0.871094 L 15.492188 0.871094 L 15.492188 5.671875 C 15.492188 5.890625 15.710938 6.109375 15.925781 6.109375 L 20.726562 6.109375 L 20.726562 8.726562 L 3.273438 8.726562 Z M 20.726562 23.128906 L 3.273438 23.128906 L 3.273438 21.382812 L 20.726562 21.382812 Z M 23.128906 20.617188 L 0.871094 20.617188 L 0.871094 9.492188 L 23.128906 9.492188 Z M 8.835938 11.78125 L 10.144531 11.78125 L 10.144531 15.710938 C 10.144531 16.253906 10.144531 16.582031 10.035156 16.910156 C 9.925781 17.238281 9.710938 17.5625 9.382812 17.78125 C 9.054688 18 8.617188 18.109375 8.074219 18.109375 C 7.417969 18.109375 6.980469 17.890625 6.65625 17.5625 C 6.328125 17.238281 6.109375 16.691406 6.109375 16.035156 L 7.308594 15.925781 C 7.308594 16.253906 7.417969 16.582031 7.417969 16.691406 C 7.527344 16.910156 7.746094 17.019531 8.074219 17.019531 C 8.398438 17.019531 8.507812 16.910156 8.617188 16.800781 C 8.726562 16.691406 8.835938 16.363281 8.835938 15.816406 Z M 11.128906 16.035156 L 12.328125 15.925781 C 12.4375 16.363281 12.546875 16.691406 12.761719 16.800781 C 12.980469 17.019531 13.308594 17.128906 13.636719 17.128906 C 14.074219 17.128906 14.398438 17.019531 14.507812 16.910156 C 14.726562 16.691406 14.835938 16.582031 14.835938 16.253906 C 14.835938 16.144531 14.835938 15.925781 14.726562 15.925781 C 14.617188 15.816406 14.507812 15.710938 14.289062 15.710938 C 14.183594 15.710938 13.855469 15.601562 13.308594 15.492188 C 12.65625 15.273438 12.109375 15.164062 11.890625 14.835938 C 11.453125 14.507812 11.34375 14.074219 11.34375 13.527344 C 11.34375 13.199219 11.453125 12.871094 11.5625 12.65625 C 11.671875 12.4375 12 12.21875 12.328125 12 C 12.65625 11.78125 13.089844 11.78125 13.527344 11.78125 C 14.289062 11.78125 14.945312 12 15.273438 12.328125 C 15.601562 12.65625 15.925781 13.089844 15.925781 13.746094 L 14.617188 13.855469 C 14.617188 13.527344 14.398438 13.308594 14.289062 13.199219 C 14.074219 13.089844 13.855469 12.980469 13.527344 12.980469 C 13.199219 12.980469 12.871094 13.089844 12.65625 13.199219 C 12.546875 13.308594 12.4375 13.417969 12.4375 13.636719 C 12.4375 13.746094 12.546875 13.964844 12.65625 13.964844 C 12.761719 14.074219 13.199219 14.183594 13.855469 14.398438 C 14.507812 14.617188 14.945312 14.726562 15.164062 14.835938 C 15.492188 14.945312 15.710938 15.164062 15.816406 15.492188 C 15.925781 15.816406 16.035156 16.035156 16.035156 16.472656 C 16.035156 16.800781 15.925781 17.128906 15.710938 17.453125 C 15.492188 17.78125 15.273438 18 14.835938 18.109375 C 14.507812 18.21875 14.074219 18.328125 13.527344 18.328125 C 12.761719 18.328125 12.109375 18.109375 11.671875 17.78125 C 11.453125 17.238281 11.128906 16.691406 11.128906 16.035156 Z M 11.128906 16.035156 "/>
</g>
</svg>
