<?xml version="1.0" encoding="utf-8"?>
<!-- Generator: Adobe Illustrator 21.1.0, SVG Export Plug-In . SVG Version: 6.00 Build 0)  -->
<svg version="1.1" id="Layer_1" xmlns="http://www.w3.org/2000/svg" xmlns:xlink="http://www.w3.org/1999/xlink" x="0px" y="0px"
	 viewBox="0 0 24 24" style="enable-background:new 0 0 24 24;" xml:space="preserve">
<path d="M11.9,18.4c0.9,0,1.7-0.3,2.3-0.9c0.6-0.6,0.9-1.4,0.9-2.5c0-1-0.3-1.9-0.9-2.5c-0.6-0.6-1.4-0.9-2.3-0.9
	c-0.4,0-0.9,0-1.4,0.2l-0.1,0c-0.2,0.1-0.5,0.2-0.7,0.6c-0.1,0.1-0.1,0.2-0.2,0.3c-0.2,0.2-0.3,0.4-0.4,0.6c-0.2,0.5-0.3,1-0.3,1.7
	c0,1.1,0.3,2,0.8,2.5C10.2,18.1,10.9,18.4,11.9,18.4z M12.9,16.4c-0.3,0.3-0.7,0.5-1,0.5c-0.3,0-0.7-0.2-1-0.4
	c-0.3-0.3-0.4-0.8-0.4-1.5c0-0.7,0.1-1.2,0.2-1.4c0.3-0.3,0.7-0.5,1.1-0.5c0.3,0,0.7,0.2,1,0.4c0.3,0.4,0.4,0.7,0.4,1.5
	C13.3,15.7,13.1,16.2,12.9,16.4z M21.7,8.4V5.4l-5.1-5.1C16.3,0,16.1,0,15.8,0H3C2.7,0,2.3,0.3,2.3,0.7v7.8H0v13h2.3v1.9
	C2.3,23.7,2.7,24,3,24h18c0.4,0,0.7-0.3,0.7-0.7v-1.9H24v-13H21.7z M20.3,21.4v1.2H3.7v-1.2H20.3z M16.5,5V2.2L19.3,5H16.5z
	 M15.8,6.5h4.5v2.1H3.7V1.3h11.5v4.5C15.2,6.1,15.5,6.5,15.8,6.5z M22.7,9.8v10.4H1.3V9.8H22.7z M16.2,17.5
	c-0.6-0.6-0.8-1.3-0.8-2.4c0-1.2,0.3-2,0.8-2.5c0.6-0.6,1.3-0.9,2.2-0.9c0.8,0,1.5,0.2,2,0.7c0.3,0.2,0.6,0.7,0.7,1.3l0,0.2
	l-1.6,0.4l-0.1-0.2c-0.1-0.3-0.2-0.5-0.4-0.7c-0.2-0.2-0.4-0.2-0.7-0.2c-0.3,0-0.7,0.2-0.9,0.4c-0.1,0.2-0.4,0.7-0.4,1.5
	c0,0.7,0.1,1.2,0.4,1.4c0.3,0.3,0.6,0.5,0.9,0.5c0.3,0,0.5-0.1,0.7-0.2s0.4-0.6,0.5-1.1l0.1-0.3l1.7,0.6l-0.1,0.2
	c-0.2,0.7-0.6,1.3-1,1.6c-0.5,0.4-1.1,0.6-1.8,0.6C17.6,18.4,16.8,18.1,16.2,17.5z M6.6,18.1L6.6,18.1C6.8,18,6.9,17.9,7,17.9
	c0.2-0.1,0.4-0.2,0.5-0.3c0.5-0.3,0.7-0.9,0.7-1.2c0.1-0.3,0.2-0.8,0.2-1.4c0-0.7-0.1-1.1-0.2-1.6l0-0.1c-0.1-0.3-0.2-0.7-0.6-1
	c-0.3-0.2-0.7-0.4-1-0.6c-0.4-0.1-0.7-0.1-1.3-0.1H2.9v6.6h2.6C5.9,18.2,6.3,18.2,6.6,18.1z M4.9,13.1c0.2,0,0.4,0,0.6,0.1
	c0.1,0,0.2,0,0.3,0c0.1,0,0.1,0.1,0.2,0.1c0.1,0,0.2,0.1,0.3,0.1c0.1,0.2,0.2,0.4,0.3,0.6c0.1,0.2,0.1,0.6,0.1,1c0,0.4,0,0.7-0.1,1
	c-0.1,0.3-0.2,0.5-0.2,0.5c0,0-0.1,0-0.1,0.1c-0.1,0.1-0.2,0.1-0.3,0.1l-0.1,0l-0.1,0.1c-0.1,0-0.4,0-0.6,0H4.5v-3.7H4.9z"/>
</svg>
