<?xml version="1.0" encoding="utf-8"?>
<!-- Generator: Adobe Illustrator 21.1.0, SVG Export Plug-In . SVG Version: 6.00 Build 0)  -->
<svg version="1.1" id="Layer_1" xmlns="http://www.w3.org/2000/svg" xmlns:xlink="http://www.w3.org/1999/xlink" x="0px" y="0px"
	 viewBox="0 0 24 24" style="enable-background:new 0 0 24 24;" xml:space="preserve">
<path d="M18.2,17.1v3.5c0,0.3-0.3,0.6-0.6,0.6c-0.3,0-0.6-0.3-0.6-0.6v-3.5c0-0.3,0.3-0.6,0.6-0.6C17.9,16.5,18.2,16.8,18.2,17.1z
	 M23.7,17.9c0,1.8-0.8,3.5-2.2,4.7v0.7c0,0.3-0.3,0.6-0.6,0.6h-2.3c-0.3,0.1-0.7,0.1-1,0.1c-0.3,0-0.7,0-1.1-0.1L3,23.9
	c-0.3,0-0.6-0.3-0.6-0.6V0.6C2.4,0.3,2.7,0,3.1,0h12.8c0.2,0,0.3,0.1,0.4,0.2l5,4.9c0.1,0,0.2,0.1,0.2,0.2c0.1,0.1,0.1,0.2,0.1,0.3
	v7.7C23,14.5,23.7,16.1,23.7,17.9z M19.4,5l-2.8-2.8V5H19.4z M12.8,17.9c0,2.4,1.6,4.3,3.9,4.8l1.9,0c2.3-0.4,3.9-2.4,3.9-4.8
	c0-2.7-2.1-4.8-4.8-4.8S12.8,15.2,12.8,17.9z M15.3,5.7V1.4H3.7v21.3h10c-1.4-1.2-2.3-2.9-2.3-4.8c0-3.4,2.7-6.1,6.1-6.1
	c0.9,0,1.9,0.2,2.7,0.6v-6h-4.4c-0.3,0-0.5-0.1-0.6-0.3C15.3,6,15.3,5.8,15.3,5.7z M17.5,16.4c0.6,0,1-0.5,1-1c0-0.5-0.3-1-1-1
	c-0.6,0-0.9,0.5-0.9,1C16.6,15.9,16.9,16.4,17.5,16.4z"/>
</svg>
