<?xml version="1.0" encoding="utf-8"?>
<!-- Generator: Adobe Illustrator 21.1.0, SVG Export Plug-In . SVG Version: 6.00 Build 0)  -->
<svg version="1.1" id="Layer_1" xmlns="http://www.w3.org/2000/svg" xmlns:xlink="http://www.w3.org/1999/xlink" x="0px" y="0px"
	 viewBox="0 0 24 24" style="enable-background:new 0 0 24 24;" xml:space="preserve">
<path d="M21.6,8.6V5.3l-5.2-5.2c-0.2-0.2-0.3-0.2-0.5-0.2H2.8c-0.2,0-0.4,0.2-0.4,0.4v8.2H0v12.8h2.4v2.2c0,0.2,0.2,0.4,0.4,0.4
	h18.4c0.2,0,0.4-0.2,0.4-0.4v-2.2H24V8.6H21.6z M16.4,1.4l3.7,3.7h-3.7V1.4z M3.2,0.8h12.3v4.8c0,0.2,0.2,0.4,0.4,0.4h4.8v2.5H3.2
	V0.8z M20.8,23.3H3.2v-1.9h17.5V23.3z M23.2,20.7H0.8V9.5h22.4V20.7z M3.8,16L5,15.9c0.1,0.4,0.2,0.7,0.4,0.8
	C5.6,16.9,5.9,17,6.2,17c0.4,0,0.7-0.1,0.8-0.2c0.2-0.2,0.3-0.3,0.3-0.6c0-0.1,0-0.2-0.1-0.3c-0.1-0.1-0.2-0.2-0.4-0.2
	c-0.1,0-0.4-0.1-0.9-0.2c-0.6-0.2-1.1-0.3-1.3-0.6C4.2,14.4,4,14.1,4,13.6c0-0.3,0.1-0.6,0.2-0.8s0.4-0.4,0.7-0.6S5.7,12,6.1,12
	c0.7,0,1.3,0.2,1.6,0.5s0.6,0.7,0.6,1.3l-1.2,0.1c0-0.3-0.2-0.5-0.3-0.6S6.4,13,6.1,13c-0.3,0-0.6,0.1-0.8,0.2
	c-0.1,0.1-0.2,0.2-0.2,0.4c0,0.1,0.1,0.3,0.2,0.3c0.1,0.1,0.5,0.2,1.1,0.4s1,0.3,1.2,0.4c0.3,0.1,0.5,0.3,0.6,0.6s0.2,0.6,0.2,0.9
	c0,0.3-0.1,0.6-0.3,0.9c-0.2,0.3-0.4,0.5-0.8,0.6c-0.3,0.1-0.7,0.2-1.2,0.2c-0.7,0-1.3-0.2-1.7-0.5C4.1,17.1,3.9,16.6,3.8,16z
	 M10.9,17.8l-2-5.7h1.3l1.4,4.2l1.4-4.2h1.2l-2.1,5.7H10.9z M17.5,15.7v-1H20V17c-0.2,0.2-0.6,0.4-1.1,0.6c-0.5,0.2-0.9,0.3-1.4,0.3
	c-0.6,0-1.1-0.1-1.6-0.4c-0.4-0.3-0.8-0.6-1-1.1c-0.2-0.5-0.3-1-0.3-1.5c0-0.6,0.1-1.1,0.4-1.6c0.2-0.5,0.6-0.8,1.1-1.1
	c0.4-0.2,0.8-0.3,1.4-0.3c0.7,0,1.3,0.1,1.7,0.4s0.7,0.7,0.8,1.2l-1.1,0.2c-0.1-0.3-0.2-0.5-0.5-0.7c-0.2-0.2-0.5-0.2-0.8-0.2
	c-0.5,0-0.9,0.2-1.2,0.5s-0.4,0.8-0.4,1.4c0,0.7,0.2,1.2,0.5,1.5s0.7,0.5,1.2,0.5c0.2,0,0.5,0,0.7-0.1c0.2-0.1,0.5-0.2,0.6-0.3v-0.7
	H17.5z"/>
</svg>
