<?xml version="1.0" encoding="UTF-8"?>
<svg xmlns="http://www.w3.org/2000/svg" xmlns:xlink="http://www.w3.org/1999/xlink" width="24pt" height="24pt" viewBox="0 0 24 24" version="1.1">
<g id="surface1">
<path style=" stroke:none;fill-rule:nonzero;fill:rgb(0%,0%,0%);fill-opacity:1;" d="M 21.601562 8.617188 L 21.601562 5.453125 C 21.601562 5.453125 21.601562 5.34375 21.601562 5.34375 L 16.472656 0.21875 C 16.253906 0 16.144531 0 15.925781 0 L 2.835938 0 C 2.617188 0 2.398438 0.21875 2.398438 0.4375 L 2.398438 8.617188 L 0 8.617188 L 0 21.382812 L 2.398438 21.382812 L 2.398438 23.5625 C 2.398438 23.78125 2.617188 24 2.835938 24 L 21.164062 24 C 21.382812 24 21.601562 23.78125 21.601562 23.5625 L 21.601562 21.382812 L 24 21.382812 L 24 8.617188 Z M 16.363281 1.417969 L 20.074219 5.128906 L 16.363281 5.128906 Z M 3.273438 0.871094 L 15.492188 0.871094 L 15.492188 5.671875 C 15.492188 5.890625 15.710938 6.109375 15.925781 6.109375 L 20.726562 6.109375 L 20.726562 8.726562 L 3.273438 8.726562 Z M 20.726562 23.128906 L 3.273438 23.128906 L 3.273438 21.382812 L 20.726562 21.382812 Z M 23.128906 20.617188 L 0.871094 20.617188 L 0.871094 9.492188 L 23.128906 9.492188 Z M 5.890625 18 L 5.890625 12.761719 L 4.035156 12.761719 L 4.035156 11.671875 L 9.054688 11.671875 L 9.054688 12.761719 L 7.089844 12.761719 L 7.089844 18 Z M 11.238281 18 L 11.238281 12.761719 L 9.382812 12.761719 L 9.382812 11.671875 L 14.398438 11.671875 L 14.398438 12.761719 L 12.546875 12.761719 L 12.546875 18 Z M 15.164062 18 L 15.164062 11.78125 L 19.417969 11.78125 L 19.417969 12.871094 L 16.363281 12.871094 L 16.363281 14.398438 L 18.980469 14.398438 L 18.980469 15.492188 L 16.363281 15.492188 L 16.363281 18.109375 L 15.164062 18.109375 Z M 15.164062 18 "/>
</g>
</svg>
