<?xml version="1.0" encoding="UTF-8"?>
<svg xmlns="http://www.w3.org/2000/svg" xmlns:xlink="http://www.w3.org/1999/xlink" width="24pt" height="24pt" viewBox="0 0 24 24" version="1.1">
<g id="surface1">
<path style=" stroke:none;fill-rule:nonzero;fill:rgb(0%,0%,0%);fill-opacity:1;" d="M 23.890625 8.617188 L 21.492188 8.617188 L 21.492188 5.453125 C 21.492188 5.453125 21.492188 5.34375 21.492188 5.34375 L 16.363281 0.21875 C 16.253906 0 16.144531 0 15.925781 0 L 2.835938 0 C 2.617188 0 2.398438 0.21875 2.398438 0.4375 L 2.398438 8.617188 L 0 8.617188 L 0 21.382812 L 2.398438 21.382812 L 2.398438 23.5625 C 2.398438 23.78125 2.617188 24 2.835938 24 L 21.164062 24 C 21.382812 24 21.601562 23.78125 21.601562 23.5625 L 21.601562 21.382812 L 24 21.382812 L 24 8.617188 Z M 16.363281 1.417969 L 20.074219 5.128906 L 16.363281 5.128906 Z M 3.273438 0.871094 L 15.492188 0.871094 L 15.492188 5.671875 C 15.492188 5.890625 15.710938 6.109375 15.925781 6.109375 L 20.726562 6.109375 L 20.726562 8.726562 L 3.273438 8.726562 Z M 20.726562 23.128906 L 3.273438 23.128906 L 3.273438 21.382812 L 20.726562 21.382812 Z M 23.128906 20.617188 L 0.871094 20.617188 L 0.871094 9.492188 L 23.128906 9.492188 Z M 19.308594 15.601562 C 19.089844 15.382812 18.871094 15.273438 18.65625 15.054688 C 19.199219 14.945312 19.636719 14.835938 19.855469 14.507812 C 20.183594 14.183594 20.289062 13.855469 20.289062 13.308594 C 20.289062 12.980469 20.183594 12.65625 20.074219 12.328125 C 19.964844 12 19.636719 11.890625 19.308594 11.78125 C 18.980469 11.671875 18.546875 11.5625 17.890625 11.5625 L 15.273438 11.5625 L 15.273438 17.78125 L 16.582031 17.78125 L 16.582031 15.273438 L 16.800781 15.273438 C 17.128906 15.273438 17.34375 15.273438 17.453125 15.382812 C 17.5625 15.492188 17.671875 15.492188 17.78125 15.601562 C 17.890625 15.710938 18.109375 16.035156 18.4375 16.472656 L 19.308594 17.78125 L 20.835938 17.78125 L 20.074219 16.582031 C 19.746094 16.144531 19.527344 15.816406 19.308594 15.601562 Z M 17.34375 14.289062 L 16.363281 14.289062 L 16.363281 12.65625 L 17.453125 12.65625 C 18 12.65625 18.328125 12.65625 18.328125 12.65625 C 18.546875 12.65625 18.65625 12.761719 18.761719 12.871094 C 18.871094 12.980469 18.980469 13.199219 18.980469 13.417969 C 18.980469 13.636719 18.980469 13.746094 18.871094 13.855469 C 18.761719 14.074219 18.65625 14.183594 18.546875 14.183594 C 18.4375 14.183594 18 14.289062 17.34375 14.289062 Z M 10.582031 16.800781 L 14.074219 16.800781 L 14.074219 17.890625 L 9.382812 17.890625 L 9.382812 11.671875 L 13.964844 11.671875 L 13.964844 12.761719 L 10.582031 12.761719 L 10.582031 14.183594 L 13.746094 14.183594 L 13.746094 15.273438 L 10.582031 15.273438 Z M 7.089844 15.601562 L 8.289062 16.035156 C 8.074219 16.691406 7.746094 17.238281 7.308594 17.5625 C 6.871094 17.890625 6.328125 18.109375 5.671875 18.109375 C 4.800781 18.109375 4.144531 17.78125 3.601562 17.238281 C 3.054688 16.691406 2.835938 15.925781 2.835938 14.945312 C 2.835938 13.855469 3.054688 13.089844 3.601562 12.546875 C 4.144531 12 4.800781 11.671875 5.671875 11.671875 C 6.4375 11.671875 7.089844 11.890625 7.527344 12.328125 C 7.855469 12.546875 8.074219 12.980469 8.183594 13.527344 L 6.980469 13.855469 C 6.980469 13.308594 6.761719 13.089844 6.546875 12.871094 C 6.328125 12.65625 6 12.546875 5.671875 12.546875 C 5.238281 12.546875 4.800781 12.761719 4.582031 13.089844 C 4.363281 13.417969 4.144531 13.964844 4.144531 14.726562 C 4.144531 15.492188 4.253906 16.035156 4.582031 16.363281 C 4.910156 16.691406 5.238281 16.910156 5.671875 16.910156 C 6 16.910156 6.328125 16.800781 6.546875 16.582031 C 6.761719 16.363281 6.980469 16.035156 7.089844 15.601562 Z M 7.089844 15.601562 "/>
</g>
</svg>
