<?xml version="1.0" encoding="utf-8"?>
<!-- Generator: Adobe Illustrator 21.1.0, SVG Export Plug-In . SVG Version: 6.00 Build 0)  -->
<svg version="1.1" id="Layer_1" xmlns="http://www.w3.org/2000/svg" xmlns:xlink="http://www.w3.org/1999/xlink" x="0px" y="0px"
	 viewBox="0 0 24 24" style="enable-background:new 0 0 24 24;" xml:space="preserve">
<path d="M21.7,8.4V5.4l-5.1-5.1C16.3,0,16.1,0,15.8,0H3C2.7,0,2.3,0.3,2.3,0.7v7.8H0v13h2.3v1.9C2.3,23.7,2.7,24,3,24h18
	c0.4,0,0.7-0.3,0.7-0.7v-1.9H24v-13H21.7z M20.3,21.4v1.2H3.7v-1.2H20.3z M16.5,5V2.2L19.3,5H16.5z M15.8,6.5h4.5v2.1H3.7V1.3h11.5
	v4.5C15.2,6.1,15.5,6.5,15.8,6.5z M22.7,9.8v10.4H1.3V9.8H22.7z M5.7,13.3H3.8v-1.6H11l1,1.7l1-1.7h7.1v1.6h-1.8v5.1h-1.8v-5.1h-1.8
	v-1.1L12.9,15l2.3,3.3h-2.1l-1.3-1.9l-1.3,1.9h-2l2.3-3.5l-1.7-2.6v1H7.3v5.1H5.7V13.3z"/>
</svg>
