<?xml version="1.0" encoding="UTF-8"?>
<svg xmlns="http://www.w3.org/2000/svg" xmlns:xlink="http://www.w3.org/1999/xlink" width="24pt" height="24pt" viewBox="0 0 24 24" version="1.1">
<g id="surface1">
<path style=" stroke:none;fill-rule:nonzero;fill:rgb(0%,0%,0%);fill-opacity:1;" d="M 21.601562 8.617188 L 21.601562 5.453125 C 21.601562 5.453125 21.601562 5.34375 21.601562 5.34375 L 16.472656 0.21875 C 16.253906 0 16.144531 0 15.925781 0 L 2.835938 0 C 2.617188 0 2.398438 0.21875 2.398438 0.4375 L 2.398438 8.617188 L 0 8.617188 L 0 21.382812 L 2.398438 21.382812 L 2.398438 23.5625 C 2.398438 23.78125 2.617188 24 2.835938 24 L 21.164062 24 C 21.382812 24 21.601562 23.78125 21.601562 23.5625 L 21.601562 21.382812 L 24 21.382812 L 24 8.617188 Z M 16.363281 1.417969 L 20.074219 5.128906 L 16.363281 5.128906 Z M 3.273438 0.871094 L 15.492188 0.871094 L 15.492188 5.671875 C 15.492188 5.890625 15.710938 6.109375 15.925781 6.109375 L 20.726562 6.109375 L 20.726562 8.726562 L 3.273438 8.726562 Z M 20.726562 23.128906 L 3.273438 23.128906 L 3.273438 21.382812 L 20.726562 21.382812 Z M 23.128906 20.617188 L 0.871094 20.617188 L 0.871094 9.492188 L 23.128906 9.492188 Z M 9.273438 15.816406 L 9.273438 14.726562 L 12 14.726562 L 12 17.238281 C 11.78125 17.453125 11.34375 17.671875 10.800781 17.890625 C 10.253906 18.109375 9.816406 18.21875 9.273438 18.21875 C 8.617188 18.21875 8.074219 18.109375 7.527344 17.78125 C 6.980469 17.453125 6.65625 17.128906 6.4375 16.582031 C 6.21875 16.035156 6.109375 15.492188 6.109375 14.945312 C 6.109375 14.289062 6.21875 13.746094 6.546875 13.199219 C 6.761719 12.65625 7.199219 12.328125 7.746094 12 C 8.183594 11.78125 8.617188 11.671875 9.273438 11.671875 C 10.035156 11.671875 10.691406 11.78125 11.128906 12.109375 C 11.5625 12.4375 11.890625 12.871094 12 13.417969 L 10.800781 13.636719 C 10.691406 13.308594 10.582031 13.089844 10.253906 12.871094 C 10.035156 12.65625 9.710938 12.65625 9.382812 12.65625 C 8.835938 12.65625 8.398438 12.871094 8.074219 13.199219 C 7.746094 13.527344 7.636719 14.074219 7.636719 14.726562 C 7.636719 15.492188 7.855469 16.035156 8.183594 16.363281 C 8.507812 16.691406 8.945312 16.910156 9.492188 16.910156 C 9.710938 16.910156 10.035156 16.910156 10.253906 16.800781 C 10.472656 16.691406 10.800781 16.582031 10.910156 16.472656 L 10.910156 15.710938 L 9.273438 15.710938 Z M 14.507812 18.109375 L 14.507812 12.871094 L 12.65625 12.871094 L 12.65625 11.78125 L 17.671875 11.78125 L 17.671875 12.871094 L 15.816406 12.871094 L 15.816406 18.109375 Z M 14.507812 18.109375 "/>
</g>
</svg>
