<?xml version="1.0" encoding="utf-8"?>
<!-- Generator: Adobe Illustrator 21.1.0, SVG Export Plug-In . SVG Version: 6.00 Build 0)  -->
<svg version="1.1" id="Layer_1" xmlns="http://www.w3.org/2000/svg" xmlns:xlink="http://www.w3.org/1999/xlink" x="0px" y="0px"
	 viewBox="0 0 24 24" style="enable-background:new 0 0 24 24;" xml:space="preserve">
<path d="M6.7,16.6c-0.3-0.3-0.6-0.9-0.6-1.4c0-0.6,0.2-1.2,0.6-1.5C7.1,13.2,7.6,13,8.1,13c0.5,0,0.9,0.2,1.3,0.5
	c0.2,0.2,0.3,0.5,0.5,0.8l0.1,0.2l-1.2,0.4v-0.3c0-0.1,0-0.1-0.2-0.2l-0.1,0c-0.1-0.1-0.2-0.1-0.3-0.1c-0.3,0-0.3,0.1-0.4,0.2l0,0.1
	c-0.1,0.1-0.1,0.3-0.1,0.7c0,0.3,0,0.6,0.2,0.8C8,16.2,8.3,16.1,8.4,16c0,0,0.1-0.3,0.1-0.5v-0.3l1.2,0.4l-0.1,0.2
	c-0.1,0.5-0.4,0.8-0.6,1c-0.3,0.3-0.7,0.4-1.1,0.4C7.6,17.1,7.1,16.9,6.7,16.6z M24,8.4v12.9h-2.4v1.9c0,0.3-0.3,0.6-0.6,0.6H3
	c-0.3,0-0.6-0.3-0.6-0.6v-1.9H0v-13h2.4V0.5c0-0.3,0.3-0.6,0.6-0.6h12.8c0.2,0,0.4,0,0.7,0.3l5.2,5.2v3.1H24z M3.6,21.5v1.4h16.7
	v-1.4H3.6z M19.3,5l-2.8-2.8V5H19.3z M15.2,5.7V1.3H3.6v7.1h16.7v-2h-4.5C15.5,6.4,15.2,6.1,15.2,5.7z M1.3,9.8v10.5h21.5V9.8H1.3z
	 M2.8,15.5l0.9-0.1c-0.2-0.1-0.3-0.2-0.4-0.3c-0.2-0.2-0.3-0.5-0.3-0.8c0-0.3,0.1-0.5,0.2-0.6c0.1-0.2,0.2-0.3,0.3-0.4
	c0,0,0.1,0,0.1-0.1l0.1,0C3.9,13,4.2,13,4.5,13c0.5,0,0.9,0.1,1.2,0.4C5.8,13.6,6,14,6.1,14.3l0.1,0.3H5.5c0,0,0,0,0,0
	c0.2,0.1,0.4,0.3,0.5,0.5c0.1,0.2,0.1,0.4,0.1,0.7c0,0.3-0.1,0.5-0.2,0.7c-0.1,0.3-0.4,0.4-0.6,0.5l-0.1,0c0,0-0.1,0-0.1,0
	c-0.1,0-0.3,0.1-0.6,0.1c-0.5,0-0.9-0.1-1.2-0.4c-0.2-0.2-0.4-0.5-0.6-1L2.8,15.5z M4.1,14.2c0,0,0.2,0.1,0.5,0.1c0.1,0,0.2,0,0.2,0
	c0-0.1,0-0.1-0.1-0.2c0,0-0.2,0-0.3,0C4.4,14.1,4.2,14.1,4.1,14.2C4.1,14.1,4.1,14.1,4.1,14.2L4.1,14.2z M4.5,15.7
	c-0.1,0-0.2-0.1-0.3-0.1c-0.1,0-0.1,0-0.2,0v0.1c0,0.1,0.1,0.2,0.2,0.3l0.1,0c0.1,0.1,0.2,0.1,0.3,0.1c0.1,0,0.3,0,0.3,0
	c0,0,0,0,0.1-0.1h0v-0.2c0,0-0.1,0-0.1-0.1C4.7,15.8,4.6,15.7,4.5,15.7z M11.1,17.1H9.9V13h1.7c0.5,0,0.7,0,0.9,0.1
	c0.2,0.1,0.3,0.2,0.4,0.3l0,0.1c0.1,0.2,0.2,0.4,0.2,0.7c0,0.4-0.1,0.6-0.2,0.8l0,0.1c-0.1,0.1-0.2,0.2-0.3,0.2c0,0,0,0,0,0
	c0.1,0.1,0.1,0.2,0.2,0.3c0.1,0.1,0.1,0.2,0.2,0.3l0.2,0.4V13h1.2v4h-2.2L11.6,16c0-0.1-0.1-0.2-0.1-0.2c-0.1,0-0.1-0.1-0.2-0.1
	h-0.2V17.1z M11.9,14.2L11.9,14.2l-0.9,0v0.4h0.8c0,0,0,0,0,0c0-0.1,0-0.1,0.1-0.2C12,14.3,11.9,14.3,11.9,14.2z M16.1,17.2h-1.3V13
	h1.4c0.4,0,0.7,0,1,0.1c0.2,0.1,0.4,0.2,0.5,0.4V13h3.3v1.1H20V17h-1.2v-2.9H18c0,0.1,0,0.2,0,0.3c0,0.2,0,0.5-0.1,0.7
	c-0.1,0.2-0.2,0.4-0.3,0.5c-0.1,0.1-0.2,0.1-0.3,0.2c0,0-0.1,0-0.2,0.1l-0.1,0c-0.1,0-0.1,0-0.2,0c-0.1,0-0.3,0.1-0.5,0.1h-0.2V17.2
	z M16.6,14.2H16v0.4h0.1c0.2,0,0.4,0,0.4,0l0.1-0.1l0.1,0c0-0.1,0-0.2,0.1-0.2c0-0.1,0-0.1,0-0.1C16.7,14.2,16.7,14.2,16.6,14.2z"/>
</svg>
