<?xml version="1.0" encoding="utf-8"?>
<!-- Generator: Adobe Illustrator 21.1.0, SVG Export Plug-In . SVG Version: 6.00 Build 0)  -->
<svg version="1.1" id="Layer_1" xmlns="http://www.w3.org/2000/svg" xmlns:xlink="http://www.w3.org/1999/xlink" x="0px" y="0px"
	 viewBox="0 0 24 24" style="enable-background:new 0 0 24 24;" xml:space="preserve">
<path d="M21.6,8.6V5.3l-5.2-5.2c-0.2-0.2-0.3-0.2-0.5-0.2H2.8c-0.2,0-0.4,0.2-0.4,0.4v8.2H0v12.8h2.4v2.2c0,0.2,0.2,0.4,0.4,0.4
	h18.4c0.2,0,0.4-0.2,0.4-0.4v-2.2H24V8.6H21.6z M16.4,1.4l3.7,3.7h-3.7V1.4z M3.2,0.8h12.3v4.8c0,0.2,0.2,0.4,0.4,0.4h4.8v2.5H3.2
	V0.8z M20.8,23.3H3.2v-1.9h17.5V23.3z M23.2,20.7H0.8V9.5h22.4V20.7z M4.7,17.9v-5.7h2.4c0.6,0,1.1,0.1,1.3,0.2s0.5,0.3,0.7,0.5
	c0.2,0.3,0.2,0.6,0.2,0.9c0,0.4-0.1,0.8-0.4,1.1c-0.3,0.3-0.6,0.5-1.1,0.5c0.2,0.1,0.5,0.3,0.6,0.5c0.2,0.2,0.4,0.5,0.7,0.9l0.7,1.1
	H8.5l-0.8-1.2c-0.3-0.4-0.5-0.7-0.6-0.8c-0.1-0.1-0.2-0.2-0.3-0.2s-0.3-0.1-0.6-0.1H5.9v2.4H4.7z M5.9,14.6h0.9c0.6,0,0.9,0,1-0.1
	s0.2-0.1,0.3-0.2c0.1-0.1,0.1-0.3,0.1-0.4c0-0.2-0.1-0.3-0.2-0.5c-0.1-0.1-0.2-0.2-0.4-0.2c-0.1,0-0.4,0-0.8,0H5.9V14.6z M11.8,17.9
	v-4.8h-1.7v-1h4.5v1h-1.7v4.8H11.8z M15.4,17.9v-5.7h3.9v1h-2.8v1.4h2.4v1h-2.4v2.4H15.4z"/>
</svg>
