<?xml version="1.0" encoding="utf-8"?>
<!-- Generator: Adobe Illustrator 21.1.0, SVG Export Plug-In . SVG Version: 6.00 Build 0)  -->
<svg version="1.1" id="Layer_1" xmlns="http://www.w3.org/2000/svg" xmlns:xlink="http://www.w3.org/1999/xlink" x="0px" y="0px"
	 viewBox="0 0 24 24" style="enable-background:new 0 0 24 24;" xml:space="preserve">
<path d="M16.6,12.2h-2.1l-0.8,3.1l-0.8-3.1h-1.8c0,0-0.1,0-0.1,0h-0.2v5.9L10,16.8c-0.3-0.5-0.5-0.8-0.7-1c-0.1-0.1-0.1-0.1-0.2-0.2
	c0.3-0.1,0.6-0.2,0.7-0.4c0.3-0.3,0.5-0.7,0.5-1.3c0-0.3-0.1-0.6-0.2-1l0-0.1c-0.2-0.3-0.5-0.5-0.8-0.6C8.8,12.2,8.4,12,7.8,12H5.2
	v6.1h1.7v-2.3c0.1,0,0.2,0,0.3,0C7.2,16,7.3,16,7.3,16c0,0,0.1,0,0.1,0.1c0.1,0.1,0.1,0.2,0.3,0.3c0.1,0.1,0.2,0.3,0.3,0.4l1,1.4
	h3.2V18h0.1v-2.4l0.6,2.6h1.5l0.6-2.6v2.6h1.6L16.6,12.2C16.6,12.2,16.6,12.2,16.6,12.2z M8.5,14.2c0,0-0.1,0.1-0.1,0.1
	c0,0-0.1,0-0.2,0c-0.2,0-0.5,0.1-0.8,0.1H6.8v-0.9h1.4c0.1,0,0.1,0,0.2,0.1c0,0,0.1,0.2,0.1,0.3C8.5,14.1,8.5,14.2,8.5,14.2z
	 M21.6,8.5V5.4l-5.2-5.2C16.2,0,16.1,0,15.8,0H3C2.7,0,2.4,0.3,2.4,0.6v7.8H0v13h2.4v1.9C2.4,23.7,2.7,24,3,24h18
	c0.3,0,0.6-0.3,0.6-0.6v-1.9H24V8.5H21.6z M20.3,21.6v1.4H3.6v-1.4H20.3z M16.6,5.1V2.3l2.8,2.8H16.6z M15.8,6.5h4.5v2H3.6V1.4h11.6
	v4.5C15.2,6.2,15.5,6.5,15.8,6.5z M22.7,9.9v10.5H1.3V9.9H22.7z M18.9,18.2h-1.7v-6.1h1.7V18.2z"/>
</svg>
