<?xml version="1.0" encoding="utf-8"?>
<!-- Generator: Adobe Illustrator 21.1.0, SVG Export Plug-In . SVG Version: 6.00 Build 0)  -->
<svg version="1.1" id="Layer_1" xmlns="http://www.w3.org/2000/svg" xmlns:xlink="http://www.w3.org/1999/xlink" x="0px" y="0px"
	 viewBox="0 0 24 24" style="enable-background:new 0 0 24 24;" xml:space="preserve">
<path d="M13.2,17.7h-1.7v-6.1h1.7v2.3H15v-2.3h1.7v6.1H15v-2.4h-1.8V17.7z M24,8.4v12.9h-2.4v1.9c0,0.3-0.3,0.6-0.6,0.6H3
	c-0.3,0-0.6-0.3-0.6-0.6v-1.9H0v-13h2.4V0.5c0-0.3,0.3-0.6,0.6-0.6h12.8c0.2,0,0.4,0,0.7,0.3l5.2,5.2v3.1H24z M3.6,21.5v1.4h16.7
	v-1.4H3.6z M19.3,5l-2.8-2.8V5H19.3z M15.2,5.7V1.3H3.6v7.1h16.7v-2h-4.5C15.5,6.4,15.2,6.1,15.2,5.7z M1.3,9.8v10.5h21.5V9.8H1.3z
	 M6.6,17.3L6.6,17.3l0.1,0.1c0.5,0.3,1.1,0.5,1.8,0.5c0.4,0,0.8-0.1,1.2-0.2c0.5-0.1,0.7-0.4,0.9-0.7c0.2-0.3,0.3-0.7,0.3-1
	c0-0.3-0.1-0.7-0.2-1c-0.1-0.4-0.4-0.6-0.7-0.7c-0.1-0.1-0.3-0.1-0.6-0.2c-0.2-0.1-0.4-0.1-0.6-0.2c-0.2-0.1-0.3-0.1-0.4-0.1
	c-0.2-0.1-0.5-0.2-0.5-0.2l-0.1-0.1h0c0,0,0,0,0,0c0-0.1,0-0.1,0.1-0.2c0.1-0.1,0.4-0.2,0.6-0.2c0.2,0,0.5,0.1,0.5,0.1
	c0.1,0.1,0.2,0.2,0.2,0.4v0.3l1.7-0.1v-0.2c0-0.7-0.4-1.2-0.7-1.4c-0.4-0.4-1-0.6-1.7-0.6c-0.4,0-0.7,0.1-1.2,0.2
	c-0.4,0.1-0.7,0.5-0.8,0.7c-0.1,0.1-0.2,0.5-0.2,0.9c0,0.5,0.1,1,0.6,1.3C7,15,7.4,15.1,7.9,15.3c0.1,0,0.2,0.1,0.3,0.1
	c0.2,0,0.4,0.1,0.6,0.1c0.4,0.1,0.4,0,0.6,0.2c0,0,0,0,0,0.1c0,0.2,0,0.2-0.2,0.4c0,0-0.3,0.1-0.6,0.1c-0.2,0-0.5-0.1-0.6-0.2
	l-0.1,0c-0.1-0.1-0.2-0.5-0.3-0.6l-0.1-0.2l-1.5,0.1v0.2c0,0.6,0.2,0.9,0.4,1.3C6.5,17.1,6.5,17.2,6.6,17.3z"/>
</svg>
