<?xml version="1.0" encoding="utf-8"?>
<!-- Generator: Adobe Illustrator 21.1.0, SVG Export Plug-In . SVG Version: 6.00 Build 0)  -->
<svg version="1.1" id="Layer_1" xmlns="http://www.w3.org/2000/svg" xmlns:xlink="http://www.w3.org/1999/xlink" x="0px" y="0px"
	 viewBox="0 0 24 24" style="enable-background:new 0 0 24 24;" xml:space="preserve">
<path d="M6.6,17.6C6.2,17.2,6,16.6,6,16v-0.2l1.7-0.2v0.3c0,0.2,0,0.4,0.1,0.5c0,0.1,0,0.1,0,0.2c0,0.1,0.1,0.2,0.4,0.2
	c0.2,0,0.3-0.1,0.4-0.1c0,0,0.1-0.3,0.1-0.8v-4.2h1.8v4.1c0,0.5,0,0.9-0.1,1.3c-0.1,0.4-0.4,0.8-0.7,1c-0.4,0.2-0.8,0.4-1.4,0.4
	C7.5,18.2,7,18,6.6,17.6z M24,8.4v13h-2.3v1.9c0,0.4-0.3,0.7-0.7,0.7H3c-0.4,0-0.7-0.3-0.7-0.7v-1.9H0v-13h2.3V0.7
	C2.3,0.3,2.7,0,3,0h12.8c0.3,0,0.4,0,0.7,0.3l5.1,5.1v3.1H24z M3.7,21.4v1.2h16.6v-1.2H3.7z M19.3,5l-2.8-2.8V5H19.3z M15.2,5.8V1.3
	H3.7v7.2h16.6V6.5h-4.5C15.5,6.5,15.2,6.1,15.2,5.8z M1.3,9.8v10.4h21.3V9.8H1.3z M11.5,17.8L11.5,17.8l0.1,0.1
	c0.5,0.4,1.2,0.6,2,0.6c0.6,0,1.1-0.1,1.3-0.2c0.5-0.1,0.8-0.4,1-0.7c0.2-0.4,0.4-0.7,0.4-1.1c0-0.4-0.1-0.6-0.2-0.9L16,15.3
	c-0.1-0.4-0.4-0.7-0.8-0.8c-0.1-0.1-0.4-0.1-0.7-0.2c-0.2-0.1-0.4-0.1-0.6-0.2c-0.2-0.1-0.3-0.1-0.5-0.1c-0.3-0.1-0.6-0.2-0.6-0.2
	l-0.1-0.1h0c0,0,0-0.1,0-0.1c0-0.1,0-0.1,0.1-0.2c0.1-0.1,0.4-0.2,0.7-0.2c0.2,0,0.4,0.1,0.6,0.2c0.1,0.1,0.2,0.2,0.2,0.4v0.3
	l1.8-0.1v-0.2c0-0.8-0.4-1.3-0.7-1.6c-0.4-0.4-1.1-0.6-1.9-0.6c-0.5,0-0.9,0-1.3,0.3c-0.4,0.2-0.7,0.5-0.8,0.7
	c-0.1,0.1-0.2,0.5-0.2,1c0,0.5,0.1,1,0.6,1.5c0.2,0.3,0.7,0.4,1.1,0.6c0.1,0,0.2,0.1,0.4,0.1c0.3,0.1,0.5,0.1,0.6,0.1
	c0.4,0.1,0.5,0,0.6,0.2l0,0c0,0,0,0.1,0,0.1c0,0.2,0,0.3-0.2,0.5c0,0-0.3,0.1-0.7,0.1c-0.3,0-0.5-0.1-0.7-0.2l-0.1,0
	c-0.1-0.1-0.3-0.5-0.3-0.7l-0.1-0.2l-1.6,0.1V16c0,0.6,0.2,1,0.4,1.5C11.4,17.5,11.4,17.6,11.5,17.8z"/>
</svg>
