<?xml version="1.0" encoding="utf-8"?>
<!-- Generator: Adobe Illustrator 21.1.0, SVG Export Plug-In . SVG Version: 6.00 Build 0)  -->
<svg version="1.1" id="Layer_1" xmlns="http://www.w3.org/2000/svg" xmlns:xlink="http://www.w3.org/1999/xlink" x="0px" y="0px"
	 viewBox="0 0 24 24" style="enable-background:new 0 0 24 24;" xml:space="preserve">
<path d="M23.9,8.4h-2.2V5.4l-5.1-5.1C16.3,0,16.1,0,15.8,0H3C2.7,0,2.3,0.3,2.3,0.7v7.8H0v13h2.3v1.9C2.3,23.7,2.7,24,3,24h18
	c0.4,0,0.7-0.3,0.7-0.7v-1.9h2.2V8.4z M16.5,5V2.2L19.3,5H16.5z M3.7,21.4h16.6v1.3H3.7V21.4z M3.7,20.2H2.3h-1V9.8h1h1.3h16.6h1.3
	h1v10.4h-1h-1.3H3.7z M15.8,6.5h4.5v2H3.7V1.3h11.5v4.5C15.2,6.1,15.5,6.5,15.8,6.5z M14.5,11.4H18V18h-1.8v-6.4L13.9,18h-1.6
	l-0.1-0.2l-2.3-6.4h1.9l1.3,4L14.5,11.4z M6.9,11.4L4.4,18h1.8l0.5-1.4h2l0.1,0.2v-0.2L9.4,18h1.8l-2.7-6.6H6.9z M7.7,13.8l0.5,1.3
	h-1L7.7,13.8z"/>
</svg>
