<?xml version="1.0" encoding="utf-8"?>
<!-- Generator: Adobe Illustrator 21.1.0, SVG Export Plug-In . SVG Version: 6.00 Build 0)  -->
<svg version="1.1" id="Layer_1" xmlns="http://www.w3.org/2000/svg" xmlns:xlink="http://www.w3.org/1999/xlink" x="0px" y="0px"
	 viewBox="0 0 24 24" style="enable-background:new 0 0 24 24;" xml:space="preserve">
<path d="M21.6,8.4V5.3l-5.2-5.2c-0.2-0.2-0.4-0.3-0.7-0.3H3c-0.3,0-0.6,0.3-0.6,0.6v7.8H0v13h2.4v1.9c0,0.3,0.3,0.6,0.6,0.6h18
	c0.3,0,0.6-0.3,0.6-0.6v-1.9H24V8.4H21.6z M20.3,21.5v1.4H3.6v-1.4H20.3z M16.6,5V2.2L19.3,5H16.6z M15.8,6.4h4.5v2H3.6V1.3h11.6
	v4.5C15.2,6.1,15.5,6.4,15.8,6.4z M22.7,9.8v10.5H1.3V9.8H22.7z M19.4,11.8h-0.1l0,0h-0.9l-0.8,3.1l-0.8-3.1h-1l0,0h-0.1v0h-1v6
	l-2.4-6h-1.5l-2.1,5.4l-0.5-0.8L8,16.2c-0.2-0.2-0.3-0.4-0.5-0.6c0-0.1-0.1-0.1-0.2-0.2c0.3-0.1,0.5-0.3,0.6-0.4
	c0.3-0.3,0.5-0.7,0.5-1.3c0-0.3,0-0.8-0.3-1.1c-0.2-0.2-0.5-0.4-0.7-0.5c-0.3-0.1-0.8-0.2-1.4-0.2H3.4V18H5v-2.4h0
	c0.2,0,0.3,0,0.4,0.1c0.1,0,0.1,0,0.2,0c0,0,0.1,0.1,0.1,0.1c0.1,0.1,0.1,0.2,0.3,0.4c0.1,0.1,0.2,0.3,0.3,0.4l0.9,1.3H10l0.5-1.3
	h1.9l0.5,1.3h3.3v-2.6l0.6,2.6h1.5l0.6-2.6v2.6h1.6v-6.1L19.4,11.8L19.4,11.8z M6.7,14C6.7,14,6.7,14,6.7,14
	c-0.1,0.1-0.2,0.1-0.3,0.2c-0.1,0-0.4,0-0.8,0H5v-0.9h1.5c0.1,0,0.1,0,0.2,0.1c0,0,0,0.1,0.1,0.1c0.1,0.1,0.1,0.2,0.1,0.2
	C6.9,13.9,6.8,13.9,6.7,14z M11.1,15.3l0.4-1.1l0.4,1.1H11.1z"/>
</svg>
