<?xml version="1.0" encoding="utf-8"?>
<!-- Generator: Adobe Illustrator 21.1.0, SVG Export Plug-In . SVG Version: 6.00 Build 0)  -->
<svg version="1.1" id="Layer_1" xmlns="http://www.w3.org/2000/svg" xmlns:xlink="http://www.w3.org/1999/xlink" x="0px" y="0px"
	 viewBox="0 0 24 24" style="enable-background:new 0 0 24 24;" xml:space="preserve">
<path d="M21.6,8.4V5.3l-5.2-5.2c-0.2-0.2-0.4-0.3-0.7-0.3H3c-0.3,0-0.6,0.3-0.6,0.6v7.8H0v13h2.4v1.9c0,0.3,0.3,0.6,0.6,0.6h18
	c0.3,0,0.6-0.3,0.6-0.6v-1.9H24V8.4H21.6z M20.3,21.5v1.4H3.6v-1.4H20.3z M16.6,5V2.2L19.3,5H16.6z M15.8,6.4h4.5v2H3.6V1.3h11.6
	v4.5C15.2,6.1,15.5,6.4,15.8,6.4z M22.7,9.8v10.5H1.3V9.8H22.7z M6.1,16h0.5c0.5,0,0.9,0,1.3-0.1c0.1,0,0.1,0,0.2-0.1
	c0.1,0,0.3-0.1,0.5-0.3c0.2-0.2,0.4-0.4,0.5-0.7l0-0.1c0.1-0.2,0.2-0.5,0.2-0.8c0-0.5-0.1-0.9-0.3-1.2c-0.2-0.3-0.5-0.6-0.9-0.7
	c-0.2-0.1-0.7-0.1-1.5-0.1H4.5v6.3h1.6V16z M7.5,13.9c0,0.1,0,0.2,0,0.2c-0.1,0.1-0.2,0.2-0.4,0.3c-0.1,0-0.4,0-0.7,0H6.1v-1.1h1
	c0.2,0.1,0.3,0.2,0.4,0.2C7.5,13.6,7.5,13.7,7.5,13.9z M16.9,18h-1.6v-6.2h4.3v1.5h-2.7v0.9h2.4v1.5h-2.4V18z M13.2,17.8L13.2,17.8
	c0.2-0.1,0.3-0.2,0.4-0.2c0.2-0.1,0.4-0.2,0.5-0.3c0.4-0.3,0.6-0.8,0.7-1.1c0.1-0.4,0.2-0.8,0.2-1.3c0-0.6-0.1-1-0.2-1.4
	c-0.1-0.3-0.3-0.6-0.5-0.9l-0.1-0.1c-0.3-0.2-0.6-0.4-0.9-0.5c-0.3-0.1-0.7-0.1-1.2-0.1H9.7v6.1h2.4C12.5,17.9,12.8,17.9,13.2,17.8z
	 M11.4,16.6v-3.3h0.4c0.2,0,0.4,0,0.5,0.1c0.1,0,0.2,0,0.3,0c0.1,0.1,0.3,0.1,0.4,0.2l0.3,0.5c0.1,0.1,0.1,0.5,0.1,0.9
	c0,0.4,0,0.6-0.1,0.9c-0.1,0.3-0.2,0.4-0.2,0.5c0,0-0.1,0-0.1,0.1c-0.1,0.1-0.2,0.1-0.2,0.1l-0.1,0l-0.1,0.1c-0.1,0-0.4,0-0.5,0
	H11.4z"/>
</svg>
