<?xml version="1.0" encoding="utf-8"?>
<!-- Generator: Adobe Illustrator 21.1.0, SVG Export Plug-In . SVG Version: 6.00 Build 0)  -->
<svg version="1.1" id="Layer_1" xmlns="http://www.w3.org/2000/svg" xmlns:xlink="http://www.w3.org/1999/xlink" x="0px" y="0px"
	 viewBox="0 0 24 24" style="enable-background:new 0 0 24 24;" xml:space="preserve">
<path d="M21.6,8.7V5.4l-5.2-5.2C16.2,0,16.1,0,15.9,0H2.8C2.6,0,2.4,0.2,2.4,0.4v8.2H0v12.8h2.4v2.2c0,0.2,0.2,0.4,0.4,0.4h18.4
	c0.2,0,0.4-0.2,0.4-0.4v-2.2H24V8.7H21.6z M16.4,1.5l3.7,3.7h-3.7V1.5z M3.2,0.9h12.3v4.8c0,0.2,0.2,0.4,0.4,0.4h4.8v2.5H3.2V0.9z
	 M20.7,23.4H3.2v-1.9h17.5V23.4z M23.2,20.8H0.8V9.6h22.4V20.8z M3.3,17H2.6v-3.9h1.2l0.7,2.7l0.7-2.7h1.2V17H5.6v-3.1L4.8,17H4.1
	l-0.8-3.1V17z M8,17H7.2v-3.9H8v1.6h1.6v-1.6h0.8V17H9.5v-1.7H8V17z M21.9,17h-2.8v-3.9h0.8v3.2h2V17z M12,13.8h-1.2v-0.7H14v0.7
	h-1.2V17H12V13.8z M15.2,17h-0.7v-3.9h1.2l0.7,2.7l0.7-2.7h1.2V17h-0.7v-3.1L16.8,17H16l-0.8-3.1V17z"/>
</svg>
