<?xml version="1.0" encoding="utf-8"?>
<!-- Generator: Adobe Illustrator 21.1.0, SVG Export Plug-In . SVG Version: 6.00 Build 0)  -->
<svg version="1.1" id="Layer_1" xmlns="http://www.w3.org/2000/svg" xmlns:xlink="http://www.w3.org/1999/xlink" x="0px" y="0px"
	 viewBox="0 0 24 24" style="enable-background:new 0 0 24 24;" xml:space="preserve">
<path d="M9.6,12.2v6.1H8.2v-2.6l-0.6,2.6H6l-0.6-2.6v2.6H3.8v-6.1h0.5c0,0,0,0,0,0h1.6l0.8,3.1l0.8-3.1H9.6z M24,8.4v12.9h-2.4v1.9
	c0,0.3-0.3,0.6-0.6,0.6H3c-0.3,0-0.6-0.3-0.6-0.6v-1.9H0v-13h2.4V0.5c0-0.3,0.3-0.6,0.6-0.6h12.8c0.2,0,0.4,0,0.7,0.3l5.2,5.2v3.1
	H24z M3.6,21.5v1.4h16.7v-1.4H3.6z M19.3,5l-2.8-2.8V5H19.3z M15.2,5.7V1.3H3.6v7.1h16.7v-2h-4.5C15.5,6.4,15.2,6.1,15.2,5.7z
	 M1.3,9.8v10.5h21.5V9.8H1.3z M12,18.4h-1.6v-6.3h2.1c0.8,0,1.2,0,1.5,0.1c0.3,0.1,0.7,0.4,0.9,0.7c0.2,0.3,0.3,0.8,0.3,1.2
	c0,0.4-0.1,0.6-0.2,0.8l0,0.1c-0.1,0.3-0.3,0.5-0.5,0.7c-0.2,0.2-0.3,0.2-0.5,0.3c-0.1,0-0.1,0-0.2,0.1c-0.4,0.1-0.8,0.1-1.3,0.1H12
	V18.4z M13.4,13.8c-0.1-0.1-0.2-0.1-0.4-0.2h-1v1.1h0.3c0.3,0,0.6,0,0.7,0c0.2-0.1,0.3-0.2,0.4-0.3c0,0,0-0.1,0-0.2
	C13.5,14,13.4,13.9,13.4,13.8z M20.4,16.9h-3.1v-1.1h2.8v-1.5h-2.8v-0.8h3v-1.5h-4.6v6.3h4.7V16.9z"/>
</svg>
