<?xml version="1.0" encoding="UTF-8"?>
<svg xmlns="http://www.w3.org/2000/svg" xmlns:xlink="http://www.w3.org/1999/xlink" width="24pt" height="24pt" viewBox="0 0 24 24" version="1.1">
<g id="surface1">
<path style=" stroke:none;fill-rule:nonzero;fill:rgb(0%,0%,0%);fill-opacity:1;" d="M 23.890625 8.617188 L 21.601562 8.617188 L 21.601562 5.34375 L 16.472656 0.21875 C 16.253906 0 16.144531 0 15.925781 0 L 2.835938 0 C 2.617188 0 2.398438 0.21875 2.398438 0.4375 L 2.398438 8.617188 L 0 8.617188 L 0 21.382812 L 2.398438 21.382812 L 2.398438 23.5625 C 2.398438 23.78125 2.617188 24 2.835938 24 L 21.164062 24 C 21.382812 24 21.601562 23.78125 21.601562 23.5625 L 21.601562 21.382812 L 23.890625 21.382812 Z M 16.363281 1.417969 L 20.074219 5.128906 L 16.363281 5.128906 Z M 3.273438 0.871094 L 15.492188 0.871094 L 15.492188 5.671875 C 15.492188 5.890625 15.710938 6.109375 15.925781 6.109375 L 20.726562 6.109375 L 20.726562 8.617188 L 3.273438 8.617188 Z M 20.726562 23.238281 L 3.273438 23.238281 L 3.273438 21.382812 L 20.726562 21.382812 Z M 23.128906 20.617188 L 0.871094 20.617188 L 0.871094 9.492188 L 23.128906 9.492188 Z M 5.34375 18 L 5.34375 12.761719 L 3.492188 12.761719 L 3.492188 11.671875 L 8.507812 11.671875 L 8.507812 12.761719 L 6.546875 12.761719 L 6.546875 18 Z M 14.183594 18 L 12.761719 18 L 12.21875 16.582031 L 9.816406 16.582031 L 9.273438 18 L 7.964844 18 L 10.363281 11.78125 L 11.671875 11.78125 Z M 11.890625 15.492188 L 11.019531 13.199219 L 10.144531 15.492188 Z M 14.945312 18 L 14.945312 11.78125 L 17.5625 11.78125 C 18.21875 11.78125 18.761719 11.890625 18.980469 12 C 19.199219 12.109375 19.527344 12.328125 19.746094 12.546875 C 19.964844 12.761719 19.964844 13.199219 19.964844 13.527344 C 19.964844 13.964844 19.855469 14.398438 19.527344 14.726562 C 19.199219 15.054688 18.871094 15.273438 18.328125 15.273438 C 18.546875 15.382812 18.871094 15.601562 18.980469 15.816406 C 19.089844 16.035156 19.417969 16.363281 19.746094 16.800781 L 20.507812 18 L 18.980469 18 L 18.109375 16.691406 C 17.78125 16.253906 17.5625 15.925781 17.453125 15.816406 C 17.34375 15.710938 17.238281 15.601562 17.128906 15.601562 C 17.019531 15.601562 16.800781 15.492188 16.472656 15.492188 L 16.253906 15.492188 L 16.253906 18.109375 L 14.945312 18.109375 Z M 16.144531 14.398438 L 17.128906 14.398438 C 17.78125 14.398438 18.109375 14.398438 18.21875 14.289062 C 18.328125 14.183594 18.546875 14.183594 18.546875 14.074219 C 18.546875 13.964844 18.65625 13.746094 18.65625 13.636719 C 18.65625 13.417969 18.546875 13.308594 18.4375 13.089844 C 18.328125 12.980469 18.21875 12.871094 18 12.871094 C 17.890625 12.871094 17.5625 12.871094 17.128906 12.871094 L 16.144531 12.871094 Z M 16.144531 14.398438 "/>
</g>
</svg>
