<?xml version="1.0" encoding="UTF-8"?>
<svg xmlns="http://www.w3.org/2000/svg" xmlns:xlink="http://www.w3.org/1999/xlink" width="24pt" height="24pt" viewBox="0 0 24 24" version="1.1">
<g id="surface1">
<path style=" stroke:none;fill-rule:nonzero;fill:rgb(0%,0%,0%);fill-opacity:1;" d="M 21.601562 8.617188 L 21.601562 5.453125 C 21.601562 5.453125 21.601562 5.34375 21.601562 5.34375 L 16.472656 0.21875 C 16.253906 0 16.144531 0 15.925781 0 L 2.835938 0 C 2.617188 0 2.398438 0.21875 2.398438 0.4375 L 2.398438 8.617188 L 0 8.617188 L 0 21.382812 L 2.398438 21.382812 L 2.398438 23.5625 C 2.398438 23.78125 2.617188 24 2.835938 24 L 21.164062 24 C 21.382812 24 21.601562 23.78125 21.601562 23.5625 L 21.601562 21.382812 L 24 21.382812 L 24 8.617188 Z M 16.363281 1.417969 L 20.074219 5.128906 L 16.363281 5.128906 Z M 3.273438 0.871094 L 15.492188 0.871094 L 15.492188 5.671875 C 15.492188 5.890625 15.710938 6.109375 15.925781 6.109375 L 20.726562 6.109375 L 20.726562 8.726562 L 3.273438 8.726562 Z M 20.726562 23.128906 L 3.273438 23.128906 L 3.273438 21.382812 L 20.726562 21.382812 Z M 23.128906 20.617188 L 0.871094 20.617188 L 0.871094 9.492188 L 23.128906 9.492188 Z M 4.144531 17.78125 L 6.328125 14.507812 L 4.363281 11.5625 L 5.890625 11.5625 L 7.089844 13.527344 L 8.289062 11.5625 L 9.710938 11.5625 L 7.746094 14.617188 L 9.925781 17.78125 L 8.398438 17.78125 L 6.980469 15.601562 L 5.5625 17.78125 Z M 10.582031 17.78125 L 10.582031 11.5625 L 12.4375 11.5625 L 13.527344 15.816406 L 14.617188 11.5625 L 16.472656 11.5625 L 16.472656 17.78125 L 15.273438 17.78125 L 15.273438 12.871094 L 14.183594 17.78125 L 12.980469 17.78125 L 11.78125 12.871094 L 11.78125 17.78125 Z M 17.78125 17.78125 L 17.78125 11.5625 L 19.089844 11.5625 L 19.089844 17.78125 Z M 17.78125 17.78125 "/>
</g>
</svg>
