<?xml version="1.0" encoding="utf-8"?>
<!-- Generator: Adobe Illustrator 21.1.0, SVG Export Plug-In . SVG Version: 6.00 Build 0)  -->
<svg version="1.1" id="Layer_1" xmlns="http://www.w3.org/2000/svg" xmlns:xlink="http://www.w3.org/1999/xlink" x="0px" y="0px"
	 viewBox="0 0 24 24" style="enable-background:new 0 0 24 24;" xml:space="preserve">
<path d="M21.6,8.4V5.3l-5.2-5.2c-0.2-0.2-0.4-0.3-0.7-0.3H3c-0.3,0-0.6,0.3-0.6,0.6v7.8H0v13h2.4v1.9c0,0.3,0.3,0.6,0.6,0.6h18
	c0.3,0,0.6-0.3,0.6-0.6v-1.9H24V8.4H21.6z M20.3,21.5v1.4H3.6v-1.4H20.3z M16.6,5V2.2L19.3,5H16.6z M15.8,6.4h4.5v2H3.6V1.3h11.6
	v4.5C15.2,6.1,15.5,6.4,15.8,6.4z M22.7,9.8v10.5H1.3V9.8H22.7z M16.8,13.2h-1.7v-1.5h5v1.5h-1.7v4.7h-1.7V13.2z M12,16h0.5
	c0.5,0,0.9,0,1.3-0.1c0.1,0,0.1,0,0.2-0.1c0.1,0,0.3-0.1,0.5-0.3c0.2-0.2,0.4-0.4,0.5-0.7l0-0.1c0.1-0.2,0.2-0.5,0.2-0.8
	c0-0.5-0.1-0.9-0.3-1.2c-0.2-0.3-0.5-0.6-0.9-0.7c-0.2-0.1-0.7-0.1-1.5-0.1h-2.1v6.3H12V16z M13.4,13.8c0,0.2,0,0.2,0,0.2
	c-0.1,0.1-0.2,0.2-0.4,0.3c-0.1,0-0.4,0-0.7,0H12v-1.1h1c0.1,0.1,0.3,0.2,0.4,0.2C13.3,13.5,13.4,13.6,13.4,13.8z M6.8,15.9h0.5
	c0.5,0,0.9,0,1.3-0.1c0.1,0,0.1,0,0.2-0.1c0.1,0,0.3-0.1,0.5-0.3c0.2-0.2,0.3-0.3,0.5-0.6l0-0.1c0.1-0.2,0.2-0.5,0.2-0.8
	c0-0.5-0.1-0.9-0.3-1.2C9.3,12.3,9,12.1,8.7,12c-0.2-0.1-0.7-0.1-1.5-0.1H5.1V18h1.7V15.9z M8.2,13.8c0,0.2,0,0.2,0,0.2
	c-0.1,0.1-0.2,0.2-0.4,0.3c-0.1,0-0.4,0-0.7,0H6.8v-1.1h1c0.1,0.1,0.3,0.2,0.4,0.2C8.2,13.5,8.2,13.6,8.2,13.8z"/>
</svg>
