<?xml version="1.0" encoding="UTF-8"?>
<svg xmlns="http://www.w3.org/2000/svg" xmlns:xlink="http://www.w3.org/1999/xlink" width="24pt" height="24pt" viewBox="0 0 24 24" version="1.1">
<g id="surface1">
<path style=" stroke:none;fill-rule:nonzero;fill:rgb(0%,0%,0%);fill-opacity:1;" d="M 21.601562 8.617188 L 21.601562 5.453125 C 21.601562 5.453125 21.601562 5.34375 21.601562 5.34375 L 16.472656 0.21875 C 16.253906 0 16.144531 0 15.925781 0 L 2.835938 0 C 2.617188 0 2.398438 0.21875 2.398438 0.4375 L 2.398438 8.617188 L 0 8.617188 L 0 21.382812 L 2.398438 21.382812 L 2.398438 23.5625 C 2.398438 23.78125 2.617188 24 2.835938 24 L 21.164062 24 C 21.382812 24 21.601562 23.78125 21.601562 23.5625 L 21.601562 21.382812 L 24 21.382812 L 24 8.617188 Z M 16.363281 1.417969 L 20.074219 5.128906 L 16.363281 5.128906 Z M 3.273438 0.871094 L 15.492188 0.871094 L 15.492188 5.671875 C 15.492188 5.890625 15.710938 6.109375 15.925781 6.109375 L 20.726562 6.109375 L 20.726562 8.726562 L 3.273438 8.726562 Z M 20.726562 23.128906 L 3.273438 23.128906 L 3.273438 21.382812 L 20.726562 21.382812 Z M 23.128906 20.617188 L 0.871094 20.617188 L 0.871094 9.492188 L 23.128906 9.492188 Z M 2.945312 11.890625 L 5.238281 11.890625 C 5.78125 11.890625 6.109375 11.890625 6.4375 12 C 6.761719 12.109375 7.089844 12.328125 7.417969 12.546875 C 7.746094 12.761719 7.855469 13.199219 7.964844 13.527344 C 8.074219 13.964844 8.183594 14.398438 8.183594 15.054688 C 8.183594 15.601562 8.074219 16.035156 7.964844 16.363281 C 7.855469 16.800781 7.636719 17.238281 7.308594 17.453125 C 7.089844 17.671875 6.761719 17.78125 6.4375 18 C 6.109375 18.109375 5.78125 18.109375 5.34375 18.109375 L 2.945312 18.109375 Z M 4.144531 12.980469 L 4.144531 17.128906 L 5.128906 17.128906 C 5.453125 17.128906 5.78125 17.128906 5.890625 17.019531 C 6.109375 17.019531 6.21875 16.910156 6.4375 16.800781 C 6.546875 16.691406 6.65625 16.472656 6.761719 16.144531 C 6.871094 15.816406 6.871094 15.492188 6.871094 15.054688 C 6.871094 14.617188 6.871094 14.183594 6.761719 13.964844 C 6.65625 13.746094 6.546875 13.527344 6.4375 13.308594 C 6.328125 13.089844 6 13.089844 5.78125 12.980469 C 5.5625 12.980469 5.238281 12.871094 4.800781 12.871094 L 4.144531 12.871094 Z M 8.945312 15.054688 C 8.945312 14.398438 9.054688 13.855469 9.273438 13.417969 C 9.382812 13.089844 9.601562 12.871094 9.816406 12.546875 C 10.035156 12.21875 10.363281 12.109375 10.582031 12 C 11.019531 11.78125 11.453125 11.78125 11.890625 11.78125 C 12.761719 11.78125 13.527344 12.109375 14.074219 12.65625 C 14.617188 13.199219 14.945312 14.074219 14.945312 15.054688 C 14.945312 16.035156 14.726562 16.800781 14.074219 17.453125 C 13.527344 18 12.761719 18.328125 11.890625 18.328125 C 10.910156 18.328125 10.253906 18 9.710938 17.453125 C 9.164062 16.910156 8.945312 16.035156 8.945312 15.054688 Z M 10.253906 15.054688 C 10.253906 15.710938 10.363281 16.253906 10.691406 16.691406 C 11.019531 17.019531 11.453125 17.238281 11.890625 17.238281 C 12.328125 17.238281 12.761719 17.019531 13.089844 16.691406 C 13.417969 16.363281 13.527344 15.816406 13.527344 15.054688 C 13.527344 14.289062 13.417969 13.855469 13.089844 13.417969 C 12.761719 13.089844 12.328125 12.871094 11.890625 12.871094 C 11.453125 12.871094 10.910156 13.089844 10.582031 13.417969 C 10.363281 13.746094 10.253906 14.289062 10.253906 15.054688 Z M 19.964844 15.816406 L 21.164062 16.253906 C 20.945312 16.910156 20.617188 17.453125 20.183594 17.78125 C 19.746094 18.109375 19.199219 18.328125 18.546875 18.328125 C 17.671875 18.328125 17.019531 18 16.472656 17.453125 C 15.925781 16.910156 15.710938 16.144531 15.710938 15.164062 C 15.710938 14.074219 15.925781 13.308594 16.472656 12.761719 C 17.019531 12.21875 17.671875 11.890625 18.546875 11.890625 C 19.308594 11.890625 19.964844 12.109375 20.398438 12.546875 C 20.726562 12.761719 20.945312 13.199219 21.054688 13.746094 L 19.855469 14.074219 C 19.746094 13.746094 19.636719 13.527344 19.417969 13.308594 C 19.199219 13.089844 18.871094 12.980469 18.546875 12.980469 C 18.109375 12.980469 17.671875 13.199219 17.453125 13.527344 C 17.238281 13.855469 17.019531 14.398438 17.019531 15.164062 C 17.019531 15.925781 17.128906 16.472656 17.453125 16.800781 C 17.78125 17.128906 18.109375 17.34375 18.546875 17.34375 C 18.871094 17.34375 19.199219 17.238281 19.417969 17.019531 C 19.636719 16.800781 19.855469 16.253906 19.964844 15.816406 Z M 19.964844 15.816406 "/>
</g>
</svg>
