<?xml version="1.0" encoding="utf-8"?>
<!-- Generator: Adobe Illustrator 21.1.0, SVG Export Plug-In . SVG Version: 6.00 Build 0)  -->
<svg version="1.1" id="Layer_1" xmlns="http://www.w3.org/2000/svg" xmlns:xlink="http://www.w3.org/1999/xlink" x="0px" y="0px"
	 viewBox="0 0 24 24" style="enable-background:new 0 0 24 24;" xml:space="preserve">
<path d="M21.7,8.4V5.4l-5.1-5.1C16.3,0,16.1,0,15.8,0H3C2.7,0,2.3,0.3,2.3,0.7v7.8H0v13h2.3v1.9C2.3,23.7,2.7,24,3,24h18
	c0.4,0,0.7-0.3,0.7-0.7v-1.9H24v-13H21.7z M20.3,21.4v1.2H3.7v-1.2H20.3z M16.5,5V2.2L19.3,5H16.5z M15.8,6.5h4.5v2.1H3.7V1.3h11.5
	v4.5C15.2,6.1,15.5,6.5,15.8,6.5z M22.7,9.8v10.4H1.3V9.8H22.7z M11.8,16.9c0.5,0.5,1.1,0.7,1.8,0.7s1.3-0.2,1.8-0.7
	c0.5-0.5,0.7-1.1,0.7-1.9s-0.2-1.4-0.7-1.9c-0.5-0.5-1.1-0.7-1.8-0.7c-0.3,0-0.7,0.1-1.1,0.2c-0.2,0.1-0.5,0.2-0.7,0.5
	c-0.2,0.2-0.4,0.5-0.5,0.7c-0.1,0.3-0.2,0.8-0.2,1.3C11.1,15.9,11.4,16.5,11.8,16.9z M13.6,16.4c-0.4,0-0.6-0.1-0.8-0.4
	c-0.2-0.2-0.2-0.5-0.2-1c0-0.4,0.1-0.8,0.3-1c0.3-0.3,0.4-0.4,0.8-0.4c0.3,0,0.6,0.1,0.8,0.4c0.2,0.2,0.2,0.5,0.2,1s-0.1,0.8-0.2,1
	C14.1,16.3,13.9,16.4,13.6,16.4z M17.6,17.6h-1.3v-5.1h1.2L19,15v-2.5h1.3v5.1H19l-1.4-2.4V17.6z M9.4,16.1C9.6,16.1,9.6,16,9.6,16
	c0-0.1,0-0.1,0-0.1c0,0,0,0-0.1-0.1c0,0-0.1,0-0.2-0.1c-0.1,0-0.1,0-0.2-0.1c-0.1,0-0.3-0.1-0.5-0.1c-0.5-0.1-0.8-0.3-1-0.4
	l-0.1-0.1c-0.5-0.3-0.6-0.8-0.6-1.2c0-0.3,0.1-0.5,0.2-0.8c0.1-0.3,0.4-0.4,0.6-0.5c0.3-0.1,0.6-0.1,1-0.1c0.7,0,1.1,0.2,1.5,0.5
	c0.3,0.3,0.5,0.7,0.5,1.1v0.2H9.3v-0.2c0-0.2-0.1-0.3-0.1-0.4c0,0-0.3,0-0.4,0c-0.2,0-0.3,0-0.4,0.1c0,0-0.1,0-0.1,0c0,0,0,0,0,0.1
	c0,0.1,0,0.1,0,0.1c0,0,0.1,0.1,0.7,0.3c0.5,0.1,0.8,0.2,1,0.3c0.2,0.1,0.5,0.4,0.6,0.5l0,0.1c0.1,0.2,0.2,0.5,0.2,0.9
	c0,0.3-0.1,0.6-0.2,0.9c-0.2,0.3-0.4,0.5-0.8,0.7c-0.2,0.1-0.7,0.2-1,0.2c-0.7,0-1.2-0.2-1.6-0.5l-0.1-0.1c-0.1-0.2-0.1-0.3-0.2-0.4
	c-0.1-0.3-0.3-0.6-0.4-1l-0.1-0.3L8,15.5l0.1,0.2c0.1,0.4,0.2,0.5,0.3,0.5c0,0,0.3,0.1,0.5,0.1C9,16.4,9.2,16.3,9.4,16.1L9.4,16.1z
	 M3.5,17.1c-0.2-0.2-0.4-0.7-0.4-1.2v-0.2l1.3-0.2v0.3c0,0.1,0,0.3,0,0.4l0,0.1c0,0.1,0,0.1,0,0.1c0,0,0.1,0,0.2,0
	c0.1,0,0.2,0,0.3-0.1c0-0.1,0-0.3,0-0.6v-3h1.6v3.1c0,0.4,0,0.7-0.1,1l0,0.1c-0.1,0.2-0.2,0.5-0.6,0.7c-0.3,0.2-0.7,0.2-1.1,0.2
	C4.1,17.6,3.7,17.4,3.5,17.1z"/>
</svg>
