<?xml version="1.0" encoding="UTF-8"?>
<svg xmlns="http://www.w3.org/2000/svg" xmlns:xlink="http://www.w3.org/1999/xlink" width="24pt" height="24pt" viewBox="0 0 24 24" version="1.1">
<g id="surface1">
<path style=" stroke:none;fill-rule:nonzero;fill:rgb(0%,0%,0%);fill-opacity:1;" d="M 21.601562 8.617188 L 21.601562 5.453125 C 21.601562 5.453125 21.601562 5.34375 21.601562 5.34375 L 16.472656 0.21875 C 16.253906 0 16.144531 0 15.925781 0 L 2.835938 0 C 2.617188 0 2.398438 0.21875 2.398438 0.4375 L 2.398438 8.617188 L 0 8.617188 L 0 21.382812 L 2.398438 21.382812 L 2.398438 23.5625 C 2.398438 23.78125 2.617188 24 2.835938 24 L 21.164062 24 C 21.382812 24 21.601562 23.78125 21.601562 23.5625 L 21.601562 21.382812 L 24 21.382812 L 24 8.617188 Z M 16.363281 1.417969 L 20.074219 5.128906 L 16.363281 5.128906 Z M 3.273438 0.871094 L 15.492188 0.871094 L 15.492188 5.671875 C 15.492188 5.890625 15.710938 6.109375 15.925781 6.109375 L 20.726562 6.109375 L 20.726562 8.726562 L 3.273438 8.726562 Z M 20.726562 23.128906 L 3.273438 23.128906 L 3.273438 21.382812 L 20.726562 21.382812 Z M 23.128906 20.617188 L 0.871094 20.617188 L 0.871094 9.492188 L 23.128906 9.492188 Z M 5.238281 17.890625 L 5.238281 12.65625 L 3.382812 12.65625 L 3.382812 11.5625 L 8.398438 11.5625 L 8.398438 12.65625 L 6.546875 12.65625 L 6.546875 17.890625 Z M 8.835938 15.816406 L 10.035156 15.710938 C 10.144531 16.144531 10.253906 16.472656 10.472656 16.582031 C 10.691406 16.691406 11.019531 16.910156 11.34375 16.910156 C 11.78125 16.910156 12.109375 16.800781 12.21875 16.691406 C 12.328125 16.582031 12.546875 16.363281 12.546875 16.035156 C 12.546875 15.925781 12.546875 15.816406 12.4375 15.710938 C 12.328125 15.601562 12.21875 15.492188 12 15.492188 C 11.890625 15.492188 11.5625 15.382812 11.019531 15.273438 C 10.363281 15.054688 9.816406 14.945312 9.601562 14.617188 C 9.164062 14.289062 9.054688 13.855469 9.054688 13.308594 C 9.054688 12.980469 9.164062 12.65625 9.273438 12.4375 C 9.382812 12.21875 9.710938 12 10.035156 11.78125 C 10.363281 11.5625 10.800781 11.5625 11.238281 11.5625 C 12 11.5625 12.65625 11.78125 12.980469 12.109375 C 13.417969 12.4375 13.636719 12.871094 13.636719 13.527344 L 12.328125 13.636719 C 12.328125 13.308594 12.109375 13.089844 12 12.980469 C 11.890625 12.871094 11.5625 12.761719 11.238281 12.761719 C 10.910156 12.761719 10.582031 12.871094 10.363281 12.980469 C 10.253906 13.089844 10.144531 13.199219 10.144531 13.417969 C 10.144531 13.527344 10.253906 13.746094 10.363281 13.746094 C 10.472656 13.855469 10.910156 13.964844 11.5625 14.183594 C 12.21875 14.398438 12.65625 14.507812 12.871094 14.617188 C 13.199219 14.726562 13.417969 14.945312 13.527344 15.273438 C 13.636719 15.601562 13.746094 15.925781 13.746094 16.253906 C 13.746094 16.582031 13.636719 16.910156 13.417969 17.238281 C 13.199219 17.5625 12.980469 17.78125 12.546875 17.890625 C 12.109375 18 11.78125 18.109375 11.238281 18.109375 C 10.472656 18.109375 9.816406 17.890625 9.382812 17.5625 C 8.945312 17.238281 8.945312 16.582031 8.835938 15.816406 Z M 16.582031 17.890625 L 14.398438 11.671875 L 15.816406 11.671875 L 17.34375 16.253906 L 18.871094 11.671875 L 20.183594 11.671875 L 17.890625 17.890625 Z M 16.582031 17.890625 "/>
</g>
</svg>
