<?xml version="1.0" encoding="UTF-8"?>
<svg xmlns="http://www.w3.org/2000/svg" xmlns:xlink="http://www.w3.org/1999/xlink" width="24pt" height="24pt" viewBox="0 0 24 24" version="1.1">
<g id="surface1">
<path style=" stroke:none;fill-rule:nonzero;fill:rgb(0%,0%,0%);fill-opacity:1;" d="M 21.601562 8.617188 L 21.601562 5.453125 C 21.601562 5.453125 21.601562 5.34375 21.601562 5.34375 L 16.472656 0.21875 C 16.253906 0 16.144531 0 15.925781 0 L 2.835938 0 C 2.617188 0 2.398438 0.21875 2.398438 0.4375 L 2.398438 8.617188 L 0 8.617188 L 0 21.382812 L 2.398438 21.382812 L 2.398438 23.5625 C 2.398438 23.78125 2.617188 24 2.835938 24 L 21.164062 24 C 21.382812 24 21.601562 23.78125 21.601562 23.5625 L 21.601562 21.382812 L 24 21.382812 L 24 8.617188 Z M 16.363281 1.417969 L 20.074219 5.128906 L 16.363281 5.128906 Z M 3.273438 0.871094 L 15.492188 0.871094 L 15.492188 5.671875 C 15.492188 5.890625 15.710938 6.109375 15.925781 6.109375 L 20.726562 6.109375 L 20.726562 8.726562 L 3.273438 8.726562 Z M 20.726562 23.128906 L 3.273438 23.128906 L 3.273438 21.382812 L 20.726562 21.382812 Z M 23.128906 20.617188 L 0.871094 20.617188 L 0.871094 9.492188 L 23.128906 9.492188 Z M 2.398438 18.546875 L 2.398438 12.328125 L 4.363281 12.328125 L 5.453125 16.582031 L 6.546875 12.328125 L 8.398438 12.328125 L 8.398438 18.546875 L 7.308594 18.546875 L 7.308594 13.636719 L 6.109375 18.546875 L 4.800781 18.546875 L 3.601562 13.636719 L 3.601562 18.546875 Z M 9.492188 15.492188 C 9.492188 14.835938 9.601562 14.289062 9.816406 13.855469 C 9.925781 13.527344 10.144531 13.199219 10.363281 12.980469 C 10.582031 12.761719 10.910156 12.546875 11.128906 12.4375 C 11.5625 12.21875 12 12.21875 12.4375 12.21875 C 13.308594 12.21875 14.074219 12.546875 14.617188 13.089844 C 15.164062 13.636719 15.492188 14.507812 15.492188 15.492188 C 15.492188 16.472656 15.164062 17.238281 14.617188 17.890625 C 14.074219 18.4375 13.308594 18.761719 12.4375 18.761719 C 11.453125 18.761719 10.800781 18.4375 10.253906 17.890625 C 9.710938 17.34375 9.492188 16.472656 9.492188 15.492188 Z M 10.800781 15.382812 C 10.800781 16.035156 10.910156 16.582031 11.238281 17.019531 C 11.5625 17.34375 12 17.5625 12.4375 17.5625 C 12.871094 17.5625 13.308594 17.34375 13.636719 17.019531 C 13.964844 16.691406 14.074219 16.144531 14.074219 15.382812 C 14.074219 14.617188 13.964844 14.183594 13.636719 13.746094 C 13.308594 13.417969 12.871094 13.199219 12.4375 13.199219 C 12 13.199219 11.453125 13.417969 11.128906 13.746094 C 10.910156 14.183594 10.800781 14.726562 10.800781 15.382812 Z M 18.109375 18.546875 L 15.925781 12.328125 L 17.34375 12.328125 L 18.871094 16.910156 L 20.398438 12.328125 L 21.710938 12.328125 L 19.417969 18.546875 Z M 18.109375 18.546875 "/>
</g>
</svg>
