<?xml version="1.0" encoding="utf-8"?>
<!-- Generator: Adobe Illustrator 21.1.0, SVG Export Plug-In . SVG Version: 6.00 Build 0)  -->
<svg version="1.1" id="Layer_1" xmlns="http://www.w3.org/2000/svg" xmlns:xlink="http://www.w3.org/1999/xlink" x="0px" y="0px"
	 viewBox="0 0 24 24" style="enable-background:new 0 0 24 24;" xml:space="preserve">
<path d="M21.6,8.4V5.3l-5.2-5.2c-0.2-0.2-0.4-0.3-0.7-0.3H3c-0.3,0-0.6,0.3-0.6,0.6v7.8H0v13h2.4v1.9c0,0.3,0.3,0.6,0.6,0.6h18
	c0.3,0,0.6-0.3,0.6-0.6v-1.9H24V8.4H21.6z M20.3,21.5v1.4H3.6v-1.4H20.3z M16.6,5V2.2L19.3,5H16.6z M15.8,6.4h4.5v2H3.6V1.3h11.6
	v4.5C15.2,6.1,15.5,6.4,15.8,6.4z M22.7,9.8v10.5H1.3V9.8H22.7z M11.9,18l0.5-1.3h1.9l0.5,1.3h1.8l-2.4-6.1h-1.6L10.2,18H11.9z
	 M12.9,15.4l0.4-1.1l0.4,1.1H12.9z M17.4,17.9l-2.1-5.9h1.7l1.2,3.6l1.2-3.6h1.7L19,18h-1.5L17.4,17.9z M4.9,18l-1.5-6.1H5l0.7,3
	l0.8-3h1.8L9,15.1l0.7-3.1h1.6L9.8,18H8.3l-0.9-3.5L6.5,18H4.9z"/>
</svg>
