<?xml version="1.0" encoding="UTF-8"?>
<svg xmlns="http://www.w3.org/2000/svg" xmlns:xlink="http://www.w3.org/1999/xlink" width="24pt" height="24pt" viewBox="0 0 24 24" version="1.1">
<g id="surface1">
<path style=" stroke:none;fill-rule:nonzero;fill:rgb(0%,0%,0%);fill-opacity:1;" d="M 21.601562 8.617188 L 21.601562 5.453125 C 21.601562 5.453125 21.601562 5.34375 21.601562 5.34375 L 16.472656 0.21875 C 16.253906 0 16.144531 0 15.925781 0 L 2.835938 0 C 2.617188 0 2.398438 0.21875 2.398438 0.4375 L 2.398438 8.617188 L 0 8.617188 L 0 21.382812 L 2.398438 21.382812 L 2.398438 23.5625 C 2.398438 23.78125 2.617188 24 2.835938 24 L 21.164062 24 C 21.382812 24 21.601562 23.78125 21.601562 23.5625 L 21.601562 21.382812 L 24 21.382812 L 24 8.617188 Z M 16.363281 1.417969 L 20.074219 5.128906 L 16.363281 5.128906 Z M 3.273438 0.871094 L 15.492188 0.871094 L 15.492188 5.671875 C 15.492188 5.890625 15.710938 6.109375 15.925781 6.109375 L 20.726562 6.109375 L 20.726562 8.726562 L 3.273438 8.726562 Z M 20.726562 23.128906 L 3.273438 23.128906 L 3.273438 21.382812 L 20.726562 21.382812 Z M 23.128906 20.617188 L 0.871094 20.617188 L 0.871094 9.492188 L 23.128906 9.492188 Z M 4.144531 11.78125 L 6.4375 11.78125 C 6.980469 11.78125 7.308594 11.78125 7.636719 11.890625 C 7.964844 12 8.289062 12.21875 8.617188 12.4375 C 8.945312 12.65625 9.054688 13.089844 9.164062 13.417969 C 9.273438 13.855469 9.382812 14.289062 9.382812 14.945312 C 9.382812 15.492188 9.273438 15.925781 9.164062 16.253906 C 9.054688 16.691406 8.835938 17.128906 8.507812 17.34375 C 8.289062 17.5625 7.964844 17.671875 7.636719 17.890625 C 7.308594 18 6.980469 18 6.546875 18 L 4.144531 18 Z M 5.34375 12.761719 L 5.34375 16.910156 L 6.328125 16.910156 C 6.65625 16.910156 6.980469 16.910156 7.089844 16.800781 C 7.308594 16.800781 7.417969 16.691406 7.636719 16.582031 C 7.855469 16.472656 7.855469 16.253906 7.964844 15.925781 C 8.074219 15.601562 8.074219 15.273438 8.074219 14.835938 C 8.074219 14.398438 8.074219 13.964844 7.964844 13.746094 C 7.855469 13.527344 7.746094 13.308594 7.636719 13.089844 C 7.527344 12.871094 7.308594 12.871094 7.089844 12.761719 C 6.871094 12.761719 6.546875 12.65625 6.109375 12.65625 L 5.34375 12.65625 Z M 10.472656 18 L 10.472656 11.78125 L 11.78125 11.78125 L 11.78125 16.910156 L 14.945312 16.910156 L 14.945312 18 Z M 15.816406 18 L 15.816406 11.78125 L 17.128906 11.78125 L 17.128906 16.910156 L 20.289062 16.910156 L 20.289062 18 Z M 15.816406 18 "/>
</g>
</svg>
