<?xml version="1.0" encoding="UTF-8"?>
<svg xmlns="http://www.w3.org/2000/svg" xmlns:xlink="http://www.w3.org/1999/xlink" width="24pt" height="24pt" viewBox="0 0 24 24" version="1.1">
<g id="surface1">
<path style=" stroke:none;fill-rule:nonzero;fill:rgb(0%,0%,0%);fill-opacity:1;" d="M 21.601562 8.617188 L 21.601562 5.453125 C 21.601562 5.453125 21.601562 5.34375 21.601562 5.34375 L 16.472656 0.21875 C 16.253906 0 16.144531 0 15.925781 0 L 2.835938 0 C 2.617188 0 2.398438 0.21875 2.398438 0.4375 L 2.398438 8.617188 L 0 8.617188 L 0 21.382812 L 2.398438 21.382812 L 2.398438 23.5625 C 2.398438 23.78125 2.617188 24 2.835938 24 L 21.164062 24 C 21.382812 24 21.601562 23.78125 21.601562 23.5625 L 21.601562 21.382812 L 24 21.382812 L 24 8.617188 Z M 16.363281 1.417969 L 20.074219 5.128906 L 16.363281 5.128906 Z M 3.273438 0.871094 L 15.492188 0.871094 L 15.492188 5.671875 C 15.492188 5.890625 15.710938 6.109375 15.925781 6.109375 L 20.726562 6.109375 L 20.726562 8.726562 L 3.273438 8.726562 Z M 20.726562 23.128906 L 3.273438 23.128906 L 3.273438 21.382812 L 20.726562 21.382812 Z M 23.128906 20.617188 L 0.871094 20.617188 L 0.871094 9.492188 L 23.128906 9.492188 Z M 4.253906 16.910156 L 3.382812 13.089844 L 4.144531 13.089844 L 4.691406 15.816406 L 5.453125 13.089844 L 6.4375 13.089844 L 7.089844 15.816406 L 7.636719 13.089844 L 8.398438 13.089844 L 7.417969 17.019531 L 6.65625 17.019531 L 5.890625 14.074219 L 5.128906 17.019531 L 4.253906 17.019531 Z M 8.835938 16.910156 L 8.835938 13.089844 L 11.78125 13.089844 L 11.78125 13.746094 L 9.601562 13.746094 L 9.601562 14.617188 L 11.5625 14.617188 L 11.5625 15.273438 L 9.601562 15.273438 L 9.601562 16.363281 L 11.78125 16.363281 L 11.78125 17.019531 L 8.835938 17.019531 Z M 12.546875 13.089844 L 14.074219 13.089844 C 14.398438 13.089844 14.617188 13.089844 14.726562 13.089844 C 14.835938 13.089844 15.054688 13.199219 15.164062 13.199219 C 15.273438 13.308594 15.382812 13.417969 15.492188 13.527344 C 15.601562 13.636719 15.601562 13.855469 15.601562 13.964844 C 15.601562 14.183594 15.601562 14.289062 15.492188 14.507812 C 15.382812 14.617188 15.273438 14.726562 15.054688 14.835938 C 15.273438 14.945312 15.492188 15.054688 15.601562 15.164062 C 15.710938 15.382812 15.816406 15.492188 15.816406 15.710938 C 15.816406 15.925781 15.816406 16.035156 15.710938 16.253906 C 15.601562 16.472656 15.492188 16.582031 15.382812 16.691406 C 15.273438 16.800781 15.054688 16.800781 14.835938 16.910156 C 14.726562 16.910156 14.398438 16.910156 13.855469 16.910156 L 12.546875 16.910156 Z M 13.308594 13.746094 L 13.308594 14.617188 L 13.855469 14.617188 C 14.183594 14.617188 14.398438 14.617188 14.398438 14.617188 C 14.507812 14.617188 14.617188 14.507812 14.726562 14.507812 C 14.835938 14.398438 14.835938 14.289062 14.835938 14.183594 C 14.835938 14.074219 14.835938 13.964844 14.726562 13.855469 C 14.617188 13.746094 14.507812 13.746094 14.398438 13.746094 C 14.289062 13.746094 14.074219 13.746094 13.746094 13.746094 Z M 13.308594 15.273438 L 13.308594 16.363281 L 14.074219 16.363281 C 14.398438 16.363281 14.507812 16.363281 14.617188 16.363281 C 14.726562 16.363281 14.835938 16.253906 14.945312 16.253906 C 15.054688 16.144531 15.054688 16.035156 15.054688 15.925781 C 15.054688 15.816406 15.054688 15.710938 14.945312 15.601562 C 14.835938 15.492188 14.835938 15.492188 14.726562 15.382812 C 14.617188 15.273438 14.289062 15.273438 13.964844 15.273438 Z M 16.472656 16.910156 L 16.472656 13.089844 L 17.671875 13.089844 L 18.328125 15.710938 L 18.980469 13.089844 L 20.183594 13.089844 L 20.183594 17.019531 L 19.417969 17.019531 L 19.417969 13.964844 L 18.65625 17.019531 L 17.890625 17.019531 L 17.128906 13.964844 L 17.128906 17.019531 L 16.472656 17.019531 Z M 16.472656 16.910156 "/>
</g>
</svg>
