<?xml version="1.0" encoding="utf-8"?>
<!-- Generator: Adobe Illustrator 21.1.0, SVG Export Plug-In . SVG Version: 6.00 Build 0)  -->
<svg version="1.1" id="Layer_1" xmlns="http://www.w3.org/2000/svg" xmlns:xlink="http://www.w3.org/1999/xlink" x="0px" y="0px"
	 viewBox="0 0 24 24" style="enable-background:new 0 0 24 24;" xml:space="preserve">
<path d="M21.6,8.6V5.3l-5.2-5.2c-0.2-0.2-0.3-0.2-0.5-0.2H2.8c-0.2,0-0.4,0.2-0.4,0.4v8.2H0v12.8h2.4v2.2c0,0.2,0.2,0.4,0.4,0.4
	h18.4c0.2,0,0.4-0.2,0.4-0.4v-2.2H24V8.6H21.6z M16.4,1.4l3.7,3.7h-3.7V1.4z M3.2,0.8h12.3v4.8c0,0.2,0.2,0.4,0.4,0.4h4.8v2.5H3.2
	V0.8z M20.8,23.3H3.2v-1.9h17.5V23.3z M23.2,20.7H0.8V9.5h22.4V20.7z M4.6,17.8v-5.7h1.9c0.7,0,1.2,0,1.4,0.1
	c0.3,0.1,0.6,0.3,0.8,0.6S9,13.4,9,13.9c0,0.4-0.1,0.6-0.2,0.9c-0.1,0.2-0.3,0.4-0.5,0.6s-0.4,0.2-0.6,0.3c-0.3,0.1-0.7,0.1-1.2,0.1
	H5.7v2.2H4.6z M5.7,13.1v1.6h0.6c0.5,0,0.8,0,0.9-0.1c0.2-0.1,0.3-0.2,0.4-0.3c0.1-0.1,0.1-0.3,0.1-0.4c0-0.2-0.1-0.4-0.2-0.5
	c-0.1-0.1-0.3-0.2-0.5-0.3c-0.1,0-0.4,0-0.8,0H5.7z M9.9,12.1H12c0.5,0,0.8,0,1.1,0.1c0.3,0.1,0.6,0.3,0.9,0.5
	c0.2,0.3,0.4,0.6,0.5,0.9c0.1,0.4,0.2,0.8,0.2,1.4c0,0.5-0.1,0.9-0.2,1.2c-0.1,0.4-0.3,0.8-0.6,1c-0.2,0.2-0.5,0.3-0.8,0.5
	c-0.3,0.1-0.6,0.1-1,0.1H9.9V12.1z M11.1,13.1v3.8h0.9c0.3,0,0.6,0,0.7-0.1c0.2,0,0.3-0.1,0.5-0.2c0.1-0.1,0.2-0.3,0.3-0.6
	c0.1-0.3,0.1-0.6,0.1-1c0-0.4,0-0.8-0.1-1c-0.1-0.2-0.2-0.4-0.3-0.6c-0.1-0.1-0.3-0.2-0.5-0.3c-0.2,0-0.5-0.1-0.9-0.1H11.1z
	 M15.7,17.8v-5.7h3.9v1h-2.8v1.4h2.4v1h-2.4v2.4H15.7z"/>
</svg>
