<?xml version="1.0" encoding="utf-8"?>
<!-- Generator: Adobe Illustrator 21.1.0, SVG Export Plug-In . SVG Version: 6.00 Build 0)  -->
<svg version="1.1" id="Layer_1" xmlns="http://www.w3.org/2000/svg" xmlns:xlink="http://www.w3.org/1999/xlink" x="0px" y="0px"
	 viewBox="0 0 24 24" style="enable-background:new 0 0 24 24;" xml:space="preserve">
<path d="M21.6,8.4V5.3l-5.2-5.2c-0.2-0.2-0.4-0.3-0.7-0.3H3c-0.3,0-0.6,0.3-0.6,0.6v7.8H0v13h2.4v1.9c0,0.3,0.3,0.6,0.6,0.6h18
	c0.3,0,0.6-0.3,0.6-0.6v-1.9H24V8.4H21.6z M20.3,21.5v1.4H3.6v-1.4H20.3z M16.6,5V2.2L19.3,5H16.6z M15.8,6.4h4.5v2H3.6V1.3h11.6
	v4.5C15.2,6.1,15.5,6.4,15.8,6.4z M22.7,9.8v10.5H1.3V9.8H22.7z M15.5,14.8c0-0.4,0.1-0.7,0.2-1.1l0-0.1c0.2-0.3,0.4-0.5,0.8-0.8
	c0.2-0.1,0.6-0.2,1-0.2c0.5,0,0.9,0.1,1.2,0.4c0.2,0.2,0.4,0.4,0.6,0.9l0.1,0.3L18,14.4v-0.3c0-0.1,0-0.1-0.2-0.2l-0.1,0
	c0,0-0.2-0.1-0.3-0.1c-0.2,0-0.5,0.1-0.6,0.2c-0.1,0.1-0.2,0.4-0.2,0.7c0,0.3,0.1,0.6,0.3,0.8c0.1,0.1,0.3,0.2,0.5,0.2
	c0.2,0,0.2,0,0.4-0.1c0.1,0,0.2-0.1,0.2-0.1c0,0,0,0,0,0v-0.1h-0.5v-0.1h-0.2v-0.8h2.1v1.8l-0.1,0.1c-0.1,0-0.1,0.1-0.2,0.1
	c-0.1,0.1-0.3,0.2-0.5,0.3c-0.3,0.1-0.6,0.2-1,0.2c-0.4,0-0.8-0.1-1.1-0.2l-0.1,0c-0.3-0.2-0.6-0.4-0.7-0.8
	C15.6,15.6,15.5,15.3,15.5,14.8z M8.2,12.9h0.6v4H7.7v-1l-0.2,1H6.4l-0.2-1v1H5v-4h0.7v0h0.2l0,0h0.6l0.4,1.6l0.4-1.6H8l0,0
	L8.2,12.9L8.2,12.9z M15.6,16.9h-3.2v-4h3.1V14h-1.9v0.3h1.8v1.1h-1.8v0.5h2V16.9z M10.3,15.8h0.2c0.2,0,0.3,0,0.5-0.1
	c0.1,0,0.2,0,0.2,0l0.1,0c0.1,0,0.1-0.1,0.2-0.1c0.1,0,0.2-0.1,0.3-0.2c0.1-0.1,0.2-0.2,0.3-0.5c0.1-0.2,0.1-0.5,0.1-0.7
	c0-0.3,0-0.6-0.1-0.7c-0.1-0.2-0.4-0.4-0.6-0.5c-0.2-0.1-0.6-0.1-1-0.1H9.1V17h1.2V15.8z M11,14c0,0,0,0,0,0.1s0,0.1,0,0.1L11,14.3
	v0.1l0,0l-0.1,0.1c0,0-0.3,0-0.4,0h-0.1v-0.6h0.5C10.9,13.9,10.9,14,11,14C11,14,11,14,11,14z"/>
</svg>
