<?xml version="1.0" encoding="utf-8"?>
<!-- Generator: Adobe Illustrator 21.1.0, SVG Export Plug-In . SVG Version: 6.00 Build 0)  -->
<svg version="1.1" id="Layer_1" xmlns="http://www.w3.org/2000/svg" xmlns:xlink="http://www.w3.org/1999/xlink" x="0px" y="0px"
	 viewBox="0 0 24 24" style="enable-background:new 0 0 24 24;" xml:space="preserve">
<path d="M6.3,15.8c0.1,0,0.2,0,0.3,0c0.1,0.1,0.2,0.1,0.2,0.1c0,0,0.1,0,0.1,0.1c0.1,0.1,0.1,0.2,0.3,0.4c0.1,0.1,0.2,0.2,0.3,0.4
	l1,1.4h1.9l-0.9-1.5c-0.1-0.1-0.2-0.3-0.3-0.4c-0.2-0.3-0.3-0.5-0.5-0.6c-0.1-0.1-0.1-0.1-0.2-0.2c0.3-0.1,0.6-0.2,0.7-0.4
	c0.3-0.3,0.5-0.7,0.5-1.3c0-0.3-0.1-0.7-0.2-1l0-0.1c-0.2-0.3-0.5-0.5-0.8-0.6C8.3,12.2,7.8,12,7.2,12H4.6v6.1h1.7V15.8z M7.8,14.2
	c0,0-0.1,0-0.2,0c-0.2,0-0.5,0.1-0.8,0.1H6.2v-0.9h1.4c0.1,0,0.1,0,0.2,0.1c0,0,0.1,0.2,0.1,0.3c0,0.2,0,0.2,0,0.2
	C7.9,14.1,7.8,14.2,7.8,14.2z M11.5,13.4H9.8V12h5V12h1.6l0.9,1.5l0.9-1.5h1.9l-1.9,3l2.1,3.1h-2l-1.1-1.8l-1.1,1.8h-1.9l2.1-3.2
	l-1.5-2.3v0.8h-1.7v4.7h-1.7V13.4z M21.6,8.5V5.4l-5.2-5.2C16.2,0,16.1,0,15.8,0H3C2.7,0,2.4,0.3,2.4,0.6v7.8H0v13h2.4v1.9
	C2.4,23.7,2.7,24,3,24h18c0.3,0,0.6-0.3,0.6-0.6v-1.9H24V8.5H21.6z M20.3,21.6v1.4H3.6v-1.4H20.3z M16.6,5.1V2.3l2.8,2.8H16.6z
	 M15.8,6.5h4.5v2H3.6V1.4h11.6v4.5C15.2,6.2,15.5,6.5,15.8,6.5z M22.7,9.9v10.5H1.3V9.9H22.7z"/>
</svg>
