<?xml version="1.0" encoding="utf-8"?>
<!-- Generator: Adobe Illustrator 21.1.0, SVG Export Plug-In . SVG Version: 6.00 Build 0)  -->
<svg version="1.1" id="Layer_1" xmlns="http://www.w3.org/2000/svg" xmlns:xlink="http://www.w3.org/1999/xlink" x="0px" y="0px"
	 viewBox="0 0 24 24" style="enable-background:new 0 0 24 24;" xml:space="preserve">
<path d="M3.7,17.5c-0.4-0.4-0.6-1-0.6-1.7v-0.2h1.7v0.2c0,0.2,0,0.4,0.1,0.5c0,0.1,0,0.1,0,0.2c0,0.1,0.1,0.2,0.4,0.2
	c0.2,0,0.3-0.1,0.4-0.1c0-0.1,0.1-0.4,0.1-0.8v-4.3h1.8v4.1c0,0.5,0,0.9-0.1,1.3c-0.1,0.4-0.4,0.8-0.7,1c-0.4,0.2-0.8,0.4-1.4,0.4
	C4.6,18.1,4.1,17.9,3.7,17.5z M24,8.4v13h-2.3v1.9c0,0.4-0.3,0.7-0.7,0.7H3c-0.4,0-0.7-0.3-0.7-0.7v-1.9H0v-13h2.3V0.7
	C2.3,0.3,2.7,0,3,0h12.8c0.3,0,0.4,0,0.7,0.3l5.1,5.1v3.1H24z M3.7,21.4v1.2h16.6v-1.2H3.7z M19.3,5l-2.8-2.8V5H19.3z M15.2,5.8V1.3
	H3.7v7.2h16.6V6.5h-4.5C15.5,6.5,15.2,6.1,15.2,5.8z M1.3,9.8v10.4h21.3V9.8H1.3z M16.3,18.2h-1.8v-6.7h2.8c0.6,0,1.2,0.1,1.5,0.2
	c0.2,0.1,0.6,0.3,0.8,0.6c0.3,0.3,0.3,0.8,0.3,1.1c0,0.6-0.2,1-0.5,1.3c-0.2,0.2-0.4,0.4-0.7,0.5c0.1,0.1,0.2,0.2,0.2,0.2
	c0.2,0.2,0.3,0.4,0.5,0.6l0.2,0.3l1,1.6h-2.1l-0.9-1.4c-0.1-0.2-0.2-0.3-0.3-0.4c-0.1-0.2-0.2-0.3-0.3-0.4c0,0-0.1-0.1-0.2-0.1
	c-0.1,0-0.1,0-0.2,0c-0.1,0-0.2-0.1-0.4-0.1V18.2z M17.8,14.1c0.1-0.1,0.2-0.1,0.2-0.1c0,0,0.1,0,0.1-0.1c0,0,0-0.1,0-0.3
	c0-0.1,0-0.1-0.1-0.3c0,0-0.1-0.1-0.1-0.2c0-0.1,0-0.1,0-0.1c0,0-0.1,0-0.2,0h-1.6v1h0.7C17.3,14.1,17.7,14.1,17.8,14.1z M9.4,18.1
	H7.6l2.5-6.6h1.6l2.7,6.6h-1.9l-0.5-1.4h-2L9.4,18.1z M11.4,15.2l-0.5-1.3l-0.5,1.3H11.4z"/>
</svg>
