<?xml version="1.0" encoding="UTF-8"?>
<svg xmlns="http://www.w3.org/2000/svg" xmlns:xlink="http://www.w3.org/1999/xlink" width="24pt" height="24pt" viewBox="0 0 24 24" version="1.1">
<g id="surface1">
<path style=" stroke:none;fill-rule:nonzero;fill:rgb(0%,0%,0%);fill-opacity:1;" d="M 21.601562 8.617188 L 21.601562 5.453125 C 21.601562 5.453125 21.601562 5.34375 21.601562 5.34375 L 16.472656 0.21875 C 16.253906 0 16.144531 0 15.925781 0 L 2.835938 0 C 2.617188 0 2.398438 0.21875 2.398438 0.4375 L 2.398438 8.617188 L 0 8.617188 L 0 21.382812 L 2.398438 21.382812 L 2.398438 23.5625 C 2.398438 23.78125 2.617188 24 2.835938 24 L 21.164062 24 C 21.382812 24 21.601562 23.78125 21.601562 23.5625 L 21.601562 21.382812 L 24 21.382812 L 24 8.617188 Z M 16.363281 1.417969 L 20.074219 5.128906 L 16.363281 5.128906 Z M 3.273438 0.871094 L 15.492188 0.871094 L 15.492188 5.671875 C 15.492188 5.890625 15.710938 6.109375 15.925781 6.109375 L 20.726562 6.109375 L 20.726562 8.726562 L 3.273438 8.726562 Z M 20.726562 23.128906 L 3.273438 23.128906 L 3.273438 21.382812 L 20.726562 21.382812 Z M 23.128906 20.617188 L 0.871094 20.617188 L 0.871094 9.492188 L 23.128906 9.492188 Z M 7.308594 16.035156 L 8.507812 16.472656 C 8.289062 17.128906 7.964844 17.671875 7.527344 18 C 7.089844 18.328125 6.546875 18.546875 5.890625 18.546875 C 5.019531 18.546875 4.363281 18.21875 3.816406 17.671875 C 3.273438 17.128906 3.054688 16.253906 3.054688 15.273438 C 3.054688 14.183594 3.273438 13.417969 3.816406 12.871094 C 4.363281 12.328125 5.128906 12 6 12 C 6.761719 12 7.417969 12.21875 7.855469 12.65625 C 8.183594 12.871094 8.398438 13.308594 8.507812 13.855469 L 7.199219 14.183594 C 7.089844 13.855469 6.980469 13.636719 6.761719 13.417969 C 6.546875 13.199219 6.21875 13.089844 5.890625 13.089844 C 5.453125 13.089844 5.019531 13.308594 4.800781 13.636719 C 4.582031 13.964844 4.363281 14.507812 4.363281 15.164062 C 4.363281 15.925781 4.472656 16.472656 4.800781 16.800781 C 5.128906 17.128906 5.453125 17.34375 5.890625 17.34375 C 6.21875 17.34375 6.546875 17.238281 6.761719 17.019531 C 6.980469 16.800781 7.199219 16.472656 7.308594 16.035156 Z M 9.273438 16.363281 L 10.472656 16.253906 C 10.582031 16.691406 10.691406 17.019531 10.910156 17.128906 C 11.128906 17.34375 11.453125 17.453125 11.78125 17.453125 C 12.21875 17.453125 12.546875 17.34375 12.65625 17.238281 C 12.871094 17.019531 12.980469 16.910156 12.980469 16.582031 C 12.980469 16.472656 12.980469 16.253906 12.871094 16.253906 C 12.761719 16.144531 12.65625 16.035156 12.4375 16.035156 C 12.328125 16.035156 12 15.925781 11.453125 15.816406 C 10.800781 15.601562 10.253906 15.492188 10.035156 15.164062 C 9.601562 14.835938 9.492188 14.398438 9.492188 13.855469 C 9.492188 13.527344 9.601562 13.199219 9.710938 12.980469 C 9.925781 12.65625 10.144531 12.546875 10.472656 12.328125 C 10.800781 12.109375 11.238281 12.109375 11.671875 12.109375 C 12.4375 12.109375 13.089844 12.328125 13.417969 12.65625 C 13.746094 12.980469 14.074219 13.417969 14.074219 14.074219 L 12.761719 14.183594 C 12.761719 13.855469 12.546875 13.636719 12.4375 13.527344 C 12.328125 13.417969 12.109375 13.089844 11.78125 13.089844 C 11.453125 13.089844 11.128906 13.199219 10.910156 13.308594 C 10.800781 13.417969 10.691406 13.527344 10.691406 13.746094 C 10.691406 13.855469 10.800781 14.074219 10.910156 14.074219 C 11.019531 14.183594 11.453125 14.289062 12.109375 14.507812 C 12.761719 14.726562 13.199219 14.835938 13.417969 14.945312 C 13.746094 15.054688 13.964844 15.273438 14.074219 15.601562 C 14.183594 15.925781 14.289062 16.144531 14.289062 16.582031 C 14.289062 16.910156 14.183594 17.238281 13.964844 17.5625 C 13.746094 17.890625 13.527344 18.109375 13.089844 18.21875 C 12.761719 18.328125 12.328125 18.4375 11.78125 18.4375 C 11.019531 18.4375 10.363281 18.21875 9.925781 17.890625 C 9.601562 17.5625 9.382812 17.019531 9.273438 16.363281 Z M 17.019531 18.328125 L 14.835938 12.109375 L 16.253906 12.109375 L 17.78125 16.691406 L 19.308594 12.109375 L 20.617188 12.109375 L 18.328125 18.328125 Z M 17.019531 18.328125 "/>
</g>
</svg>
