<?xml version="1.0" encoding="utf-8"?>
<!-- Generator: Adobe Illustrator 21.1.0, SVG Export Plug-In . SVG Version: 6.00 Build 0)  -->
<svg version="1.1" id="Layer_1" xmlns="http://www.w3.org/2000/svg" xmlns:xlink="http://www.w3.org/1999/xlink" x="0px" y="0px"
	 viewBox="0 0 24 24" style="enable-background:new 0 0 24 24;" xml:space="preserve">
<path d="M8.9,18.7H3.7v-6.8h5v1.6H5.5v0.9h3.1v1.6H5.5v1.2h3.4V18l2-3l-2.1-3.1H11l1,1.7l1-1.7h2l-2.1,3.2l2.2,3.3v-6.5h5v1.6h-3.3
	v0.9h3.1v1.6h-3.1v1.2h3.4v1.6h-5.1v-0.2h-2l-1.3-1.9l-1.3,1.9H8.9V18.7z M24,8.4v13h-2.3v1.9c0,0.4-0.3,0.7-0.7,0.7H3
	c-0.4,0-0.7-0.3-0.7-0.7v-1.9H0v-13h2.3V0.7C2.3,0.3,2.7,0,3,0h12.8c0.3,0,0.4,0,0.7,0.3l5.1,5.1v3.1H24z M3.7,21.4v1.2h16.6v-1.2
	H3.7z M19.3,5l-2.8-2.8V5H19.3z M15.2,5.8V1.3H3.7v7.2h16.6V6.5h-4.5C15.5,6.5,15.2,6.1,15.2,5.8z M1.3,9.8v10.4h21.3V9.8H1.3z"/>
</svg>
