<?xml version="1.0" encoding="utf-8"?>
<!-- Generator: Adobe Illustrator 21.1.0, SVG Export Plug-In . SVG Version: 6.00 Build 0)  -->
<svg version="1.1" id="Layer_1" xmlns="http://www.w3.org/2000/svg" xmlns:xlink="http://www.w3.org/1999/xlink" x="0px" y="0px"
	 viewBox="0 0 24 24" style="enable-background:new 0 0 24 24;" xml:space="preserve">
<path d="M21.7,8.4V5.4l-5.1-5.1C16.3,0,16.1,0,15.8,0H3C2.7,0,2.3,0.3,2.3,0.7v7.8H0v13h2.3v1.9C2.3,23.7,2.7,24,3,24h18
	c0.4,0,0.7-0.3,0.7-0.7v-1.9H24v-13H21.7z M20.3,21.4v1.2H3.7v-1.2H20.3z M16.5,5V2.2L19.3,5H16.5z M15.8,6.5h4.5v2.1H3.7V1.3h11.5
	v4.5C15.2,6.1,15.5,6.5,15.8,6.5z M22.7,9.8v10.4H1.3V9.8H22.7z M16.7,18.3l-2.3-6.4h1.9l1.3,4l1.3-4h1.8l-2.4,6.6h-1.6L16.7,18.3z
	 M3.8,17.7C3.3,17.2,3,16.3,3,15.2c0-1.2,0.3-2,0.8-2.5c0.6-0.6,1.4-0.9,2.3-0.9c0.8,0,1.5,0.2,2,0.7c0.3,0.2,0.6,0.7,0.7,1.3l0,0.2
	l-1.7,0.4l-0.1-0.2c-0.1-0.3-0.2-0.5-0.4-0.7c-0.2-0.2-0.4-0.2-0.7-0.2c-0.3,0-0.7,0.2-0.9,0.4c-0.1,0.2-0.4,0.7-0.4,1.4
	c0,0.7,0.1,1.2,0.4,1.4C5.4,16.9,5.7,17,6,17c0.3,0,0.5-0.1,0.7-0.2c0.2-0.2,0.4-0.4,0.5-0.9l0.1-0.3l1.7,0.6l-0.1,0.2
	c-0.2,0.7-0.6,1.3-1,1.6c-0.5,0.4-1.1,0.6-1.8,0.6C5.2,18.7,4.4,18.4,3.8,17.7z M11.8,17.1c-0.3,0-0.5-0.1-0.7-0.2l-0.1,0
	c-0.1-0.1-0.2-0.5-0.3-0.7l-0.1-0.2L9,16.1l0,0.3C9.2,17,9.5,17.6,9.8,18c0.5,0.4,1.2,0.6,2,0.6c0.6,0,1.1-0.1,1.3-0.2
	c0.5-0.1,0.8-0.4,1-0.7c0.2-0.4,0.4-0.7,0.4-1.1c0-0.4-0.1-0.6-0.2-0.9l0-0.1c-0.1-0.4-0.4-0.7-0.8-0.8c-0.1-0.1-0.4-0.1-0.7-0.2
	c0,0-0.1,0-0.1,0l1.6-0.1V14c0-0.8-0.4-1.3-0.7-1.6c-0.4-0.4-1.1-0.6-1.9-0.6c-0.5,0-0.9,0-1.3,0.3l-0.1,0.1
	c-0.3,0.2-0.5,0.3-0.7,0.6c-0.1,0.1-0.2,0.5-0.2,1c0,0.5,0.1,1,0.6,1.5c0.2,0.3,0.7,0.4,1.2,0.6c0.1,0,0.2,0.1,0.4,0.1
	c0.3,0.1,0.5,0.1,0.6,0.1c0.4,0.1,0.4,0,0.6,0.2l0,0c0,0,0,0.1,0,0.1c0,0.2,0,0.3-0.2,0.5C12.4,17,12.2,17.1,11.8,17.1z M12.5,14.3
	c-0.1,0-0.2-0.1-0.3-0.1c-0.2-0.1-0.4-0.1-0.5-0.2c-0.3-0.1-0.5-0.2-0.6-0.2L11,13.8h0c0,0,0-0.1,0-0.1c0-0.1,0-0.1,0.1-0.2
	c0.1-0.1,0.4-0.2,0.7-0.2c0.2,0,0.3,0.2,0.4,0.3c0,0,0.1,0.1,0.1,0.1c0.1,0.1,0.2,0.2,0.2,0.5V14.3z"/>
</svg>
