<?xml version="1.0" encoding="UTF-8"?>
<svg xmlns="http://www.w3.org/2000/svg" xmlns:xlink="http://www.w3.org/1999/xlink" width="24pt" height="24pt" viewBox="0 0 24 24" version="1.1">
<g id="surface1">
<path style=" stroke:none;fill-rule:nonzero;fill:rgb(0%,0%,0%);fill-opacity:1;" d="M 21.601562 8.617188 L 21.601562 5.453125 C 21.601562 5.453125 21.601562 5.34375 21.601562 5.34375 L 16.472656 0.21875 C 16.253906 0 16.144531 0 15.925781 0 L 2.835938 0 C 2.617188 0 2.398438 0.21875 2.398438 0.4375 L 2.398438 8.617188 L 0 8.617188 L 0 21.382812 L 2.398438 21.382812 L 2.398438 23.5625 C 2.398438 23.78125 2.617188 24 2.835938 24 L 21.164062 24 C 21.382812 24 21.601562 23.78125 21.601562 23.5625 L 21.601562 21.382812 L 24 21.382812 L 24 8.617188 Z M 16.363281 1.417969 L 20.074219 5.128906 L 16.363281 5.128906 Z M 3.273438 0.871094 L 15.492188 0.871094 L 15.492188 5.671875 C 15.492188 5.890625 15.710938 6.109375 15.925781 6.109375 L 20.726562 6.109375 L 20.726562 8.726562 L 3.273438 8.726562 Z M 20.726562 23.128906 L 3.273438 23.128906 L 3.273438 21.382812 L 20.726562 21.382812 Z M 23.128906 20.617188 L 0.871094 20.617188 L 0.871094 9.492188 L 23.128906 9.492188 Z M 5.890625 11.671875 L 7.199219 11.671875 L 7.199219 15.601562 C 7.199219 16.144531 7.199219 16.472656 7.089844 16.800781 C 6.980469 17.128906 6.761719 17.453125 6.4375 17.671875 C 6.109375 17.890625 5.671875 18 5.128906 18 C 4.472656 18 4.035156 17.78125 3.710938 17.453125 C 3.382812 17.128906 3.164062 16.582031 3.164062 15.925781 L 4.363281 15.925781 C 4.363281 16.253906 4.472656 16.582031 4.472656 16.691406 C 4.582031 16.910156 4.800781 17.019531 5.128906 17.019531 C 5.453125 17.019531 5.5625 16.910156 5.671875 16.800781 C 5.78125 16.691406 5.890625 16.253906 5.890625 15.816406 Z M 14.074219 18 L 12.65625 18 L 12.109375 16.582031 L 9.710938 16.582031 L 9.164062 18 L 7.855469 18 L 10.253906 11.78125 L 11.5625 11.78125 Z M 11.78125 15.492188 L 10.910156 13.199219 L 10.035156 15.492188 Z M 14.835938 18 L 14.835938 11.78125 L 17.453125 11.78125 C 18.109375 11.78125 18.65625 11.890625 18.871094 12 C 19.089844 12.109375 19.417969 12.328125 19.636719 12.546875 C 19.855469 12.761719 19.855469 13.199219 19.855469 13.527344 C 19.855469 13.964844 19.746094 14.398438 19.417969 14.726562 C 19.089844 15.054688 18.761719 15.273438 18.21875 15.273438 C 18.4375 15.382812 18.761719 15.601562 18.871094 15.816406 C 19.089844 16.035156 19.308594 16.363281 19.636719 16.800781 L 20.398438 18 L 18.871094 18 L 18 16.691406 C 17.671875 16.253906 17.453125 15.925781 17.34375 15.816406 C 17.238281 15.710938 17.128906 15.601562 17.019531 15.601562 C 16.910156 15.601562 16.691406 15.492188 16.363281 15.492188 L 16.144531 15.492188 L 16.144531 18.109375 L 14.835938 18.109375 Z M 16.035156 14.398438 L 17.019531 14.398438 C 17.671875 14.398438 18 14.398438 18.109375 14.289062 C 18.21875 14.183594 18.328125 14.183594 18.4375 14.074219 C 18.546875 13.964844 18.546875 13.746094 18.546875 13.636719 C 18.546875 13.417969 18.4375 13.308594 18.328125 13.089844 C 18.21875 12.871094 18.109375 12.871094 17.890625 12.871094 C 17.78125 12.871094 17.453125 12.871094 17.019531 12.871094 L 16.035156 12.871094 Z M 16.035156 14.398438 "/>
</g>
</svg>
