<?xml version="1.0" encoding="utf-8"?>
<!-- Generator: Adobe Illustrator 21.1.0, SVG Export Plug-In . SVG Version: 6.00 Build 0)  -->
<svg version="1.1" id="Layer_1" xmlns="http://www.w3.org/2000/svg" xmlns:xlink="http://www.w3.org/1999/xlink" x="0px" y="0px"
	 viewBox="0 0 24 24" style="enable-background:new 0 0 24 24;" xml:space="preserve">
<path d="M0,8.2v5.7h24V8.2H0z M7.6,8.4h3.5v5.3H7.6V8.4z M7.4,13.7H4V8.4h3.4V13.7z M11.4,8.4h4.7v5.3h-4.7V8.4z M16.3,8.4h3.3v5.3
	h-3.3V8.4z M0.3,8.4h3.5v5.3H0.3V8.4z M23.8,13.7h-3.9V8.4h3.9V13.7z M20.6,9.4C20.6,9.4,20.6,9.4,20.6,9.4c0.1-0.1,0.1-0.1,0.1-0.1
	l1.8,1.6c0,0,0,0,0,0c0,0,0,0.1,0,0.1l-1.8,1.6c0,0-0.1,0-0.1,0s0-0.1,0-0.1l1.8-1.6L20.6,9.4C20.6,9.5,20.6,9.5,20.6,9.4z
	 M22.9,12.7C22.9,12.7,22.8,12.7,22.9,12.7l-0.1-3.3c0,0,0-0.1,0.1-0.1c0,0,0,0,0,0c0,0,0.1,0,0.1,0.1L22.9,12.7
	C23,12.7,23,12.7,22.9,12.7C23,12.7,22.9,12.7,22.9,12.7z M3.3,12.5c0,0,0.1,0.1,0.1,0.1c0,0.1,0,0.1,0,0.1c0,0-0.1,0.1-0.1,0.1
	c0,0,0,0,0,0c0,0-0.1,0-0.1,0l-1.8-1.6c0,0,0-0.1-0.1-0.1v1.6c0,0.1,0,0.1-0.1,0.1S1,12.9,0.9,12.9c0,0,0,0,0,0
	c-0.1,0-0.1,0-0.1-0.1c0,0-0.1-0.1-0.1-0.1V9.4c0-0.1,0-0.1,0.1-0.1c0,0,0.1-0.1,0.1-0.1l0,0c0.1,0,0.2,0.1,0.2,0.2V11
	c0,0,0-0.1,0-0.1l0,0L3,9.3c0,0,0.1-0.1,0.1,0c0.1,0,0.1,0,0.1,0.1c0,0,0.1,0.1,0,0.1c0,0.1,0,0.1-0.1,0.1l-1.7,1.5L3.3,12.5z
	 M19.2,11.1L19.2,11.1l-1.7,1.8c0,0-0.1,0.1-0.1,0.1c-0.1,0-0.1,0-0.1-0.1c-0.1-0.1-0.1-0.2,0-0.3l1.5-1.6l-1.5-1.6
	c-0.1-0.1-0.1-0.2,0-0.3c0.1-0.1,0.2-0.1,0.3,0l1.7,1.8C19.2,11,19.2,11,19.2,11.1L19.2,11.1z M4.5,11l0-0.1l1.7-1.7
	c0,0,0.1-0.1,0.1-0.1c0,0,0,0,0,0c0.1,0,0.1,0,0.1,0.1c0,0,0.1,0.1,0.1,0.1s0,0.1-0.1,0.1L5,11l1.5,1.6c0,0,0.1,0.1,0.1,0.1
	s0,0.1-0.1,0.1c0,0-0.1,0.1-0.1,0.1c-0.1,0-0.1,0-0.1-0.1L4.5,11L4.5,11z M10,11.4c0,0.4-0.4,0.8-0.9,0.8c-0.3,0-0.5-0.1-0.6-0.1
	l0.1-0.4c0.1,0,0.3,0.1,0.5,0.1c0.2,0,0.4-0.1,0.4-0.3c0-0.2-0.2-0.4-0.6-0.4c-0.1,0-0.2,0-0.3,0L8.7,10h1.2v0.4H9l0,0.3
	c0,0,0.1,0,0.1,0c0.2,0,0.4,0,0.6,0.2C9.9,11,10,11.2,10,11.4z M12.5,11.3C12.5,11.3,12.6,11.3,12.5,11.3L12.5,11.3
	C12.6,11.4,12.5,11.3,12.5,11.3c-0.1,0.1-0.1,0.1-0.1,0.2v0h0.1v0.1h-0.1V12h-0.1v-0.4h-0.1v-0.1h0.1v0c0-0.1,0-0.1,0.1-0.2
	C12.4,11.3,12.5,11.3,12.5,11.3z M13.3,10h0.4v2h-0.4v-1.5h0l-0.4,0.2l-0.1-0.3L13.3,10z M11.9,11.3c-0.2,0-0.3,0.1-0.3,0.4
	c0,0.2,0.1,0.3,0.3,0.3c0.2,0,0.3-0.1,0.3-0.4C12.2,11.5,12.1,11.3,11.9,11.3z M11.9,11.9c-0.1,0-0.2-0.1-0.2-0.3
	c0-0.1,0.1-0.3,0.2-0.3c0.1,0,0.2,0.1,0.2,0.3C12.1,11.8,12,11.9,11.9,11.9z M15.1,10c-0.5,0-0.7,0.4-0.7,1c0,0.6,0.2,1,0.7,1
	c0.5,0,0.7-0.4,0.7-1C15.8,10.5,15.6,10,15.1,10z M15.1,11.7c-0.2,0-0.3-0.2-0.3-0.7c0-0.5,0.1-0.7,0.3-0.7c0.2,0,0.3,0.2,0.3,0.7
	C15.3,11.5,15.2,11.7,15.1,11.7z"/>
</svg>
