<?xml version="1.0" encoding="utf-8"?>
<!-- Generator: Adobe Illustrator 21.1.0, SVG Export Plug-In . SVG Version: 6.00 Build 0)  -->
<svg version="1.1" id="Layer_1" xmlns="http://www.w3.org/2000/svg" xmlns:xlink="http://www.w3.org/1999/xlink" x="0px" y="0px"
	 viewBox="0 0 24 24" style="enable-background:new 0 0 24 24;" xml:space="preserve">
<path d="M0,9.1v6.3h24V9.1H0z M3.7,14.4H1V10h2.7V14.4z M7.2,14.4H4.6V10h2.6V14.4z M10.8,14.4H8.1V10h2.7V14.4z M15.6,14.4h-3.8V10
	h3.8V14.4z M19,14.4h-2.5V10H19V14.4z M23.1,14.4H20V10h3.1V14.4z M20.5,11c0,0-0.1-0.1-0.1-0.2c0-0.1,0-0.1,0.1-0.2
	s0.1-0.1,0.2-0.1c0.1,0,0.1,0,0.2,0.1l1.5,1.3l0-1.2c0-0.1,0.1-0.2,0.2-0.2l0,0l0,0c0.1,0,0.2,0.1,0.2,0.2v2.7
	c0,0.1-0.1,0.2-0.2,0.2c0,0,0,0,0,0c-0.1,0-0.2-0.1-0.2-0.2v-1.2l-1.5,1.3c0,0-0.1,0.1-0.2,0.1c-0.1,0-0.1,0-0.2-0.1
	c0,0-0.1-0.1-0.1-0.2c0-0.1,0-0.1,0.1-0.2l1.4-1.2L20.5,11z M1.2,13.6v-2.7c0-0.1,0.1-0.2,0.2-0.2l0,0l0,0c0.1,0,0.2,0.1,0.2,0.2
	l0,1.2l1.5-1.3c0,0,0.1-0.1,0.2-0.1c0.1,0,0.1,0,0.2,0.1s0.1,0.1,0.1,0.2c0,0.1,0,0.1-0.1,0.2l-1.4,1.2l1.4,1.2c0,0,0.1,0.1,0.1,0.2
	c0,0.1,0,0.1-0.1,0.2c0,0-0.1,0.1-0.2,0.1c0,0-0.1,0-0.2-0.1l-1.5-1.3v1.2c0,0.1-0.1,0.2-0.2,0.2c0,0,0,0,0,0
	C1.3,13.8,1.2,13.7,1.2,13.6z M17,11.1c0,0-0.1-0.1-0.1-0.2c0-0.1,0-0.1,0.1-0.2c0.1-0.1,0.3-0.1,0.4,0l1.4,1.4c0,0,0.1,0.1,0.1,0.2
	s0,0.1-0.1,0.2l-1.4,1.4c0,0-0.1,0.1-0.2,0.1s-0.1,0-0.2-0.1c-0.1-0.1-0.1-0.3,0-0.4l1.2-1.2L17,11.1z M5,12.4c0,0-0.1-0.1-0.1-0.2
	s0-0.1,0.1-0.2l1.4-1.4c0.1-0.1,0.3-0.1,0.4,0c0,0,0.1,0.1,0.1,0.2c0,0.1,0,0.1-0.1,0.2l-1.2,1.2l1.2,1.2c0.1,0.1,0.1,0.3,0,0.4
	c0,0-0.1,0.1-0.2,0.1s-0.1,0-0.2-0.1L5,12.4z M9.3,13.5c-0.3,0-0.5-0.1-0.6-0.1l0.1-0.2c0.1,0.1,0.3,0.1,0.5,0.1
	c0.3,0,0.6-0.2,0.6-0.5c0-0.3-0.2-0.5-0.7-0.5c-0.1,0-0.2,0-0.3,0L9,11h1.2v0.3H9.2l-0.1,0.6c0.1,0,0.1,0,0.2,0c0.2,0,0.4,0,0.5,0.1
	c0.2,0.1,0.3,0.3,0.3,0.6C10.2,13.1,9.8,13.5,9.3,13.5z M12.6,13.5c-0.2,0-0.4,0.1-0.4,0.4c0,0.2,0.2,0.4,0.4,0.4
	c0.2,0,0.4-0.1,0.4-0.4C13,13.6,12.8,13.5,12.6,13.5z M12.6,14.2c-0.1,0-0.2-0.1-0.2-0.3c0-0.1,0.1-0.3,0.2-0.3
	c0.2,0,0.2,0.2,0.2,0.3C12.8,14,12.7,14.2,12.6,14.2z M13.1,13.6H13v-0.1h0.1v0c0-0.1,0-0.2,0.1-0.3c0.1,0,0.1-0.1,0.2-0.1
	c0,0,0.1,0,0.1,0l0,0.1c0,0,0,0-0.1,0c-0.1,0-0.1,0.1-0.1,0.2v0h0.2v0.1h-0.2v0.6h-0.1V13.6z M12.3,11.3l-0.1-0.2l0.5-0.3H13v2.4
	h-0.3v-2.1h0L12.3,11.3z M14.6,13.2c0.5,0,0.8-0.4,0.8-1.3c0-0.8-0.3-1.2-0.8-1.2c-0.5,0-0.8,0.4-0.8,1.2
	C13.8,12.8,14.1,13.2,14.6,13.2z M14.6,11c0.3,0,0.5,0.4,0.5,1c0,0.6-0.2,1-0.5,1c-0.3,0-0.5-0.3-0.5-1C14.1,11.3,14.3,11,14.6,11z"
	/>
</svg>
