<?xml version="1.0" encoding="utf-8"?>
<!-- Generator: Adobe Illustrator 21.1.0, SVG Export Plug-In . SVG Version: 6.00 Build 0)  -->
<svg version="1.1" id="Layer_1" xmlns="http://www.w3.org/2000/svg" xmlns:xlink="http://www.w3.org/1999/xlink" x="0px" y="0px"
	 viewBox="0 0 24 24" style="enable-background:new 0 0 24 24;" xml:space="preserve">
<path d="M0,7.6v10.1h24V7.6H0z M22.6,16.3H1.5V9h21.2V16.3z M19,10.3c-0.1-0.1-0.1-0.2-0.1-0.3c0-0.1,0-0.2,0.1-0.3
	c0.1-0.1,0.4-0.1,0.5,0l2.5,2.5c0.1,0.1,0.1,0.4,0,0.5l-2.5,2.5c-0.1,0.1-0.2,0.1-0.3,0.1c-0.1,0-0.2,0-0.3-0.1
	c-0.1-0.1-0.1-0.2-0.1-0.3c0-0.1,0-0.2,0.1-0.3l2.2-2.2L19,10.3z M2,12.8c-0.1-0.1-0.1-0.4,0-0.5l2.5-2.5c0.1-0.1,0.4-0.1,0.5,0
	c0.1,0.1,0.1,0.2,0.1,0.3c0,0.1,0,0.2-0.1,0.3l-2.2,2.2L5,14.7c0.1,0.1,0.1,0.2,0.1,0.3c0,0.1,0,0.2-0.1,0.3
	c-0.1,0.1-0.2,0.1-0.3,0.1c-0.1,0-0.2,0-0.3-0.1L2,12.8z M5.5,11.7L5.4,11l0.9-0.5h0.5v3.8H6.1v-3L5.5,11.7z M10.4,14.4H7.9v-0.5
	l0.4-0.4c0.9-0.9,1.3-1.3,1.3-1.8c0-0.4-0.2-0.6-0.6-0.6c-0.3,0-0.5,0.1-0.7,0.3l-0.1,0.1L7.9,11L8,10.9c0.3-0.3,0.7-0.4,1.1-0.4
	c0.8,0,1.2,0.6,1.2,1.2c0,0.7-0.5,1.3-1.3,2L9,13.7h1.4V14.4z M12.2,13.6c0.1-0.1,0.1-0.3,0.1-0.4c0-0.4-0.4-0.6-0.8-0.6h-0.4V12
	h0.4c0.3,0,0.7-0.1,0.7-0.5c0-0.2-0.1-0.4-0.5-0.4c-0.3,0-0.5,0.1-0.6,0.2L11,11.5l-0.2-0.6l0.1-0.1c0.2-0.1,0.6-0.3,1-0.3
	c0.8,0,1.1,0.5,1.1,1c0,0.3-0.2,0.6-0.5,0.8c0.4,0.2,0.6,0.5,0.6,0.9c0,0.6-0.4,1.2-1.4,1.2c-0.4,0-0.8-0.1-1-0.3l-0.1-0.1l0.2-0.6
	l0.1,0.1c0.1,0.1,0.4,0.2,0.7,0.2C11.9,13.8,12.1,13.7,12.2,13.6z M13.9,13.8c0-0.3,0.3-0.6,0.6-0.6s0.6,0.3,0.6,0.6
	s-0.3,0.6-0.6,0.6S13.9,14.2,13.9,13.8z M15.8,13.8c0-0.3,0.3-0.6,0.6-0.6s0.6,0.3,0.6,0.6s-0.3,0.6-0.6,0.6S15.8,14.2,15.8,13.8z
	 M17.7,13.8c0-0.3,0.3-0.6,0.6-0.6s0.6,0.3,0.6,0.6s-0.3,0.6-0.6,0.6S17.7,14.2,17.7,13.8z"/>
</svg>
