<?xml version="1.0" encoding="utf-8"?>
<!-- Generator: Adobe Illustrator 21.1.0, SVG Export Plug-In . SVG Version: 6.00 Build 0)  -->
<svg version="1.1" id="Layer_1" xmlns="http://www.w3.org/2000/svg" xmlns:xlink="http://www.w3.org/1999/xlink" x="0px" y="0px"
	 viewBox="0 0 24 24" style="enable-background:new 0 0 24 24;" xml:space="preserve">
<path d="M0,7.8v6.4h24V7.8H0z M11.2,13h-10V9h10V13z M22.8,13.1H12.4V9h10.5V13.1z M2.9,11.2c0.1,0,0.2,0,0.3,0
	c0.4,0,0.7-0.1,0.9-0.3c0.1-0.2,0.2-0.4,0.2-0.6c0-0.3-0.1-0.5-0.3-0.6C3.9,9.5,3.6,9.4,3.3,9.4c-0.3,0-0.6,0-0.7,0.1v2.9h0.4V11.2z
	 M2.9,9.8c0.1,0,0.2,0,0.4,0C3.7,9.7,4,9.9,4,10.3C4,10.7,3.7,11,3.2,11c-0.1,0-0.2,0-0.3,0V9.8z M4.8,11c0-0.3,0-0.5,0-0.7h0.3
	l0,0.4h0c0.1-0.3,0.3-0.5,0.6-0.5c0,0,0.1,0,0.1,0v0.4c0,0-0.1,0-0.1,0c-0.3,0-0.5,0.2-0.5,0.5c0,0.1,0,0.1,0,0.2v1.1H4.8V11z
	 M7.1,12.5c0.3,0,0.6-0.1,0.7-0.1l-0.1-0.3c-0.1,0.1-0.3,0.1-0.6,0.1c-0.4,0-0.7-0.2-0.7-0.7h1.5c0,0,0-0.1,0-0.2c0-0.4-0.2-1-0.9-1
	c-0.6,0-1,0.5-1,1.2S6.4,12.5,7.1,12.5z M7,10.5c0.4,0,0.5,0.4,0.5,0.6H6.4C6.4,10.9,6.6,10.5,7,10.5z M8.9,12.4l-0.8-2.1h0.4
	L9,11.5c0.1,0.2,0.1,0.4,0.2,0.5h0c0-0.2,0.1-0.4,0.2-0.5l0.4-1.2h0.4l-0.8,2.1H8.9z M14,12.4h-0.4v-3H14l1,1.5
	c0.2,0.3,0.4,0.7,0.5,1l0,0c0-0.4,0-0.8,0-1.2V9.5h0.4v3h-0.4l-0.9-1.5c-0.2-0.3-0.4-0.7-0.6-1l0,0c0,0.4,0,0.7,0,1.2V12.4z
	 M17.4,12.5c0.3,0,0.6-0.1,0.7-0.1L18,12.1c-0.1,0.1-0.3,0.1-0.6,0.1c-0.4,0-0.7-0.2-0.7-0.7h1.5c0,0,0-0.1,0-0.2c0-0.4-0.2-1-0.9-1
	c-0.6,0-1,0.5-1,1.2C16.4,12.1,16.7,12.5,17.4,12.5z M17.3,10.5c0.4,0,0.5,0.4,0.5,0.6h-1.1C16.8,10.9,16.9,10.5,17.3,10.5z
	 M18.4,12.4l0.8-1.1l-0.7-1h0.4l0.3,0.5c0.1,0.1,0.1,0.2,0.2,0.3h0c0.1-0.1,0.1-0.2,0.2-0.4l0.3-0.5h0.4l-0.7,1l0.8,1.1h-0.4
	L19.6,12c-0.1-0.1-0.2-0.2-0.2-0.4h0c-0.1,0.1-0.1,0.2-0.2,0.4l-0.3,0.5H18.4z M20.9,10.6h-0.3v-0.3h0.3V9.8l0.4-0.1v0.6h0.6v0.3
	h-0.6v1.2c0,0.3,0.1,0.4,0.3,0.4c0.1,0,0.2,0,0.2,0l0,0.3c-0.1,0-0.2,0.1-0.3,0.1c-0.2,0-0.3-0.1-0.4-0.2c-0.1-0.1-0.1-0.3-0.1-0.6
	V10.6z"/>
</svg>
