<?xml version="1.0" encoding="utf-8"?>
<!-- Generator: Adobe Illustrator 21.1.0, SVG Export Plug-In . SVG Version: 6.00 Build 0)  -->
<svg version="1.1" id="Layer_1" xmlns="http://www.w3.org/2000/svg" xmlns:xlink="http://www.w3.org/1999/xlink" x="0px" y="0px"
	 viewBox="0 0 24 24" style="enable-background:new 0 0 24 24;" xml:space="preserve">
<path d="M0,8.2v5.7h24V8.2H0z M23.8,13.7H0.3V8.4h23.5V13.7z M20.8,12.8l1.7-1.7l-1.7-1.7c0,0,0-0.1,0-0.1c0,0,0.1,0,0.1,0l1.7,1.8
	c0,0,0,0,0,0c0,0,0,0,0,0c0,0,0,0,0,0c0,0,0,0,0,0c0,0,0,0,0,0c0,0,0,0,0,0c0,0,0,0,0,0c0,0,0,0,0,0c0,0,0,0,0,0c0,0,0,0,0,0
	c0,0,0,0,0,0c0,0,0,0,0,0c0,0,0,0,0,0c0,0,0,0,0,0c0,0,0,0,0,0c0,0,0,0,0,0l-1.7,1.8c0,0,0,0-0.1,0c0,0,0,0-0.1,0
	C20.8,12.9,20.8,12.8,20.8,12.8z M1.3,11.1C1.3,11.1,1.3,11.1,1.3,11.1C1.3,11.1,1.3,11.1,1.3,11.1C1.3,11.1,1.3,11,1.3,11.1
	C1.3,11,1.3,11,1.3,11.1C1.3,11,1.3,11,1.3,11.1C1.3,11,1.4,11,1.3,11.1C1.4,11,1.4,11,1.3,11.1C1.4,11,1.4,11,1.3,11.1
	C1.4,11,1.4,11,1.3,11.1l1.8-1.8c0,0,0.1,0,0.1,0c0,0,0,0.1,0,0.1l-1.7,1.7l1.7,1.7c0,0,0,0.1,0,0.1c0,0,0,0-0.1,0c0,0,0,0-0.1,0
	L1.3,11.1C1.4,11.1,1.4,11.1,1.3,11.1C1.4,11.1,1.4,11.1,1.3,11.1C1.4,11.1,1.4,11.1,1.3,11.1C1.4,11.1,1.3,11.1,1.3,11.1
	C1.3,11.1,1.3,11.1,1.3,11.1C1.3,11.1,1.3,11.1,1.3,11.1C1.3,11.1,1.3,11.1,1.3,11.1z M15.6,11.9c0-0.1,0.1-0.2,0.2-0.2
	c0.1,0,0.2,0.1,0.2,0.2c0,0.1-0.1,0.2-0.2,0.2C15.7,12.1,15.6,12,15.6,11.9z M19.6,11.9c0-0.1,0.1-0.2,0.2-0.2
	c0.1,0,0.2,0.1,0.2,0.2c0,0.1-0.1,0.2-0.2,0.2C19.7,12.1,19.6,12,19.6,11.9z M17.6,11.9c0-0.1,0.1-0.2,0.2-0.2
	c0.1,0,0.2,0.1,0.2,0.2c0,0.1-0.1,0.2-0.2,0.2C17.7,12.1,17.6,12,17.6,11.9z M5.7,10.4c-0.2,0.1-0.3,0.2-0.5,0.3v-0.4
	c0.1,0,0.2-0.1,0.4-0.2c0.1-0.1,0.2-0.2,0.3-0.3h0.3V12H5.7V10.4z M10,12H8.6c0-0.1,0-0.1,0-0.2c0-0.1,0.1-0.2,0.2-0.3
	c0.1-0.1,0.2-0.2,0.3-0.3c0.2-0.2,0.4-0.3,0.5-0.5c0.1-0.1,0.1-0.2,0.1-0.3c0-0.1,0-0.2-0.1-0.3c-0.1-0.1-0.2-0.1-0.3-0.1
	c-0.1,0-0.2,0-0.3,0.1c-0.1,0.1-0.1,0.2-0.1,0.3l-0.3,0c0-0.2,0.1-0.4,0.2-0.5C9,9.9,9.1,9.8,9.3,9.8c0.2,0,0.4,0.1,0.5,0.2
	s0.2,0.3,0.2,0.4c0,0.1,0,0.2-0.1,0.3S9.9,10.9,9.8,11c-0.1,0.1-0.2,0.2-0.4,0.4c-0.2,0.1-0.3,0.2-0.3,0.3c0,0-0.1,0.1-0.1,0.1H10
	V12z M13.3,11.8c0.1-0.1,0.1-0.2,0.1-0.3c0-0.1,0-0.2-0.1-0.3C13.3,11.1,13.2,11,13,11c0,0-0.1,0-0.2,0l0-0.2c0,0,0,0,0,0
	c0.1,0,0.2,0,0.3-0.1c0.1-0.1,0.1-0.1,0.1-0.3c0-0.1,0-0.2-0.1-0.2s-0.2-0.1-0.3-0.1c-0.1,0-0.2,0-0.3,0.1s-0.1,0.2-0.1,0.3l-0.3,0
	c0-0.2,0.1-0.3,0.2-0.4c0.1-0.1,0.3-0.1,0.4-0.1c0.1,0,0.2,0,0.3,0.1c0.1,0.1,0.2,0.1,0.2,0.2c0.1,0.1,0.1,0.2,0.1,0.3
	c0,0.1,0,0.2-0.1,0.3c-0.1,0.1-0.1,0.1-0.2,0.2c0.1,0,0.2,0.1,0.3,0.2c0.1,0.1,0.1,0.2,0.1,0.3c0,0.2-0.1,0.3-0.2,0.5
	c-0.1,0.1-0.3,0.2-0.5,0.2c-0.2,0-0.3-0.1-0.5-0.2c-0.1-0.1-0.2-0.3-0.2-0.4l0.3,0c0,0.2,0.1,0.3,0.2,0.3c0.1,0.1,0.2,0.1,0.3,0.1
	C13.1,11.9,13.3,11.8,13.3,11.8z M6.9,12.6h-2v-0.3h2V12.6z"/>
</svg>
