<?xml version="1.0" encoding="utf-8"?>
<!-- Generator: Adobe Illustrator 21.1.0, SVG Export Plug-In . SVG Version: 6.00 Build 0)  -->
<svg version="1.1" id="Layer_1" xmlns="http://www.w3.org/2000/svg" xmlns:xlink="http://www.w3.org/1999/xlink" x="0px" y="0px"
	 viewBox="0 0 24 24" style="enable-background:new 0 0 24 24;" xml:space="preserve">
<path d="M0,15.5h16.8v8.7h-1v-7.7H2.3l0,0H2.1v0H1v7.7H0V15.5z M0-0.2h16.8v13.6H0V-0.2z M1,12.2h14.8V0.8h-2
	c-0.7-0.1-1.5-0.1-2.3,0H1V12.2z M23.8-0.2V24h-5.3V-0.2H23.8z M21.1,23.2l-1.8-1.6v1.6H21.1z M23.2,21.6l-1.9,1.6h1.9V21.6z
	 M23.2,20.5h-3.8v0.7l0.5-0.5l1.4,1.4l1.5-1.4l0.4,0.4V20.5z M23.2,16.2h-3.8v3.6h3.8V16.2z M20,9.8v1.4h2.6V9.8H20z M22.5,9V7.8H20
	V9H22.5z M20,12v1.5h2.6V12H20z M20,14.2v1.2h2.6v-1.2H20z M23.2,4h-3.8v3h3.8V4z M23.2,2.7c0,0-0.1,0.1-0.1,0.1L22.9,3h-0.1
	c-0.1,0-0.3-0.1-0.3-0.2l-1.2-1.2l-1.2,1.1c-0.2,0.2-0.4,0.2-0.5,0.2h-0.1l-0.1-0.1v0.4h3.8V2.7z M23.2,0.5h-3.8v1.7
	c0,0,0.1-0.1,0.1-0.1l1.4-1.4c0.1-0.1,0.2-0.1,0.3-0.1c0.1,0,0.2,0,0.3,0.1l1.6,1.6V0.5z M1.8,21h5.9v-0.8H1.8V21z M9.1,21H15v-0.8
	H9.1V21z M1.8,23h5.9v-0.8H1.8V23z M9.1,23H15v-0.8H9.1V23z M9.1,7.4H15V6.5H9.1V7.4z M9.1,9.5H15V8.6H9.1V9.5z M9.1,5.2H15V4.5H9.1
	V5.2z M9.1,11.5H15v-0.8H9.1V11.5z M1.8,7.4h5.9V6.5H1.8V7.4z M1.8,11.5h5.9v-0.8H1.8V11.5z M1.8,9.5h5.9V8.6H1.8V9.5z M1.8,5.2h5.9
	V4.5H1.8V5.2z M2,2.6c0-0.3,0-0.5,0-0.7l0,0C2.1,2,2.2,2.3,2.3,2.4l0.4,0.7H3V1.4H2.7v0.5c0,0.3,0,0.5,0,0.7h0
	C2.6,2.4,2.5,2.2,2.4,2L2.1,1.4H1.6v1.7H2V2.6z M4,2.3L4,2.3c0-0.1,0-0.2-0.2-0.2c-0.1,0-0.3,0-0.3,0.1L3.4,1.9
	c0.1,0,0.3-0.1,0.5-0.1c0.4,0,0.5,0.2,0.5,0.5v0.4c0,0.1,0,0.2,0,0.3H4L4,3h0C3.9,3.1,3.8,3.1,3.7,3.1c-0.2,0-0.4-0.2-0.4-0.4
	C3.3,2.4,3.5,2.3,4,2.3z M3.6,2.7c0,0.1,0.1,0.1,0.2,0.1C3.9,2.8,4,2.8,4,2.7c0,0,0,0,0-0.1V2.5C3.8,2.5,3.6,2.6,3.6,2.7z M4.7,3.1
	H5V2.4c0,0,0-0.1,0-0.1c0-0.1,0.1-0.1,0.2-0.1c0.1,0,0.2,0.1,0.2,0.3v0.7h0.4V2.4c0,0,0-0.1,0-0.1c0-0.1,0.1-0.1,0.2-0.1
	c0.1,0,0.2,0.1,0.2,0.3v0.7h0.4V2.4c0-0.4-0.2-0.5-0.4-0.5c-0.1,0-0.2,0-0.2,0.1C5.8,1.9,5.8,2,5.7,2h0C5.7,1.9,5.5,1.8,5.4,1.8
	C5.2,1.8,5,2,5,2h0l0-0.2H4.7c0,0.1,0,0.2,0,0.4V3.1z M7.9,2.4c0,0.1,0,0.1,0,0.2H7.1c0,0.2,0.2,0.2,0.3,0.2c0.1,0,0.2,0,0.3,0
	L7.8,3c-0.1,0-0.3,0.1-0.4,0.1C7,3.1,6.7,2.9,6.7,2.5c0-0.3,0.2-0.7,0.6-0.7C7.8,1.8,7.9,2.1,7.9,2.4z M7.6,2.3c0-0.1,0-0.2-0.2-0.2
	c-0.2,0-0.2,0.1-0.2,0.2H7.6z M2.4,18l-0.4-0.6H1.6v1.7H2v-0.5c0-0.3,0-0.5,0-0.7l0,0c0.1,0.2,0.2,0.4,0.3,0.6l0.4,0.7H3v-1.7H2.7
	v0.5c0,0.3,0,0.5,0,0.7h0C2.6,18.4,2.5,18.2,2.4,18z M4,18.3L4,18.3c0-0.1,0-0.2-0.2-0.2c-0.1,0-0.3,0-0.3,0.1l-0.1-0.2
	c0.1,0,0.3-0.1,0.5-0.1c0.4,0,0.5,0.2,0.5,0.5v0.4c0,0.1,0,0.2,0,0.3H4L4,19h0c-0.1,0.1-0.2,0.1-0.4,0.1c-0.2,0-0.4-0.2-0.4-0.4
	C3.3,18.4,3.5,18.3,4,18.3z M3.6,18.7c0,0.1,0.1,0.1,0.2,0.1c0.1,0,0.2-0.1,0.2-0.1c0,0,0,0,0-0.1v-0.1C3.8,18.5,3.6,18.6,3.6,18.7z
	 M6.5,19.1v-0.7c0-0.4-0.2-0.5-0.4-0.5c-0.1,0-0.2,0-0.2,0.1c-0.1,0-0.1,0.1-0.2,0.1h0c-0.1-0.1-0.2-0.2-0.3-0.2C5.2,17.8,5,18,5,18
	h0l0-0.2H4.7c0,0.1,0,0.2,0,0.4v0.8H5v-0.7c0,0,0-0.1,0-0.1c0-0.1,0.1-0.1,0.2-0.1c0.1,0,0.2,0.1,0.2,0.3v0.7h0.4v-0.7
	c0,0,0-0.1,0-0.1c0-0.1,0.1-0.1,0.2-0.1c0.1,0,0.2,0.1,0.2,0.3v0.7H6.5z M7.9,18.4c0,0.1,0,0.1,0,0.2H7.1c0,0.2,0.2,0.2,0.3,0.2
	c0.1,0,0.2,0,0.3,0L7.8,19c-0.1,0-0.3,0.1-0.4,0.1c-0.4,0-0.7-0.2-0.7-0.6c0-0.3,0.2-0.7,0.6-0.7C7.8,17.8,7.9,18.1,7.9,18.4z
	 M7.6,18.3c0-0.1,0-0.2-0.2-0.2c-0.2,0-0.2,0.1-0.2,0.2H7.6z M10.2,2.8H9.6V2.5h0.5V2.2H9.6V1.9h0.6V1.6H9.3v1.5h0.9V2.8z M10.4,3.1
	h0.3V2.5c0,0,0-0.1,0-0.1c0-0.1,0.1-0.1,0.2-0.1c0.1,0,0.2,0.1,0.2,0.2v0.6h0.3V2.5c0,0,0-0.1,0-0.1c0-0.1,0.1-0.1,0.2-0.1
	c0.1,0,0.2,0.1,0.2,0.2v0.6h0.3V2.5c0-0.3-0.2-0.5-0.4-0.5c-0.1,0-0.1,0-0.2,0.1c-0.1,0-0.1,0.1-0.1,0.1h0c0-0.1-0.2-0.2-0.3-0.2
	c-0.2,0-0.3,0.1-0.3,0.2h0l0-0.1h-0.3c0,0.1,0,0.2,0,0.3V3.1z M12.9,2.4L12.9,2.4c0-0.1,0-0.2-0.2-0.2c-0.1,0-0.2,0-0.3,0.1
	l-0.1-0.2c0.1,0,0.2-0.1,0.4-0.1c0.4,0,0.5,0.2,0.5,0.5v0.4c0,0.1,0,0.2,0,0.3h-0.3l0-0.1h0c-0.1,0.1-0.2,0.1-0.3,0.1
	c-0.2,0-0.3-0.2-0.3-0.3C12.3,2.5,12.5,2.4,12.9,2.4z M12.6,2.8c0,0.1,0.1,0.1,0.1,0.1c0.1,0,0.2-0.1,0.2-0.1c0,0,0,0,0-0.1V2.6
	C12.7,2.6,12.6,2.6,12.6,2.8z M13.6,1.9c0.1,0,0.2-0.1,0.2-0.2c0-0.1-0.1-0.2-0.2-0.2c-0.1,0-0.2,0.1-0.2,0.2
	C13.5,1.8,13.5,1.9,13.6,1.9z M13.5,3.1h0.3V2h-0.3V3.1z M14.4,1.6h-0.3v1.5h0.3V1.6z M10.2,17.9v-0.3H9.3v1.5h0.9v-0.3H9.6v-0.3
	h0.5v-0.3H9.6v-0.3H10.2z M12.1,19.1v-0.6c0-0.3-0.2-0.5-0.4-0.5c-0.1,0-0.1,0-0.2,0.1c-0.1,0-0.1,0.1-0.1,0.1h0
	c0-0.1-0.2-0.2-0.3-0.2c-0.2,0-0.3,0.1-0.3,0.2h0l0-0.1h-0.3c0,0.1,0,0.2,0,0.3v0.7h0.3v-0.6c0,0,0-0.1,0-0.1c0-0.1,0.1-0.1,0.2-0.1
	c0.1,0,0.2,0.1,0.2,0.2v0.6h0.3v-0.6c0,0,0-0.1,0-0.1c0-0.1,0.1-0.1,0.2-0.1c0.1,0,0.2,0.1,0.2,0.2v0.6H12.1z M12.9,18.4L12.9,18.4
	c0-0.1,0-0.2-0.2-0.2c-0.1,0-0.2,0-0.3,0.1l-0.1-0.2c0.1,0,0.2-0.1,0.4-0.1c0.4,0,0.5,0.2,0.5,0.5v0.4c0,0.1,0,0.2,0,0.3h-0.3l0-0.1
	h0c-0.1,0.1-0.2,0.1-0.3,0.1c-0.2,0-0.3-0.2-0.3-0.3C12.3,18.5,12.5,18.4,12.9,18.4z M12.6,18.8c0,0.1,0.1,0.1,0.1,0.1
	c0.1,0,0.2-0.1,0.2-0.1c0,0,0,0,0-0.1v-0.1C12.7,18.6,12.6,18.6,12.6,18.8z M13.5,19.1h0.3V18h-0.3V19.1z M13.6,17.6
	c-0.1,0-0.2,0.1-0.2,0.2c0,0.1,0.1,0.2,0.2,0.2c0.1,0,0.2-0.1,0.2-0.2C13.8,17.7,13.8,17.6,13.6,17.6z M14.1,17.6v1.5h0.3v-1.5H14.1
	z"/>
</svg>
