<?xml version="1.0" encoding="utf-8"?>
<!-- Generator: Adobe Illustrator 21.1.0, SVG Export Plug-In . SVG Version: 6.00 Build 0)  -->
<svg version="1.1" id="Layer_1" xmlns="http://www.w3.org/2000/svg" xmlns:xlink="http://www.w3.org/1999/xlink" x="0px" y="0px"
	 viewBox="0 0 24 24" style="enable-background:new 0 0 24 24;" xml:space="preserve">
<path d="M0,8.2v5.7h24V8.2H0z M23.8,13.7H11.9V8.4h-0.2v5.2H0.3V8.4h23.5V13.7z M7.9,12.1l-0.6-1.6h0.3l0.3,0.9
	c0,0.1,0.1,0.2,0.1,0.3c0-0.1,0.1-0.2,0.1-0.3l0.3-0.9h0.3l-0.6,1.6H7.9z M6.4,12.2c0.2,0,0.3,0,0.4-0.1s0.2-0.2,0.2-0.4l-0.3,0
	c0,0.1-0.1,0.2-0.2,0.2s-0.2,0.1-0.2,0.1c-0.1,0-0.2,0-0.3-0.1S6,11.6,6,11.4h1.2c0,0,0-0.1,0-0.1c0-0.3-0.1-0.5-0.2-0.6
	s-0.3-0.2-0.5-0.2c-0.2,0-0.4,0.1-0.5,0.2s-0.2,0.3-0.2,0.6c0,0.3,0.1,0.4,0.2,0.6C6,12.1,6.2,12.2,6.4,12.2z M6.1,10.9
	c0.1-0.1,0.2-0.1,0.3-0.1c0.1,0,0.2,0.1,0.3,0.2c0.1,0.1,0.1,0.2,0.1,0.3H6C6,11.1,6,11,6.1,10.9z M3.1,11.3h0.6
	c0.3,0,0.5-0.1,0.6-0.2s0.2-0.3,0.2-0.5c0-0.1,0-0.2-0.1-0.3c0-0.1-0.1-0.2-0.2-0.2S4.1,10,4,10c-0.1,0-0.2,0-0.3,0H2.8v2.1h0.3
	V11.3z M3.1,10.2h0.5c0.1,0,0.2,0,0.3,0c0.1,0,0.1,0.1,0.2,0.1c0,0.1,0.1,0.1,0.1,0.2c0,0.1,0,0.2-0.1,0.3S3.8,11,3.7,11H3.1V10.2z
	 M5,12.1H4.8v-1.6H5v0.2c0.1-0.1,0.1-0.2,0.2-0.2c0.1,0,0.1-0.1,0.2-0.1c0.1,0,0.2,0,0.3,0.1l-0.1,0.2c-0.1,0-0.1-0.1-0.2-0.1
	c-0.1,0-0.1,0-0.2,0.1c0,0-0.1,0.1-0.1,0.1c0,0.1,0,0.2,0,0.3V12.1z M18.6,12.1l0.6-0.8l-0.5-0.7H19l0.2,0.4c0,0.1,0.1,0.1,0.1,0.2
	c0-0.1,0.1-0.1,0.1-0.2l0.3-0.4H20l-0.5,0.7l0.6,0.8h-0.3l-0.3-0.5l-0.1-0.1l-0.4,0.6H18.6z M20.4,10.8h-0.2v-0.2h0.2v-0.4l0.3-0.2
	v0.5h0.3v0.2h-0.3v0.9c0,0.1,0,0.1,0,0.1c0,0,0,0,0,0.1c0,0,0.1,0,0.1,0c0,0,0.1,0,0.1,0l0,0.2c-0.1,0-0.1,0-0.2,0
	c-0.1,0-0.2,0-0.2,0S20.4,12,20.4,12c0,0,0-0.2,0-0.3V10.8z M15.3,12.1H15V10h0.3l1.1,1.7V10h0.3v2.1h-0.3l-1.1-1.7V12.1z
	 M17.8,12.2c0.2,0,0.3,0,0.4-0.1c0.1-0.1,0.2-0.2,0.2-0.4l-0.3,0c0,0.1-0.1,0.2-0.2,0.2s-0.2,0.1-0.2,0.1c-0.1,0-0.2,0-0.3-0.1
	s-0.1-0.2-0.1-0.4h1.2c0,0,0-0.1,0-0.1c0-0.3-0.1-0.5-0.2-0.6c-0.1-0.1-0.3-0.2-0.5-0.2c-0.2,0-0.4,0.1-0.5,0.2S17,11.1,17,11.4
	c0,0.3,0.1,0.4,0.2,0.6C17.4,12.1,17.6,12.2,17.8,12.2z M17.5,10.9c0.1-0.1,0.2-0.1,0.3-0.1c0.1,0,0.2,0.1,0.3,0.2
	c0.1,0.1,0.1,0.2,0.1,0.3h-0.9C17.3,11.1,17.4,11,17.5,10.9z"/>
</svg>
