<?xml version="1.0" encoding="utf-8"?>
<!-- Generator: Adobe Illustrator 21.1.0, SVG Export Plug-In . SVG Version: 6.00 Build 0)  -->
<svg version="1.1" id="Layer_1" xmlns="http://www.w3.org/2000/svg" xmlns:xlink="http://www.w3.org/1999/xlink" x="0px" y="0px"
	 viewBox="0 0 24 24" style="enable-background:new 0 0 24 24;" xml:space="preserve">
<path d="M12,0C5.4,0,0,5.4,0,12s5.4,12,12,12s12-5.4,12-12S18.6,0,12,0z M12,22.2C6.4,22.2,1.8,17.6,1.8,12S6.4,1.8,12,1.8
	S22.2,6.4,22.2,12S17.6,22.2,12,22.2z M16.9,8c0.1,1-0.6,1.5-1.8,1.3l-0.6-0.1l-0.3,0.3c-0.2,0.2-0.6,0.7-0.9,1.1l-0.6,0.8l0.3,1.1
	c0.5,1.8,0.6,2,1.1,2.3c0.3,0.1,0.7,0.2,1.3,0c0.6-0.1,0.7-0.1,0.5,0.5c-0.1,0.4-0.1,0.4-0.8,0.7c-0.8,0.3-1.6,0.4-2.2,0.3
	c-0.7-0.2-1.1-0.7-1.5-2.3c-0.1-0.2-0.1-0.4-0.1-0.5c0-0.1-0.2,0.1-0.5,0.6c-1.1,1.5-2,2.3-2.8,2.3c-0.8,0-1.2-0.4-1.2-1.1
	c0-0.9,0.8-1.4,1.9-1.1c0.4,0.1,0.5,0.1,0.6,0c0.2-0.2,1.1-1.3,1.4-1.8L11,12l-0.4-1.4c-0.4-1.5-0.6-1.8-1-2c-0.2-0.1-0.3-0.1-0.9,0
	C8,8.8,7.9,8.8,8.1,8.2c0.1-0.4,0.2-0.4,0.9-0.7c1.4-0.6,2.3-0.5,2.8,0.3c0.1,0.2,0.3,0.7,0.5,1.3c0.1,0.5,0.3,1,0.3,1
	c0,0,0.3-0.3,0.5-0.7c0.6-0.8,1.2-1.6,1.6-1.9c0.1-0.1,0.4-0.2,0.7-0.3C16.2,7,16.9,7.4,16.9,8z"/>
</svg>
