<?xml version="1.0" encoding="utf-8"?>
<!-- Generator: Adobe Illustrator 21.1.0, SVG Export Plug-In . SVG Version: 6.00 Build 0)  -->
<svg version="1.1" id="Layer_1" xmlns="http://www.w3.org/2000/svg" xmlns:xlink="http://www.w3.org/1999/xlink" x="0px" y="0px"
	 viewBox="0 0 24 24" style="enable-background:new 0 0 24 24;" xml:space="preserve">
<path d="M13.4,5.6C14.3,5.1,15,4.1,15,3c0-1.7-1.3-3-3-3S9,1.3,9,3c0,1.1,0.6,2.1,1.6,2.6H1.1v3.6h6.8V24h3.6v-6.8h1V24h3.5V9.2h6.7
	V5.6H13.4z M12,1.2c1,0,1.8,0.8,1.8,1.8S13,4.8,12,4.8S10.2,4,10.2,3S11,1.2,12,1.2z M14.7,7.9v14.8h-0.9v-6.8h-3.6v6.8H9.3V7.9H2.4
	V7h19.2v0.9H14.7z"/>
</svg>
