<?xml version="1.0" encoding="utf-8"?>
<!-- Generator: Adobe Illustrator 21.1.0, SVG Export Plug-In . SVG Version: 6.00 Build 0)  -->
<svg version="1.1" id="Layer_1" xmlns="http://www.w3.org/2000/svg" xmlns:xlink="http://www.w3.org/1999/xlink" x="0px" y="0px"
	 viewBox="0 0 22 22" style="enable-background:new 0 0 22 22;" xml:space="preserve">
<path d="M19.8,13c3-3,3-7.8,0-10.8c-2.1-2.1-5.3-2.8-8.1-1.7C7.8,2,5.8,6.4,7.3,10.3l-7,7C0.1,17.4,0,17.7,0,17.9v3.3
	C0,21.6,0.4,22,0.8,22h3.3c0.2,0,0.5-0.1,0.6-0.3l0.8-0.8c0.2-0.2,0.3-0.4,0.3-0.7v-1.5h1.3c0.7,0,1.2-0.5,1.2-1.2v-1.3h1.5
	c0.3,0,0.5-0.1,0.7-0.3l1.2-1.2C14.5,15.8,17.7,15.1,19.8,13z M20.5,10.2c-1.4,3.4-5.3,5-8.7,3.6c-0.2-0.1-0.4,0-0.5,0.1l-1.4,1.4
	l0,0H8.1c-0.4,0-0.7,0.3-0.7,0.7v1.6l-0.1,0.2l-0.2,0.1H5.6c-0.4,0-0.7,0.3-0.7,0.7v1.8l0,0L4.1,21H1v-3.1l7.2-7.2
	c0.1-0.1,0.2-0.3,0.1-0.5C7.2,7.7,7.8,4.8,9.7,2.9c2.6-2.6,6.8-2.6,9.4,0C21,4.8,21.6,7.7,20.5,10.2z M18.3,6.1
	c0-1.3-1.1-2.4-2.4-2.4c-1.3,0-2.4,1.1-2.4,2.4s1.1,2.4,2.4,2.4C17.2,8.5,18.3,7.4,18.3,6.1z M15.9,4.7L15.9,4.7
	c0.8,0,1.4,0.6,1.4,1.4c0,0.8-0.6,1.4-1.4,1.4c-0.8,0-1.4-0.6-1.4-1.4S15.1,4.7,15.9,4.7L15.9,4.7z"/>
</svg>
