<?xml version="1.0" encoding="utf-8"?>
<!-- Generator: Adobe Illustrator 21.1.0, SVG Export Plug-In . SVG Version: 6.00 Build 0)  -->
<svg version="1.1" id="Layer_1" xmlns="http://www.w3.org/2000/svg" xmlns:xlink="http://www.w3.org/1999/xlink" x="0px" y="0px"
	 viewBox="0 0 24 24" style="enable-background:new 0 0 24 24;" xml:space="preserve">
<path d="M22.8,12.6C22.8,6.7,18.1,2,12.2,2S1.7,6.7,1.7,12.6c0,3.6,1.8,6.8,4.5,8.7l-1.8,1.8L5.3,24l2.1-2.1
	c1.5,0.8,3.1,1.2,4.9,1.2c1.8,0,3.5-0.4,4.9-1.2l2.1,2.1l0.9-0.9l-1.8-1.8C21.1,19.3,22.8,16.1,22.8,12.6z M12.2,21.8
	c-5.1,0-9.2-4.1-9.2-9.2s4.1-9.2,9.2-9.2s9.2,4.1,9.2,9.2S17.4,21.8,12.2,21.8z M16.7,1.2L17.2,0c2.6,1,4.7,2.8,6.3,5.1l-1.1,0.7
	C21,3.8,19.1,2.2,16.7,1.2z M2.1,5.9L1,5.1C2.5,2.8,4.7,1,7.3,0l0.5,1.2C5.5,2.2,3.5,3.8,2.1,5.9z M12.9,12.2h3.4v1.3h-4.7V7.2h1.3
	V12.2z"/>
</svg>
