<?xml version="1.0" encoding="UTF-8"?>
<svg xmlns="http://www.w3.org/2000/svg" xmlns:xlink="http://www.w3.org/1999/xlink" width="24pt" height="24pt" viewBox="0 0 24 24" version="1.1">
<g id="surface1">
<path style=" stroke:none;fill-rule:nonzero;fill:rgb(0%,0%,0%);fill-opacity:1;" d="M 12.4375 12.109375 L 16.363281 15.492188 L 15.816406 16.144531 L 11.5625 12.4375 L 11.5625 4.144531 L 12.4375 4.144531 Z M 24 11.5625 L 24 12.4375 C 23.78125 18.761719 18.761719 23.78125 12.4375 24 L 11.5625 24 C 5.238281 23.78125 0.21875 18.761719 0 12.4375 L 0 11.5625 C 0.21875 5.238281 5.238281 0.21875 11.5625 0 L 12.4375 0 C 18.761719 0.21875 23.78125 5.238281 24 11.5625 Z M 22.144531 12.4375 L 22.144531 11.5625 L 22.910156 11.5625 C 22.691406 5.890625 18.21875 1.308594 12.4375 1.089844 L 12.4375 1.855469 L 11.5625 1.855469 L 11.5625 1.089844 C 5.890625 1.308594 1.308594 5.890625 1.089844 11.5625 L 1.855469 11.5625 L 1.855469 12.4375 L 1.089844 12.4375 C 1.308594 18.109375 5.890625 22.691406 11.5625 22.910156 L 11.5625 22.144531 L 12.4375 22.144531 L 12.4375 22.910156 C 18.109375 22.691406 22.691406 18.21875 22.910156 12.4375 Z M 22.144531 12.4375 "/>
</g>
</svg>
