<?xml version="1.0" encoding="utf-8"?>
<!-- Generator: Adobe Illustrator 21.1.0, SVG Export Plug-In . SVG Version: 6.00 Build 0)  -->
<svg version="1.1" id="Layer_1" xmlns="http://www.w3.org/2000/svg" xmlns:xlink="http://www.w3.org/1999/xlink" x="0px" y="0px"
	 viewBox="0 0 24 24" style="enable-background:new 0 0 24 24;" xml:space="preserve">
<path d="M12,5.8c-1.6,0-2.9-1.3-2.9-2.9S10.4,0,12,0s2.9,1.3,2.9,2.9S13.6,5.8,12,5.8z M12,1c-1,0-1.9,0.8-1.9,1.9S11,4.8,12,4.8
	s1.9-0.8,1.9-1.9S13,1,12,1z M16,24h-3.3v-6.9h-1.3V24H8V9.1H1.1V5.7h21.7v3.3H16V24z M13.7,23h1.2V8h6.9V6.8H2.2V8h6.9V23h1.2v-6.9
	h3.4V23z"/>
</svg>
