<?xml version="1.0" encoding="utf-8"?>
<!-- Generator: Adobe Illustrator 21.1.0, SVG Export Plug-In . SVG Version: 6.00 Build 0)  -->
<svg version="1.1" id="Layer_1" xmlns="http://www.w3.org/2000/svg" xmlns:xlink="http://www.w3.org/1999/xlink" x="0px" y="0px"
	 viewBox="0 0 24 24" style="enable-background:new 0 0 24 24;" xml:space="preserve">
<path d="M2.3,6.2L1,5.2l0.1-0.1C2.5,2.8,4.8,1,7.3,0.1l0.1,0L8,1.4l-0.1,0c-2.3,1-4.2,2.6-5.6,4.6L2.3,6.2z M22.2,6L22.2,6l1.4-0.7
	l-0.1-0.1c-1.7-2.4-3.8-4.1-6.3-5.1l-0.1,0l-0.6,1.4l0.1,0C18.9,2.4,20.7,3.9,22.2,6z M13,7.1h-1.5v6.5h4.9v-1.5H13V7.1z M18.5,21.2
	l1.8,1.8L19.2,24l-0.1-0.1l-2-2c-1.4,0.8-3,1.2-4.8,1.2c-1.7,0-3.3-0.4-4.8-1.2L5.4,24l-1.1-1.1l1.8-1.8c-2.7-2-4.4-5.2-4.4-8.6
	C1.7,6.7,6.3,2,12.2,2c5.9,0,10.6,4.6,10.6,10.6C22.8,15.9,21.2,19.1,18.5,21.2z M12.2,3.6c-4.9,0-8.9,4-8.9,8.9s4,8.9,8.9,8.9
	c5,0,8.9-3.9,8.9-8.9C21.2,7.7,17.1,3.6,12.2,3.6z"/>
</svg>
