<?xml version="1.0" encoding="utf-8"?>
<!-- Generator: Adobe Illustrator 21.1.0, SVG Export Plug-In . SVG Version: 6.00 Build 0)  -->
<svg version="1.1" id="Layer_1" xmlns="http://www.w3.org/2000/svg" xmlns:xlink="http://www.w3.org/1999/xlink" x="0px" y="0px"
	 viewBox="0 0 26.2 24" style="enable-background:new 0 0 26.2 24;" xml:space="preserve">
<path d="M18.3,9.6c1.5,0,2.8-1.3,2.8-2.8S19.8,4,18.3,4s-2.8,1.3-2.8,2.8S16.8,9.6,18.3,9.6z M17.1,6.8c0-0.7,0.5-1.2,1.2-1.2
	c0.7,0,1.2,0.5,1.2,1.2S19,8,18.3,8C17.6,8,17.1,7.5,17.1,6.8z M22.7,2.4c-2.3-2.3-5.8-3.1-8.9-1.9C11.7,1.4,10,2.9,9.1,5
	c-0.9,2-1,4.2-0.3,6.2l-7.3,7.3c-0.3,0.2-0.4,0.6-0.4,0.9v3.5c0,0.6,0.5,1.1,1.1,1.1h3.5c0.2,0,0.7-0.1,0.9-0.4l0.8-0.8
	c0.3-0.3,0.4-0.6,0.4-0.9v-1.3h1.1c0.9,0,1.5-0.7,1.5-1.5v-1.1h1.3c0.4,0,0.7-0.1,0.9-0.4l1.2-1.2c3,1.1,6.4,0.4,8.7-1.9
	C25.9,11,25.9,5.7,22.7,2.4z M9,17.3V19L9,19l-0.1,0H7.3c-0.6,0-1,0.4-1,1v1.8l-0.7,0.5H2.7v-2.9l7.6-7.6c0.2-0.2,0.3-0.5,0.2-0.8
	c-1.1-2.5-0.5-5.5,1.4-7.5c1.3-1.3,3-2,4.8-2c1.8,0,3.5,0.7,4.8,2c2,2,2.5,5,1.4,7.5l0,0c-1.4,3.5-5.4,5.1-8.9,3.7
	c-0.3-0.2-0.7,0-0.8,0.2l-1.4,1.4H10C9.4,16.3,9,16.7,9,17.3z"/>
</svg>
