<?xml version="1.0" encoding="utf-8"?>
<!-- Generator: Adobe Illustrator 21.1.0, SVG Export Plug-In . SVG Version: 6.00 Build 0)  -->
<svg version="1.1" id="Layer_1" xmlns="http://www.w3.org/2000/svg" xmlns:xlink="http://www.w3.org/1999/xlink" x="0px" y="0px"
	 viewBox="0 0 24 24" style="enable-background:new 0 0 24 24;" xml:space="preserve">
<path d="M12.6,12.1l3.9,3.4l-0.7,0.8l-4.3-3.8V4.1h1.1V12.1z M24,11.6v0.9c-0.2,6.4-5.2,11.3-11.6,11.6h-0.9
	C5.2,23.8,0.2,18.8,0,12.4v-0.9C0.2,5.2,5.2,0.2,11.6,0h0.9C18.8,0.2,23.8,5.2,24,11.6z M21.9,12.6v-1.1h0.8
	c-0.3-5.5-4.6-9.8-10.1-10.1v0.8h-1.1V1.3C6,1.6,1.6,6,1.3,11.4h0.8v1.1H1.3C1.6,18,6,22.4,11.4,22.7v-0.8h1.1v0.8
	c5.5-0.3,9.8-4.6,10.1-10.1H21.9z"/>
</svg>
