<?xml version="1.0" encoding="utf-8"?>
<!-- Generator: Adobe Illustrator 21.1.0, SVG Export Plug-In . SVG Version: 6.00 Build 0)  -->
<svg version="1.1" id="Layer_1" xmlns="http://www.w3.org/2000/svg" xmlns:xlink="http://www.w3.org/1999/xlink" x="0px" y="0px"
	 viewBox="0 0 24 24" style="enable-background:new 0 0 24 24;" xml:space="preserve">
<path d="M14.1,9.4c1.5-0.9,2.5-2.5,2.5-4.4c0-2.8-2.3-5.1-5.1-5.1C8.7,0,6.3,2.2,6.3,5c0,1.8,1,3.5,2.5,4.4c-4,1.2-6.9,4.8-6.9,8.7
	v1.2c0,0.3,0.3,0.6,0.6,0.6h4.2l-0.5,0.9C6,21,6,21.2,6.2,21.4L7.8,23c0.2,0.2,0.4,0.2,0.6,0l1.1-0.7l0.3,1.2c0,0.2,0.2,0.4,0.5,0.4
	h2.2c0.2,0,0.3-0.1,0.5-0.3l0.1-0.1l0.3-1.3l1.1,0.7c0.2,0.2,0.4,0.1,0.6,0l1.5-1.5c0.2-0.2,0.2-0.4,0-0.6L16,20h4.2
	c0.3,0,0.6-0.3,0.6-0.6v-1.2C21,14.2,18.1,10.5,14.1,9.4z M13.2,21.5c0,0-0.1,0-0.1,0c-0.1,0-0.2,0-0.2,0.1c-0.2,0-0.4,0.2-0.4,0.4
	l-0.3,1.2h-1.3l-0.3-1.3c0-0.2-0.2-0.4-0.4-0.4c-0.1,0-0.2-0.1-0.2-0.1c-0.1,0-0.1,0-0.2-0.1l-0.5,0l-1.1,0.6L7.4,21L8,20
	c0.2-0.2,0.2-0.4,0-0.6c0-0.1-0.1-0.1-0.1-0.2c0-0.1,0-0.1-0.1-0.2c0-0.2-0.2-0.4-0.4-0.4c0,0,0,0,0,0l-1.1-0.2v-1.3L7.5,17
	c0.2,0,0.4-0.2,0.4-0.4c0-0.1,0.1-0.2,0.1-0.2c0-0.1,0-0.1,0.1-0.2l0-0.5l-0.7-1.1l0.9-0.9l1.1,0.6l0.5,0l0.1-0.1c0,0,0.1,0,0.1,0
	c0.1,0,0.2,0,0.3-0.1c0.2,0,0.4-0.2,0.4-0.4l0.3-1.2h1.3l0.2,1.1c0,0.2,0.2,0.4,0.4,0.4c0.1,0,0.2,0.1,0.2,0.1c0.1,0,0.1,0,0.2,0.1
	l0.5,0l1.1-0.6l0.9,0.9l-0.6,1C15,15.7,15,15.8,15,15.9c0,0.1,0,0.2,0.1,0.3c0,0.1,0.1,0.1,0.1,0.2c0,0.1,0,0.1,0.1,0.2
	c0,0.2,0.2,0.4,0.4,0.4c0,0,0,0,0,0l1.2,0.3v1.3l-1.1,0.2c-0.2,0-0.4,0.2-0.4,0.4c0,0.1-0.1,0.2-0.1,0.2c0,0.1,0,0.1-0.1,0.2h0
	l0,0.5l0.6,1.1L14.8,22l-1.1-0.6h-0.1C13.6,21.4,13.4,21.3,13.2,21.5z M17.4,16.3L17.4,16.3L16,16l0.7-1.1c0.1-0.1,0.2-0.4,0.1-0.5
	c0-0.1-0.1-0.1-0.2-0.2l-1.5-1.5c-0.1-0.1-0.2-0.1-0.3-0.1c-0.1,0-0.2,0-0.3,0.1l-1.1,0.7l-0.3-1.2c0-0.2-0.2-0.4-0.5-0.4h-2.1
	c-0.2,0-0.4,0.1-0.5,0.3L10,12.1l-0.3,1.3l-1.1-0.7c-0.2-0.2-0.4-0.1-0.6,0l-1.5,1.5c-0.1,0.1-0.1,0.2-0.1,0.3c0,0.1,0,0.2,0.1,0.3
	L7,15.9l-1.2,0.3c-0.2,0-0.4,0.2-0.4,0.5v1.9H3.2v-0.5c0-4.3,3.8-7.9,8.3-7.9c4.5,0,8.3,3.6,8.3,7.9v0.5h-2.2v-1.8
	C17.6,16.6,17.5,16.5,17.4,16.3z M11.5,8.8C9.4,8.8,7.6,7.1,7.6,5c0-2.1,1.7-3.8,3.8-3.8c2.1,0,3.8,1.7,3.8,3.8
	C15.2,7.1,13.5,8.8,11.5,8.8z M11.4,14.6c-1.8,0-3.2,1.4-3.2,3.2c0,1.8,1.4,3.2,3.2,3.2c1.8,0,3.2-1.4,3.2-3.2
	C14.6,16,13.2,14.6,11.4,14.6z M11.5,19.9c-1.1,0-2.1-1-2.1-2.1c0-1.1,1-2.1,2.1-2.1c1.1,0,2.1,1,2.1,2.1
	C13.6,19,12.7,19.9,11.5,19.9z"/>
</svg>
