<?xml version="1.0" encoding="utf-8"?>
<!-- Generator: Adobe Illustrator 21.1.0, SVG Export Plug-In . SVG Version: 6.00 Build 0)  -->
<svg version="1.1" id="Layer_1" xmlns="http://www.w3.org/2000/svg" xmlns:xlink="http://www.w3.org/1999/xlink" x="0px" y="0px"
	 viewBox="0 0 26.2 24" style="enable-background:new 0 0 26.2 24;" xml:space="preserve">
<path d="M24.1,19.5c-1.2-2.1-3-3.5-5-4.1l-1.8-0.6l1.4-1.5c1.3-1.4,1.9-3.2,1.7-5.2L20,6.2c-0.3-2.2-1.5-4.1-3.2-5.1
	C15.6,0.4,14.4,0,13.2,0c-1.4,0-2.7,0.4-3.7,1.1C8,2.2,6.9,3.8,6.6,5.6L6.3,7.8c-0.3,2.1,0.2,4.1,1.5,5.5l1.3,1.5l-1.9,0.6
	c-2.1,0.6-3.9,2.1-5,4.2c-0.5,1-0.5,2.1,0.1,3C2.9,23.5,3.9,24,5,24h16.3c1.1,0,2.1-0.5,2.7-1.5C24.5,21.7,24.6,20.4,24.1,19.5z
	 M9.8,16.1c0.8-0.2,1.2-1,1-1.9l0-0.1c0,0-0.1-0.1-0.1-0.2c0-0.1-0.1-0.2-0.1-0.3l-1.4-1.6c-1-1.1-1.5-2.7-1.3-4.2l0.3-2.2
	c0.2-1.4,1.1-2.7,2.2-3.4c0.7-0.6,1.7-0.8,2.9-0.8c0.9,0,1.9,0.3,2.7,0.8c1.3,0.7,2.1,2.1,2.3,3.7l0.2,2.1c0.2,1.4-0.3,2.9-1.3,4
	l-1.5,1.7c-0.1,0.1-0.2,0.2-0.3,0.5c-0.1,0.4-0.1,0.8,0.1,1.2c0.2,0.3,0.5,0.6,0.8,0.7l2.1,0.6c1.8,0.5,3.3,1.7,4.1,3.4
	c0.3,0.5,0.3,1.1,0,1.6c-0.3,0.5-0.8,0.8-1.4,0.8L5,22.7c-0.6-0.1-1.2-0.5-1.5-1c-0.2-0.5-0.2-1,0-1.5l0,0c0.9-1.6,2.4-2.9,4.1-3.4
	L9.8,16.1z"/>
</svg>
