<?xml version="1.0" encoding="utf-8"?>
<!-- Generator: Adobe Illustrator 21.1.0, SVG Export Plug-In . SVG Version: 6.00 Build 0)  -->
<svg version="1.1" id="Layer_1" xmlns="http://www.w3.org/2000/svg" xmlns:xlink="http://www.w3.org/1999/xlink" x="0px" y="0px"
	 viewBox="0 0 22 22" style="enable-background:new 0 0 22 22;" xml:space="preserve">
<g>
	<path d="M3.5,22h15.1c1,0,1.9-0.5,2.4-1.3c0.5-0.8,0.5-1.9,0.1-2.7c-1-1.8-2.6-3.2-4.6-3.7l-1.9-0.6c0,0,0,0,0,0s0,0,0,0l0,0
		l1.4-1.5c1.2-1.3,1.7-3,1.5-4.7l-0.2-1.9C17,3.6,15.9,1.9,14.4,1h0c-1-0.6-2.1-1-3.3-1l0,0C9.9,0,8.7,0.3,7.7,1
		C6.3,2,5.4,3.5,5.1,5.1l-0.3,2C4.5,9,5,10.8,6.2,12.1l1.3,1.5l0,0v0c0,0,0,0,0,0l-1.9,0.6C3.6,14.8,2,16.2,1,18
		c-0.5,0.9-0.4,1.9,0.1,2.7C1.6,21.5,2.5,22,3.5,22z M2.1,18.5c0.8-1.5,2.2-2.7,3.9-3.2l1.9-0.6c0.7-0.2,1-0.9,0.8-1.6
		c-0.1-0.1-0.1-0.3-0.2-0.4l-1.3-1.5c-1-1.1-1.4-2.6-1.2-4l0.3-2C6.5,4,7.2,2.7,8.4,2c0.8-0.6,1.8-0.8,2.8-0.8
		c0.9,0,1.8,0.3,2.6,0.8h0C15,2.7,15.8,4,16,5.5l0.2,1.9c0.2,1.4-0.3,2.8-1.2,3.8l-1.4,1.6c-0.1,0.1-0.2,0.2-0.2,0.4
		c-0.2,0.6,0.1,1.4,0.8,1.6l1.9,0.6c1.7,0.5,3.1,1.6,3.9,3.2c0.6,1.1-0.2,2.4-1.4,2.4H3.5C2.3,20.8,1.5,19.6,2.1,18.5z"/>
</g>
</svg>
