<?xml version="1.0" encoding="utf-8"?>
<!-- Generator: Adobe Illustrator 21.1.0, SVG Export Plug-In . SVG Version: 6.00 Build 0)  -->
<svg version="1.1" id="Layer_1" xmlns="http://www.w3.org/2000/svg" xmlns:xlink="http://www.w3.org/1999/xlink" x="0px" y="0px"
	 viewBox="0 0 24 24" style="enable-background:new 0 0 24 24;" xml:space="preserve">
<path d="M13.4,9.4c1.8-0.7,3-2.5,3-4.5c0-2.7-2.2-4.9-4.9-4.9C8.7,0,6.5,2.2,6.5,4.9c0,2,1.2,3.8,3,4.5C5.3,10.3,2,14,2,18.2v1.2
	c0,0.2,0.2,0.4,0.4,0.4h4.7c0,0,0,0,0,0l-0.8,1.3c-0.1,0.1-0.1,0.2,0,0.3L7.9,23c0.1,0.1,0.2,0.1,0.3,0l1.3-0.8
	c0.1,0,0.2,0.1,0.2,0.1l0.3,1.4c0,0.1,0.1,0.2,0.3,0.2h2.2c0.1,0,0.2-0.1,0.3-0.2l0.3-1.4c0.1,0,0.2-0.1,0.2-0.1l1.3,0.8
	c0.1,0.1,0.3,0,0.3,0l1.5-1.5c0.1-0.1,0.1-0.2,0-0.3l-0.8-1.3c0,0,0,0,0,0h4.7c0.2,0,0.4-0.2,0.4-0.4v-1.2
	C20.9,14,17.6,10.3,13.4,9.4z M7.3,4.9c0-2.3,1.8-4.1,4.1-4.1c2.3,0,4.1,1.8,4.1,4.1S13.7,9,11.5,9C9.2,9,7.3,7.1,7.3,4.9z
	 M10.6,23.4l-0.3-1.4c0-0.1-0.1-0.2-0.2-0.2c-0.2-0.1-0.3-0.1-0.5-0.2c-0.1,0-0.2,0-0.3,0l-1.2,0.7L7,21.2L7.7,20
	c0.1-0.1,0.1-0.2,0-0.3c-0.1-0.2-0.1-0.3-0.2-0.5c0-0.1-0.1-0.2-0.2-0.2L6,18.8v-1.7l1.4-0.3c0.1,0,0.2-0.1,0.2-0.2
	c0.1-0.2,0.1-0.3,0.2-0.5c0-0.1,0-0.2,0-0.3L7,14.6l1.2-1.2l1.2,0.7c0.1,0,0.2,0,0.3,0c0.1-0.1,0.3-0.1,0.5-0.2
	c0.1,0,0.2-0.1,0.2-0.2l0.3-1.4h1.7l0.3,1.4c0,0.1,0.1,0.2,0.2,0.2c0.2,0.1,0.3,0.1,0.5,0.2c0.1,0,0.2,0,0.3,0l1.2-0.7l1.2,1.2
	l-0.7,1.2c-0.1,0.1-0.1,0.2,0,0.3c0.1,0.2,0.1,0.3,0.2,0.5c0,0.1,0.1,0.2,0.2,0.2l1.4,0.3v1.7l-1.4,0.3c-0.1,0-0.2,0.1-0.2,0.2
	c-0.1,0.2-0.1,0.3-0.2,0.5c0,0.1,0,0.2,0,0.3l0.7,1.2l-1.2,1.2l-1.2-0.7c-0.1,0-0.2-0.1-0.3,0c-0.1,0.1-0.3,0.1-0.5,0.2
	c-0.1,0-0.2,0.1-0.2,0.2l-0.3,1.4H10.6z M20.1,19h-2.6c0,0,0,0,0,0v-2.1c0-0.1-0.1-0.2-0.2-0.3l-1.4-0.3c0-0.1-0.1-0.2-0.1-0.2
	l0.8-1.3c0.1-0.1,0.1-0.3,0-0.3L15,12.9c-0.1-0.1-0.2-0.1-0.3,0l-1.3,0.8c-0.1,0-0.2-0.1-0.2-0.1l-0.3-1.4c0-0.1-0.1-0.2-0.3-0.2
	h-2.1c0,0,0,0,0,0c-0.1,0-0.2,0.1-0.3,0.2l-0.3,1.4c-0.1,0-0.2,0.1-0.2,0.1l-1.3-0.8c-0.1-0.1-0.3,0-0.3,0l-1.5,1.5
	c-0.1,0.1-0.1,0.2,0,0.3L7.2,16c0,0.1-0.1,0.2-0.1,0.2l-1.4,0.3c-0.1,0-0.2,0.1-0.2,0.3V19c0,0,0,0,0,0H2.8v-0.8
	c0-4.5,4-8.3,8.7-8.3c4.7,0,8.7,3.8,8.7,8.3V19z M14.4,17.9c0-1.6-1.3-3-3-3c-1.6,0-3,1.3-3,3c0,1.6,1.3,3,3,3
	C13.1,20.9,14.4,19.6,14.4,17.9z M11.5,20.3c-1.3,0-2.4-1.1-2.4-2.4c0-1.3,1.1-2.4,2.4-2.4c1.3,0,2.4,1.1,2.4,2.4
	C13.9,19.3,12.8,20.3,11.5,20.3z"/>
</svg>
