<svg id="Layer_3" data-name="Layer 3" xmlns="http://www.w3.org/2000/svg" viewBox="0 0 15 15"><title>icon_new_action2</title><path d="M15.13,4.83H3.36a.38.38,0,0,1,0-.76H15.13a.38.38,0,0,1,0,.76Z" transform="translate(-0.5 -0.5)"/><path d="M11.72,8.4a.36.36,0,0,1-.26-.11.39.39,0,0,1,0-.54l3.16-3.3-3.16-3.3a.39.39,0,0,1,0-.54.35.35,0,0,1,.52,0l3.42,3.57a.39.39,0,0,1,0,.54L12,8.29A.36.36,0,0,1,11.72,8.4Z" transform="translate(-0.5 -0.5)"/><path d="M12.63,11.92H.86a.38.38,0,0,1,0-.76H12.63a.38.38,0,0,1,0,.76Z" transform="translate(-0.5 -0.5)"/><path d="M4.27,15.5A.36.36,0,0,1,4,15.39L.61,11.81a.39.39,0,0,1,0-.54L4,7.71a.35.35,0,0,1,.52,0,.39.39,0,0,1,0,.54l-3.15,3.3,3.15,3.31a.39.39,0,0,1,0,.54A.35.35,0,0,1,4.27,15.5Z" transform="translate(-0.5 -0.5)"/></svg>