<?xml version="1.0" encoding="utf-8"?>
<!-- Generator: Adobe Illustrator 21.1.0, SVG Export Plug-In . SVG Version: 6.00 Build 0)  -->
<svg version="1.1" id="Layer_1" xmlns="http://www.w3.org/2000/svg" xmlns:xlink="http://www.w3.org/1999/xlink" x="0px" y="0px"
	 viewBox="0 0 24 24" style="enable-background:new 0 0 24 24;" xml:space="preserve">
<path d="M0,0v24h24V0H0z M22.3,22.3H1.7V1.7h20.7V22.3z M6,15.8h12c2.1,0,3.8-1.7,3.8-3.8c0-2.1-1.7-3.8-3.8-3.8H6
	c-2.1,0-3.8,1.7-3.8,3.8C2.2,14.1,3.9,15.8,6,15.8z M6,9.8h12c1.2,0,2.2,1,2.2,2.2c0,1.2-1,2.2-2.2,2.2H6c-1.2,0-2.2-1-2.2-2.2
	C3.8,10.8,4.8,9.8,6,9.8z"/>
</svg>
