<?xml version="1.0" encoding="utf-8"?>
<!-- Generator: Adobe Illustrator 21.1.0, SVG Export Plug-In . SVG Version: 6.00 Build 0)  -->
<svg version="1.1" id="Layer_1" xmlns="http://www.w3.org/2000/svg" xmlns:xlink="http://www.w3.org/1999/xlink" x="0px" y="0px"
	 viewBox="0 0 24 24" style="enable-background:new 0 0 24 24;" xml:space="preserve">
<path d="M4.1,16.2c0,4.3,3.5,7.8,7.8,7.8s7.8-3.5,7.8-7.8v-4.5H4.1V16.2z M16.5,3.3l2.3-2.3L17.9,0l-2.6,2.6c-1-0.5-2.2-0.8-3.5-0.8
	S9.5,2,8.4,2.6L5.9,0L5,0.9l2.3,2.3C5.4,4.7,4.1,6.9,4.1,9.5v1.1h15.6V9.5C19.7,6.9,18.4,4.7,16.5,3.3z M8.5,8.4
	c-0.6,0-1.1-0.5-1.1-1.1s0.5-1.1,1.1-1.1s1.1,0.5,1.1,1.1S9.1,8.4,8.5,8.4z M15.2,8.4c-0.6,0-1.1-0.5-1.1-1.1s0.5-1.1,1.1-1.1
	c0.6,0,1.1,0.5,1.1,1.1S15.8,8.4,15.2,8.4z"/>
</svg>
