<?xml version="1.0" encoding="utf-8"?>
<!-- Generator: Adobe Illustrator 21.1.0, SVG Export Plug-In . SVG Version: 6.00 Build 0)  -->
<svg version="1.1" id="Layer_1" xmlns="http://www.w3.org/2000/svg" xmlns:xlink="http://www.w3.org/1999/xlink" x="0px" y="0px"
	 viewBox="0 0 24 24" style="enable-background:new 0 0 24 24;" xml:space="preserve">
<path d="M23,12c0-3.2-2.6-5.7-5.7-5.7c-0.9,0-1.7,0.2-2.5,0.6c-0.7-1.1-1.8-1.9-3-2.4c0.5-0.5,0.8-1.1,0.8-1.9
	c0-1.4-1.2-2.6-2.6-2.6S7.3,1.2,7.3,2.6c0,0.7,0.3,1.4,0.8,1.9C5.8,5.2,4.2,7.4,4.2,9.9V12c0,3-2,8.1-2,8.2c-0.1,0.2,0,0.3,0.1,0.5
	s0.3,0.2,0.4,0.2h4.7v0.5c0,1.4,1.2,2.6,2.6,2.6s2.6-1.2,2.6-2.6v-0.5h4.7c0.2,0,0.3-0.1,0.4-0.2s0.1-0.3,0.1-0.5c0,0-0.4-1-0.9-2.4
	c0.1,0,0.3,0,0.4,0C20.4,17.7,23,15.2,23,12z M21.9,12c0,2.6-2.1,4.7-4.7,4.7s-4.7-2.1-4.7-4.7c0-2.6,2.1-4.7,4.7-4.7
	S21.9,9.4,21.9,12z M8.4,2.6C8.4,1.7,9.1,1,9.9,1s1.6,0.7,1.6,1.6s-0.7,1.6-1.6,1.6S8.4,3.5,8.4,2.6z M11.5,21.4
	c0,0.9-0.7,1.6-1.6,1.6s-1.6-0.7-1.6-1.6v-0.5h3.1V21.4z M16.5,19.8H3.4C4,18.3,5.2,14.5,5.2,12V9.9c0-2.6,2.1-4.7,4.7-4.7
	c1.6,0,3.1,0.8,3.9,2.1c-1.4,1-2.4,2.7-2.4,4.6c0,2.6,1.8,4.9,4.2,5.5C16,18.5,16.3,19.3,16.5,19.8z M15,12.5h1.7v1.7
	c0,0.3,0.2,0.5,0.5,0.5s0.5-0.2,0.5-0.5v-1.7h1.7c0.3,0,0.5-0.2,0.5-0.5s-0.2-0.5-0.5-0.5h-1.7V9.8c0-0.3-0.2-0.5-0.5-0.5
	s-0.5,0.2-0.5,0.5v1.7H15c-0.3,0-0.5,0.2-0.5,0.5C14.5,12.3,14.7,12.5,15,12.5z"/>
</svg>
