<?xml version="1.0" encoding="utf-8"?>
<!-- Generator: Adobe Illustrator 21.1.0, SVG Export Plug-In . SVG Version: 6.00 Build 0)  -->
<svg version="1.1" id="Layer_1" xmlns="http://www.w3.org/2000/svg" xmlns:xlink="http://www.w3.org/1999/xlink" x="0px" y="0px"
	 viewBox="0 0 24 24" style="enable-background:new 0 0 24 24;" xml:space="preserve">
<path d="M12,0C5.4,0,0,5.4,0,12s5.4,12,12,12s12-5.4,12-12S18.6,0,12,0z M18.5,13.3h-5.1v5c0,0.7-0.7,1.4-1.4,1.4s-1.4-0.6-1.4-1.4
	v-5H5.7c-0.7,0-1.4-0.8-1.4-1.5c0-0.7,0.6-1.4,1.4-1.4h4.9V5.7c0-0.8,0.7-1.4,1.4-1.4s1.4,0.6,1.4,1.4v4.7h5.1
	c0.8,0,1.4,0.6,1.4,1.4C19.9,12.6,19.3,13.3,18.5,13.3z"/>
</svg>
