<?xml version="1.0" encoding="utf-8"?>
<!-- Generator: Adobe Illustrator 21.1.0, SVG Export Plug-In . SVG Version: 6.00 Build 0)  -->
<svg version="1.1" id="Layer_1" xmlns="http://www.w3.org/2000/svg" xmlns:xlink="http://www.w3.org/1999/xlink" x="0px" y="0px"
	 viewBox="0 0 24 24" style="enable-background:new 0 0 24 24;" xml:space="preserve">
<path d="M22.9,21.4H24V24h-2.3v-1.2h1.2V21.4z M16.8,24h3.3v-1.2h-3.3V24z M11.8,24h3.3v-1.2h-3.3V24z M6.9,24h3.3v-1.2H6.9V24z
	 M4.1,21.4H3V24h2.3v-1.2H4.1V21.4z M4.1,10.1H3v3.8h1.1V10.1z M4.1,4.5H3v3.8h1.1V4.5z M4.1,1.2h1.2V0H3v2.6h1.1V1.2z M15.2,0h-3.3
	v1.2h3.3V0z M20.1,0h-3.3v1.2h3.3V0z M10.2,0H6.9v1.2h3.3V0z M21.7,0v1.2h1.2v1.4H24V0H21.7z M22.9,13.9H24v-3.8h-1.1V13.9z
	 M22.9,19.5H24v-3.8h-1.1V19.5z M22.9,8.2H24V4.5h-1.1V8.2z M6,6h15V3H6V6z M6,13h15v-3H6V13z M0,16.5h16v4H0V16.5z M1,19.5h14v-2H1
	V19.5z"/>
</svg>
