<?xml version="1.0" encoding="utf-8"?>
<!-- Generator: Adobe Illustrator 21.1.0, SVG Export Plug-In . SVG Version: 6.00 Build 0)  -->
<svg version="1.1" id="Layer_1" xmlns="http://www.w3.org/2000/svg" xmlns:xlink="http://www.w3.org/1999/xlink" x="0px" y="0px"
	 viewBox="0 0 24 24" style="enable-background:new 0 0 24 24;" xml:space="preserve">
<path d="M7.8,20.7H4.2V5.7h3.5V20.7z M10.3,5.7v14.9h3.5V5.7H10.3z M15.9,0h4.4v15h-4.4V0z M16.7,14.1h2.6V0.9h-2.6V14.1z
	 M22.7,22.8h-1.4V24H24v-2.5h-1.3V22.8z M15.7,24h3.9v-1.2h-3.9V24z M10.1,24h3.9v-1.2h-3.9V24z M4.5,24h3.9v-1.2H4.5V24z M1.3,21.5
	H0V24h2.7v-1.2H1.3V21.5z M1.3,11.2H0v3.5h1.3V11.2z M1.3,6.1H0v3.5h1.3V6.1z M1.3,16.4H0v3.5h1.3V16.4z M0,4.5h1.3V3.2h1.4V2H0V4.5
	z M10.1,3.2h3.9V2h-3.9V3.2z M4.5,3.2h3.9V2H4.5V3.2z M21.3,2v1.2h1.4v1.3H24V2H21.3z M22.7,14.8H24v-3.5h-1.3V14.8z M22.7,19.9H24
	v-3.5h-1.3V19.9z M22.7,9.6H24V6.1h-1.3V9.6z"/>
</svg>
