<?xml version="1.0" encoding="utf-8"?>
<!-- Generator: Adobe Illustrator 21.1.0, SVG Export Plug-In . SVG Version: 6.00 Build 0)  -->
<svg version="1.1" id="Layer_1" xmlns="http://www.w3.org/2000/svg" xmlns:xlink="http://www.w3.org/1999/xlink" x="0px" y="0px"
	 viewBox="0 0 24 24" style="enable-background:new 0 0 24 24;" xml:space="preserve">
<path d="M17.1,14.9c-0.4,0-0.7-0.3-0.7-0.7v-1.4H15c-0.4,0-0.7-0.3-0.7-0.7s0.3-0.7,0.7-0.7h1.4V9.8c0-0.4,0.3-0.7,0.7-0.7
	c0.4,0,0.7,0.3,0.7,0.7v1.4h1.4c0.4,0,0.7,0.3,0.7,0.7s-0.3,0.7-0.7,0.7h-1.4v1.4C17.8,14.6,17.5,14.9,17.1,14.9z M17.2,17.9
	L17.2,17.9c0.4,1.2,0.7,2,0.7,2l0,0.1c0,0.2,0,0.5-0.2,0.7c-0.1,0.1-0.3,0.3-0.6,0.3h-4.4v0.2c0,1.5-1.3,2.8-2.8,2.8
	c-1.5,0-2.8-1.3-2.8-2.8V21H2.9c-0.1,0-0.4,0-0.6-0.3l0-0.1c-0.1-0.1-0.2-0.3-0.1-0.6c0-0.1,0-0.2,0.1-0.4c1.2-3.4,1.8-6,1.8-7.6
	V9.9c0-2.4,1.5-4.6,3.6-5.4C7.4,4,7.2,3.4,7.2,2.8C7.2,1.3,8.5,0,10.1,0c1.5,0,2.8,1.3,2.8,2.8c0,0.7-0.2,1.3-0.6,1.8
	c1.1,0.5,2,1.2,2.6,2.1c0.8-0.4,1.5-0.5,2.4-0.5c3.2,0,5.8,2.6,5.8,5.8C23,15.2,20.5,17.8,17.2,17.9z M11.2,21.5V21H8.6v0.2
	c0,0.7,0.6,1.3,1.3,1.3C10.6,22.5,11.1,22.1,11.2,21.5L11.2,21.5z M17.1,16.4c2.4,0,4.4-2,4.4-4.4c0-2.4-2-4.4-4.4-4.4
	s-4.4,2-4.4,4.4C12.7,14.4,14.7,16.4,17.1,16.4z M5.6,9.9V12c0,2.5-1.1,5.9-1.7,7.4h12.1c-0.2-0.5-0.4-1.1-0.7-1.9
	c-2.4-0.7-4.2-3-4.2-5.6c0-1.8,0.8-3.5,2.3-4.6c-0.8-1.1-2.1-1.8-3.5-1.8C7.6,5.6,5.6,7.5,5.6,9.9z M11.3,2.8c0-0.8-0.7-1.3-1.3-1.3
	c-0.7,0-1.2,0.6-1.2,1.3c0,0.8,0.5,1.3,1.2,1.3C10.7,4.1,11.3,3.5,11.3,2.8z"/>
</svg>
