<?xml version="1.0" encoding="UTF-8"?>
<svg xmlns="http://www.w3.org/2000/svg" xmlns:xlink="http://www.w3.org/1999/xlink" width="24pt" height="24pt" viewBox="0 0 24 24" version="1.1">
<g id="surface1">
<path style=" stroke:none;fill-rule:nonzero;fill:rgb(0%,0%,0%);fill-opacity:1;" d="M 12 0.546875 C 5.671875 0.546875 0.546875 5.671875 0.546875 12 C 0.546875 18.328125 5.671875 23.453125 12 23.453125 C 18.328125 23.453125 23.453125 18.328125 23.453125 12 C 23.453125 5.671875 18.328125 0.546875 12 0.546875 Z M 18.21875 13.199219 L 13.308594 13.199219 L 13.308594 18 C 13.308594 18.65625 12.65625 19.308594 12 19.308594 C 11.34375 19.308594 10.691406 18.761719 10.691406 18 L 10.691406 13.199219 L 6 13.199219 C 5.34375 13.199219 4.691406 12.4375 4.691406 11.78125 C 4.691406 11.128906 5.238281 10.472656 6 10.472656 L 10.691406 10.472656 L 10.691406 6 C 10.691406 5.238281 11.34375 4.691406 12 4.691406 C 12.65625 4.691406 13.308594 5.238281 13.308594 6 L 13.308594 10.472656 L 18.21875 10.472656 C 18.980469 10.472656 19.527344 11.019531 19.527344 11.78125 C 19.527344 12.546875 18.980469 13.199219 18.21875 13.199219 Z M 18.21875 13.199219 "/>
</g>
</svg>
