<?xml version="1.0" encoding="utf-8"?>
<!-- Generator: Adobe Illustrator 21.1.0, SVG Export Plug-In . SVG Version: 6.00 Build 0)  -->
<svg version="1.1" id="Layer_1" xmlns="http://www.w3.org/2000/svg" xmlns:xlink="http://www.w3.org/1999/xlink" x="0px" y="0px"
	 viewBox="0 0 22 22" style="enable-background:new 0 0 22 22;" xml:space="preserve">
<style type="text/css">
	.st0{fill:#141010;}
</style>
<path class="st0" d="M11,0C4.9,0,0,4.9,0,11s4.9,11,11,11s11-4.9,11-11S17.1,0,11,0z M11,20.9c-5.5,0-9.9-4.5-9.9-9.9
	S5.5,1.1,11,1.1s9.9,4.5,9.9,9.9S16.5,20.9,11,20.9z M11,5.9c2.8,0,5.1,2.3,5.1,5.1s-2.3,5.1-5.1,5.1S5.9,13.8,5.9,11
	S8.2,5.9,11,5.9z"/>
</svg>
