<?xml version="1.0" encoding="utf-8"?>
<!-- Generator: Adobe Illustrator 21.1.0, SVG Export Plug-In . SVG Version: 6.00 Build 0)  -->
<svg version="1.1" id="Layer_1" xmlns="http://www.w3.org/2000/svg" xmlns:xlink="http://www.w3.org/1999/xlink" x="0px" y="0px"
	 viewBox="0 0 24 24" style="enable-background:new 0 0 24 24;" xml:space="preserve">
<path d="M12,0C5.4,0,0,5.4,0,12s5.4,12,12,12s12-5.4,12-12S18.6,0,12,0z M12,22.6C6.2,22.6,1.4,17.8,1.4,12C1.4,6.2,6.2,1.4,12,1.4
	c5.8,0,10.6,4.7,10.6,10.6C22.6,17.8,17.8,22.6,12,22.6z M17.6,12c0,3.1-2.5,5.6-5.6,5.6S6.4,15.1,6.4,12S8.9,6.4,12,6.4
	S17.6,8.9,17.6,12z"/>
</svg>
