<?xml version="1.0" encoding="utf-8"?>
<!-- Generator: Adobe Illustrator 21.1.0, SVG Export Plug-In . SVG Version: 6.00 Build 0)  -->
<svg version="1.1" id="Layer_1" xmlns="http://www.w3.org/2000/svg" xmlns:xlink="http://www.w3.org/1999/xlink" x="0px" y="0px"
	 viewBox="0 0 24 24" style="enable-background:new 0 0 24 24;" xml:space="preserve">
<path d="M23.6,0H0.4C0.2,0,0,0.2,0,0.4v23.2C0,23.8,0.2,24,0.4,24h23.2c0.2,0,0.4-0.2,0.4-0.4V0.4C24,0.2,23.8,0,23.6,0z M23.2,23.2
	H0.8V0.8h22.5V23.2z M3.5,12c0-0.2,0.2-0.4,0.4-0.4h6.6h0c0.2-0.7,0.8-1.2,1.5-1.2s1.3,0.5,1.5,1.2h0h6.6c0.2,0,0.4,0.2,0.4,0.4
	s-0.2,0.4-0.4,0.4h-6.6h0c-0.2,0.7-0.8,1.2-1.5,1.2s-1.3-0.5-1.5-1.2h0H3.9C3.6,12.4,3.5,12.2,3.5,12z M3.5,17.4
	c0-0.2,0.2-0.4,0.4-0.4h10.5h0c0.2-0.7,0.8-1.2,1.5-1.2c0.7,0,1.3,0.5,1.5,1.2h0h2.7c0.2,0,0.4,0.2,0.4,0.4s-0.2,0.4-0.4,0.4h-2.7h0
	c-0.2,0.7-0.8,1.2-1.5,1.2c-0.7,0-1.3-0.5-1.5-1.2h0H3.9C3.6,17.8,3.5,17.7,3.5,17.4z M3.5,6.6c0-0.2,0.2-0.4,0.4-0.4h2.7h0
	C6.8,5.5,7.4,5,8.1,5s1.3,0.5,1.5,1.2h0h10.5c0.2,0,0.4,0.2,0.4,0.4S20.4,7,20.1,7H9.7h0C9.5,7.6,8.9,8.1,8.1,8.1S6.8,7.6,6.6,7h0
	H3.9C3.6,7,3.5,6.8,3.5,6.6z"/>
</svg>
