<?xml version="1.0" encoding="utf-8"?>
<!-- Generator: Adobe Illustrator 21.1.0, SVG Export Plug-In . SVG Version: 6.00 Build 0)  -->
<svg version="1.1" id="Layer_1" xmlns="http://www.w3.org/2000/svg" xmlns:xlink="http://www.w3.org/1999/xlink" x="0px" y="0px"
	 viewBox="0 0 24 24" style="enable-background:new 0 0 24 24;" xml:space="preserve">
<path d="M23.4,0H0.6C0.3,0,0,0.3,0,0.6v22.7C0,23.7,0.3,24,0.6,24h22.7c0.3,0,0.6-0.3,0.6-0.6V0.6C24,0.3,23.7,0,23.4,0z M22.8,1.3
	v21.5H1.3V1.3H22.8z M3.4,6.7c0-0.3,0.3-0.6,0.6-0.6h2.5c0.3-0.7,0.9-1.2,1.6-1.2c0.7,0,1.4,0.5,1.6,1.2h10.1c0.3,0,0.6,0.3,0.6,0.6
	c0,0.4-0.3,0.6-0.6,0.6h-10C9.6,8,8.9,8.4,8.2,8.4C7.4,8.4,6.8,8,6.5,7.3H4.1C3.7,7.3,3.4,7.1,3.4,6.7z M3.4,12
	c0-0.3,0.3-0.6,0.6-0.6h6.3c0.3-0.7,0.9-1.2,1.6-1.2s1.4,0.5,1.6,1.2h6.3c0.3,0,0.6,0.3,0.6,0.6c0,0.3-0.3,0.6-0.6,0.6h-6.3
	c-0.3,0.7-0.9,1.2-1.6,1.2s-1.4-0.5-1.6-1.2H4.1C3.7,12.6,3.4,12.4,3.4,12z M3.4,17.3c0-0.3,0.3-0.6,0.6-0.6h10.1
	c0.3-0.7,0.9-1.2,1.6-1.2c0.7,0,1.4,0.5,1.6,1.2h2.5c0.3,0,0.6,0.3,0.6,0.6c0,0.3-0.3,0.6-0.6,0.6h-2.5c-0.3,0.7-0.9,1.2-1.6,1.2
	c-0.7,0-1.4-0.5-1.6-1.2H4.1C3.6,17.9,3.4,17.7,3.4,17.3z"/>
</svg>
