<?xml version="1.0" encoding="UTF-8"?>
<svg width="15px" height="15px" viewBox="0 0 15 15" version="1.1" xmlns="http://www.w3.org/2000/svg" xmlns:xlink="http://www.w3.org/1999/xlink">
    <title>Alignment icons-03</title>
    <g id="Layout-Widget-Icons" stroke="none" stroke-width="1" fill="none" fill-rule="evenodd">
        <g id="Assets" transform="translate(-229.000000, -285.000000)" fill="#000000" fill-rule="nonzero">
            <g id="Alignment-icons-03" transform="translate(229.000000, 285.000000)">
                <path d="M5.58003442,13 L3.41996558,13 C2.63574024,13 2,12.3971442 2,11.653484 L2,1.34651601 C2,0.602855751 2.63574024,0 3.41996558,0 L5.58003442,0 C6.36425976,0 7,0.602855751 7,1.34651601 L7,11.653484 C7,12.3971442 6.36425976,13 5.58003442,13 L5.58003442,13 Z M3.41996558,1.0608914 C3.27060417,1.08132705 3.16024334,1.20342136 3.16177396,1.34651601 L3.16177396,11.653484 C3.17630172,11.7840582 3.28281843,11.8884321 3.41996558,11.9064658 L5.58003442,11.9064658 C5.74638525,11.9064658 5.88123924,11.7785873 5.88123924,11.6208412 L5.88123924,1.34651601 C5.88123924,1.18876989 5.74638525,1.0608914 5.58003442,1.0608914 L3.41996558,1.0608914 Z" id="Shape"></path>
                <path d="M11.5800344,13 L9.41996558,13 C8.63574024,13 8,12.3932401 8,11.6447639 L8,6.35523614 C8,5.60675989 8.63574024,5 9.41996558,5 L11.5800344,5 C12.3642598,5 13,5.60675989 13,6.35523614 L13,11.6447639 C13,12.3932401 12.3642598,13 11.5800344,13 L11.5800344,13 Z M9.41996558,6.06776181 C9.25361475,6.06776181 9.11876076,6.19646845 9.11876076,6.35523614 L9.11876076,11.6447639 C9.11876076,11.8035316 9.25361475,11.9322382 9.41996558,11.9322382 L11.5800344,11.9322382 C11.7463853,11.9322382 11.8812392,11.8035316 11.8812392,11.6447639 L11.8812392,6.35523614 C11.8812392,6.19646845 11.7463853,6.06776181 11.5800344,6.06776181 L9.41996558,6.06776181 Z" id="Shape"></path>
                <path d="M14.4636964,15 L0.53630363,15 C0.240111314,15 0,14.7761424 0,14.5 C0,14.2238576 0.240111314,14 0.53630363,14 L14.4636964,14 C14.7598887,14 15,14.2238576 15,14.5 C15,14.7761424 14.7598887,15 14.4636964,15 Z" id="Path"></path>
            </g>
        </g>
    </g>
</svg>