<?xml version="1.0" encoding="UTF-8"?>
<svg width="15px" height="15px" viewBox="0 0 15 15" version="1.1" xmlns="http://www.w3.org/2000/svg" xmlns:xlink="http://www.w3.org/1999/xlink">
    <title>Alignment icons-01</title>
    <g id="Layout-Widget-Icons" stroke="none" stroke-width="1" fill="none" fill-rule="evenodd">
        <g id="Assets" transform="translate(-301.000000, -286.000000)" fill="#000000" fill-rule="nonzero">
            <g id="Alignment-icons-01" transform="translate(301.000000, 286.000000)">
                <g id="Rectangle" transform="translate(2.000000, 2.000000)">
                    <path d="M3.58003442,13 L1.41996558,13 C0.635740243,13 0,12.3960068 0,11.6509434 L0,1.32452832 C0.0140773096,0.589061243 0.64571298,0 1.41996558,0 L3.58003442,0 C4.35428702,0 4.98592269,0.589061243 5,1.32452832 L5,11.6509434 C5,12.3960068 4.36425976,13 3.58003442,13 L3.58003442,13 Z M1.41996558,1.0383648 C1.25361475,1.0383648 1.11876076,1.16648457 1.11876076,1.32452832 L1.11876076,11.6509434 C1.11876076,11.7268387 1.15049475,11.7996255 1.20698161,11.8532916 C1.26346847,11.9069576 1.34008109,11.9371069 1.41996558,11.9371069 L3.58003442,11.9371069 C3.65991891,11.9371069 3.73653153,11.9069576 3.79301839,11.8532916 C3.84950525,11.7996255 3.88123924,11.7268387 3.88123924,11.6509434 L3.88123924,1.32452832 C3.88123924,1.16648457 3.74638525,1.0383648 3.58003442,1.0383648 L1.41996558,1.0383648 Z" id="Shape"></path>
                </g>
                <g id="Rectangle-2" transform="translate(9.000000, 2.000000)">
                    <path d="M3.58247423,8.00000002 L1.41752577,8.00000002 C0.634647906,8.00000002 0,7.39136547 0,6.64057673 L0,1.33470652 C0.0140531217,0.593587833 0.644603507,-0.000122491234 1.41752577,1.89563707e-08 L3.58247423,1.89563707e-08 C4.36200931,1.89563707e-08 4.99527555,0.603615136 5,1.35118438 L5,6.65705459 C4.99059132,7.40140043 4.35869085,8.00000002 3.58247423,8.00000002 L3.58247423,8.00000002 Z M1.41752577,1.04634401 C1.25482518,1.05080386 1.1253631,1.1786111 1.12542955,1.33470652 L1.12542955,6.64057673 C1.12310659,6.71628713 1.15285235,6.78967278 1.20788481,6.84400179 C1.26291727,6.8983308 1.33854531,6.92893927 1.41752577,6.92893927 L3.58247423,6.92893927 C3.66222145,6.92893927 3.73870244,6.89855828 3.79509225,6.84447982 C3.85148205,6.79040136 3.88316151,6.71705522 3.88316151,6.64057673 L3.88316151,1.33470652 C3.88316151,1.1754483 3.74853923,1.04634401 3.58247423,1.04634401 L1.41752577,1.04634401 Z" id="Shape"></path>
                </g>
                <g id="Path">
                    <path d="M14.4677609,0.988437368 L0.645920817,0.988437368 C0.43323089,1.03212033 0.213663661,0.949714897 0.0915701406,0.780384872 C-0.0305233802,0.611054847 -0.0305233802,0.388945153 0.0915701406,0.219615128 C0.213663661,0.0502851025 0.43323089,-0.032120335 0.645920817,0.0115626318 L14.4677609,0.0115626318 C14.7598693,0.01568966 14.9956067,0.23713683 15,0.511537891 C14.9868641,0.778615586 14.7523765,0.988722278 14.4677609,0.988437368 L14.4677609,0.988437368 Z"></path>
                </g>
            </g>
        </g>
    </g>
</svg>