<?xml version="1.0" encoding="UTF-8"?>
<svg width="16px" height="14px" viewBox="0 0 16 14" version="1.1" xmlns="http://www.w3.org/2000/svg" xmlns:xlink="http://www.w3.org/1999/xlink">
    <title>Alignment icons-02</title>
    <g id="Layout-Widget-Icons" stroke="none" stroke-width="1" fill="none" fill-rule="evenodd">
        <g id="Assets" transform="translate(-265.000000, -286.000000)" fill="#000000" fill-rule="nonzero">
            <g id="Alignment-icons-02" transform="translate(265.000000, 286.000000)">
                <path d="M2.45070423,8 L0.549295775,8 C0.245928095,8 0,7.77614237 0,7.5 C0,7.22385763 0.245928095,7 0.549295775,7 L2.45070423,7 C2.7540719,7 3,7.22385763 3,7.5 C3,7.77614237 2.7540719,8 2.45070423,8 Z" id="Path"></path>
                <path d="M9.44444444,8 L6.55555556,8 C6.24873069,8 6,7.77614237 6,7.5 C6,7.22385763 6.24873069,7 6.55555556,7 L9.44444444,7 C9.75126931,7 10,7.22385763 10,7.5 C10,7.77614237 9.75126931,8 9.44444444,8 Z" id="Path"></path>
                <path d="M15.4507042,8 L13.5492958,8 C13.2459281,8 13,7.77614237 13,7.5 C13,7.22385763 13.2459281,7 13.5492958,7 L15.4507042,7 C15.7540719,7 16,7.22385763 16,7.5 C16,7.77614237 15.7540719,8 15.4507042,8 L15.4507042,8 Z" id="Path"></path>
                <path d="M5.57758621,14 L3.42241379,14 C2.63683635,14 2,13.3503629 2,12.548995 L2,1.45100503 C2,0.649637078 2.63683635,0 3.42241379,0 L5.57758621,0 C6.36316365,0 7,0.649637078 7,1.45100503 L7,12.548995 C7,13.3503629 6.36316365,14 5.57758621,14 Z M3.42241379,1.14321608 C3.26936906,1.16117274 3.15416342,1.29385811 3.15516584,1.45100503 L3.15516584,12.548995 C3.15516584,12.7189821 3.29025891,12.8567839 3.45689655,12.8567839 L5.61206897,12.8567839 C5.69280638,12.8592441 5.77096033,12.8276071 5.82807577,12.7693436 C5.88519121,12.7110801 5.9162048,12.6313553 5.9137931,12.548995 L5.9137931,1.45100503 C5.9162048,1.36864475 5.88519121,1.28891986 5.82807577,1.23065638 C5.77096033,1.17239289 5.69280638,1.1407559 5.61206897,1.14321608 L3.42241379,1.14321608 Z" id="Shape"></path>
                <path d="M12.5775862,12 L10.4224138,12 C9.63683635,12 9,11.353126 9,10.5551664 L9,3.44483363 C9,2.64687405 9.63683635,2 10.4224138,2 L12.5775862,2 C13.3631637,2 14,2.64687405 14,3.44483363 L14,10.5551664 C14,10.9383601 13.850139,11.3058592 13.5833846,11.576818 C13.3166303,11.8477769 12.9548338,12 12.5775862,12 L12.5775862,12 Z M10.4224138,3.13835377 C10.3416764,3.13590405 10.2635224,3.16740648 10.206407,3.22542216 C10.1492916,3.28343784 10.118278,3.36282364 10.1206897,3.44483363 L10.1206897,10.5551664 C10.118278,10.6371764 10.1492916,10.7165622 10.206407,10.7745778 C10.2635224,10.8325935 10.3416764,10.8640959 10.4224138,10.8616462 L12.5775862,10.8616462 C12.7442238,10.8616462 12.8793103,10.7244305 12.8793103,10.5551664 L12.8793103,3.44483363 C12.8793103,3.27556947 12.7442238,3.13835377 12.5775862,3.13835377 L10.4224138,3.13835377 Z" id="Shape"></path>
            </g>
        </g>
    </g>
</svg>