<?xml version="1.0" encoding="UTF-8"?>
<svg width="15px" height="15px" viewBox="0 0 15 15" version="1.1" xmlns="http://www.w3.org/2000/svg" xmlns:xlink="http://www.w3.org/1999/xlink">
    <title>Group</title>
    <g id="Layout-Widget-Icons" stroke="none" stroke-width="1" fill="none" fill-rule="evenodd">
        <g id="Assets" transform="translate(-73.000000, -285.000000)" fill="#000000" fill-rule="nonzero">
            <g id="Alignment-icons-04" transform="translate(73.000000, 285.000000)">
                <path d="M11.653484,13 L1.34651601,13 C0.989397759,13 0.646906143,12.8503969 0.394385408,12.5841017 C0.141864672,12.3178065 0,11.9566327 0,11.5800344 L0,9.41996558 C0,8.63574024 0.602855751,8 1.34651601,8 L11.653484,8 C12.3971442,8 13,8.63574024 13,9.41996558 L13,11.5800344 C13,12.3642598 12.3971442,13 11.653484,13 Z M1.34651601,9.11876076 C1.18876989,9.11876076 1.0608914,9.25361475 1.0608914,9.41996558 L1.0608914,11.5800344 C1.0608914,11.7463853 1.18876989,11.8812392 1.34651601,11.8812392 L11.653484,11.8812392 C11.8112301,11.8812392 11.9391086,11.7463853 11.9391086,11.5800344 L11.9391086,9.41996558 C11.9391086,9.25361475 11.8112301,9.11876076 11.653484,9.11876076 L1.34651601,9.11876076 Z" id="Shape"></path>
                <path d="M11.6447639,7 L6.35523614,7 C5.60675989,7 5,6.36425976 5,5.58003442 L5,3.41996558 C5,2.63574024 5.60675989,2 6.35523614,2 L11.6447639,2 C12.3932401,2 13,2.63574024 13,3.41996558 L13,5.58003442 C13,6.36425976 12.3932401,7 11.6447639,7 L11.6447639,7 Z M6.35523614,3.16177396 C6.19646845,3.16177396 6.06776181,3.29664401 6.06776181,3.46299484 L6.06776181,5.58003442 C6.06546401,5.66063288 6.0950129,5.73865231 6.14943089,5.79566944 C6.20384889,5.85268657 6.27831179,5.88364679 6.35523614,5.88123924 L11.6447639,5.88123924 C11.8035316,5.88123924 11.9322382,5.74638525 11.9322382,5.58003442 L11.9322382,3.41996558 C11.9116702,3.27060417 11.7887852,3.16024334 11.6447639,3.16177396 L6.35523614,3.16177396 Z" id="Shape"></path>
                <path d="M14.5,15 C14.2238576,15 14,14.7598887 14,14.4636964 L14,0.53630363 C14,0.240111314 14.2238576,0 14.5,0 C14.7761424,0 15,0.240111314 15,0.53630363 L15,14.4636964 C15,14.6059329 14.9473216,14.7423439 14.8535534,14.8429203 C14.7597852,14.9434967 14.6326082,15 14.5,15 Z" id="Path"></path>
            </g>
        </g>
    </g>
</svg>