<?xml version="1.0" encoding="UTF-8"?>
<svg width="15px" height="15px" viewBox="0 0 15 15" version="1.1" xmlns="http://www.w3.org/2000/svg" xmlns:xlink="http://www.w3.org/1999/xlink">
    <title>Alignment icons-05</title>
    <g id="Layout-Widget-Icons" stroke="none" stroke-width="1" fill="none" fill-rule="evenodd">
        <g id="Assets" transform="translate(-145.000000, -285.000000)" fill="#000000" fill-rule="nonzero">
            <g id="Alignment-icons-05" transform="translate(145.000000, 285.000000)">
                <path d="M13.656015,13 L3.34398496,13 C2.98753799,13 2.64569015,12.8503969 2.39364408,12.5841017 C2.14159801,12.3178065 2,11.9566327 2,11.5800344 L2,9.41996558 C2,8.63574024 2.60172256,8 3.34398496,8 L13.656015,8 C14.3982774,8 15,8.63574024 15,9.41996558 L15,11.5800344 C15,11.9566327 14.858402,12.3178065 14.6063559,12.5841017 C14.3543098,12.8503969 14.012462,13 13.656015,13 Z M3.34398496,9.11876076 C3.18653536,9.11876076 3.05889724,9.25361475 3.05889724,9.41996558 L3.05889724,11.5800344 C3.05889724,11.7463853 3.18653536,11.8812392 3.34398496,11.8812392 L13.656015,11.8812392 C13.8134646,11.8812392 13.9411028,11.7463853 13.9411028,11.5800344 L13.9411028,9.41996558 C13.9411028,9.34008109 13.9110668,9.26346847 13.8576025,9.20698161 C13.8041382,9.15049475 13.731625,9.11876076 13.656015,9.11876076 L3.34398496,9.11876076 Z" id="Shape"></path>
                <path d="M8.64476386,7 L3.35523614,7 C2.60675989,7 2,6.36425976 2,5.58003442 L2,3.41996558 C2,2.63574024 2.60675989,2 3.35523614,2 L8.64476386,2 C9.39324011,2 10,2.63574024 10,3.41996558 L10,5.58003442 C10,6.36425976 9.39324011,7 8.64476386,7 L8.64476386,7 Z M3.35523614,3.16179002 C3.21433629,3.16449785 3.0960836,3.27382203 3.07597536,3.41996558 L3.07597536,5.58003442 C3.07597536,5.74638525 3.204682,5.88123924 3.36344969,5.88123924 L8.65297741,5.88123924 C8.8117451,5.88123924 8.94045175,5.74638525 8.94045175,5.58003442 L8.94045175,3.41996558 C8.9195294,3.26726983 8.79188272,3.15581699 8.64476386,3.16179002 L3.35523614,3.16179002 Z" id="Shape"></path>
                <path d="M0.5,15 C0.223857625,15 0,14.7598887 0,14.4636964 L0,0.53630363 C0,0.240111314 0.223857625,0 0.5,0 C0.776142375,0 1,0.240111314 1,0.53630363 L1,14.4636964 C1,14.6059329 0.94732158,14.7423439 0.853553391,14.8429203 C0.759785201,14.9434967 0.632608245,15 0.5,15 Z" id="Path"></path>
            </g>
        </g>
    </g>
</svg>