<?xml version="1.0" encoding="utf-8"?>
<!-- Generator: Adobe Illustrator 21.1.0, SVG Export Plug-In . SVG Version: 6.00 Build 0)  -->
<svg version="1.1" id="Layer_1" xmlns="http://www.w3.org/2000/svg" xmlns:xlink="http://www.w3.org/1999/xlink" x="0px" y="0px"
	 viewBox="0 0 24 24" style="enable-background:new 0 0 24 24;" xml:space="preserve">
<path d="M10.6,5.6h2.9V3.7h2.3L12,0L8.3,3.7h2.3V5.6z M12.4,2.7v1.9h-1V2.7h-0.8L12,1.4l1.3,1.3H12.4z M3.7,8.3L0,12l3.7,3.7v-2.3
	h1.9v-2.9H3.7V8.3z M2.7,12.5v0.8L1.4,12l1.3-1.3v0.9h1.9v1H2.7z M24,12l-3.7-3.7v2.3h-1.9v2.9h1.9v2.3L24,12z M21.3,11.5v-0.8
	l1.3,1.3l-1.3,1.3v-0.9h-1.9v-1H21.3z M12,5.9c-3.4,0-6.1,2.7-6.1,6.1c0,3.4,2.7,6.1,6.1,6.1c3.4,0,6.1-2.7,6.1-6.1
	C18.1,8.6,15.4,5.9,12,5.9z M12,17.2c-2.8,0-5.2-2.3-5.2-5.2c0-1.3,0.5-2.7,1.5-3.6l0.1-0.1v0c0,0,0.1-0.1,0.1-0.1
	c0.9-0.9,2.2-1.4,3.5-1.4c2.8,0,5.2,2.3,5.2,5.2C17.2,14.8,14.8,17.2,12,17.2z M13.3,18.6h-0.1v-0.2h-2.7v1.9H8.2l3.7,3.7l3.7-3.7
	h-2.3V18.6z M12,22.6l-1.3-1.3h0.9v-1.9h1v1.9h0.8L12,22.6z"/>
</svg>
