<?xml version="1.0" encoding="utf-8"?>
<!-- Generator: Adobe Illustrator 21.1.0, SVG Export Plug-In . SVG Version: 6.00 Build 0)  -->
<svg version="1.1" id="Layer_1" xmlns="http://www.w3.org/2000/svg" xmlns:xlink="http://www.w3.org/1999/xlink" x="0px" y="0px"
	 viewBox="0 0 24 24" style="enable-background:new 0 0 24 24;" xml:space="preserve">
<path d="M10.8,5.1h2.5v-2h2L12-0.1L8.8,3.1h2V5.1z M10,2.6l2-2l2,2h-1.3v2h-1.5v-2H10z M3.1,8.8L-0.1,12l3.2,3.2v-2h2v-2.5h-2V8.8z
	 M4.6,11.3v1.5h-2V14l-2-2l2-2v1.3H4.6z M12,5.9c-3.4,0-6.1,2.7-6.1,6.1c0,3.4,2.7,6.1,6.1,6.1c3.4,0,6.1-2.7,6.1-6.1
	C18.1,8.6,15.4,5.9,12,5.9z M12,17.6c-3.1,0-5.6-2.5-5.6-5.6C6.4,10.5,7,9.1,8,8.1C8,8,8.1,8,8.1,7.9c1-1,2.4-1.6,3.9-1.6
	c3.1,0,5.6,2.5,5.6,5.6S15.1,17.6,12,17.6z M24.1,12l-3.2-3.2v2h-2v2.5h2v2L24.1,12z M19.4,12.7v-1.5h2V10l2,2l-2,2v-1.3H19.4z
	 M13.2,18.9h-2.5v2h-2l3.2,3.2l3.2-3.2h-2V18.9z M14,21.4l-2,2l-2-2h1.3v-2h1.5v2H14z"/>
</svg>
