<?xml version="1.0" encoding="UTF-8"?>
<svg xmlns="http://www.w3.org/2000/svg" xmlns:xlink="http://www.w3.org/1999/xlink" width="24pt" height="24pt" viewBox="0 0 24 24" version="1.1">
<g id="surface1">
<path style=" stroke:none;fill-rule:nonzero;fill:rgb(0%,0%,0%);fill-opacity:1;" d="M 5.019531 16.253906 L 4.144531 16.253906 L 4.144531 10.363281 C 4.144531 10.035156 4.363281 9.816406 4.691406 9.816406 L 4.910156 9.816406 L 4.910156 16.253906 Z M 17.890625 18.328125 C 17.78125 19.527344 17.019531 20.398438 15.925781 20.835938 L 15.925781 24 L 14.726562 24 L 14.726562 21.054688 L 9.164062 21.054688 L 9.164062 24 L 7.964844 24 L 7.964844 20.835938 C 6.871094 20.398438 6.109375 19.417969 6 18.21875 L 6 9.710938 L 18 9.710938 C 18 9.816406 17.890625 9.925781 17.890625 10.035156 Z M 16.800781 10.910156 L 7.199219 10.910156 L 7.199219 18 C 7.199219 18.980469 7.964844 19.855469 9.054688 19.855469 L 14.945312 19.855469 C 15.925781 19.855469 16.800781 19.089844 16.800781 18 Z M 19.199219 9.710938 L 18.871094 9.710938 C 18.871094 9.816406 18.980469 9.925781 18.980469 10.035156 L 18.980469 16.253906 L 19.746094 16.253906 L 19.746094 10.363281 C 19.855469 10.035156 19.527344 9.710938 19.199219 9.710938 Z M 6 8.507812 L 6 6.546875 C 6 5.128906 6.65625 3.925781 7.746094 3.054688 L 6.21875 0.65625 L 7.199219 0 L 8.835938 2.507812 C 9.816406 2.074219 10.910156 1.855469 12 1.855469 C 13.089844 1.855469 14.183594 2.074219 15.164062 2.507812 L 16.800781 0 L 17.78125 0.65625 L 16.144531 3.164062 C 17.238281 3.925781 17.890625 5.238281 17.890625 6.65625 L 17.890625 8.617188 C 17.890625 8.945312 17.671875 9.164062 17.34375 9.164062 L 6.65625 9.164062 C 6.328125 9.164062 6 8.835938 6 8.507812 Z M 7.199219 7.964844 L 16.691406 7.964844 L 16.691406 6.546875 C 16.691406 5.453125 16.144531 4.472656 15.164062 3.925781 C 14.183594 3.382812 12.980469 3.054688 11.890625 3.054688 C 10.800781 3.054688 9.710938 3.382812 8.726562 3.925781 C 7.746094 4.472656 7.199219 5.453125 7.199219 6.546875 Z M 7.199219 7.964844 "/>
<path style=" stroke:none;fill-rule:nonzero;fill:rgb(0%,0%,0%);fill-opacity:1;" d="M 9.710938 6.871094 C 11.128906 6.871094 11.128906 4.691406 9.710938 4.691406 C 8.289062 4.691406 8.289062 6.871094 9.710938 6.871094 Z M 9.710938 6.871094 "/>
<path style=" stroke:none;fill-rule:nonzero;fill:rgb(0%,0%,0%);fill-opacity:1;" d="M 14.074219 6.871094 C 15.492188 6.871094 15.492188 4.691406 14.074219 4.691406 C 12.65625 4.691406 12.65625 6.871094 14.074219 6.871094 Z M 14.074219 6.871094 "/>
</g>
</svg>
