<?xml version="1.0" encoding="utf-8"?>
<!-- Generator: Adobe Illustrator 21.1.0, SVG Export Plug-In . SVG Version: 6.00 Build 0)  -->
<svg version="1.1" id="Layer_1" xmlns="http://www.w3.org/2000/svg" xmlns:xlink="http://www.w3.org/1999/xlink" x="0px" y="0px"
	 viewBox="0 0 24 24" style="enable-background:new 0 0 24 24;" xml:space="preserve">
<path d="M22.4,10L12,20.5L1.6,10c-0.4-0.4-1-0.4-1.3,0c-0.4,0.4-0.4,1,0,1.3l11.1,11.1c0.2,0.2,0.4,0.3,0.7,0.3h0
	c0.2,0,0.5-0.1,0.7-0.3l11-11.1c0.4-0.4,0.4-1,0-1.3C23.4,9.7,22.8,9.7,22.4,10z M11.4,14c0.2,0.2,0.4,0.3,0.7,0.3h0
	c0.2,0,0.5-0.1,0.7-0.3l11-11.1c0.4-0.4,0.4-1,0-1.3c-0.4-0.4-1-0.4-1.3,0L12,12L1.6,1.5c-0.4-0.4-1-0.4-1.3,0s-0.4,1,0,1.3L11.4,14
	z"/>
</svg>
