<?xml version="1.0" encoding="utf-8"?>
<!-- Generator: Adobe Illustrator 21.1.0, SVG Export Plug-In . SVG Version: 6.00 Build 0)  -->
<svg version="1.1" id="Layer_1" xmlns="http://www.w3.org/2000/svg" xmlns:xlink="http://www.w3.org/1999/xlink" x="0px" y="0px"
	 viewBox="0 0 8 8" style="enable-background:new 0 0 8 8;" xml:space="preserve">
<path d="M4.7,4.4L1.5,7.8C1.4,7.9,1.2,8,1,8C0.9,8,0.7,7.9,0.6,7.8C0.5,7.7,0.4,7.6,0.4,7.4c0-0.2,0.1-0.4,0.2-0.5L3.3,4L0.6,1.1
	C0.5,1,0.4,0.8,0.4,0.6c0-0.2,0.1-0.3,0.2-0.5C0.7,0.1,0.9,0,1.1,0c0.1,0,0.3,0.1,0.4,0.2l3.1,3.4C4.9,3.8,4.9,4.2,4.7,4.4z
	 M7.8,3.6L4.7,0.2C4.6,0.1,4.4,0,4.3,0C4.1,0,3.9,0.1,3.8,0.1C3.7,0.3,3.6,0.4,3.6,0.6c0,0.2,0.1,0.4,0.2,0.5L6.5,4L3.8,6.9
	C3.7,7,3.6,7.2,3.6,7.4c0,0.2,0.1,0.3,0.2,0.4C3.9,7.9,4.1,8,4.2,8c0.2,0,0.4-0.1,0.5-0.2l3.2-3.4C8.1,4.2,8.1,3.8,7.8,3.6z"/>
</svg>
