<?xml version="1.0" encoding="utf-8"?>
<!-- Generator: Adobe Illustrator 21.1.0, SVG Export Plug-In . SVG Version: 6.00 Build 0)  -->
<svg version="1.1" id="Layer_1" xmlns="http://www.w3.org/2000/svg" xmlns:xlink="http://www.w3.org/1999/xlink" x="0px" y="0px"
	 viewBox="0 0 24 24" style="enable-background:new 0 0 24 24;" xml:space="preserve">
<style type="text/css">
	.st0{fill:#010101;}
</style>
<path class="st0" d="M20,0.3c0.3-0.4,0.9-0.4,1.2,0c0.4,0.3,0.4,0.9,0,1.2L10.7,12l10.5,10.5c0.4,0.3,0.4,0.9,0,1.2
	C21,23.9,20.7,24,20.5,24s-0.5-0.1-0.6-0.3L8.2,12L20,0.3z M0.6,12l11.7,11.7c0.2,0.2,0.4,0.3,0.6,0.3s0.4-0.1,0.6-0.3
	c0.4-0.4,0.4-0.9,0-1.2L3,12L13.6,1.5c0.4-0.4,0.4-0.9,0-1.2c-0.4-0.4-0.9-0.4-1.2,0L0.6,12z"/>
</svg>
