<?xml version="1.0" encoding="utf-8"?>
<!-- Generator: Adobe Illustrator 21.1.0, SVG Export Plug-In . SVG Version: 6.00 Build 0)  -->
<svg version="1.1" id="Layer_1" xmlns="http://www.w3.org/2000/svg" xmlns:xlink="http://www.w3.org/1999/xlink" x="0px" y="0px"
	 viewBox="0 0 24 24" style="enable-background:new 0 0 24 24;" xml:space="preserve">
<style type="text/css">
	.st0{fill:#010101;}
</style>
<path class="st0" d="M14.8,12L3.2,23.7C3,23.9,2.8,24,2.5,24s-0.4-0.1-0.6-0.3c-0.4-0.4-0.4-0.9,0-1.2L12.4,12L1.8,1.5
	c-0.4-0.4-0.4-0.9,0-1.2c0.4-0.4,0.9-0.4,1.2,0L14.8,12z M10.7,0.3c-0.3-0.4-0.9-0.4-1.2,0c-0.4,0.3-0.4,0.9,0,1.2L20,12L9.5,22.5
	c-0.4,0.3-0.4,0.9,0,1.2c0.2,0.2,0.4,0.3,0.6,0.3s0.5-0.1,0.6-0.3L22.4,12L10.7,0.3z"/>
</svg>
