<?xml version="1.0" encoding="utf-8"?>
<!-- Generator: Adobe Illustrator 21.1.0, SVG Export Plug-In . SVG Version: 6.00 Build 0)  -->
<svg version="1.1" id="Layer_1" xmlns="http://www.w3.org/2000/svg" xmlns:xlink="http://www.w3.org/1999/xlink" x="0px" y="0px"
	 viewBox="0 0 24 24" style="enable-background:new 0 0 24 24;" xml:space="preserve">
<path d="M0.9,13.8c0.2,0,0.5-0.1,0.7-0.3L12,3.1l10.4,10.4c0.4,0.4,1,0.4,1.3,0c0.4-0.4,0.4-1,0-1.3L12.6,1.1
	c-0.2-0.2-0.4-0.3-0.7-0.3h0c-0.2,0-0.5,0.1-0.7,0.3l-11,11.1c-0.4,0.4-0.4,1,0,1.3C0.5,13.7,0.7,13.8,0.9,13.8z M12.6,9.6
	c-0.2-0.2-0.4-0.3-0.7-0.3h0c-0.2,0-0.5,0.1-0.7,0.3l-11,11.1c-0.4,0.4-0.4,1,0,1.3c0.4,0.4,1,0.4,1.3,0L12,11.6l10.4,10.4
	c0.2,0.2,0.4,0.3,0.7,0.3s0.5-0.1,0.7-0.3c0.4-0.4,0.4-1,0-1.3L12.6,9.6z"/>
</svg>
