<?xml version="1.0" encoding="utf-8"?>
<!-- Generator: Adobe Illustrator 21.1.0, SVG Export Plug-In . SVG Version: 6.00 Build 0)  -->
<svg version="1.1" id="Layer_1" xmlns="http://www.w3.org/2000/svg" xmlns:xlink="http://www.w3.org/1999/xlink" x="0px" y="0px"
	 viewBox="0 0 8 8" style="enable-background:new 0 0 8 8;" xml:space="preserve">
<path d="M3.8,3.6l3.1-3.4C7,0.1,7.2,0,7.3,0c0.2,0,0.4,0.1,0.5,0.1C7.9,0.3,8,0.4,8,0.6C8,0.8,7.9,1,7.8,1.1L5.1,4l2.7,2.9
	C7.9,7,8,7.2,8,7.4c0,0.2-0.1,0.3-0.2,0.4C7.7,7.9,7.5,8,7.4,8C7.2,8,7,7.9,6.9,7.8L3.7,4.4C3.5,4.2,3.5,3.8,3.8,3.6z M0.6,4.4
	l3.2,3.4C3.9,7.9,4.1,8,4.3,8c0.1,0,0.3-0.1,0.4-0.2c0.1-0.1,0.2-0.2,0.2-0.4c0-0.2-0.1-0.4-0.2-0.5L2,4l2.7-2.9
	C4.8,1,4.9,0.8,4.9,0.6c0-0.2-0.1-0.3-0.2-0.5C4.6,0.1,4.4,0,4.2,0C4.1,0,3.9,0.1,3.8,0.2L0.7,3.6C0.4,3.8,0.4,4.2,0.6,4.4z"/>
</svg>
