<?xml version="1.0" encoding="UTF-8"?>
<svg width="60px" height="60px" viewBox="0 0 60 60" version="1.1" xmlns="http://www.w3.org/2000/svg" xmlns:xlink="http://www.w3.org/1999/xlink">
    <!-- Generator: Sketch 53.1 (72631) - https://sketchapp.com -->
    <title>angular</title>
    <desc>Created with Sketch.</desc>
    <g id="angular" stroke="none" stroke-width="1" fill="none" fill-rule="evenodd">
        <g transform="translate(7.000000, 7.000000)" fill="#000000">
            <path d="M38.3615,38.5176 L23.0005,43.9396 L7.6385,38.5176 L2.1615,1.9996 L43.8395,1.9996 L38.3615,38.5176 Z M45.0005,-0.0004 L1.0005,-0.0004 C0.7095,-0.0004 0.4325,0.1266 0.2425,0.3476 C0.0525,0.5686 -0.0325,0.8606 0.0105,1.1486 L5.7505,39.4096 C5.8055,39.7756 6.0575,40.0806 6.4065,40.2046 L22.6675,45.9436 C22.7745,45.9816 22.8875,45.9996 23.0005,45.9996 C23.1125,45.9996 23.2255,45.9816 23.3335,45.9436 L39.5935,40.2046 C39.9425,40.0806 40.1945,39.7756 40.2505,39.4096 L45.9895,1.1486 C46.0325,0.8606 45.9475,0.5686 45.7575,0.3476 C45.5675,0.1266 45.2915,-0.0004 45.0005,-0.0004 Z" id="Fill-1"></path>
            <path d="M24.0002,11.2383 L28.7232,22.5003 L19.2772,22.5003 L24.0002,11.2383 Z M13.6132,33.4223 C14.1202,33.6373 14.7082,33.3953 14.9222,32.8863 L18.4382,24.5003 L29.5622,24.5003 L33.0782,32.8863 C33.2382,33.2693 33.6092,33.5003 34.0002,33.5003 C34.1292,33.5003 34.2612,33.4753 34.3872,33.4223 C34.8962,33.2093 35.1362,32.6233 34.9222,32.1133 L24.9222,8.2653 C24.7672,7.8943 24.4032,7.6523 24.0002,7.6523 C23.5972,7.6523 23.2332,7.8943 23.0782,8.2653 L13.0782,32.1133 C12.8642,32.6233 13.1042,33.2093 13.6132,33.4223 L13.6132,33.4223 Z" id="Fill-4"></path>
        </g>
    </g>
</svg>