<?xml version="1.0" encoding="utf-8"?>
<!-- Generator: Adobe Illustrator 21.1.0, SVG Export Plug-In . SVG Version: 6.00 Build 0)  -->
<svg version="1.1" id="Layer_1" xmlns="http://www.w3.org/2000/svg" xmlns:xlink="http://www.w3.org/1999/xlink" x="0px" y="0px"
	 viewBox="0 0 24 24" style="enable-background:new 0 0 24 24;" xml:space="preserve">
<path d="M10.9,12.9l-0.2-7.5c0-0.6,0.5-1.1,1.1-1.1c0.6,0,1.3,0.5,1.3,1.1v0l-0.2,7.5c0,0.5-0.4,1-1,1
	C11.4,13.9,10.9,13.6,10.9,12.9z M12,16.5c0.6,0,1.1-0.5,1.1-1.1c0-0.6-0.5-1.1-1.1-1.1c-0.6,0-1.1,0.5-1.1,1.1
	C10.9,16,11.4,16.5,12,16.5z M24,5.5V16c0,1.6-1.3,2.9-2.9,2.9H11l-5.5,5.4V19H2.9C1.3,19,0,17.7,0,16.1V5.5c0-1.6,1.3-2.9,2.9-2.9
	h18.2C22.7,2.6,24,3.9,24,5.5z M10.2,17.9c0.2-0.1,0.4-0.2,0.7-0.2h10.2c0.9,0,1.6-0.7,1.6-1.6v-0.2h0.1V5.5c0-0.9-0.7-1.6-1.6-1.6
	H2.9C2,3.9,1.3,4.6,1.3,5.5V16c0,0.9,0.7,1.6,1.6,1.6h2.8c0.3,0,0.6,0.1,0.8,0.4c0.2,0.2,0.2,0.5,0.2,0.7l0,2.6L10.2,17.9z"/>
</svg>
