<?xml version="1.0" encoding="utf-8"?>
<!-- Generator: Adobe Illustrator 21.1.0, SVG Export Plug-In . SVG Version: 6.00 Build 0)  -->
<svg version="1.1" id="Layer_1" xmlns="http://www.w3.org/2000/svg" xmlns:xlink="http://www.w3.org/1999/xlink" x="0px" y="0px"
	 viewBox="0 0 24 24" style="enable-background:new 0 0 24 24;" xml:space="preserve">
<path d="M21.3,2.6H2.7C1.2,2.6,0,3.8,0,5.3v10.9c0,1.5,1.2,2.7,2.7,2.7h2.9V24l5.3-5.2h10.4c1.5,0,2.7-1.2,2.7-2.7V5.3
	C24,3.8,22.8,2.6,21.3,2.6z M23.2,16.1c0,1-0.8,1.9-1.9,1.9H10.9c-0.2,0-0.4,0.1-0.6,0.2l-4,3.9v-3.3C6.4,18.4,6,18,5.6,18H2.7
	c-1,0-1.9-0.8-1.9-1.9V5.3c0-1,0.8-1.9,1.9-1.9h18.7c1,0,1.9,0.8,1.9,1.9V16.1z M12.9,5.2l-0.2,7.7c0,0.4-0.3,0.8-0.8,0.8
	c-0.4,0-0.8-0.3-0.8-0.8l-0.2-7.7c0-0.5,0.4-0.9,0.9-0.9S12.9,4.7,12.9,5.2z M12.9,15.4c0,0.5-0.4,0.9-0.9,0.9s-0.9-0.4-0.9-0.9
	s0.4-0.9,0.9-0.9S12.9,14.9,12.9,15.4z"/>
</svg>
