<?xml version="1.0" encoding="utf-8"?>
<!-- Generator: Adobe Illustrator 21.1.0, SVG Export Plug-In . SVG Version: 6.00 Build 0)  -->
<svg version="1.1" id="Layer_1" xmlns="http://www.w3.org/2000/svg" xmlns:xlink="http://www.w3.org/1999/xlink" x="0px" y="0px"
	 viewBox="0 0 24 24" style="enable-background:new 0 0 24 24;" xml:space="preserve">
<path d="M7,11.5h10v1H7V11.5z M7,16.5h10v-1H7V16.5z M7,8.5h10v-1H7V8.5z M22.6,6.3l0,11.5c0,0.2-0.1,0.4-0.3,0.5l-10,5.7
	c-0.1,0.1-0.2,0.1-0.3,0.1c-0.1,0-0.2,0-0.3-0.1l-9.9-5.8c-0.2-0.1-0.3-0.3-0.3-0.5l0-11.5c0-0.2,0.1-0.4,0.3-0.5l10-5.7
	c0.2-0.1,0.4-0.1,0.6,0l9.9,5.8C22.5,5.8,22.6,6,22.6,6.3z M21.3,6.6L12,1.2L2.7,6.6l0,10.8l9.3,5.4l9.3-5.4L21.3,6.6z"/>
</svg>
