<?xml version="1.0" encoding="utf-8"?>
<!-- Generator: Adobe Illustrator 21.1.0, SVG Export Plug-In . SVG Version: 6.00 Build 0)  -->
<svg version="1.1" id="Layer_1" xmlns="http://www.w3.org/2000/svg" xmlns:xlink="http://www.w3.org/1999/xlink" x="0px" y="0px"
	 viewBox="0 0 24 24" style="enable-background:new 0 0 24 24;" xml:space="preserve">
<path d="M23.7,8.5h-6.4c-0.1,0-0.3,0.1-0.3,0.3v6.4c0,0.1,0.1,0.3,0.3,0.3h6.4c0.1,0,0.3-0.1,0.3-0.3V8.8C24,8.7,23.9,8.5,23.7,8.5z
	 M23.5,14.9h-5.9V9.1h5.9V14.9z M6.7,8.5H0.3C0.1,8.5,0,8.7,0,8.8v6.4c0,0.1,0.1,0.3,0.3,0.3h6.4c0.1,0,0.3-0.1,0.3-0.3V8.8
	C6.9,8.7,6.8,8.5,6.7,8.5z M6.4,14.9H0.5V9.1h5.9V14.9z M15.2,0H8.8C8.7,0,8.5,0.1,8.5,0.3v6.4c0,0.1,0.1,0.3,0.3,0.3h6.4
	c0.1,0,0.3-0.1,0.3-0.3V0.3C15.5,0.1,15.3,0,15.2,0z M14.9,6.4H9.1V0.5h5.9V6.4z M23.7,0h-6.4c-0.1,0-0.3,0.1-0.3,0.3v6.4
	c0,0.1,0.1,0.3,0.3,0.3h6.4c0.1,0,0.3-0.1,0.3-0.3V0.3C24,0.1,23.9,0,23.7,0z M23.5,6.4h-5.9V0.5h5.9V6.4z M6.7,17.1H0.3
	c-0.1,0-0.3,0.1-0.3,0.3v6.4C0,23.9,0.1,24,0.3,24h6.4c0.1,0,0.3-0.1,0.3-0.3v-6.4C6.9,17.2,6.8,17.1,6.7,17.1z M6.4,23.5H0.5v-5.9
	h5.9V23.5z M15.2,8.5H8.8c-0.1,0-0.3,0.1-0.3,0.3v6.4c0,0.1,0.1,0.3,0.3,0.3h6.4c0.1,0,0.3-0.1,0.3-0.3V8.8
	C15.5,8.7,15.3,8.5,15.2,8.5z M14.9,14.9H9.1V9.1h5.9V14.9z M23.7,17.1h-6.4c-0.1,0-0.3,0.1-0.3,0.3v6.4c0,0.1,0.1,0.3,0.3,0.3h6.4
	c0.1,0,0.3-0.1,0.3-0.3v-6.4C24,17.2,23.9,17.1,23.7,17.1z M23.5,23.5h-5.9v-5.9h5.9V23.5z M15.2,17.1H8.8c-0.1,0-0.3,0.1-0.3,0.3
	v6.4c0,0.1,0.1,0.3,0.3,0.3h6.4c0.1,0,0.3-0.1,0.3-0.3v-6.4C15.5,17.2,15.3,17.1,15.2,17.1z M14.9,23.5H9.1v-5.9h5.9V23.5z M6.7,0
	H0.3C0.1,0,0,0.1,0,0.3v6.4c0,0.1,0.1,0.3,0.3,0.3h6.4c0.1,0,0.3-0.1,0.3-0.3V0.3C6.9,0.1,6.8,0,6.7,0z M6.4,6.4H0.5V0.5h5.9V6.4z"
	/>
</svg>
