<?xml version="1.0" encoding="utf-8"?>
<!-- Generator: Adobe Illustrator 21.1.0, SVG Export Plug-In . SVG Version: 6.00 Build 0)  -->
<svg version="1.1" id="Layer_1" xmlns="http://www.w3.org/2000/svg" xmlns:xlink="http://www.w3.org/1999/xlink" x="0px" y="0px"
	 viewBox="0 0 24 24" style="enable-background:new 0 0 24 24;" xml:space="preserve">
<path d="M7.4,16.9c-0.1-0.1-0.3-0.3-0.5-0.3H0.7c-0.3,0-0.7,0.3-0.7,0.7v6.2C0,23.7,0.3,24,0.7,24h6.2c0.3,0,0.7-0.3,0.7-0.7v-6.2
	l0-0.2L7.4,16.9z M1.3,22.7v-5h5v5H1.3z M15.1,0H8.9C8.6,0,8.3,0.3,8.3,0.7v6.2c0,0.3,0.3,0.7,0.7,0.7h6.2c0.3,0,0.7-0.3,0.7-0.7
	V0.7C15.7,0.3,15.4,0,15.1,0z M9.6,6.2v-5h5v5H9.6z M7.4,8.6C7.3,8.4,7.1,8.3,6.9,8.3H0.7C0.3,8.3,0,8.6,0,8.9v6.2
	c0,0.3,0.3,0.7,0.7,0.7h6.2c0.3,0,0.7-0.3,0.7-0.7V8.8L7.4,8.6C7.4,8.6,7.4,8.6,7.4,8.6z M1.3,14.4V9.6h5v4.9H1.3z M23.3,0h-6.2
	c-0.3,0-0.7,0.3-0.7,0.7v6.2c0,0.3,0.3,0.7,0.7,0.7h6.2c0.3,0,0.7-0.3,0.7-0.7V0.7C24,0.3,23.7,0,23.3,0z M17.8,6.2v-5h5v5H17.8z
	 M15.1,16.6H8.9c-0.3,0-0.7,0.3-0.7,0.7v6.2c0,0.3,0.3,0.7,0.7,0.7h6.2c0.3,0,0.7-0.3,0.7-0.7v-6.2C15.7,16.8,15.4,16.6,15.1,16.6z
	 M9.6,22.7v-5h5v5H9.6z M15.1,8.3H8.9c-0.3,0-0.7,0.3-0.7,0.7v6.2c0,0.3,0.3,0.7,0.7,0.7h6.2c0.3,0,0.7-0.3,0.7-0.7V8.9
	C15.7,8.6,15.4,8.3,15.1,8.3z M9.6,14.4V9.6h5v4.9H9.6z M23.3,8.3h-6.2c-0.3,0-0.7,0.3-0.7,0.7v6.2c0,0.3,0.3,0.7,0.7,0.7h6.2
	c0.3,0,0.7-0.3,0.7-0.7V8.9C24,8.6,23.7,8.3,23.3,8.3z M17.8,14.4V9.6h5v4.9H17.8z M23.3,16.6h-6.2c-0.3,0-0.7,0.3-0.7,0.7v6.2
	c0,0.3,0.3,0.7,0.7,0.7h6.2c0.3,0,0.7-0.3,0.7-0.7v-6.2C24,16.8,23.7,16.6,23.3,16.6z M17.8,22.7v-5h5v5H17.8z M6.9,0H0.7
	C0.3,0,0,0.3,0,0.7v6.2c0,0.3,0.3,0.7,0.7,0.7h6.2c0.3,0,0.7-0.3,0.7-0.7V0.7l0-0.2C7.3,0.2,7.1,0,6.9,0z M1.3,6.2v-5h5v5H1.3z"/>
</svg>
