<?xml version="1.0" encoding="utf-8"?>
<!-- Generator: Adobe Illustrator 21.1.0, SVG Export Plug-In . SVG Version: 6.00 Build 0)  -->
<svg version="1.1" id="Layer_1" xmlns="http://www.w3.org/2000/svg" xmlns:xlink="http://www.w3.org/1999/xlink" x="0px" y="0px"
	 viewBox="0 0 24 24" style="enable-background:new 0 0 24 24;" xml:space="preserve">
<path d="M22.9,0H1.1C0.6,0,0.3,0.3,0.3,0.8v4.3c0,0.5,0.3,0.8,0.8,0.8h21.9c0.5,0,0.8-0.3,0.8-0.8V0.8C23.7,0.3,23.4,0,22.9,0z
	 M22.7,4.8H1.3V1.1h21.3V4.8z M22.1,6.9H1.9c-0.5,0-0.8,0.3-0.8,0.8v14.1C1.1,23,2,24,3.2,24h17.6c1.2,0,2.1-1,2.1-2.1V7.7
	C22.9,7.3,22.6,6.9,22.1,6.9z M21.9,21.9c0,0.6-0.5,1.1-1.1,1.1H3.2c-0.6,0-1.1-0.5-1.1-1.1V8h19.7V21.9z M9.3,12.3h5.3
	c0.9,0,1.6-0.7,1.6-1.6c0-0.9-0.7-1.6-1.6-1.6H9.3c-0.9,0-1.6,0.7-1.6,1.6C7.7,11.5,8.5,12.3,9.3,12.3z M9.3,10.1h5.3
	c0.3,0,0.5,0.2,0.5,0.5s-0.2,0.5-0.5,0.5H9.3c-0.3,0-0.5-0.2-0.5-0.5S9,10.1,9.3,10.1z"/>
</svg>
