<?xml version="1.0" encoding="UTF-8"?>
<svg width="20px" height="18px" viewBox="0 0 20 18" version="1.1" xmlns="http://www.w3.org/2000/svg" xmlns:xlink="http://www.w3.org/1999/xlink">
    <!-- Generator: Sketch 53.2 (72643) - https://sketchapp.com -->
    <title>archive</title>
    <desc>Created with Sketch.</desc>
    <g id="Page-1" stroke="none" stroke-width="1" fill="none" fill-rule="evenodd" stroke-linecap="round" stroke-linejoin="round">
        <g id="archive" transform="translate(0.500000, 0.500000)" stroke="#000000">
            <path d="M16.8311,17 L1.1691,17 C0.5231,17 0.0001,16.477 0.0001,15.831 L0.0001,11 L6.5001,11 L6.5001,12 C6.5001,13.1 7.4001,14 8.5001,14 L10.0001,14 C11.1001,14 12.0001,13.1 12.0001,12 L12.0001,11 L18.0001,11 L18.0001,15.831 C18.0001,16.477 17.4771,17 16.8311,17 Z" id="Stroke-1"></path>
            <path d="M0,11 L2.133,5.629 C2.36,5.24 2.777,5 3.229,5 L4,5" id="Stroke-3"></path>
            <path d="M14.5,5 L14.771,5 C15.223,5 15.64,5.24 15.867,5.629 L18,11" id="Stroke-5"></path>
            <path d="M9,8 L9,0" id="Stroke-7"></path>
            <polyline id="Stroke-9" points="12 5 9 8 6 5"></polyline>
        </g>
    </g>
</svg>