<?xml version="1.0" encoding="utf-8"?>
<!-- Generator: Adobe Illustrator 21.1.0, SVG Export Plug-In . SVG Version: 6.00 Build 0)  -->
<svg version="1.1" id="Layer_1" xmlns="http://www.w3.org/2000/svg" xmlns:xlink="http://www.w3.org/1999/xlink" x="0px" y="0px"
	 viewBox="0 0 24 24" style="enable-background:new 0 0 24 24;" xml:space="preserve">
<path d="M14.6,9H9.3c-1,0-1.7,0.8-1.7,1.7c0,0.9,0.8,1.7,1.7,1.7h5.2c1,0,1.7-0.7,1.7-1.7S15.5,9,14.6,9z M14.9,10.6
	c0,0.2-0.1,0.4-0.4,0.4H9.3C9.1,11,9,10.8,9,10.6s0.1-0.4,0.4-0.4h5.2C14.8,10.2,14.9,10.4,14.9,10.6z M22,6.8H2
	c-0.6,0-0.9,0.4-0.9,0.9v14c0,1.3,1,2.3,2.2,2.3h17.4c1.2,0,2.2-1,2.2-2.2V7.7C22.9,7.3,22.6,6.8,22,6.8z M21.7,21.9
	c-0.1,0.5-0.5,0.8-1,0.8H3.3c-0.5,0-1-0.4-1-1V8.2h19.2L21.7,21.9L21.7,21.9z M23.8,0.9c-0.1-0.6-0.5-0.9-1-0.9H1.2
	C0.6,0,0.3,0.4,0.3,0.9v4.3c0,0.6,0.4,0.9,0.9,0.9h21.7c0.6,0,0.9-0.4,0.9-0.9L23.8,0.9z M22.4,1.3v3.4H1.5V1.3H22.4z"/>
</svg>
