<?xml version="1.0" encoding="utf-8"?>
<!-- Generator: Adobe Illustrator 21.1.0, SVG Export Plug-In . SVG Version: 6.00 Build 0)  -->
<svg version="1.1" id="Layer_1" xmlns="http://www.w3.org/2000/svg" xmlns:xlink="http://www.w3.org/1999/xlink" x="0px" y="0px"
	 viewBox="0 0 24 24" style="enable-background:new 0 0 24 24;" xml:space="preserve">
<path d="M16.8,13.8c0.2,0.2,0.2,0.5,0,0.7l-4.4,4.1c-0.2,0.2-0.5,0.2-0.7,0l-4.4-4.1C7,14.3,7,14,7.2,13.8c0.2-0.2,0.5-0.2,0.7,0
	l3.5,3.3V4.3c0-0.3,0.2-0.5,0.5-0.5c0.3,0,0.5,0.2,0.5,0.5v12.8l3.5-3.3C16.2,13.6,16.6,13.6,16.8,13.8z M24,12c0,6.5-5.5,12-12,12
	S0,18.5,0,12S5.5,0,12,0S24,5.5,24,12z M22.9,12c0-5.9-5-10.9-10.9-10.9S1.1,6.1,1.1,12s5,10.9,10.9,10.9S22.9,17.9,22.9,12z"/>
</svg>
