<?xml version="1.0" encoding="utf-8"?>
<!-- Generator: Adobe Illustrator 21.1.0, SVG Export Plug-In . SVG Version: 6.00 Build 0)  -->
<svg version="1.1" id="Layer_1" xmlns="http://www.w3.org/2000/svg" xmlns:xlink="http://www.w3.org/1999/xlink" x="0px" y="0px"
	 viewBox="0 0 8 8" style="enable-background:new 0 0 8 8;" xml:space="preserve">
<path d="M0,6.1c0-0.2,0.1-0.3,0.2-0.5l3.4-3.1C3.7,2.3,3.9,2.3,4,2.3c0.2,0,0.3,0.1,0.5,0.2l3.3,3.1c0.3,0.2,0.3,0.6,0,0.9
	c-0.2,0.3-0.6,0.3-0.9,0L4,3.8L1.1,6.5C1,6.7,0.8,6.7,0.6,6.7c-0.2,0-0.3-0.1-0.5-0.2C0.1,6.4,0,6.2,0,6.1z"/>
</svg>
