<?xml version="1.0" encoding="utf-8"?>
<!-- Generator: Adobe Illustrator 21.1.0, SVG Export Plug-In . SVG Version: 6.00 Build 0)  -->
<svg version="1.1" id="Layer_1" xmlns="http://www.w3.org/2000/svg" xmlns:xlink="http://www.w3.org/1999/xlink" x="0px" y="0px"
	 viewBox="0 0 24 24" style="enable-background:new 0 0 24 24;" xml:space="preserve">
<path d="M19.9,11.3v1.5H6l3.1,3.1l-1,1L3.2,12l5-4.9l1,1L6,11.3H19.9z M24,12c0,6.7-5.3,12-12,12S0,18.7,0,12S5.3,0,12,0
	S24,5.3,24,12z M22.5,12c0-5.9-4.6-10.5-10.5-10.5C6.1,1.5,1.5,6.1,1.5,12c0,5.9,4.6,10.5,10.5,10.5C17.9,22.5,22.5,17.9,22.5,12z"
	/>
</svg>
