<?xml version="1.0" encoding="utf-8"?>
<!-- Generator: Adobe Illustrator 21.1.0, SVG Export Plug-In . SVG Version: 6.00 Build 0)  -->
<svg version="1.1" id="Layer_1" xmlns="http://www.w3.org/2000/svg" xmlns:xlink="http://www.w3.org/1999/xlink" x="0px" y="0px"
	 viewBox="0 0 24 24" style="enable-background:new 0 0 24 24;" xml:space="preserve">
<path d="M23.4,11.3H2.3l8.2-8.2c0.3-0.3,0.3-0.6,0-0.9c-0.3-0.3-0.6-0.3-0.9,0l-9.3,9.3C0.1,11.6,0,11.8,0,12s0,0.4,0.2,0.5l9.3,9.3
	C9.6,21.9,9.8,22,10,22s0.3-0.1,0.5-0.2c0.3-0.3,0.3-0.6,0-0.9l-8.3-8.3h21.2c0.4,0,0.6-0.3,0.6-0.6C24,11.5,23.7,11.3,23.4,11.3z"
	/>
</svg>
