<?xml version="1.0" encoding="utf-8"?>
<!-- Generator: Adobe Illustrator 21.1.0, SVG Export Plug-In . SVG Version: 6.00 Build 0)  -->
<svg version="1.1" id="Layer_1" xmlns="http://www.w3.org/2000/svg" xmlns:xlink="http://www.w3.org/1999/xlink" x="0px" y="0px"
	 viewBox="0 0 24 24" style="enable-background:new 0 0 24 24;" xml:space="preserve">
<path d="M18.9,11.6C19,11.7,19,11.8,19,12c0,0.1,0,0.3-0.1,0.4l-5.4,5.4c-0.1,0.1-0.2,0.1-0.3,0.1c-0.1,0-0.3-0.1-0.4-0.1
	c-0.2-0.2-0.2-0.5,0-0.7l4.6-4.6H5.5c-0.3,0-0.5-0.2-0.5-0.5s0.2-0.5,0.5-0.5h11.8L12.8,7c-0.2-0.2-0.2-0.5,0-0.7
	c0.2-0.2,0.5-0.2,0.7,0L18.9,11.6z M24,12c0,6.5-5.5,12-12,12S0,18.5,0,12S5.5,0,12,0S24,5.5,24,12z M22.9,12
	c0-5.9-5-10.9-10.9-10.9S1.1,6.1,1.1,12s5,10.9,10.9,10.9S22.9,17.9,22.9,12z"/>
</svg>
