<?xml version="1.0" encoding="utf-8"?>
<!-- Generator: Adobe Illustrator 21.1.0, SVG Export Plug-In . SVG Version: 6.00 Build 0)  -->
<svg version="1.1" id="Layer_1" xmlns="http://www.w3.org/2000/svg" xmlns:xlink="http://www.w3.org/1999/xlink" x="0px" y="0px"
	 viewBox="0 0 24 24" style="enable-background:new 0 0 24 24;" xml:space="preserve">
<g id="surface1">
	<path d="M12,0C5.3,0,0,5.3,0,12s5.3,12,12,12s12-5.5,12-12S18.5,0,12,0z M12,22.4C6.3,22.4,1.6,17.7,1.6,12S6.3,1.6,12,1.6
		S22.4,6.3,22.4,12S17.7,22.4,12,22.4z M11.6,6.8L8.2,9.8c-0.3,0.2-0.3,0.7-0.1,0.9c0.2,0.2,0.7,0.3,0.9,0.1l2.4-2.1v8
		c0,0.3,0.3,0.7,0.7,0.7s0.7-0.3,0.7-0.7v-8l2.4,2.1c0.2,0.2,0.7,0.2,0.9-0.1c0.2-0.2,0.2-0.7-0.1-0.9l-3.4-2.9
		C12.1,6.5,11.8,6.7,11.6,6.8z"/>
</g>
</svg>
