<?xml version="1.0" encoding="utf-8"?>
<!-- Generator: Adobe Illustrator 21.1.0, SVG Export Plug-In . SVG Version: 6.00 Build 0)  -->
<svg version="1.1" id="Layer_1" xmlns="http://www.w3.org/2000/svg" xmlns:xlink="http://www.w3.org/1999/xlink" x="0px" y="0px"
	 viewBox="0 0 24 24" style="enable-background:new 0 0 24 24;" xml:space="preserve">
<path d="M0,11.9c0,0.4,0.3,0.6,0.6,0.6h21.2l-8.3,8.3c-0.3,0.3-0.3,0.6,0,0.9c0.1,0.1,0.3,0.2,0.5,0.2s0.3-0.1,0.5-0.2l9.3-9.3
	C24,12.4,24,12.2,24,12s-0.1-0.4-0.2-0.5l-9.3-9.3c-0.3-0.3-0.6-0.3-0.9,0c-0.3,0.3-0.3,0.6,0,0.9l8.2,8.2H0.6
	C0.3,11.3,0,11.5,0,11.9z"/>
</svg>
