<?xml version="1.0" encoding="utf-8"?>
<!-- Generator: Adobe Illustrator 21.1.0, SVG Export Plug-In . SVG Version: 6.00 Build 0)  -->
<svg version="1.1" id="Layer_1" xmlns="http://www.w3.org/2000/svg" xmlns:xlink="http://www.w3.org/1999/xlink" x="0px" y="0px"
	 viewBox="0 0 24 24" style="enable-background:new 0 0 24 24;" xml:space="preserve">
<path d="M17.5,9.9c0.2,0.2,0.2,0.6,0,0.8l-5.1,5.1C12.3,15.9,12.1,16,12,16s-0.3-0.1-0.4-0.2l-5.1-5.1c-0.2-0.2-0.2-0.6,0-0.8
	s0.6-0.2,0.8,0l4.7,4.7l4.7-4.7C17,9.7,17.3,9.7,17.5,9.9z M24,12c0,6.5-5.5,12-12,12S0,18.5,0,12S5.5,0,12,0S24,5.5,24,12z
	 M22.9,12c0-5.9-5-10.9-10.9-10.9S1.1,6.1,1.1,12s5,10.9,10.9,10.9S22.9,17.9,22.9,12z"/>
</svg>
