<?xml version="1.0" encoding="utf-8"?>
<!-- Generator: Adobe Illustrator 21.1.0, SVG Export Plug-In . SVG Version: 6.00 Build 0)  -->
<svg version="1.1" id="Layer_1" xmlns="http://www.w3.org/2000/svg" xmlns:xlink="http://www.w3.org/1999/xlink" x="0px" y="0px"
	 viewBox="0 0 24 24" style="enable-background:new 0 0 24 24;" xml:space="preserve">
<path transform="translate(0,-952.36215)" d="M11.9,956.6c-0.1,0-0.2,0.1-0.3,0.2L0.2,968.2c-0.2,0.2-0.2,0.6,0,0.8
	c0.2,0.2,0.6,0.2,0.8,0c0,0,0,0,0,0L12,957.9L23.1,969c0.2,0.2,0.6,0.2,0.8,0s0.2-0.6,0-0.8c0,0,0,0,0,0l-11.4-11.4
	C12.3,956.6,12.1,956.6,11.9,956.6z"/>
</svg>
