<?xml version="1.0" encoding="utf-8"?>
<!-- Generator: Adobe Illustrator 21.1.0, SVG Export Plug-In . SVG Version: 6.00 Build 0)  -->
<svg version="1.1" id="Layer_1" xmlns="http://www.w3.org/2000/svg" xmlns:xlink="http://www.w3.org/1999/xlink" x="0px" y="0px"
	 viewBox="0 0 24 24" style="enable-background:new 0 0 24 24;" xml:space="preserve">
<path d="M12,0C5.5,0,0,5.5,0,12c0,6.5,5.5,12,12,12c6.5,0,12-5.5,12-12C24,5.5,18.5,0,12,0z M12,22.4C6.3,22.4,1.6,17.7,1.6,12
	C1.6,6.3,6.3,1.6,12,1.6c5.7,0,10.4,4.8,10.4,10.4C22.4,17.7,17.7,22.4,12,22.4z M18.9,11.4c0.2,0.2,0.2,0.4,0.2,0.6
	c0,0.1,0,0.4-0.2,0.6l-5.3,5.3C13.5,18,13.3,18,13.2,18c-0.1,0-0.2,0-0.3-0.1c0,0-0.1,0-0.1,0h-0.1l-0.1-0.1
	c-0.1-0.1-0.2-0.3-0.2-0.5c0-0.2,0.1-0.4,0.2-0.5l4.1-4.1H5.6c-0.4,0-0.7-0.3-0.7-0.7s0.3-0.7,0.7-0.7h11l-4-4
	c-0.1-0.1-0.2-0.3-0.2-0.5s0.1-0.4,0.2-0.5c0.3-0.3,0.7-0.3,1,0L18.9,11.4z"/>
</svg>
