<?xml version="1.0" encoding="utf-8"?>
<!-- Generator: Adobe Illustrator 21.1.0, SVG Export Plug-In . SVG Version: 6.00 Build 0)  -->
<svg version="1.1" id="Layer_1" xmlns="http://www.w3.org/2000/svg" xmlns:xlink="http://www.w3.org/1999/xlink" x="0px" y="0px"
	 viewBox="0 0 24 24" style="enable-background:new 0 0 24 24;" xml:space="preserve">
<path d="M16.8,13.7C17,13.8,17,14,17,14.1c0,0.2-0.1,0.3-0.2,0.4l-4.4,4.1c-0.1,0.1-0.3,0.2-0.4,0.2c-0.2,0-0.3-0.1-0.4-0.2
	l-4.4-4.1C7.1,14.5,7,14.3,7,14.1c0-0.2,0-0.3,0.2-0.4c0.2-0.2,0.6-0.2,0.9,0l3.3,3.1V4.4c0-0.4,0.3-0.6,0.6-0.6
	c0.4,0,0.6,0.3,0.6,0.6v12.4l3.3-3.1C16.1,13.4,16.6,13.5,16.8,13.7z M24,12c0,6.5-5.5,12-12,12S0,18.5,0,12S5.5,0,12,0
	S24,5.5,24,12z M22.7,12c0-5.8-4.9-10.7-10.7-10.7S1.3,6.2,1.3,12S6.2,22.7,12,22.7S22.7,17.8,22.7,12z"/>
</svg>
