<?xml version="1.0" encoding="UTF-8"?>
<svg xmlns="http://www.w3.org/2000/svg" xmlns:xlink="http://www.w3.org/1999/xlink" width="24pt" height="24pt" viewBox="0 0 24 24" version="1.1">
<g id="surface1">
<path style=" stroke:none;fill-rule:nonzero;fill:rgb(0%,0%,0%);fill-opacity:1;" d="M 12 0 C 5.34375 0 0 5.34375 0 12 C 0 18.65625 5.34375 24 12 24 C 18.65625 24 24 18.546875 24 12 C 24 5.453125 18.546875 0 12 0 Z M 12 22.363281 C 6.328125 22.363281 1.636719 17.671875 1.636719 12 C 1.636719 6.328125 6.328125 1.636719 12 1.636719 C 17.671875 1.636719 22.363281 6.328125 22.363281 12 C 22.363281 17.671875 17.671875 22.363281 12 22.363281 Z M 11.5625 6.761719 L 8.183594 9.816406 C 7.855469 10.035156 7.855469 10.472656 8.074219 10.691406 C 8.289062 10.910156 8.726562 11.019531 8.945312 10.800781 L 11.34375 8.726562 L 11.34375 16.691406 C 11.34375 17.019531 11.671875 17.34375 12 17.34375 C 12.328125 17.34375 12.65625 17.019531 12.65625 16.691406 L 12.65625 8.726562 L 15.054688 10.800781 C 15.273438 11.019531 15.710938 11.019531 15.925781 10.691406 C 16.144531 10.472656 16.144531 10.035156 15.816406 9.816406 L 12.4375 6.871094 C 12.109375 6.546875 11.78125 6.65625 11.5625 6.761719 Z M 11.5625 6.761719 "/>
</g>
</svg>
