<?xml version="1.0" encoding="utf-8"?>
<!-- Generator: Adobe Illustrator 21.1.0, SVG Export Plug-In . SVG Version: 6.00 Build 0)  -->
<svg version="1.1" id="Layer_1" xmlns="http://www.w3.org/2000/svg" xmlns:xlink="http://www.w3.org/1999/xlink" x="0px" y="0px"
	 viewBox="0 0 8 8" style="enable-background:new 0 0 8 8;" xml:space="preserve">
<path d="M2.2,3.6l3.1-3.4C5.4,0.1,5.6,0,5.7,0c0.2,0,0.4,0.1,0.5,0.1c0.1,0.2,0.2,0.3,0.2,0.5S6.3,1,6.2,1.1L3.5,4l2.7,2.9
	C6.3,7,6.4,7.2,6.4,7.4c0,0.2-0.1,0.3-0.2,0.4l0,0C6.1,7.9,5.9,8,5.8,8C5.6,8,5.4,7.9,5.3,7.8L2.1,4.4C1.9,4.2,1.9,3.8,2.2,3.6z"/>
</svg>
