<?xml version="1.0" encoding="utf-8"?>
<!-- Generator: Adobe Illustrator 21.1.0, SVG Export Plug-In . SVG Version: 6.00 Build 0)  -->
<svg version="1.1" id="Layer_1" xmlns="http://www.w3.org/2000/svg" xmlns:xlink="http://www.w3.org/1999/xlink" x="0px" y="0px"
	 viewBox="0 0 8 8" style="enable-background:new 0 0 8 8;" xml:space="preserve">
<path d="M8,2.9c0,0.2-0.1,0.3-0.2,0.5L4.4,6.5C4.3,6.7,4.1,6.7,4,6.7c-0.2,0-0.3-0.1-0.5-0.2L0.2,3.4c-0.3-0.2-0.3-0.6,0-0.9
	c0.2-0.3,0.6-0.3,0.9,0L4,5.2l2.9-2.7C7,2.3,7.2,2.3,7.4,2.3c0.2,0,0.3,0.1,0.5,0.2C7.9,2.6,8,2.8,8,2.9z"/>
</svg>
