<?xml version="1.0" encoding="utf-8"?>
<!-- Generator: Adobe Illustrator 21.1.0, SVG Export Plug-In . SVG Version: 6.00 Build 0)  -->
<svg version="1.1" id="Layer_1" xmlns="http://www.w3.org/2000/svg" xmlns:xlink="http://www.w3.org/1999/xlink" x="0px" y="0px"
	 viewBox="0 0 8 8" style="enable-background:new 0 0 8 8;" xml:space="preserve">
<path d="M6.3,4.4L3.1,7.8C3,7.9,2.8,8,2.6,8C2.5,8,2.3,7.9,2.2,7.8l0,0C2.1,7.7,2,7.6,2,7.4C2,7.2,2.1,7,2.2,6.9L4.9,4L2.2,1.1
	C2.1,1,2,0.8,2,0.6c0-0.2,0.1-0.3,0.2-0.5C2.3,0.1,2.5,0,2.7,0C2.8,0,3,0.1,3.1,0.2l3.1,3.4C6.5,3.8,6.5,4.2,6.3,4.4z"/>
</svg>
