<?xml version="1.0" encoding="utf-8"?>
<!-- Generator: Adobe Illustrator 21.1.0, SVG Export Plug-In . SVG Version: 6.00 Build 0)  -->
<svg version="1.1" id="Layer_1" xmlns="http://www.w3.org/2000/svg" xmlns:xlink="http://www.w3.org/1999/xlink" x="0px" y="0px"
	 viewBox="0 0 24 24" style="enable-background:new 0 0 24 24;" xml:space="preserve">
<path d="M23.7,7.3L12.6,18.6c-0.1,0.1-0.2,0.2-0.4,0.3c-0.1,0-0.2,0-0.2,0c-0.1,0-0.3-0.1-0.4-0.1l-0.1-0.1L0.2,7.4
	C0,7.3-0.1,7.1-0.1,6.9c0-0.2,0.1-0.4,0.2-0.6C0.4,6,1,6,1.3,6.3L12,16.9L22.6,6.2c0.3-0.3,0.8-0.3,1.1,0C24,6.5,24,7,23.7,7.3z"/>
</svg>
