<?xml version="1.0" encoding="utf-8"?>
<!-- Generator: Adobe Illustrator 21.1.0, SVG Export Plug-In . SVG Version: 6.00 Build 0)  -->
<svg version="1.1" id="Layer_1" xmlns="http://www.w3.org/2000/svg" xmlns:xlink="http://www.w3.org/1999/xlink" x="0px" y="0px"
	 viewBox="0 0 24 24" style="enable-background:new 0 0 24 24;" xml:space="preserve">
<path d="M21.9,9.5l-9.3-9.3C12.4,0.1,12.2,0,12,0s-0.4,0.1-0.6,0.2l0,0L2.1,9.5c-0.3,0.3-0.3,0.8,0,1.1C2.5,11,3,11,3.3,10.7
	l7.9-7.9v20.4c0,0.4,0.4,0.8,0.8,0.8s0.8-0.4,0.8-0.8V2.8l7.9,7.9c0.2,0.2,0.4,0.2,0.6,0.2s0.4-0.1,0.6-0.2
	C22.2,10.4,22.2,9.8,21.9,9.5z"/>
</svg>
