<?xml version="1.0" encoding="utf-8"?>
<!-- Generator: Adobe Illustrator 21.1.0, SVG Export Plug-In . SVG Version: 6.00 Build 0)  -->
<svg version="1.1" id="Layer_1" xmlns="http://www.w3.org/2000/svg" xmlns:xlink="http://www.w3.org/1999/xlink" x="0px" y="0px"
	 viewBox="0 0 24 24" style="enable-background:new 0 0 24 24;" xml:space="preserve">
<path d="M17.6,9.8c0.1,0.1,0.2,0.3,0.2,0.6c0,0.2-0.1,0.4-0.2,0.6l-5,5c-0.1,0.1-0.4,0.3-0.6,0.3c-0.2,0-0.4-0.1-0.6-0.3l-5-5
	c-0.1-0.1-0.2-0.3-0.2-0.6c0-0.2,0.1-0.4,0.2-0.6c0.3-0.3,0.8-0.3,1.1,0l4.4,4.4l4.4-4.4C16.9,9.5,17.3,9.5,17.6,9.8z M24,12
	c0,6.5-5.5,12-12,12C5.5,24,0,18.5,0,12C0,5.5,5.5,0,12,0C18.5,0,24,5.5,24,12z M22.4,12c0-5.7-4.8-10.4-10.4-10.4
	C6.3,1.6,1.6,6.3,1.6,12c0,5.7,4.8,10.4,10.4,10.4C17.7,22.4,22.4,17.7,22.4,12z"/>
</svg>
