<?xml version="1.0" encoding="utf-8"?>
<!-- Generator: Adobe Illustrator 21.1.0, SVG Export Plug-In . SVG Version: 6.00 Build 0)  -->
<svg version="1.1" id="Layer_1" xmlns="http://www.w3.org/2000/svg" xmlns:xlink="http://www.w3.org/1999/xlink" x="0px" y="0px"
	 viewBox="0 0 24 24" style="enable-background:new 0 0 24 24;" xml:space="preserve">
<path d="M7.2,9H16v0.8H7.2V9z M7.2,13.3H16v-0.8H7.2V13.3z M7.2,16.9H16v-0.8H7.2V16.9z M19.6,3.8V24H3.2V3.8h3.7V2.8
	c0-0.7,0.5-1.2,1.2-1.2h1.4c0.2-0.9,1-1.6,2-1.6c1,0,1.8,0.7,2,1.6h1.4c0.7,0,1.2,0.5,1.2,1.2v1.1H19.6z M7.7,4.8
	c0,0.2,0.2,0.4,0.4,0.4h6.8c0.2,0,0.4-0.2,0.4-0.4v-2c0-0.2-0.2-0.4-0.4-0.4h-2.2V2c0-0.7-0.5-1.2-1.2-1.2c-0.7,0-1.2,0.5-1.2,1.2
	v0.4H8.1c-0.2,0-0.4,0.2-0.4,0.4V4.8z M18.8,4.6h-2.7v0.2c0,0.7-0.5,1.2-1.2,1.2H8.1C7.5,6,6.9,5.4,6.9,4.8V4.6H4v18.6h14.8V4.6z"/>
</svg>
