<?xml version="1.0" encoding="utf-8"?>
<!-- Generator: Adobe Illustrator 21.1.0, SVG Export Plug-In . SVG Version: 6.00 Build 0)  -->
<svg version="1.1" id="Layer_1" xmlns="http://www.w3.org/2000/svg" xmlns:xlink="http://www.w3.org/1999/xlink" x="0px" y="0px"
	 viewBox="0 0 24 24" style="enable-background:new 0 0 24 24;" xml:space="preserve">
<path d="M7,15.6h9.3v1.5H7V15.6z M19.7,4v20H3.1V3.7h3.6V3.1c0-0.9,0.6-1.5,1.5-1.5h1.1C9.6,0.6,10.5,0,11.5,0c1,0,1.9,0.6,2.2,1.6
	h1.1c0.9,0,1.5,0.6,1.5,1.5v0.7h3V4H19.7z M12.3,3.1V2.3c0-0.5-0.3-0.8-0.8-0.8c-0.5,0-0.8,0.3-0.8,0.8v0.8H8.2l0,2l6.6,0l0-2
	L12.3,3.1z M18.2,5.2h-1.9c-0.1,0.8-0.7,1.4-1.5,1.4H8.2c-0.7,0-1.4-0.6-1.5-1.4H4.6v17.3h13.6V5.2z M7,13.6h9.3v-1.5H7V13.6z
	 M7,10.2h9.3V8.7H7V10.2z"/>
</svg>
