<?xml version="1.0" encoding="utf-8"?>
<!-- Generator: Adobe Illustrator 21.1.0, SVG Export Plug-In . SVG Version: 6.00 Build 0)  -->
<svg version="1.1" id="Layer_1" xmlns="http://www.w3.org/2000/svg" xmlns:xlink="http://www.w3.org/1999/xlink" x="0px" y="0px"
	 viewBox="0 0 24 24" style="enable-background:new 0 0 24 24;" xml:space="preserve">
<path d="M14.3,7.5v0.2c-0.7-0.4-1.5-0.6-2.3-0.6c-2.7,0-4.8,2.2-4.8,4.8c0,2.7,2.2,4.8,4.8,4.8c1.4,0,2.7-0.6,3.6-1.6
	c0.9,1,2.2,1.6,3.6,1.6c2.7,0,4.8-2.2,4.8-4.8c0-6.6-5.4-12-12-12S0,5.4,0,12c0,6.6,5.4,12,12,12c3.2,0,6.2-1.2,8.4-3.5l0.6-0.6
	l-1.8-1.8l-0.6,0.6c-1.8,1.8-4.1,2.7-6.7,2.7c-5.2,0-9.5-4.3-9.5-9.5c0-5.2,4.3-9.5,9.5-9.5c5.2,0,9.5,4.3,9.5,9.5
	c0,1.3-1,2.3-2.3,2.3c-1.3,0-2.3-1-2.3-2.3V7.5H14.3z M12,14.3c-1.3,0-2.3-1-2.3-2.3s1-2.3,2.3-2.3s2.3,1,2.3,2.3S13.3,14.3,12,14.3
	z"/>
</svg>
