<?xml version="1.0" encoding="utf-8"?>
<!-- Generator: Adobe Illustrator 21.1.0, SVG Export Plug-In . SVG Version: 6.00 Build 0)  -->
<svg version="1.1" id="Layer_1" xmlns="http://www.w3.org/2000/svg" xmlns:xlink="http://www.w3.org/1999/xlink" x="0px" y="0px"
	 viewBox="0 0 24 24" style="enable-background:new 0 0 24 24;" xml:space="preserve">
<path d="M24.1,11.1c0,1.9-1,2.7-1.4,2.9c-0.9,0.7-2.1,0.7-2.3,0.7L5.8,14.6c0,0,0,0,0,0c-0.4,0-1.4,0-2-0.7c-0.5-0.5-0.7-1-0.6-1.8
	c0-1.3,1-2.1,2.7-2.1l14.8,0.1v1.5L5.9,11.6c-1.2,0-1.2,0.5-1.2,0.7c0,0.3,0.1,0.6,0.2,0.7c0.2,0.2,0.9,0.2,1.1,0.2l14.5,0.1
	c0.2,0,0.5,0,0.9-0.1c0.1-0.1,0.2-0.1,0.3-0.2c0.6-0.4,0.9-1.1,0.9-1.9c0-0.8-0.3-1.4-0.9-1.8c-0.1,0-0.1-0.1-0.2-0.1
	C21.1,9,20.7,9,20.5,9L5.7,8.8c-2.8,0-4.2,1.2-4.2,3.6c0,1,0.2,1.7,0.7,2.3C3.1,15.8,4.7,16,5.8,16l12.8,0.1v0.2l0.1,1H5.8
	c-3.6,0-5.7-1.8-5.7-5c0-1.5,0.5-2.7,1.3-3.5c0,0,0,0,0,0C3,7.5,5.2,7.4,5.8,7.4h0.1l14.5,0.1c0.6,0,1.5,0.2,2.3,0.7
	C23,8.4,24.1,9.3,24.1,11.1z"/>
</svg>
