<?xml version="1.0" encoding="utf-8"?>
<!-- Generator: Adobe Illustrator 21.1.0, SVG Export Plug-In . SVG Version: 6.00 Build 0)  -->
<svg version="1.1" id="Layer_1" xmlns="http://www.w3.org/2000/svg" xmlns:xlink="http://www.w3.org/1999/xlink" x="0px" y="0px"
	 viewBox="0 0 24 24" style="enable-background:new 0 0 24 24;" xml:space="preserve">
<style type="text/css">
	.st0{stroke:#000000;stroke-width:0.25;stroke-miterlimit:10;}
</style>
<path class="st0" d="M10.1,22.7c-1.3-1.4-1.5-3.4-1.5-4.3L8.7,3.5c0-0.6,0.2-1.4,0.7-2.1c0.4-0.6,1.2-1.3,2.7-1.3
	c1.5,0,2.3,0.7,2.7,1.2c0.6,0.8,0.7,1.8,0.7,2.2l-0.1,15c0,0.4,0,1.3-0.6,1.8c-0.4,0.3-0.8,0.5-1.5,0.5c-1.1,0-1.8-0.9-1.8-2.4
	l0.1-14.9l0.7,0l-0.1,14.9c0,1.7,0.8,1.7,1.1,1.7c0.4,0,0.8-0.1,1-0.3c0.4-0.4,0.4-1,0.4-1.3l0.1-15c0-0.3,0-1.1-0.5-1.7
	c-0.5-0.6-1.2-0.9-2.1-1c-0.9,0-1.6,0.3-2.1,1C9.6,2.4,9.4,3.1,9.4,3.5L9.3,18.4c0,1.8,0.5,4.8,4.1,4.8c3.5,0,4.1-3,4.1-4.8l0-12.9
	l0.7,0l0,12.9c0,3.5-1.8,5.5-4.8,5.5C11.9,24,10.8,23.4,10.1,22.7z"/>
</svg>
