<?xml version="1.0" encoding="utf-8"?>
<!-- Generator: Adobe Illustrator 21.1.0, SVG Export Plug-In . SVG Version: 6.00 Build 0)  -->
<svg version="1.1" id="Layer_1" xmlns="http://www.w3.org/2000/svg" xmlns:xlink="http://www.w3.org/1999/xlink" x="0px" y="0px"
	 viewBox="0 0 24 24" style="enable-background:new 0 0 24 24;" xml:space="preserve">
<path d="M17.5,5.3v13c0,3.6-1.9,5.7-5.1,5.7c-0.1,0-0.2,0-0.3,0C11,24,9.8,23.6,9,22.7l0,0c-1.5-1.6-1.6-3.8-1.6-4.5L7.5,3.7
	c0-0.8,0.3-1.6,0.8-2.3C8.6,0.9,9.5,0,11.2,0c1.6,0,2.4,0.7,2.9,1.3c0.7,1,0.8,2.2,0.8,2.4l-0.1,14.7c0,0.4,0,1.4-0.7,2
	c-0.4,0.3-0.9,0.6-1.7,0.6c-1.3,0-2.1-1.1-2.1-2.7l0.1-14.9h1.4l-0.1,14.9c0,1.3,0.5,1.3,0.7,1.3c0.4,0,0.6-0.1,0.7-0.2
	c0.3-0.3,0.3-0.8,0.3-1l0.1-14.7c0-0.3,0-0.9-0.4-1.4c-0.4-0.5-1-0.8-1.8-0.8c-0.8,0-1.3,0.3-1.7,0.8C9.1,2.8,8.9,3.4,8.9,3.7
	L8.8,18.3c0,2,0.6,4.3,3.6,4.3c3.2,0,3.6-2.7,3.6-4.3v-13H17.5z"/>
</svg>
