<?xml version="1.0" encoding="utf-8"?>
<!-- Generator: Adobe Illustrator 21.1.0, SVG Export Plug-In . SVG Version: 6.00 Build 0)  -->
<svg version="1.1" id="Layer_1" xmlns="http://www.w3.org/2000/svg" xmlns:xlink="http://www.w3.org/1999/xlink" x="0px" y="0px"
	 viewBox="0 0 24 24" style="enable-background:new 0 0 24 24;" xml:space="preserve">
<path d="M1.3,9c1.4-1.3,3.4-1.5,4.3-1.5l14.9,0.1c0.6,0,1.4,0.2,2.1,0.7c0.6,0.4,1.3,1.2,1.3,2.7c0,1.5-0.7,2.3-1.3,2.7
	c-0.8,0.6-1.8,0.6-2.2,0.6L5.6,14.3c-0.4,0-1.3,0-1.8-0.6c-0.3-0.4-0.5-0.8-0.5-1.5c0-1.1,0.9-1.8,2.4-1.8l14.9,0.1l0,0.7L5.6,11.1
	c-1.7,0-1.7,0.8-1.7,1.1c0,0.4,0.1,0.8,0.3,1c0.4,0.4,1,0.4,1.3,0.4l14.9,0.1c0.3,0,1.1,0,1.7-0.5c0.6-0.4,1-1.2,1-2.1
	c0-0.9-0.3-1.6-1-2.1c-0.6-0.4-1.3-0.6-1.7-0.6L5.6,8.2c-1.8,0-4.8,0.5-4.8,4.1c0,3.5,3,4.1,4.8,4.1l12.9,0.1l0,0.7L5.6,17.1
	c-3.5,0-5.5-1.8-5.5-4.8C0.1,10.8,0.6,9.7,1.3,9z M18.6,17.3l-0.1,0L5.6,17.3c-3.6,0-5.6-1.8-5.6-4.9c0-1.4,0.4-2.6,1.3-3.4l0,0
	c1.4-1.3,3.4-1.5,4.3-1.5c0,0,0,0,0.1,0l14.9,0.1c0.6,0,1.5,0.2,2.2,0.7c0.6,0.4,1.4,1.3,1.4,2.8c0,1.5-0.7,2.4-1.3,2.8
	c-0.8,0.6-1.8,0.7-2.2,0.7c0,0,0,0,0,0L5.6,14.4c-0.4,0-1.3,0-1.9-0.6c-0.4-0.4-0.6-0.9-0.5-1.6c0-1.2,0.9-1.9,2.5-1.9c0,0,0,0,0,0
	l15,0.1l0,1l-15-0.1c0,0,0,0,0,0c-1.5,0-1.5,0.7-1.5,1c0,0.4,0.1,0.7,0.3,0.9c0.3,0.3,1,0.3,1.3,0.3l14.9,0.1c0.3,0,1,0,1.7-0.5
	c0.6-0.4,0.9-1.1,0.9-2c0-0.9-0.3-1.6-1-2c-0.6-0.4-1.2-0.5-1.6-0.5L5.6,8.4c0,0,0,0-0.1,0c-1.8,0-4.6,0.5-4.6,4
	c0,1.5,0.5,2.6,1.6,3.3c1,0.6,2.2,0.7,3,0.7l13,0.1L18.6,17.3z M5.6,7.7c-0.9,0-2.8,0.1-4.1,1.4l0,0C0.6,9.9,0.2,11,0.2,12.3
	c0,2.9,1.9,4.6,5.3,4.7l12.8,0.1l0-0.5L5.6,16.6c-0.9,0-2.1-0.1-3.1-0.7c-1.2-0.7-1.8-1.9-1.8-3.5c0-3.7,3-4.2,4.9-4.2
	c0,0,0,0,0.1,0l14.9,0.1c0.4,0,1.2,0.2,1.8,0.6c0.7,0.5,1.1,1.3,1.1,2.2c0,1-0.3,1.8-1,2.2c-0.7,0.5-1.5,0.5-1.8,0.5L5.6,13.7
	c-0.3,0-1,0-1.4-0.4c-0.2-0.2-0.3-0.6-0.3-1.1c0-0.8,0.6-1.2,1.8-1.2c0,0,0,0,0,0l14.8,0.1l0-0.5L5.6,10.5c0,0,0,0,0,0
	c-1.4,0-2.2,0.6-2.2,1.7c0,0.6,0.2,1,0.5,1.4c0.5,0.5,1.4,0.6,1.7,0.6l14.9,0.1c0.4,0,1.3,0,2.1-0.6c0.5-0.4,1.2-1.2,1.2-2.6
	c0-1.4-0.7-2.2-1.3-2.6c-0.7-0.5-1.5-0.7-2-0.7L5.6,7.7C5.6,7.7,5.6,7.7,5.6,7.7z"/>
</svg>
