<?xml version="1.0" encoding="utf-8"?>
<!-- Generator: Adobe Illustrator 21.1.0, SVG Export Plug-In . SVG Version: 6.00 Build 0)  -->
<svg version="1.1" id="Layer_1" xmlns="http://www.w3.org/2000/svg" xmlns:xlink="http://www.w3.org/1999/xlink" x="0px" y="0px"
	 viewBox="0 0 24 24" style="enable-background:new 0 0 24 24;" xml:space="preserve">
<path d="M11.4,0v1.1C9.9,1.3,8.7,1.7,7.9,2.4C6.7,3.5,6.1,4.9,6.1,6.6c0,1,0.2,1.8,0.6,2.6s1,1.3,1.8,1.8c1,0.6,2,0.9,3,1.1v7.6
	c-1-0.2-1.8-0.7-2.5-1.5c-0.5-0.6-0.8-1.5-1-2.8l-2.4,0.4c0.1,1.2,0.4,2.3,1,3.1c0.5,0.9,1.2,1.5,1.9,1.9s1.7,0.6,2.9,0.8V24h1.4
	v-2.4c1.7-0.1,3-0.7,4.1-1.8c1.1-1.1,1.6-2.5,1.6-4.1c0-0.8-0.1-1.5-0.4-2.1s-0.6-1.2-1.1-1.7s-1.1-0.9-1.8-1.2
	c-0.4-0.2-1.2-0.4-2.4-0.7V3.2c0.8,0.2,1.4,0.5,1.8,1c0.4,0.5,0.7,1.2,0.9,2.1L18,5.9c-0.2-1.5-0.8-2.7-1.9-3.6
	c-0.8-0.7-1.9-1.1-3.3-1.2V0H11.4z M11.4,9.7C10.3,9.4,9.6,9,9.1,8.4c-0.5-0.5-0.7-1.2-0.7-2s0.3-1.5,0.8-2.1s1.3-1,2.2-1.1
	C11.4,3.2,11.4,9.7,11.4,9.7z M15.4,13.8c0.4,0.5,0.6,1.2,0.6,2.1c0,1-0.3,1.9-0.9,2.6c-0.6,0.7-1.4,1.1-2.3,1.2v-7.3
	C14.1,12.8,15,13.2,15.4,13.8z"/>
</svg>
