<?xml version="1.0" encoding="utf-8"?>
<!-- Generator: Adobe Illustrator 21.1.0, SVG Export Plug-In . SVG Version: 6.00 Build 0)  -->
<svg version="1.1" id="Layer_1" xmlns="http://www.w3.org/2000/svg" xmlns:xlink="http://www.w3.org/1999/xlink" x="0px" y="0px"
	 viewBox="0 0 24 24" style="enable-background:new 0 0 24 24;" xml:space="preserve">
<path d="M1.4,12v0.7H0V12C0,5.4,5.4,0,12,0c3.2,0,6.2,1.2,8.5,3.5l0.1,0.1V0H22v5.7l-0.7,0.7h-5.7V4.8h4.1l-0.4-0.4
	c-2-2-4.7-3.1-7.4-3.1C6.2,1.4,1.4,6.3,1.4,12z M22.6,11.3V12c0,5.8-4.7,10.6-10.6,10.6c-2.9,0-5.5-1.1-7.4-3.1l-0.4-0.4h4.1v-1.4
	H2.5L2,18.3V24h1.4v-3.6l0.1,0.1C5.8,22.8,8.8,24,12,24c6.6,0,12-5.4,12-12v-0.7H22.6z"/>
</svg>
