<?xml version="1.0" encoding="utf-8"?>
<!-- Generator: Adobe Illustrator 21.1.0, SVG Export Plug-In . SVG Version: 6.00 Build 0)  -->
<svg version="1.1" id="Layer_1" xmlns="http://www.w3.org/2000/svg" xmlns:xlink="http://www.w3.org/1999/xlink" x="0px" y="0px"
	 viewBox="0 0 24 24" style="enable-background:new 0 0 24 24;" xml:space="preserve">
<path d="M20,13.7h-5.9l-1.5-5c4.4-0.3,7.8-3.9,7.8-8.3C20.4,0.3,20.3,0,20,0H4C3.9,0,3.6,0.2,3.6,0.5c0,4.4,3.5,8,7.8,8.3l-1.5,5H4
	c-0.2,0-0.3,0.2-0.5,0.3c0,0.2,0,0.3,0.2,0.5l4.7,3.5l-1.8,5.6c0,0.2,0,0.3,0.2,0.5s0.3,0.2,0.5,0l4.8-3.6l4.7,3.5
	c0,0,0.2,0.2,0.3,0.2s0.2,0,0.3-0.2c0.2-0.2,0.2-0.3,0.2-0.5l-1.8-5.6l4.7-3.5c0.2-0.2,0.2-0.3,0.2-0.5C20.3,13.8,20.1,13.7,20,13.7
	z M4.5,0.8h15c-0.2,3.9-3.5,7.1-7.5,7.1C7.9,8,4.6,4.7,4.5,0.8z M14.9,17.3c-0.2,0.2-0.2,0.3-0.2,0.5l1.5,4.7l-3.9-2.9
	c-0.2-0.2-0.3-0.2-0.5,0l-4.1,2.9l1.5-4.7c0-0.2,0-0.3-0.2-0.5l-3.9-2.9H10c0.3,0,0.5-0.2,0.5-0.3L12,9.5l1.5,4.7
	c0,0.2,0.2,0.3,0.5,0.3h4.8L14.9,17.3z"/>
</svg>
