<?xml version="1.0" encoding="utf-8"?>
<!-- Generator: Adobe Illustrator 21.1.0, SVG Export Plug-In . SVG Version: 6.00 Build 0)  -->
<svg version="1.1" id="Layer_1" xmlns="http://www.w3.org/2000/svg" xmlns:xlink="http://www.w3.org/1999/xlink" x="0px" y="0px"
	 viewBox="0 0 24 24" style="enable-background:new 0 0 24 24;" xml:space="preserve">
<path d="M20.5,13.7c-0.4-0.2-0.6-0.3-0.7-0.3h-5.7l-1.4-4.6c4.3-0.4,7.6-3.9,7.6-8.2c0-0.2-0.2-0.5-0.5-0.5H4.2C4,0,3.7,0.3,3.7,0.6
	c0,4.3,3.3,7.8,7.6,8.2l-1.4,4.6H4.2c-0.2,0-0.3,0.1-0.4,0.2c-0.1,0-0.1,0.1-0.2,0.1l-0.1,0v0.1c0,0.2,0,0.4,0.2,0.6l4.5,3.4
	l-1.7,5.4l0,0c0,0.2,0,0.4,0.2,0.6C6.9,23.9,7,24,7.2,24h0c0.1,0,0.2-0.1,0.3-0.2l4.6-3.5l4.5,3.3c0.1,0.1,0.3,0.2,0.4,0.2
	c0.1,0,0.3,0,0.4-0.2c0.2-0.2,0.2-0.3,0.2-0.6l-1.7-5.4l4.5-3.4c0.2-0.2,0.2-0.3,0.2-0.6L20.5,13.7L20.5,13.7z M4.8,1h14.4
	c-0.3,3.7-3.5,6.7-7.2,6.7C8.2,7.8,5,4.8,4.8,1z M9.4,17.5L9.4,17.5c0-0.3,0-0.4-0.2-0.6l-3.5-2.6h4.4c0.3,0,0.6-0.2,0.6-0.4L12,9.8
	l1.3,4.2c0,0.2,0.2,0.4,0.6,0.4h4.3l-3.5,2.5l0,0c-0.2,0.2-0.2,0.3-0.2,0.6l1.4,4.3l-3.5-2.6c-0.2-0.2-0.4-0.2-0.6,0L8,21.8
	L9.4,17.5z"/>
</svg>
