<?xml version="1.0" encoding="utf-8"?>
<!-- Generator: Adobe Illustrator 21.1.0, SVG Export Plug-In . SVG Version: 6.00 Build 0)  -->
<svg version="1.1" id="Layer_1" xmlns="http://www.w3.org/2000/svg" xmlns:xlink="http://www.w3.org/1999/xlink" x="0px" y="0px"
	 viewBox="0 0 24 24" style="enable-background:new 0 0 24 24;" xml:space="preserve">
<style type="text/css">
	.st0{stroke:#000000;stroke-width:0.25;stroke-miterlimit:10;}
</style>
<path class="st0" d="M21.1,5.1H6.7l-6.3,6.3c-0.2,0.2-0.3,0.4-0.3,0.6s0.1,0.4,0.3,0.6l6.3,6.3h14.4c1.5,0,2.7-1.2,2.7-2.7V7.7
	C23.8,6.3,22.6,5.1,21.1,5.1z M23.3,16.3c0,1.2-1,2.2-2.2,2.2H7l-6.2-6.2c-0.1-0.1-0.1-0.3,0-0.5L7,5.6h14.2c1.2,0,2.2,1,2.2,2.2
	V16.3z M17.4,9l-2.7,2.7l2.7,2.7L17,14.8l-2.7-2.7l-2.7,2.7l-0.4-0.4l2.7-2.7L11.3,9l0.4-0.4l2.7,2.7L17,8.7L17.4,9z"/>
</svg>
