<?xml version="1.0" encoding="utf-8"?>
<!-- Generator: Adobe Illustrator 21.1.0, SVG Export Plug-In . SVG Version: 6.00 Build 0)  -->
<svg version="1.1" id="Layer_1" xmlns="http://www.w3.org/2000/svg" xmlns:xlink="http://www.w3.org/1999/xlink" x="0px" y="0px"
	 viewBox="0 0 24 24" style="enable-background:new 0 0 24 24;" xml:space="preserve">
<path d="M24,12.3c0,0.4-0.2,0.7-0.7,0.7H2.6l8,8c0.2,0.2,0.3,0.4,0.3,0.5c0,0.2-0.1,0.4-0.3,0.5l0,0c-0.1,0-0.1,0.1-0.1,0.1
	c-0.1,0.1-0.2,0.1-0.4,0.1c-0.2,0-0.5-0.1-0.6-0.2l-9.2-9.2C0,12.8,0,12.5,0,12.3c0-0.2,0.1-0.5,0.3-0.7l9.2-9.2
	c0.3-0.3,0.7-0.3,1.1,0c0.3,0.3,0.3,0.7,0,1.1l-7.9,7.9h20.6C23.6,11.4,24,11.7,24,12.3z"/>
</svg>
