<?xml version="1.0" encoding="utf-8"?>
<!-- Generator: Adobe Illustrator 21.1.0, SVG Export Plug-In . SVG Version: 6.00 Build 0)  -->
<svg version="1.1" id="Layer_1" xmlns="http://www.w3.org/2000/svg" xmlns:xlink="http://www.w3.org/1999/xlink" x="0px" y="0px"
	 viewBox="0 0 24 24" style="enable-background:new 0 0 24 24;" xml:space="preserve">
<path d="M10.5,14.3l2.6-2.6l-2.5-2.6L11.7,8l2.6,2.6l2.5-2.5L18,9l-2.7,2.7l2.6,2.6l-1.1,1.1l-2.6-2.6l-2.6,2.6L10.5,14.3z
	 M23.9,7.8v8.3c0,1.7-1.4,3.1-3.1,3.1H6.6l-6.3-6.3c-0.3-0.3-0.4-0.6-0.4-0.9c0-0.3,0.1-0.6,0.4-0.9l6.3-6.3h14.2
	C22.6,4.8,23.9,6.2,23.9,7.8z M20.9,6.3H7.3L1.6,12l5.8,5.8h13.5c0.9,0,1.7-0.8,1.7-1.7v-0.5h0.1V7.9C22.6,7,21.8,6.3,20.9,6.3z"/>
</svg>
