<?xml version="1.0" encoding="utf-8"?>
<!-- Generator: Adobe Illustrator 21.0.2, SVG Export Plug-In . SVG Version: 6.00 Build 0)  -->
<svg version="1.1" id="Layer_2" xmlns="http://www.w3.org/2000/svg" xmlns:xlink="http://www.w3.org/1999/xlink" x="0px" y="0px"
	 viewBox="0 0 16 16" style="enable-background:new 0 0 16 16;" xml:space="preserve">
<style type="text/css">
	.st0{stroke:#000000;stroke-width:0.15;stroke-miterlimit:10;}
</style>
<title>icon_backend_services</title>
<path class="st0" d="M15.2,9.5l-1.3-1c0-0.1,0-0.3,0-0.5c0-0.2,0-0.3,0-0.5l1.3-1c0.3-0.3,0.4-0.7,0.2-1.1L14,2.9
	c-0.2-0.4-0.7-0.5-1.1-0.4l-1.6,0.6c-0.3-0.2-0.6-0.4-0.8-0.5L10.3,1c0-0.4-0.4-0.8-0.8-0.8H6.5C6.1,0.2,5.8,0.5,5.7,1L5.5,2.6
	C5.2,2.8,4.9,2.9,4.6,3.1L3.1,2.5C2.7,2.3,2.2,2.5,2,2.8L0.5,5.4C0.3,5.7,0.4,6.2,0.8,6.5l1.3,1C2,7.7,2,7.8,2,8c0,0.2,0,0.3,0,0.5
	l-1.3,1c-0.3,0.3-0.4,0.7-0.2,1.1L2,13.1c0.2,0.4,0.7,0.5,1.1,0.4l1.6-0.6c0.3,0.2,0.6,0.4,0.8,0.5L5.7,15c0,0.4,0.4,0.8,0.8,0.8
	h2.9c0.4,0,0.8-0.3,0.8-0.7l0.2-1.7c0.3-0.1,0.6-0.3,0.8-0.5l1.6,0.6c0.4,0.2,0.8,0,1.1-0.4l1.5-2.6C15.7,10.2,15.6,9.8,15.2,9.5z
	 M13.2,12.5l-1.7-0.6c-0.2-0.1-0.3,0-0.5,0.1c-0.3,0.3-0.7,0.5-1.1,0.6c-0.2,0.1-0.3,0.2-0.3,0.4l-0.3,1.8H6.7L6.4,13
	c0-0.2-0.1-0.3-0.3-0.4C5.7,12.4,5.3,12.2,5,12c-0.1-0.1-0.3-0.1-0.5-0.1l-1.7,0.6l-1.4-2.3l1.4-1.1C3,9,3.1,8.8,3.1,8.7
	c0-0.2,0-0.4,0-0.6c0-0.2,0-0.4,0-0.6C3.1,7.2,3,7,2.9,6.9L1.5,5.8l1.4-2.3l1.7,0.6c0.2,0.1,0.3,0,0.5-0.1c0.3-0.3,0.7-0.5,1.1-0.6
	C6.3,3.3,6.4,3.2,6.4,3l0.3-1.8h2.7L9.6,3c0,0.2,0.1,0.3,0.3,0.4c0.4,0.2,0.8,0.4,1.1,0.6c0.1,0.1,0.3,0.1,0.5,0.1l1.7-0.6l1.4,2.3
	l-1.4,1.1C13,7,12.9,7.2,12.9,7.4c0.1,0.4,0.1,0.9,0,1.3c0,0.2,0.1,0.3,0.2,0.5l1.4,1.1L13.2,12.5z"/>
<path d="M6.2,6.5l1.1,1.1l0.2-0.2L6.4,6.3c0,0,0-0.2,0-0.2L5.6,5.5L5.3,5.8L6,6.5C6,6.5,6.1,6.5,6.2,6.5z"/>
<path d="M8.8,8.3L8.1,9l1.6,1.6c0.1,0.1,0.3,0.1,0.5,0c0,0,0,0,0,0l0,0l0.3-0.3c0.1-0.1,0.1-0.3,0-0.5c0,0,0,0,0,0l0,0L8.8,8.3z"/>
<path d="M6.1,10.5l2.9-2.9c0.2,0.1,0.3,0.1,0.5,0.1c0.7,0,1.2-0.6,1.2-1.2c0-0.2,0-0.3-0.1-0.5L9.9,6.8c-0.2,0.2-0.5,0.2-0.6,0
	C9,6.6,9,6.3,9.2,6.1l0.7-0.7C9.8,5.3,9.6,5.3,9.4,5.3c-0.7,0-1.2,0.6-1.2,1.2c0,0.2,0,0.3,0.1,0.5L5.5,9.9c-0.2,0.2-0.2,0.5,0,0.6
	C5.6,10.8,5.9,10.8,6.1,10.5L6.1,10.5L6.1,10.5z"/>
</svg>
