<?xml version="1.0" encoding="utf-8"?>
<!-- Generator: Adobe Illustrator 21.1.0, SVG Export Plug-In . SVG Version: 6.00 Build 0)  -->
<svg version="1.1" id="Layer_1" xmlns="http://www.w3.org/2000/svg" xmlns:xlink="http://www.w3.org/1999/xlink" x="0px" y="0px"
	 viewBox="0 0 24 24" style="enable-background:new 0 0 24 24;" xml:space="preserve">
<path d="M21.2,17.1c-0.7-0.6-1.9-2.2-2.1-4.3c0-0.5-0.1-1-0.1-1.5c-0.2-3.1-0.4-5.5-1.6-7.2c-1-1.6-2.3-2.4-4-2.7
	C13.3,0.6,12.7,0,12,0c-0.7,0-1.3,0.6-1.5,1.4c-1.7,0.3-2.9,1.2-4,2.7C5.4,5.9,5.2,8.3,5,11.3c0,0.5-0.1,1-0.1,1.5
	c-0.2,2.1-1.4,3.7-2.1,4.3c-0.8,0.7-0.9,1.9-0.9,2.6c0,0.3,0.2,0.5,0.5,0.5h7.3v1.5c0,1.3,1,2.3,2.3,2.3s2.3-1,2.3-2.3v-1.5h7.3
	c0.3,0,0.5-0.2,0.5-0.5C22.1,19.1,22,17.9,21.2,17.1z M12,1.1c0.1,0,0.2,0.1,0.3,0.2c-0.1,0-0.1,0-0.2,0c0,0,0,0-0.1,0
	c0,0-0.1,0-0.1,0c0,0-0.1,0-0.1,0c0,0,0,0-0.1,0c-0.1,0-0.1,0-0.2,0C11.8,1.1,11.9,1.1,12,1.1z M13.2,21.7c0,0.7-0.6,1.2-1.2,1.2
	s-1.2-0.6-1.2-1.2v-1.5h2.5L13.2,21.7L13.2,21.7z M3,19.2c0.1-0.4,0.2-0.9,0.6-1.3c0.2-0.2,2.2-2,2.4-5c0-0.5,0.1-1,0.1-1.5
	c0.2-2.9,0.4-5.2,1.4-6.8C8.5,3,9.8,2.3,11.9,2.3c0,0,0,0,0,0c0,0,0,0,0,0l0,0c0,0,0,0,0,0c2.1,0,3.4,0.7,4.5,2.4
	c1,1.6,1.2,3.8,1.4,6.7c0,0.5,0.1,1,0.1,1.5c0.2,3,2.2,4.8,2.4,5c0.4,0.3,0.5,0.8,0.6,1.3H3z"/>
</svg>
