<?xml version="1.0" encoding="utf-8"?>
<!-- Generator: Adobe Illustrator 21.1.0, SVG Export Plug-In . SVG Version: 6.00 Build 0)  -->
<svg version="1.1" id="Layer_1" xmlns="http://www.w3.org/2000/svg" xmlns:xlink="http://www.w3.org/1999/xlink" x="0px" y="0px"
	 viewBox="0 0 24 24" style="enable-background:new 0 0 24 24;" xml:space="preserve">
<path d="M21.2,17L21.2,17c-0.6-0.5-1.8-2.1-2-4.2c0-0.3,0-0.5-0.1-0.8c0-0.2,0-0.5,0-0.7c-0.2-3.3-0.4-5.5-1.6-7.2
	c-1-1.5-2.2-2.4-4-2.7C13.4,0.6,12.7,0,12,0c-0.7,0-1.3,0.6-1.6,1.4c-1.6,0.3-2.8,1.1-4,2.7c-1.1,1.7-1.3,4-1.5,7.2
	c0,0.2,0,0.5,0,0.7c0,0.2-0.1,0.5,0,0.7c-0.2,2.1-1.4,3.6-2,4.2c-0.6,0.5-0.9,1.4-0.9,2.7c0,0.4,0.3,0.6,0.6,0.6h7.1v1.4
	c0,1.3,1.1,2.4,2.4,2.4c1.3,0,2.4-1.1,2.4-2.4v-1.4h7.1c0.4,0,0.6-0.3,0.6-0.6C22.1,19,22,17.8,21.2,17z M12,22.7
	c-0.5,0-1.1-0.5-1.1-1.1v-1.4h2.2l-0.1,1.4v0C13.1,22.2,12.5,22.7,12,22.7z M20.7,19H3.3c0.1-0.4,0.2-0.8,0.5-1.1l0,0
	c0.8-0.8,2.2-2.5,2.4-5c0-0.2,0-0.5,0-0.7c0-0.2,0.1-0.5,0-0.7c0.2-3,0.4-5.2,1.4-6.7c1-1.6,2.2-2.2,4.2-2.2c2,0,3.3,0.7,4.3,2.3
	c1,1.5,1.2,3.6,1.4,6.6c0,0.3,0,0.5,0.1,0.8c0,0.2,0,0.5,0,0.7c0.2,2.5,1.6,4.2,2.4,5l0.1,0C20.5,18.2,20.6,18.6,20.7,19z"/>
</svg>
