<?xml version="1.0" encoding="utf-8"?>
<!-- Generator: Adobe Illustrator 21.1.0, SVG Export Plug-In . SVG Version: 6.00 Build 0)  -->
<svg version="1.1" id="Layer_1" xmlns="http://www.w3.org/2000/svg" xmlns:xlink="http://www.w3.org/1999/xlink" x="0px" y="0px"
	 viewBox="0 0 24 24" style="enable-background:new 0 0 24 24;" xml:space="preserve">
<path d="M19.1,12.8c0-0.5-0.1-1-0.1-1.5c-0.1-2-0.3-3.8-0.7-5.2l3.9-4.8l-1.7-1.4l-3.3,3.9c-1-1.4-2.2-2.2-3.8-2.5
	C13.3,0.6,12.7,0,12,0c-0.7,0-1.3,0.6-1.5,1.4c-1.7,0.3-2.9,1.2-4,2.7C5.4,5.9,5.2,8.3,5,11.3c0,0.5-0.1,1-0.1,1.5
	c-0.2,2.1-1.4,3.7-2.1,4.3c-0.8,0.7-0.9,1.9-0.9,2.6c0,0.3,0.2,0.5,0.5,0.5h1.3l-2,2.4l1.7,1.4l3.2-3.8h3.1v1.5c0,1.3,1,2.3,2.3,2.3
	s2.3-1,2.3-2.3v-1.5h7.3c0.3,0,0.5-0.2,0.5-0.5c0-0.6-0.1-1.8-0.9-2.6C20.5,16.5,19.3,14.9,19.1,12.8z M12,1.1
	c0.1,0,0.2,0.1,0.3,0.2c-0.1,0-0.1,0-0.2,0c0,0,0,0-0.1,0c0,0-0.1,0-0.1,0c0,0-0.1,0-0.1,0c0,0,0,0-0.1,0c-0.1,0-0.1,0-0.2,0
	C11.8,1.1,11.9,1.1,12,1.1z M3,19.2c0.1-0.4,0.2-0.9,0.6-1.3c0.2-0.2,2.2-2,2.4-5c0-0.5,0.1-1,0.1-1.5c0.2-2.9,0.4-5.2,1.4-6.8
	C8.5,3,9.8,2.3,11.9,2.3c0,0,0,0,0,0c0,0,0,0,0,0l0,0c0,0,0,0,0,0c2.1,0,3.4,0.7,4.5,2.4c0,0,0,0,0,0.1l-12,14.5H3z M12,23
	c-0.7,0-1.2-0.6-1.2-1.2v-1.5h2.5v1.5h0C13.2,22.4,12.7,23,12,23z M7.5,19.2l10-12.1c0.3,1.2,0.4,2.7,0.5,4.3c0,0.5,0.1,1,0.1,1.5
	c0.2,3,2.2,4.8,2.4,5c0.4,0.3,0.5,0.8,0.6,1.3H7.5z"/>
</svg>
