<?xml version="1.0" encoding="utf-8"?>
<!-- Generator: Adobe Illustrator 21.1.0, SVG Export Plug-In . SVG Version: 6.00 Build 0)  -->
<svg version="1.1" id="Layer_1" xmlns="http://www.w3.org/2000/svg" xmlns:xlink="http://www.w3.org/1999/xlink" x="0px" y="0px"
	 viewBox="0 0 24 24" style="enable-background:new 0 0 24 24;" xml:space="preserve">
<path d="M22.2,1.5l-1.9-1.5l-3.2,3.8c-1-1.3-2.1-2.1-3.6-2.4c-0.1-0.7-0.8-1.3-1.5-1.3c-0.7,0-1.3,0.6-1.6,1.4
	C8.9,1.8,7.6,2.6,6.5,4.2C5.4,5.9,5.2,8.1,5,11.3c0,0.2,0,0.5,0,0.7c0,0.2,0,0.5,0,0.7c-0.2,2.1-1.4,3.6-2,4.1
	C2.3,17.4,2,18.3,2,19.6c0,0.4,0.3,0.6,0.6,0.6h1l-1.9,2.2l1.9,1.5l3.2-3.8h2.9v1.3c0,1.3,1,2.4,2.4,2.4c1.3,0,2.4-1,2.4-2.4v-1.3h7
	c0.4,0,0.6-0.3,0.6-0.6c0-0.6-0.1-1.8-0.9-2.6c-0.6-0.5-1.8-2.1-2-4.1c0-0.3,0-0.5,0-0.7c0-0.2,0-0.5,0-0.7
	c-0.1-2.2-0.3-3.8-0.7-5.1L22.2,1.5L22.2,1.5z M12,22.7c-0.6,0-1.1-0.5-1.1-1.1v-1.3h2.2l0,1.3C13.1,22.1,12.6,22.7,12,22.7z
	 M20.2,17.8L20.2,17.8c0.4,0.3,0.5,0.7,0.6,1.1H7.8l9.5-11.5c0.3,1.2,0.3,2.6,0.4,4c0,0.3,0,0.5,0,0.7c0,0.2,0,0.5,0,0.7
	C18,15.4,19.4,17.1,20.2,17.8z M16.2,4.9L4.5,19H3.3l0,0c0.1-0.4,0.2-0.8,0.5-1.1l0,0c0.8-0.8,2.2-2.5,2.4-5c0-0.2,0-0.5,0-0.7
	c0-0.2,0-0.5,0-0.7c0.2-3,0.4-5.1,1.4-6.6c1-1.5,2.2-2.2,4.2-2.2C13.9,2.6,15.1,3.3,16.2,4.9z"/>
</svg>
