<?xml version="1.0" encoding="utf-8"?>
<!-- Generator: Adobe Illustrator 21.1.0, SVG Export Plug-In . SVG Version: 6.00 Build 0)  -->
<svg version="1.1" id="Layer_1" xmlns="http://www.w3.org/2000/svg" xmlns:xlink="http://www.w3.org/1999/xlink" x="0px" y="0px"
	 viewBox="0 0 24 24" style="enable-background:new 0 0 24 24;" xml:space="preserve">
<path d="M20.8,3.8C20.8,3.8,20.8,3.8,20.8,3.8C20.8,3.8,20.8,3.8,20.8,3.8c-1.2-1.3-2.7-2.3-4.4-3c-0.5-0.2-0.9-0.3-1.4-0.5
	C14,0.1,13,0,12,0C6.5,0,1.7,3.7,0.4,9c-0.8,3.1-0.3,6.3,1.3,9.1c1.6,2.8,4.3,4.7,7.4,5.5c1,0.2,2,0.4,3,0.4c3.8,0,7.4-1.8,9.7-4.9
	c0.9-1.2,1.6-2.6,1.9-4.1C24.7,10.9,23.5,6.7,20.8,3.8z M1.7,9.4c1.2-4.7,5.4-8,10.3-8c0.9,0,1.8,0.1,2.6,0.3
	c0.4,0.1,0.9,0.2,1.3,0.4c1.3,0.5,2.5,1.3,3.4,2.2L3.6,18.6c-0.3-0.4-0.6-0.8-0.8-1.2C1.4,15,1,12.1,1.7,9.4z M22.3,14.6
	c-0.3,1.3-0.9,2.6-1.7,3.7c-2,2.7-5.2,4.4-8.6,4.4c-0.9,0-1.8-0.1-2.6-0.3c-1.9-0.5-3.5-1.4-4.8-2.7L20.2,5.3
	C22.3,7.8,23.2,11.2,22.3,14.6z"/>
</svg>
