<?xml version="1.0" encoding="utf-8"?>
<!-- Generator: Adobe Illustrator 21.1.0, SVG Export Plug-In . SVG Version: 6.00 Build 0)  -->
<svg version="1.1" id="Layer_1" xmlns="http://www.w3.org/2000/svg" xmlns:xlink="http://www.w3.org/1999/xlink" x="0px" y="0px"
	 viewBox="0 0 24 24" style="enable-background:new 0 0 24 24;" xml:space="preserve">
<path d="M20.5,5.5h-8.3C12,5.5,12,5.6,12,5.7S12,6,12.2,6h8.3c0.1,0,0.2-0.1,0.2-0.2S20.6,5.5,20.5,5.5z M20.5,7.7h-8.3
	C12,7.7,12,7.8,12,8c0,0.1,0.1,0.2,0.2,0.2h8.3c0.1,0,0.2-0.1,0.2-0.2C20.7,7.8,20.6,7.7,20.5,7.7z M20.5,10h-8.3
	C12,10,12,10.1,12,10.2c0,0.1,0.1,0.2,0.2,0.2h8.3c0.1,0,0.2-0.1,0.2-0.2C20.7,10.1,20.6,10,20.5,10z M20.5,12.3h-8.3
	c-0.1,0-0.2,0.1-0.2,0.2c0,0.1,0.1,0.2,0.2,0.2h8.3c0.1,0,0.2-0.1,0.2-0.2C20.7,12.4,20.6,12.3,20.5,12.3z M20.5,14.5h-17
	c-0.1,0-0.2,0.1-0.2,0.2c0,0.1,0.1,0.2,0.2,0.2h17c0.1,0,0.2-0.1,0.2-0.2C20.7,14.6,20.6,14.5,20.5,14.5z M20.5,16.8h-17
	c-0.1,0-0.2,0.1-0.2,0.2c0,0.1,0.1,0.2,0.2,0.2h17c0.1,0,0.2-0.1,0.2-0.2C20.7,16.9,20.6,16.8,20.5,16.8z M22.8,0H1.2
	C1.1,0,1,0.1,1,0.3v19c0,0.1,0.1,0.2,0.2,0.2h2v4.2c0,0.1,0.1,0.2,0.2,0.2c0,0,0,0,0.1,0c0.1,0,0.1,0,0.2-0.1l3.7-4.4h15.4
	c0.1,0,0.2-0.1,0.2-0.2v-19C23,0.1,22.9,0,22.8,0z M22.5,0.5v2.7h-21V0.5H22.5z M7.3,19.1c-0.1,0-0.1,0-0.2,0.1l-3.4,4v-3.8
	c0-0.1-0.1-0.2-0.2-0.2h-2V3.7h21v15.4C22.5,19.1,7.3,19.1,7.3,19.1z M2.8,2.1H5c0.1,0,0.2-0.1,0.2-0.2S5.1,1.6,5,1.6H2.8
	c-0.1,0-0.2,0.1-0.2,0.2S2.7,2.1,2.8,2.1z M3.5,12.8h6.4c0.1,0,0.2-0.1,0.2-0.2V5.7c0-0.1-0.1-0.2-0.2-0.2H3.5
	c-0.1,0-0.2,0.1-0.2,0.2v6.8C3.3,12.7,3.4,12.8,3.5,12.8z M3.7,6h6v6.3h-6V6z"/>
</svg>
