<?xml version="1.0" encoding="utf-8"?>
<!-- Generator: Adobe Illustrator 21.1.0, SVG Export Plug-In . SVG Version: 6.00 Build 0)  -->
<svg version="1.1" id="Layer_1" xmlns="http://www.w3.org/2000/svg" xmlns:xlink="http://www.w3.org/1999/xlink" x="0px" y="0px"
	 viewBox="0 0 24 24" style="enable-background:new 0 0 24 24;" xml:space="preserve">
<path d="M20.8,16.9c0,0.3-0.3,0.6-0.6,0.6H3.7c-0.3,0-0.6-0.3-0.6-0.6c0-0.3,0.3-0.6,0.6-0.6h16.6C20.6,16.4,20.8,16.6,20.8,16.9z
	 M3.2,12.5V5.9c0-0.3,0.3-0.6,0.6-0.6H10c0.3,0,0.6,0.3,0.6,0.6v6.7c0,0.3-0.3,0.6-0.6,0.6H3.7C3.5,13.2,3.2,13,3.2,12.5z M4.3,6.6
	V12h5.1V6.6H4.3z M5.2,1.6H3c-0.3,0-0.6,0.3-0.6,0.6c0,0.2,0.2,0.7,0.6,0.7h2.1c0.3,0,0.6-0.3,0.6-0.6C5.7,1.9,5.5,1.6,5.2,1.6z
	 M20.3,12h-8.1c-0.3,0-0.6,0.3-0.6,0.6s0.3,0.6,0.6,0.6h8.1c0.3,0,0.6-0.3,0.6-0.6S20.6,12,20.3,12z M20.3,14.1H3.7
	c-0.3,0-0.6,0.3-0.6,0.6c0,0.3,0.3,0.6,0.6,0.6h16.6c0.3,0,0.6-0.3,0.6-0.6C20.8,14.4,20.6,14.1,20.3,14.1z M23.1,0.6v18.5
	c0,0.3-0.3,0.6-0.6,0.6H7.7l-3.5,4.2C4,23.9,4,24,3.7,24H3.6c-0.3,0-0.6-0.3-0.6-0.6v-3.7H1.5c-0.3,0-0.6-0.3-0.6-0.6V0.7
	C0.9,0.2,1.2,0,1.5,0h21C22.8,0,23.1,0.3,23.1,0.6z M21.9,3.1V1.2H2.1v1.9H21.9z M7.4,18.6h14.4V4.3H2.1v14.4h1.6
	c0.3,0,0.6,0.3,0.6,0.6V22L7,18.8C7.1,18.7,7.2,18.6,7.4,18.6z M20.3,5.4h-8.1c-0.1,0-0.6,0-0.6,0.6c0,0.6,0.5,0.7,0.6,0.7h8.1
	c0.3,0,0.6-0.3,0.6-0.6C20.8,5.8,20.6,5.4,20.3,5.4z M20.3,9.7h-8.1c-0.1,0-0.6,0-0.6,0.6c0,0.3,0.3,0.6,0.6,0.6h8.1
	c0.3,0,0.6-0.3,0.6-0.6C20.8,10,20.6,9.7,20.3,9.7z M20.3,7.5h-8.1c-0.6,0-0.6,0.5-0.6,0.7c0,0.3,0.3,0.6,0.6,0.6h8.1
	c0.3,0,0.6-0.3,0.6-0.6C20.8,7.7,20.5,7.5,20.3,7.5z"/>
</svg>
