<?xml version="1.0" encoding="utf-8"?>
<!-- Generator: Adobe Illustrator 21.1.0, SVG Export Plug-In . SVG Version: 6.00 Build 0)  -->
<svg version="1.1" id="Layer_1" xmlns="http://www.w3.org/2000/svg" xmlns:xlink="http://www.w3.org/1999/xlink" x="0px" y="0px"
	 viewBox="0 0 24 24" style="enable-background:new 0 0 24 24;" xml:space="preserve">
<style type="text/css">
	.st0{fill:#020400;}
</style>
<g id="surface1">
	<path class="st0" d="M12.7,23.8c2.3,0,4.4-0.5,5.6-1.7c1.5-1.3,2.1-2.8,2.1-5.1c0-1.5-0.5-2.8-1.3-3.8c-0.8-1-2.1-1.7-3.3-2.1
		c1-0.5,2.1-1,2.5-1.7c0.8-0.8,1-1.7,1-2.8c0-2.1-0.8-3.8-2.1-4.8C15.8,0.7,14,0,11.3,0H3.7v24h8.9V23.8z M13.2,12.5
		c1.5,0,2.5,0.5,3.1,1.3c0.8,0.8,1,1.7,1,3.3c0,1.3-0.5,2.3-1.3,3.1c-0.8,0.8-2.1,1-3.3,1H7v-8.7C7,12.5,13.2,12.5,13.2,12.5z
		 M7,2.3h4.6c1.5,0,2.8,0.2,3.6,1c0.8,0.8,1.3,1.5,1.3,2.8s-0.2,2.1-1,2.8c-0.8,0.8-1.7,1-2.8,1H7V2.3z"/>
</g>
</svg>
