<?xml version="1.0" encoding="utf-8"?>
<!-- Generator: Adobe Illustrator 21.1.0, SVG Export Plug-In . SVG Version: 6.00 Build 0)  -->
<svg version="1.1" id="Layer_1" xmlns="http://www.w3.org/2000/svg" xmlns:xlink="http://www.w3.org/1999/xlink" x="0px" y="0px"
	 viewBox="0 0 24 24" style="enable-background:new 0 0 24 24;" xml:space="preserve">
<path d="M23.8,3.1c-0.2-0.1-0.3-0.1-0.5-0.1L12,5.3L0.7,2.9C0.4,2.9,0.3,3,0.2,3.2C0.1,3.2,0,3.3,0,3.5v15.4c0,0.3,0.2,0.5,0.4,0.6
	l11.5,2.4H12l11.5-2.4c0.3,0,0.5-0.3,0.5-0.6V3.5C24,3.3,23.9,3.1,23.8,3.1z M11.5,20.5L1.2,18.5L1.3,4.3l10.2,2.1V20.5z M22.8,18.5
	l-10.2,2.1V6.3l10.2-2.1V18.5z"/>
<path d="M9.9,15.5L9.9,15.5c0.4,0,0.6-0.2,0.7-0.4l0-0.1c0-0.4-0.2-0.6-0.5-0.6l-7.5-1.6c-0.3,0-0.6,0.2-0.7,0.4
	c-0.1,0.2-0.1,0.3,0,0.5c0.1,0.2,0.3,0.3,0.4,0.3L9.9,15.5z"/>
<path d="M10.2,17.8l-7.4-1.6c-0.1-0.1-0.3,0-0.4,0c-0.2,0.1-0.3,0.3-0.3,0.5c0,0.4,0.2,0.6,0.5,0.6h0L10,19h0.1
	c0.4,0,0.5-0.2,0.6-0.4l0.1-0.1l-0.1-0.1C10.6,18.1,10.5,17.9,10.2,17.8z"/>
<path d="M2.4,10.5l7.7,1.6h0.1c0.4,0,0.5-0.2,0.6-0.4l0-0.1l0-0.1c-0.1-0.2-0.2-0.6-0.6-0.7L6.5,10L2.8,9.3C2.5,9.2,2.1,9.3,2,9.6
	l0,0.1C2,10.1,2.1,10.3,2.4,10.5z"/>
<path d="M2.4,6.9l3.8,0.8L10,8.4h0.1c0.4,0,0.5-0.2,0.6-0.4c0.1-0.2,0.1-0.3,0-0.5c-0.1-0.2-0.3-0.3-0.4-0.3h0L6.5,6.6L2.8,5.8
	c-0.1-0.1-0.3,0-0.4,0C2.2,5.9,2.1,6.1,2.1,6.3C2,6.5,2,6.6,2.1,6.7C2.2,6.8,2.3,6.9,2.4,6.9z"/>
<path d="M14,15.5L14,15.5l3.9-0.7l3.7-0.8l0.1,0c0.2-0.1,0.4-0.3,0.4-0.6l0-0.1c-0.1-0.2-0.3-0.4-0.6-0.4c0,0,0,0,0,0l-3.7,0.8
	L14,14.3c-0.3,0-0.5,0.3-0.5,0.6C13.4,15.3,13.6,15.5,14,15.5z"/>
<path d="M14,19L14,19l3.9-0.7l3.7-0.8l0.1,0c0.2-0.1,0.4-0.3,0.4-0.6l0-0.1c-0.1-0.2-0.3-0.4-0.6-0.4h0l-3.7,0.8L14,17.8
	c-0.3,0-0.5,0.3-0.5,0.6C13.4,18.7,13.6,19,14,19z"/>
<path d="M14,8.4L14,8.4l3.9-0.7L21.5,7C21.8,7,22,6.8,22,6.7c0.1-0.1,0.1-0.3,0-0.5c0-0.3-0.3-0.5-0.7-0.5h0l-3.7,0.8L14,7.3
	c-0.3,0-0.5,0.3-0.5,0.6C13.4,8.2,13.6,8.4,14,8.4z"/>
<path d="M14,12L14,12l3.9-0.7l3.7-0.8c0.3,0,0.4-0.2,0.5-0.2c0.1-0.1,0.1-0.3,0-0.5c-0.1-0.2-0.3-0.4-0.6-0.4h0l-3.7,0.8L14,10.8
	c-0.3,0-0.5,0.3-0.5,0.6C13.4,11.8,13.6,12,14,12z"/>
</svg>
