<?xml version="1.0" encoding="utf-8"?>
<!-- Generator: Adobe Illustrator 21.1.0, SVG Export Plug-In . SVG Version: 6.00 Build 0)  -->
<svg version="1.1" id="Layer_1" xmlns="http://www.w3.org/2000/svg" xmlns:xlink="http://www.w3.org/1999/xlink" x="0px" y="0px"
	 viewBox="0 0 24 24" style="enable-background:new 0 0 24 24;" xml:space="preserve">
<path d="M2.3,6.6l3.8,0.8L10,8.1c0,0,0.1,0,0.1,0c0.2,0,0.3-0.1,0.4-0.3c0.1-0.2-0.1-0.4-0.3-0.4L6.3,6.7L2.5,5.9
	C2.3,5.8,2.1,6,2.1,6.2C2,6.4,2.1,6.5,2.3,6.6z M10.1,9.2L6.3,8.5L2.5,7.7C2.3,7.6,2.1,7.8,2,8C2,8.2,2.1,8.3,2.3,8.4l3.8,0.8
	L10,9.9c0,0,0.1,0,0.1,0c0.2,0,0.3-0.1,0.4-0.3C10.4,9.4,10.3,9.2,10.1,9.2z M10.1,11l-3.8-0.8L2.5,9.5C2.3,9.4,2.1,9.5,2,9.7
	C2,9.9,2.1,10.1,2.3,10.2L6.2,11l3.8,0.8c0,0,0.1,0,0.1,0c0.2,0,0.3-0.1,0.4-0.3C10.4,11.2,10.3,11,10.1,11z M10.1,12.8L6.3,12
	l-3.8-0.8c-0.2-0.1-0.4,0.1-0.4,0.3s0.1,0.4,0.3,0.4l3.8,0.8l3.8,0.8c0,0,0.1,0,0.1,0c0.2,0,0.3-0.1,0.4-0.3
	C10.4,13,10.3,12.8,10.1,12.8z M10.1,14.6l-3.8-0.8L2.5,13C2.3,13,2.1,13.1,2,13.3c-0.1,0.2,0.1,0.4,0.3,0.4l3.8,0.8l3.8,0.8
	c0,0,0.1,0,0.1,0c0.2,0,0.3-0.1,0.4-0.3C10.4,14.8,10.3,14.6,10.1,14.6z M10.1,16.4l-3.8-0.8l-3.8-0.8c-0.2-0.1-0.4,0.1-0.4,0.3
	c-0.1,0.2,0.1,0.4,0.3,0.4l3.8,0.8l3.8,0.8c0,0,0.1,0,0.1,0c0.2,0,0.3-0.1,0.4-0.3C10.4,16.6,10.3,16.4,10.1,16.4z M10.1,18.2
	l-3.8-0.8l-3.8-0.8c-0.2-0.1-0.4,0.1-0.4,0.3s0.1,0.4,0.3,0.4l3.8,0.8l3.8,0.8c0,0,0.1,0,0.1,0c0.2,0,0.3-0.1,0.4-0.3
	C10.4,18.4,10.3,18.2,10.1,18.2z M23.9,3.1C23.8,3,23.7,3,23.6,3L12,5.4L0.5,3C0.4,3,0.2,3,0.2,3.1S0,3.2,0,3.3l0,15.7
	c0,0.2,0.1,0.3,0.3,0.4l11.6,2.4c0,0,0.1,0,0.1,0c0,0,0.1,0,0.1,0l11.6-2.4c0.2,0,0.3-0.2,0.3-0.4l0-15.7C24,3.3,24,3.1,23.9,3.1z
	 M0.8,3.8L11.7,6l0,15L0.7,18.8L0.8,3.8z M23.3,18.8L12.4,21l0-15l10.9-2.2L23.3,18.8z M14,8.1C14,8.1,14.1,8.1,14,8.1l3.9-0.7
	l3.8-0.8C22,6.6,22.1,6.4,22,6.2C22,6,21.8,5.9,21.6,5.9l-3.8,0.8L14,7.4c-0.2,0-0.3,0.2-0.3,0.4C13.7,8,13.8,8.1,14,8.1z M14,9.9
	C14,9.9,14.1,9.9,14,9.9l3.9-0.7l3.8-0.8C22,8.4,22.1,8.2,22,8c-0.1-0.2-0.2-0.3-0.4-0.3l-3.8,0.8L14,9.2c-0.2,0-0.3,0.2-0.3,0.4
	C13.7,9.8,13.8,9.9,14,9.9z M14,11.7C14,11.7,14.1,11.7,14,11.7l3.9-0.7l3.8-0.8C22,10.2,22.1,10,22,9.8c-0.1-0.2-0.2-0.3-0.4-0.3
	l-3.8,0.8L14,11c-0.2,0-0.3,0.2-0.3,0.4C13.7,11.6,13.8,11.7,14,11.7z M14,13.5C14,13.5,14.1,13.5,14,13.5l3.9-0.7l3.8-0.8
	c0.2-0.1,0.3-0.2,0.3-0.4c-0.1-0.2-0.2-0.3-0.4-0.3l-3.8,0.8L14,12.8c-0.2,0-0.3,0.2-0.3,0.4C13.7,13.4,13.8,13.5,14,13.5z M14,15.3
	C14,15.3,14.1,15.3,14,15.3l3.9-0.7l3.8-0.8c0.2-0.1,0.3-0.2,0.3-0.4c-0.1-0.2-0.2-0.3-0.4-0.3l-3.8,0.8L14,14.6
	c-0.2,0-0.3,0.2-0.3,0.4C13.7,15.2,13.8,15.3,14,15.3z M14,17.1C14,17.1,14.1,17.1,14,17.1l3.9-0.7l3.8-0.8c0.2-0.1,0.3-0.2,0.3-0.4
	c-0.1-0.2-0.2-0.3-0.4-0.3l-3.8,0.8L14,16.4c-0.2,0-0.3,0.2-0.3,0.4C13.7,17,13.8,17.1,14,17.1z M14,18.9C14,18.9,14,18.9,14,18.9
	l3.9-0.7l3.8-0.8c0.2-0.1,0.3-0.2,0.3-0.4c-0.1-0.2-0.2-0.3-0.4-0.3l-3.8,0.8l-3.8,0.7c-0.2,0-0.3,0.2-0.3,0.4
	C13.7,18.7,13.8,18.9,14,18.9z"/>
</svg>
