<?xml version="1.0" encoding="utf-8"?>
<!-- Generator: Adobe Illustrator 21.1.0, SVG Export Plug-In . SVG Version: 6.00 Build 0)  -->
<svg version="1.1" id="Layer_1" xmlns="http://www.w3.org/2000/svg" xmlns:xlink="http://www.w3.org/1999/xlink" x="0px" y="0px"
	 viewBox="0 0 14 14" style="enable-background:new 0 0 14 14;" xml:space="preserve">
<path d="M12.8,0.4c0-0.3-0.2-0.4-0.4-0.4H2.6c-0.8,0-1.3,0.6-1.3,1.3v10.5l0,0c0,0.1,0,0.2,0,0.3c0,1.1,0.9,1.9,1.9,1.9h9.2
	c0.3,0,0.4-0.2,0.4-0.4v-2.9c0-0.1,0-0.1,0-0.1l0,0V0.4L12.8,0.4z M9.2,0.9h1.3V4l-0.3-0.4C10.2,3.5,10,3.4,9.8,3.4S9.6,3.5,9.4,3.6
	L9.1,3.9L9.2,0.9L9.2,0.9z M2.6,0.9h5.7v4.3c0,0.2,0.1,0.4,0.3,0.4c0.2,0.1,0.4,0,0.5-0.1l0.8-0.9l0.8,0.9c0.1,0.1,0.2,0.2,0.3,0.2
	c0.1,0,0.1,0,0.2,0c0.2-0.1,0.3-0.3,0.3-0.5V0.9h0.4v9.2H3.2c-0.4,0-0.7,0.1-1,0.3V1.3C2.2,1.1,2.4,0.9,2.6,0.9z M3.2,13.1
	c-0.6,0-1-0.4-1-1s0.4-1,1-1h8.7v0.5H3.9c-0.3,0-0.4,0.2-0.4,0.4c0,0.3,0.2,0.4,0.4,0.4h8v0.5H3.2V13.1z"/>
</svg>
