<?xml version="1.0" encoding="utf-8"?>
<!-- Generator: Adobe Illustrator 21.1.0, SVG Export Plug-In . SVG Version: 6.00 Build 0)  -->
<svg version="1.1" id="Layer_1" xmlns="http://www.w3.org/2000/svg" xmlns:xlink="http://www.w3.org/1999/xlink" x="0px" y="0px"
	 viewBox="0 0 24 24" style="enable-background:new 0 0 24 24;" xml:space="preserve">
<path d="M20.9,0H4C3.6,0,3.3,0.3,3.3,0.7v0.8H3.1c-0.4,0-0.7,0.3-0.7,0.7s0.3,0.7,0.7,0.7h0.2v0.4H3.1c-0.4,0-0.7,0.3-0.7,0.7
	c0,0.7,0.5,0.8,0.7,0.8h0.2V5H3.1C2.7,5,2.4,5.3,2.4,5.7c0,0.4,0.3,0.7,0.7,0.7h0.2v0.4H3.1C2.7,6.8,2.4,7,2.4,7.4
	c0,0.4,0.3,0.7,0.7,0.7h0.2v0.4H3.1c-0.4,0-0.7,0.3-0.7,0.7c0,0.4,0.3,0.7,0.7,0.7h0.2v0.4H3.1c-0.4,0-0.7,0.3-0.7,0.7
	c0,0.4,0.3,0.7,0.7,0.7h0.2V12H3.1c-0.4,0-0.7,0.3-0.7,0.7c0,0.4,0.3,0.7,0.7,0.7h0.2v0.4H3.1c-0.4,0-0.7,0.3-0.7,0.7
	c0,0.4,0.3,0.7,0.7,0.7h0.2v0.4H3.1c-0.4,0-0.7,0.3-0.7,0.7c0,0.4,0.3,0.7,0.7,0.7h0.2v0.4H3.1c-0.4,0-0.7,0.3-0.7,0.7
	c0,0.4,0.3,0.7,0.7,0.7h0.2V19H3.1c-0.4,0-0.7,0.3-0.7,0.7c0,0.4,0.3,0.7,0.7,0.7h0.2v0.4H3.1c-0.4,0-0.7,0.3-0.7,0.7
	s0.3,0.7,0.7,0.7h0.2v1C3.3,23.9,3.8,24,4,24h17c0.4,0,0.7-0.3,0.7-0.7V0.7C21.6,0.3,21.3,0,20.9,0z M5.5,21.6
	c0-0.4-0.3-0.7-0.7-0.7H4.6v-0.4h0.2c0.4,0,0.7-0.3,0.7-0.7c0-0.4-0.3-0.7-0.7-0.7H4.6v-0.4h0.2c0.4,0,0.7-0.3,0.7-0.7
	c0-0.4-0.3-0.7-0.7-0.7H4.6V17h0.2c0.4,0,0.7-0.3,0.7-0.7c0-0.4-0.3-0.7-0.7-0.7H4.6v-0.4h0.2c0.4,0,0.7-0.3,0.7-0.7S5.2,14,4.8,14
	H4.6v-0.4h0.2c0.4,0,0.7-0.3,0.7-0.7c0-0.4-0.3-0.7-0.7-0.7H4.6v-0.4h0.2c0.4,0,0.7-0.3,0.7-0.7c0-0.4-0.3-0.7-0.7-0.7H4.6V9.9h0.2
	c0.4,0,0.7-0.3,0.7-0.7S5.2,8.6,4.8,8.6H4.6V8.2h0.2c0.4,0,0.7-0.3,0.7-0.7c0-0.4-0.3-0.8-0.7-0.8H4.6V6.4h0.2
	c0.4,0,0.7-0.3,0.7-0.7C5.5,5.4,5.2,5,4.8,5H4.6V4.6h0.2c0.4,0,0.7-0.3,0.7-0.7S5.2,3.3,4.8,3.3H4.6V2.9h0.2c0.4,0,0.7-0.3,0.7-0.7
	c0-0.4-0.3-0.8-0.7-0.8H4.6V1.3h15.7v21.3H4.6v-0.3h0.2C5.2,22.3,5.5,22,5.5,21.6z"/>
</svg>
