<?xml version="1.0" encoding="utf-8"?>
<!-- Generator: Adobe Illustrator 21.1.0, SVG Export Plug-In . SVG Version: 6.00 Build 0)  -->
<svg version="1.1" id="Layer_1" xmlns="http://www.w3.org/2000/svg" xmlns:xlink="http://www.w3.org/1999/xlink" x="0px" y="0px"
	 viewBox="0 0 24 24" style="enable-background:new 0 0 24 24;" xml:space="preserve">
<path d="M21.1,24H4.4c-1.3,0-2.4-1.1-2.4-2.4c0,0,0-0.1,0-0.1l0,0V1.6C1.9,0.7,2.6,0,3.5,0h12.6v4.1l1-1.1l1,1.1V0h4v23
	C22.1,23.6,21.6,24,21.1,24z M4.3,19.9c-0.9,0-1.6,0.8-1.6,1.7c0,0.9,0.8,1.6,1.7,1.6h16.7c0.1,0,0.2-0.1,0.2-0.2V0.8h-0.4v22H4.4
	c-0.7,0-1.2-0.6-1.2-1.3c0-0.7,0.5-1.2,1.2-1.2h15.2v-0.5H4.3z M4.4,21.1c-0.3,0-0.5,0.2-0.5,0.4c0,0.3,0.2,0.5,0.5,0.5h15.8v-1H4.4
	z M3.5,0.8c-0.4,0-0.8,0.4-0.8,0.8v17.7c0.5-0.4,1-0.6,1.6-0.6h15.2v-18h-0.8v5.3l-1.7-2l-1.7,2V0.8H3.5z"/>
</svg>
