<?xml version="1.0" encoding="utf-8"?>
<!-- Generator: Adobe Illustrator 21.1.0, SVG Export Plug-In . SVG Version: 6.00 Build 0)  -->
<svg version="1.1" id="Layer_1" xmlns="http://www.w3.org/2000/svg" xmlns:xlink="http://www.w3.org/1999/xlink" x="0px" y="0px"
	 viewBox="0 0 24 24" style="enable-background:new 0 0 24 24;" xml:space="preserve">
<style type="text/css">
	.st0{stroke:#000000;stroke-width:0.25;stroke-miterlimit:10;}
</style>
<path class="st0" d="M3.7,24h17.5c0.2,0,0.3-0.1,0.3-0.3V0.3c0-0.2-0.1-0.3-0.3-0.3H3.7C3.5,0,3.4,0.1,3.4,0.3v1.2H2.8
	c-0.2,0-0.3,0.1-0.3,0.3s0.1,0.3,0.3,0.3h0.6v1.2H2.8c-0.2,0-0.3,0.1-0.3,0.3C2.5,3.9,2.6,4,2.8,4h0.6v1.2H2.8
	c-0.2,0-0.3,0.1-0.3,0.3c0,0.2,0.1,0.3,0.3,0.3h0.6V7H2.8C2.6,7,2.5,7.1,2.5,7.3c0,0.2,0.1,0.3,0.3,0.3h0.6v1.2H2.8
	c-0.2,0-0.3,0.1-0.3,0.3s0.1,0.3,0.3,0.3h0.6v1.2H2.8c-0.2,0-0.3,0.1-0.3,0.3c0,0.2,0.1,0.3,0.3,0.3h0.6v1.2H2.8
	c-0.2,0-0.3,0.1-0.3,0.3c0,0.2,0.1,0.3,0.3,0.3h0.6v1.2H2.8c-0.2,0-0.3,0.1-0.3,0.3c0,0.2,0.1,0.3,0.3,0.3h0.6v1.2H2.8
	c-0.2,0-0.3,0.1-0.3,0.3s0.1,0.3,0.3,0.3h0.6v1.2H2.8c-0.2,0-0.3,0.1-0.3,0.3s0.1,0.3,0.3,0.3h0.6v1.2H2.8c-0.2,0-0.3,0.1-0.3,0.3
	s0.1,0.3,0.3,0.3h0.6v1.2H2.8c-0.2,0-0.3,0.1-0.3,0.3c0,0.2,0.1,0.3,0.3,0.3h0.6v1.4C3.4,23.8,3.5,24,3.7,24z M4,20.4h0.6
	c0.2,0,0.3-0.1,0.3-0.3c0-0.2-0.1-0.3-0.3-0.3H4v-1.2h0.6c0.2,0,0.3-0.1,0.3-0.3s-0.1-0.3-0.3-0.3H4v-1.2h0.6c0.2,0,0.3-0.1,0.3-0.3
	s-0.1-0.3-0.3-0.3H4V15h0.6c0.2,0,0.3-0.1,0.3-0.3c0-0.2-0.1-0.3-0.3-0.3H4v-1.2h0.6c0.2,0,0.3-0.1,0.3-0.3c0-0.2-0.1-0.3-0.3-0.3H4
	v-1.2h0.6c0.2,0,0.3-0.1,0.3-0.3s-0.1-0.3-0.3-0.3H4V9.5h0.6c0.2,0,0.3-0.1,0.3-0.3S4.8,8.9,4.6,8.9H4V7.7h0.6
	c0.2,0,0.3-0.1,0.3-0.3C4.9,7.2,4.8,7,4.6,7H4V5.9h0.6c0.2,0,0.3-0.1,0.3-0.3S4.8,5.2,4.6,5.2H4V4h0.6c0.2,0,0.3-0.1,0.3-0.3
	c0-0.2-0.1-0.3-0.3-0.3H4V2.2h0.6c0.2,0,0.3-0.1,0.3-0.3S4.8,1.5,4.6,1.5H4V0.6h16.9v22.7H4v-1.1h0.6c0.2,0,0.3-0.1,0.3-0.3
	s-0.1-0.3-0.3-0.3H4C4,21.6,4,20.4,4,20.4z"/>
</svg>
