<?xml version="1.0" encoding="utf-8"?>
<!-- Generator: Adobe Illustrator 21.1.0, SVG Export Plug-In . SVG Version: 6.00 Build 0)  -->
<svg version="1.1" id="Layer_1" xmlns="http://www.w3.org/2000/svg" xmlns:xlink="http://www.w3.org/1999/xlink" x="0px" y="0px"
	 viewBox="0 0 24 24" style="enable-background:new 0 0 24 24;" xml:space="preserve">
<path d="M17.6,0v3.4l-0.6-0.7l-0.6,0.7V0H3.8c-0.5,0-1,0.2-1.4,0.6C2,1,1.9,1.5,1.9,1.9v19.4c0,1.5,1.2,2.7,2.7,2.7h16.2
	c0.6,0,1.3-0.5,1.3-1.3V0H17.6z M18.9,18.1H4.5c-0.4,0-0.8,0.1-1.2,0.3V1.9c0-0.2,0.2-0.4,0.4-0.4h11.1v5.7l2-2.4l2,2.4V1.4h0V18.1z
	 M19.6,21.3h-15c-0.1,0-0.1,0-0.1-0.1c0,0,0,0,0.1,0H5v-0.1h14.6V21.3z"/>
</svg>
