<?xml version="1.0" encoding="utf-8"?>
<!-- Generator: Adobe Illustrator 21.1.0, SVG Export Plug-In . SVG Version: 6.00 Build 0)  -->
<svg version="1.1" id="Layer_1" xmlns="http://www.w3.org/2000/svg" xmlns:xlink="http://www.w3.org/1999/xlink" x="0px" y="0px"
	 viewBox="0 0 24 24" style="enable-background:new 0 0 24 24;" xml:space="preserve">
<path d="M24,22.7H0V22h24V22.7z M2.9,21.1l-0.4,0.7l0.8-0.4L2.9,21.1 M3.7,21.3l-0.6-0.6l-0.2,0.4l0.5,0.4L3.7,21.3z M2.5,22
	c0,0-0.1,0-0.1-0.1c-0.1-0.1-0.1-0.1,0-0.2L2.7,21c0,0,0,0,0,0l0.2-0.4l0,0l1.5-3.4c0,0,0,0,0,0c0,0,0,0,0,0L18.1,2.9l0.9-1
	c0,0,0,0,0,0l1.6-1.6c0,0,0.1-0.1,0.1-0.1c1.5-0.1,2.5,0.3,2.9,1.3c0.2,0.5,0.3,1,0.1,1.5c0,0,0,0.1,0,0.1l-2.3,2.3c0,0,0,0,0,0
	L7.7,19.6c0,0,0,0,0,0c0,0,0,0,0,0l-3.8,1.8c0,0,0,0,0,0l-0.3,0.2c0,0,0,0,0,0L2.5,22C2.6,22,2.6,22,2.5,22z M3,21.4L3,21.4L3,21.4
	L3,21.4z M3.1,21l0.3,0.2l0,0L3.1,21L3.1,21z M3.3,20.6l0.4,0.4l3.4-1.6c-0.2-0.1-0.5-0.2-0.7-0.4c-0.7-0.4-1.3-0.9-1.7-1.4
	L3.3,20.6z M4.8,17.3c0.4,0.5,1,1,1.7,1.4c0.3,0.2,0.6,0.4,0.9,0.5L20.9,5.5c-0.8-0.1-1.5-0.5-2.1-1.2l-0.6-1L4.8,17.3z M18.5,3
	l0.7,1.1c0.6,0.7,1.3,1.1,2.1,1.1c0,0,0,0,0,0l0.4-0.5c-0.3,0-0.6-0.1-1-0.3c-0.9-0.4-1.4-1.1-1.7-2L18.5,3z M19.3,2.1
	c0.2,1,0.7,1.6,1.5,2c0.4,0.2,0.8,0.3,1.1,0.3L23.4,3c0.1-0.4,0.1-0.9-0.1-1.3c-0.4-0.9-1.2-1.2-2.5-1.1L19.3,2.1z"/>
</svg>
