<?xml version="1.0" encoding="utf-8"?>
<!-- Generator: Adobe Illustrator 21.1.0, SVG Export Plug-In . SVG Version: 6.00 Build 0)  -->
<svg version="1.1" id="Layer_1" xmlns="http://www.w3.org/2000/svg" xmlns:xlink="http://www.w3.org/1999/xlink" x="0px" y="0px"
	 viewBox="0 0 24 24" style="enable-background:new 0 0 24 24;" xml:space="preserve">
<path d="M9.1,22.9h2.3V24H9.1V22.9z M4.6,24h2.3v-1.1H4.6V24z M13.7,24H16v-1.1h-2.3V24z M22.9,10.3H24V8h-1.1V10.3z M22.9,24H24
	v-2.3h-1.1V24z M22.9,5.7H24V3.4h-1.1V5.7z M22.9,14.9H24v-2.3h-1.1V14.9z M22.9,19.4H24v-2.3h-1.1V19.4z M0,0v1.1h0v20.6h0V24h2.3
	v-1.1H1.1v-1.1H1V1.1h23V0H0z M18.3,24h2.3v-1.1h-2.3V24z"/>
</svg>
