<?xml version="1.0" encoding="utf-8"?>
<!-- Generator: Adobe Illustrator 21.1.0, SVG Export Plug-In . SVG Version: 6.00 Build 0)  -->
<svg version="1.1" id="Layer_1" xmlns="http://www.w3.org/2000/svg" xmlns:xlink="http://www.w3.org/1999/xlink" x="0px" y="0px"
	 viewBox="0 0 24 24" style="enable-background:new 0 0 24 24;" xml:space="preserve">
<path d="M4.2,12c0,0.4-0.3,0.7-0.7,0.7S2.8,12.4,2.8,12s0.3-0.7,0.7-0.7S4.2,11.6,4.2,12z M6.4,11.3c-0.4,0-0.7,0.3-0.7,0.7
	s0.3,0.7,0.7,0.7c0.4,0,0.7-0.3,0.7-0.7S6.7,11.3,6.4,11.3z M9.2,11.3c-0.4,0-0.7,0.3-0.7,0.7s0.3,0.7,0.7,0.7
	c0.4,0,0.7-0.3,0.7-0.7S9.6,11.3,9.2,11.3z M14.8,11.3c-0.4,0-0.7,0.3-0.7,0.7s0.3,0.7,0.7,0.7c0.4,0,0.7-0.3,0.7-0.7
	S15.2,11.3,14.8,11.3z M17.6,11.3c-0.4,0-0.7,0.3-0.7,0.7s0.3,0.7,0.7,0.7c0.4,0,0.7-0.3,0.7-0.7S18,11.3,17.6,11.3z M20.5,11.3
	c-0.4,0-0.7,0.3-0.7,0.7s0.3,0.7,0.7,0.7s0.7-0.3,0.7-0.7S20.9,11.3,20.5,11.3z M3.5,0C3.1,0,2.8,0.3,2.8,0.7s0.3,0.7,0.7,0.7
	s0.7-0.3,0.7-0.7S3.9,0,3.5,0z M6.4,0C6,0,5.6,0.3,5.6,0.7S6,1.4,6.4,1.4c0.4,0,0.7-0.3,0.7-0.7S6.7,0,6.4,0z M9.2,0
	C8.8,0,8.5,0.3,8.5,0.7s0.3,0.7,0.7,0.7c0.4,0,0.7-0.3,0.7-0.7S9.6,0,9.2,0z M12,0c-0.4,0-0.7,0.3-0.7,0.7s0.3,0.7,0.7,0.7
	s0.7-0.3,0.7-0.7S12.4,0,12,0z M14.8,0c-0.4,0-0.7,0.3-0.7,0.7s0.3,0.7,0.7,0.7c0.4,0,0.7-0.3,0.7-0.7S15.2,0,14.8,0z M17.6,0
	c-0.4,0-0.7,0.3-0.7,0.7s0.3,0.7,0.7,0.7c0.4,0,0.7-0.3,0.7-0.7S18,0,17.6,0z M20.5,0c-0.4,0-0.7,0.3-0.7,0.7s0.3,0.7,0.7,0.7
	s0.7-0.3,0.7-0.7S20.9,0,20.5,0z M23.3,1.4c0.4,0,0.7-0.3,0.7-0.7S23.7,0,23.3,0s-0.7,0.3-0.7,0.7S22.9,1.4,23.3,1.4z M23.3,2.8
	c-0.4,0-0.7,0.3-0.7,0.7s0.3,0.7,0.7,0.7S24,3.9,24,3.5S23.7,2.8,23.3,2.8z M23.3,5.6c-0.4,0-0.7,0.3-0.7,0.7c0,0.4,0.3,0.7,0.7,0.7
	S24,6.7,24,6.4C24,6,23.7,5.6,23.3,5.6z M23.3,8.5c-0.4,0-0.7,0.3-0.7,0.7c0,0.4,0.3,0.7,0.7,0.7S24,9.6,24,9.2
	C24,8.8,23.7,8.5,23.3,8.5z M23.3,11.3c-0.4,0-0.7,0.3-0.7,0.7s0.3,0.7,0.7,0.7S24,12.4,24,12S23.7,11.3,23.3,11.3z M23.3,14.1
	c-0.4,0-0.7,0.3-0.7,0.7c0,0.4,0.3,0.7,0.7,0.7s0.7-0.3,0.7-0.7C24,14.4,23.7,14.1,23.3,14.1z M23.3,16.9c-0.4,0-0.7,0.3-0.7,0.7
	c0,0.4,0.3,0.7,0.7,0.7S24,18,24,17.6C24,17.3,23.7,16.9,23.3,16.9z M23.3,19.8c-0.4,0-0.7,0.3-0.7,0.7s0.3,0.7,0.7,0.7
	s0.7-0.3,0.7-0.7S23.7,19.8,23.3,19.8z M23.3,22.6c-0.4,0-0.7,0.3-0.7,0.7s0.3,0.7,0.7,0.7s0.7-0.3,0.7-0.7S23.7,22.6,23.3,22.6z
	 M20.5,22.6c-0.4,0-0.7,0.3-0.7,0.7s0.3,0.7,0.7,0.7s0.7-0.3,0.7-0.7S20.9,22.6,20.5,22.6z M17.6,22.6c-0.4,0-0.7,0.3-0.7,0.7
	s0.3,0.7,0.7,0.7c0.4,0,0.7-0.3,0.7-0.7S18,22.6,17.6,22.6z M14.8,22.6c-0.4,0-0.7,0.3-0.7,0.7s0.3,0.7,0.7,0.7
	c0.4,0,0.7-0.3,0.7-0.7S15.2,22.6,14.8,22.6z M12,22.6c-0.4,0-0.7,0.3-0.7,0.7S11.6,24,12,24s0.7-0.3,0.7-0.7S12.4,22.6,12,22.6z
	 M12,19.8c-0.4,0-0.7,0.3-0.7,0.7s0.3,0.7,0.7,0.7s0.7-0.3,0.7-0.7S12.4,19.8,12,19.8z M12,16.9c-0.4,0-0.7,0.3-0.7,0.7
	c0,0.4,0.3,0.7,0.7,0.7s0.7-0.3,0.7-0.7C12.7,17.3,12.4,16.9,12,16.9z M12,14.1c-0.4,0-0.7,0.3-0.7,0.7c0,0.4,0.3,0.7,0.7,0.7
	s0.7-0.3,0.7-0.7C12.7,14.4,12.4,14.1,12,14.1z M12,11.3c-0.4,0-0.7,0.3-0.7,0.7s0.3,0.7,0.7,0.7s0.7-0.3,0.7-0.7S12.4,11.3,12,11.3
	z M12,8.5c-0.4,0-0.7,0.3-0.7,0.7c0,0.4,0.3,0.7,0.7,0.7s0.7-0.3,0.7-0.7C12.7,8.8,12.4,8.5,12,8.5z M12,5.6c-0.4,0-0.7,0.3-0.7,0.7
	c0,0.4,0.3,0.7,0.7,0.7s0.7-0.3,0.7-0.7C12.7,6,12.4,5.6,12,5.6z M12,2.8c-0.4,0-0.7,0.3-0.7,0.7s0.3,0.7,0.7,0.7s0.7-0.3,0.7-0.7
	S12.4,2.8,12,2.8z M9.2,22.6c-0.4,0-0.7,0.3-0.7,0.7S8.8,24,9.2,24c0.4,0,0.7-0.3,0.7-0.7S9.6,22.6,9.2,22.6z M6.4,22.6
	c-0.4,0-0.7,0.3-0.7,0.7S6,24,6.4,24c0.4,0,0.7-0.3,0.7-0.7S6.7,22.6,6.4,22.6z M3.5,22.6c-0.4,0-0.7,0.3-0.7,0.7S3.1,24,3.5,24
	s0.7-0.3,0.7-0.7S3.9,22.6,3.5,22.6z M0.7,0C0.3,0,0,0.3,0,0.7v22.6C0,23.7,0.3,24,0.7,24c0.4,0,0.7-0.3,0.7-0.7V0.7
	C1.4,0.3,1.1,0,0.7,0z"/>
</svg>
