<?xml version="1.0" encoding="utf-8"?>
<!-- Generator: Adobe Illustrator 21.1.0, SVG Export Plug-In . SVG Version: 6.00 Build 0)  -->
<svg version="1.1" id="Layer_1" xmlns="http://www.w3.org/2000/svg" xmlns:xlink="http://www.w3.org/1999/xlink" x="0px" y="0px"
	 viewBox="0 0 24 24" style="enable-background:new 0 0 24 24;" xml:space="preserve">
<path d="M5.5,12c0,0.5-0.4,0.9-0.9,0.9S3.7,12.5,3.7,12s0.4-0.9,0.9-0.9S5.5,11.5,5.5,12z M8.3,11.1c-0.5,0-0.9,0.4-0.9,0.9
	s0.4,0.9,0.9,0.9s0.9-0.4,0.9-0.9S8.8,11.1,8.3,11.1z M15.7,11.1c-0.5,0-0.9,0.4-0.9,0.9s0.4,0.9,0.9,0.9c0.5,0,0.9-0.4,0.9-0.9
	S16.2,11.1,15.7,11.1z M19.4,11.1c-0.5,0-0.9,0.4-0.9,0.9s0.4,0.9,0.9,0.9s0.9-0.4,0.9-0.9S19.9,11.1,19.4,11.1z M12,3.7
	c-0.5,0-0.9,0.4-0.9,0.9s0.4,0.9,0.9,0.9s0.9-0.4,0.9-0.9S12.5,3.7,12,3.7z M12,7.4c-0.5,0-0.9,0.4-0.9,0.9s0.4,0.9,0.9,0.9
	s0.9-0.4,0.9-0.9S12.5,7.4,12,7.4z M12,11.1c-0.5,0-0.9,0.4-0.9,0.9s0.4,0.9,0.9,0.9s0.9-0.4,0.9-0.9S12.5,11.1,12,11.1z M12,14.8
	c-0.5,0-0.9,0.4-0.9,0.9c0,0.5,0.4,0.9,0.9,0.9s0.9-0.4,0.9-0.9C12.9,15.2,12.5,14.8,12,14.8z M12,18.5c-0.5,0-0.9,0.4-0.9,0.9
	s0.4,0.9,0.9,0.9s0.9-0.4,0.9-0.9S12.5,18.5,12,18.5z M12,0c-0.5,0-0.9,0.4-0.9,0.9s0.4,0.9,0.9,0.9s0.9-0.4,0.9-0.9S12.5,0,12,0z
	 M23.1,11.1c-0.5,0-0.9,0.4-0.9,0.9s0.4,0.9,0.9,0.9S24,12.5,24,12S23.6,11.1,23.1,11.1z M0.9,11.1C0.4,11.1,0,11.5,0,12
	s0.4,0.9,0.9,0.9s0.9-0.4,0.9-0.9S1.4,11.1,0.9,11.1z M4.6,22.2c-0.5,0-0.9,0.4-0.9,0.9S4.1,24,4.6,24s0.9-0.4,0.9-0.9
	S5.1,22.2,4.6,22.2z M8.3,22.2c-0.5,0-0.9,0.4-0.9,0.9S7.8,24,8.3,24s0.9-0.4,0.9-0.9S8.8,22.2,8.3,22.2z M15.7,22.2
	c-0.5,0-0.9,0.4-0.9,0.9s0.4,0.9,0.9,0.9c0.5,0,0.9-0.4,0.9-0.9S16.2,22.2,15.7,22.2z M19.4,22.2c-0.5,0-0.9,0.4-0.9,0.9
	s0.4,0.9,0.9,0.9s0.9-0.4,0.9-0.9S19.9,22.2,19.4,22.2z M12,22.2c-0.5,0-0.9,0.4-0.9,0.9S11.5,24,12,24s0.9-0.4,0.9-0.9
	S12.5,22.2,12,22.2z M23.1,22.2c-0.5,0-0.9,0.4-0.9,0.9s0.4,0.9,0.9,0.9s0.9-0.4,0.9-0.9S23.6,22.2,23.1,22.2z M0.9,22.2
	c-0.5,0-0.9,0.4-0.9,0.9S0.4,24,0.9,24s0.9-0.4,0.9-0.9S1.4,22.2,0.9,22.2z M0.9,14.8c-0.5,0-0.9,0.4-0.9,0.9c0,0.5,0.4,0.9,0.9,0.9
	s0.9-0.4,0.9-0.9C1.8,15.2,1.4,14.8,0.9,14.8z M0.9,18.5c-0.5,0-0.9,0.4-0.9,0.9s0.4,0.9,0.9,0.9s0.9-0.4,0.9-0.9S1.4,18.5,0.9,18.5
	z M23.1,18.5c-0.5,0-0.9,0.4-0.9,0.9s0.4,0.9,0.9,0.9s0.9-0.4,0.9-0.9S23.6,18.5,23.1,18.5z M23.1,14.8c-0.5,0-0.9,0.4-0.9,0.9
	c0,0.5,0.4,0.9,0.9,0.9s0.9-0.4,0.9-0.9C24,15.2,23.6,14.8,23.1,14.8z M23.1,7.4c-0.5,0-0.9,0.4-0.9,0.9s0.4,0.9,0.9,0.9
	S24,8.8,24,8.3S23.6,7.4,23.1,7.4z M23.1,3.7c-0.5,0-0.9,0.4-0.9,0.9s0.4,0.9,0.9,0.9S24,5.1,24,4.6S23.6,3.7,23.1,3.7z M23.1,1.8
	c0.5,0,0.9-0.4,0.9-0.9S23.6,0,23.1,0s-0.9,0.4-0.9,0.9S22.6,1.8,23.1,1.8z M19.4,0c-0.5,0-0.9,0.4-0.9,0.9s0.4,0.9,0.9,0.9
	s0.9-0.4,0.9-0.9S19.9,0,19.4,0z M15.7,0c-0.5,0-0.9,0.4-0.9,0.9s0.4,0.9,0.9,0.9c0.5,0,0.9-0.4,0.9-0.9S16.2,0,15.7,0z M8.3,0
	C7.8,0,7.4,0.4,7.4,0.9s0.4,0.9,0.9,0.9s0.9-0.4,0.9-0.9S8.8,0,8.3,0z M4.6,0C4.1,0,3.7,0.4,3.7,0.9s0.4,0.9,0.9,0.9
	s0.9-0.4,0.9-0.9S5.1,0,4.6,0z M0.9,0C0.4,0,0,0.4,0,0.9s0.4,0.9,0.9,0.9s0.9-0.4,0.9-0.9S1.4,0,0.9,0z M0.9,3.7
	C0.4,3.7,0,4.1,0,4.6s0.4,0.9,0.9,0.9s0.9-0.4,0.9-0.9S1.4,3.7,0.9,3.7z M0.9,7.4C0.4,7.4,0,7.8,0,8.3s0.4,0.9,0.9,0.9
	s0.9-0.4,0.9-0.9S1.4,7.4,0.9,7.4z"/>
</svg>
