<?xml version="1.0" encoding="utf-8"?>
<!-- Generator: Adobe Illustrator 21.1.0, SVG Export Plug-In . SVG Version: 6.00 Build 0)  -->
<svg version="1.1" id="Layer_1" xmlns="http://www.w3.org/2000/svg" xmlns:xlink="http://www.w3.org/1999/xlink" x="0px" y="0px"
	 viewBox="0 0 24 24" style="enable-background:new 0 0 24 24;" xml:space="preserve">
<path d="M4.5,21.3L8,19.7L21.4,5.8l2.3-2.3V3.3c0.2-0.6,0-1.2-0.1-1.7c-0.4-1.1-1.5-1.6-3.2-1.5l-0.1,0l-1.8,1.8L4.4,16.8l-2,4.4
	c0,0-0.1,0.1-0.1,0.1H0v1.4h24v-1.4H4.5z M22.6,2.2c0.1,0.2,0.2,0.6,0.1,0.9l-1.3,1.2c-0.2,0-0.5-0.1-0.8-0.2
	c-0.7-0.3-1-0.8-1.2-1.5l1.2-1.2C21.8,1.2,22.3,1.5,22.6,2.2z M19.9,5.9L7.5,18.5c-0.2-0.1-0.4-0.2-0.6-0.4c-0.5-0.3-1-0.7-1.3-1
	l12.4-13l0.4,0.6C18.8,5.3,19.3,5.7,19.9,5.9z M6.4,19.1C6.4,19.1,6.4,19.1,6.4,19.1L4,20.3l0,0l1-2.2C5.4,18.4,5.8,18.8,6.4,19.1z"
	/>
</svg>
