<?xml version="1.0" encoding="utf-8"?>
<!-- Generator: Adobe Illustrator 21.1.0, SVG Export Plug-In . SVG Version: 6.00 Build 0)  -->
<svg version="1.1" id="Layer_1" xmlns="http://www.w3.org/2000/svg" xmlns:xlink="http://www.w3.org/1999/xlink" x="0px" y="0px"
	 viewBox="0 0 24 24" style="enable-background:new 0 0 24 24;" xml:space="preserve">
<path d="M12.9,0.9v22.2c0,0.5-0.4,0.9-0.9,0.9s-0.9-0.4-0.9-0.9V0.9C11.1,0.4,11.5,0,12,0S12.9,0.4,12.9,0.9z M23.1,7.4
	c-0.5,0-0.9,0.4-0.9,0.9s0.4,0.9,0.9,0.9S24,8.8,24,8.3S23.6,7.4,23.1,7.4z M23.1,3.7c-0.5,0-0.9,0.4-0.9,0.9s0.4,0.9,0.9,0.9
	S24,5.1,24,4.6S23.6,3.7,23.1,3.7z M23.1,1.8c0.5,0,0.9-0.4,0.9-0.9S23.6,0,23.1,0s-0.9,0.4-0.9,0.9S22.6,1.8,23.1,1.8z M19.4,0
	c-0.5,0-0.9,0.4-0.9,0.9s0.4,0.9,0.9,0.9s0.9-0.4,0.9-0.9S19.9,0,19.4,0z M15.7,0c-0.5,0-0.9,0.4-0.9,0.9s0.4,0.9,0.9,0.9
	c0.5,0,0.9-0.4,0.9-0.9S16.2,0,15.7,0z M8.3,0C7.8,0,7.4,0.4,7.4,0.9s0.4,0.9,0.9,0.9s0.9-0.4,0.9-0.9S8.8,0,8.3,0z M4.6,0
	C4.1,0,3.7,0.4,3.7,0.9s0.4,0.9,0.9,0.9s0.9-0.4,0.9-0.9S5.1,0,4.6,0z M0.9,0C0.4,0,0,0.4,0,0.9s0.4,0.9,0.9,0.9s0.9-0.4,0.9-0.9
	S1.4,0,0.9,0z M0.9,3.7C0.4,3.7,0,4.1,0,4.6s0.4,0.9,0.9,0.9s0.9-0.4,0.9-0.9S1.4,3.7,0.9,3.7z M0.9,7.4C0.4,7.4,0,7.8,0,8.3
	s0.4,0.9,0.9,0.9s0.9-0.4,0.9-0.9S1.4,7.4,0.9,7.4z M0.9,14.8c-0.5,0-0.9,0.4-0.9,0.9c0,0.5,0.4,0.9,0.9,0.9s0.9-0.4,0.9-0.9
	C1.8,15.2,1.4,14.8,0.9,14.8z M0.9,18.5c-0.5,0-0.9,0.4-0.9,0.9s0.4,0.9,0.9,0.9s0.9-0.4,0.9-0.9S1.4,18.5,0.9,18.5z M0.9,22.2
	c-0.5,0-0.9,0.4-0.9,0.9S0.4,24,0.9,24s0.9-0.4,0.9-0.9S1.4,22.2,0.9,22.2z M4.6,22.2c-0.5,0-0.9,0.4-0.9,0.9S4.1,24,4.6,24
	s0.9-0.4,0.9-0.9S5.1,22.2,4.6,22.2z M8.3,22.2c-0.5,0-0.9,0.4-0.9,0.9S7.8,24,8.3,24s0.9-0.4,0.9-0.9S8.8,22.2,8.3,22.2z
	 M15.7,22.2c-0.5,0-0.9,0.4-0.9,0.9s0.4,0.9,0.9,0.9c0.5,0,0.9-0.4,0.9-0.9S16.2,22.2,15.7,22.2z M19.4,22.2c-0.5,0-0.9,0.4-0.9,0.9
	s0.4,0.9,0.9,0.9s0.9-0.4,0.9-0.9S19.9,22.2,19.4,22.2z M23.1,22.2c-0.5,0-0.9,0.4-0.9,0.9s0.4,0.9,0.9,0.9s0.9-0.4,0.9-0.9
	S23.6,22.2,23.1,22.2z M23.1,18.5c-0.5,0-0.9,0.4-0.9,0.9s0.4,0.9,0.9,0.9s0.9-0.4,0.9-0.9S23.6,18.5,23.1,18.5z M23.1,14.8
	c-0.5,0-0.9,0.4-0.9,0.9c0,0.5,0.4,0.9,0.9,0.9s0.9-0.4,0.9-0.9C24,15.2,23.6,14.8,23.1,14.8z M0.9,11.1C0.4,11.1,0,11.5,0,12
	s0.4,0.9,0.9,0.9s0.9-0.4,0.9-0.9S1.4,11.1,0.9,11.1z M23.1,11.1c-0.5,0-0.9,0.4-0.9,0.9s0.4,0.9,0.9,0.9S24,12.5,24,12
	S23.6,11.1,23.1,11.1z M19.4,11.1c-0.5,0-0.9,0.4-0.9,0.9s0.4,0.9,0.9,0.9s0.9-0.4,0.9-0.9S19.9,11.1,19.4,11.1z M15.7,11.1
	c-0.5,0-0.9,0.4-0.9,0.9s0.4,0.9,0.9,0.9c0.5,0,0.9-0.4,0.9-0.9S16.2,11.1,15.7,11.1z M8.3,11.1c-0.5,0-0.9,0.4-0.9,0.9
	s0.4,0.9,0.9,0.9s0.9-0.4,0.9-0.9S8.8,11.1,8.3,11.1z M4.6,11.1c-0.5,0-0.9,0.4-0.9,0.9s0.4,0.9,0.9,0.9s0.9-0.4,0.9-0.9
	S5.1,11.1,4.6,11.1z"/>
</svg>
