<?xml version="1.0" encoding="utf-8"?>
<!-- Generator: Adobe Illustrator 21.1.0, SVG Export Plug-In . SVG Version: 6.00 Build 0)  -->
<svg version="1.1" id="Layer_1" xmlns="http://www.w3.org/2000/svg" xmlns:xlink="http://www.w3.org/1999/xlink" x="0px" y="0px"
	 viewBox="0 0 24 24" style="enable-background:new 0 0 24 24;" xml:space="preserve">
<path d="M11.3,3.5c0-0.4,0.3-0.7,0.7-0.7s0.7,0.3,0.7,0.7S12.4,4.2,12,4.2S11.3,3.9,11.3,3.5z M12,7.1c0.4,0,0.7-0.3,0.7-0.7
	c0-0.4-0.3-0.7-0.7-0.7S11.3,6,11.3,6.4C11.3,6.7,11.6,7.1,12,7.1z M12,9.9c0.4,0,0.7-0.3,0.7-0.7S12.4,8.5,12,8.5s-0.7,0.3-0.7,0.7
	C11.3,9.6,11.6,9.9,12,9.9z M12,15.5c0.4,0,0.7-0.3,0.7-0.7s-0.3-0.7-0.7-0.7s-0.7,0.3-0.7,0.7S11.6,15.5,12,15.5z M12,18.4
	c0.4,0,0.7-0.3,0.7-0.7c0-0.4-0.3-0.7-0.7-0.7s-0.7,0.3-0.7,0.7C11.3,18,11.6,18.4,12,18.4z M12,21.2c0.4,0,0.7-0.3,0.7-0.7
	s-0.3-0.7-0.7-0.7s-0.7,0.3-0.7,0.7S11.6,21.2,12,21.2z M3.5,12.7c0.4,0,0.7-0.3,0.7-0.7s-0.3-0.7-0.7-0.7S2.8,11.6,2.8,12
	S3.1,12.7,3.5,12.7z M6.4,12.7c0.4,0,0.7-0.3,0.7-0.7s-0.3-0.7-0.7-0.7c-0.4,0-0.7,0.3-0.7,0.7S6,12.7,6.4,12.7z M9.2,12.7
	c0.4,0,0.7-0.3,0.7-0.7s-0.3-0.7-0.7-0.7S8.5,11.6,8.5,12S8.8,12.7,9.2,12.7z M12,12.7c0.4,0,0.7-0.3,0.7-0.7s-0.3-0.7-0.7-0.7
	s-0.7,0.3-0.7,0.7S11.6,12.7,12,12.7z M14.8,12.7c0.4,0,0.7-0.3,0.7-0.7s-0.3-0.7-0.7-0.7s-0.7,0.3-0.7,0.7S14.4,12.7,14.8,12.7z
	 M17.6,12.7c0.4,0,0.7-0.3,0.7-0.7s-0.3-0.7-0.7-0.7c-0.4,0-0.7,0.3-0.7,0.7S17.3,12.7,17.6,12.7z M20.5,12.7c0.4,0,0.7-0.3,0.7-0.7
	s-0.3-0.7-0.7-0.7s-0.7,0.3-0.7,0.7S20.1,12.7,20.5,12.7z M24,0.7v22.6c0,0.4-0.3,0.7-0.7,0.7H0.7C0.3,24,0,23.7,0,23.3V0.7
	C0,0.3,0.3,0,0.7,0h22.6C23.7,0,24,0.3,24,0.7z M22.6,1.4H1.4v21.2h21.2V1.4z"/>
</svg>
