<?xml version="1.0" encoding="utf-8"?>
<!-- Generator: Adobe Illustrator 21.1.0, SVG Export Plug-In . SVG Version: 6.00 Build 0)  -->
<svg version="1.1" id="Layer_1" xmlns="http://www.w3.org/2000/svg" xmlns:xlink="http://www.w3.org/1999/xlink" x="0px" y="0px"
	 viewBox="0 0 24 24" style="enable-background:new 0 0 24 24;" xml:space="preserve">
<path d="M24,12c0,0.5-0.4,0.9-0.9,0.9H12.9v10.2c0,0.5-0.4,0.9-0.9,0.9s-0.9-0.4-0.9-0.9V12.9H0.9C0.4,12.9,0,12.5,0,12
	s0.4-0.9,0.9-0.9h10.2V0.9C11.1,0.4,11.5,0,12,0s0.9,0.4,0.9,0.9v10.2h10.2C23.6,11.1,24,11.5,24,12z M8.3,1.8
	c0.5,0,0.9-0.4,0.9-0.9C9.2,0.4,8.8,0,8.3,0C7.8,0,7.4,0.4,7.4,0.9C7.4,1.4,7.8,1.8,8.3,1.8z M4.6,1.8c0.5,0,0.9-0.4,0.9-0.9
	C5.5,0.4,5.1,0,4.6,0C4.1,0,3.7,0.4,3.7,0.9C3.7,1.4,4.1,1.8,4.6,1.8z M0.9,1.8c0.5,0,0.9-0.4,0.9-0.9C1.8,0.4,1.4,0,0.9,0
	C0.4,0,0,0.4,0,0.9C0,1.4,0.4,1.8,0.9,1.8z M0.9,5.5c0.5,0,0.9-0.4,0.9-0.9c0-0.5-0.4-0.9-0.9-0.9C0.4,3.7,0,4.1,0,4.6
	C0,5.1,0.4,5.5,0.9,5.5z M0.9,9.2c0.5,0,0.9-0.4,0.9-0.9c0-0.5-0.4-0.9-0.9-0.9C0.4,7.4,0,7.8,0,8.3C0,8.8,0.4,9.2,0.9,9.2z
	 M0.9,14.8c-0.5,0-0.9,0.4-0.9,0.9c0,0.5,0.4,0.9,0.9,0.9c0.5,0,0.9-0.4,0.9-0.9C1.8,15.2,1.4,14.8,0.9,14.8z M0.9,18.5
	c-0.5,0-0.9,0.4-0.9,0.9c0,0.5,0.4,0.9,0.9,0.9c0.5,0,0.9-0.4,0.9-0.9C1.8,18.9,1.4,18.5,0.9,18.5z M0.9,22.2
	c-0.5,0-0.9,0.4-0.9,0.9C0,23.6,0.4,24,0.9,24c0.5,0,0.9-0.4,0.9-0.9C1.8,22.6,1.4,22.2,0.9,22.2z M4.6,22.2c-0.5,0-0.9,0.4-0.9,0.9
	c0,0.5,0.4,0.9,0.9,0.9c0.5,0,0.9-0.4,0.9-0.9C5.5,22.6,5.1,22.2,4.6,22.2z M8.3,22.2c-0.5,0-0.9,0.4-0.9,0.9c0,0.5,0.4,0.9,0.9,0.9
	c0.5,0,0.9-0.4,0.9-0.9C9.2,22.6,8.8,22.2,8.3,22.2z M15.7,22.2c-0.5,0-0.9,0.4-0.9,0.9c0,0.5,0.4,0.9,0.9,0.9
	c0.5,0,0.9-0.4,0.9-0.9C16.6,22.6,16.2,22.2,15.7,22.2z M19.4,22.2c-0.5,0-0.9,0.4-0.9,0.9c0,0.5,0.4,0.9,0.9,0.9
	c0.5,0,0.9-0.4,0.9-0.9C20.3,22.6,19.9,22.2,19.4,22.2z M23.1,22.2c-0.5,0-0.9,0.4-0.9,0.9c0,0.5,0.4,0.9,0.9,0.9
	c0.5,0,0.9-0.4,0.9-0.9C24,22.6,23.6,22.2,23.1,22.2z M23.1,18.5c-0.5,0-0.9,0.4-0.9,0.9c0,0.5,0.4,0.9,0.9,0.9
	c0.5,0,0.9-0.4,0.9-0.9C24,18.9,23.6,18.5,23.1,18.5z M23.1,14.8c-0.5,0-0.9,0.4-0.9,0.9c0,0.5,0.4,0.9,0.9,0.9
	c0.5,0,0.9-0.4,0.9-0.9C24,15.2,23.6,14.8,23.1,14.8z M23.1,7.4c-0.5,0-0.9,0.4-0.9,0.9c0,0.5,0.4,0.9,0.9,0.9
	c0.5,0,0.9-0.4,0.9-0.9C24,7.8,23.6,7.4,23.1,7.4z M23.1,3.7c-0.5,0-0.9,0.4-0.9,0.9c0,0.5,0.4,0.9,0.9,0.9c0.5,0,0.9-0.4,0.9-0.9
	C24,4.1,23.6,3.7,23.1,3.7z M23.1,1.8c0.5,0,0.9-0.4,0.9-0.9C24,0.4,23.6,0,23.1,0c-0.5,0-0.9,0.4-0.9,0.9
	C22.2,1.4,22.6,1.8,23.1,1.8z M19.4,1.8c0.5,0,0.9-0.4,0.9-0.9c0-0.5-0.4-0.9-0.9-0.9c-0.5,0-0.9,0.4-0.9,0.9
	C18.5,1.4,18.9,1.8,19.4,1.8z M15.7,1.8c0.5,0,0.9-0.4,0.9-0.9c0-0.5-0.4-0.9-0.9-0.9c-0.5,0-0.9,0.4-0.9,0.9
	C14.8,1.4,15.2,1.8,15.7,1.8z"/>
</svg>
