<?xml version="1.0" encoding="utf-8"?>
<!-- Generator: Adobe Illustrator 21.1.0, SVG Export Plug-In . SVG Version: 6.00 Build 0)  -->
<svg version="1.1" id="Layer_1" xmlns="http://www.w3.org/2000/svg" xmlns:xlink="http://www.w3.org/1999/xlink" x="0px" y="0px"
	 viewBox="0 0 24 24" style="enable-background:new 0 0 24 24;" xml:space="preserve">
<path d="M24,12.1c0,0.5-0.4,0.9-0.9,0.9H0.9C0.4,13,0,12.6,0,12.1s0.4-0.9,0.9-0.9h22.2C23.6,11.2,24,11.6,24,12.1z M8.3,1.9
	c0.5,0,0.9-0.4,0.9-0.9S8.8,0.1,8.3,0.1S7.4,0.5,7.4,1S7.8,1.9,8.3,1.9z M4.6,1.9c0.5,0,0.9-0.4,0.9-0.9S5.1,0.1,4.6,0.1
	S3.7,0.5,3.7,1S4.1,1.9,4.6,1.9z M0.9,1.9c0.5,0,0.9-0.4,0.9-0.9S1.4,0.1,0.9,0.1S0,0.5,0,1S0.4,1.9,0.9,1.9z M0.9,5.6
	c0.5,0,0.9-0.4,0.9-0.9S1.4,3.8,0.9,3.8C0.4,3.8,0,4.2,0,4.7S0.4,5.6,0.9,5.6z M0.9,9.3c0.5,0,0.9-0.4,0.9-0.9S1.4,7.5,0.9,7.5
	C0.4,7.5,0,7.9,0,8.4S0.4,9.3,0.9,9.3z M0.9,14.8c-0.5,0-0.9,0.4-0.9,0.9c0,0.5,0.4,0.9,0.9,0.9s0.9-0.4,0.9-0.9S1.4,14.8,0.9,14.8z
	 M0.9,18.5c-0.5,0-0.9,0.5-0.9,1s0.4,0.9,0.9,0.9s0.9-0.4,0.9-0.9S1.4,18.5,0.9,18.5z M0.9,22.2c-0.5,0-0.9,0.4-0.9,0.9
	S0.4,24,0.9,24s0.9-0.4,0.9-0.9S1.4,22.2,0.9,22.2z M4.6,22.2c-0.5,0-0.9,0.4-0.9,0.9S4.1,24,4.6,24s0.9-0.4,0.9-0.9
	S5.1,22.2,4.6,22.2z M8.3,22.2c-0.5,0-0.9,0.4-0.9,0.9S7.8,24,8.3,24s0.9-0.4,0.9-0.9S8.8,22.2,8.3,22.2z M15.7,22.2
	c-0.5,0-0.9,0.4-0.9,0.9s0.4,0.9,0.9,0.9c0.5,0,0.9-0.4,0.9-0.9S16.2,22.2,15.7,22.2z M19.4,22.2c-0.5,0-0.9,0.4-0.9,0.9
	s0.4,0.9,0.9,0.9s0.9-0.4,0.9-0.9S19.9,22.2,19.4,22.2z M23.1,22.2c-0.5,0-0.9,0.4-0.9,0.9s0.4,0.9,0.9,0.9s0.9-0.4,0.9-0.9
	S23.6,22.2,23.1,22.2z M23.1,18.5c-0.5,0-0.9,0.4-0.9,0.9s0.4,0.9,0.9,0.9s0.9-0.4,0.9-0.9C24,19,23.6,18.5,23.1,18.5z M23.1,14.8
	c-0.5,0-0.9,0.4-0.9,0.9c0,0.5,0.4,0.9,0.9,0.9s0.9-0.4,0.9-0.9S23.6,14.8,23.1,14.8z M23.1,7.5c-0.5,0-0.9,0.4-0.9,0.9
	s0.4,0.9,0.9,0.9S24,8.9,24,8.4S23.6,7.5,23.1,7.5z M23.1,3.8c-0.5,0-0.9,0.4-0.9,0.9s0.4,0.9,0.9,0.9S24,5.2,24,4.7
	S23.6,3.8,23.1,3.8z M23.1,1.9C23.6,1.9,24,1.5,24,1s-0.4-0.9-0.9-0.9S22.2,0.5,22.2,1S22.6,1.9,23.1,1.9z M19.4,1.9
	c0.5,0,0.9-0.4,0.9-0.9s-0.4-0.9-0.9-0.9S18.5,0.5,18.5,1S18.9,1.9,19.4,1.9z M15.7,1.9c0.5,0,0.9-0.4,0.9-0.9s-0.4-0.9-0.9-0.9
	S14.8,0.5,14.8,1S15.2,1.9,15.7,1.9z M12,22.2c-0.5,0-0.9,0.4-0.9,0.9S11.5,24,12,24s0.9-0.4,0.9-0.9S12.5,22.2,12,22.2z M12,1.9
	c0.5,0,0.9-0.4,0.9-0.9S12.5,0.1,12,0.1S11.1,0.5,11.1,1S11.5,1.9,12,1.9z M12,5.6c0.5,0,0.9-0.4,0.9-0.9S12.5,3.8,12,3.8
	s-0.9,0.4-0.9,0.9S11.5,5.6,12,5.6z M12,9.3c0.5,0,0.9-0.4,0.9-0.9S12.5,7.5,12,7.5s-0.9,0.4-0.9,0.9C11.1,8.9,11.5,9.3,12,9.3z
	 M12,14.8c-0.5,0-0.9,0.4-0.9,0.9c0,0.5,0.4,0.9,0.9,0.9s0.9-0.4,0.9-0.9S12.5,14.8,12,14.8z M12,18.5c-0.5,0-0.9,0.4-0.9,0.9
	s0.4,0.9,0.9,0.9s0.9-0.4,0.9-0.9C12.9,19,12.5,18.5,12,18.5z"/>
</svg>
