<?xml version="1.0" encoding="utf-8"?>
<!-- Generator: Adobe Illustrator 21.1.0, SVG Export Plug-In . SVG Version: 6.00 Build 0)  -->
<svg version="1.1" id="Layer_1" xmlns="http://www.w3.org/2000/svg" xmlns:xlink="http://www.w3.org/1999/xlink" x="0px" y="0px"
	 viewBox="0 0 24 24" style="enable-background:new 0 0 24 24;" xml:space="preserve">
<path d="M3.7,12c0-0.5,0.4-0.9,0.9-0.9c0.5,0,0.9,0.4,0.9,0.9s-0.4,0.9-0.9,0.9C4.1,12.9,3.7,12.5,3.7,12z M8.3,12.9
	c0.5,0,0.9-0.4,0.9-0.9s-0.4-0.9-0.9-0.9c-0.5,0-0.9,0.4-0.9,0.9S7.8,12.9,8.3,12.9z M15.7,12.9c0.5,0,0.9-0.4,0.9-0.9
	s-0.4-0.9-0.9-0.9c-0.5,0-0.9,0.4-0.9,0.9S15.2,12.9,15.7,12.9z M19.4,12.9c0.5,0,0.9-0.4,0.9-0.9s-0.4-0.9-0.9-0.9
	c-0.5,0-0.9,0.4-0.9,0.9S18.9,12.9,19.4,12.9z M12,5.5c0.5,0,0.9-0.4,0.9-0.9c0-0.5-0.4-0.9-0.9-0.9s-0.9,0.4-0.9,0.9
	C11.1,5.1,11.5,5.5,12,5.5z M12,9.2c0.5,0,0.9-0.4,0.9-0.9c0-0.5-0.4-0.9-0.9-0.9s-0.9,0.4-0.9,0.9C11.1,8.8,11.5,9.2,12,9.2z
	 M12,12.9c0.5,0,0.9-0.4,0.9-0.9s-0.4-0.9-0.9-0.9s-0.9,0.4-0.9,0.9S11.5,12.9,12,12.9z M12,16.6c0.5,0,0.9-0.4,0.9-0.9
	c0-0.5-0.4-0.9-0.9-0.9s-0.9,0.4-0.9,0.9C11.1,16.2,11.5,16.6,12,16.6z M12,20.3c0.5,0,0.9-0.4,0.9-0.9c0-0.5-0.4-0.9-0.9-0.9
	s-0.9,0.4-0.9,0.9C11.1,19.9,11.5,20.3,12,20.3z M12,1.8c0.5,0,0.9-0.4,0.9-0.9C12.9,0.4,12.5,0,12,0s-0.9,0.4-0.9,0.9
	C11.1,1.4,11.5,1.8,12,1.8z M23.1,11.1c-0.5,0-0.9,0.4-0.9,0.9s0.4,0.9,0.9,0.9c0.5,0,0.9-0.4,0.9-0.9S23.6,11.1,23.1,11.1z
	 M0.9,12.9c0.5,0,0.9-0.4,0.9-0.9s-0.4-0.9-0.9-0.9C0.4,11.1,0,11.5,0,12S0.4,12.9,0.9,12.9z M0.9,16.6c0.5,0,0.9-0.4,0.9-0.9
	c0-0.5-0.4-0.9-0.9-0.9c-0.5,0-0.9,0.4-0.9,0.9C0,16.2,0.4,16.6,0.9,16.6z M0.9,20.3c0.5,0,0.9-0.4,0.9-0.9c0-0.5-0.4-0.9-0.9-0.9
	c-0.5,0-0.9,0.4-0.9,0.9C0,19.9,0.4,20.3,0.9,20.3z M23.1,18.5c-0.5,0-0.9,0.4-0.9,0.9c0,0.5,0.4,0.9,0.9,0.9c0.5,0,0.9-0.4,0.9-0.9
	C24,18.9,23.6,18.5,23.1,18.5z M23.1,14.8c-0.5,0-0.9,0.4-0.9,0.9c0,0.5,0.4,0.9,0.9,0.9c0.5,0,0.9-0.4,0.9-0.9
	C24,15.2,23.6,14.8,23.1,14.8z M23.1,7.4c-0.5,0-0.9,0.4-0.9,0.9c0,0.5,0.4,0.9,0.9,0.9c0.5,0,0.9-0.4,0.9-0.9
	C24,7.8,23.6,7.4,23.1,7.4z M23.1,3.7c-0.5,0-0.9,0.4-0.9,0.9c0,0.5,0.4,0.9,0.9,0.9c0.5,0,0.9-0.4,0.9-0.9
	C24,4.1,23.6,3.7,23.1,3.7z M23.1,1.8c0.5,0,0.9-0.4,0.9-0.9C24,0.4,23.6,0,23.1,0c-0.5,0-0.9,0.4-0.9,0.9
	C22.2,1.4,22.6,1.8,23.1,1.8z M19.4,1.8c0.5,0,0.9-0.4,0.9-0.9c0-0.5-0.4-0.9-0.9-0.9c-0.5,0-0.9,0.4-0.9,0.9
	C18.5,1.4,18.9,1.8,19.4,1.8z M15.7,1.8c0.5,0,0.9-0.4,0.9-0.9c0-0.5-0.4-0.9-0.9-0.9c-0.5,0-0.9,0.4-0.9,0.9
	C14.8,1.4,15.2,1.8,15.7,1.8z M8.3,1.8c0.5,0,0.9-0.4,0.9-0.9C9.2,0.4,8.8,0,8.3,0C7.8,0,7.4,0.4,7.4,0.9C7.4,1.4,7.8,1.8,8.3,1.8z
	 M4.6,1.8c0.5,0,0.9-0.4,0.9-0.9C5.5,0.4,5.1,0,4.6,0C4.1,0,3.7,0.4,3.7,0.9C3.7,1.4,4.1,1.8,4.6,1.8z M0.9,1.8
	c0.5,0,0.9-0.4,0.9-0.9C1.8,0.4,1.4,0,0.9,0C0.4,0,0,0.4,0,0.9C0,1.4,0.4,1.8,0.9,1.8z M0.9,5.5c0.5,0,0.9-0.4,0.9-0.9
	c0-0.5-0.4-0.9-0.9-0.9C0.4,3.7,0,4.1,0,4.6C0,5.1,0.4,5.5,0.9,5.5z M0.9,9.2c0.5,0,0.9-0.4,0.9-0.9c0-0.5-0.4-0.9-0.9-0.9
	C0.4,7.4,0,7.8,0,8.3C0,8.8,0.4,9.2,0.9,9.2z M23.1,22.2H0.9c-0.5,0-0.9,0.4-0.9,0.9C0,23.6,0.4,24,0.9,24h22.2
	c0.5,0,0.9-0.4,0.9-0.9C24,22.6,23.6,22.2,23.1,22.2z"/>
</svg>
