<?xml version="1.0" encoding="utf-8"?>
<!-- Generator: Adobe Illustrator 21.1.0, SVG Export Plug-In . SVG Version: 6.00 Build 0)  -->
<svg version="1.1" id="Layer_1" xmlns="http://www.w3.org/2000/svg" xmlns:xlink="http://www.w3.org/1999/xlink" x="0px" y="0px"
	 viewBox="0 0 24 24" style="enable-background:new 0 0 24 24;" xml:space="preserve">
<path d="M24,12c0,0.5-0.4,0.9-0.9,0.9H12.9v10.2c0,0.5-0.4,0.9-0.9,0.9s-0.9-0.4-0.9-0.9V12.9H0.9C0.4,12.9,0,12.5,0,12
	s0.4-0.9,0.9-0.9h10.2V0.9C11.1,0.4,11.5,0,12,0s0.9,0.4,0.9,0.9v10.2h10.2C23.6,11.1,24,11.5,24,12z M8.3,1.8
	c0.5,0,0.9-0.4,0.9-0.9S8.8,0,8.3,0S7.4,0.4,7.4,0.9S7.8,1.8,8.3,1.8z M4.6,1.8c0.5,0,0.9-0.4,0.9-0.9S5.1,0,4.6,0S3.7,0.4,3.7,0.9
	S4.1,1.8,4.6,1.8z M0.9,1.8c0.5,0,0.9-0.4,0.9-0.9S1.4,0,0.9,0S0,0.4,0,0.9S0.4,1.8,0.9,1.8z M0.9,5.5c0.5,0,0.9-0.4,0.9-0.9
	S1.4,3.7,0.9,3.7C0.4,3.7,0,4.1,0,4.6S0.4,5.5,0.9,5.5z M0.9,9.2c0.5,0,0.9-0.4,0.9-0.9S1.4,7.4,0.9,7.4S0,7.8,0,8.3
	S0.4,9.2,0.9,9.2z M0.9,14.8c-0.5,0-0.9,0.4-0.9,0.9c0,0.5,0.4,0.9,0.9,0.9s0.9-0.4,0.9-0.9C1.8,15.2,1.4,14.8,0.9,14.8z M0.9,18.5
	c-0.5,0-0.9,0.4-0.9,0.9s0.4,0.9,0.9,0.9s0.9-0.4,0.9-0.9S1.4,18.5,0.9,18.5z M0.9,22.2c-0.5,0-0.9,0.4-0.9,0.9S0.4,24,0.9,24
	s0.9-0.4,0.9-0.9S1.4,22.2,0.9,22.2z M4.6,22.2c-0.5,0-0.9,0.4-0.9,0.9S4.1,24,4.6,24s0.9-0.4,0.9-0.9S5.1,22.2,4.6,22.2z M8.3,22.2
	c-0.5,0-0.9,0.4-0.9,0.9S7.8,24,8.3,24s0.9-0.4,0.9-0.9S8.8,22.2,8.3,22.2z M15.7,22.2c-0.5,0-0.9,0.4-0.9,0.9s0.4,0.9,0.9,0.9
	c0.5,0,0.9-0.4,0.9-0.9S16.2,22.2,15.7,22.2z M19.4,22.2c-0.5,0-0.9,0.4-0.9,0.9s0.4,0.9,0.9,0.9s0.9-0.4,0.9-0.9
	S19.9,22.2,19.4,22.2z M23.1,22.2c-0.5,0-0.9,0.4-0.9,0.9s0.4,0.9,0.9,0.9s0.9-0.4,0.9-0.9S23.6,22.2,23.1,22.2z M23.1,18.5
	c-0.5,0-0.9,0.4-0.9,0.9s0.4,0.9,0.9,0.9s0.9-0.4,0.9-0.9S23.6,18.5,23.1,18.5z M23.1,14.8c-0.5,0-0.9,0.4-0.9,0.9
	c0,0.5,0.4,0.9,0.9,0.9s0.9-0.4,0.9-0.9C24,15.2,23.6,14.8,23.1,14.8z M23.1,7.4c-0.5,0-0.9,0.4-0.9,0.9s0.4,0.9,0.9,0.9
	S24,8.8,24,8.3S23.6,7.4,23.1,7.4z M23.1,3.7c-0.5,0-0.9,0.4-0.9,0.9s0.4,0.9,0.9,0.9S24,5.1,24,4.6S23.6,3.7,23.1,3.7z M23.1,1.8
	c0.5,0,0.9-0.4,0.9-0.9S23.6,0,23.1,0s-0.9,0.4-0.9,0.9S22.6,1.8,23.1,1.8z M19.4,1.8c0.5,0,0.9-0.4,0.9-0.9S19.9,0,19.4,0
	s-0.9,0.4-0.9,0.9S18.9,1.8,19.4,1.8z M15.7,1.8c0.5,0,0.9-0.4,0.9-0.9S16.2,0,15.7,0s-0.9,0.4-0.9,0.9C14.8,1.4,15.2,1.8,15.7,1.8z
	"/>
</svg>
