<?xml version="1.0" encoding="utf-8"?>
<!-- Generator: Adobe Illustrator 21.1.0, SVG Export Plug-In . SVG Version: 6.00 Build 0)  -->
<svg version="1.1" id="Layer_1" xmlns="http://www.w3.org/2000/svg" xmlns:xlink="http://www.w3.org/1999/xlink" x="0px" y="0px"
	 viewBox="0 0 24 24" style="enable-background:new 0 0 24 24;" xml:space="preserve">
<path d="M13.6,22.7h2.5V24h-2.5V22.7z M4.6,24h2.5v-1.3H4.6V24z M9,24h2.5v-1.3H9V24z M22.7,24H24v-2.5h-1.3V24z M18.1,24h2.5v-1.3
	h-2.5V24z M22.7,19.4H24v-2.5h-1.3V19.4z M0,0v24h2.5v-1.3H1.3v-1.1H1.2V1.3H24V0H0z M22.7,5.9H24V3.4h-1.3V5.9z M22.7,15H24v-2.5
	h-1.3V15z M22.7,10.4H24V7.9h-1.3V10.4z"/>
</svg>
