<?xml version="1.0" encoding="utf-8"?>
<!-- Generator: Adobe Illustrator 21.1.0, SVG Export Plug-In . SVG Version: 6.00 Build 0)  -->
<svg version="1.1" id="Layer_1" xmlns="http://www.w3.org/2000/svg" xmlns:xlink="http://www.w3.org/1999/xlink" x="0px" y="0px"
	 viewBox="0 0 24 24" style="enable-background:new 0 0 24 24;" xml:space="preserve">
<style type="text/css">
	.st0{stroke:#000000;stroke-width:0.25;stroke-miterlimit:10;}
</style>
<path class="st0" d="M22.3,22.1c0.8,0,1.5-0.7,1.5-1.5v-14c0-0.8-0.7-1.5-1.5-1.5h-5.4v-2c0-0.6-0.5-1.2-1.2-1.2H8.2
	c-0.6,0-1.2,0.5-1.2,1.2v2H1.7c-0.8,0-1.5,0.7-1.5,1.5v14c0,0.8,0.7,1.5,1.5,1.5L22.3,22.1L22.3,22.1z M7.7,3c0-0.3,0.2-0.5,0.5-0.5
	h7.5c0.3,0,0.5,0.2,0.5,0.5v2H7.7V3z M0.8,20.5v-14c0-0.5,0.4-0.9,0.9-0.9h20.6c0.5,0,0.9,0.4,0.9,0.9v14c0,0.5-0.4,0.9-0.9,0.9H1.7
	C1.2,21.5,0.8,21.1,0.8,20.5z"/>
</svg>
