<?xml version="1.0" encoding="utf-8"?>
<!-- Generator: Adobe Illustrator 21.1.0, SVG Export Plug-In . SVG Version: 6.00 Build 0)  -->
<svg version="1.1" id="Layer_1" xmlns="http://www.w3.org/2000/svg" xmlns:xlink="http://www.w3.org/1999/xlink" x="0px" y="0px"
	 viewBox="0 0 24 24" style="enable-background:new 0 0 24 24;" xml:space="preserve">
<path d="M22,4.8h-4.8V3.3c0-0.8-0.7-1.7-1.7-1.7H8.3c-0.8,0-1.7,0.7-1.7,1.7v1.5H2c-1.1,0-2,0.9-2,2v13.7c0,1.1,0.9,2,2,2H22
	c1.1,0,2-0.9,2-2V6.7C24,5.7,23.1,4.8,22,4.8z M8.3,4.7V3.2h7.3v1.5H8.3z M1.6,6.6c0-0.2,0.2-0.4,0.4-0.4H22c0.2,0,0.4,0.2,0.4,0.4
	v13.7c0,0.2-0.2,0.4-0.4,0.4l-20.2,0c-0.1,0-0.1,0-0.2,0c-0.1-0.1-0.1-0.2-0.1-0.4V6.6z"/>
</svg>
