<?xml version="1.0" encoding="UTF-8"?>
<svg width="16px" height="16px" viewBox="0 0 16 16" version="1.1" xmlns="http://www.w3.org/2000/svg" xmlns:xlink="http://www.w3.org/1999/xlink">
    <!-- Generator: Sketch 56.3 (81716) - https://sketch.com -->
    <title>broken-link-02</title>
    <desc>Created with Sketch.</desc>
    <g id="Page-1" stroke="none" stroke-width="1" fill="none" fill-rule="evenodd">
        <path d="M8.8152,11.991 C9.0502,11.757 9.4302,11.757 9.6642,11.991 C9.8982,12.225 9.8982,12.605 9.6642,12.84 L7.8022,14.701 C7.2962,15.207 6.6232,15.486 5.9072,15.486 C5.1912,15.486 4.5182,15.207 4.0122,14.701 L3.5232,14.211 C2.4782,13.167 2.4782,11.467 3.5222,10.423 C3.7562,10.188 4.1362,10.188 4.3712,10.423 C4.6052,10.657 4.6052,11.037 4.3712,11.271 C3.7942,11.848 3.7942,12.786 4.3712,13.363 L4.8602,13.852 C5.4202,14.412 6.3952,14.412 6.9532,13.853 L8.8152,11.991 Z M15.1531,3.5613 C15.6591,4.0663 15.9381,4.7393 15.9381,5.4553 C15.9381,6.1713 15.6591,6.8443 15.1531,7.3503 L11.9681,10.5353 C11.4621,11.0413 10.7891,11.3203 10.0731,11.3203 L10.0721,11.3203 C9.3571,11.3203 8.6841,11.0413 8.1781,10.5343 C7.9451,10.3003 7.9451,9.9203 8.1791,9.6863 C8.4151,9.4523 8.7951,9.4523 9.0281,9.6863 C9.3071,9.9663 9.6781,10.1203 10.0721,10.1203 L10.0731,10.1203 C10.4681,10.1203 10.8401,9.9663 11.1191,9.6863 L14.3041,6.5013 C14.5841,6.2223 14.7381,5.8503 14.7381,5.4553 C14.7381,5.0603 14.5841,4.6883 14.3051,4.4093 L13.8151,3.9183 C13.2371,3.3423 12.2991,3.3423 11.7231,3.9193 L9.8111,5.8313 C9.5771,6.0653 9.1971,6.0653 8.9631,5.8313 C8.7281,5.5963 8.7281,5.2163 8.9631,4.9823 L10.8741,3.0703 C11.9181,2.0263 13.6181,2.0263 14.6631,3.0703 L15.1531,3.5613 Z M7.1936,3.7 C6.8616,3.7 6.5936,3.431 6.5936,3.1 L6.5936,0.6 C6.5936,0.268 6.8616,0 7.1936,0 C7.5256,0 7.7936,0.268 7.7936,0.6 L7.7936,3.1 C7.7936,3.431 7.5256,3.7 7.1936,3.7 Z M3.701,4.6013 L1.701,2.6013 C1.467,2.3673 1.467,1.9873 1.701,1.7523 C1.935,1.5183 2.315,1.5183 2.55,1.7523 L4.55,3.7523 C4.784,3.9873 4.784,4.3673 4.55,4.6013 C4.432,4.7183 4.279,4.7773 4.125,4.7773 C3.972,4.7773 3.818,4.7183 3.701,4.6013 Z M3.7,7.5999 C3.7,7.9319 3.431,8.1999 3.1,8.1999 L0.6,8.1999 C0.268,8.1999 0,7.9319 0,7.5999 C0,7.2679 0.268,6.9999 0.6,6.9999 L3.1,6.9999 C3.431,6.9999 3.7,7.2679 3.7,7.5999 Z" id="broken-link-02" fill="#000000"></path>
    </g>
</svg>