<?xml version="1.0" encoding="utf-8"?>
<!-- Generator: Adobe Illustrator 21.1.0, SVG Export Plug-In . SVG Version: 6.00 Build 0)  -->
<svg version="1.1" id="Layer_1" xmlns="http://www.w3.org/2000/svg" xmlns:xlink="http://www.w3.org/1999/xlink" x="0px" y="0px"
	 viewBox="0 0 24 24" style="enable-background:new 0 0 24 24;" xml:space="preserve">
<style type="text/css">
	.st0{stroke:#000000;stroke-width:0.25;stroke-miterlimit:10;}
</style>
<path class="st0" d="M23.6,2L22,0.4c-0.6-0.6-1.5-0.6-2,0L8.9,11.5l3.6,3.6L23.6,4.1C24.1,3.5,24.1,2.6,23.6,2z M23.3,3.8L12.5,14.6
	l-3.1-3.1L20.2,0.7c0.4-0.4,1.1-0.4,1.5,0l1.6,1.6c0.2,0.2,0.3,0.5,0.3,0.7C23.6,3.3,23.5,3.6,23.3,3.8z M6.7,13.4
	c-2.1,0-3.9,1.7-3.9,3.9c0,1.5-1.3,2.3-2.3,2.3H0.2l0.2,0.3c1.1,1.5,3.1,2.5,5,2.5c2.8,0,5.1-2.3,5.1-5.1
	C10.5,15.2,8.8,13.4,6.7,13.4z M5.5,22c-1.7,0-3.4-0.8-4.5-2.1c1-0.2,2.3-1.1,2.3-2.6c0-1.9,1.6-3.5,3.5-3.5c1.9,0,3.5,1.6,3.5,3.5
	C10.2,19.9,8.1,22,5.5,22z"/>
</svg>
