<?xml version="1.0" encoding="utf-8"?>
<!-- Generator: Adobe Illustrator 21.1.0, SVG Export Plug-In . SVG Version: 6.00 Build 0)  -->
<svg version="1.1" id="Layer_1" xmlns="http://www.w3.org/2000/svg" xmlns:xlink="http://www.w3.org/1999/xlink" x="0px" y="0px"
	 viewBox="0 0 24 24" style="enable-background:new 0 0 24 24;" xml:space="preserve">
<path d="M23.5,2.1L22,0.6C21.6,0.2,21.1,0,20.6,0c-0.5,0-0.9,0.2-1.2,0.6L8.5,11.5l4.1,4.1L23.5,4.7C24.2,4,24.2,2.9,23.5,2.1z
	 M22.5,3.8l-9.9,9.9l-2.3-2.3l9.9-9.9c0.1-0.1,0.2-0.1,0.4-0.1c0,0,0,0,0,0c0.1,0,0.3,0.1,0.4,0.1l1.5,1.5c0.1,0.1,0.1,0.3,0.1,0.3
	C22.7,3.6,22.6,3.7,22.5,3.8z M7.1,12.8c-2.3,0-4.2,1.9-4.2,4.2c0,1.2-1,1.7-1.7,1.7H0l0.7,1c1.1,1.5,3.2,2.6,5.1,2.6
	c2.9,0,5.3-2.4,5.3-5.3C11.2,14.7,9.3,12.8,7.1,12.8z M5.9,21c-1.2,0-2.5-0.5-3.4-1.3c1-0.5,1.8-1.4,1.8-2.7c0-1.5,1.3-2.9,2.9-2.9
	S10,15.5,10,17C9.9,19.2,8.1,21,5.9,21z"/>
</svg>
