<?xml version="1.0" encoding="UTF-8"?>
<svg xmlns="http://www.w3.org/2000/svg" xmlns:xlink="http://www.w3.org/1999/xlink" width="24pt" height="24pt" viewBox="0 0 24 24" version="1.1">
<g id="surface1">
<path style=" stroke:none;fill-rule:nonzero;fill:rgb(0%,0%,0%);fill-opacity:1;" d="M 10.910156 9.144531 C 10.910156 7.886719 11.890625 6.855469 13.089844 6.855469 C 14.289062 6.855469 15.273438 7.886719 15.273438 9.144531 C 15.273438 10.398438 14.289062 11.429688 13.089844 11.429688 C 11.890625 11.429688 10.910156 10.398438 10.910156 9.144531 Z M 16.035156 6.855469 C 17.238281 6.855469 18.21875 5.828125 18.21875 4.570312 C 18.21875 3.3125 17.238281 2.285156 16.035156 2.285156 C 14.835938 2.285156 13.855469 3.3125 13.855469 4.570312 C 13.855469 5.828125 14.835938 6.855469 16.035156 6.855469 Z M 16.582031 9.144531 C 16.582031 10.398438 17.5625 11.429688 18.761719 11.429688 C 19.964844 11.429688 20.945312 10.398438 20.945312 9.144531 C 20.945312 7.886719 19.964844 6.855469 18.761719 6.855469 C 17.5625 6.855469 16.582031 7.886719 16.582031 9.144531 Z M 14.183594 13.714844 C 14.183594 14.972656 15.164062 16 16.363281 16 C 17.5625 16 18.546875 14.972656 18.546875 13.714844 C 18.546875 12.457031 17.5625 11.429688 16.363281 11.429688 C 15.164062 11.429688 14.183594 12.457031 14.183594 13.714844 Z M 11.238281 12.800781 C 10.035156 12.800781 9.054688 13.828125 9.054688 15.085938 C 9.054688 16.34375 10.035156 17.371094 11.238281 17.371094 C 12.4375 17.371094 13.417969 16.34375 13.417969 15.085938 C 13.417969 13.828125 12.4375 12.800781 11.238281 12.800781 Z M 2.074219 21.828125 L 2.074219 0 L 0 0 L 0 24 L 24 24 L 24 21.828125 Z M 6.546875 19.3125 C 7.746094 19.3125 8.726562 18.285156 8.726562 17.027344 C 8.726562 15.769531 7.746094 14.742188 6.546875 14.742188 C 5.34375 14.742188 4.363281 15.769531 4.363281 17.027344 C 4.363281 18.285156 5.34375 19.3125 6.546875 19.3125 Z M 7.855469 12.914062 C 9.054688 12.914062 10.035156 11.886719 10.035156 10.628906 C 10.035156 9.371094 9.054688 8.34375 7.855469 8.34375 C 6.65625 8.34375 5.671875 9.371094 5.671875 10.628906 C 5.671875 11.886719 6.65625 12.914062 7.855469 12.914062 Z M 7.855469 12.914062 "/>
</g>
</svg>
