<?xml version="1.0" encoding="utf-8"?>
<!-- Generator: Adobe Illustrator 21.1.0, SVG Export Plug-In . SVG Version: 6.00 Build 0)  -->
<svg version="1.1" id="Layer_1" xmlns="http://www.w3.org/2000/svg" xmlns:xlink="http://www.w3.org/1999/xlink" x="0px" y="0px"
	 viewBox="0 0 24 24" style="enable-background:new 0 0 24 24;" xml:space="preserve">
<g id="surface1">
	<path d="M10.9,9.1c0-1.3,1-2.3,2.2-2.3s2.2,1,2.2,2.3c0,1.3-1,2.3-2.2,2.3S10.9,10.4,10.9,9.1z M16,6.9c1.2,0,2.2-1,2.2-2.3
		s-1-2.3-2.2-2.3c-1.2,0-2.2,1-2.2,2.3S14.8,6.9,16,6.9z M16.6,9.1c0,1.3,1,2.3,2.2,2.3c1.2,0,2.2-1,2.2-2.3c0-1.3-1-2.3-2.2-2.3
		C17.6,6.9,16.6,7.9,16.6,9.1z M14.2,13.7c0,1.3,1,2.3,2.2,2.3s2.2-1,2.2-2.3s-1-2.3-2.2-2.3S14.2,12.5,14.2,13.7z M11.2,12.8
		c-1.2,0-2.2,1-2.2,2.3c0,1.3,1,2.3,2.2,2.3c1.2,0,2.2-1,2.2-2.3C13.4,13.8,12.4,12.8,11.2,12.8z M2.1,21.8V0H0v24h24v-2.2H2.1z
		 M6.5,19.3c1.2,0,2.2-1,2.2-2.3s-1-2.3-2.2-2.3c-1.2,0-2.2,1-2.2,2.3S5.3,19.3,6.5,19.3z M7.9,12.9c1.2,0,2.2-1,2.2-2.3
		s-1-2.3-2.2-2.3s-2.2,1-2.2,2.3S6.7,12.9,7.9,12.9z"/>
</g>
</svg>
