<?xml version="1.0" encoding="utf-8"?>
<!-- Generator: Adobe Illustrator 21.1.0, SVG Export Plug-In . SVG Version: 6.00 Build 0)  -->
<svg version="1.1" id="Layer_1" xmlns="http://www.w3.org/2000/svg" xmlns:xlink="http://www.w3.org/1999/xlink" x="0px" y="0px"
	 viewBox="0 0 24 24" style="enable-background:new 0 0 24 24;" xml:space="preserve">
<path d="M22.3,11.5V7.9h-3.5c-0.1-0.7-0.4-1.4-0.8-2.1l3.2-3.5l-2.7-2.4l-3.1,3.3c-2-1.1-4.7-1.1-6.7,0l-3-3.3L2.9,2.3L6,5.7
	C5.7,6.3,5.4,7,5.2,7.8H1.7v3.6h3.4v0H1.7v3.6h3.4v0H1.7v3.6h3.7c0.7,3,3.5,5.1,6.7,5.1c3.1,0,5.9-2.1,6.8-5h3.6v-3.6h-3.4v0h3.4
	V11.5l-3.4,0v0H22.3z M6.6,8.5c0.1-0.9,0.4-1.8,1-2.5L8,5.6L5,2.3l0.5-0.5l2.9,3.2l0.4-0.4c1.8-1.3,4.4-1.3,6.2,0L15.5,5l3-3.2
	L19,2.3l-3,3.4l0.4,0.4c0.6,0.7,0.9,1.6,1,2.5v0.7h3.5v0.6h-3.4v3h3.4v0.7h-3.4v3h3.4v0.7h-3.3l-0.2,0.6c-0.5,2.6-2.7,4.5-5.4,4.5
	s-5-1.9-5.4-4.5v-0.7H3.2v-0.7h3.4v-3H3.2v-0.7h3.4v-3H3.2V9.2h3.4L6.6,8.5z"/>
</svg>
