<?xml version="1.0" encoding="utf-8"?>
<!-- Generator: Adobe Illustrator 21.1.0, SVG Export Plug-In . SVG Version: 6.00 Build 0)  -->
<svg version="1.1" id="Layer_1" xmlns="http://www.w3.org/2000/svg" xmlns:xlink="http://www.w3.org/1999/xlink" x="0px" y="0px"
	 viewBox="0 0 24 24" style="enable-background:new 0 0 24 24;" xml:space="preserve">
<path d="M12,23.9c-3.2,0-6-2.2-6.6-5.3H1.7v-3h3.5v-0.8H1.7v-3h3.5V11H1.7V8h3.6c0.2-0.9,0.5-1.8,1-2.6L3.1,2l2.2-2l3.1,3.4
	c2.1-1.3,5-1.3,7.1,0L18.7,0l2.2,2l-3.2,3.5c0.5,0.8,0.9,1.7,1,2.6h3.6v3l-3.5,0v0.8h3.5v3h-3.5v0.8h3.5v3h-3.6
	C18,21.6,15.2,23.9,12,23.9z M2.5,17.8H6L6,18.1c0.5,2.9,3,5,6,5c3,0,5.5-2.1,6-5l0.1-0.3h3.5v-1.5h-3.5V14h3.5v-1.5h-3.5v-2.3h3.5
	V8.8H18l0-0.3c-0.1-1-0.5-2-1.1-2.8l-0.2-0.2L19.8,2l-1.1-1l-3.1,3.3l-0.3-0.2c-2-1.4-4.8-1.4-6.8,0L8.3,4.3L5.3,1L4.2,2l3.1,3.4
	L7.1,5.6C6.5,6.4,6.1,7.4,6,8.4l0,0.3H2.5v1.5h3.5v2.3H2.5V14h3.5v2.3H2.5V17.8z"/>
</svg>
