<?xml version="1.0" encoding="utf-8"?>
<!-- Generator: Adobe Illustrator 21.1.0, SVG Export Plug-In . SVG Version: 6.00 Build 0)  -->
<svg version="1.1" id="Layer_1" xmlns="http://www.w3.org/2000/svg" xmlns:xlink="http://www.w3.org/1999/xlink" x="0px" y="0px"
	 viewBox="0 0 22 22" style="enable-background:new 0 0 22 22;" xml:space="preserve">
<path d="M21.4,17.9l-7-7l0.8-0.8c1.9,0.6,3.5,0.2,5.1-1.3c1.3-1.3,1.8-3.2,1.3-5.2c-0.1-0.2-0.2-0.4-0.5-0.5c-0.3-0.1-0.5,0-0.8,0.2
	l-1.8,1.9c-0.6,0.5-1.4,0.5-1.9,0c-0.3-0.3-0.4-0.7-0.4-1c0-0.3,0.2-0.6,0.4-0.9l1.9-1.9c0.2-0.2,0.2-0.4,0.2-0.6
	c0-0.2-0.2-0.5-0.5-0.6c-1.8-0.6-3.8-0.1-5.2,1.3c-1.3,1.3-1.7,3.3-1.1,5.2L11,7.5L9.3,5.7l2.1-2.1c0.3-0.3,0.3-0.7,0-1l-1.1-1.1
	C10,1.3,9.9,1.3,9.5,1.3L5.2,2.1C5,2.1,4.8,2.2,4.7,2.4L0.3,6.9C0,7.1,0,7.6,0.3,7.9l3,3c0.4,0.2,0.6,0.2,1,0l2.1-2.1l1.8,1.8
	l-7.3,7.3c-0.9,0.9-0.9,2.4,0,3.4c0.4,0.4,1,0.7,1.7,0.7c0,0,0.1,0,0.1,0c0.6,0,1.2-0.3,1.5-0.7l7.2-7.3l7,7c0.9,0.8,2,0.8,2.9,0
	C22.1,20.1,22.2,18.8,21.4,17.9z M10.3,12.9l-7.2,7.3c-0.2,0.2-0.4,0.3-0.6,0.3c0,0,0,0,0,0c-0.2,0-0.5-0.1-0.6-0.3
	c-0.2-0.2-0.3-0.4-0.3-0.6c0-0.2,0.1-0.5,0.3-0.6L9,11.6L10.3,12.9z M12.1,8.5l0.4-0.4c0.1,0.2,0.3,0.3,0.5,0.5
	c0.3,0.3,0.6,0.6,0.8,0.8l-0.4,0.4L12.1,8.5z M14.8,4.4c0,0.7,0.3,1.4,0.8,1.8c1.1,1.1,2.7,1.1,3.9,0l0.8-0.8
	c-0.1,0.9-0.4,1.7-1.1,2.4c-0.7,0.7-1.6,1.1-2.6,1.1c-1,0-1.9-0.4-2.6-1.2c-1.3-1.5-1.3-3.7,0.1-5.1c0.6-0.6,1.4-1,2.3-1.1l-0.8,0.8
	C15,2.9,14.7,3.6,14.8,4.4z M8.3,6.7l12,12.2c0.3,0.3,0.3,0.7,0,1c-0.3,0.3-0.7,0.3-1,0L7.4,7.7L8.3,6.7z M9.8,3.2l-6,6.1l-1.9-2
	l3.8-3.8l3.8-0.6L9.8,3.2z"/>
</svg>
