<?xml version="1.0" encoding="utf-8"?>
<!-- Generator: Adobe Illustrator 21.1.0, SVG Export Plug-In . SVG Version: 6.00 Build 0)  -->
<svg version="1.1" id="Layer_1" xmlns="http://www.w3.org/2000/svg" xmlns:xlink="http://www.w3.org/1999/xlink" x="0px" y="0px"
	 viewBox="0 0 24 24" style="enable-background:new 0 0 24 24;" xml:space="preserve">
<style type="text/css">
	.st0{stroke:#000000;stroke-width:0.25;stroke-miterlimit:10;}
</style>
<path class="st0" d="M1,12v0.5H0V12C0,5.4,5.4,0,12,0c3.2,0,6.2,1.2,8.5,3.5L21,4V0h1v5.5L21.5,6H16V5h4.6l-0.8-0.8
	C17.7,2.1,14.9,1,12,1C5.9,1,1,5.9,1,12z M23,11.5V12c0,6.1-4.9,11-11,11c-2.9,0-5.7-1.1-7.8-3.2L3.4,19H8v-1H2.5L2,18.5V24h1v-4
	l0.5,0.5C5.8,22.8,8.8,24,12,24c6.6,0,12-5.4,12-12v-0.5H23z"/>
</svg>
