<?xml version="1.0" encoding="utf-8"?>
<!-- Generator: Adobe Illustrator 21.1.0, SVG Export Plug-In . SVG Version: 6.00 Build 0)  -->
<svg version="1.1" id="Layer_1" xmlns="http://www.w3.org/2000/svg" xmlns:xlink="http://www.w3.org/1999/xlink" x="0px" y="0px"
	 viewBox="0 0 24 24" style="enable-background:new 0 0 24 24;" xml:space="preserve">
<path d="M10.9,14.6c-0.3-0.3-0.3-0.7,0-1l4.9-4.9V2.6L14,4.3c-0.3,0.3-0.7,0.3-1,0c-0.1-0.1-0.2-0.3-0.2-0.5s0.1-0.4,0.2-0.5
	l3.2-3.2C16.4,0,16.7,0,16.8,0c0.1,0,0.2,0.1,0.3,0.2c0.1,0,0.1,0.1,0.1,0.2l3,3c0.1,0.1,0.2,0.3,0.2,0.5s-0.1,0.4-0.2,0.5
	c-0.1,0.1-0.3,0.3-0.6,0.3c-0.2,0-0.4-0.1-0.6-0.3l-1.7-1.7V9c0,0.2-0.1,0.4-0.3,0.6L12,14.6c-0.1,0.1-0.3,0.3-0.6,0.3h-0.1
	l-0.1-0.1c0,0,0,0-0.1-0.1C11.1,14.7,11,14.7,10.9,14.6L10.9,14.6z M22.1,13.6L18.5,10c-0.3-0.3-0.7-0.3-1,0
	c-0.1,0.1-0.2,0.3-0.2,0.5c0,0.2,0.1,0.4,0.2,0.5l3.6,3.6c0.1,0.1,0.3,0.3,0.6,0.3c0.3,0,0.5-0.2,0.6-0.3c0.2-0.2,0.2-0.4,0.2-0.7
	C22.4,13.8,22.3,13.6,22.1,13.6z M21.5,18.7v3.5c0,1-0.8,1.8-1.8,1.8C9.7,24,1.6,15.8,1.5,5.8c0-1,0.8-1.8,1.8-1.8h3.5
	c1,0,1.8,0.8,1.8,1.8c0,1.3,0.2,2.4,0.6,3.3c0.2,0.6,0,1.3-0.4,1.8l-1.5,2c1.3,2.4,2.8,3.9,5.2,5.2l2.1-1.6c0.3-0.3,1-0.6,1.7-0.3
	c1.1,0.4,2.3,0.6,3.4,0.6C20.7,16.8,21.5,17.6,21.5,18.7z M6.9,5.6H3.3C3.1,5.6,3,5.7,3,5.8c0,4.5,1.8,8.7,4.9,11.9
	c3.1,3.1,7.2,4.7,11.5,4.7c0.1,0,0.1,0,0.2,0c0.2,0,0.2-0.1,0.2-0.2v-0.2H20v-3.2c0-0.2-0.1-0.2-0.2-0.2c-1.4,0-2.7-0.2-3.9-0.6
	c-0.1-0.1-0.2,0-0.2,0L13,19.8c-0.3,0.2-0.6,0.2-0.8,0c-3.1-1.6-5-3.5-6.5-6.5c-0.1-0.3-0.1-0.5,0-0.8l1.9-2.5
	c0.2-0.2,0.2-0.3,0.2-0.3C7.4,8.4,7.2,7.1,7.2,5.8C7.2,5.7,7.1,5.6,6.9,5.6z"/>
</svg>
