<?xml version="1.0" encoding="utf-8"?>
<!-- Generator: Adobe Illustrator 21.1.0, SVG Export Plug-In . SVG Version: 6.00 Build 0)  -->
<svg version="1.1" id="Layer_1" xmlns="http://www.w3.org/2000/svg" xmlns:xlink="http://www.w3.org/1999/xlink" x="0px" y="0px"
	 viewBox="0 0 24 24" style="enable-background:new 0 0 24 24;" xml:space="preserve">
<path d="M19.8,17.2c-1.2,0-2.4-0.2-3.6-0.6c-0.6-0.2-1.2,0-1.5,0.3l-2.3,1.7c-2.6-1.4-4.2-3-5.6-5.6l1.7-2.2c0.4-0.4,0.6-1,0.4-1.6
	C8.5,8.2,8.3,7,8.3,5.7c0-0.9-0.7-1.6-1.6-1.6H3.1c-0.9,0-1.6,0.7-1.6,1.6C1.6,15.8,9.8,24,19.8,24c0.9,0,1.6-0.7,1.6-1.6v-3.6
	C21.4,17.9,20.7,17.2,19.8,17.2z M20.3,22.4c0,0.3-0.2,0.5-0.5,0.5C10.3,23,2.6,15.2,2.6,5.7c0-0.3,0.2-0.5,0.5-0.5h3.7
	c0.3,0,0.5,0.2,0.5,0.5c0,1.3,0.2,2.6,0.6,3.9c0.1,0.2,0,0.4-0.2,0.6l-1.9,2.5c-0.1,0.2-0.1,0.4,0,0.6c1.5,3,3.4,4.9,6.5,6.5
	c0.2,0.1,0.4,0.1,0.6,0l2.6-1.9c0.1-0.1,0.3-0.2,0.5-0.1c1.2,0.4,2.6,0.6,3.9,0.6c0.3,0,0.5,0.2,0.5,0.5V22.4z M11.1,14.5
	c-0.2-0.2-0.2-0.5,0-0.7l5.1-5.1V1.8L13.9,4c-0.2,0.2-0.5,0.2-0.7,0c-0.2-0.2-0.2-0.5,0-0.7l3.1-3.1c0,0,0,0,0,0
	c0,0,0.1-0.1,0.1-0.1C16.6,0,16.8,0,16.9,0c0,0,0.1,0,0.1,0.1c0,0,0.1,0,0.1,0.1l3.1,3.1c0.2,0.2,0.2,0.5,0,0.7
	c-0.1,0.1-0.2,0.2-0.4,0.2c-0.1,0-0.3-0.1-0.4-0.2l-2.2-2.2v7.1c0,0.1-0.1,0.3-0.2,0.4l-5.2,5.2c-0.1,0.1-0.2,0.2-0.4,0.2
	C11.3,14.6,11.2,14.6,11.1,14.5z M22.3,14.5c-0.1,0.1-0.2,0.2-0.4,0.2s-0.3-0.1-0.4-0.2l-3.7-3.7c-0.2-0.2-0.2-0.5,0-0.7
	c0.2-0.2,0.5-0.2,0.7,0l3.7,3.7C22.5,13.9,22.5,14.3,22.3,14.5z"/>
</svg>
