<?xml version="1.0" encoding="utf-8"?>
<!-- Generator: Adobe Illustrator 21.1.0, SVG Export Plug-In . SVG Version: 6.00 Build 0)  -->
<svg version="1.1" id="Layer_1" xmlns="http://www.w3.org/2000/svg" xmlns:xlink="http://www.w3.org/1999/xlink" x="0px" y="0px"
	 viewBox="0 0 24 24" style="enable-background:new 0 0 24 24;" xml:space="preserve">
<path d="M6.6,12.8c0,2.9,2.4,5.2,5.2,5.2s5.2-2.4,5.2-5.2c0-2.9-2.4-5.2-5.2-5.2S6.6,9.9,6.6,12.8z M11.9,16.4c-2,0-3.6-1.6-3.6-3.6
	c0-2,1.6-3.6,3.6-3.6c2,0,3.6,1.6,3.6,3.6c0,0.9-0.3,1.8-0.9,2.4C13.9,16,12.9,16.4,11.9,16.4z M23.9,7c-0.1-0.9-0.8-1.6-1.6-1.6h-6
	l-0.9-2c-0.3-0.5-0.7-0.8-1.2-0.8H9.7c-0.6,0-1.1,0.3-1.2,0.8l-0.9,2h-6C0.7,5.4-0.1,6.1-0.1,7v12.2c0,0.9,0.7,1.6,1.6,1.6h20.7
	c0.9,0,1.6-0.7,1.6-1.6L23.9,7z M22.3,7v12.2l-20.7,0L1.6,7h7.1l1.2-2.9h4.2L15.2,7L22.3,7z"/>
</svg>
