<?xml version="1.0" encoding="UTF-8"?>
<svg xmlns="http://www.w3.org/2000/svg" xmlns:xlink="http://www.w3.org/1999/xlink" width="24pt" height="24pt" viewBox="0 0 24 24" version="1.1">
<g id="surface1">
<path style=" stroke:none;fill-rule:nonzero;fill:rgb(0%,0%,0%);fill-opacity:1;" d="M 12 8.074219 C 9.164062 8.074219 6.871094 10.363281 6.871094 13.199219 C 6.871094 16.035156 9.164062 18.328125 12 18.328125 C 14.835938 18.328125 17.128906 16.035156 17.128906 13.199219 C 17.128906 10.363281 14.835938 8.074219 12 8.074219 Z M 12 17.128906 C 9.816406 17.128906 8.074219 15.382812 8.074219 13.199219 C 8.074219 11.019531 9.816406 9.273438 12 9.273438 C 14.183594 9.273438 15.925781 11.019531 15.925781 13.199219 C 16.035156 15.382812 14.183594 17.128906 12 17.128906 Z M 22.691406 5.78125 L 16.363281 5.78125 L 15.382812 3.601562 C 15.164062 3.164062 14.835938 2.945312 14.398438 2.945312 L 9.710938 2.945312 C 9.273438 2.945312 8.835938 3.164062 8.726562 3.601562 L 7.746094 5.78125 L 1.417969 5.78125 C 0.65625 5.78125 0 6.4375 0 7.199219 L 0 19.746094 C 0 20.507812 0.65625 21.164062 1.417969 21.164062 L 22.691406 21.164062 C 23.453125 21.164062 24.109375 20.507812 24.109375 19.746094 L 24.109375 7.199219 C 24 6.4375 23.453125 5.78125 22.691406 5.78125 Z M 22.910156 19.746094 C 22.910156 19.855469 22.800781 19.964844 22.691406 19.964844 L 1.417969 19.964844 C 1.308594 19.964844 1.199219 19.855469 1.199219 19.746094 L 1.199219 7.199219 C 1.199219 7.089844 1.308594 6.980469 1.417969 6.980469 L 8.507812 6.980469 L 9.710938 4.035156 L 14.398438 4.035156 L 15.601562 6.980469 L 22.691406 6.980469 C 22.800781 6.980469 22.910156 7.089844 22.910156 7.199219 Z M 22.910156 19.746094 "/>
</g>
</svg>
