<?xml version="1.0" encoding="utf-8"?>
<!-- Generator: Adobe Illustrator 21.1.0, SVG Export Plug-In . SVG Version: 6.00 Build 0)  -->
<svg version="1.1" id="Layer_1" xmlns="http://www.w3.org/2000/svg" xmlns:xlink="http://www.w3.org/1999/xlink" x="0px" y="0px"
	 viewBox="0 0 24 24" style="enable-background:new 0 0 24 24;" xml:space="preserve">
<path d="M23.7,23.4c-0.1,0.1-0.3,0.2-0.5,0.2s-0.4-0.1-0.5-0.2L12.2,13.1L1.5,23.8C1.3,23.9,1.1,24,0.9,24s-0.4-0.1-0.5-0.2
	C0,23.4,0,23,0.3,22.7L11,12L0.5,1.3C0.1,1,0.1,0.6,0.5,0.2c0.3-0.3,0.8-0.3,1.1,0l10.7,10.7L22.6,0.6c0.3-0.3,0.8-0.3,1.1,0
	c0.3,0.3,0.3,0.8,0,1.1L13.2,12l10.4,10.4C24,22.7,24,23.1,23.7,23.4z"/>
</svg>
