<?xml version="1.0" encoding="UTF-8"?>
<svg xmlns="http://www.w3.org/2000/svg" xmlns:xlink="http://www.w3.org/1999/xlink" width="24pt" height="24pt" viewBox="0 0 24 24" version="1.1">
<g id="surface1">
<path style=" stroke:none;fill-rule:nonzero;fill:rgb(0%,0%,0%);fill-opacity:1;" d="M 23.671875 23.453125 C 23.5625 23.5625 23.34375 23.671875 23.128906 23.671875 C 22.910156 23.671875 22.691406 23.5625 22.582031 23.453125 L 12.21875 13.089844 L 1.527344 23.78125 C 1.308594 23.890625 1.089844 24 0.871094 24 C 0.65625 24 0.4375 23.890625 0.328125 23.78125 C 0 23.453125 0 23.019531 0.328125 22.691406 L 11.019531 12 L 0.4375 1.308594 C 0.109375 0.980469 0.109375 0.546875 0.4375 0.21875 C 0.761719 -0.109375 1.199219 -0.109375 1.527344 0.21875 L 12.21875 10.910156 L 22.582031 0.546875 C 22.910156 0.21875 23.34375 0.21875 23.671875 0.546875 C 24 0.871094 24 1.308594 23.671875 1.636719 L 13.199219 12 L 23.5625 22.363281 C 24 22.691406 24 23.128906 23.671875 23.453125 Z M 23.671875 23.453125 "/>
</g>
</svg>
