<?xml version="1.0" encoding="utf-8"?>
<!-- Generator: Adobe Illustrator 21.1.0, SVG Export Plug-In . SVG Version: 6.00 Build 0)  -->
<svg version="1.1" id="Layer_1" xmlns="http://www.w3.org/2000/svg" xmlns:xlink="http://www.w3.org/1999/xlink" x="0px" y="0px"
	 viewBox="0 0 24 24" style="enable-background:new 0 0 24 24;" xml:space="preserve">
<path d="M22.1,7.1H1.9C0.9,7.1,0,8,0,9.1v5.9c0,1.1,0.9,1.9,1.9,1.9h20.2c1.1,0,1.9-0.9,1.9-1.9V9.1C24,8,23.1,7.1,22.1,7.1z
	 M22.5,14.9c0,0.2-0.2,0.4-0.4,0.4H1.9c-0.2,0-0.4-0.2-0.4-0.4V9.1c0-0.2,0.2-0.4,0.4-0.4h20.2c0.2,0,0.4,0.2,0.4,0.4V14.9z
	 M20.5,10.5H9.7c-0.7,0-1.2,0.6-1.2,1.2v0.6c0,0.7,0.6,1.2,1.2,1.2h10.8c0.7,0,1.2-0.6,1.2-1.2v-0.6C21.7,11,21.1,10.5,20.5,10.5z
	 M20.7,12.3c0,0.1-0.1,0.2-0.2,0.2H9.7c-0.1,0-0.2-0.1-0.2-0.2v-0.6c0-0.1,0.1-0.2,0.2-0.2h10.8c0.1,0,0.2,0.1,0.2,0.2V12.3z
	 M2.3,11.5h5.1v1H2.3V11.5z"/>
</svg>
