<?xml version="1.0" encoding="utf-8"?>
<!-- Generator: Adobe Illustrator 21.1.0, SVG Export Plug-In . SVG Version: 6.00 Build 0)  -->
<svg version="1.1" id="Layer_1" xmlns="http://www.w3.org/2000/svg" xmlns:xlink="http://www.w3.org/1999/xlink" x="0px" y="0px"
	 viewBox="0 0 24 24" style="enable-background:new 0 0 24 24;" xml:space="preserve">
<path d="M21.9,5.2H2.1c-1,0-1.9,0.8-1.9,1.9v5.7c0,1,0.8,1.9,1.9,1.9h19.7c1,0,1.9-0.8,1.9-1.9V7.1C23.8,6.1,22.9,5.2,21.9,5.2z
	 M22.2,12.9c0,0.2-0.2,0.4-0.4,0.4H2.1c-0.2,0-0.4-0.2-0.4-0.4V7.1c0-0.2,0.2-0.4,0.4-0.4h19.7c0.2,0,0.4,0.2,0.4,0.4V12.9z
	 M14.3,8.5H3.7C3,8.5,2.5,9,2.5,9.7v0.6c0,0.7,0.5,1.2,1.2,1.2h10.6c0.7,0,1.2-0.5,1.2-1.2V9.7C15.5,9,15,8.5,14.3,8.5z M14.5,10.3
	c0,0.1-0.1,0.2-0.2,0.2H3.7c-0.1,0-0.2-0.1-0.2-0.2V9.7c0-0.1,0.1-0.2,0.2-0.2h10.6c0.1,0,0.2,0.1,0.2,0.2V10.3z M16.5,9.5h5v1h-5
	V9.5z"/>
</svg>
