<?xml version="1.0" encoding="utf-8"?>
<!-- Generator: Adobe Illustrator 21.1.0, SVG Export Plug-In . SVG Version: 6.00 Build 0)  -->
<svg version="1.1" id="Layer_1" xmlns="http://www.w3.org/2000/svg" xmlns:xlink="http://www.w3.org/1999/xlink" x="0px" y="0px"
	 viewBox="0 0 24 24" style="enable-background:new 0 0 24 24;" xml:space="preserve">
<path d="M11.1,7.5H1.8V5.6h9.2V7.5z M2.2,9.3h19.6c1.3,0,2.2,0.9,2.2,2.2v1.1c0,1.3-0.9,2.2-2.2,2.2H2.2c-1.3,0-2.2-0.9-2.2-2.2
	v-1.1C0,10.2,0.9,9.3,2.2,9.3z M1.8,12.6C1.8,12.8,2,13,2.2,13h19.6c0.2,0,0.4-0.2,0.4-0.4v-1.1c0-0.2-0.2-0.4-0.4-0.4H2.2
	c-0.2,0-0.4,0.2-0.4,0.4V12.6z"/>
</svg>
