<?xml version="1.0" encoding="utf-8"?>
<!-- Generator: Adobe Illustrator 21.1.0, SVG Export Plug-In . SVG Version: 6.00 Build 0)  -->
<svg version="1.1" id="Layer_1" xmlns="http://www.w3.org/2000/svg" xmlns:xlink="http://www.w3.org/1999/xlink" x="0px" y="0px"
	 viewBox="0 0 24 24" style="enable-background:new 0 0 24 24;" xml:space="preserve">
<path d="M0.4,12.7c0.3,0.3,0.6,0.4,1.1,0.4h13.4c0.9,0,1.5-0.6,1.5-1.5v-0.8c0-0.9-0.6-1.5-1.5-1.5H1.5C0.6,9.4,0,10,0,10.9v0.8
	c0,0.1,0,0.2,0.1,0.3C0.2,12.2,0.3,12.5,0.4,12.7z M1.3,10.9c0-0.1,0.1-0.3,0.3-0.3h13.4c0.1,0,0.3,0.1,0.3,0.3v0.8
	c0,0.1-0.1,0.3-0.3,0.3H1.5c-0.1,0-0.3-0.1-0.3-0.3V10.9z M24,10.6v1.3h-6.3v-1.3H24z"/>
</svg>
