<?xml version="1.0" encoding="utf-8"?>
<!-- Generator: Adobe Illustrator 21.1.0, SVG Export Plug-In . SVG Version: 6.00 Build 0)  -->
<svg version="1.1" id="Layer_1" xmlns="http://www.w3.org/2000/svg" xmlns:xlink="http://www.w3.org/1999/xlink" x="0px" y="0px"
	 viewBox="0 0 24 24" style="enable-background:new 0 0 24 24;" xml:space="preserve">
<path d="M21.9,5.2H2.1c-1,0-1.9,0.8-1.9,1.9v5.7c0,1,0.8,1.9,1.9,1.9h19.7c1,0,1.9-0.8,1.9-1.9V7.1C23.8,6.1,22.9,5.2,21.9,5.2z
	 M22.2,12.9c0,0.2-0.2,0.4-0.4,0.4H2.1c-0.2,0-0.4-0.2-0.4-0.4V7.1c0-0.2,0.2-0.4,0.4-0.4h19.7c0.2,0,0.4,0.2,0.4,0.4V12.9z
	 M15.3,9.5H4.7C4,9.5,3.5,10,3.5,10.7v0.6c0,0.7,0.5,1.2,1.2,1.2h10.6c0.7,0,1.2-0.5,1.2-1.2v-0.6C16.5,10,16,9.5,15.3,9.5z
	 M15.5,11.3c0,0.1-0.1,0.2-0.2,0.2H4.7c-0.1,0-0.2-0.1-0.2-0.2v-0.6c0-0.1,0.1-0.2,0.2-0.2h10.6c0.1,0,0.2,0.1,0.2,0.2V11.3z
	 M9.5,8.5h-5v-1h5V8.5z"/>
</svg>
