<?xml version="1.0" encoding="utf-8"?>
<!-- Generator: Adobe Illustrator 21.1.0, SVG Export Plug-In . SVG Version: 6.00 Build 0)  -->
<svg version="1.1" id="Layer_1" xmlns="http://www.w3.org/2000/svg" xmlns:xlink="http://www.w3.org/1999/xlink" x="0px" y="0px"
	 viewBox="0 0 24 24" style="enable-background:new 0 0 24 24;" xml:space="preserve">
<path d="M7.6,6.4L7.6,6.4c-0.1,0-0.1,0-0.1,0L7.4,6.3l-0.1,0C6,6.2,5.4,7,5.3,7.3C5,7.7,5.1,8.2,5.2,8.4v0.2l8.5,8.7l2.8,1.4l0,0
	l0.3,0l0.9,0.2l-0.4-0.8V18l-1.1-2.4L7.6,6.4L7.6,6.4z M15.5,16.9l-0.1-0.1c0,0,0.1,0,0.1-0.1L15.5,16.9z M14.8,15.7
	c0,0-0.1,0.1-0.1,0.1c-0.1,0.1-0.2,0.2-0.4,0.3c0,0,0,0-0.1,0.1L8,9.7c0.2-0.1,0.4-0.3,0.6-0.5l0,0L14.8,15.7z M7.4,7.9
	C7.3,8.1,7.2,8.3,7,8.3c-0.1,0-0.2,0-0.3,0.1c0,0,0,0,0,0L6.3,8c0-0.1,0-0.1,0-0.1l0-0.1c0-0.1,0.1-0.3,0.6-0.3L7.4,7.9z M24,5.1
	c-0.1,0.3-0.5,0.5-0.9,0.5L19.5,5l-0.5,3.5c0,0.2-0.1,0.3-0.2,0.4c-0.2,0.2-0.4,0.3-0.6,0.3c-0.5,0-0.7-0.4-0.7-0.8L18,4
	c0-0.2,0.1-0.4,0.2-0.5c0.1-0.1,0.3-0.2,0.5-0.2h0.2L23.3,4l0.1,0l0.1,0C23.8,4.3,24.1,4.7,24,5.1z M21.4,5.7c1.3,1.9,2,4.2,2,6.6
	c0,6.4-5.2,11.7-11.7,11.7C5.2,24,0,18.7,0,12.3C0,5.7,5.2,0.6,11.8,0.6l0.1,0c0.4,0.1,0.7,0.4,0.7,0.8l0,0.1
	c-0.1,0.4-0.4,0.7-0.8,0.7C6,2.2,1.6,6.6,1.6,12.3S6,22.4,11.7,22.4S21.8,18,21.8,12.3c0-2-0.6-4-1.7-5.7l0-0.1V6.4
	C20,6.3,19.9,6.1,20,5.9c0.1-0.2,0.2-0.4,0.4-0.5C20.7,5.3,21.2,5.4,21.4,5.7z"/>
</svg>
