<?xml version="1.0" encoding="utf-8"?>
<!-- Generator: Adobe Illustrator 21.1.0, SVG Export Plug-In . SVG Version: 6.00 Build 0)  -->
<svg version="1.1" id="Layer_1" xmlns="http://www.w3.org/2000/svg" xmlns:xlink="http://www.w3.org/1999/xlink" x="0px" y="0px"
	 viewBox="0 0 24 24" style="enable-background:new 0 0 24 24;" xml:space="preserve">
<path d="M24,4.8c-0.1,0.3-0.4,0.4-0.7,0.4l-3.8-0.7L19,8.3c0,0.3-0.3,0.5-0.6,0.5c-0.3,0-0.5-0.3-0.5-0.6l0.5-4.4
	c0-0.3,0.2-0.5,0.5-0.5c0.1,0,0.1,0,0.2,0l4.4,0.8c0,0,0.1,0,0.1,0C23.9,4.3,24.1,4.6,24,4.8z M20.7,5.5c-0.3,0.1-0.4,0.5-0.2,0.7
	c0,0,0,0.1,0,0.1c1.1,1.7,1.8,3.8,1.8,6c0,5.9-4.7,10.6-10.6,10.6c-5.9,0-10.6-4.7-10.6-10.6S5.8,1.7,11.7,1.7
	c0.3,0,0.5-0.2,0.6-0.5c0-0.3-0.2-0.5-0.5-0.6c0,0,0,0,0,0C5.2,0.6,0,5.8,0,12.3C0,18.8,5.2,24,11.7,24s11.7-5.2,11.7-11.7
	c0-2.4-0.7-4.7-2-6.6C21.3,5.5,20.9,5.4,20.7,5.5z M7.4,6.5l8.7,9.2l1.1,2.4c0,0.1,0,0.2,0,0.2l0.2,0.4L17,18.6c0,0-0.1,0-0.1,0
	h-0.1l-0.1,0l-2.8-1.4L5.3,8.4l0-0.1c-0.1-0.3-0.1-0.7,0.1-1c0.2-0.4,0.7-1,1.8-0.9C7.2,6.4,7.3,6.5,7.4,6.5z M15.6,16.4
	c-0.2,0.2-0.4,0.4-0.7,0.5l1.2,0.6L15.6,16.4z M8.3,9C8.1,9.3,7.8,9.5,7.5,9.6l6.8,6.9c0.1,0,0.2-0.1,0.3-0.2
	c0.3-0.2,0.5-0.4,0.7-0.5L8.5,8.7L8.3,9z M7.6,7.7L7,7.1c-0.7,0-0.9,0.2-1,0.5C5.9,7.7,5.9,7.9,5.9,8l0.6,0.6c0.1,0,0.3-0.1,0.4-0.1
	C7.3,8.4,7.5,8.1,7.6,7.7z"/>
</svg>
