<?xml version="1.0" encoding="utf-8"?>
<!-- Generator: Adobe Illustrator 21.1.0, SVG Export Plug-In . SVG Version: 6.00 Build 0)  -->
<svg version="1.1" id="Layer_1" xmlns="http://www.w3.org/2000/svg" xmlns:xlink="http://www.w3.org/1999/xlink" x="0px" y="0px"
	 viewBox="0 0 19 19" style="enable-background:new 0 0 19 19;" xml:space="preserve">
<path d="M16.8,0.8H2.2C1,0.8,0,1.8,0,3v15.3c0,0.3,0.2,0.5,0.4,0.6C0.5,19,0.6,19,0.7,19c0.2,0,0.4-0.1,0.5-0.2l4.6-4.6h11
	c1.2,0,2.2-1,2.2-2.2V3C19,1.8,18,0.8,16.8,0.8z M1.4,3c0-0.5,0.4-0.8,0.8-0.8h14.6c0.5,0,0.8,0.4,0.8,0.8V12c0,0.5-0.4,0.8-0.8,0.8
	H5.5c-0.2,0-0.4,0.1-0.5,0.2l-3.7,3.7V3z"/>
</svg>
