<?xml version="1.0" encoding="utf-8"?>
<!-- Generator: Adobe Illustrator 21.1.0, SVG Export Plug-In . SVG Version: 6.00 Build 0)  -->
<svg version="1.1" id="Layer_1" xmlns="http://www.w3.org/2000/svg" xmlns:xlink="http://www.w3.org/1999/xlink" x="0px" y="0px"
	 viewBox="0 0 24 24" style="enable-background:new 0 0 24 24;" xml:space="preserve">
<path d="M19.8,9.6c0,0.4-0.4,0.7-0.7,0.7H4.6c-0.4,0-0.7-0.4-0.7-0.7s0.4-0.7,0.7-0.7H19C19.4,8.9,19.8,9.2,19.8,9.6z M13.3,12.4
	H4.6c-0.4,0-0.7,0.4-0.7,0.7c0,0.4,0.4,0.7,0.7,0.7h8.7c0.4,0,0.7-0.4,0.7-0.7C14,12.6,13.7,12.4,13.3,12.4z M19,5.3H4.6
	C4.2,5.3,3.9,5.6,3.9,6s0.4,0.7,0.7,0.7h14.5c0.4,0,0.7-0.4,0.7-0.7C19.8,5.6,19.5,5.3,19,5.3z M24,4.6v10.3c0,2.4-2,4.5-4.5,4.5
	h-2.7l-1.2,3.9c0,0.1-0.1,0.1-0.1,0.2v0.1l0,0c-0.1,0.1-0.5,0.4-0.9,0.4c-0.3,0-0.6-0.2-0.8-0.4l-4.1-4.3H4.5c-2.4,0-4.5-2-4.5-4.5
	V4.6c0-2.4,2-4.5,4.5-4.5h15C21.9,0.1,23.9,2.1,24,4.6z M19.6,1.7H4.5C2.9,1.7,1.6,3,1.6,4.6v10.3c0,1.6,1.3,2.9,2.9,2.9h5.7
	c0.1,0,0.4,0.1,0.5,0.2l3.9,4l1-3.7c0.1-0.4,0.4-0.6,0.7-0.6h3.3c1.6,0,2.9-1.3,2.9-2.9V4.6C22.5,3,21.2,1.7,19.6,1.7z"/>
</svg>
