<?xml version="1.0" encoding="utf-8"?>
<!-- Generator: Adobe Illustrator 21.1.0, SVG Export Plug-In . SVG Version: 6.00 Build 0)  -->
<svg version="1.1" id="Layer_1" xmlns="http://www.w3.org/2000/svg" xmlns:xlink="http://www.w3.org/1999/xlink" x="0px" y="0px"
	 viewBox="0 0 24 24" style="enable-background:new 0 0 24 24;" xml:space="preserve">
<path d="M19.6,0.1H4.4C2,0.1,0,2.1,0,4.5v10.3c0,2.4,2,4.4,4.4,4.4h5.5v0l4.2,4.4c0.2,0.2,0.4,0.4,0.7,0.4s0.6-0.2,0.8-0.4
	c0-0.1,0.1-0.1,0.1-0.2l1.2-4.1h2.8c2.4,0,4.4-2,4.4-4.4V4.5C24,2.1,22,0.1,19.6,0.1z M22.8,14.8c0,1.7-1.4,3.1-3.1,3.1h-3.3
	c-0.3,0-0.5,0.2-0.6,0.5l-1.1,4l-4.1-4.2c-0.1-0.1-0.3-0.2-0.4-0.2H4.4c-1.7,0-3.1-1.4-3.1-3.1V4.5c0-1.7,1.4-3.1,3.1-3.1h15.3
	c1.7,0,3.1,1.4,3.1,3.1V14.8z M19.8,5.9c0,0.3-0.3,0.6-0.6,0.6H4.5c-0.3,0-0.6-0.3-0.6-0.6s0.3-0.6,0.6-0.6h14.6
	C19.5,5.3,19.8,5.6,19.8,5.9z M19.8,9.6c0,0.3-0.3,0.6-0.6,0.6H4.5c-0.3,0-0.6-0.3-0.6-0.6C3.9,9.3,4.2,9,4.5,9h14.6
	C19.5,9,19.8,9.3,19.8,9.6z M13.9,13.1c0,0.3-0.3,0.6-0.6,0.6H4.5c-0.3,0-0.6-0.3-0.6-0.6s0.3-0.6,0.6-0.6h8.8
	C13.7,12.5,13.9,12.7,13.9,13.1z"/>
</svg>
