<?xml version="1.0" encoding="utf-8"?>
<!-- Generator: Adobe Illustrator 21.1.0, SVG Export Plug-In . SVG Version: 6.00 Build 0)  -->
<svg version="1.1" id="Layer_1" xmlns="http://www.w3.org/2000/svg" xmlns:xlink="http://www.w3.org/1999/xlink" x="0px" y="0px"
	 viewBox="0 0 24 24" style="enable-background:new 0 0 24 24;" xml:space="preserve">
<path transform="translate(0,-952.36218)" d="M23.4,953.7c-0.1,0-0.2,0.1-0.3,0.2c-3,3.1-9.8,10.5-13,13.8l-4.2-3.7
	c-0.2-0.2-0.6-0.2-0.8,0c-0.2,0.2-0.2,0.6,0,0.8l0,0l4.6,4.1c0.2,0.2,0.6,0.2,0.8,0c3-3.2,10.3-11,13.4-14.2c0.2-0.2,0.2-0.6,0-0.8
	C23.7,953.8,23.5,953.7,23.4,953.7L23.4,953.7z M11,954.3c-1.3,0-2.7,0.2-4,0.7c-5.6,2.1-8.5,8.4-6.3,14.1c2.1,5.6,8.4,8.5,14.1,6.3
	c5.6-2.1,8.5-8.4,6.3-14.1c-0.1-0.3-0.4-0.5-0.7-0.4c-0.3,0.1-0.5,0.4-0.4,0.7c0,0,0,0.1,0,0.1c1.9,5.1-0.6,10.7-5.7,12.6
	c-5.1,1.9-10.7-0.6-12.7-5.7s0.6-10.7,5.7-12.6c3.1-1.2,6.6-0.7,9.3,1.2c0.3,0.2,0.6,0.1,0.8-0.2c0.1-0.2,0.1-0.5-0.1-0.7
	C15.5,955,13.3,954.3,11,954.3z"/>
</svg>
