<?xml version="1.0" encoding="utf-8"?>
<!-- Generator: Adobe Illustrator 21.1.0, SVG Export Plug-In . SVG Version: 6.00 Build 0)  -->
<svg version="1.1" id="Layer_1" xmlns="http://www.w3.org/2000/svg" xmlns:xlink="http://www.w3.org/1999/xlink" x="0px" y="0px"
	 viewBox="0 0 24 24" style="enable-background:new 0 0 24 24;" xml:space="preserve">
<path d="M23.9,2.8c-1.5,1.5-4,4.3-6.5,6.9c-2.5,2.6-5,5.4-6.5,6.9c-0.2,0.2-0.4,0.2-0.5,0.2c-0.2,0-0.4-0.1-0.5-0.2l-4.5-4
	c-0.2-0.1-0.3-0.3-0.3-0.5c0-0.2,0-0.4,0.2-0.6c0.1-0.1,0.2-0.2,0.4-0.2c0.3,0,0.5,0,0.7,0.2l4,3.4c1.6-1.7,4.1-4.4,6.6-7
	c2.3-2.5,4.5-4.8,5.9-6.2c0.1-0.1,0.3-0.3,0.5-0.3c0.3,0,0.6,0.1,0.9,0.4l0,0.1C24.2,2.2,24,2.6,23.9,2.8z M19.4,11.2
	c-0.5,0-0.8,0.3-0.8,0.8V21h-17V4h15.7c0.4,0,0.8-0.3,0.8-0.8c0-0.5-0.3-0.8-0.8-0.8H0.9c-0.5,0-0.8,0.5-0.8,0.8v18.6
	c0,0.5,0.3,0.8,0.8,0.8h18.6c0.5,0,0.8-0.3,0.8-0.8v-9.9C20.2,11.5,19.9,11.2,19.4,11.2z"/>
</svg>
