<?xml version="1.0" encoding="UTF-8"?>
<svg xmlns="http://www.w3.org/2000/svg" xmlns:xlink="http://www.w3.org/1999/xlink" width="24pt" height="24pt" viewBox="0 0 24 24" version="1.1">
<g id="surface1">
<path style=" stroke:none;fill-rule:nonzero;fill:rgb(0%,0%,0%);fill-opacity:1;" d="M 9.710938 15.601562 L 10.363281 15.601562 L 10.363281 18.71875 C 10.363281 19.078125 10.144531 19.441406 9.710938 19.441406 L 4.800781 19.441406 C 4.472656 19.441406 4.144531 19.199219 4.144531 18.71875 L 4.144531 13.320312 C 4.144531 12.960938 4.363281 12.601562 4.800781 12.601562 L 9.164062 12.601562 L 9.164062 13.320312 L 4.800781 13.320312 L 4.800781 18.71875 L 9.710938 18.71875 Z M 19.964844 7.320312 L 12.761719 7.320312 L 12.761719 8.878906 L 19.964844 8.878906 Z M 19.964844 15.121094 L 12.761719 15.121094 L 12.761719 16.800781 L 19.964844 16.800781 Z M 24 0.121094 L 24 23.878906 L 0 23.878906 L 0 0.121094 Z M 23.128906 0.960938 L 0.761719 0.960938 L 0.761719 23.039062 L 23.128906 23.039062 Z M 4.035156 9.960938 L 4.035156 4.558594 C 4.035156 4.078125 4.363281 3.839844 4.800781 3.839844 L 9.601562 3.839844 C 9.925781 3.839844 10.253906 4.078125 10.253906 4.558594 L 10.253906 9.960938 C 10.253906 10.320312 10.035156 10.679688 9.601562 10.679688 L 4.691406 10.679688 C 4.363281 10.679688 4.035156 10.441406 4.035156 9.960938 Z M 4.691406 9.960938 L 9.492188 9.960938 L 9.492188 4.558594 L 4.691406 4.558594 Z M 6 14.761719 L 5.453125 15.359375 L 7.308594 17.398438 L 11.453125 12.839844 L 10.910156 12.238281 L 7.308594 16.199219 Z M 6 14.761719 "/>
</g>
</svg>
