<?xml version="1.0" encoding="utf-8"?>
<!-- Generator: Adobe Illustrator 21.1.0, SVG Export Plug-In . SVG Version: 6.00 Build 0)  -->
<svg version="1.1" id="Layer_1" xmlns="http://www.w3.org/2000/svg" xmlns:xlink="http://www.w3.org/1999/xlink" x="0px" y="0px"
	 viewBox="0 0 24 24" style="enable-background:new 0 0 24 24;" xml:space="preserve">
<path d="M21.1,8.9c1.1,2.7,1,5.7-0.2,8.4C19.7,20,17.5,22,14.8,23c-1.3,0.5-2.6,0.7-3.9,0.7c-1.5,0-3-0.3-4.4-1
	c-2.7-1.2-4.7-3.4-5.7-6.1C-0.3,14-0.2,11,1,8.4C2.2,5.7,4.3,3.7,7,2.6c1.2-0.5,2.6-0.7,4-0.7c2.3,0,4.5,0.7,6.3,2
	c0.3,0.3,0.3,0.7,0.2,1c-0.3,0.4-0.7,0.5-1.1,0.3c-2.6-1.9-5.9-2.3-8.9-1.1C5.1,5,3.2,6.7,2.2,9c-1,2.2-1.1,4.8-0.1,7.1
	c1.9,4.9,7.2,7.2,12.1,5.4c2.3-0.9,4.2-2.6,5.2-4.8c1-2.3,1.1-4.8,0.2-7.1l0-0.1c-0.1-0.4,0.1-0.8,0.6-1c0.2-0.1,0.4,0,0.6,0.1
	C20.9,8.6,21,8.7,21.1,8.9z M23.8,1.6L23.8,1.6c-0.3-0.2-0.5-0.3-0.7-0.3c-0.2,0-0.3,0.1-0.5,0.3c-1.4,1.5-3.7,3.9-6.1,6.4
	c-2.4,2.6-4.8,5.2-6.5,6.9l-3.9-3.4c-0.3-0.3-0.8-0.3-1.1,0c-0.1,0.1-0.2,0.3-0.2,0.6c0,0.2,0.1,0.4,0.2,0.6l4.5,4
	c0.1,0.1,0.3,0.2,0.6,0.2c0,0,0,0,0,0c0.2,0,0.4-0.1,0.6-0.2l0.9-0.9C14.9,12.1,21,5.6,23.8,2.8C24.1,2.5,24.1,1.9,23.8,1.6z"/>
</svg>
