<?xml version="1.0" encoding="utf-8"?>
<!-- Generator: Adobe Illustrator 21.1.0, SVG Export Plug-In . SVG Version: 6.00 Build 0)  -->
<svg version="1.1" id="Layer_1" xmlns="http://www.w3.org/2000/svg" xmlns:xlink="http://www.w3.org/1999/xlink" x="0px" y="0px"
	 viewBox="0 0 24 24" style="enable-background:new 0 0 24 24;" xml:space="preserve">
<path d="M0,0.1v23.8h24V0.1H0z M1.2,22.6V1.4h21.4v21.1H1.2z M12.5,7.2H20v2h-7.5V7.2z M4.8,11h4.8c0.6,0,0.9-0.5,0.9-0.9V4.7
	c0-0.6-0.4-0.9-0.9-0.9H4.9c-0.6,0-1,0.4-1,0.9V10C4,10.6,4.4,11,4.8,11z M5.1,9.8V5h4.2v4.8H5.1z M12.5,14.8H20v2.1h-7.5V14.8z
	 M10.9,11.9l-1.5,1.6v-1.1H4.9c-0.6,0-0.9,0.5-0.9,0.9v5.3c0,0.6,0.4,1,0.9,1h4.8c0.6,0,0.9-0.5,0.9-1v-3.3H9.6l2.2-2.5L10.9,11.9z
	 M7.4,15.8l-1.3-1.4l-0.9,0.9l2.1,2.4l2.1-2.3v3H5.2v-4.8h4.2L7.4,15.8z"/>
</svg>
