<?xml version="1.0" encoding="UTF-8"?>
<svg xmlns="http://www.w3.org/2000/svg" xmlns:xlink="http://www.w3.org/1999/xlink" width="24pt" height="24pt" viewBox="0 0 24 24" version="1.1">
<g id="surface1">
<path style=" stroke:none;fill-rule:nonzero;fill:rgb(0%,0%,0%);fill-opacity:1;" d="M 23.34375 1.351562 C 23.238281 1.351562 23.128906 1.460938 23.019531 1.570312 C 20.074219 4.625 13.199219 12.042969 10.035156 15.3125 L 5.78125 11.605469 C 5.5625 11.386719 5.128906 11.386719 5.019531 11.605469 C 4.800781 11.824219 4.910156 12.257812 5.128906 12.367188 L 9.816406 16.515625 C 10.035156 16.730469 10.363281 16.730469 10.582031 16.515625 C 13.636719 13.351562 20.945312 5.496094 24 2.332031 C 24.109375 2.222656 24.21875 1.894531 24.109375 1.675781 C 23.890625 1.460938 23.5625 1.351562 23.34375 1.351562 Z M 0 2.988281 L 0 22.078125 C 0 22.40625 0.21875 22.625 0.546875 22.625 L 19.636719 22.625 C 19.964844 22.625 20.183594 22.40625 20.183594 22.078125 L 20.183594 11.933594 C 20.183594 11.605469 19.964844 11.386719 19.636719 11.386719 C 19.308594 11.386719 19.089844 11.605469 19.089844 11.933594 L 19.089844 21.53125 L 1.089844 21.53125 L 1.089844 3.53125 L 17.453125 3.53125 C 17.78125 3.53125 18 3.3125 18 2.988281 C 18 2.660156 17.78125 2.441406 17.453125 2.441406 L 0.546875 2.441406 C 0.21875 2.441406 0 2.769531 0 2.988281 Z M 0 2.988281 "/>
</g>
</svg>
