<?xml version="1.0" encoding="utf-8"?>
<!-- Generator: Adobe Illustrator 21.1.0, SVG Export Plug-In . SVG Version: 6.00 Build 0)  -->
<svg version="1.1" id="Layer_1" xmlns="http://www.w3.org/2000/svg" xmlns:xlink="http://www.w3.org/1999/xlink" x="0px" y="0px"
	 viewBox="0 0 24 24" style="enable-background:new 0 0 24 24;" xml:space="preserve">
<path transform="translate(592.94753,-1935.4889)" d="M-592.6,1952.7c-0.2-0.2-0.3-0.4-0.3-0.4c0,0,2.7-2.8,6-6.1l6-6l6,6
	c3.3,3.3,6,6,6,6.1c0,0.1-0.7,0.8-0.7,0.8c0,0-2.5-2.5-5.6-5.6c-3.1-3.1-5.6-5.6-5.6-5.6c0,0-2.6,2.5-5.6,5.6
	c-3.1,3.1-5.6,5.6-5.6,5.6C-592.2,1953-592.4,1952.9-592.6,1952.7L-592.6,1952.7z"/>
</svg>
