<?xml version="1.0" encoding="utf-8"?>
<!-- Generator: Adobe Illustrator 21.1.0, SVG Export Plug-In . SVG Version: 6.00 Build 0)  -->
<svg version="1.1" id="Layer_1" xmlns="http://www.w3.org/2000/svg" xmlns:xlink="http://www.w3.org/1999/xlink" x="0px" y="0px"
	 viewBox="0 0 24 24" style="enable-background:new 0 0 24 24;" xml:space="preserve">
<path d="M24,16.7c0,0,0,0.2-0.7,0.9l-0.1,0.1l-0.1-0.1l-11-11c-0.5,0.5-2.8,2.7-5.4,5.4l-5.6,5.6l-0.1,0c-0.2-0.1-0.4-0.2-0.6-0.4v0
	C0.1,17,0,16.8,0,16.8l0-0.1L0,16.7c0,0,2.7-2.8,5.9-6l6-6l0.1,0.1l5.9,5.9C23.8,16.4,24,16.6,24,16.7z"/>
</svg>
