<?xml version="1.0" encoding="utf-8"?>
<!-- Generator: Adobe Illustrator 21.1.0, SVG Export Plug-In . SVG Version: 6.00 Build 0)  -->
<svg version="1.1" id="Layer_1" xmlns="http://www.w3.org/2000/svg" xmlns:xlink="http://www.w3.org/1999/xlink" x="0px" y="0px"
	 viewBox="0 0 24 24" style="enable-background:new 0 0 24 24;" xml:space="preserve">
<path d="M24,7.4L24,7.4L24,7.4L12,19.4l0,0.1l-0.1,0h-0.3l0.1-0.1c-0.2-0.2-0.8-0.9-1.6-1.7c-1.1-1.1-2.6-2.6-4.2-4.2l-6-6V7.4
	c0-0.2,0.7-0.9,0.9-0.9h0l0,0c0,0,2.6,2.5,5.6,5.6l5.5,5.5c0.5-0.5,2.8-2.7,5.5-5.5l5.6-5.6h0.1C23.4,6.5,24,7.2,24,7.4z"/>
</svg>
