<?xml version="1.0" encoding="utf-8"?>
<!-- Generator: Adobe Illustrator 21.1.0, SVG Export Plug-In . SVG Version: 6.00 Build 0)  -->
<svg version="1.1" id="Layer_1" xmlns="http://www.w3.org/2000/svg" xmlns:xlink="http://www.w3.org/1999/xlink" x="0px" y="0px"
	 viewBox="0 0 24 24" style="enable-background:new 0 0 24 24;" xml:space="preserve">
<path transform="translate(-139.46128,-425.04095)" d="M145.5,438.4c-3.3-3.3-6-6-6-6c0-0.1,0.7-0.8,0.8-0.8c0,0,2.6,2.5,5.6,5.6
	c3.1,3.1,5.6,5.6,5.6,5.6c0,0,2.6-2.5,5.6-5.6c3.1-3.1,5.6-5.6,5.6-5.6c0.1,0,0.7,0.7,0.7,0.8c0,0-12,12-12,12
	C151.5,444.4,148.7,441.7,145.5,438.4L145.5,438.4z"/>
</svg>
