<?xml version="1.0" encoding="utf-8"?>
<!-- Generator: Adobe Illustrator 21.1.0, SVG Export Plug-In . SVG Version: 6.00 Build 0)  -->
<svg version="1.1" id="Layer_1" xmlns="http://www.w3.org/2000/svg" xmlns:xlink="http://www.w3.org/1999/xlink" x="0px" y="0px"
	 viewBox="0 0 24 24" style="enable-background:new 0 0 24 24;" xml:space="preserve">
<path d="M17.8,5.3c0-0.5-0.4-0.9-0.9-0.9h-16C0.4,4.4,0,4.8,0,5.3s0.4,0.9,0.9,0.9h16C17.4,6.2,17.8,5.8,17.8,5.3z M23.1,17.8h-16
	c-0.5,0-0.9,0.4-0.9,0.9s0.4,0.9,0.9,0.9h16c0.5,0,0.9-0.4,0.9-0.9S23.6,17.8,23.1,17.8z M20.9,12c0-0.5-0.4-0.9-0.9-0.9H4
	c-0.5,0-0.9,0.4-0.9,0.9s0.4,0.9,0.9,0.9h16C20.5,12.9,20.9,12.5,20.9,12z"/>
</svg>
