<?xml version="1.0" encoding="utf-8"?>
<!-- Generator: Adobe Illustrator 21.1.0, SVG Export Plug-In . SVG Version: 6.00 Build 0)  -->
<svg version="1.1" id="Layer_1" xmlns="http://www.w3.org/2000/svg" xmlns:xlink="http://www.w3.org/1999/xlink" x="0px" y="0px"
	 viewBox="0 0 24 24" style="enable-background:new 0 0 24 24;" xml:space="preserve">
<path d="M23.8,0.2c-0.3-0.3-0.8-0.3-1.1,0L12,10.9L1.3,0.2C1-0.1,0.5-0.1,0.2,0.2c-0.3,0.3-0.3,0.8,0,1.1L10.9,12L0.2,22.7
	c-0.3,0.3-0.3,0.8,0,1.1C0.4,23.9,0.6,24,0.8,24c0.2,0,0.4-0.1,0.5-0.2L12,13.1l10.7,10.7c0.2,0.2,0.3,0.2,0.5,0.2s0.4-0.1,0.5-0.2
	c0.3-0.3,0.3-0.8,0-1.1L13.1,12L23.8,1.3C24.1,1,24.1,0.5,23.8,0.2z"/>
</svg>
