<?xml version="1.0" encoding="utf-8"?>
<!-- Generator: Adobe Illustrator 21.1.0, SVG Export Plug-In . SVG Version: 6.00 Build 0)  -->
<svg version="1.1" id="Layer_1" xmlns="http://www.w3.org/2000/svg" xmlns:xlink="http://www.w3.org/1999/xlink" x="0px" y="0px"
	 viewBox="0 0 24 24" style="enable-background:new 0 0 24 24;" xml:space="preserve">
<path d="M9.8,22.3l13-13.1C22.9,9,23,8.8,23,8.6c0-0.2-0.1-0.5-0.3-0.6l-7.6-7.7C14.9,0.1,14.7,0,14.5,0c-0.2,0-0.5,0.1-0.6,0.3
	l-13,13.1c-1.1,1.1-1.1,2.9,0,4l4.9,4.9c0,0,0,0,0,0H0V24h23v-1.7L9.8,22.3C9.7,22.3,9.7,22.3,9.8,22.3z M14.5,2.1l6.4,6.4l-9.2,9.3
	l-6.4-6.4L14.5,2.1z M2.1,16c-0.2-0.2-0.3-0.5-0.3-0.8c0-0.3,0.1-0.5,0.3-0.7L4,12.7l6.4,6.4L8.5,21c-0.3,0.4-1.1,0.4-1.4,0L2.1,16z
	"/>
</svg>
