<?xml version="1.0" encoding="utf-8"?>
<!-- Generator: Adobe Illustrator 21.1.0, SVG Export Plug-In . SVG Version: 6.00 Build 0)  -->
<svg version="1.1" id="Layer_1" xmlns="http://www.w3.org/2000/svg" xmlns:xlink="http://www.w3.org/1999/xlink" x="0px" y="0px"
	 viewBox="0 0 24 24" style="enable-background:new 0 0 24 24;" xml:space="preserve">
<path d="M15.5,21c0,0.4-0.3,0.7-0.7,0.7H1.5c-0.4,0-0.7-0.3-0.7-0.7c0-0.4,0.3-0.7,0.7-0.7h13.2C15.1,20.3,15.5,20.6,15.5,21z
	 M23.1,22.8L21.3,21l1.8-1.8c0.1-0.1,0.3-0.3,0.3-0.6c0-0.2,0-0.3-0.1-0.4v-0.1l-0.1-0.1C23,18,22.8,18,22.6,18
	c-0.1,0-0.2,0-0.3,0.1c0,0-0.1,0-0.1,0h-0.1l-1.8,1.8l-1.8-1.8c-0.3-0.3-0.7-0.3-1,0c-0.3,0.3-0.3,0.7,0,1l1.8,1.8l-1.8,1.8
	c-0.3,0.3-0.3,0.7,0,1c0.3,0.3,0.7,0.3,1,0l1.8-1.8l1.8,1.8c0.1,0.1,0.3,0.3,0.6,0.3c0.1,0,0.2,0,0.3-0.1c0,0,0.1,0,0.1,0h0.1
	l0.1-0.1C23.4,23.5,23.4,23.1,23.1,22.8z M14.6,0H1.4C1,0,0.7,0.3,0.7,0.7v2.1c0,0.4,0.4,0.7,0.8,0.7c0.4,0,0.7-0.3,0.7-0.7V1.5h5
	v15.1H6.1c-0.4,0-0.7,0.3-0.7,0.7S5.7,18,6.1,18h4c0.4,0,0.7-0.3,0.7-0.7s-0.3-0.7-0.7-0.7H8.8V1.5H14v1.4c0,0.4,0.3,0.7,0.7,0.7
	c0.4,0,0.7-0.3,0.7-0.7V0.7C15.5,0.3,15.1,0,14.6,0z"/>
</svg>
