<?xml version="1.0" encoding="utf-8"?>
<!-- Generator: Adobe Illustrator 21.1.0, SVG Export Plug-In . SVG Version: 6.00 Build 0)  -->
<svg version="1.1" id="Layer_1" xmlns="http://www.w3.org/2000/svg" xmlns:xlink="http://www.w3.org/1999/xlink" x="0px" y="0px"
	 viewBox="0 0 24 24" style="enable-background:new 0 0 24 24;" xml:space="preserve">
<path d="M15.3,0.4v2.2c0,0.3-0.2,0.5-0.5,0.5s-0.5-0.2-0.5-0.5V0.9H8.5v16H10c0.3,0,0.5,0.2,0.5,0.5s-0.2,0.5-0.5,0.5H5.9
	c-0.3,0-0.5-0.2-0.5-0.5s0.2-0.5,0.5-0.5h1.5v-16H1.7v1.7c0,0.3-0.2,0.5-0.5,0.5S0.6,2.8,0.6,2.6V0.4c0-0.3,0.2-0.5,0.5-0.5h13.6
	C15.1-0.1,15.3,0.1,15.3,0.4z M14.8,20.8H1.2c-0.3,0-0.5,0.2-0.5,0.5s0.2,0.5,0.5,0.5h13.6c0.3,0,0.5-0.2,0.5-0.5
	C15.3,21,15.1,20.8,14.8,20.8z M21.2,21.3l2-2c0.1-0.1,0.2-0.2,0.2-0.4s-0.1-0.3-0.1-0.4c-0.1-0.1-0.2-0.1-0.4-0.1c0,0,0,0,0,0
	c-0.1,0-0.3,0.1-0.4,0.1l-2,2l-2-2c-0.2-0.2-0.5-0.2-0.7,0c-0.2,0.2-0.2,0.5,0,0.7l2,2l-2,2c-0.2,0.2-0.2,0.5,0,0.7
	c0.2,0.2,0.5,0.2,0.7,0l2-2l2,2c0.1,0.1,0.2,0.2,0.4,0.2c0,0,0,0,0,0c0.1,0,0.3-0.1,0.4-0.1c0.2-0.2,0.2-0.5,0-0.7L21.2,21.3z"/>
</svg>
