<?xml version="1.0" encoding="UTF-8"?>
<svg xmlns="http://www.w3.org/2000/svg" xmlns:xlink="http://www.w3.org/1999/xlink" width="24pt" height="24pt" viewBox="0 0 24 24" version="1.1">
<g id="surface1">
<path style=" stroke:none;fill-rule:nonzero;fill:rgb(0%,0%,0%);fill-opacity:1;" d="M 21.273438 11.671875 C 21.273438 10.691406 20.398438 9.816406 19.417969 9.816406 C 18.980469 9.816406 18.65625 9.925781 18.328125 10.144531 C 18.328125 9.164062 17.453125 8.289062 16.472656 8.289062 C 16.035156 8.289062 15.601562 8.507812 15.273438 8.726562 C 14.945312 7.746094 13.855469 7.308594 12.871094 7.636719 C 12.65625 7.746094 12.546875 7.746094 12.4375 7.855469 L 12.4375 6.980469 C 14.183594 6 14.835938 3.710938 13.855469 1.855469 C 12.871094 0.109375 10.582031 -0.546875 8.726562 0.4375 C 6.871094 1.417969 6.328125 3.710938 7.308594 5.5625 C 7.636719 6.109375 8.074219 6.65625 8.726562 6.980469 L 8.726562 15.925781 C 8.726562 16.035156 8.617188 16.144531 8.507812 16.144531 C 8.398438 16.144531 8.398438 16.144531 8.398438 16.035156 L 7.417969 14.398438 C 6.65625 13.089844 5.238281 12.4375 3.816406 12.761719 C 3.273438 12.871094 2.945312 13.089844 2.835938 13.417969 C 2.726562 13.746094 2.726562 14.074219 2.835938 14.398438 L 6 20.074219 C 7.199219 22.144531 9.601562 23.671875 12.109375 24 C 12.328125 24 12.546875 23.890625 12.546875 23.671875 C 12.546875 23.453125 12.4375 23.238281 12.21875 23.238281 C 9.925781 22.910156 7.746094 21.601562 6.65625 19.636719 L 3.492188 13.964844 C 3.492188 13.855469 3.492188 13.746094 3.492188 13.636719 C 3.601562 13.527344 3.710938 13.417969 3.816406 13.417969 C 4.910156 13.199219 6 13.746094 6.65625 14.726562 L 7.636719 16.472656 C 7.855469 16.910156 8.507812 17.019531 8.945312 16.800781 C 9.273438 16.582031 9.382812 16.363281 9.382812 16.035156 L 9.382812 4.910156 C 9.382812 4.253906 9.816406 3.816406 10.472656 3.710938 C 11.128906 3.710938 11.671875 4.144531 11.671875 4.800781 C 11.671875 4.800781 11.671875 4.800781 11.671875 4.910156 L 11.671875 13.527344 C 11.671875 13.746094 11.890625 13.855469 12 13.855469 C 12.109375 13.855469 12.328125 13.636719 12.328125 13.527344 L 12.328125 9.382812 C 12.328125 8.726562 12.871094 8.289062 13.417969 8.289062 C 13.964844 8.289062 14.507812 8.835938 14.507812 9.382812 L 14.507812 13.527344 C 14.507812 13.746094 14.726562 13.855469 14.835938 13.855469 C 14.945312 13.855469 15.164062 13.636719 15.164062 13.527344 L 15.164062 10.144531 C 15.164062 9.492188 15.710938 9.054688 16.253906 9.054688 C 16.910156 9.054688 17.34375 9.601562 17.34375 10.144531 L 17.34375 14.289062 C 17.34375 14.507812 17.5625 14.617188 17.671875 14.617188 C 17.890625 14.617188 18 14.398438 18 14.289062 L 18 11.671875 C 18 11.019531 18.546875 10.582031 19.089844 10.582031 C 19.636719 10.582031 20.183594 11.128906 20.183594 11.671875 L 20.183594 17.671875 C 20.183594 19.855469 20.074219 22.144531 19.199219 23.453125 C 19.089844 23.671875 19.089844 23.890625 19.308594 24 C 19.527344 24.109375 19.746094 24.109375 19.855469 23.890625 C 20.945312 22.363281 21.054688 19.964844 21.054688 17.671875 L 21.054688 11.671875 Z M 10.363281 3.054688 C 9.382812 3.054688 8.617188 3.925781 8.617188 4.910156 L 8.617188 6.109375 C 7.308594 5.019531 7.089844 3.164062 8.074219 1.855469 C 9.054688 0.546875 11.019531 0.328125 12.328125 1.417969 C 13.636719 2.507812 13.855469 4.363281 12.761719 5.671875 C 12.65625 5.890625 12.4375 6 12.328125 6.109375 L 12.328125 4.910156 C 12.328125 4.363281 12.109375 3.925781 11.78125 3.492188 C 11.34375 3.164062 10.800781 2.945312 10.363281 3.054688 Z M 10.363281 3.054688 "/>
</g>
</svg>
