<?xml version="1.0" encoding="utf-8"?>
<!-- Generator: Adobe Illustrator 21.1.0, SVG Export Plug-In . SVG Version: 6.00 Build 0)  -->
<svg version="1.1" id="Layer_1" xmlns="http://www.w3.org/2000/svg" xmlns:xlink="http://www.w3.org/1999/xlink" x="0px" y="0px"
	 viewBox="0 0 19 19" style="enable-background:new 0 0 19 19;" xml:space="preserve">
<path d="M9.5,0C4.3,0,0,4.3,0,9.5C0,14.7,4.3,19,9.5,19c5.2,0,9.5-4.3,9.5-9.5C19,4.3,14.7,0,9.5,0z M9.5,17.5c-4.4,0-8-3.6-8-8
	s3.6-8,8-8s8,3.6,8,8S13.9,17.5,9.5,17.5z M13,11.9c0.1,0.1,0.2,0.3,0.2,0.5c0,0.2-0.1,0.4-0.2,0.5c-0.1,0.1-0.3,0.2-0.5,0.2
	c-0.2,0-0.4-0.1-0.5-0.2l-2.4-2.4l-2.4,2.4c-0.1,0.1-0.3,0.2-0.5,0.2c-0.2,0-0.4-0.1-0.5-0.2v0c-0.1-0.1-0.2-0.3-0.2-0.5
	c0-0.2,0.1-0.4,0.2-0.5l2.4-2.4L6.1,7.1C5.9,7,5.8,6.8,5.8,6.6c0-0.2,0.1-0.4,0.2-0.5c0.1-0.1,0.3-0.2,0.5-0.2
	c0.2,0,0.4,0.1,0.5,0.2l2.4,2.4l2.4-2.4c0.1-0.1,0.3-0.2,0.5-0.2c0.2,0,0.4,0.1,0.5,0.2c0.1,0.1,0.2,0.3,0.2,0.5
	c0,0.2-0.1,0.4-0.2,0.5l-2.4,2.4L13,11.9z"/>
</svg>
