<?xml version="1.0" encoding="utf-8"?>
<!-- Generator: Adobe Illustrator 21.1.0, SVG Export Plug-In . SVG Version: 6.00 Build 0)  -->
<svg version="1.1" id="Layer_1" xmlns="http://www.w3.org/2000/svg" xmlns:xlink="http://www.w3.org/1999/xlink" x="0px" y="0px"
	 viewBox="0 0 24 24" style="enable-background:new 0 0 24 24;" xml:space="preserve">
<path d="M18.4,8.2c-1.1-2.9-3.8-4.7-6.8-4.7c-3.8,0-7,3-7.3,6.8C1.9,10.5,0,12.6,0,15.1C0,17.8,2.2,20,4.9,20h13.1
	c3.3,0,5.9-2.7,5.9-5.9C24,11,21.5,8.4,18.4,8.2z M22.7,14.2c0,1.2-0.4,2.4-1.3,3.3c-0.9,0.9-2.1,1.4-3.4,1.4H4.9
	c-2.1,0-3.8-1.7-3.8-3.8c0-2.1,1.7-3.8,3.8-3.8c0.3,0,0.5-0.3,0.5-0.5c0-3.4,2.7-6.1,6.1-6.1c2.7,0,5.1,1.8,5.8,4.3
	c0,0.3,0.4,0.4,0.5,0.4C20.6,9.4,22.7,11.6,22.7,14.2z"/>
</svg>
