<?xml version="1.0" encoding="utf-8"?>
<!-- Generator: Adobe Illustrator 21.1.0, SVG Export Plug-In . SVG Version: 6.00 Build 0)  -->
<svg version="1.1" id="Layer_1" xmlns="http://www.w3.org/2000/svg" xmlns:xlink="http://www.w3.org/1999/xlink" x="0px" y="0px"
	 viewBox="0 0 24 24" style="enable-background:new 0 0 24 24;" xml:space="preserve">
<path d="M15.6,12.6c0,0.2-0.1,0.3-0.2,0.5c0,0-0.2,0.2-0.4,0.2c-0.2,0-0.3-0.1-0.5-0.2l-1.8-1.6v10.1c0,0.3-0.3,0.7-0.7,0.7
	c-0.4,0-0.7-0.3-0.7-0.7V11.4L9.6,13c-0.1,0.1-0.3,0.2-0.4,0.2c0,0,0,0,0,0c-0.2,0-0.3-0.1-0.5-0.2c-0.1-0.1-0.2-0.3-0.2-0.4
	c0-0.2,0.1-0.3,0.2-0.5l2.8-2.4l0,0c0.1,0,0.2-0.1,0.3-0.2l0,0h0.7c0,0,0.1,0.1,0.1,0.1l0,0.1l2.7,2.4
	C15.6,12.2,15.6,12.4,15.6,12.6z M15,12.9L15,12.9L15,12.9L15,12.9z M18.4,5c-0.5,0-1,0.1-1.4,0.2c-1.4-2.1-3.5-3.4-6-3.4
	C7.6,1.9,4.7,4.4,4,7.7c-2.2,0.3-4,2.4-4,4.8c0,2.5,2.1,4.7,4.5,4.8h4.7c0.4,0,0.7-0.3,0.7-0.7c0-0.4-0.3-0.7-0.7-0.7H4.4
	c-1.7,0-3.2-1.6-3.2-3.5C1.2,10.7,2.8,9,4.4,9h0.8l0-0.6c0.4-2.9,2.9-5.1,5.9-5.2c2.2,0.1,4.1,1.3,5.1,3.1l0.3,0.5L17,6.5
	c0.5-0.1,0.9-0.2,1.4-0.3c2.4,0,4.3,2.1,4.3,4.7c0,2.6-2.1,5-4.5,5H15c-0.4,0-0.7,0.3-0.7,0.7c0,0.4,0.3,0.7,0.7,0.7h3.2
	c3.1,0,5.8-2.9,5.8-6.2C24,7.7,21.5,5,18.4,5z"/>
</svg>
