<?xml version="1.0" encoding="utf-8"?>
<!-- Generator: Adobe Illustrator 21.1.0, SVG Export Plug-In . SVG Version: 6.00 Build 0)  -->
<svg version="1.1" id="Layer_1" xmlns="http://www.w3.org/2000/svg" xmlns:xlink="http://www.w3.org/1999/xlink" x="0px" y="0px"
	 viewBox="0 0 24 24" style="enable-background:new 0 0 24 24;" xml:space="preserve">
<path d="M14.8,14.1c-0.1,0-0.3,0-0.4,0.1h-0.1l-1.6,1.3V9c0,0,0,0,0,0V8.4c0,0,0,0,0,0c-0.1-0.2-0.3-0.3-0.6-0.3
	c-0.4,0-0.7,0.3-0.7,0.8v6.6l-1.5-1.1c-0.1-0.1-0.2-0.2-0.5-0.2c-0.4,0-0.7,0.3-0.7,0.8c0,0.1,0.1,0.2,0.1,0.3v0.2l2.7,2.1
	c0.1,0.1,0.3,0.2,0.5,0.2c0.2,0,0.3-0.1,0.4-0.2l2.6-2c0.4-0.2,0.5-0.6,0.3-1C15.1,14.3,15,14.2,14.8,14.1z"/>
<path d="M18.5,7.8c-1-2.8-3.7-4.7-6.8-4.7c-3.8,0-7,2.9-7.3,6.7C1.9,10.1,0,12.2,0,14.7c0,2.8,2.2,5,5,5h13c3.3,0,6-2.7,6-6
	C24,10.7,21.5,8,18.5,7.8z M18,18.3H5c-2,0-3.6-1.6-3.6-3.6S3,11.1,5,11.1c0.4,0,0.7-0.3,0.7-0.7c0-3.3,2.7-5.9,6-5.9
	c2.6,0,4.9,1.7,5.7,4.2C17.4,9,17.8,9.2,18,9.2c2.5,0,4.6,2.1,4.6,4.6C22.6,16.3,20.5,18.3,18,18.3z"/>
</svg>
