<?xml version="1.0" encoding="utf-8"?>
<!-- Generator: Adobe Illustrator 21.1.0, SVG Export Plug-In . SVG Version: 6.00 Build 0)  -->
<svg version="1.1" id="Layer_1" xmlns="http://www.w3.org/2000/svg" xmlns:xlink="http://www.w3.org/1999/xlink" x="0px" y="0px"
	 viewBox="0 0 24 24" style="enable-background:new 0 0 24 24;" xml:space="preserve">
<path transform="translate(0,-952.36218)" d="M11.7,955.6c-3.9,0-7,3.1-7.2,6.9C2,962.6,0,964.7,0,967.2c0,2.7,2.1,4.8,4.8,4.8h13.4
	c3.2,0,5.8-2.6,5.8-5.8c0-3.1-2.5-5.7-5.6-5.8C17.5,957.6,14.8,955.6,11.7,955.6z M11.7,956.3c2.9,0,5.4,1.9,6.2,4.6
	c0,0.1,0.2,0.2,0.3,0.2c2.8,0,5.1,2.3,5.1,5.1c0,2.8-2.3,5.1-5.1,5.1H4.8c-2.3,0-4.1-1.8-4.1-4.1c0-2.3,1.8-4.1,4.1-4.1
	c0.2,0,0.3-0.2,0.3-0.3C5.1,959.2,8.1,956.3,11.7,956.3z M12,960.7c-0.2,0-0.3,0.2-0.3,0.4v7.5L9.5,967c-0.1-0.1-0.1-0.1-0.2-0.1
	c-0.2,0-0.3,0.2-0.3,0.4c0,0.1,0.1,0.2,0.1,0.3l2.7,2.1c0.1,0.1,0.3,0.1,0.4,0l2.7-2.1c0.2-0.1,0.2-0.3,0.1-0.5
	c-0.1-0.2-0.3-0.2-0.5-0.1c0,0,0,0-0.1,0l-2.2,1.7v-7.5C12.4,960.9,12.2,960.7,12,960.7C12,960.7,12,960.7,12,960.7z"/>
</svg>
