<?xml version="1.0" encoding="utf-8"?>
<!-- Generator: Adobe Illustrator 21.1.0, SVG Export Plug-In . SVG Version: 6.00 Build 0)  -->
<svg version="1.1" id="Layer_1" xmlns="http://www.w3.org/2000/svg" xmlns:xlink="http://www.w3.org/1999/xlink" x="0px" y="0px"
	 viewBox="0 0 24 24" style="enable-background:new 0 0 24 24;" xml:space="preserve">
<path transform="translate(0,-952.36218)" d="M18.4,960.7c-1-2.8-3.6-4.8-6.8-4.8c-3.9,0-7,3.1-7.2,6.9C2,962.9,0,965,0,967.5
	c0,2.7,2.1,4.8,4.8,4.8h13.4c3.2,0,5.8-2.6,5.8-5.8C24,963.4,21.5,960.8,18.4,960.7z M18.2,971.7H4.8c-2.3,0-4.1-1.8-4.1-4.1
	c0-2.3,1.8-4.1,4.1-4.1c0.2,0,0.3-0.2,0.3-0.3c0-3.6,2.9-6.5,6.5-6.5c2.9,0,5.4,1.9,6.2,4.6c0,0.1,0.2,0.2,0.3,0.2
	c2.8,0,5.1,2.3,5.1,5.1C23.3,969.4,21,971.7,18.2,971.7z"/>
</svg>
