<?xml version="1.0" encoding="utf-8"?>
<!-- Generator: Adobe Illustrator 21.1.0, SVG Export Plug-In . SVG Version: 6.00 Build 0)  -->
<svg version="1.1" id="Layer_1" xmlns="http://www.w3.org/2000/svg" xmlns:xlink="http://www.w3.org/1999/xlink" x="0px" y="0px"
	 viewBox="0 0 24 24" style="enable-background:new 0 0 24 24;" xml:space="preserve">
<path d="M23.1,1.1L23.1,1.1c-1.3-1.3-3.4-1.4-4.7-0.1l-4.3,4.3l-0.9-1c-0.1-0.2-0.2-0.3-0.4-0.3c-0.2,0-0.5,0-0.7,0.2
	c-0.1,0.1-0.2,0.3-0.2,0.5c0,0.2,0.1,0.3,0.3,0.4l1,1l-9.9,9.6c-0.8,0.8-1.3,1.6-1.6,2.4l-1.4,3.5c-0.1,0.3-0.1,0.6,0,0.9
	c0.1,0.3,0.4,0.6,0.7,0.7l0.1,0c0.1,0,0.2,0.1,0.3,0.1c0.1,0,0.3,0,0.5-0.1l3.6-1.2C6,21.7,7,21.3,7.8,20.4l9.9-9.6l1,1.1
	c0.1,0.1,0.2,0.2,0.4,0.2c0.2,0,0.3-0.1,0.4-0.2c0.1-0.1,0.2-0.3,0.2-0.4c0-0.2-0.1-0.3-0.2-0.4l-1-1.1L23,5.7
	C24.3,4.5,24.4,2.4,23.1,1.1z M4.2,16.7l9.7-9.4l2.8,2.8l-9.7,9.4l0,0c-0.6,0.5-1.3,1-2.1,1.3l-3.4,1.2l1.3-3.3
	C3.1,17.9,3.6,17.2,4.2,16.7z"/>
</svg>
