<?xml version="1.0" encoding="utf-8"?>
<!-- Generator: Adobe Illustrator 21.1.0, SVG Export Plug-In . SVG Version: 6.00 Build 0)  -->
<svg version="1.1" id="Layer_1" xmlns="http://www.w3.org/2000/svg" xmlns:xlink="http://www.w3.org/1999/xlink" x="0px" y="0px"
	 viewBox="0 0 24 24" style="enable-background:new 0 0 24 24;" xml:space="preserve">
<path d="M23.3,0.9L23.3,0.9c-1.2-1.2-3.1-1.3-4.3-0.1l-4.8,4.7l-1.3-1.4c0,0,0-0.1-0.1-0.1C12.6,4,12.4,4,12.3,4.1
	c-0.1,0.1-0.1,0.3,0.1,0.4l1.3,1.4L3.1,16.1c-0.7,0.7-1.3,1.5-1.6,2.4l-1.5,3.7c-0.2,0.4,0,0.9,0.5,1.1c0.1,0,0.2,0.1,0.3,0.1
	c0.1,0,0.2,0,0.3-0.1L4.9,22c0.9-0.3,1.8-0.8,2.5-1.5l10.6-10.2l1.3,1.4c0.1,0.1,0.1,0.1,0.2,0.1c0.1,0,0.1,0,0.2-0.1
	c0.1-0.1,0.1-0.3,0-0.4l-1.3-1.4l4.8-4.7C24.4,4.1,24.4,2.1,23.3,0.9z M7,20.1c-0.6,0.6-1.4,1.1-2.3,1.4l-3.8,1.3c0,0-0.1,0-0.1,0
	c-0.1,0-0.2,0-0.2-0.1c0-0.1-0.1-0.2,0-0.2l1.5-3.7c0.3-0.8,0.8-1.6,1.5-2.2l10.4-10l3.4,3.5L7,20.1z"/>
</svg>
