<?xml version="1.0" encoding="utf-8"?>
<!-- Generator: Adobe Illustrator 21.1.0, SVG Export Plug-In . SVG Version: 6.00 Build 0)  -->
<svg version="1.1" id="Layer_1" xmlns="http://www.w3.org/2000/svg" xmlns:xlink="http://www.w3.org/1999/xlink" x="0px" y="0px"
	 viewBox="0 0 24 24" style="enable-background:new 0 0 24 24;" xml:space="preserve">
<path d="M23.5,0h-23C0.2,0,0,0.2,0,0.5v15.8c0,0.3,0.2,0.5,0.5,0.5h7.6l3.5,6.9c0.1,0.2,0.2,0.3,0.4,0.3s0.4-0.1,0.4-0.3l3.4-6.9
	h7.6c0.3,0,0.5-0.2,0.5-0.5V0.5C24,0.2,23.8,0,23.5,0z M23,15.8h-7.4c-0.2,0-0.4,0.1-0.4,0.3L12,22.4l-3.2-6.4
	c-0.1-0.2-0.2-0.3-0.4-0.3H1V1H23V15.8z M4.8,5.3h14.4c0.3,0,0.5-0.2,0.5-0.5c0-0.3-0.2-0.5-0.5-0.5H4.8c-0.3,0-0.5,0.2-0.5,0.5
	C4.3,5.1,4.5,5.3,4.8,5.3z M4.8,11h14.4c0.3,0,0.5-0.2,0.5-0.5c0-0.3-0.2-0.5-0.5-0.5H4.8c-0.3,0-0.5,0.2-0.5,0.5
	C4.3,10.8,4.5,11,4.8,11z"/>
</svg>
