<?xml version="1.0" encoding="utf-8"?>
<!-- Generator: Adobe Illustrator 21.1.0, SVG Export Plug-In . SVG Version: 6.00 Build 0)  -->
<svg version="1.1" id="Layer_1" xmlns="http://www.w3.org/2000/svg" xmlns:xlink="http://www.w3.org/1999/xlink" x="0px" y="0px"
	 viewBox="0 0 24 24" style="enable-background:new 0 0 24 24;" xml:space="preserve">
<path d="M4.2,4.9c0-0.4,0.3-0.7,0.7-0.7h14.1c0.4,0,0.7,0.3,0.7,0.7s-0.3,0.7-0.7,0.7H4.9C4.5,5.7,4.2,5.4,4.2,4.9z M4.9,11.3h14.1
	c0.4,0,0.7-0.3,0.7-0.7c0-0.4-0.3-0.7-0.7-0.7H4.9c-0.4,0-0.7,0.3-0.7,0.7C4.2,11,4.5,11.3,4.9,11.3z M23.9,0.8v15.4
	c0,0.4-0.3,0.7-0.7,0.7h-7.3l-3.2,6.6c0,0.3-0.3,0.5-0.6,0.5c-0.4,0-0.5-0.2-0.6-0.4L8,16.9H0.7c-0.4,0-0.7-0.3-0.7-0.7V0.7
	C0,0.3,0.3,0,0.7,0h22.5c0.2,0,0.4,0.1,0.6,0.3C23.9,0.4,24,0.6,23.9,0.8z M1.5,1.5v13.9h7c0.4,0,0.5,0.2,0.6,0.4l2.9,5.8l2.9-5.7
	c0-0.3,0.3-0.5,0.6-0.5h7v-14H1.5z"/>
</svg>
