<?xml version="1.0" encoding="utf-8"?>
<!-- Generator: Adobe Illustrator 21.1.0, SVG Export Plug-In . SVG Version: 6.00 Build 0)  -->
<svg version="1.1" id="Layer_1" xmlns="http://www.w3.org/2000/svg" xmlns:xlink="http://www.w3.org/1999/xlink" x="0px" y="0px"
	 viewBox="0 0 24 24" style="enable-background:new 0 0 24 24;" xml:space="preserve">
<path d="M20.4,5.6c0.7-0.6,1.2-1.5,1.2-2.4c0-1.7-1.4-3.1-3.1-3.1c-1.7,0-3.1,1.4-3.1,3.1c0,1,0.4,1.9,1.2,2.4
	C14.5,6.4,13,8.4,13,10.6c0,0.4,0.3,0.7,0.7,0.7h9.8c0.4,0,0.7-0.3,0.7-0.7C24,8.3,22.5,6.3,20.4,5.6z M18.4,1.4
	c1,0,1.8,0.8,1.8,1.8s-0.8,1.8-1.8,1.8c-0.4,0-0.8-0.1-1.2-0.4c-0.4-0.3-0.6-0.8-0.6-1.4C16.6,2.2,17.4,1.4,18.4,1.4z M22.5,9.8
	h-8.2c0.4-1.9,2.1-3.2,4.1-3.2C20.4,6.6,22.1,7.9,22.5,9.8z M11.1,10.5c0-2.1-1.5-4.1-3.6-4.9C8.3,5,8.7,4.1,8.7,3.1
	C8.7,1.5,7.3,0,5.6,0C3.9,0,2.5,1.5,2.5,3.1c0,0.9,0.4,1.8,1.2,2.5C1.6,6.3,0,8.3,0,10.5c0,0.4,0.3,0.7,0.7,0.7h9.8
	C10.9,11.1,11.1,10.9,11.1,10.5z M5.6,1.4c1,0,1.8,0.8,1.8,1.8S6.6,4.9,5.6,4.9c-0.5,0-0.9-0.1-1.2-0.4C4.1,4.2,3.9,3.7,3.9,3.1
	C3.9,2.2,4.7,1.4,5.6,1.4z M9.8,9.8H1.5c0.3-1.8,2-3.2,4.1-3.2C7.7,6.6,9.4,7.9,9.8,9.8z M14,18.4c0.7-0.6,1.2-1.5,1.2-2.4
	c0-1.7-1.4-3.1-3.1-3.1C10.4,12.9,9,14.3,9,16c0,1,0.4,1.9,1.2,2.4c-2.1,0.8-3.6,2.8-3.6,4.9c0,0.4,0.3,0.7,0.7,0.7H17
	c0.4,0,0.7-0.3,0.7-0.7C17.6,21.1,16.1,19.1,14,18.4z M12,14.2c1,0,1.8,0.8,1.8,1.8S13,17.7,12,17.7s-1.8-0.8-1.8-1.8
	S11,14.2,12,14.2z M16.1,22.6H7.9c0.4-1.9,2.1-3.2,4.1-3.2C14.1,19.4,15.8,20.8,16.1,22.6z"/>
</svg>
