<?xml version="1.0" encoding="utf-8"?>
<!-- Generator: Adobe Illustrator 21.1.0, SVG Export Plug-In . SVG Version: 6.00 Build 0)  -->
<svg version="1.1" id="Layer_1" xmlns="http://www.w3.org/2000/svg" xmlns:xlink="http://www.w3.org/1999/xlink" x="0px" y="0px"
	 viewBox="0 0 24 24" style="enable-background:new 0 0 24 24;" xml:space="preserve">
<path d="M13.1,18.7c1-0.4,1.8-1.4,1.8-2.6c0-1.6-1.3-2.8-2.8-2.8s-2.8,1.3-2.8,2.8c0,1.2,0.7,2.2,1.8,2.6c-2.4,0.5-4.3,2.5-4.3,5
	c0,0.2,0.1,0.3,0.3,0.3h10.1c0.2,0,0.3-0.1,0.3-0.3C17.4,21.2,15.5,19.2,13.1,18.7z M9.8,16.1c0-1.2,1-2.2,2.2-2.2s2.2,1,2.2,2.2
	c0,1.2-1,2.2-2.2,2.2S9.8,17.3,9.8,16.1z M7.3,23.4c0.2-2.3,2.2-4.1,4.7-4.1s4.5,1.8,4.7,4.1H7.3z M10.7,10.4c0-2.4-1.9-4.5-4.3-5
	C7.5,5,8.2,4,8.2,2.8C8.2,1.3,6.9,0,5.4,0S2.5,1.3,2.5,2.8C2.5,4,3.3,5,4.3,5.5C1.9,5.9,0,8,0,10.4c0,0.2,0.1,0.3,0.3,0.3h10.1
	C10.6,10.7,10.7,10.6,10.7,10.4z M3.2,2.8c0-1.2,1-2.2,2.2-2.2c1.2,0,2.2,1,2.2,2.2c0,1.2-1,2.2-2.2,2.2C4.1,5.1,3.2,4.1,3.2,2.8z
	 M0.7,10.1C0.8,7.8,2.9,6,5.4,6c2.5,0,4.5,1.8,4.7,4.1H0.7z M19.7,5.5c1-0.4,1.8-1.4,1.8-2.6c0-1.6-1.3-2.8-2.8-2.8
	s-2.8,1.3-2.8,2.8c0,1.2,0.7,2.2,1.8,2.6c-2.4,0.5-4.3,2.5-4.3,5c0,0.2,0.1,0.3,0.3,0.3h10.1c0.2,0,0.3-0.1,0.3-0.3
	C24,8,22.1,5.9,19.7,5.5z M16.4,2.8c0-1.2,1-2.2,2.2-2.2c1.2,0,2.2,1,2.2,2.2c0,1.2-1,2.2-2.2,2.2C17.4,5.1,16.4,4.1,16.4,2.8z
	 M13.9,10.1C14.1,7.8,16.1,6,18.6,6c2.5,0,4.5,1.8,4.7,4.1H13.9z"/>
</svg>
