<?xml version="1.0" encoding="utf-8"?>
<!-- Generator: Adobe Illustrator 21.1.0, SVG Export Plug-In . SVG Version: 6.00 Build 0)  -->
<svg version="1.1" id="Layer_1" xmlns="http://www.w3.org/2000/svg" xmlns:xlink="http://www.w3.org/1999/xlink" x="0px" y="0px"
	 viewBox="0 0 24 24" style="enable-background:new 0 0 24 24;" xml:space="preserve">
<path d="M11.5,23.2c0,0.4-0.3,0.8-0.8,0.8H9.2c-0.4,0-0.8-0.3-0.8-0.8v-1.5H4c-1.2,0-2.2-1-2.2-2.2v-15c0-1.2,1-2.2,2.2-2.2h4.5V0.8
	C8.5,0.3,8.8,0,9.2,0h1.5c0.4,0,0.8,0.3,0.8,0.8V23.2z M14.5,18.8c-0.4,0-0.8,0.3-0.8,0.8V21c0,0.4,0.3,0.8,0.8,0.8H19
	c1.2,0,2.2-1,2.2-2.2v-15c0-1.2-1-2.2-2.2-2.2h-4.5c-0.4,0-0.8,0.3-0.8,0.8v1.5c0,0.4,0.3,0.8,0.8,0.8h3.8V19h-3.8V18.8z"/>
</svg>
