<?xml version="1.0" encoding="utf-8"?>
<!-- Generator: Adobe Illustrator 21.1.0, SVG Export Plug-In . SVG Version: 6.00 Build 0)  -->
<svg version="1.1" id="Layer_1" xmlns="http://www.w3.org/2000/svg" xmlns:xlink="http://www.w3.org/1999/xlink" x="0px" y="0px"
	 viewBox="0 0 24 24" style="enable-background:new 0 0 24 24;" xml:space="preserve">
<path d="M19.4,19.5l-5.2-5.1c0.5-1.2,0.2-2.4-0.7-3.2c-0.4-0.4-0.8-0.7-1.3-1c-0.7-0.4-1.6-0.3-2.3,0.3l-1,0.9L9.6,12
	c0.3,0.2,0.7,0.6,1,1c0.1,0.2,0.1,0.3,0.1,0.3c0,0,0,0-0.1,0.1l-0.1,0.1c-0.1,0.1-0.1,0.1-0.1,0.1h0c0,0-0.1,0-0.3-0.1
	c-0.4-0.2-0.8-0.7-1-0.9L8.5,12l-1,0.9c-0.6,0.6-0.8,1.5-0.4,2.2c0.3,0.5,0.6,1,1,1.3c0.9,0.9,2.1,1.1,3.3,0.7l5.2,5.1
	c0.4,0.4,0.8,0.5,1.3,0.5c0.5,0,1-0.2,1.3-0.5C20.2,21.4,20.2,20.3,19.4,19.5z M18.4,21.2c-0.2,0.2-0.5,0.2-0.7,0l-6-5.8l-0.5,0.3
	c-0.7,0.4-1.5,0.4-2.1-0.2c-0.3-0.3-0.5-0.6-0.8-1c-0.1-0.1-0.1-0.3,0-0.4c0.3,0.3,0.5,0.5,0.8,0.6C9.7,14.9,10,15,10.4,15h0
	c0.5,0,0.9-0.2,1.1-0.5c0.4-0.3,0.6-0.7,0.6-1.2c0-0.3-0.1-0.7-0.4-1.1c-0.2-0.2-0.4-0.5-0.7-0.8c0.1-0.1,0.3-0.1,0.4,0
	c0.4,0.2,0.8,0.5,1,0.8c0.6,0.5,0.6,1.3,0.2,2l-0.3,0.5l6,5.8c0.1,0.1,0.1,0.2,0.1,0.3C18.6,21,18.5,21.1,18.4,21.2z M6.8,15.4
	c0.4,0.4,0.7,0.8,1.1,1.1c-0.4,0.2-0.8,0.3-1.2,0.3v6.5C6.7,23.7,6.4,24,6,24s-0.7-0.3-0.7-0.7v-6.5c-2.7-0.4-4.8-2.7-4.8-5.4V6.7
	c0-0.2,0.1-0.4,0.2-0.5C0.9,6,1.1,5.9,1.2,5.9h1.7V0.7C2.9,0.3,3.2,0,3.6,0C4,0,4.3,0.3,4.3,0.7v5.2h3.3V0.7C7.7,0.3,8,0,8.4,0
	c0.4,0,0.7,0.3,0.7,0.7v5.2h1.7c0.4,0,0.7,0.3,0.7,0.7v2.6H10V7.4H2v4c0,2.3,1.8,4,4,4C6.3,15.4,6.6,15.4,6.8,15.4z"/>
</svg>
