<?xml version="1.0" encoding="utf-8"?>
<!-- Generator: Adobe Illustrator 21.1.0, SVG Export Plug-In . SVG Version: 6.00 Build 0)  -->
<svg version="1.1" id="Layer_1" xmlns="http://www.w3.org/2000/svg" xmlns:xlink="http://www.w3.org/1999/xlink" x="0px" y="0px"
	 viewBox="0 0 24 24" style="enable-background:new 0 0 24 24;" xml:space="preserve">
<g>
	<path d="M23.4,19.5l-5.2-5.1c0.5-1.2,0.2-2.4-0.7-3.2c-0.4-0.4-0.8-0.7-1.3-1c-0.7-0.4-1.6-0.3-2.3,0.3l-1,0.9l0.6,0.5
		c0.3,0.2,0.7,0.6,1,1c0.1,0.2,0.1,0.3,0.1,0.3c0,0,0,0-0.1,0.1l-0.1,0.1c-0.1,0.1-0.1,0.1-0.1,0.1h0c0,0-0.1,0-0.3-0.1
		c-0.4-0.2-0.8-0.7-1-0.9L12.5,12l-1,0.9c-0.6,0.6-0.8,1.5-0.4,2.2c0.3,0.5,0.6,1,1,1.3c0.9,0.9,2.1,1.1,3.3,0.7l5.2,5.1
		c0.4,0.4,0.8,0.5,1.3,0.5c0.5,0,1-0.2,1.3-0.5C24.2,21.4,24.2,20.3,23.4,19.5z M22.4,21.2c-0.2,0.2-0.5,0.2-0.7,0l-6-5.8l-0.5,0.3
		c-0.7,0.4-1.5,0.4-2.1-0.2c-0.3-0.3-0.5-0.6-0.8-1c-0.1-0.1-0.1-0.3,0-0.4c0.3,0.3,0.5,0.5,0.8,0.6c0.4,0.2,0.7,0.3,1.1,0.3h0
		c0.5,0,0.9-0.2,1.1-0.5c0.4-0.3,0.6-0.7,0.6-1.2c0-0.3-0.1-0.7-0.4-1.1c-0.2-0.2-0.4-0.5-0.7-0.8c0.1-0.1,0.3-0.1,0.4,0
		c0.4,0.2,0.8,0.5,1,0.8c0.6,0.5,0.6,1.3,0.2,2l-0.3,0.5l6,5.8c0.1,0.1,0.1,0.2,0.1,0.3C22.6,21,22.5,21.1,22.4,21.2z"/>
	<polygon points="1.1,7.1 3.8,7.1 3.8,6.3 15,6.3 15,9.4 16,9.4 16,5.3 3.1,5.3 3.1,5.1 5.8,5.1 5.8,4.4 17,4.4 17,9.4 18,9.4 
		18,3.2 1.9,3.2 1.9,5.3 0,5.3 0,16.3 10.6,16.3 10.6,15.2 1.1,15.2 	"/>
</g>
</svg>
