<?xml version="1.0" encoding="utf-8"?>
<!-- Generator: Adobe Illustrator 21.1.0, SVG Export Plug-In . SVG Version: 6.00 Build 0)  -->
<svg version="1.1" id="Layer_1" xmlns="http://www.w3.org/2000/svg" xmlns:xlink="http://www.w3.org/1999/xlink" x="0px" y="0px"
	 viewBox="0 0 24 24" style="enable-background:new 0 0 24 24;" xml:space="preserve">
<path d="M1.4,17.3h9.5v1.3H0l0-1c0.2-3.3,2.3-6.1,5.4-7.3C4.5,9.2,4,7.8,4,6.2C4,2.8,6.4,0,9.4,0c3,0,5.4,2.8,5.4,6.2
	c0,1.6-0.5,3.1-1.5,4.2c0.2,0.1,0.5,0.2,0.7,0.3c0,0,0,0-0.1,0.1c-0.3,0.3-0.6,0.7-1,0.9c-0.3-0.1-0.6-0.3-1-0.4l-1.1-0.5l0.9-0.7
	c1.1-0.9,1.8-2.4,1.8-4c0-2.7-1.8-4.9-4.1-4.9S5.4,3.5,5.4,6.2c0,1.6,0.7,3.1,1.8,4L8,10.9l-1.1,0.4C3.8,12.2,1.8,14.4,1.4,17.3z
	 M23.4,23.5c-0.4,0.3-0.8,0.5-1.3,0.5c-0.5,0-1-0.2-1.3-0.5l-5.2-5.1c-1.2,0.5-2.4,0.2-3.3-0.7c-0.4-0.3-0.7-0.8-1-1.3
	c-0.4-0.7-0.3-1.6,0.4-2.2l0.9-0.9l0.5,0.6c0.3,0.3,0.6,0.7,1,0.9c0.2,0.1,0.3,0.1,0.3,0.1h0c0,0,0,0,0.1-0.1l0.1-0.1
	c0.1-0.1,0.1-0.1,0.1-0.1c0,0,0-0.1-0.1-0.3c-0.2-0.4-0.7-0.8-1-1l-0.6-0.5l0.9-0.9c0.6-0.6,1.5-0.8,2.3-0.3c0.5,0.3,1,0.6,1.3,1
	c0.9,0.9,1.2,2.1,0.7,3.2l5.2,5.1C24.2,21.6,24.2,22.7,23.4,23.5z M22.6,22.1c0-0.1,0-0.2-0.1-0.3L16.5,16l0.3-0.5
	c0.4-0.7,0.4-1.5-0.2-2c-0.3-0.3-0.6-0.5-1-0.8c-0.1-0.1-0.3-0.1-0.4,0c0.3,0.3,0.5,0.5,0.7,0.8c0.2,0.4,0.4,0.7,0.4,1.1
	c0,0.4-0.2,0.8-0.6,1.2c-0.3,0.3-0.7,0.5-1.1,0.5c0,0,0,0,0,0c-0.3,0-0.7-0.1-1.1-0.3c-0.3-0.2-0.5-0.4-0.8-0.6
	c-0.1,0.1-0.1,0.3,0,0.4c0.2,0.4,0.5,0.7,0.8,1c0.6,0.6,1.3,0.7,2.1,0.2l0.5-0.3l5.9,5.8c0.2,0.2,0.5,0.2,0.6,0
	C22.5,22.4,22.6,22.3,22.6,22.1z"/>
</svg>
