<?xml version="1.0" encoding="utf-8"?>
<!-- Generator: Adobe Illustrator 21.1.0, SVG Export Plug-In . SVG Version: 6.00 Build 0)  -->
<svg version="1.1" id="Layer_1" xmlns="http://www.w3.org/2000/svg" xmlns:xlink="http://www.w3.org/1999/xlink" x="0px" y="0px"
	 viewBox="0 0 24 24" style="enable-background:new 0 0 24 24;" xml:space="preserve">
<path d="M2.3,4.2H1.5V1.6h2.6v0.9H2.3V4.2z M14.4,1.6h-1.7v0.9h1.7V1.6z M22.2,5.9h-0.9v1.7h0.9V5.9z M7.5,1.6H5.8v0.9h1.7V1.6z
	 M11,1.6H9.2v0.9H11V1.6z M21.4,4.2h0.9V1.6h-2.6v0.9h1.7V4.2z M21.4,14.6h0.9v-1.7h-0.9V14.6z M22.2,9.4h-0.9v1.7h0.9V9.4z
	 M21.4,21.5h-1.7v0.9h2.6v-2.6h-0.9V21.5z M5.8,22.4h1.7v-0.9H5.8V22.4z M9.2,22.4H11v-0.9H9.2V22.4z M12.7,22.4h1.7v-0.9h-1.7V22.4
	z M2.3,9.4H1.5v1.7h0.9V9.4z M2.3,19.8H1.5v2.6h2.6v-0.9H2.3V19.8z M2.3,5.9H1.5v1.7h0.9V5.9z M2.3,12.9H1.5v1.7h0.9V12.9z
	 M22.2,17.7v-1.4h-0.9v1.4h-2.7V-0.1h-1v1.7h-1.5v0.9h1.5v15.3H2.3v-1.4H1.5v1.4h-1.6v1h17.8v2.7h-1.5v0.9h1.5v1.5h1v-5.1h4.8v-1
	H22.2z"/>
</svg>
