<?xml version="1.0" encoding="utf-8"?>
<!-- Generator: Adobe Illustrator 21.1.0, SVG Export Plug-In . SVG Version: 6.00 Build 0)  -->
<svg version="1.1" id="Layer_1" xmlns="http://www.w3.org/2000/svg" xmlns:xlink="http://www.w3.org/1999/xlink" x="0px" y="0px"
	 viewBox="0 0 24 24" style="enable-background:new 0 0 24 24;" xml:space="preserve">
<path d="M23.9,6.8c0.1-0.3,0-0.6-0.2-0.9c-0.2-0.2-0.5-0.4-0.8-0.4H21c-0.1-0.6-0.6-1.1-1.2-1.1H4.3c-0.7,0-1.1,0.4-1.2,1.1h-2
	C0.5,5.5-0.1,6-0.1,6.8v11c0,0.6,0.5,1.2,1.2,1.2H3C3.1,19.5,3.7,20,4.2,20h15.3c0.7,0,1.1-0.4,1.2-1.1h1.9c0.6,0,1.2-0.5,1.2-1.2
	L23.9,6.8z M23.1,17.6c0,0.2-0.1,0.2-0.2,0.2h-2.4c-0.2,0-0.4,0.2-0.4,0.4v0.5c0,0.1-0.2,0.2-0.3,0.2H4.3C4.2,19,4,18.9,4,18.8v-0.3
	C4,18.2,3.8,18,3.6,18H1.1c-0.2,0-0.2-0.1-0.2-0.2v-4.4C1,13.4,1,13.5,1.1,13.5l1,0v0.7c0,0.3,0.3,0.6,0.6,0.6h1.1
	c0.3,0,0.6-0.3,0.6-0.6v-0.7h0.7c0.1,0,0.2,0,0.3-0.1v3.5c0,0.4,0.2,0.5,0.4,0.5h11.9c0.2,0,0.4-0.2,0.4-0.4v-4.3
	c0.2,0.5,0.7,0.8,1.2,0.8c0,0,0,0,0,0c0,0,0,0,0,0c0,0.7,0.6,1.3,1.3,1.3c0.7,0,1.3-0.6,1.3-1.3c0,0,0,0,0,0c0.3,0,0.6-0.1,0.9-0.3
	V17.6z M3.9,12h0.9v0.6H4c-0.2,0-0.2,0-0.4,0.2c0,0-0.2,0.2-0.2,0.4V14H2.9v-0.9c0-0.2-0.2-0.4-0.4-0.4H1.6v-0.6h1.2v-0.2
	c0.1-0.1,0.2-0.2,0.2-0.4v-0.9h0.6v0.9C3.5,11.8,3.7,12,3.9,12z M6.5,16.5V8.1h11.1v8.4H6.5z M19.2,12.3v-0.2c0-0.1,0.1-0.2,0.3-0.2
	h0.1c0.3,0.1,0.3,0.3,0.3,0.3c0,0.2-0.2,0.3-0.3,0.3C19.5,12.5,19.3,12.5,19.2,12.3z M20.9,13.3c0.2,0,0.3,0.2,0.3,0.3
	c0,0.2-0.2,0.3-0.3,0.3s-0.3-0.2-0.3-0.3S20.8,13.3,20.9,13.3z M20.8,12.3C20.8,12.3,20.8,12.3,20.8,12.3
	C20.8,12.3,20.8,12.3,20.8,12.3C20.8,12.3,20.8,12.3,20.8,12.3L20.8,12.3C20.9,12.3,20.9,12.3,20.8,12.3
	C20.9,12.3,20.9,12.3,20.8,12.3C20.9,12.3,20.8,12.3,20.8,12.3C20.8,12.3,20.8,12.3,20.8,12.3z M21.2,11.1L21.2,11.1
	c-0.1,0.2-0.2,0.2-0.3,0.2c0,0-0.2,0-0.3-0.2l0-0.1c0,0,0,0,0-0.2c0-0.1,0-0.2,0-0.2c0-0.1,0.2-0.1,0.3-0.1c0.2,0,0.3,0.2,0.3,0.3
	C21.3,11,21.3,11,21.2,11.1z M21.9,12.2c0-0.1,0-0.1,0.1-0.2c0.1-0.1,0.2-0.1,0.2-0.1h0.1c0.3,0.1,0.3,0.3,0.3,0.3l0,0.1l0,0
	c0,0,0,0.1,0,0.1c0,0,0,0.1-0.1,0.1h-0.3c-0.1,0-0.1,0-0.2-0.1C21.9,12.4,21.9,12.2,21.9,12.2z M23.1,11.2c-0.2-0.2-0.5-0.3-0.9-0.3
	c0,0,0,0,0,0c0-0.7-0.6-1.3-1.3-1.3c-0.7,0-1.3,0.6-1.3,1.3c0,0,0,0,0,0c0,0,0,0,0,0c-0.5,0-1,0.3-1.2,0.8V7.5
	c0-0.2-0.2-0.4-0.4-0.4H6c-0.2,0-0.4,0.2-0.4,0.4v3.6C5.4,11,5.3,11,5.2,11H4.5v-0.7c0-0.3-0.3-0.6-0.6-0.6H2.6
	c-0.3,0-0.6,0.3-0.6,0.6V11H1.3c-0.2,0-0.3,0.1-0.4,0.2V6.8c0-0.2,0.1-0.2,0.2-0.2h2.4C3.8,6.5,4,6.3,4,6.1V5.7
	c0-0.1,0.2-0.2,0.3-0.2h15.3c0.2,0,0.3,0.1,0.3,0.2V6c0,0.2,0.2,0.4,0.4,0.4h2.4c0.2,0,0.2,0.1,0.2,0.2V11.2z"/>
</svg>
