<?xml version="1.0" encoding="utf-8"?>
<!-- Generator: Adobe Illustrator 21.1.0, SVG Export Plug-In . SVG Version: 6.00 Build 0)  -->
<svg version="1.1" id="Layer_1" xmlns="http://www.w3.org/2000/svg" xmlns:xlink="http://www.w3.org/1999/xlink" x="0px" y="0px"
	 viewBox="0 0 24 24" style="enable-background:new 0 0 24 24;" xml:space="preserve">
<path d="M3.6,14.7c0.2,0,0.4-0.2,0.4-0.4v-1h1h0c0.2,0,0.4-0.2,0.4-0.4v0v-1.3c0-0.2-0.2-0.4-0.4-0.4h0H4v-1C4,10,3.8,9.8,3.6,9.8h0
	H2.3c-0.2,0-0.4,0.2-0.4,0.4v1H1c-0.2,0-0.4,0.2-0.4,0.4v1.3v0c0,0.2,0.1,0.3,0.3,0.4c0.1,0,0.1,0,0.2,0h1v1c0,0.2,0.2,0.4,0.4,0.4
	H3.6L3.6,14.7z M2.2,11.7c0.1,0,0.2-0.1,0.2-0.2v-1.2h1.1v1.2c0,0.1,0.1,0.2,0.2,0.2h0h1.2l0,1.1H3.8c-0.1,0-0.1,0-0.2,0.1
	c0,0-0.1,0.1-0.1,0.2v1.2H2.4v-1.2c0-0.1-0.1-0.2-0.2-0.2H1v-1.1H2.2L2.2,11.7z M19.8,13.3C19.8,13.3,19.8,13.3,19.8,13.3
	C19.8,13.3,19.8,13.3,19.8,13.3c0.1,0,0.2,0,0.4-0.1c0,0.1-0.1,0.2-0.1,0.4c0,0.6,0.5,1.1,1.1,1.1c0.6,0,1.1-0.5,1.1-1.1
	c0-0.1,0-0.2-0.1-0.4c0.1,0,0.2,0.1,0.4,0.1c0.6,0,1.1-0.5,1.1-1.1s-0.5-1.1-1.1-1.1c-0.1,0-0.2,0-0.4,0.1c0-0.1,0.1-0.2,0.1-0.4
	c0-0.6-0.5-1.1-1.1-1.1c-0.6,0-1.1,0.5-1.1,1.1c0,0.1,0,0.2,0.1,0.4c-0.1,0-0.2-0.1-0.4-0.1c0,0,0,0,0,0s0,0,0,0
	c-0.6,0-1.1,0.5-1.1,1.1S19.2,13.3,19.8,13.3z M19.8,11.6c0,0,0.1,0,0.1,0c0.3,0.1,0.5,0.3,0.5,0.6c0,0.3-0.3,0.6-0.6,0.6
	c-0.3,0-0.5-0.2-0.6-0.5c0-0.1,0-0.1,0-0.2C19.2,11.9,19.4,11.6,19.8,11.6z M21.1,12C21.1,12,21.1,12,21.1,12
	C21.2,12,21.2,12,21.1,12c0.2,0,0.3,0,0.4-0.1c0,0.1-0.1,0.2-0.1,0.4s0,0.2,0.1,0.4c-0.1,0-0.2-0.1-0.4-0.1s-0.2,0-0.4,0.1
	c0-0.1,0.1-0.2,0.1-0.4s0-0.2-0.1-0.4C20.9,11.9,21,12,21.1,12z M21.2,10.3c0.3,0,0.6,0.3,0.6,0.6c0,0.1,0,0.2-0.1,0.3
	c-0.1,0.2-0.3,0.3-0.5,0.3c-0.2,0-0.4-0.1-0.5-0.3c-0.1-0.1-0.1-0.2-0.1-0.3C20.5,10.5,20.8,10.3,21.2,10.3z M21.2,14.3
	c-0.3,0-0.6-0.3-0.6-0.6s0.3-0.6,0.6-0.6c0.3,0,0.6,0.3,0.6,0.6S21.5,14.3,21.2,14.3z M23.1,12.5c0,0.1-0.1,0.1-0.1,0.2c0,0,0,0,0,0
	c-0.1,0.1-0.1,0.1-0.2,0.1c0,0,0,0-0.1,0c-0.1,0-0.1,0-0.2,0c-0.2,0-0.3-0.1-0.4-0.2c-0.1-0.1-0.2-0.3-0.2-0.4
	c0-0.2,0.1-0.3,0.2-0.4c0.1-0.1,0.3-0.2,0.4-0.2c0,0,0.1,0,0.1,0c0.3,0.1,0.5,0.3,0.5,0.6C23.2,12.3,23.1,12.3,23.1,12.5
	C23.1,12.4,23.1,12.5,23.1,12.5z M23.2,5.6h-2.2V5.5c0-0.5-0.5-1-1-1H4.1c-0.6,0-1,0.4-1,1v0.1H0.8c-0.5,0-1,0.4-1,1v11.3
	c0,0.5,0.4,1,1,1h2.2V19c0,0.5,0.5,1,1,1h15.8c0.6,0,1-0.4,1-1v-0.1h2.2c0.5,0,1-0.4,1-1V6.6C24.1,6.1,23.7,5.6,23.2,5.6z M3.3,18.4
	H0.8c-0.3,0-0.5-0.2-0.5-0.5V6.6c0-0.3,0.2-0.5,0.5-0.5h2.5c0.1,0,0.2-0.1,0.2-0.2V5.5C3.5,5.3,3.8,5,4.1,5h15.8
	c0.3,0,0.6,0.2,0.6,0.5v0.3c0,0.1,0.1,0.2,0.2,0.2h2.5c0.3,0,0.5,0.2,0.5,0.5v11.3c0,0.3-0.2,0.5-0.5,0.5h-2.5
	c-0.1,0-0.2,0.1-0.2,0.2V19c0,0.3-0.3,0.5-0.6,0.5H4.1c-0.3,0-0.6-0.2-0.6-0.5v-0.3C3.5,18.5,3.4,18.4,3.3,18.4z M5.8,17.3h12.3
	c0.1,0,0.2-0.1,0.2-0.2V7.4c0-0.1-0.1-0.2-0.2-0.2H5.8c-0.1,0-0.2,0.1-0.2,0.2v9.6C5.6,17.2,5.7,17.3,5.8,17.3z M6.1,16.8V7.7h11.9
	v9.2H6.1z"/>
</svg>
