<?xml version="1.0" encoding="utf-8"?>
<!-- Generator: Adobe Illustrator 21.1.0, SVG Export Plug-In . SVG Version: 6.00 Build 0)  -->
<svg version="1.1" id="Layer_1" xmlns="http://www.w3.org/2000/svg" xmlns:xlink="http://www.w3.org/1999/xlink" x="0px" y="0px"
	 viewBox="0 0 24 24" style="enable-background:new 0 0 24 24;" xml:space="preserve">
<path d="M11.3,2.9H9V1.6h2.3V2.9z M2.8,5.8H1.5v2.2h1.4V5.8z M7.8,1.6H5.7v1.4h2.2V1.6z M2.7,2.9h1.8V1.6h-3v3h1.3V2.9z M14.6,1.6
	h-2.2v1.4h2.2V1.6z M21,4.6h1.4v-3h-3v1.4H21V4.6z M20.9,11.4h1.4V9.2h-1.4V11.4z M22.2,5.8h-1.4v2.2h1.4V5.8z M22.3,12.6H21v2.2
	h1.4V12.6z M12.4,22.4h2.2v-1.4h-2.2V22.4z M21,21.1h-1.7v1.4h3v-3H21V21.1z M22.2,17.4V16h-1.4v1.4h-2.2V-0.1h-1.5v1.7h-1.5v1.4
	h1.5v14.5H2.7v-1.4H1.5v1.4h-1.6v1.5h17.4v2.2h-1.5v1.4h1.5v1.5h1.5v-5h4.7v-1.5H22.2z M9,22.4h2.3v-1.4H9V22.4z M5.7,22.4h2.2v-1.4
	H5.7V22.4z M2.8,12.6H1.5v2.2h1.4V12.6z M2.8,9.2H1.5v2.2h1.4V9.2z M2.7,19.4H1.5v3h3v-1.4H2.7V19.4z"/>
</svg>
