<?xml version="1.0" encoding="UTF-8"?>
<svg xmlns="http://www.w3.org/2000/svg" xmlns:xlink="http://www.w3.org/1999/xlink" width="24pt" height="24pt" viewBox="0 0 24 24" version="1.1">
<g id="surface1">
<path style=" stroke:none;fill-rule:nonzero;fill:rgb(0%,0%,0%);fill-opacity:1;" d="M 9.710938 1.089844 C 6.871094 1.089844 4.582031 3.382812 4.582031 6.21875 C 4.582031 9.054688 6.871094 11.34375 9.710938 11.34375 C 12.546875 11.34375 14.835938 9.054688 14.835938 6.21875 C 14.835938 3.382812 12.546875 1.089844 9.710938 1.089844 Z M 9.710938 10.253906 C 7.527344 10.253906 5.78125 8.507812 5.78125 6.328125 C 5.78125 4.144531 7.527344 2.398438 9.710938 2.398438 C 11.890625 2.398438 13.636719 4.144531 13.636719 6.328125 C 13.636719 8.507812 11.890625 10.253906 9.710938 10.253906 Z M 9.710938 10.253906 "/>
<path style=" stroke:none;fill-rule:nonzero;fill:rgb(0%,0%,0%);fill-opacity:1;" d="M 9.710938 12.109375 C 4.363281 12.109375 0 16.472656 0 21.816406 C 0 22.144531 0.328125 22.472656 0.65625 22.472656 L 18.871094 22.472656 C 19.199219 22.472656 19.527344 22.144531 19.527344 21.816406 C 19.417969 16.472656 15.054688 12.109375 9.710938 12.109375 Z M 1.199219 21.273438 C 1.527344 16.910156 5.128906 13.417969 9.710938 13.417969 C 14.289062 13.417969 17.890625 16.910156 18.21875 21.273438 Z M 1.199219 21.273438 "/>
<path style=" stroke:none;fill-rule:nonzero;fill:rgb(0%,0%,0%);fill-opacity:1;" d="M 22.910156 3.710938 L 17.019531 3.710938 C 16.691406 3.710938 16.363281 4.035156 16.363281 4.363281 C 16.363281 4.691406 16.691406 5.019531 17.019531 5.019531 L 22.910156 5.019531 C 23.238281 5.019531 23.5625 4.691406 23.5625 4.363281 C 23.5625 4.035156 23.238281 3.710938 22.910156 3.710938 Z M 22.910156 3.710938 "/>
<path style=" stroke:none;fill-rule:nonzero;fill:rgb(0%,0%,0%);fill-opacity:1;" d="M 22.910156 7.636719 L 17.019531 7.636719 C 16.691406 7.636719 16.363281 7.855469 16.363281 8.183594 C 16.363281 8.507812 16.691406 8.835938 17.019531 8.835938 L 22.910156 8.835938 C 23.238281 8.835938 23.5625 8.507812 23.5625 8.183594 C 23.5625 7.855469 23.238281 7.636719 22.910156 7.636719 Z M 22.910156 7.636719 "/>
<path style=" stroke:none;fill-rule:nonzero;fill:rgb(0%,0%,0%);fill-opacity:1;" d="M 22.910156 11.453125 L 17.019531 11.453125 C 16.691406 11.453125 16.363281 11.78125 16.363281 12.109375 C 16.363281 12.4375 16.691406 12.761719 17.019531 12.761719 L 22.910156 12.761719 C 23.238281 12.761719 23.5625 12.4375 23.5625 12.109375 C 23.5625 11.78125 23.238281 11.453125 22.910156 11.453125 Z M 22.910156 11.453125 "/>
</g>
</svg>
