<?xml version="1.0" encoding="utf-8"?>
<!-- Generator: Adobe Illustrator 21.1.0, SVG Export Plug-In . SVG Version: 6.00 Build 0)  -->
<svg version="1.1" id="Layer_1" xmlns="http://www.w3.org/2000/svg" xmlns:xlink="http://www.w3.org/1999/xlink" x="0px" y="0px"
	 viewBox="0 0 24 24" style="enable-background:new 0 0 24 24;" xml:space="preserve">
<path d="M13.5,12.1l-2-1.3L18,5.4c0.8-0.7,2-1,3-0.7l3,0.7L13.5,12.1z M7.4,8.7L24,19.4l-3,0.7c-0.2,0.1-0.5,0.1-0.7,0.1
	c-0.8,0-1.6-0.3-2.2-0.8L6.5,9.7c0,0,0,0-0.1,0c0,0-0.1,0-0.2,0.1c-0.4,0.3-0.9,0.6-1.4,0.7c-2.1,0.5-4.1-0.8-4.6-2.9
	C-0.3,5.4,1,3.3,3,2.8c1-0.2,2-0.1,2.9,0.5c0.9,0.5,1.5,1.4,1.7,2.4c0.2,0.9,0.1,1.9-0.3,2.7C7.3,8.5,7.3,8.5,7.3,8.5
	C7.3,8.6,7.3,8.6,7.4,8.7z M2.6,8.7C3,8.9,3.5,9.1,3.9,9.1c0.2,0,0.3,0,0.5-0.1l0.1,0C5.2,8.8,5.7,8.4,6,7.9
	c0.7-1.1,0.3-2.7-0.8-3.4C4.8,4.2,4.3,4.1,3.8,4.1c-0.2,0-0.3,0-0.5,0C2.7,4.3,2.1,4.7,1.8,5.3C1.1,6.4,1.4,8,2.6,8.7z M7.3,16.1
	c0,0-0.1,0.1,0,0.3l0,0c0.4,0.8,0.6,1.8,0.3,2.7c-0.3,1.1-0.9,1.9-1.7,2.4c-0.6,0.4-1.3,0.6-2,0.6c-0.3,0-0.6,0-0.9-0.1
	c-2.1-0.5-3.4-2.6-2.9-4.6c0.2-1,0.8-1.9,1.7-2.4c0.9-0.5,1.9-0.7,2.9-0.5c0.6,0.2,1.1,0.4,1.5,0.7c0.1,0.1,0.2,0.1,0.2,0l2.8-2.4
	l1.5,1.2L7.3,16.1z M6,16.8c-0.4-0.6-0.9-1-1.6-1.1c-0.2,0-0.4-0.1-0.6-0.1c-0.5,0-0.9,0.1-1.3,0.4c-0.6,0.4-1,0.9-1.1,1.6
	c-0.2,0.6,0,1.3,0.3,1.9c0.4,0.7,1.2,1.2,2.1,1.2c0.5,0,0.9-0.1,1.3-0.4C6.3,19.5,6.7,18,6,16.8z"/>
</svg>
