<?xml version="1.0" encoding="utf-8"?>
<!-- Generator: Adobe Illustrator 21.1.0, SVG Export Plug-In . SVG Version: 6.00 Build 0)  -->
<svg version="1.1" id="Layer_1" xmlns="http://www.w3.org/2000/svg" xmlns:xlink="http://www.w3.org/1999/xlink" x="0px" y="0px"
	 viewBox="0 0 24 24" style="enable-background:new 0 0 24 24;" xml:space="preserve">
<path d="M12,5.3c0.9,0,1.6-0.7,1.6-1.6c0-0.9-0.7-1.6-1.6-1.6c-0.9,0-1.6,0.7-1.6,1.6C10.4,4.5,11.1,5.3,12,5.3z M12,4.1
	c-0.3,0-0.3-0.3-0.3-0.4c0-0.2,0.2-0.4,0.3-0.4c0.3,0,0.3,0.3,0.3,0.4C12.3,3.9,12.2,4.1,12,4.1z M16.4,6.9H7.6v-3H4.2v18.3h15.6
	V3.9h-3.3V6.9z M17.7,8.1v-3h0.8v15.8H5.5V5.2h0.8v3H17.7z M21.7,4.5c-0.1-1.4-1.1-2.3-2.5-2.3h-3.8c-0.6-1.2-2-2.1-3.4-2.1
	S9.2,0.9,8.6,2.2H4.8c-1.5,0-2.5,1-2.5,2.5v17c0,1.5,1,2.5,2.5,2.5h14.4c1.5,0,2.5-1,2.5-2.5L21.7,4.5z M19.2,22.8H4.8
	c-0.8,0-1.2-0.4-1.2-1.2V4.5c0-0.8,0.4-1.2,1.2-1.2h4.6l0.2-0.4C10,2,11.1,1.2,12.1,1.2S14.2,2,14.6,3l0.2,0.4h4.6
	c0.6,0,1,0.4,1,1.2v17.1C20.4,22.3,19.9,22.8,19.2,22.8z"/>
</svg>
