<?xml version="1.0" encoding="utf-8"?>
<!-- Generator: Adobe Illustrator 21.1.0, SVG Export Plug-In . SVG Version: 6.00 Build 0)  -->
<svg version="1.1" id="Layer_1" xmlns="http://www.w3.org/2000/svg" xmlns:xlink="http://www.w3.org/1999/xlink" x="0px" y="0px"
	 viewBox="0 0 24 24" style="enable-background:new 0 0 24 24;" xml:space="preserve">
<path d="M19.5,2.1h-4.2c-0.5-1.3-1.9-2.2-3.3-2.2S9.2,0.8,8.7,2.1H4.5c-1.3,0-2.2,0.8-2.2,2.2V22c0,1.3,0.8,2.2,2.2,2.2h15
	c1.3,0,2.2-0.8,2.2-2.2V4.2C21.6,2.9,20.8,2.1,19.5,2.1z M21.1,4.2V22c0,1-0.6,1.6-1.6,1.6h-15c-1,0-1.6-0.6-1.6-1.6V4.2
	c0-1,0.6-1.6,1.6-1.6h4.6l0.1-0.2c0.4-1.1,1.7-2,2.9-2c1.2,0,2.5,0.9,2.9,2l0.1,0.2h4.6C20.5,2.6,21.1,3.2,21.1,4.2z M12,4.6
	c0.7,0,1.3-0.6,1.3-1.3C13.3,2.6,12.7,2,12,2s-1.3,0.6-1.3,1.3S11.3,4.6,12,4.6z M12,2.5c0.4,0,0.7,0.3,0.7,0.8
	c0,0.4-0.3,0.8-0.7,0.8c-0.4,0-0.7-0.3-0.7-0.8C11.3,2.9,11.6,2.5,12,2.5z M17,7H7V3.9H4.2v18.3h15.5V3.9H17V7z M17.6,7.6V4.5h1.6
	v17.2H4.8V4.5h1.6v3.1H17.6z"/>
</svg>
