<?xml version="1.0" encoding="utf-8"?>
<!-- Generator: Adobe Illustrator 21.1.0, SVG Export Plug-In . SVG Version: 6.00 Build 0)  -->
<svg version="1.1" id="Layer_1" xmlns="http://www.w3.org/2000/svg" xmlns:xlink="http://www.w3.org/1999/xlink" x="0px" y="0px"
	 viewBox="0 0 24 24" style="enable-background:new 0 0 24 24;" xml:space="preserve">
<path d="M6.7,15.6c-0.7,0-1.3,0.3-1.8,0.7c-1,1-1,2.6,0,3.6l0,0c0.5,0.5,1.1,0.7,1.8,0.7c0.6,0,1.3-0.2,1.8-0.7c1-1,1-2.6,0-3.6
	C8,15.9,7.4,15.6,6.7,15.6z M8.1,19.5c-0.8,0.8-2,0.8-2.8,0l0,0c-0.8-0.8-0.8-2,0-2.8c0.4-0.4,0.9-0.6,1.4-0.6s1,0.2,1.4,0.6
	C8.8,17.5,8.8,18.8,8.1,19.5z M23.6,4C23.6,4,23.6,4,23.6,4C23.6,4,23.6,4,23.6,4C23.6,3.9,23.6,3.9,23.6,4c0-0.1,0-0.1,0-0.1l0,0
	l0,0c0,0,0,0,0-0.1c0,0,0,0,0,0c0,0,0,0,0,0c0,0,0,0,0,0c0,0,0,0,0,0c0,0,0-0.1-0.1-0.1c0,0,0,0,0,0c0,0,0,0,0,0c0,0,0,0,0,0
	c0,0,0,0,0,0c0,0,0,0-0.1,0c0,0,0,0,0,0l-4.7,0c0,0,0,0,0,0c0,0,0,0-0.1,0c0,0,0,0,0,0c0,0,0,0,0,0c0,0,0,0,0,0c0,0,0,0,0,0
	c0,0,0,0,0,0c0,0,0,0,0,0l-5.6,5.6L12,8.4c0.5-1,0.7-2.2,0.5-3.4c-0.2-1.3-0.8-2.4-1.7-3.3C9.7,0.6,8.2,0,6.7,0s-3,0.6-4.1,1.7
	S0.8,4.3,0.8,5.9c0,1.6,0.6,3,1.7,4.1c0.9,0.9,2,1.5,3.3,1.7c0.3,0,0.6,0.1,0.8,0.1c0.9,0,1.7-0.2,2.5-0.6l0.9,0.9l-0.9,0.9
	c-1-0.5-2.2-0.7-3.4-0.5c-1.3,0.2-2.4,0.8-3.3,1.7c-1.1,1.1-1.7,2.6-1.7,4.1c0,1.6,0.6,3,1.7,4.1C3.6,23.4,5.1,24,6.7,24h0
	c1.6,0,3-0.6,4.1-1.7c0.9-0.9,1.5-2,1.7-3.3c0.2-1.1,0-2.3-0.5-3.4l0.9-0.9l7.9,7.9c0,0,0,0,0,0c0,0,0,0,0,0c0,0,0,0,0,0
	c0,0,0,0,0,0c0,0,0,0,0,0c0,0,0,0,0,0c0,0,0,0,0,0c0,0,0,0,0,0c0,0,0,0,0,0c0,0,0,0,0,0c0,0,0,0,0,0c0,0,0,0,0,0c0,0,0,0,0,0
	c0,0,0.1,0,0.1-0.1c0,0,0,0,0,0c0,0,0,0,0,0c0,0,0,0,0,0c0,0,0,0,0,0c0,0,0,0,0-0.1c0,0,0,0,0,0l0,0l0,0l0-4.7c0,0,0,0,0,0
	c0,0,0,0,0,0c0,0,0,0,0,0c0,0,0,0,0,0c0,0,0,0,0,0c0,0,0,0,0,0c0,0,0,0,0,0L15.6,12L23.6,4C23.5,4.1,23.5,4.1,23.6,4
	C23.5,4.1,23.5,4,23.6,4C23.5,4,23.6,4,23.6,4z M9.5,10.6C9.5,10.6,9.5,10.6,9.5,10.6C9.4,10.6,9.4,10.6,9.5,10.6
	C9.4,10.6,9.4,10.6,9.5,10.6C9.4,10.6,9.4,10.6,9.5,10.6c-0.1-0.1-0.1-0.1-0.1-0.1c0,0,0,0,0,0c0,0,0,0,0,0c0,0,0,0,0,0c0,0,0,0,0,0
	c0,0,0,0,0,0c0,0,0,0,0,0c0,0,0,0,0,0c0,0,0,0,0,0c0,0,0,0,0,0c-2.1,1.1-4.6,0.7-6.2-1c-1-1-1.6-2.3-1.6-3.7s0.6-2.7,1.6-3.7
	s2.3-1.6,3.7-1.6s2.7,0.6,3.7,1.6c1.6,1.6,2,4.1,1,6.2c0,0,0,0,0,0c0,0,0,0,0,0c0,0,0,0,0,0c0,0,0,0,0,0c0,0,0,0,0,0c0,0,0,0,0,0
	c0,0,0,0,0,0c0,0,0,0,0,0c0,0,0,0,0,0c0,0,0,0,0,0c0,0,0,0,0,0c0,0,0,0,0,0c0,0,0,0,0,0c0,0,0,0,0,0l1,1l-2,2L9.5,10.6z M10.4,21.9
	c-1,1-2.3,1.6-3.7,1.6c0,0,0,0,0,0c-1.4,0-2.7-0.6-3.7-1.6s-1.6-2.3-1.6-3.7c0-1.4,0.6-2.7,1.6-3.7c1.6-1.6,4.1-2,6.2-1c0,0,0,0,0,0
	c0,0,0,0,0,0c0,0,0,0,0,0c0,0,0,0,0,0c0,0,0,0,0,0c0,0,0,0,0,0c0,0,0,0,0,0c0,0,0,0,0,0c0,0,0,0,0,0c0,0,0,0,0,0c0,0,0,0,0,0
	c0,0,0,0,0,0c0,0,0,0,0,0c0,0,0,0,0,0c0,0,0,0,0,0l1.2-1.2l0,0c0,0,0,0,0,0L13,9.8h0l0,0l5.7-5.7l3.9,0L11.4,15.4c0,0,0,0,0,0
	c0,0,0,0,0,0c0,0,0,0,0,0c0,0,0,0,0,0c0,0,0,0,0,0c0,0,0,0,0,0c0,0,0,0,0,0c0,0,0,0,0,0c0,0,0,0,0,0c0,0,0,0,0,0c0,0,0,0,0,0
	c0,0,0,0,0,0c0,0,0,0,0,0c0,0,0,0,0,0C12.5,17.8,12.1,20.2,10.4,21.9z M20.7,17.9l0,3.9l-7.5-7.5l2-2L20.7,17.9z M4.9,4.1
	c-1,1-1,2.6,0,3.6C5.4,8.1,6,8.4,6.7,8.4c0.6,0,1.3-0.2,1.8-0.7c0.5-0.5,0.7-1.1,0.7-1.8S8.9,4.5,8.5,4.1C7.5,3.1,5.9,3.1,4.9,4.1z
	 M8.1,7.2C7.3,8,6.1,8,5.3,7.2s-0.8-2,0-2.8s2-0.8,2.8,0c0.4,0.4,0.6,0.9,0.6,1.4S8.4,6.9,8.1,7.2z M12.8,13c0.5,0,1-0.4,1-1
	c0-0.5-0.4-1-1-1c-0.5,0-1,0.4-1,1C11.9,12.5,12.3,13,12.8,13z M12.8,11.6c0.2,0,0.4,0.2,0.4,0.4c0,0.2-0.2,0.4-0.4,0.4
	c-0.2,0-0.4-0.2-0.4-0.4C12.4,11.8,12.6,11.6,12.8,11.6z"/>
</svg>
