<?xml version="1.0" encoding="utf-8"?>
<!-- Generator: Adobe Illustrator 21.1.0, SVG Export Plug-In . SVG Version: 6.00 Build 0)  -->
<svg version="1.1" id="Layer_1" xmlns="http://www.w3.org/2000/svg" xmlns:xlink="http://www.w3.org/1999/xlink" x="0px" y="0px"
	 viewBox="0 0 24 24" style="enable-background:new 0 0 24 24;" xml:space="preserve">
<path d="M9.9,11.7c2.9,0,5.3-2.4,5.3-5.3c0-2.9-2.4-5.3-5.3-5.3C7,1.1,4.6,3.5,4.6,6.4C4.6,9.3,7,11.7,9.9,11.7z M9.9,2.7
	c2.1,0,3.8,1.7,3.8,3.8c0,2.1-1.7,3.8-3.8,3.8c-2.1,0-3.8-1.7-3.8-3.8C6.1,4.4,7.8,2.7,9.9,2.7z M9.9,12.2c-5.5,0-9.9,4.4-9.9,9.9
	c0,0.4,0.4,0.8,0.8,0.8h18.4c0.4,0,0.8-0.4,0.8-0.8C19.8,16.6,15.3,12.2,9.9,12.2z M18.4,21.4H1.5c0.4-4.4,4-7.7,8.4-7.7
	C14.4,13.8,18,17,18.4,21.4z M16.5,4.5c0-0.4,0.4-0.8,0.8-0.8h5.9c0.4,0,0.8,0.4,0.8,0.8c0,0.4-0.4,0.8-0.8,0.8h-5.9
	C16.9,5.3,16.5,4.9,16.5,4.5z M24,8.4c0,0.4-0.4,0.8-0.8,0.8h-5.9c-0.4,0-0.8-0.4-0.8-0.8c0-0.4,0.4-0.7,0.8-0.7h5.9
	C23.6,7.7,24,7.9,24,8.4z M24,12.3c0,0.4-0.4,0.8-0.8,0.8h-5.9c-0.4,0-0.8-0.4-0.8-0.8c0-0.4,0.4-0.8,0.8-0.8h5.9
	C23.6,11.5,24,11.9,24,12.3z"/>
</svg>
