<?xml version="1.0" encoding="utf-8"?>
<!-- Generator: Adobe Illustrator 21.1.0, SVG Export Plug-In . SVG Version: 6.00 Build 0)  -->
<svg version="1.1" id="Layer_1" xmlns="http://www.w3.org/2000/svg" xmlns:xlink="http://www.w3.org/1999/xlink" x="0px" y="0px"
	 viewBox="0 0 24 24" style="enable-background:new 0 0 24 24;" xml:space="preserve">
<path d="M16.4,15.8c0.2,0.2,0.2,0.6,0,0.8c-1.2,1.1-2.7,1.7-4.3,1.7c-3.5,0-6.3-2.8-6.3-6.3s2.8-6.3,6.3-6.3c1.6,0,3.1,0.6,4.3,1.7
	c0.2,0.2,0.2,0.6,0,0.8s-0.6,0.2-0.8,0c-1-0.9-2.2-1.4-3.5-1.4C9.3,6.8,7,9.2,7,12s2.3,5.2,5.2,5.2c1.3,0,2.6-0.5,3.5-1.4
	C15.9,15.6,16.2,15.6,16.4,15.8z M24,12c0,6.5-5.5,12-12,12S0,18.5,0,12S5.5,0,12,0S24,5.5,24,12z M22.9,12c0-5.9-5-10.9-10.9-10.9
	S1.1,6.1,1.1,12s5,10.9,10.9,10.9S22.9,17.9,22.9,12z"/>
</svg>
