<?xml version="1.0" encoding="utf-8"?>
<!-- Generator: Adobe Illustrator 21.1.0, SVG Export Plug-In . SVG Version: 6.00 Build 0)  -->
<svg version="1.1" id="Layer_1" xmlns="http://www.w3.org/2000/svg" xmlns:xlink="http://www.w3.org/1999/xlink" x="0px" y="0px"
	 viewBox="0 0 24 24" style="enable-background:new 0 0 24 24;" xml:space="preserve">
<path d="M12,0C5.5,0,0,5.5,0,12s5.5,12,12,12s12-5.5,12-12S18.5,0,12,0z M12,22.7C6.2,22.7,1.3,17.8,1.3,12S6.2,1.3,12,1.3
	S22.7,6.2,22.7,12S17.8,22.7,12,22.7z M7.2,12c0,2.8,2.3,5,5,5c1.3,0,2.5-0.5,3.4-1.4c0.2-0.2,0.6-0.2,0.9,0v0c0.2,0.2,0.2,0.7,0,1
	c-1.2,1.1-2.7,1.7-4.3,1.7c-3.5,0-6.4-2.9-6.4-6.4c0-3.5,2.9-6.4,6.4-6.4c1.6,0,3.1,0.6,4.3,1.7c0.3,0.3,0.3,0.7,0,1
	c-0.2,0.2-0.7,0.2-1,0c-1-0.9-2.1-1.3-3.4-1.3C9.4,7,7.2,9.3,7.2,12z"/>
</svg>
