<?xml version="1.0" encoding="utf-8"?>
<!-- Generator: Adobe Illustrator 21.1.0, SVG Export Plug-In . SVG Version: 6.00 Build 0)  -->
<svg version="1.1" id="Layer_1" xmlns="http://www.w3.org/2000/svg" xmlns:xlink="http://www.w3.org/1999/xlink" x="0px" y="0px"
	 viewBox="0 0 24 24" style="enable-background:new 0 0 24 24;" xml:space="preserve">
<path d="M12.6,11.9h3.6v1.4h-3.6v3.6h-1.4v-3.6H7.6v-1.4h3.6V8.2h1.4V11.9z M24.1,6.8v11.8c0,1.7-1.4,3.1-3.1,3.1H3.2
	c-1.7,0-3.1-1.4-3.1-3.1V4.4c0-1.7,1.4-3.1,3.1-3.1h5.1l2.4,2.4H21C22.7,3.7,24.1,5.1,24.1,6.8z M21,5.1H10.1L7.7,2.7H3.2
	c-0.9,0-1.7,0.8-1.7,1.7v14.2c0,0.9,0.8,1.7,1.7,1.7H21c0.9,0,1.7-0.8,1.7-1.7V6.8C22.7,5.9,21.9,5.1,21,5.1z"/>
</svg>
