<?xml version="1.0" encoding="utf-8"?>
<!-- Generator: Adobe Illustrator 21.1.0, SVG Export Plug-In . SVG Version: 6.00 Build 0)  -->
<svg version="1.1" id="Layer_1" xmlns="http://www.w3.org/2000/svg" xmlns:xlink="http://www.w3.org/1999/xlink" x="0px" y="0px"
	 viewBox="0 0 24 24" style="enable-background:new 0 0 24 24;" xml:space="preserve">
<path d="M20.8,3l-5-2.9L15.7,0h-0.1c-0.2-0.1-0.3,0-0.5,0c-0.2,0-0.3,0.2-0.4,0.3L4.5,18.3v0c-0.1,0.1-0.1,0.3,0,0.4l0.4,4.6
	c0,0.2,0.1,0.5,0.3,0.6C5.3,23.9,5.4,24,5.5,24c0.1,0,0.1,0,0.2,0l4.9-1.9c0.2,0,0.4-0.2,0.5-0.4L21.1,3.9C21.3,3.5,21.2,3.2,20.8,3
	z M14.1,4.4l1.6-2.7l3.8,2.2l-1.6,2.7L14.1,4.4z M13.3,5.6l3.8,2.2L9.7,20.9l-3.6,1.4l-0.2-3.6L13.3,5.6z"/>
</svg>
