<?xml version="1.0" encoding="utf-8"?>
<!-- Generator: Adobe Illustrator 21.1.0, SVG Export Plug-In . SVG Version: 6.00 Build 0)  -->
<svg version="1.1" id="Layer_1" xmlns="http://www.w3.org/2000/svg" xmlns:xlink="http://www.w3.org/1999/xlink" x="0px" y="0px"
	 viewBox="0 0 24 24" style="enable-background:new 0 0 24 24;" xml:space="preserve">
<path transform="translate(0,-952.36218)" d="M20.9,955.4l-5.2-3c-0.1,0-0.2-0.1-0.3,0c-0.1,0-0.2,0.1-0.3,0.2L4.6,970.9
	c0,0.1-0.1,0.1,0,0.2L5,976c0,0.2,0.2,0.4,0.4,0.3c0,0,0.1,0,0.1,0l4.9-1.9c0.1,0,0.2-0.1,0.2-0.2L21,955.9
	C21.1,955.7,21.1,955.5,20.9,955.4z M9.9,973.8l-4.3,1.7l-0.3-4.3l7.9-13.9l4.6,2.6L9.9,973.8z M18.2,959.3l-4.6-2.6l2-3.4l4.6,2.6
	L18.2,959.3z"/>
</svg>
