<?xml version="1.0" encoding="UTF-8"?>
<svg width="20px" height="21px" viewBox="0 0 20 21" version="1.1" xmlns="http://www.w3.org/2000/svg" xmlns:xlink="http://www.w3.org/1999/xlink">
    <!-- Generator: Sketch 64 (93537) - https://sketch.com -->
    <title>Combined Shape</title>
    <desc>Created with Sketch.</desc>
    <g id="Page-1" stroke="none" stroke-width="1" fill="none" fill-rule="evenodd">
        <path d="M13.5,8 C17.09,8 20,10.91 20,14.5 C20,18.09 17.09,21 13.5,21 C9.98804348,21 7.1268431,18.2151465 7.0041028,14.7331434 L7,14.5 C7,10.91 9.91,8 13.5,8 Z M13.5,9 C10.46,9 8,11.46 8,14.5 C8,17.54 10.46,20 13.5,20 C16.54,20 19,17.54 19,14.5 C19,11.46 16.54,9 13.5,9 Z M5,13 L5,15.05 C5.33,15.06 5.67,15.04 6,14.99 L6,15 C6.01,15.34 6.04,15.67 6.1,16 C5.83,16.04 5.56,16.06 5.28,16.07 C5.18,16.07 5.08,16.07 5,16.06 L5,18 L0,18 L0,13 L5,13 Z M13.3718319,11.9130791 C13.441074,12.0423099 13.5795583,12.3653868 13.7180426,12.7530791 C13.7872848,13.076156 13.9257691,13.399233 13.9257691,13.399233 L13.9603901,13.364906 C14.0253047,13.2982714 14.1681166,13.1407714 14.2719798,12.9469253 C14.6874327,12.4300022 15.1028856,11.9130791 15.3798542,11.719233 C15.4490963,11.6546176 15.6568228,11.5900022 15.8645492,11.5253868 C16.4184864,11.396156 16.9031814,11.6546176 16.9031814,12.0423099 C16.9724236,12.6884637 16.4877285,13.0115406 15.6568228,12.8823099 L15.2413699,12.8176945 L15.0336434,13.0115406 C14.8951591,13.1407714 14.6181905,13.4638483 14.4104641,13.7223099 L13.9950112,14.239233 L14.2027377,14.9500022 C14.5489484,16.1130791 14.6181905,16.2423099 14.9644013,16.436156 C15.1721277,16.5007714 15.4490963,16.5653868 15.8645492,16.436156 C16.2800021,16.3715406 16.3492442,16.3715406 16.2107599,16.759233 C16.1415178,17.0176945 16.1415178,17.0176945 15.6568228,17.2115406 C15.1028856,17.4053868 14.5489484,17.4700022 14.1334955,17.4053868 C13.6488005,17.276156 13.3718319,16.9530791 13.0948633,15.919233 C13.0256211,15.7900022 13.0256211,15.6607714 13.0256211,15.596156 C13.0256211,15.5315406 12.8871369,15.6607714 12.6794104,15.9838483 C11.9177468,16.9530791 11.2945675,17.4700022 10.7406303,17.4700022 C10.1866931,17.4700022 9.9097245,17.2115406 9.9097245,16.759233 C9.9097245,16.1776945 10.4636617,15.8546176 11.2253253,16.0484637 C11.5022939,16.1130791 11.571536,16.1130791 11.6407782,16.0484637 C11.7792625,15.919233 12.4024418,15.2084637 12.6101683,14.8853868 L12.8178947,14.6269253 L12.5409261,13.7223099 C12.2639575,12.7530791 12.1254732,12.559233 11.8485046,12.4300022 C11.7100203,12.3653868 11.6407782,12.3653868 11.2253253,12.4300022 C10.7406303,12.559233 10.6713881,12.559233 10.8098724,12.1715406 C10.8791146,11.9130791 10.9483567,11.9130791 11.4330517,11.719233 C12.4024418,11.3315406 13.0256211,11.396156 13.3718319,11.9130791 Z M4,14 L1,14 L1,17 L4,17 L4,14 Z M5,0 L5,1.95 C6.17,1.86 7.34,2.21 8.27,2.92 C9.52,4.1 10.15,5.79 10,7.5 L10,8.3534789 C9.65,8.5134789 9.32,8.78 9,9 L9,7.5 C9.14,6.09 8.64,4.7 7.64,3.7 C6.88,3.13 5.94,2.87 5,2.95 L5,5 L0,5 L0,0 L5,0 Z M19,0 L19,5 L14,5 L14,2.95 C12.97,2.85 11.95,3.18 11.18,3.86 C10.98,4.05 10.66,4.05 10.47,3.85 C10.3011111,3.67222222 10.2823457,3.39962963 10.420727,3.20780521 L10.48,3.14 C11.44,2.27 12.71,1.84 14,1.94 L14,0 L19,0 Z M18,1 L15,1 L15,4 L18,4 L18,1 Z M4,1 L1,1 L1,4 L4,4 L4,1 Z" id="Combined-Shape" fill="#000000" fill-rule="nonzero"></path>
    </g>
</svg>