<?xml version="1.0" encoding="utf-8"?>
<!-- Generator: Adobe Illustrator 21.1.0, SVG Export Plug-In . SVG Version: 6.00 Build 0)  -->
<svg version="1.1" id="Layer_1" xmlns="http://www.w3.org/2000/svg" xmlns:xlink="http://www.w3.org/1999/xlink" x="0px" y="0px"
	 viewBox="0 0 24 24" style="enable-background:new 0 0 24 24;" xml:space="preserve">
<path id="XMLID_2_" d="M17.7,15.4c-1.5,0-2.7,0.8-3.5,1.8v-5.1l7.7-7.8l-0.6-0.6l-7.1,7.2V0h-0.8v11.6l-4.2,4.2c0-0.3,0-0.5,0-0.8
	c0-1.2-0.5-2.3-1.2-3c-0.8-0.8-2-1.2-3-1.2c-1.2,0-2.3,0.5-3.2,1.2c-0.8,0.8-1.2,2-1.2,3c0,1.2,0.5,2.3,1.2,3s2,1.2,3,1.2l0,0
	c1.2,0,2.3-0.5,3-1.2l5.4-5.4v6.9c0,2.4,2,4.4,4.4,4.4c2.4,0,4.4-2,4.4-4.4C22.1,17.4,20.1,15.4,17.7,15.4z M5,18.7L5,18.7
	c-0.9,0-1.8-0.3-2.6-1.1c-0.6-0.6-1.1-1.5-1.1-2.6c0-0.9,0.3-1.8,1.1-2.6C3.1,11.9,4,11.5,5,11.5c0.9,0,1.8,0.3,2.6,1.1
	c0.6,0.6,1.1,1.5,1.1,2.6c0,0.9-0.3,1.8-1.1,2.6C6.8,18.3,5.9,18.7,5,18.7z M17.7,23.2c-2,0-3.5-1.7-3.5-3.5c0-2,1.7-3.5,3.5-3.5
	c2,0,3.5,1.7,3.5,3.5C21.3,21.7,19.7,23.2,17.7,23.2z"/>
</svg>
