<?xml version="1.0" encoding="utf-8"?>
<!-- Generator: Adobe Illustrator 21.1.0, SVG Export Plug-In . SVG Version: 6.00 Build 0)  -->
<svg version="1.1" id="Layer_1" xmlns="http://www.w3.org/2000/svg" xmlns:xlink="http://www.w3.org/1999/xlink" x="0px" y="0px"
	 viewBox="0 0 24 24" style="enable-background:new 0 0 24 24;" xml:space="preserve">
<path d="M12.8,10.9l-1.9,0.7l-0.2-7.3c-0.1-0.9,0.4-1.9,1.1-2.4l2.1-1.7L12.8,10.9z M7.2,13.3l16.1-6l-1.1,2.4
	c0,0.2-0.2,0.4-0.3,0.5c-0.4,0.6-1.1,1-1.7,1.1l-12.8,3c0,0,0,0-0.1,0.1c0,0-0.1,0.1,0,0.2c0,0.4-0.1,0.9-0.3,1.3
	c-0.8,1.7-2.7,2.4-4.4,1.7C0.9,17,0.2,15,0.9,13.3c0.4-0.8,1-1.4,1.9-1.8c0.8-0.4,1.7-0.3,2.5,0.1C6,12,6.7,12.6,7,13.3
	c0.1,0.1,0.1,0.1,0.1,0.1C7.1,13.4,7.1,13.4,7.2,13.3z M4.7,16.7c0.3-0.2,0.7-0.4,1-0.7c0.1-0.1,0.2-0.2,0.2-0.4l0.1-0.1
	c0.2-0.6,0.2-1.1,0.1-1.6c-0.4-1.1-1.7-1.6-2.7-1.2c-0.4,0.1-0.7,0.4-1,0.8c-0.1,0.1-0.2,0.2-0.3,0.3c-0.2,0.5-0.2,1.1,0,1.7
	C2.3,16.5,3.6,17.2,4.7,16.7z M12.2,17.3c0,0,0,0.1,0.2,0.2l0,0c0.8,0.1,1.5,0.5,2,1.2c0.6,0.8,0.8,1.6,0.7,2.4
	c0,0.6-0.3,1.2-0.7,1.7c-0.2,0.2-0.3,0.4-0.5,0.6c-1.5,1.2-3.6,1-4.7-0.4c-0.6-0.7-0.9-1.5-0.7-2.4c0.1-0.9,0.5-1.7,1.2-2.3
	c0.5-0.3,0.9-0.6,1.3-0.7c0.1,0,0.2-0.1,0.1-0.1L11,14.2l1.6-0.4L12.2,17.3z M12,18.5c-0.6,0-1.2,0.1-1.6,0.5
	c-0.1,0.1-0.3,0.2-0.4,0.4c-0.3,0.3-0.4,0.7-0.4,1.1c0,0.6,0.1,1.2,0.5,1.6c0.3,0.5,0.9,0.7,1.4,0.8c0.7,0.1,1.5-0.2,1.9-0.8
	c0.3-0.3,0.4-0.7,0.4-1.1C14,19.7,13.2,18.7,12,18.5z"/>
</svg>
