<?xml version="1.0" encoding="utf-8"?>
<!-- Generator: Adobe Illustrator 21.1.0, SVG Export Plug-In . SVG Version: 6.00 Build 0)  -->
<svg version="1.1" id="Layer_1" xmlns="http://www.w3.org/2000/svg" xmlns:xlink="http://www.w3.org/1999/xlink" x="0px" y="0px"
	 viewBox="0 0 24 24" style="enable-background:new 0 0 24 24;" xml:space="preserve">
<path d="M0.8,8.9h9.8c0.4,0,0.8-0.3,0.8-0.8V0.8c0-0.4-0.3-0.8-0.8-0.8H0.8C0.4,0,0,0.3,0,0.8v7.4C0,8.6,0.3,8.9,0.8,8.9z M0.8,24
	h9.8c0.4,0,0.8-0.3,0.8-0.8v-8.8v-3.5c0-0.4-0.3-0.8-0.8-0.8H0.8c-0.4,0-0.8,0.3-0.8,0.8v12.2C0,23.7,0.3,24,0.8,24z M13.4,24h9.8
	c0.4,0,0.8-0.3,0.8-0.8v-7.4c0-0.4-0.3-0.8-0.8-0.8h-9.8c-0.4,0-0.8,0.3-0.8,0.8v7.4C12.6,23.7,13,24,13.4,24z M12.6,9.6v3.5
	c0,0.4,0.3,0.8,0.8,0.8h9.8c0.4,0,0.8-0.3,0.8-0.8V0.8C24,0.4,23.7,0,23.2,0h-9.8c-0.4,0-0.8,0.3-0.8,0.8V9.6z"/>
</svg>
