<?xml version="1.0" encoding="utf-8"?>
<!-- Generator: Adobe Illustrator 21.1.0, SVG Export Plug-In . SVG Version: 6.00 Build 0)  -->
<svg version="1.1" id="Layer_1" xmlns="http://www.w3.org/2000/svg" xmlns:xlink="http://www.w3.org/1999/xlink" x="0px" y="0px"
	 viewBox="0 0 14 14" style="enable-background:new 0 0 14 14;" xml:space="preserve">
<path d="M12.3,1.4c-0.3-0.3-0.8-0.5-1.3-0.8C9.9,0.3,8.5,0,7,0C5.4,0,4,0.3,3,0.6c-0.6,0.2-1,0.4-1.3,0.8C1.3,1.7,1.1,2.1,1.1,2.5
	v8.9c0,0.4,0.2,0.8,0.6,1.1C2,12.9,2.5,13.1,3,13.4C4,13.7,5.4,14,6.9,14s2.9-0.3,3.9-0.6c0.6-0.2,1-0.4,1.3-0.8
	c0.4-0.3,0.6-0.8,0.6-1.1V2.5C12.8,2.1,12.6,1.7,12.3,1.4z M7,13c-1.3,0-2.7-0.2-3.6-0.6c-0.4-0.2-0.8-0.4-1-0.6
	c-0.2-0.2-0.3-0.3-0.3-0.4V9.8c0.3,0.2,0.6,0.4,1.1,0.5c1.1,0.4,2.4,0.6,3.9,0.6s2.8-0.2,3.9-0.6c0.4-0.1,0.8-0.3,1.1-0.5v1.7
	c0,0.1-0.1,0.3-0.3,0.4c-0.2,0.2-0.6,0.4-1,0.6C9.6,12.9,8.3,13,7,13z M7,1c1.3,0,2.7,0.2,3.6,0.6c0.4,0.2,0.8,0.4,1,0.6
	c0.2,0.1,0.3,0.3,0.3,0.4S11.8,2.8,11.5,3c-0.3,0.2-0.6,0.4-1,0.5C9.6,3.8,8.3,4,7,4S4.4,3.8,3.5,3.5C3,3.4,2.6,3.2,2.4,3
	C2.1,2.7,2.1,2.6,2.1,2.5l0,0c0-0.1,0.1-0.3,0.3-0.4c0.2-0.2,0.6-0.4,1-0.5C4.3,1.1,5.6,1,7,1z M10.8,4.4c0.4-0.1,0.8-0.3,1.1-0.5
	v1.7l0,0c0,0.1-0.1,0.3-0.3,0.4s-0.6,0.4-1,0.6C9.6,6.9,8.3,7.1,7,7.1S4.4,6.9,3.4,6.6C3,6.5,2.6,6.3,2.4,6C2.1,5.9,2.1,5.7,2.1,5.5
	l0,0l0,0V3.8C2.4,4,2.7,4.2,3.2,4.3C4.2,4.7,5.6,4.9,7,4.9C8.4,5,9.8,4.8,10.8,4.4z M10.9,7.4c0.4-0.1,0.8-0.3,1.1-0.5v1.5l0,0
	c0,0.1-0.1,0.3-0.3,0.4s-0.6,0.4-1,0.6C9.6,9.7,8.4,9.9,7,9.9S4.4,9.7,3.5,9.4C3,9.3,2.7,9.1,2.5,8.8C2.2,8.7,2.1,8.5,2.1,8.4l0,0
	V6.9c0.3,0.2,0.6,0.4,1.1,0.5C4.3,7.8,5.6,8,7.1,8C8.4,8,9.8,7.8,10.9,7.4z"/>
</svg>
