<?xml version="1.0" encoding="utf-8"?>
<!-- Generator: Adobe Illustrator 21.1.0, SVG Export Plug-In . SVG Version: 6.00 Build 0)  -->
<svg version="1.1" id="Layer_1" xmlns="http://www.w3.org/2000/svg" xmlns:xlink="http://www.w3.org/1999/xlink" x="0px" y="0px"
	 viewBox="0 0 24 24" style="enable-background:new 0 0 24 24;" xml:space="preserve">
<path d="M12,0C8,0,1.2,0.7,1.2,3v18c0,2.3,6.8,3,10.8,3s10.8-0.7,10.8-3V3C22.8,0.7,16,0,12,0z M12,1.2c6,0,9.5,1.2,9.6,1.8
	C21.5,3.6,18,4.8,12,4.8S2.5,3.6,2.4,3C2.5,2.4,6,1.2,12,1.2z M2.4,4.5C4.5,5.6,9,6,12,6s7.5-0.4,9.6-1.5V9
	c-0.1,0.6-3.6,1.8-9.6,1.8S2.5,9.6,2.4,9l0,0V4.5z M2.4,10.5C4.5,11.6,9,12,12,12s7.5-0.4,9.6-1.5V15c-0.1,0.6-3.6,1.8-9.6,1.8
	S2.5,15.6,2.4,15l0,0V10.5z M12,22.8c-6,0-9.5-1.2-9.6-1.8v-4.5C4.5,17.6,9,18,12,18s7.5-0.4,9.6-1.5V21C21.5,21.6,18,22.8,12,22.8z
	"/>
</svg>
