<?xml version="1.0" encoding="utf-8"?>
<!-- Generator: Adobe Illustrator 21.1.0, SVG Export Plug-In . SVG Version: 6.00 Build 0)  -->
<svg version="1.1" id="Layer_1" xmlns="http://www.w3.org/2000/svg" xmlns:xlink="http://www.w3.org/1999/xlink" x="0px" y="0px"
	 viewBox="0 0 24 24" style="enable-background:new 0 0 24 24;" xml:space="preserve">
<path d="M18.9,0.6C17,0.2,14.4,0,12,0S7,0.2,5.1,0.6c-2.6,0.6-4,1.4-4,2.5v17.8c0,1.1,1.3,1.9,4,2.5C7,23.8,9.6,24,12,24
	s5-0.2,6.9-0.6c2.6-0.6,4-1.4,4-2.5V3.1C22.8,2,21.5,1.2,18.9,0.6z M12,4.8c-5.8,0-9.2-1.2-9.4-1.7C2.8,2.6,6.2,1.4,12,1.4
	c5.8,0,9.2,1.2,9.4,1.7C21.2,3.6,17.8,4.8,12,4.8z M2.6,9V4.8c2,1,6.1,1.4,9.4,1.4c3.2,0,7.3-0.4,9.4-1.4l0,4.2
	c-0.1,0.5-3.5,1.7-9.4,1.7C6.1,10.7,2.7,9.5,2.6,9z M2.6,15v-4.3c2,1,6.1,1.4,9.4,1.4c3.2,0,7.3-0.4,9.4-1.4l0,4.2
	c-0.1,0.5-3.5,1.7-9.4,1.7C6.1,16.6,2.7,15.4,2.6,15z M2.6,16.7c2,1,6.1,1.4,9.4,1.4s7.3-0.4,9.4-1.4l0,4.2
	c-0.1,0.5-3.5,1.7-9.4,1.7c-5.9,0-9.3-1.2-9.4-1.7V16.7z"/>
</svg>
