<?xml version="1.0" encoding="utf-8"?>
<!-- Generator: Adobe Illustrator 21.1.0, SVG Export Plug-In . SVG Version: 6.00 Build 0)  -->
<svg version="1.1" id="Layer_1" xmlns="http://www.w3.org/2000/svg" xmlns:xlink="http://www.w3.org/1999/xlink" x="0px" y="0px"
	 viewBox="0 0 24 24" style="enable-background:new 0 0 24 24;" xml:space="preserve">
<path d="M16,0.1c-4.4,0-8,3.6-8,8c0,0.5,0,1.2,0.2,1.8l-8.2,8v6h6.8v-3.4h3.4v-3.4h2.7l1.4-1.4c0.5,0.2,1.2,0.2,1.8,0.2
	c4.4,0,8-3.6,8-8S20.4,0.1,16,0.1z M15.8,14c-0.7,0-1.2-0.2-1.8-0.2l-0.7-0.2l-1.8,1.8H7.6v3.4H4.3v3h-2v-2.7l8.4-8.4L10.5,10
	c-0.2-0.5-0.4-1.1-0.4-1.8c0-3.2,2.5-5.7,5.7-5.7c3.2,0,5.7,2.5,5.7,5.7C21.5,11.5,19,14,15.8,14z"/>
</svg>
