<?xml version="1.0" encoding="utf-8"?>
<!-- Generator: Adobe Illustrator 21.1.0, SVG Export Plug-In . SVG Version: 6.00 Build 0)  -->
<svg version="1.1" id="Layer_1" xmlns="http://www.w3.org/2000/svg" xmlns:xlink="http://www.w3.org/1999/xlink" x="0px" y="0px"
	 viewBox="0 0 24 24" style="enable-background:new 0 0 24 24;" xml:space="preserve">
<path d="M24,11.6v0.6c0,0.2-0.2,0.4-0.4,0.4H0.4c-0.2,0-0.4-0.2-0.4-0.4v-0.6c0-0.2,0.2-0.4,0.4-0.4h23.1C23.8,11.1,24,11.3,24,11.6
	z M12.1,13.5c-0.5,0-0.8,0.4-0.8,0.8s0.4,0.8,0.8,0.8s0.8-0.4,0.8-0.8S12.5,13.5,12.1,13.5z M12.1,10.2c0.5,0,0.8-0.4,0.8-0.8
	c0-0.5-0.4-0.8-0.8-0.8c-0.5,0-0.8,0.4-0.8,0.8C11.2,9.8,11.6,10.2,12.1,10.2z M9.6,16c-0.5,0-0.8,0.4-0.8,0.8
	c0,0.5,0.4,0.8,0.8,0.8c0.5,0,0.8-0.4,0.8-0.8C10.4,16.4,10,16,9.6,16z M9.6,7.7c0.5,0,0.8-0.4,0.8-0.8C10.4,6.4,10,6,9.6,6
	C9.1,6,8.8,6.4,8.8,6.9C8.8,7.3,9.1,7.7,9.6,7.7z M7.6,5.7c0.5,0,0.8-0.4,0.8-0.8C8.4,4.4,8,4,7.6,4C7.1,4,6.8,4.4,6.8,4.9
	C6.8,5.3,7.1,5.7,7.6,5.7z M7.6,18c-0.5,0-0.8,0.4-0.8,0.8c0,0.5,0.4,0.8,0.8,0.8c0.5,0,0.8-0.4,0.8-0.8C8.4,18.4,8,18,7.6,18z"/>
</svg>
