<?xml version="1.0" encoding="utf-8"?>
<!-- Generator: Adobe Illustrator 21.1.0, SVG Export Plug-In . SVG Version: 6.00 Build 0)  -->
<svg version="1.1" id="Layer_1" xmlns="http://www.w3.org/2000/svg" xmlns:xlink="http://www.w3.org/1999/xlink" x="0px" y="0px"
	 viewBox="0 0 24 24" style="enable-background:new 0 0 24 24;" xml:space="preserve">
<path d="M8.7,20.8c-4.5,0-7.2-1.2-7.2-1.7v-2.9C3,17,5.8,17.5,8.7,17.5c0.9,0,1.7-0.1,2.5-0.1v-1.4C10.4,16,9.6,16,8.7,16
	c-4.5,0-7.2-1.2-7.2-1.7v-2.9c1.5,0.8,4.3,1.3,7.2,1.3c0.3,0,0.7,0,1,0v-1.4c-0.3,0-0.7,0-1,0c-4.5,0-7.2-1.2-7.2-1.7V6.7
	C3,7.5,5.8,8,8.7,8s5.7-0.5,7.2-1.3v1.1h1.5V4.8c0-2.1-4.5-3.1-8.7-3.1S0,2.7,0,4.8v14.3c0,2.1,4.5,3.1,8.7,3.1
	c3.2,0,6.5-0.6,7.9-1.7c-0.3-0.4-0.6-0.7-1-1.1C15,20,12.5,20.8,8.7,20.8z M8.7,3.2c4.5,0,7.2,1.2,7.2,1.7s-2.7,1.7-7.2,1.7
	S1.5,5.4,1.5,4.8S4.2,3.2,8.7,3.2z M23.5,20.3l-4.8-6.2c0.5-1.4,0.3-3-0.6-4.2c-0.8-1-1.9-1.6-3.2-1.7c-0.4,0-0.8,0-1.2,0.1l0,0
	c-0.2,0.1-0.4,0.2-0.5,0.5c-0.1,0.2-0.1,0.5,0.1,0.7l1.5,1.9c0.1,0.2,0.2,0.4,0.2,0.6c0,0.2-0.1,0.4-0.3,0.6
	c-0.4,0.3-0.9,0.2-1.2-0.2l-1.5-2c-0.2-0.2-0.4-0.3-0.7-0.3c-0.3,0-0.5,0.2-0.6,0.4c-0.8,1.5-0.6,3.4,0.4,4.7c0.9,1.2,2.4,1.8,4,1.7
	l4.8,6.2c0.4,0.5,0.9,0.8,1.5,0.9c0.1,0,0.2,0,0.3,0c0.5,0,1-0.2,1.4-0.5C24.1,22.8,24.3,21.3,23.5,20.3z M22.2,22.4
	c-0.4,0.3-0.9,0.2-1.2-0.2l-5-6.6c-0.1-0.2-0.4-0.3-0.6-0.3c-0.1,0-0.1,0-0.2,0c-1.1,0.2-2.3-0.2-3-1.1c-0.4-0.5-0.6-1.2-0.6-1.8
	l0.6,0.7c0.4,0.5,0.9,0.8,1.5,0.9c0.6,0.1,1.2-0.1,1.7-0.5c1-0.8,1.2-2.2,0.4-3.2l-0.6-0.8c0.6,0.2,1.2,0.5,1.6,1.1l0,0
	c0.7,0.9,0.8,2.1,0.3,3.2c-0.1,0.2-0.1,0.5,0.1,0.8l5,6.5C22.7,21.6,22.6,22.1,22.2,22.4z"/>
</svg>
