<?xml version="1.0" encoding="utf-8"?>
<!-- Generator: Adobe Illustrator 21.1.0, SVG Export Plug-In . SVG Version: 6.00 Build 0)  -->
<svg version="1.1" id="Layer_1" xmlns="http://www.w3.org/2000/svg" xmlns:xlink="http://www.w3.org/1999/xlink" x="0px" y="0px"
	 viewBox="0 0 24 24" style="enable-background:new 0 0 24 24;" xml:space="preserve">
<path d="M12,0C5.4,0,0,5.4,0,12s5.4,12,12,12s12-5.4,12-12S18.6,0,12,0z M12,22.6C6.1,22.6,1.4,17.9,1.4,12S6.1,1.4,12,1.4
	S22.6,6.1,22.6,12S17.9,22.6,12,22.6z M12,6.6c1.5-1.5,4-1.5,5.5,0c1.5,1.5,1.5,4,0,5.5c-1,1-2.5,1.4-3.9,1l-2,2H10v1.6H8.5v1.6
	l-3.2,0.3l0.1-2.5l5.6-5.6C10.6,9.1,11,7.6,12,6.6L12,6.6z M14.9,9.2c0.4,0.4,1.1,0.4,1.6,0c0.4-0.4,0.4-1.1,0-1.6
	c-0.4-0.4-1.1-0.4-1.6,0C14.5,8.1,14.5,8.8,14.9,9.2z"/>
</svg>
