<?xml version="1.0" encoding="utf-8"?>
<!-- Generator: Adobe Illustrator 21.1.0, SVG Export Plug-In . SVG Version: 6.00 Build 0)  -->
<svg version="1.1" id="Layer_1" xmlns="http://www.w3.org/2000/svg" xmlns:xlink="http://www.w3.org/1999/xlink" x="0px" y="0px"
	 viewBox="0 0 24 24" style="enable-background:new 0 0 24 24;" xml:space="preserve">
<path d="M12,0C5.4,0,0,5.4,0,12s5.4,12,12,12s12-5.4,12-12S18.6,0,12,0z M12,22.6C6.1,22.6,1.4,17.9,1.4,12S6.1,1.4,12,1.4
	S22.6,6.1,22.6,12S17.9,22.6,12,22.6z M14.2,8.4c0-0.7,0.6-1.4,1.3-1.4s1.3,0.6,1.3,1.4c0,0.7-0.6,1.3-1.3,1.3S14.2,9.1,14.2,8.4z
	 M14.7,4.8c-2.5,0-4.5,2-4.5,4.5c0,0.3,0,0.7,0.1,1l-4.6,4.5v3.4h3.8v-1.9h1.9v-1.9h1.5l0.8-0.8c0.3,0.1,0.7,0.1,1,0.1
	c2.5,0,4.5-2,4.5-4.5S17.2,4.8,14.7,4.8z M8.1,15.1V17H7v-1.5l4.7-4.7l-0.1-0.4c-0.1-0.3-0.2-0.6-0.2-1c0-1.8,1.4-3.2,3.2-3.2
	c1.8,0,3.2,1.4,3.2,3.2s-1.4,3.2-3.2,3.2c-0.4,0-0.7-0.1-1-0.1l-0.4-0.1l-1,1H10v1.9H8.1z"/>
</svg>
