<?xml version="1.0" encoding="utf-8"?>
<!-- Generator: Adobe Illustrator 21.1.0, SVG Export Plug-In . SVG Version: 6.00 Build 0)  -->
<svg version="1.1" id="Layer_1" xmlns="http://www.w3.org/2000/svg" xmlns:xlink="http://www.w3.org/1999/xlink" x="0px" y="0px"
	 viewBox="0 0 24 24" style="enable-background:new 0 0 24 24;" xml:space="preserve">
<style type="text/css">
	.st0{fill:none;}
</style>
<path d="M19.9,4C19.9,4,19.9,4,19.9,4c-0.9-0.9-2.4-0.9-3.3,0h0c-0.5,0.5-0.7,1.1-0.7,1.7c0,0.6,0.2,1.2,0.7,1.7
	c0.4,0.4,1,0.7,1.7,0.7h0c0.6,0,1.2-0.3,1.6-0.7c0,0,0,0,0,0c0.4-0.4,0.7-1,0.7-1.7C20.6,5.1,20.4,4.5,19.9,4C19.9,4,19.9,4,19.9,4z
	 M19.2,5.7c0,0.2-0.1,0.4-0.3,0.6c-0.4,0.4-0.9,0.4-1.3,0c-0.2-0.2-0.3-0.4-0.3-0.6c0-0.2,0.1-0.5,0.3-0.6l0,0
	c0.4-0.3,0.9-0.3,1.3,0C19.1,5.2,19.2,5.5,19.2,5.7L19.2,5.7z"/>
<g>
	<path class="st0" d="M13.7,1.5c0.5-0.2,1-0.4,1.5-0.6C14.7,1,14.2,1.2,13.7,1.5z"/>
	<path class="st0" d="M20.8,3.1c-2.3-2.3-5.9-2.3-8.2,0c-1.5,1.5-2,3.6-1.5,5.6c0,0.2,0.1,0.3,0.2,0.5l0.2,0.4l-10,9.9v3h3L5,22
		v-2.7h2.3V17h2.3v-2.3h2.7l2-2.1l0.4,0.1c2.1,0.7,4.4,0.2,6-1.4c0.5-0.5,1-1.2,1.3-2C23,7.3,22.5,4.9,20.8,3.1
		C20.9,3.2,20.9,3.2,20.8,3.1z"/>
	<path d="M21.9,2.1L21.9,2.1C20.5,0.8,18.7,0,16.7,0S13,0.8,11.6,2.1C9.7,4,9,6.8,9.8,9.3L0,19v5h5l1.4-1.3v-1.9h2.3v-2.3h2.3v-2.3
		H13l1.8-1.9c2.5,0.7,5.2,0,7-1.9c0.7-0.7,1.2-1.5,1.6-2.5C24.5,7.2,23.9,4.2,21.9,2.1z M15.2,0.9c-0.5,0.1-1,0.3-1.5,0.6
		C14.2,1.2,14.7,1,15.2,0.9z M22.1,9.4c-0.3,0.8-0.7,1.4-1.3,2c-1.6,1.6-3.9,2.1-6,1.4l-0.4-0.1l-2,2.1H9.7V17H7.4v2.3H5V22
		l-0.5,0.5h-3v-3l10-9.9l-0.2-0.4c-0.1-0.2-0.1-0.3-0.2-0.5c-0.5-2,0-4.1,1.5-5.6c2.3-2.3,5.9-2.3,8.2,0c0,0,0.1,0.1,0.1,0.1
		C22.5,4.9,23,7.3,22.1,9.4z"/>
</g>
<path d="M20.3,1.8c-0.3-0.2-0.5-0.3-0.8-0.4C19.8,1.5,20.1,1.6,20.3,1.8z"/>
<path d="M19.3,1.3c-0.2-0.1-0.4-0.2-0.6-0.2C18.9,1.1,19.1,1.2,19.3,1.3z"/>
<path d="M18.4,1c-0.3-0.1-0.6-0.1-0.9-0.2C17.8,0.8,18.1,0.9,18.4,1z"/>
<path d="M13.7,1.5c-0.2,0.1-0.5,0.3-0.7,0.4C13.2,1.7,13.4,1.6,13.7,1.5z"/>
<path d="M14.6,13.4l0.2,0.1C14.7,13.5,14.7,13.4,14.6,13.4L14.6,13.4z"/>
<path d="M22.8,9.6L22.8,9.6C22.8,9.7,22.8,9.7,22.8,9.6C22.8,9.7,22.8,9.7,22.8,9.6c0-0.1,0.1-0.2,0.1-0.3
	C22.9,9.4,22.8,9.5,22.8,9.6z"/>
<path d="M10.5,9.3l0,0.1l0,0C10.6,9.4,10.6,9.4,10.5,9.3z"/>
</svg>
