<?xml version="1.0" encoding="utf-8"?>
<!-- Generator: Adobe Illustrator 21.1.0, SVG Export Plug-In . SVG Version: 6.00 Build 0)  -->
<svg version="1.1" id="Layer_1" xmlns="http://www.w3.org/2000/svg" xmlns:xlink="http://www.w3.org/1999/xlink" x="0px" y="0px"
	 viewBox="0 0 24 24" style="enable-background:new 0 0 24 24;" xml:space="preserve">
<path d="M11.5,11.5c0,2.3,1.6,4.1,3.5,4.1s3.5-1.8,3.5-4.1S17,7.5,15.1,7.5C13.1,7.5,11.5,9.2,11.5,11.5z M17.5,11.5
	c0,1.6-1,2.8-2.4,2.8s-2.4-1.2-2.4-2.8s1.1-2.8,2.4-2.8C16.4,8.7,17.5,10,17.5,11.5z M24,5.8V0.4c-0.1,0-0.1,0-0.2,0H1.1
	C0.5,0.4,0,0.9,0,1.6v22h2l0,0h2.4v-1H2.2v-5.4h1.9V16H2.2V9.6h1.9V8.4H2.2V4.1h5.9v1.7h1.1V4.1h6.4v1.6c-0.2,0-0.4,0-0.6,0
	c-2.1,0-4.2,0.9-6.1,2.8c-1.2,1-2.3,2.4-2.5,2.7c-0.2,0.2-0.2,0.6,0,0.7c0,0,0.8,1.5,2.5,2.7c2.1,1.9,4.1,2.8,6.1,2.8
	s4.2-0.9,6.1-2.8c0.8-0.8,1.7-1.7,2.5-2.7l0.1-0.1c0.1-0.2,0.1-0.6,0-0.7c-0.1-0.1-0.1-0.2-0.2-0.2c-0.4-0.5-1.1-1.6-2.4-2.4
	C19.5,7,18,6,16.3,5.8h0.4V4.1h5.9v1.8H24z M22.5,11.5c-0.9,1.1-4.1,4.7-7.5,4.7c-2.4,0-4.9-1.6-7.6-4.7c1-1.1,4.1-4.7,7.6-4.7
	C18.9,6.9,22,10.7,22.5,11.5z"/>
</svg>
