<?xml version="1.0" encoding="utf-8"?>
<!-- Generator: Adobe Illustrator 21.1.0, SVG Export Plug-In . SVG Version: 6.00 Build 0)  -->
<svg version="1.1" id="Layer_1" xmlns="http://www.w3.org/2000/svg" xmlns:xlink="http://www.w3.org/1999/xlink" x="0px" y="0px"
	 viewBox="0 0 24 24" style="enable-background:new 0 0 24 24;" xml:space="preserve">
<path d="M16.2,3.7V2.5c0,0,0,0,0-0.1L16,0.9C16,0.4,15.7,0,15.2,0H8.7C8.2,0,7.9,0.4,7.9,0.7L7.6,2.7v1H2v1.5h2c0,0,0,0,0,0.1
	l0.5,16.5c0,1.2,1,2.3,2.3,2.3H17c1.2,0,2.3-1,2.3-2.3l0.5-16.5V5.2h2V3.7H16.2z M9.2,1.9h5.2l0.1,1.2H9L9.2,1.9z M18.4,5.3
	l-0.5,16.6c0,0.4-0.3,0.7-0.7,0.7H6.9c-0.4,0-0.7-0.3-0.7-0.7L5.6,5.3c0,0,0,0,0-0.1H9l0.2,14.3v0.1c0.1,0.3,0.4,0.6,0.8,0.6
	c0.5,0,0.8-0.3,0.8-0.8L10.7,5.2h2.7l-0.2,14.2c0,0.5,0.3,0.8,0.8,0.8s0.8-0.3,0.8-0.8L15,5.2L18.4,5.3C18.4,5.2,18.4,5.3,18.4,5.3z
	"/>
</svg>
