<?xml version="1.0" encoding="utf-8"?>
<!-- Generator: Adobe Illustrator 21.1.0, SVG Export Plug-In . SVG Version: 6.00 Build 0)  -->
<svg version="1.1" id="Layer_1" xmlns="http://www.w3.org/2000/svg" xmlns:xlink="http://www.w3.org/1999/xlink" x="0px" y="0px"
	 viewBox="0 0 24 24" style="enable-background:new 0 0 24 24;" xml:space="preserve">
<path d="M20.3,2.7h-3.6C16.2,1,14.6,0,12,0C9.4,0,7.8,1,7.3,2.7H3.7C3.4,2.7,3.2,3,3.2,3.3c0,0.3,0.2,0.5,0.5,0.5h0.8L5,22
	c0,1.1,0.9,2,2,2H17c1.1,0,2-0.9,2-2l0.5-18.3h0.8c0.3,0,0.5-0.2,0.5-0.5C20.8,3,20.6,2.7,20.3,2.7z M12,1c1.4,0,3.1,0.3,3.6,1.7
	H8.4C8.9,1.4,10.6,1,12,1z M18,22c0,0.5-0.4,0.9-0.9,0.9H7C6.5,23,6,22.5,6,22L5.5,3.8h3.5l0,0h1l0,0h3.8l0,0h1l0,0h3.5L18,22z
	 M12,11.6l3.3-3.3l1,1L13,12.5l3.3,3.3l-1,1L12,13.5l-3.3,3.3l-1-1l3.3-3.3L7.7,9.2l1-1L12,11.6z"/>
</svg>
