<?xml version="1.0" encoding="utf-8"?>
<!-- Generator: Adobe Illustrator 21.1.0, SVG Export Plug-In . SVG Version: 6.00 Build 0)  -->
<svg version="1.1" id="Layer_1" xmlns="http://www.w3.org/2000/svg" xmlns:xlink="http://www.w3.org/1999/xlink" x="0px" y="0px"
	 viewBox="0 0 24 24" style="enable-background:new 0 0 24 24;" xml:space="preserve">
<path d="M20.7,2.6h-3.3C16.8,0.9,15.1,0,12.6,0c-2.5,0-4.2,0.9-4.8,2.6H4.4C4,2.6,3.7,3.1,3.7,3.5c0,0.4,0.3,0.7,0.7,0.7H5l0.5,17.6
	c0,1.2,1,2.2,2.2,2.2h9.8c1.2,0,2.2-1,2.2-2.2l0.5-17.7h0.5c0.4,0,0.7-0.3,0.7-0.7C21.4,3,21.1,2.6,20.7,2.6z M12.6,1.5
	c1.1,0,2.6,0.2,3.1,1.2H9.4C10.2,1.6,12,1.5,12.6,1.5z M18.2,21.8L18.2,21.8c0,0.4-0.3,0.6-0.6,0.6l-9.9,0c-0.2,0-0.3-0.1-0.4-0.1
	C7,22.2,6.9,22,6.9,21.8L6.4,4.2h12L18.2,21.8z"/>
</svg>
