<?xml version="1.0" encoding="utf-8"?>
<!-- Generator: Adobe Illustrator 21.1.0, SVG Export Plug-In . SVG Version: 6.00 Build 0)  -->
<svg version="1.1" id="Layer_1" xmlns="http://www.w3.org/2000/svg" xmlns:xlink="http://www.w3.org/1999/xlink" x="0px" y="0px"
	 viewBox="0 0 24 24" style="enable-background:new 0 0 24 24;" xml:space="preserve">
<path d="M23,7.3l0.5,0.5l-0.8,0.8l-0.5-0.5l0,0l-0.5-0.5l0,0l-0.5-0.5l0,0l-1.5-1.5l0,0l-0.4-0.4l0,0L19.2,5l-0.2,0.2l0,0l-0.5,0.5
	l0,0l-1.4,1.4l0,0l-0.5,0.5l0,0l-0.5,0.5l0,0l-0.5,0.5l-0.8-0.8l0.5-0.5l0,0l0.9-0.9l0,0l1.5-1.5l0,0l0.4-0.4l0,0l0.2-0.2l-0.2-0.2
	l0,0l-0.3-0.3l0,0L17,2.9l0,0l-0.2-0.2l0,0l-0.5-0.5l0,0l-1.5-1.5L15.6,0l1,1l0,0l0.6,0.6v0l0.3,0.3l0,0l0.2,0.2l0,0l0.5,0.5l0,0
	l0.5,0.5l0,0l0.5,0.5l0,0l0,0L19.6,3l0,0l0.5-0.5l0,0l0.6-0.6l0,0L21,1.6v0l0.7-0.7l0,0L22.7,0l0.8,0.8L23,1.2l0,0l-1.5,1.5l0,0
	l-1.1,1.1l0,0l-0.3,0.3l0,0l-0.2,0.2l0.6,0.6l0,0L22,6.4l0,0L23,7.3L23,7.3z M19,18.2c0.1,0.1,0.1,0.2,0.1,0.3
	c0,0.1-0.1,0.2-0.1,0.3c-0.1,0.1-0.2,0.1-0.3,0.1h-5.3c0,0,0,0,0,0c-0.1,0-0.2,0-0.3-0.1c-0.1-0.1-0.2-0.2-0.2-0.3
	c0-0.3,0.2-0.5,0.4-0.5l0,0l0.1,0l5.3,0C18.8,18,18.9,18.1,19,18.2z M13.4,18.3C13.4,18.3,13.4,18.3,13.4,18.3
	C13.4,18.3,13.4,18.3,13.4,18.3L13.4,18.3z M21.6,18.5c0,3-2.5,5.5-5.5,5.5c-0.8,0-1.5-0.2-2.2-0.5c-1,0.1-1.9,0.2-3,0.2
	c-4.5,0-9-1.1-9-3.2V5.1c0-2.1,4.5-3.2,9-3.2c1.3,0,2.7,0.1,3.9,0.3v1.3c-1.1-0.2-2.4-0.3-3.9-0.3c-4.8,0-7.7,1.2-7.7,1.9
	S6.1,7,10.9,7c1.4,0,2.6-0.1,3.7-0.3V8c-1.2,0.2-2.4,0.3-3.7,0.3c-3,0-6-0.5-7.7-1.5v3.4c0,0.7,2.9,1.9,7.7,1.9
	c4.8,0,7.7-1.2,7.7-1.9V7.5c0,0,0,0,0,0V6.4c0,0,0,0,0,0h1.3v8.2C20.9,15.5,21.6,16.9,21.6,18.5z M15.6,13c0.2,0,0.3,0,0.5,0
	c0.9,0,1.8,0.2,2.5,0.6V12C17.8,12.4,16.8,12.8,15.6,13z M3.2,15.4c0,0.7,2.8,1.9,7.5,1.9c0.4-2,2-3.6,3.9-4.1
	c-1.2,0.2-2.5,0.3-3.7,0.3c-3,0-6-0.5-7.7-1.5V15.4z M12.2,22.4c-1-1-1.6-2.3-1.6-3.8c-2.9,0-5.8-0.5-7.4-1.5v3.4
	c0,0.7,2.9,1.9,7.7,1.9C11.3,22.4,11.7,22.4,12.2,22.4z M20.6,18.5c0-2.5-2.1-4.6-4.6-4.6s-4.6,2.1-4.6,4.6s2.1,4.6,4.6,4.6
	S20.6,21,20.6,18.5z"/>
</svg>
