<?xml version="1.0" encoding="utf-8"?>
<!-- Generator: Adobe Illustrator 21.1.0, SVG Export Plug-In . SVG Version: 6.00 Build 0)  -->
<svg version="1.1" id="Layer_1" xmlns="http://www.w3.org/2000/svg" xmlns:xlink="http://www.w3.org/1999/xlink" x="0px" y="0px"
	 viewBox="0 0 24 24" style="enable-background:new 0 0 24 24;" xml:space="preserve">
<path d="M7.4,15.7l3.2-3.2L7.4,9.3l1.3-1.3l3.2,3.3L15.2,8l1.3,1.3l-3.2,3.1l3.2,3.2L15.2,17L12,13.8L8.8,17L7.4,15.7z M20.9,3.4
	c0,0.4-0.3,0.7-0.7,0.7h-0.5l-0.5,17.7c0,1.2-1,2.2-2.2,2.2H7.1c-1.2,0-2.2-1-2.2-2.2L4.4,4.2H3.9c-0.4,0-0.7-0.3-0.7-0.7
	c0-0.4,0.3-0.8,0.7-0.8h3.3C7.8,0.9,9.5,0,12,0c2.5,0,4.2,0.9,4.8,2.6h3.3C20.6,2.6,20.9,3,20.9,3.4z M15.1,2.6
	c-0.6-1-2-1.2-3.1-1.2c-0.6,0-2.4,0.1-3.1,1.2H15.1z M5.9,4.2l0.5,17.6c0,0.2,0.1,0.4,0.3,0.5c0.1,0.1,0.2,0.2,0.4,0.1l9.9,0
	c0.4,0,0.6-0.3,0.6-0.6v0l0.3-17.6H5.9z"/>
</svg>
