<?xml version="1.0" encoding="UTF-8"?>
<svg xmlns="http://www.w3.org/2000/svg" xmlns:xlink="http://www.w3.org/1999/xlink" width="24pt" height="24pt" viewBox="0 0 24 24" version="1.1">
<g id="surface1">
<path style=" stroke:none;fill-rule:nonzero;fill:rgb(0%,0%,0%);fill-opacity:1;" d="M 10.035156 20.289062 C 10.363281 20.289062 10.582031 20.074219 10.582031 19.746094 L 10.363281 5.5625 C 10.363281 5.238281 10.144531 5.019531 9.816406 5.019531 C 9.492188 5.128906 9.273438 5.453125 9.273438 5.671875 L 9.492188 19.855469 C 9.601562 20.074219 9.816406 20.289062 10.035156 20.289062 Z M 13.964844 20.289062 C 14.289062 20.289062 14.507812 20.074219 14.507812 19.746094 L 14.726562 5.5625 C 14.726562 5.238281 14.507812 5.019531 14.183594 5.019531 C 13.855469 5.019531 13.636719 5.238281 13.636719 5.5625 L 13.417969 19.746094 C 13.417969 20.074219 13.636719 20.289062 13.964844 20.289062 Z M 19.089844 5.128906 C 18.761719 5.128906 18.546875 5.34375 18.546875 5.671875 L 18 22.035156 C 18 22.582031 17.5625 23.019531 17.019531 23.019531 L 6.871094 23.019531 C 6.328125 23.019531 5.890625 22.582031 5.890625 22.035156 L 5.453125 5.671875 C 5.453125 5.34375 5.238281 5.128906 4.910156 5.128906 C 4.582031 5.128906 4.363281 5.453125 4.363281 5.671875 L 4.910156 21.925781 C 4.910156 23.019531 5.78125 23.890625 6.871094 23.890625 L 17.019531 23.890625 C 18.109375 23.890625 18.980469 23.019531 18.980469 21.925781 L 19.527344 5.5625 C 19.636719 5.453125 19.417969 5.128906 19.089844 5.128906 Z M 20.398438 2.507812 L 16.144531 2.507812 L 15.710938 0.4375 C 15.710938 0.21875 15.492188 0 15.273438 0 L 8.726562 0 C 8.507812 0 8.289062 0.21875 8.289062 0.4375 L 7.855469 2.507812 L 3.601562 2.507812 C 3.273438 2.507812 3.054688 2.726562 3.054688 3.054688 C 3.054688 3.382812 3.273438 3.601562 3.601562 3.601562 L 20.507812 3.601562 C 20.835938 3.601562 21.054688 3.382812 21.054688 3.054688 C 21.054688 2.726562 20.726562 2.507812 20.398438 2.507812 Z M 8.945312 2.507812 L 9.164062 1.089844 L 14.726562 1.089844 L 15.054688 2.617188 L 8.945312 2.617188 Z M 8.945312 2.507812 "/>
</g>
</svg>
