<?xml version="1.0" encoding="utf-8"?>
<!-- Generator: Adobe Illustrator 21.1.0, SVG Export Plug-In . SVG Version: 6.00 Build 0)  -->
<svg version="1.1" id="Layer_1" xmlns="http://www.w3.org/2000/svg" xmlns:xlink="http://www.w3.org/1999/xlink" x="0px" y="0px"
	 viewBox="0 0 24 24" style="enable-background:new 0 0 24 24;" xml:space="preserve">
<path d="M18.8,13.6c-0.1-0.6-0.4-0.9-0.8-1.1c-0.3-0.2-0.9-0.4-1.5-0.1c-0.2,0.1-0.5,0.1-0.7,0.2c-0.5,0.1-0.9,0.2-1.3,0.3
	c-0.2,0-0.3,0-0.4,0.1L14,13c-0.6-0.1-1.1-0.4-1.6-0.7c-0.2-0.1-0.4-0.2-0.8-0.2c-0.3,0-0.5,0-0.7-0.1L10,12c-0.3,0-0.3,0.1-0.8,0.7
	c-0.1,0.2-0.3,0.4-0.5,0.7l-0.2-0.3c-0.3-0.4-0.4-0.6-0.6-0.7l-0.4-0.4c0,0-0.1,0.1-0.1,0.1v0h0c-0.1,0.1-0.2,0.1-0.3,0.1
	c-0.1,0-0.2,0-0.2-0.1l0,0c0,0,0,0,0,0H6.6l-0.1,0c-0.4,0.2-0.7,0.3-1,0.4l-0.1,0c-0.5,0.3-0.8,0.7-0.8,1.2v4.4c0,0.3,0.1,0.8,0.2,1
	c0.1,0.3,0.3,0.6,0.6,0.9v0.3c0,0.6,0,1.2,0.1,1.8l0,0.1c0.1,1.1,1,1.8,2.3,1.8h2.1c1,0,1.9-0.6,2.2-1.6l0-0.3c0-0.8,0-1.6,0.1-2.3
	l0.1-2.4v-1.5l0.6,0.2l0.2,0l0.1,0c0.2,0.1,0.4,0.1,0.7,0.1l0.5,0c1-0.1,2.1-0.4,3.3-0.8C18.4,15.3,18.9,14.5,18.8,13.6z M17.4,14
	c-1.2,0.4-2.2,0.7-3,0.8h-0.2c-0.1,0-0.2,0-0.4-0.1c-0.1,0-0.1-0.1-0.2-0.1l-0.2,0c-0.1,0-0.2-0.1-0.3-0.1c-0.1-0.1-0.3-0.1-0.4-0.2
	l-0.1,0c-0.1,0-0.2-0.1-0.2-0.1c-0.1,0-0.1,0-0.2-0.1L11.6,14L11,14.4v0.3c0,0.1,0,0.3-0.1,1.9l-0.1,3.2c0,0.8,0,1.5-0.1,2.3
	c-0.1,0.3-0.4,0.5-0.8,0.5h-2c-0.6,0-1-0.3-1-0.7c0-0.6,0-1.2-0.1-1.8l-0.1-0.5v-0.1c0-0.1-0.1-0.2-0.1-0.2v0L6.4,19
	c-0.2-0.2-0.3-0.3-0.3-0.5C6,18.3,6,18.2,6,18l0-1c-0.1-0.7-0.1-1.5,0-2.3l0-0.6c0.1,0,0.2,0,0.2-0.1c0.2-0.1,0.4-0.1,0.5-0.2H7
	c0.2,0.2,0.5,0.6,1,1.3l0.1,0.1h0.8c0.3,0,0.5-0.1,0.8-0.4c0.2-0.3,0.4-0.5,0.5-0.7c0.2-0.3,0.4-0.5,0.5-0.7h0.2
	c0.3,0,0.5,0,0.7,0.1l0.1,0c0.1,0,0.1,0,0.2,0.1c0.4,0.2,1.1,0.6,2.1,0.7h0.4c0.2,0,0.3,0,0.7-0.1c0.2-0.1,0.4-0.1,0.7-0.2
	c0.4-0.1,0.9-0.2,1.4-0.4h0.3c0.1,0.1,0.1,0.1,0.1,0.2C17.5,13.9,17.5,14,17.4,14z M24,1.8v17.1H13.5c-0.4,0-0.7-0.3-0.7-0.7
	c0-0.4,0.3-0.7,0.7-0.7h9.2V3.2H1.5v14.3h1.8c0.4,0,0.7,0.3,0.7,0.7c0,0.4-0.3,0.7-0.7,0.7H0V1.8H24z M7.4,11.2
	c0.4,0.4,0.8,0.6,1.3,0.6c0.5,0,1-0.2,1.3-0.6c0.3-0.3,0.5-0.6,0.7-1c0.4-0.6,0.5-1.3,0.5-2.2V7.6c0-0.9-0.5-1.6-1.4-1.9
	C9.5,5.6,9.2,5.5,8.8,5.5C8.3,5.5,8,5.6,7.7,5.7C6.8,6,6.3,6.6,6.2,7.7v0.4c0,0.6,0.2,1.4,0.5,2.2C6.9,10.6,7.1,10.9,7.4,11.2z
	 M7.6,8.1V7.8c0-0.3,0.2-0.6,0.6-0.8C8.3,7,8.6,7,8.8,7C9.1,7,9.2,7,9.3,7c0.4,0.2,0.6,0.4,0.6,0.8v0.3c0,0.6-0.1,1.1-0.4,1.6
	c0,0.1-0.1,0.2-0.2,0.3c-0.1,0.1-0.2,0.2-0.2,0.3c-0.1,0.1-0.1,0.1-0.3,0.1c-0.1,0-0.1,0-0.2-0.1c0,0-0.1,0-0.1-0.1
	c-0.1-0.1-0.2-0.2-0.2-0.3C8.1,9.8,8.1,9.7,8,9.7C7.8,9.1,7.6,8.6,7.6,8.1z"/>
</svg>
