<?xml version="1.0" encoding="utf-8"?>
<!-- Generator: Adobe Illustrator 21.1.0, SVG Export Plug-In . SVG Version: 6.00 Build 0)  -->
<svg version="1.1" id="Layer_1" xmlns="http://www.w3.org/2000/svg" xmlns:xlink="http://www.w3.org/1999/xlink" x="0px" y="0px"
	 viewBox="0 0 24 24" style="enable-background:new 0 0 24 24;" xml:space="preserve">
<path d="M7.5,11c0.3,0.3,0.7,0.5,1.1,0.5h0c0.5,0,0.9-0.2,1.2-0.5c0.3-0.3,0.5-0.6,0.7-1C10.9,9.3,11,8.6,11,7.9V7.8
	c0-0.1,0-0.2,0-0.3C11,6.7,10.5,6.1,9.7,5.8C9.4,5.7,9.1,5.6,8.7,5.6c-0.4,0-0.7,0.1-1,0.2C6.8,6.1,6.4,6.7,6.3,7.6
	c0,0.1,0,0.2,0,0.3v0.1c0,0.7,0.2,1.4,0.5,2.1C7,10.4,7.2,10.7,7.5,11z M7.3,7.7c0-0.5,0.3-0.8,0.7-1c0.2-0.1,0.5-0.1,0.7-0.1
	c0.3,0,0.5,0,0.7,0.1c0.4,0.2,0.7,0.5,0.7,1c0,0,0,0.1,0,0.2V8c0,0.6-0.1,1.2-0.4,1.7c-0.1,0.2-0.3,0.4-0.5,0.7
	c-0.2,0.2-0.3,0.2-0.5,0.2c-0.2,0-0.3-0.1-0.5-0.2C8,10.1,7.8,9.9,7.7,9.7C7.5,9.1,7.3,8.5,7.3,8V7.8C7.3,7.8,7.3,7.8,7.3,7.7z
	 M5.4,12.8C5,13,4.7,13.3,4.7,13.8c0,0,0,0.2,0,0.3v0c0,0.2,0,0.4,0,0.5c0,0.9,0,1.8,0,2.7c0,0.3,0,0.7,0,1s0.1,0.7,0.2,0.9
	c0.1,0.3,0.3,0.6,0.6,0.9v0.2c0,0,0,0.1,0,0.2c0,0.6,0,1.2,0.1,1.8v0.1C5.7,23.4,6.5,24,7.7,24h0.9c0.4,0,0.8,0,1.2,0
	c1,0,1.7-0.6,2-1.5l0-0.2c0-0.8,0-1.6,0.1-2.4l0.1-2.4c0-0.1,0-0.4,0-0.7c0-0.3,0-0.8,0-1.2h0c0.3,0.1,0.6,0.2,0.9,0.3l0.2,0
	c0.3,0.1,0.5,0.2,0.8,0.2c0.2,0,0.3,0,0.5,0c1.1-0.1,2.2-0.4,3.3-0.8c0.7-0.2,1.1-0.9,1-1.6c-0.1-0.5-0.3-0.8-0.7-1
	c-0.3-0.2-0.8-0.3-1.3-0.1c-0.8,0.2-1.4,0.4-2.1,0.5c-0.2,0-0.3,0.1-0.4,0.1h-0.1c0,0,0,0-0.1,0c-0.7-0.1-1.2-0.4-1.7-0.7
	c-0.2-0.1-0.4-0.2-0.7-0.2s-0.6,0-0.8-0.1h0c-0.2,0-0.4,0-0.6,0h0h-0.2c-0.2,0-0.2,0.1-1.4,1.6C8,13,7.8,12.7,7.6,12.5
	c0,0,0,0-0.1-0.1l0,0.1c0,0-0.2-0.1-0.3-0.2H7.2H7l0.1,0.5L7,12.3c-0.1,0-0.2,0.1-0.3,0.1c0,0-0.1,0-0.1,0l-0.1,0
	C6.1,12.6,5.8,12.7,5.4,12.8L5.4,12.8z M5.6,14.7c0-0.1,0-0.3,0-0.5v0c0-0.2,0-0.3,0-0.3c0,0,0,0,0,0h0.1c0.3-0.1,0.7-0.2,0.9-0.3
	l0,0c0,0,0.1,0,0.1,0c0,0,0.1,0,0.2,0s0.1,0,0.1,0c0.2,0.2,0.5,0.6,1.1,1.4C8.3,15,8.5,15,8.8,15l0,0c0.2,0,0.4-0.1,0.6-0.3
	c0.6-0.8,1-1.2,1.1-1.5c0.1,0,0.3,0,0.4,0h0c0.3,0,0.5,0,0.8,0.1c0.2,0,0.3,0.1,0.3,0.1c0.5,0.3,1.2,0.6,2,0.7c0.1,0,0.2,0,0.3,0
	h0.1c0.2,0,0.3,0,0.6-0.1c0.7-0.2,1.3-0.3,2.1-0.6c0.2,0,0.4,0,0.5,0c0.1,0.1,0.2,0.2,0.3,0.4c0,0.2-0.1,0.4-0.3,0.5
	c-1.1,0.4-2.2,0.7-3.2,0.8h0h0c-0.1,0-0.2,0-0.2,0c-0.2,0-0.4-0.1-0.7-0.2l-0.1,0c0,0-0.1,0-0.1,0c-0.3-0.1-0.5-0.2-0.8-0.3l-0.1,0
	c-0.2-0.1-0.3-0.1-0.5-0.2l-0.3-0.1l-0.4,0.3l0,0.2c0,0.1,0,0.3-0.1,1.9c0,0.3,0,0.6,0,0.7L11,20c0,0.8,0,1.6-0.1,2.4
	c-0.2,0.5-0.6,0.7-1.1,0.7c-0.4,0-0.7,0-1.1,0l0,0H7.8c-0.7,0-1.2-0.3-1.3-1c0-0.6,0-1.2-0.1-1.8l-0.1-0.6l0-0.1
	c0-0.1-0.1-0.1-0.1-0.2l-0.1-0.1c-0.2-0.2-0.3-0.4-0.4-0.6c-0.1-0.2-0.1-0.4-0.1-0.6c0-0.3,0-0.7,0-1C5.5,16.4,5.5,15.5,5.6,14.7z
	 M0,18.8h3.1c0.3,0,0.5-0.2,0.5-0.5c0-0.3-0.2-0.5-0.5-0.5H1V2.7h22.1v15.1h-9.6c-0.3,0-0.5,0.2-0.5,0.5c0,0.3,0.2,0.5,0.5,0.5H24
	V1.8H0V18.8z"/>
</svg>
