<?xml version="1.0" encoding="utf-8"?>
<!-- Generator: Adobe Illustrator 21.1.0, SVG Export Plug-In . SVG Version: 6.00 Build 0)  -->
<svg version="1.1" id="Layer_1" xmlns="http://www.w3.org/2000/svg" xmlns:xlink="http://www.w3.org/1999/xlink" x="0px" y="0px"
	 viewBox="0 0 22 22" style="enable-background:new 0 0 22 22;" xml:space="preserve">
<path d="M20.5,9.4c0-0.2,0-0.4,0-0.7c0-3.9-3.2-7-7.1-7c-1.9,0-3.8,0.8-5.1,2.1c-0.2,0-0.3,0-0.5,0C6.4,3.8,5,4.3,4,5.3
	c-0.9,0.9-1.5,2-1.6,3.2c-1.6,1-2.5,2.7-2.5,4.5c0,2.9,2.4,5.3,5.4,5.3h11.3c3,0,5.4-2.4,5.4-5.3C21.9,11.7,21.4,10.4,20.5,9.4z
	 M11.6,10.8l1,1c0.2,0.2,0.7,0.2,0.9,0c0.3-0.3,0.3-0.7,0-1l-2.1-2.1c-0.3-0.3-0.7-0.3-1,0l-2.2,2.1c-0.3,0.3-0.3,0.7,0,1
	c0.3,0.3,0.7,0.3,1,0l1-1V17h-5c-2.2,0-4-1.8-4-4c0-1.4,0.8-2.8,2.1-3.5c0.2-0.1,0.3-0.3,0.3-0.6c0.1-2.1,1.9-3.8,4.1-3.8
	c0.2,0,0.4,0,0.6,0c0.2,0.1,0.4,0,0.6-0.2C10.1,3.7,11.7,3,13.4,3c3.2,0,5.8,2.5,5.8,5.7c0,0.3,0,0.5-0.1,0.8
	c-0.1,0.2,0,0.5,0.2,0.6c0.8,0.7,1.3,1.8,1.3,2.9c0,2.2-1.8,4-4,4h-5V10.8z"/>
</svg>
