<?xml version="1.0" encoding="utf-8"?>
<!-- Generator: Adobe Illustrator 21.1.0, SVG Export Plug-In . SVG Version: 6.00 Build 0)  -->
<svg version="1.1" id="Layer_1" xmlns="http://www.w3.org/2000/svg" xmlns:xlink="http://www.w3.org/1999/xlink" x="0px" y="0px"
	 viewBox="0 0 24 24" style="enable-background:new 0 0 24 24;" xml:space="preserve">
<path d="M11.8,17.7c-0.8,0-1.6-0.6-1.7-1.4L8.7,8.8C8.2,6,9,3.2,10.8,1.1l1-1.2l1,1.2c1.8,2.1,2.6,4.9,2.1,7.7l-1.4,7.5
	C13.4,17.1,12.7,17.7,11.8,17.7z M9.2,8.7l1.4,7.5c0.1,0.6,0.6,1,1.2,1c0.6,0,1.1-0.4,1.2-1l1.4-7.5c0.5-2.6-0.2-5.2-1.9-7.3
	l-0.7-0.8l-0.7,0.8C9.4,3.4,8.7,6.1,9.2,8.7L9.2,8.7z M7.7,17.5c-0.1,0-0.2,0-0.3-0.1c-0.2-0.1-0.3-0.3-0.3-0.5v-0.6
	c0-0.8,0.3-1.5,0.8-2.1l1.5-1.7l0.7,3.8l-2.3,1.1C7.9,17.5,7.8,17.5,7.7,17.5z M9.2,13.6l-0.9,1c-0.4,0.5-0.7,1.1-0.7,1.8V17l2-0.9
	L9.2,13.6z M15.9,17.5c-0.1,0-0.2,0-0.2-0.1l-2.3-1.1l0.7-3.8l1.5,1.7c0.5,0.6,0.8,1.3,0.8,2.1V17c0,0.2-0.1,0.4-0.3,0.5
	C16.1,17.5,16,17.5,15.9,17.5z M14,16.1l1.9,0.9l0-0.6c0-0.7-0.2-1.3-0.7-1.8l-0.9-1L14,16.1z M11.8,24l-1-4.8c-0.1-0.3,0-0.7,0.3-1
	l0,0c0.4-0.4,1.1-0.4,1.5,0c0.2,0.2,0.4,0.6,0.3,0.9L11.8,24z M11.4,18.6c-0.1,0.1-0.2,0.3-0.2,0.5l0.5,2.5l0.5-2.5
	c0-0.2,0-0.4-0.1-0.5C12,18.4,11.6,18.4,11.4,18.6L11.4,18.6z"/>
</svg>
