<?xml version="1.0" encoding="utf-8"?>
<!-- Generator: Adobe Illustrator 21.1.0, SVG Export Plug-In . SVG Version: 6.00 Build 0)  -->
<svg version="1.1" id="Layer_1" xmlns="http://www.w3.org/2000/svg" xmlns:xlink="http://www.w3.org/1999/xlink" x="0px" y="0px"
	 viewBox="0 0 24 24" style="enable-background:new 0 0 24 24;" xml:space="preserve">
<path d="M23.3,1.8H0.7c-0.1,0-0.3,0-0.4,0.1C0.1,2,0,2.3,0,2.5v16c0,0.4,0.3,0.7,0.7,0.7h10.6v1.7H9.1c-0.4,0-0.7,0.3-0.7,0.7
	c0,0.4,0.3,0.7,0.7,0.7h6c0.4,0,0.7-0.3,0.7-0.7c0-0.4-0.3-0.7-0.7-0.7h-2.4v-1.7h10.6c0.4,0,0.7-0.3,0.7-0.7v-16
	C24,2.1,23.7,1.8,23.3,1.8z M22.7,3.2v14.7H1.4V3.2H22.7z"/>
</svg>
