<?xml version="1.0" encoding="UTF-8"?>
<svg xmlns="http://www.w3.org/2000/svg" xmlns:xlink="http://www.w3.org/1999/xlink" width="24pt" height="24pt" viewBox="0 0 24 24" version="1.1">
<g id="surface1">
<path style=" stroke:none;fill-rule:nonzero;fill:rgb(0%,0%,0%);fill-opacity:1;" d="M 0.546875 19.089844 L 11.34375 19.089844 L 11.34375 21.054688 L 9.054688 21.054688 C 8.726562 21.054688 8.507812 21.273438 8.507812 21.601562 C 8.507812 21.925781 8.726562 22.144531 9.054688 22.144531 L 15.164062 22.144531 C 15.492188 22.144531 15.710938 21.925781 15.710938 21.601562 C 15.710938 21.273438 15.492188 21.054688 15.164062 21.054688 L 12.65625 21.054688 L 12.65625 19.089844 L 23.453125 19.089844 C 23.78125 19.089844 24 18.871094 24 18.546875 L 24 2.398438 C 24 2.074219 23.78125 1.855469 23.453125 1.855469 L 0.546875 1.855469 C 0.21875 1.746094 0 2.074219 0 2.398438 L 0 18.546875 C 0 18.871094 0.21875 19.089844 0.546875 19.089844 Z M 1.199219 2.945312 L 22.910156 2.945312 L 22.910156 18 L 1.199219 18 Z M 1.199219 2.945312 "/>
</g>
</svg>
