<?xml version="1.0" encoding="UTF-8"?>
<svg width="23px" height="18px" viewBox="0 0 23 18" version="1.1" xmlns="http://www.w3.org/2000/svg" xmlns:xlink="http://www.w3.org/1999/xlink">
    <!-- Generator: Sketch 51.1 (57501) - http://www.bohemiancoding.com/sketch -->
    <title>desktop</title>
    <desc>Created with Sketch.</desc>
    <defs></defs>
    <g id="desktop" stroke="none" stroke-width="1" fill="none" fill-rule="evenodd">
        <path d="M11,15 L12,15 L12,17 L15,17 L15,18 L8,18 L8,17 L11,17 L11,15 Z M10,13 L13,13 L13,12 L10,12 L10,13 Z M22,1 L1,1 L1,10 L22,10 L22,11 L1,11 L1,14 L22,14 L22,1 Z M22,15 L1,15 C0.18,15 0,14.829 0,14 L0,1 C0,0.17 0.18,0 1,0 L22,0 C22.83,0 23,0.17 23,1 L23,14 C23,14.829 22.83,15 22,15 Z" id="Fill-1" fill="#000000"></path>
    </g>
</svg>