<?xml version="1.0" encoding="utf-8"?>
<!-- Generator: Adobe Illustrator 21.1.0, SVG Export Plug-In . SVG Version: 6.00 Build 0)  -->
<svg version="1.1" id="Layer_1" xmlns="http://www.w3.org/2000/svg" xmlns:xlink="http://www.w3.org/1999/xlink" x="0px" y="0px"
	 viewBox="0 0 24 24" style="enable-background:new 0 0 24 24;" xml:space="preserve">
<path d="M6.5,8.5V0.7C6.5,0.3,6.2,0,5.8,0c0,0-0.1,0-0.1,0C5.4,0,5.1,0.3,5.1,0.7v7.8c-0.8,0.3-1.3,1-1.3,1.9c0,0.8,0.5,1.6,1.3,1.9
	v11c0,0.2,0.1,0.3,0.2,0.5C5.4,23.9,5.6,24,5.8,24c0,0,0,0,0,0c0.2,0,0.3-0.1,0.5-0.2c0.1-0.1,0.2-0.3,0.2-0.5V12.3
	c0.8-0.3,1.3-1,1.3-1.9C7.8,9.5,7.3,8.8,6.5,8.5z M6.5,10.4c0,0.4-0.3,0.7-0.7,0.7s-0.7-0.3-0.7-0.7c0-0.4,0.3-0.7,0.7-0.7
	S6.5,10,6.5,10.4z M12.7,14.4V0.7c0-0.2-0.1-0.3-0.2-0.5S12.2,0,12,0c0,0-0.1,0-0.1,0c-0.3,0-0.6,0.3-0.6,0.7v13.7
	c-0.8,0.3-1.3,1-1.3,1.9c0,0.8,0.5,1.6,1.3,1.9v5.1c0,0.2,0.1,0.3,0.2,0.5c0.1,0.1,0.3,0.2,0.5,0.2c0,0,0,0,0,0
	c0.2,0,0.3-0.1,0.5-0.2c0.1-0.1,0.2-0.3,0.2-0.5v-5.1c0.8-0.3,1.3-1,1.3-1.9C14,15.5,13.5,14.7,12.7,14.4z M12.7,16.3
	c0,0.4-0.3,0.7-0.7,0.7c-0.4,0-0.7-0.3-0.7-0.7s0.3-0.7,0.7-0.7C12.4,15.6,12.7,15.9,12.7,16.3z M18.9,4.2V0.7
	c0-0.2-0.1-0.3-0.2-0.5S18.4,0,18.2,0c0,0-0.1,0-0.1,0c-0.3,0-0.6,0.3-0.6,0.7v3.5c-0.8,0.3-1.3,1-1.3,1.9s0.5,1.6,1.3,1.9v15.4
	c0,0.4,0.3,0.7,0.7,0.7c0,0,0,0,0,0c0.2,0,0.3-0.1,0.5-0.2c0.1-0.1,0.2-0.3,0.2-0.5V8c0.8-0.3,1.3-1,1.3-1.9S19.7,4.5,18.9,4.2z
	 M18.9,6.1c0,0.4-0.3,0.7-0.7,0.7c-0.4,0-0.7-0.3-0.7-0.7s0.3-0.7,0.7-0.7C18.6,5.4,18.9,5.7,18.9,6.1z"/>
</svg>
