<?xml version="1.0" encoding="utf-8"?>
<!-- Generator: Adobe Illustrator 21.1.0, SVG Export Plug-In . SVG Version: 6.00 Build 0)  -->
<svg version="1.1" id="Layer_1" xmlns="http://www.w3.org/2000/svg" xmlns:xlink="http://www.w3.org/1999/xlink" x="0px" y="0px"
	 viewBox="0 0 24 24" style="enable-background:new 0 0 24 24;" xml:space="preserve">
<path d="M5.4,20.8c0-0.4,0.3-0.7,0.7-0.7h3c0.4,0,0.7,0.4,0.7,0.7c0,0.4-0.5,0.7-0.8,0.7h-3C5.7,21.5,5.4,21.2,5.4,20.8z M22.3,0.7
	v22.5c0,0.4-0.4,0.7-0.7,0.7H2.3c-0.4,0-0.7-0.4-0.7-0.7V3.9c0-0.4,0.4-0.7,0.7-0.7h2.2V0.7C4.5,0.3,4.8,0,5.2,0h16.5
	c0.2,0,0.4,0.1,0.5,0.3C22.3,0.4,22.4,0.6,22.3,0.7z M12.1,17.8V4.6H3v13.2H12.1z M3,19.2v3.3h9.1v-3.3H3z M13.5,3.9v14.8H21V1.4
	H5.9v1.7h6.9C13.2,3.2,13.5,3.5,13.5,3.9z M13.5,20.1v2.4H21v-2.4H13.5z"/>
</svg>
