<?xml version="1.0" encoding="utf-8"?>
<!-- Generator: Adobe Illustrator 21.1.0, SVG Export Plug-In . SVG Version: 6.00 Build 0)  -->
<svg version="1.1" id="Layer_1" xmlns="http://www.w3.org/2000/svg" xmlns:xlink="http://www.w3.org/1999/xlink" x="0px" y="0px"
	 viewBox="0 0 24 24" style="enable-background:new 0 0 24 24;" xml:space="preserve">
<path d="M1.4,8v6.1c0,1.6,1.3,2.9,2.9,2.9h10.6c0.4,0,0.7,0.3,0.7,0.7c0,0.4-0.3,0.7-0.7,0.7h-4.2v0.4h2.1c0.4,0,0.7,0.3,0.7,0.7
	s-0.3,0.7-0.7,0.7H7.3c-0.4,0-0.7-0.3-0.7-0.7s0.3-0.7,0.7-0.7h2.1v-0.4H4.3C1.9,18.4,0,16.4,0,14V8c0-2.4,1.9-4.3,4.3-4.3h11.5
	c2.3,0,4.2,1.8,4.3,4.1c0,0.4-0.3,0.7-0.7,0.7c-0.4,0-0.7-0.3-0.7-0.7c-0.1-1.5-1.4-2.7-2.9-2.7H4.3C2.7,5.1,1.4,6.4,1.4,8z
	 M24,10.3v8.3c0,0.9-0.7,1.6-1.6,1.6h-4.8c-0.9,0-1.6-0.7-1.6-1.6v-8.3c0-0.9,0.7-1.6,1.6-1.6h4.6c0.4-0.1,0.9,0.1,1.2,0.4
	C23.8,9.3,24,9.8,24,10.3z M17.3,17.8v0.7c0,0.2,0.1,0.3,0.3,0.3h4.7c0.2,0,0.3-0.1,0.3-0.3v-0.7H17.3z M17.2,10.3v6.2h5.3l0.1-0.2
	l0-6.1c0-0.2-0.1-0.3-0.3-0.3h-4.8C17.3,9.9,17.2,10.1,17.2,10.3z"/>
</svg>
