<?xml version="1.0" encoding="utf-8"?>
<!-- Generator: Adobe Illustrator 21.1.0, SVG Export Plug-In . SVG Version: 6.00 Build 0)  -->
<svg version="1.1" id="Layer_1" xmlns="http://www.w3.org/2000/svg" xmlns:xlink="http://www.w3.org/1999/xlink" x="0px" y="0px"
	 viewBox="0 0 24 24" style="enable-background:new 0 0 24 24;" xml:space="preserve">
<path d="M5.1,0v24h14.8V0H5.1z M18.4,1.5v12.8H6.6V1.5H18.4z M6.6,22.5v-6.6h11.7v6.6H6.6z M8.8,9.6c0-0.8,0.7-1.2,1.6-0.9
	c0.3,0.1,0.4,0.1,0.5,0C11,8.5,11.8,7.6,12,7.2l0.2-0.3l-0.3-1.2c-0.4-1.2-0.5-1.5-0.8-1.6c-0.2-0.1-0.3-0.1-0.7,0
	C9.6,4.2,9.6,4.2,9.7,3.7c0.1-0.3,0.1-0.3,0.7-0.5c1.1-0.5,1.9-0.4,2.3,0.3c0.1,0.1,0.3,0.6,0.4,1.1c0.1,0.4,0.2,0.8,0.2,0.8
	c0,0,0.2-0.3,0.4-0.6c0.5-0.7,1-1.3,1.4-1.6c0.1-0.1,0.4-0.2,0.5-0.2c0.7-0.2,1.3,0.1,1.3,0.7c0.1,0.8-0.5,1.3-1.5,1.1l-0.5-0.1
	l-0.3,0.2c-0.1,0.1-0.5,0.6-0.7,0.9l-0.5,0.7l0.2,0.9c0.4,1.5,0.5,1.7,0.9,1.9c0.2,0.1,0.6,0.1,1.1,0c0.5-0.1,0.5,0,0.4,0.4
	c-0.1,0.3-0.1,0.3-0.7,0.6c-0.7,0.3-1.3,0.3-1.9,0.2c-0.6-0.1-0.9-0.6-1.2-1.9c0-0.2-0.1-0.4-0.1-0.4c0-0.1-0.2,0.1-0.4,0.5
	c-0.9,1.3-1.6,1.9-2.3,1.9C9.1,10.5,8.8,10.2,8.8,9.6z M11,20.4h2V22h-2V20.4z M13,17.9h-2v-1.5h2V17.9z M11,19.9h-2v-1.5h2V19.9z
	 M13,18.4h2v1.5h-2V18.4z"/>
</svg>
