<?xml version="1.0" encoding="utf-8"?>
<!-- Generator: Adobe Illustrator 21.1.0, SVG Export Plug-In . SVG Version: 6.00 Build 0)  -->
<svg version="1.1" id="Layer_1" xmlns="http://www.w3.org/2000/svg" xmlns:xlink="http://www.w3.org/1999/xlink" x="0px" y="0px"
	 viewBox="0 0 20 20" style="enable-background:new 0 0 20 20;" xml:space="preserve">
<path d="M14.4,0H5.6c-1,0-1.8,0.8-1.8,1.8v16.3c0,1,0.8,1.8,1.8,1.8h8.8c1,0,1.8-0.8,1.8-1.8V1.8C16.3,0.8,15.4,0,14.4,0z
	 M10.5,16.9h4.2v1.2c0,0.2-0.2,0.4-0.4,0.4h-3.9c0.3-0.2,0.4-0.5,0.4-0.8C11,17.4,10.8,17.1,10.5,16.9z M9.5,18.5H5.6
	c-0.2,0-0.4-0.2-0.4-0.4v-1.2h4.2C9.2,17.1,9,17.4,9,17.7C9,18,9.2,18.3,9.5,18.5z M14.8,3.7v11.7H5.2V3.7H14.8z M5.6,1.5h8.8
	c0.2,0,0.4,0.2,0.4,0.4v0.4H5.2V1.8C5.2,1.6,5.4,1.5,5.6,1.5z"/>
</svg>
