<?xml version="1.0" encoding="utf-8"?>
<!-- Generator: Adobe Illustrator 21.1.0, SVG Export Plug-In . SVG Version: 6.00 Build 0)  -->
<svg version="1.1" id="Layer_1" xmlns="http://www.w3.org/2000/svg" xmlns:xlink="http://www.w3.org/1999/xlink" x="0px" y="0px"
	 viewBox="0 0 24 24" style="enable-background:new 0 0 24 24;" xml:space="preserve">
<path d="M15.5,0.2L15.5,0.2l-0.3,0C14.4,0,12.6,0,12.1,0h-0.2c-0.2,0-2.3,0-3.2,0.1l-0.3,0C7.1,0.3,5.8,0.5,5.8,3.6v17.7
	C5.8,22.9,7.1,24,9,24H15c1.8,0,3.2-1.1,3.2-2.7V3.6C18.2,0.6,17.1,0.3,15.5,0.2z M13.1,22.4v0.2h-2.1v-0.2H13.1z M16.7,3.1v17.3
	H7.2V3.1H16.7z M11.9,16.5c1.9,0,4-0.5,4-1.5V8.5c0-1-2.1-1.5-4-1.5C10,7,8,7.4,8,8.5V15C8,16.1,10,16.5,11.9,16.5z M8.8,15v-1.2
	c0.7,0.3,1.9,0.5,3.2,0.5s2.4-0.2,3.2-0.5V15c0,0.2-1.1,0.7-3.2,0.7C9.8,15.7,8.8,15.2,8.8,15z M15.1,12.8c0,0.2-1.1,0.7-3.2,0.7
	c-2.1,0-3.1-0.5-3.2-0.7v-1.2c0.7,0.3,1.9,0.5,3.2,0.5s2.4-0.2,3.2-0.5V12.8z M15.1,10.7c0,0.2-1.1,0.7-3.2,0.7
	c-2.1,0-3.1-0.5-3.2-0.7V9.4c0.7,0.3,1.9,0.5,3.2,0.5s2.4-0.2,3.2-0.5V10.7z M11.9,9.2c-2.1,0-3.1-0.5-3.2-0.7
	c0-0.2,1.1-0.7,3.2-0.7c2.1,0,3.1,0.5,3.2,0.7C15,8.6,14,9.2,11.9,9.2z"/>
</svg>
