<?xml version="1.0" encoding="UTF-8"?>
<svg width="24px" height="24px" viewBox="0 0 24 24" version="1.1" xmlns="http://www.w3.org/2000/svg" xmlns:xlink="http://www.w3.org/1999/xlink">
    <title>behavior Icons-04</title>
    <g id="Layout-Widget-Icons" stroke="none" stroke-width="1" fill="none" fill-rule="evenodd">
        <g id="Assets" transform="translate(-105.000000, -393.000000)" fill="#000000" fill-rule="nonzero">
            <g id="behavior-Icons-04" transform="translate(105.000000, 393.000000)">
                <g id="Group-6-Copy" transform="translate(12.000000, 12.000000) rotate(-180.000000) translate(-12.000000, -12.000000) translate(0.000000, 0.000000)">
                    <path d="M1.5,0 L22.5,0 C23.3,0 24,0.7 24,1.5 L24,22.5 C24,23.3 23.3,24 22.5,24 L1.5,24 C0.7,24 0,23.3 0,22.5 L0,1.5 C0,0.7 0.7,0 1.5,0 Z M22.5,23 C22.8,23 23,22.8 23,22.5 L23,1.5 C23,1.2 22.8,1 22.5,1 L1.5,1 C1.2,1 1,1.2 1,1.5 L1,22.5 C1,22.8 1.2,23 1.5,23 L22.5,23 Z" id="Shape"></path>
                    <path d="M3.7,9.3 L20.4,9.3 C21,9.3 21.4,9.7 21.4,10.3 L21.4,13.6 C21.4,14.2 21,14.6 20.4,14.6 L3.7,14.6 C3.1,14.6 2.7,14.2 2.7,13.6 L2.7,10.3 C2.7,9.8 3.1,9.3 3.7,9.3 Z M3.7,10.3 L3.7,9.8 L3.7,10.3 C3.7,10.3 3.7,10.3 3.7,10.3 Z M20.3,13.7 L20.3,10.4 L3.7,10.4 L3.7,13.7 L20.3,13.7 Z" id="Shape"></path>
                    <path d="M3.7,16 L20.4,16 C21,16 21.4,16.4 21.4,17 L21.4,20.3 C21.4,20.9 21,21.3 20.4,21.3 L3.7,21.3 C3.1,21.3 2.7,20.9 2.7,20.3 L2.7,17 C2.7,16.4 3.1,16 3.7,16 Z M3.7,17 L3.7,16.5 L3.7,17 L3.7,17 Z M20.3,20.3 L20.3,17 L3.7,17 L3.7,20.3 L20.3,20.3 Z" id="Shape"></path>
                </g>
            </g>
        </g>
    </g>
</svg>