<?xml version="1.0" encoding="utf-8"?>
<!-- Generator: Adobe Illustrator 21.1.0, SVG Export Plug-In . SVG Version: 6.00 Build 0)  -->
<svg version="1.1" id="Layer_1" xmlns="http://www.w3.org/2000/svg" xmlns:xlink="http://www.w3.org/1999/xlink" x="0px" y="0px"
	 viewBox="0 0 24 24" style="enable-background:new 0 0 24 24;" xml:space="preserve">
<path d="M19.1,2.3c-1.2-0.9-2.6-1.6-4.1-1.9C14,0.1,13,0,12,0C7.1,0,2.6,3.1,0.8,7.6C0.6,8.1,0.5,8.6,0.4,9C-1.3,15.5,2.6,22,9,23.6
	c1,0.2,2,0.4,3,0.4c5.5,0,10.3-3.7,11.6-9C24.8,10.2,23.1,5.2,19.1,2.3z M9.4,22.2C3.8,20.8,0.4,15,1.8,9.4C1.9,9,2,8.6,2.2,8.2
	c0.5-1.3,1.2-2.4,2.1-3.4l14.2,15.5c-1.8,1.4-4.1,2.2-6.5,2.2C11.1,22.5,10.3,22.4,9.4,22.2z M22.2,14.6c-0.5,1.8-1.4,3.5-2.6,4.7
	L5.4,3.8C7.2,2.3,9.5,1.5,12,1.5c0.9,0,1.7,0.1,2.6,0.3c1.3,0.3,2.5,0.9,3.6,1.7C21.7,6,23.3,10.4,22.2,14.6z"/>
</svg>
