<?xml version="1.0" encoding="UTF-8"?>
<svg width="12px" height="16px" viewBox="0 0 12 16" version="1.1" xmlns="http://www.w3.org/2000/svg" xmlns:xlink="http://www.w3.org/1999/xlink">
    <!-- Generator: Sketch 53.1 (72631) - https://sketchapp.com -->
    <title>Fill 1 Copy</title>
    <desc>Created with Sketch.</desc>
    <g id="explorations" stroke="none" stroke-width="1" fill="none" fill-rule="evenodd">
        <path d="M11.04,13 L2.88,13 L2.88,1 L6.56832,1 L11.04,4.26 L11.04,13 Z M9.12,15 L0.96,15 L0.96,3 L1.92,3 L1.92,13.5 C1.92,13.776 2.13504,14 2.4,14 L9.12,14 L9.12,15 Z M6.99552,0.09 C6.91488,0.032 6.81888,0 6.72,0 L2.4,0 C2.13504,0 1.92,0.224 1.92,0.5 L1.92,2 L0.48,2 C0.21504,2 0,2.224 0,2.5 L0,15.5 C0,15.776 0.21504,16 0.48,16 L9.6,16 C9.86496,16 10.08,15.776 10.08,15.5 L10.08,14 L11.52,14 C11.78496,14 12,13.776 12,13.5 L12,4 C12,3.837 11.9232,3.684 11.79552,3.59 L6.99552,0.09 Z" id="Fill-1-Copy" fill="#000000"></path>
    </g>
</svg>