<?xml version="1.0" encoding="utf-8"?>
<!-- Generator: Adobe Illustrator 21.1.0, SVG Export Plug-In . SVG Version: 6.00 Build 0)  -->
<svg version="1.1" id="Layer_1" xmlns="http://www.w3.org/2000/svg" xmlns:xlink="http://www.w3.org/1999/xlink" x="0px" y="0px"
	 viewBox="0 0 24 24" style="enable-background:new 0 0 24 24;" xml:space="preserve">
<path d="M18,14.2c0,0.4-0.4,0.7-0.7,0.7H6.8c-0.4,0-0.7-0.4-0.7-0.7c0-0.4,0.4-0.7,0.7-0.7h10.3C17.6,13.5,18,13.8,18,14.2z
	 M6.8,6.2H17c0.4,0,0.7-0.4,0.7-0.7c0-0.4-0.4-0.7-0.7-0.7H6.8c-0.4,0-0.7,0.4-0.7,0.7C6.1,5.9,6.4,6.2,6.8,6.2z M17.6,17.9
	c-0.1-0.1-0.3-0.1-0.4,0H6.8c-0.4,0-0.7,0.4-0.7,0.7c0,0.4,0.4,0.7,0.7,0.7h10.3c0.4,0,0.7-0.4,0.7-0.7C17.9,18.2,17.8,18,17.6,17.9
	z M21,3v18.1c0,1.6-1.3,2.9-2.9,2.9H6c-1.6,0-2.9-1.3-2.9-2.9V3C3,1.4,4.3,0.1,6,0.1H18C19.7,0.1,21,1.4,21,3z M18,1.5H6
	C5.1,1.5,4.5,2.1,4.5,3v18.1c0,0.9,0.6,1.5,1.5,1.5H18c0.9,0,1.5-0.6,1.5-1.5V3C19.5,2.2,18.8,1.5,18,1.5z M17.2,9.1H6.8
	c-0.4,0-0.7,0.4-0.7,0.7s0.4,0.7,0.7,0.7h10.4c0.4,0,0.7-0.4,0.7-0.7C18,9.4,17.6,9.1,17.2,9.1z"/>
</svg>
