<?xml version="1.0" encoding="utf-8"?>
<!-- Generator: Adobe Illustrator 21.1.0, SVG Export Plug-In . SVG Version: 6.00 Build 0)  -->
<svg version="1.1" id="Layer_1" xmlns="http://www.w3.org/2000/svg" xmlns:xlink="http://www.w3.org/1999/xlink" x="0px" y="0px"
	 viewBox="0 0 24 24" style="enable-background:new 0 0 24 24;" xml:space="preserve">
<path d="M15.5,20.7h1.4v2H0V1.3h16.8v7.2h-1.4V2.7H1.4v18.7h14.1V20.7z M14.8,6.2V5.9c0-0.9-0.7-1.7-1.7-1.7H3.7C2.8,4.3,2,5,2,5.9
	v0.3c0,0.9,0.7,1.7,1.7,1.7h9.4C14,7.9,14.8,7.2,14.8,6.2z M13.1,5.2c0.4,0,0.8,0.3,0.8,0.8v0.3c0,0.4-0.3,0.8-0.8,0.8H3.7
	C3.3,7,3,6.7,3,6.2V5.9c0-0.4,0.3-0.8,0.8-0.8H13.1z M14.8,11.7v-0.3c0-0.9-0.7-1.7-1.7-1.7H3.7C2.8,9.7,2,10.5,2,11.4v0.3
	c0,0.9,0.7,1.7,1.7,1.7h9.4C14,13.4,14.8,12.6,14.8,11.7z M13.1,10.6c0.4,0,0.8,0.3,0.8,0.8v0.3c0,0.4-0.3,0.8-0.8,0.8H3.7
	c-0.4,0-0.8-0.3-0.8-0.8v-0.3c0-0.4,0.3-0.8,0.8-0.8H13.1z M8,14.7H2.5v5.5H8V14.7z M3.4,15.6h3.6v3.6H3.4V15.6z M12.2,19.3H9.8
	v-3.6h2.4v-0.9c0,0,0,0,0,0H8.9v5.5h3.3V19.3z M23.9,5.9L16.4,19c-0.1,0.1-0.2,0.2-0.3,0.2l-2.5,1.2c-0.1,0-0.2,0.1-0.3,0.1
	c-0.1,0-0.2,0-0.3-0.1c-0.2-0.1-0.3-0.3-0.3-0.5l-0.2-2.8c0-0.1,0-0.2,0.1-0.3l7.6-13.1c0.1-0.1,0.2-0.3,0.4-0.3
	c0.2,0,0.3,0,0.4,0.1l2.6,1.5c0.1,0.1,0.2,0.2,0.3,0.4C24,5.6,24,5.8,23.9,5.9z M22,6.8l0.6-1L21,4.9l-0.6,1L22,6.8z M15.4,18.3
	l6-10.4l-1.6-0.9l-6,10.4l0.1,1.7L15.4,18.3z"/>
</svg>
