<?xml version="1.0" encoding="utf-8"?>
<!-- Generator: Adobe Illustrator 21.1.0, SVG Export Plug-In . SVG Version: 6.00 Build 0)  -->
<svg version="1.1" id="Layer_1" xmlns="http://www.w3.org/2000/svg" xmlns:xlink="http://www.w3.org/1999/xlink" x="0px" y="0px"
	 viewBox="0 0 24 24" style="enable-background:new 0 0 24 24;" xml:space="preserve">
<path d="M17.8,18.9c0,0.2-0.2,0.4-0.4,0.4H6.6c-0.2,0-0.4-0.2-0.4-0.4s0.2-0.4,0.4-0.4h10.9C17.7,18.4,17.8,18.6,17.8,18.9z
	 M6.6,5.6h10.6c0.2,0,0.4-0.2,0.4-0.4s-0.2-0.4-0.4-0.4H6.6c-0.2,0-0.4,0.2-0.4,0.4S6.3,5.6,6.6,5.6z M21,2.6v18.9
	c0,1.5-1.2,2.7-2.7,2.7H5.7c-1.5,0-2.7-1.2-2.7-2.7V2.6c0-1.5,1.2-2.7,2.7-2.7h12.6C19.8-0.1,21,1.1,21,2.6z M18.3,0.7H5.7
	c-1.1,0-1.9,0.8-1.9,1.9v18.9c0,1.1,0.8,1.9,1.9,1.9h12.6c1.1,0,1.9-0.8,1.9-1.9V2.6C20.2,1.5,19.3,0.7,18.3,0.7z M17.4,9.3H6.6
	c-0.2,0-0.4,0.2-0.4,0.4s0.2,0.4,0.4,0.4h10.9c0.2,0,0.4-0.2,0.4-0.4S17.7,9.3,17.4,9.3z M17.4,13.9H6.6c-0.2,0-0.4,0.2-0.4,0.4
	s0.2,0.4,0.4,0.4h10.9c0.2,0,0.4-0.2,0.4-0.4S17.7,13.9,17.4,13.9z"/>
</svg>
