<?xml version="1.0" encoding="utf-8"?>
<!-- Generator: Adobe Illustrator 22.1.0, SVG Export Plug-In . SVG Version: 6.00 Build 0)  -->
<svg version="1.1" id="Layer_1" xmlns="http://www.w3.org/2000/svg" xmlns:xlink="http://www.w3.org/1999/xlink" x="0px" y="0px"
	 viewBox="0 0 24 24" style="enable-background:new 0 0 24 24;" xml:space="preserve">
<path d="M16.8,11.7c0.3,0.2,0.3,0.7,0,1l-3.5,3.5c-0.4,0.3-0.9,0.5-1.4,0.5s-1-0.2-1.4-0.7l-3.3-3.3c-0.3-0.2-0.3-0.7,0-1
	c0.2-0.3,0.7-0.3,1,0l3.1,3.1l0-12c0-0.4,0.3-0.8,0.8-0.8s0.8,0.3,0.8,0.8l0,12l2.9-3.1C16,11.4,16.5,11.4,16.8,11.7z M23.3,13.1
	c-0.4,0-0.8,0.3-0.8,0.8v5.5c0,0.7-0.5,1.2-1.2,1.2H2.8c-0.7,0-1.2-0.5-1.2-1.2v-5.5c0-0.4-0.3-0.8-0.8-0.8c-0.4,0-0.8,0.3-0.8,0.8
	v5.5C0.1,20.7,1.3,22,2.8,22h18.5c1.5,0,2.7-1.2,2.7-2.7v-5.5C24,13.4,23.8,13.1,23.3,13.1z"/>
</svg>
