<svg xmlns="http://www.w3.org/2000/svg" width="13" height="13" viewBox="0 0 13 13"><defs><style>.a{fill:#999;}</style></defs><path class="a" d="M2.326,13A2.329,2.329,0,0,1,0,10.674v-.217a.5.5,0,1,1,1,0v.217A1.327,1.327,0,0,0,2.326,12h8.348A1.327,1.327,0,0,0,12,10.674v-.217a.5.5,0,1,1,1,0v.217A2.329,2.329,0,0,1,10.674,13ZM6.308,9.847a.538.538,0,0,1-.163-.107L1.693,5.286A.5.5,0,1,1,2.4,4.579L6,8.179V.5a.5.5,0,1,1,1,0V8.179l3.6-3.6a.5.5,0,1,1,.707.707L6.854,9.74a.517.517,0,0,1-.163.107.494.494,0,0,1-.383,0Z"/></svg>