<?xml version="1.0" encoding="utf-8"?>
<!-- Generator: Adobe Illustrator 21.1.0, SVG Export Plug-In . SVG Version: 6.00 Build 0)  -->
<svg version="1.1" id="Layer_1" xmlns="http://www.w3.org/2000/svg" xmlns:xlink="http://www.w3.org/1999/xlink" x="0px" y="0px"
	 viewBox="0 0 24 24" style="enable-background:new 0 0 24 24;" xml:space="preserve">
<path d="M21.2,11.4v11.9c0,0.4-0.3,0.7-0.7,0.7H0.6C0.2,24,0,23.7,0,23.3V3.4c0-0.3,0.3-0.7,0.7-0.7h11.9c0.4,0,0.7,0.3,0.7,0.7
	c0,0.4-0.3,0.7-0.7,0.7H1.3v18.6h18.6V11.4c0-0.4,0.3-0.7,0.7-0.7C20.9,10.7,21.2,11,21.2,11.4z M23.8,4.3L11.2,16.9h-0.1
	c0,0-0.1,0-0.1,0C11,17,10.9,17,10.8,17l-3.7,0.4l-0.1,0c-0.3-0.2-0.5-0.4-0.5-0.8L7,13.1l0,0c0,0,0.1-0.1,0.1-0.1
	c0-0.1,0.1-0.1,0.1-0.2L19.7,0.1h0.1c0,0,0.1,0,0.1,0C20,0.1,20,0,20.1,0c0.3-0.1,0.5,0.1,0.6,0.3l3.1,3.1C24,3.7,24,4.1,23.8,4.3z
	 M9.7,15.7l-1.5-1.5L8,15.9L9.7,15.7z M18.6,3.1l-9.8,9.8l2.2,2.2l9.8-9.8L18.6,3.1z M20.2,1.6l-0.6,0.6l2.2,2.2l0.6-0.6L20.2,1.6z"
	/>
</svg>
