<?xml version="1.0" encoding="UTF-8"?>
<svg xmlns="http://www.w3.org/2000/svg" xmlns:xlink="http://www.w3.org/1999/xlink" width="24pt" height="24pt" viewBox="0 0 24 24" version="1.1">
<g id="surface1">
<path style=" stroke:none;fill-rule:nonzero;fill:rgb(0%,0%,0%);fill-opacity:1;" d="M 20.183594 0.0429688 C 20.074219 0.0429688 19.964844 0.148438 19.855469 0.148438 L 7.308594 12.804688 C 7.199219 12.914062 7.199219 13.023438 7.089844 13.132812 L 6.65625 16.730469 C 6.65625 17.058594 6.871094 17.277344 7.089844 17.386719 C 7.089844 17.386719 7.199219 17.386719 7.199219 17.386719 L 10.800781 16.949219 C 10.910156 16.949219 11.019531 16.839844 11.128906 16.839844 L 23.78125 4.1875 C 24 3.96875 24 3.640625 23.78125 3.421875 L 20.617188 0.257812 C 20.507812 0.0429688 20.398438 -0.0664062 20.183594 0.0429688 Z M 20.289062 1.351562 L 22.691406 3.75 L 21.925781 4.515625 L 19.527344 2.113281 Z M 0.546875 2.769531 C 0.21875 2.769531 0 3.097656 0 3.3125 L 0 23.386719 C 0 23.714844 0.21875 23.933594 0.546875 23.933594 L 20.617188 23.933594 C 20.945312 23.933594 21.164062 23.714844 21.164062 23.386719 L 21.164062 11.386719 C 21.164062 11.058594 20.945312 10.839844 20.617188 10.839844 C 20.289062 10.839844 20.074219 11.058594 20.074219 11.386719 L 20.074219 22.839844 L 1.089844 22.839844 L 1.089844 3.859375 L 12.546875 3.859375 C 12.871094 3.859375 13.089844 3.640625 13.089844 3.3125 C 13.089844 2.988281 12.871094 2.769531 12.546875 2.769531 Z M 18.65625 2.878906 L 21.054688 5.277344 L 11.019531 15.3125 L 8.617188 12.914062 Z M 8.074219 14.003906 L 9.925781 15.859375 L 7.855469 16.078125 Z M 8.074219 14.003906 "/>
</g>
</svg>
