<?xml version="1.0" encoding="utf-8"?>
<!-- Generator: Adobe Illustrator 21.1.0, SVG Export Plug-In . SVG Version: 6.00 Build 0)  -->
<svg version="1.1" id="Layer_1" xmlns="http://www.w3.org/2000/svg" xmlns:xlink="http://www.w3.org/1999/xlink" x="0px" y="0px"
	 viewBox="0 0 24 24" style="enable-background:new 0 0 24 24;" xml:space="preserve">
<path d="M17.9,6.4v1.5h-12V6.4H17.9z M24,10.1v13.1c0,0.5-0.3,0.8-0.8,0.8H0.8c-0.5,0-0.8-0.3-0.8-0.8V10.1c0-0.3,0.2-0.5,0.3-0.6
	L2,8.1V4c0-0.5,0.3-0.8,0.8-0.8h5.1l3.6-3c0.2-0.2,0.6-0.2,0.9,0l3.7,3h5.1C21.7,3.2,22,3.5,22,4v4.1l1.7,1.4
	c0.1,0.1,0.1,0.2,0.2,0.3L24,9.9L24,10.1z M1.6,22.5h20.8V11.3l-10.6,4.4L1.6,11.3V22.5z M20.5,4.7H3.5v5.8l8.6,3.8l8.5-3.6V4.7z
	 M13.8,3.2L12,1.7l-1.8,1.5H13.8z M23.4,9.8L23.4,9.8L23.4,9.8L23.4,9.8z M5.8,9.4v1.1c0,0.1-0.1,0.2-0.1,0.3h12.2c0,0,0,0,0-0.1
	V9.4H5.8z"/>
</svg>
