<?xml version="1.0" encoding="UTF-8"?>
<svg xmlns="http://www.w3.org/2000/svg" xmlns:xlink="http://www.w3.org/1999/xlink" width="24pt" height="24pt" viewBox="0 0 24 24" version="1.1">
<g id="surface1">
<path style=" stroke:none;fill-rule:nonzero;fill:rgb(0%,0%,0%);fill-opacity:1;" d="M 23.78125 9.710938 L 21.925781 8.183594 L 21.925781 3.710938 C 21.925781 3.492188 21.816406 3.273438 21.492188 3.273438 L 16.035156 3.273438 L 12.21875 0.109375 C 12 0 11.78125 0 11.671875 0.109375 L 7.855469 3.273438 L 2.398438 3.273438 C 2.183594 3.273438 1.964844 3.382812 1.964844 3.710938 L 1.964844 8.183594 L 0.109375 9.710938 C 0 9.816406 -0.109375 9.925781 -0.109375 10.035156 L -0.109375 23.5625 C -0.109375 23.78125 0 24 0.328125 24 L 23.5625 24 C 23.78125 24 24 23.890625 24 23.5625 L 24 10.035156 C 23.890625 9.925781 23.890625 9.816406 23.78125 9.710938 Z M 11.890625 0.871094 L 14.835938 3.273438 L 9.054688 3.273438 Z M 1.964844 9.273438 L 1.964844 9.816406 L 2.726562 10.144531 L 2.726562 4.035156 L 21.164062 4.035156 L 21.164062 10.144531 L 21.925781 9.816406 L 21.925781 9.273438 L 22.910156 10.035156 L 12 14.726562 L 1.089844 9.925781 Z M 23.128906 23.238281 L 0.761719 23.238281 L 0.761719 10.691406 L 11.78125 15.492188 C 11.78125 15.492188 11.890625 15.492188 11.890625 15.492188 C 11.890625 15.492188 12 15.492188 12 15.492188 L 23.019531 10.691406 L 23.019531 23.238281 Z M 18.65625 7.308594 L 5.238281 7.308594 L 5.238281 6.546875 L 18.761719 6.546875 C 18.65625 6.546875 18.65625 7.308594 18.65625 7.308594 Z M 18.65625 10.472656 L 5.238281 10.472656 L 5.238281 9.710938 L 18.761719 9.710938 C 18.65625 9.710938 18.65625 10.472656 18.65625 10.472656 Z M 18.65625 10.472656 "/>
</g>
</svg>
