<?xml version="1.0" encoding="utf-8"?>
<!-- Generator: Adobe Illustrator 21.1.0, SVG Export Plug-In . SVG Version: 6.00 Build 0)  -->
<svg version="1.1" id="Layer_1" xmlns="http://www.w3.org/2000/svg" xmlns:xlink="http://www.w3.org/1999/xlink" x="0px" y="0px"
	 viewBox="0 0 24 24" style="enable-background:new 0 0 24 24;" xml:space="preserve">
<path d="M24,5.1V4.3c-0.1-0.1-0.1-0.3-0.3-0.4l-0.1-0.1V3.7c-0.1,0-0.1,0-0.1-0.1H0.9c0,0-0.1,0.1-0.1,0.1c-0.1,0-0.1,0.1-0.2,0.2
	C0.2,4.2,0,4.6,0,5V19c0,0.8,0.7,1.3,1.3,1.3h21.3c0.8,0,1.3-0.7,1.3-1.3L24,5.1C24,5.1,24,5.1,24,5.1z M21.5,4.9l-9.4,7.5L2.6,4.9
	H21.5z M1.3,18.2V5.6l7,5.5L1.3,18.2z M2.3,19.2L9.4,12l2.3,1.8c0.1,0.1,0.3,0.2,0.5,0.2c0,0,0,0,0,0c0.2,0,0.3-0.1,0.4-0.2l2.2-1.7
	l7.1,7.1H2.3z M22.8,18.2l-7-7l7-5.5V18.2z"/>
</svg>
