<?xml version="1.0" encoding="utf-8"?>
<!-- Generator: Adobe Illustrator 21.1.0, SVG Export Plug-In . SVG Version: 6.00 Build 0)  -->
<svg version="1.1" id="Layer_1" xmlns="http://www.w3.org/2000/svg" xmlns:xlink="http://www.w3.org/1999/xlink" x="0px" y="0px"
	 viewBox="0 0 24 24" style="enable-background:new 0 0 24 24;" xml:space="preserve">
<path d="M23.6,4L23.6,4c-0.1-0.1-0.1-0.1-0.1-0.1l0,0c0,0-0.1,0-0.1-0.1c0,0,0,0-0.1,0c0,0-0.1,0-0.1,0c-0.1,0-0.1,0-0.2,0H1.1
	c-0.1,0-0.1,0-0.2,0c0,0-0.1,0-0.1,0l0,0.1L0.8,3.8c0,0,0,0-0.1,0c0,0-0.1,0-0.1,0.1l0,0c0,0-0.1,0.1-0.1,0.1l0,0
	C0.2,4.2,0,4.5,0,4.8v14.4c0,0.6,0.5,1,1,1h21.8c0.6,0,1-0.5,1-1V4.8C24,4.5,23.8,4.2,23.6,4z M8.7,11.1l-8.1,8.1V4.8
	c0,0,0-0.1,0-0.1L8.7,11.1z M9.2,11.5l2.6,2.1c0.1,0.1,0.3,0.1,0.4,0l2.5-2l8.1,8.1H1.1c0,0,0,0,0,0L9.2,11.5z M12,12.9L1.2,4.4
	h21.5L12,12.9z M15.2,11.1l8.1-6.4c0,0,0,0.1,0,0.1v14.4c0,0,0,0,0,0L15.2,11.1z M0.6,4L0.6,4L0.6,4L0.6,4z"/>
</svg>
