<?xml version="1.0" encoding="utf-8"?>
<!-- Generator: Adobe Illustrator 21.1.0, SVG Export Plug-In . SVG Version: 6.00 Build 0)  -->
<svg version="1.1" id="Layer_1" xmlns="http://www.w3.org/2000/svg" xmlns:xlink="http://www.w3.org/1999/xlink" x="0px" y="0px"
	 viewBox="0 0 24 24" style="enable-background:new 0 0 24 24;" xml:space="preserve">
<path d="M12,0C5.4,0,0,5.4,0,12s5.4,12,12,12s12-5.4,12-12S18.6,0,12,0z M12,22.9C6,22.9,1.1,18,1.1,12S6,1.1,12,1.1S22.9,6,22.9,12
	S18,22.9,12,22.9z M12,14.3c0.3,0,0.6-0.3,0.6-0.6V7.1c0-0.3-0.3-0.6-0.6-0.6s-0.6,0.3-0.6,0.6v6.6C11.4,14,11.7,14.3,12,14.3z
	 M12,15.7c0.5,0,0.9,0.4,0.9,0.9s-0.4,0.9-0.9,0.9s-0.9-0.4-0.9-0.9S11.5,15.7,12,15.7z"/>
</svg>
