<?xml version="1.0" encoding="UTF-8"?>
<svg width="10px" height="10px" viewBox="0 0 10 10" version="1.1" xmlns="http://www.w3.org/2000/svg" xmlns:xlink="http://www.w3.org/1999/xlink">
    <!-- Generator: Sketch 56.3 (81716) - https://sketch.com -->
    <title>Combined Shape</title>
    <desc>Created with Sketch.</desc>
    <g id="Page-1" stroke="none" stroke-width="1" fill="#000" fill-rule="evenodd">
        <g id="deployment-03" transform="translate(-618.000000, -303.000000)" fill="#000000" fill-rule="nonzero">
            <path d="M621.41705,308.325872 L618.503586,305.412408 C618.113061,305.021883 618.113061,304.388718 618.503586,303.998194 C618.89411,303.60767 619.527275,303.60767 619.917799,303.998194 L622.831263,306.911658 L625.722353,304.020568 C626.112878,303.630043 626.746043,303.630043 627.136567,304.020568 C627.527091,304.411092 627.527091,305.044257 627.136567,305.434781 L624.245477,308.325872 L627.190582,311.270977 C627.581106,311.661501 627.581106,312.294666 627.190582,312.685191 C626.800058,313.075715 626.166893,313.075715 625.776369,312.685191 L622.831263,309.740085 L619.863784,312.707564 C619.47326,313.098089 618.840095,313.098089 618.44957,312.707564 C618.059046,312.31704 618.059046,311.683875 618.44957,311.293351 L621.41705,308.325872 Z" id="Combined-Shape"></path>
        </g>
    </g>
</svg>