<?xml version="1.0" encoding="utf-8"?>
<!-- Generator: Adobe Illustrator 21.1.0, SVG Export Plug-In . SVG Version: 6.00 Build 0)  -->
<svg version="1.1" id="Layer_1" xmlns="http://www.w3.org/2000/svg" xmlns:xlink="http://www.w3.org/1999/xlink" x="0px" y="0px"
	 viewBox="0 0 24 24" style="enable-background:new 0 0 24 24;" xml:space="preserve">
<path d="M23.2,3.3h-1.9V2.2c0-0.6-0.5-1.1-1.1-1.1s-1.1,0.5-1.1,1.1v1.1h-3.3V2.2c0-0.6-0.5-1.1-1.1-1.1c-0.6,0-1.1,0.5-1.1,1.1v1.1
	h-3.3V2.2c0-0.6-0.5-1.1-1.1-1.1c-0.6,0-1.1,0.5-1.1,1.1v1.1H4.9V2.2c0-0.6-0.5-1.1-1.1-1.1S2.7,1.6,2.7,2.2v1.1H0.8
	C0.4,3.3,0,3.6,0,4.1v18c0,0.4,0.4,0.8,0.8,0.8h22.4c0.4,0,0.8-0.4,0.8-0.8v-18C24,3.6,23.6,3.3,23.2,3.3z M19.6,2.2
	c0-0.3,0.2-0.5,0.5-0.5s0.5,0.2,0.5,0.5v2.7c0,0.3-0.2,0.5-0.5,0.5s-0.5-0.2-0.5-0.5V2.2z M14.2,2.2c0-0.3,0.2-0.5,0.5-0.5
	c0.3,0,0.5,0.2,0.5,0.5v2.7c0,0.3-0.2,0.5-0.5,0.5c-0.3,0-0.5-0.2-0.5-0.5V2.2z M8.7,2.2c0-0.3,0.2-0.5,0.5-0.5
	c0.3,0,0.5,0.2,0.5,0.5v2.7c0,0.3-0.2,0.5-0.5,0.5C9,5.5,8.7,5.2,8.7,4.9V2.2z M3.3,2.2c0-0.3,0.2-0.5,0.5-0.5s0.5,0.2,0.5,0.5v2.7
	c0,0.3-0.2,0.5-0.5,0.5S3.3,5.2,3.3,4.9V2.2z M23.5,22.1c0,0.2-0.1,0.3-0.3,0.3H0.8c-0.2,0-0.3-0.1-0.3-0.3V8.2h22.9V22.1z
	 M23.5,7.6H0.5V4.1c0-0.2,0.1-0.3,0.3-0.3h1.9v1.1C2.7,5.5,3.2,6,3.8,6s1.1-0.5,1.1-1.1V3.8h3.3v1.1C8.2,5.5,8.7,6,9.3,6
	c0.6,0,1.1-0.5,1.1-1.1V3.8h3.3v1.1c0,0.6,0.5,1.1,1.1,1.1c0.6,0,1.1-0.5,1.1-1.1V3.8h3.3v1.1c0,0.6,0.5,1.1,1.1,1.1
	s1.1-0.5,1.1-1.1V3.8h1.9c0.2,0,0.3,0.1,0.3,0.3V7.6z M21.3,15.9h-6.5v5.4h6.5V15.9z M20.8,20.8h-5.5v-4.4h5.5V20.8z"/>
</svg>
