<?xml version="1.0" encoding="utf-8"?>
<!-- Generator: Adobe Illustrator 21.1.0, SVG Export Plug-In . SVG Version: 6.00 Build 0)  -->
<svg version="1.1" id="Layer_1" xmlns="http://www.w3.org/2000/svg" xmlns:xlink="http://www.w3.org/1999/xlink" x="0px" y="0px"
	 viewBox="0 0 24 24" style="enable-background:new 0 0 24 24;" xml:space="preserve">
<path d="M21.4,15.4h-7v6h7V15.4z M15.6,20.2v-3.5h4.6v3.5H15.6z M13.7,15.4h-7v6h7V15.4z M12.5,16.6v3.5H7.9v-3.5H12.5z M22.9,3.2
	h-1.5V2.5c0-0.8-0.6-1.4-1.4-1.4s-1.4,0.6-1.4,1.4v0.7H16V2.5c0-0.8-0.6-1.4-1.4-1.4s-1.4,0.6-1.4,1.4v0.7h-2.5V2.5
	c0-0.8-0.6-1.4-1.4-1.4c-0.8,0-1.4,0.6-1.4,1.4v0.7H5.5V2.5c0-0.8-0.6-1.4-1.4-1.4c-0.8,0-1.4,0.6-1.4,1.4v0.7H1.1
	C0.6,3.2,0,3.6,0,4.3v17.5c0,0.6,0.6,1.1,1.1,1.1h21.7c0.6,0,1.1-0.6,1.1-1.1V4.3C24,3.6,23.4,3.2,22.9,3.2z M22.7,8.7v13l-21.5,0
	v-13H22.7z M4,6.5c0.8,0,1.4-0.6,1.4-1.4V4.4H8v0.7c0,0.8,0.6,1.4,1.4,1.4c0.8,0,1.4-0.6,1.4-1.4V4.4h2.5v0.7c0,0.8,0.6,1.4,1.4,1.4
	s1.4-0.6,1.4-1.4V4.4h2.5v0.7c0,0.8,0.6,1.4,1.4,1.4s1.4-0.6,1.4-1.4V4.4l1.4,0v3H1.2l0-3h1.4v0.7C2.6,5.9,3.3,6.5,4,6.5z M9.4,5.1
	c0,0.1,0,0.1-0.1,0.1H9.2c0,0-0.1-0.1-0.1-0.1V2.5c0-0.2,0.2-0.2,0.2,0V5.1z M14.7,5.1c0,0.2-0.2,0.2-0.2,0V2.5c0-0.1,0-0.1,0.1-0.1
	s0.1,0,0.1,0.1V5.1z M20,5.1c0,0.2-0.2,0.2-0.2,0V2.5c0-0.1,0-0.1,0.1-0.1c0.1,0,0.1,0,0.1,0.1V5.1z M4.2,5.1c0,0.2-0.2,0.2-0.2,0
	V2.5c0-0.1,0-0.1,0.1-0.1c0.1,0,0.1,0,0.1,0.1V5.1z"/>
</svg>
