<?xml version="1.0" encoding="utf-8"?>
<!-- Generator: Adobe Illustrator 21.1.0, SVG Export Plug-In . SVG Version: 6.00 Build 0)  -->
<svg version="1.1" id="Layer_1" xmlns="http://www.w3.org/2000/svg" xmlns:xlink="http://www.w3.org/1999/xlink" x="0px" y="0px"
	 viewBox="0 0 24 24" style="enable-background:new 0 0 24 24;" xml:space="preserve">
<path d="M11.2,18.2h1.4v1.4h-1.4V18.2z M23.6,20L13.5,2.3C13,1.7,12.6,1.4,12,1.4s-1.1,0.3-1.5,0.9L0.4,20c-0.5,0.8-0.5,1.4-0.2,1.8
	c0.3,0.6,0.9,0.8,1.7,0.8h20.4c0.8,0,1.4-0.3,1.7-0.8C24.1,21.4,24.1,20.8,23.6,20z M23.2,21.5C23,21.8,22.6,22,22.1,22H1.9
	c-0.5,0-0.9-0.2-1.1-0.5c-0.2-0.3-0.2-0.8,0.2-1.2L11.1,2.8C11.4,2.3,11.7,2,12,2s0.6,0.3,0.9,0.8L23,20.5
	C23.3,20.8,23.3,21.2,23.2,21.5z M11.7,6.6h0.8v8.8h-0.8V6.6z"/>
</svg>
