<?xml version="1.0" encoding="utf-8"?>
<!-- Generator: Adobe Illustrator 21.1.0, SVG Export Plug-In . SVG Version: 6.00 Build 0)  -->
<svg version="1.1" id="Layer_1" xmlns="http://www.w3.org/2000/svg" xmlns:xlink="http://www.w3.org/1999/xlink" x="0px" y="0px"
	 viewBox="0 0 24 24" style="enable-background:new 0 0 24 24;" xml:space="preserve">
<path d="M12,0C5.4,0,0,5.4,0,12c0,6.6,5.4,12,12,12c6.6,0,12-5.4,12-12C24,5.4,18.6,0,12,0z M12,22.7C6.1,22.7,1.3,17.9,1.3,12
	S6.1,1.3,12,1.3S22.7,6.1,22.7,12S17.9,22.7,12,22.7z M10.9,15L10.6,4.9c0-0.8,0.6-1.4,1.4-1.4s1.4,0.6,1.4,1.4l-0.3,10
	c0,0.7-0.6,1.1-1.1,1.1C11.4,16,10.9,15.6,10.9,15z M13.7,18.8c0,1-0.7,1.7-1.7,1.7s-1.7-0.7-1.7-1.7c0-1,0.7-1.7,1.7-1.7
	S13.7,17.8,13.7,18.8z"/>
</svg>
