<?xml version="1.0" encoding="utf-8"?>
<!-- Generator: Adobe Illustrator 21.1.0, SVG Export Plug-In . SVG Version: 6.00 Build 0)  -->
<svg version="1.1" id="Layer_1" xmlns="http://www.w3.org/2000/svg" xmlns:xlink="http://www.w3.org/1999/xlink" x="0px" y="0px"
	 viewBox="0 0 24 24" style="enable-background:new 0 0 24 24;" xml:space="preserve">
<path d="M11.2,15.1L10.9,4.7c0-0.6,0.5-1.1,1.1-1.1s1.1,0.5,1.1,1.1l-0.3,10.3c0,0.5-0.4,0.8-0.8,0.8S11.2,15.5,11.2,15.1z M12,17.6
	c-0.8,0-1.4,0.6-1.4,1.4s0.6,1.4,1.4,1.4s1.4-0.6,1.4-1.4S12.8,17.6,12,17.6z M24,12c0,6.6-5.4,12-12,12S0,18.6,0,12S5.4,0,12,0
	S24,5.4,24,12z M23.4,12c0-6.3-5.1-11.4-11.4-11.4S0.6,5.7,0.6,12S5.7,23.4,12,23.4S23.4,18.3,23.4,12z"/>
</svg>
