<?xml version="1.0" encoding="utf-8"?>
<!-- Generator: Adobe Illustrator 21.1.0, SVG Export Plug-In . SVG Version: 6.00 Build 0)  -->
<svg version="1.1" id="Layer_1" xmlns="http://www.w3.org/2000/svg" xmlns:xlink="http://www.w3.org/1999/xlink" x="0px" y="0px"
	 viewBox="0 0 24 24" style="enable-background:new 0 0 24 24;" xml:space="preserve">
<path d="M12.9,18.7h-2.1v-2.1h2.1V18.7z M12.8,5.4h-1.5v9.2h1.5V5.4z M23.9,20.5L23.9,20.5c-0.4,0.7-1.1,1-2,1H2.2c-1,0-1.6-0.3-2-1
	c-0.3-0.3-0.5-1,0.2-2.1l9.8-17.1c0.5-0.7,1.1-1.1,1.8-1.1c0.7,0,1.2,0.4,1.7,1l9.8,17.2C24,19.2,24.1,19.9,23.9,20.5z M1.5,20
	c0.1,0.2,0.4,0.3,0.8,0.3h19.5c0.3,0,0.6-0.1,0.7-0.3c0-0.1,0.1-0.4-0.1-0.5l-0.1-0.1L12.5,2.3C12.2,1.7,12,1.7,12,1.7
	c0,0-0.2,0-0.6,0.6l-9.8,17C1.3,19.5,1.3,19.8,1.5,20z"/>
</svg>
