<?xml version="1.0" encoding="utf-8"?>
<!-- Generator: Adobe Illustrator 21.1.0, SVG Export Plug-In . SVG Version: 6.00 Build 0)  -->
<svg version="1.1" id="Layer_1" xmlns="http://www.w3.org/2000/svg" xmlns:xlink="http://www.w3.org/1999/xlink" x="0px" y="0px"
	 viewBox="0 0 24 24" style="enable-background:new 0 0 24 24;" xml:space="preserve">
<path d="M2.5,4v2.8H0v14.7h21.3v-2.7H24V4H2.5z M20,20H1.5V9.2h3.6V8.1h4.6v0.4h1.2v1.2H9.6c0,0,0,0.1,0,0.1v1.1h1.2v1.2H9.6v1.2
	h1.2v1.2h1.8v-1.2h-1.2v-1.2h1.2v-1.2h-1.2V9.7h1.2V8.5h-1.2V8.1H20V20z M22.6,17.3h-1.2V6.8H4.1V6.6h3.6v-1h14.9V17.3z M12,15h-1.8
	c-0.3,0-0.6,0.3-0.6,0.6v1.8c0,0.3,0.3,0.6,0.6,0.6H12c0.3,0,0.6-0.3,0.6-0.6v-1.8C12.6,15.3,12.3,15,12,15z M12,17.4h-1.8v-0.6H12
	V17.4z"/>
</svg>
