<?xml version="1.0" encoding="utf-8"?>
<!-- Generator: Adobe Illustrator 21.1.0, SVG Export Plug-In . SVG Version: 6.00 Build 0)  -->
<svg version="1.1" id="Layer_1" xmlns="http://www.w3.org/2000/svg" xmlns:xlink="http://www.w3.org/1999/xlink" x="0px" y="0px"
	 viewBox="0 0 24 24" style="enable-background:new 0 0 24 24;" xml:space="preserve">
<path d="M7,5.7C6.7,5.3,6.7,5,7,4.7l4.6-4.3c0.1-0.1,0.3-0.2,0.5-0.2c0.1,0,0.2,0,0.5,0.1l0,0L17,4.7c0.1,0.1,0.2,0.3,0.2,0.5
	c0,0.2-0.1,0.4-0.2,0.5c-0.2,0.2-0.7,0.2-1,0l-3.5-3.3v17.4c0,0.4-0.3,0.6-0.6,0.6s-0.6-0.3-0.6-0.6V2.4L7.9,5.7
	C7.8,5.8,7.6,5.9,7.4,5.9c0,0,0,0,0,0C7.2,5.9,7.1,5.8,7,5.7z M23.9,22.9L21.2,11c-0.1-0.2-0.3-0.5-0.6-0.5h-3.8
	c-0.4,0-0.7,0.4-0.7,0.6s0.4,0.6,0.7,0.6h3.3l2.4,10.6H1.4l2.4-10.6h3.3c0.4,0,0.7-0.4,0.7-0.6c0-0.4-0.4-0.6-0.7-0.6H3.4
	c-0.3,0-0.6,0.2-0.7,0.5L0,22.9c-0.1,0.2,0,0.4,0.1,0.6c0.1,0.2,0.3,0.3,0.5,0.3h22.7c0.2,0,0.4-0.1,0.5-0.3
	C23.9,23.3,24,23.1,23.9,22.9z"/>
</svg>
