<?xml version="1.0" encoding="utf-8"?>
<!-- Generator: Adobe Illustrator 21.1.0, SVG Export Plug-In . SVG Version: 6.00 Build 0)  -->
<svg version="1.1" id="Layer_1" xmlns="http://www.w3.org/2000/svg" xmlns:xlink="http://www.w3.org/1999/xlink" x="0px" y="0px"
	 viewBox="0 0 24 24" style="enable-background:new 0 0 24 24;" xml:space="preserve">
<path transform="translate(0,-952.36218)" d="M2.7,963.7l-2.7,12c-0.1,0.3,0.2,0.7,0.5,0.7h22.9c0.3,0,0.6-0.4,0.5-0.7l-2.7-12
	c-0.1-0.2-0.3-0.4-0.5-0.4h-3.8c-0.3,0-0.6,0.3-0.6,0.5s0.3,0.5,0.6,0.5h3.4l2.5,10.9H1.2l2.5-10.9h3.4c0.3,0,0.6-0.3,0.6-0.5
	c0-0.3-0.3-0.5-0.6-0.5H3.3C3,963.3,2.8,963.5,2.7,963.7L2.7,963.7z M12,952.9c-0.1,0-0.3,0.1-0.4,0.2L7,957.4
	c-0.2,0.2-0.2,0.5,0,0.8c0.2,0.2,0.6,0.2,0.8,0l3.7-3.5v17.8c0,0.3,0.2,0.5,0.5,0.5s0.5-0.2,0.5-0.5v-17.8l3.7,3.5
	c0.2,0.2,0.6,0.2,0.8,0c0.2-0.2,0.2-0.6,0-0.8l-4.6-4.4C12.2,952.9,12.1,952.9,12,952.9L12,952.9z"/>
</svg>
