<?xml version="1.0" encoding="UTF-8"?>
<svg xmlns="http://www.w3.org/2000/svg" xmlns:xlink="http://www.w3.org/1999/xlink" width="24pt" height="24pt" viewBox="0 0 24 24" version="1.1">
<g id="surface1">
<path style=" stroke:none;fill-rule:nonzero;fill:rgb(0%,0%,0%);fill-opacity:1;" d="M 3.601562 15.601562 C 6.4375 17.78125 9.273438 18.871094 12 18.871094 C 14.726562 18.871094 17.671875 17.78125 20.398438 15.601562 C 22.472656 13.964844 23.78125 12.4375 23.890625 12.328125 C 24.109375 12.109375 24.109375 11.78125 23.890625 11.5625 C 23.78125 11.5625 22.582031 9.925781 20.398438 8.398438 C 17.5625 6.21875 14.726562 5.128906 12 5.128906 C 9.273438 5.128906 6.328125 6.21875 3.601562 8.398438 C 1.527344 10.035156 0.21875 11.5625 0.21875 11.671875 C 0 11.890625 0 12.21875 0.21875 12.4375 C 0.21875 12.4375 1.417969 14.074219 3.601562 15.601562 Z M 12 6.328125 C 17.019531 6.328125 21.273438 10.582031 22.472656 12 C 21.273438 13.308594 16.910156 17.671875 12 17.671875 C 7.089844 17.671875 2.726562 13.308594 1.417969 12 C 2.726562 10.691406 6.980469 6.328125 12 6.328125 Z M 12 6.328125 "/>
<path style=" stroke:none;fill-rule:nonzero;fill:rgb(0%,0%,0%);fill-opacity:1;" d="M 12 16.691406 C 14.617188 16.691406 16.691406 14.617188 16.691406 12 C 16.691406 9.382812 14.617188 7.308594 12 7.308594 C 9.382812 7.308594 7.308594 9.382812 7.308594 12 C 7.308594 14.617188 9.382812 16.691406 12 16.691406 Z M 12 8.507812 C 13.855469 8.507812 15.492188 10.035156 15.492188 12 C 15.492188 13.964844 13.964844 15.492188 12 15.492188 C 10.035156 15.492188 8.507812 13.855469 8.507812 12 C 8.507812 10.144531 10.144531 8.507812 12 8.507812 Z M 12 8.507812 "/>
</g>
</svg>
