<?xml version="1.0" encoding="utf-8"?>
<!-- Generator: Adobe Illustrator 21.1.0, SVG Export Plug-In . SVG Version: 6.00 Build 0)  -->
<svg version="1.1" id="Layer_1" xmlns="http://www.w3.org/2000/svg" xmlns:xlink="http://www.w3.org/1999/xlink" x="0px" y="0px"
	 viewBox="0 0 24 24" style="enable-background:new 0 0 24 24;" xml:space="preserve">
<path d="M17.3,3C20.5,3,23,5.6,23,8.8c0,1.5-0.6,3-1.7,4.1L12,22.1l-9.4-9.4c-2.2-2.3-2.1-5.9,0.2-8.1c2.3-2.2,5.9-2.1,8.1,0.2
	c0.5,0.5,0.9,1.1,1.2,1.8C12.9,4.4,15,3,17.3,3 M17.3,2.1c-2.1,0-4,1-5.3,2.6c-2.2-3-6.4-3.6-9.3-1.4s-3.6,6.4-1.4,9.3
	c0.2,0.3,0.4,0.5,0.7,0.8l9.4,9.5l0.7,0.7l0.7-0.7l9.3-9.3c1.3-1.3,2-3,2-4.8C24,5,21,2.1,17.3,2.1L17.3,2.1z"/>
</svg>
