<?xml version="1.0" encoding="utf-8"?>
<!-- Generator: Adobe Illustrator 21.1.0, SVG Export Plug-In . SVG Version: 6.00 Build 0)  -->
<svg version="1.1" id="Layer_1" xmlns="http://www.w3.org/2000/svg" xmlns:xlink="http://www.w3.org/1999/xlink" x="0px" y="0px"
	 viewBox="0 0 24 24" style="enable-background:new 0 0 24 24;" xml:space="preserve">
<path d="M17.2,2.1c-2,0-3.8,0.9-5.2,2.4c-1.1-1.3-2.6-2.2-4.3-2.4C6,1.8,4.2,2.3,2.8,3.3C1.4,4.4,0.4,6,0.1,7.8
	c-0.3,1.8,0.2,3.6,1.2,5c0.2,0.3,0.4,0.5,0.7,0.8l9.2,9.3l0.9,0.9l9.9-9.9c1.3-1.3,2-3,2-4.9C24,5.1,20.9,2.1,17.2,2.1z M22.5,8.9
	c0,1.4-0.6,2.8-1.6,3.8L12,21.5l-9-9c-1-1-1.5-2.4-1.5-3.8C1.6,7.3,2.2,6,3.2,5c1-1,2.3-1.5,3.7-1.5c0,0,0.1,0,0.1,0
	c1.4,0,2.8,0.6,3.7,1.7c0.5,0.5,0.8,1,1.1,1.7l0.2,0.6l0.2-0.6c0.7-2,2.7-3.4,4.8-3.4C20.2,3.5,22.5,5.9,22.5,8.9z"/>
</svg>
