<?xml version="1.0" encoding="utf-8"?>
<!-- Generator: Adobe Illustrator 21.1.0, SVG Export Plug-In . SVG Version: 6.00 Build 0)  -->
<svg version="1.1" id="Layer_1" xmlns="http://www.w3.org/2000/svg" xmlns:xlink="http://www.w3.org/1999/xlink" x="0px" y="0px"
	 viewBox="0 0 24 24" style="enable-background:new 0 0 24 24;" xml:space="preserve">
<path d="M0,0h3.2v1.2h-2v2H0V0z M1.2,20.8H0V24h3.2v-1.2h-2V20.8z M1.2,4.9H0v2.2h1.2V4.9z M1.2,8.9H0v2.2h1.2V8.9z M1.2,12.9H0v2.2
	h1.2V12.9z M1.2,16.8H0v2.2h1.2V16.8z M22.8,22.8h-2V24H24v-3.2h-1.2V22.8z M20.8,0v1.2h2v2H24V0H20.8z M22.8,19.1H24v-2.2h-1.2
	V19.1z M22.8,15.1H24v-2.2h-1.2V15.1z M22.8,11.1H24V8.9h-1.2V11.1z M22.8,7.2H24V4.9h-1.2V7.2z M16.8,1.2h2.2V0h-2.2V1.2z
	 M12.9,1.2h2.2V0h-2.2V1.2z M8.9,1.2h2.2V0H8.9V1.2z M7.2,0H4.9v1.2h2.2V0z M4.9,24h2.2v-1.2H4.9V24z M8.9,24h2.2v-1.2H8.9V24z
	 M12.9,24h2.2v-1.2h-2.2V24z M16.8,24h2.2v-1.2h-2.2V24z M9.7,16.9H7.5V6.4h2.2V5.1h-6v1.3H6v10.5H3.7v1.3h6V16.9z"/>
</svg>
