<?xml version="1.0" encoding="utf-8"?>
<!-- Generator: Adobe Illustrator 21.1.0, SVG Export Plug-In . SVG Version: 6.00 Build 0)  -->
<svg version="1.1" id="Layer_1" xmlns="http://www.w3.org/2000/svg" xmlns:xlink="http://www.w3.org/1999/xlink" x="0px" y="0px"
	 viewBox="0 0 24 24" style="enable-background:new 0 0 24 24;" xml:space="preserve">
<path d="M15.6,0H5.3C3.8,0,2.5,1.3,2.5,2.9v18.3c0,1.6,1.3,2.9,2.9,2.9h13.3c1.6,0,2.9-1.3,2.9-2.9V6.6L15.6,0z M15.8,1.4l4.4,5
	h-4.4V1.4z M20.7,21.1c0,1.2-0.9,2.1-2.1,2.1H5.3c-1.2,0-2.1-0.9-2.1-2.1V2.9c0-1.2,0.9-2.1,2.1-2.1h9.7v6.4h5.7V21.1z M7,10.3h9.9
	V12h-0.8v-0.9h-3.8v7.6h1.6v0.8h-4v-0.8h1.6v-7.6H7.8V12H7V10.3z"/>
</svg>
