<?xml version="1.0" encoding="UTF-8"?>
<svg xmlns="http://www.w3.org/2000/svg" xmlns:xlink="http://www.w3.org/1999/xlink" width="24pt" height="24pt" viewBox="0 0 24 24" version="1.1">
<g id="surface1">
<path style=" stroke:none;fill-rule:nonzero;fill:rgb(0%,0%,0%);fill-opacity:1;" d="M 17.5625 16.910156 C 17.671875 17.019531 17.671875 17.238281 17.671875 17.34375 C 17.5625 17.453125 17.34375 17.453125 17.238281 17.453125 L 15.925781 16.363281 L 15.925781 20.289062 C 15.925781 20.398438 15.816406 20.617188 15.601562 20.617188 C 15.382812 20.617188 15.273438 20.507812 15.273438 20.289062 L 15.273438 16.363281 L 14.183594 17.453125 C 14.074219 17.5625 13.855469 17.5625 13.746094 17.34375 C 13.636719 17.238281 13.636719 17.019531 13.855469 16.910156 L 15.492188 15.382812 C 15.601562 15.273438 15.710938 15.273438 15.925781 15.382812 Z M 21.601562 18 C 21.601562 21.273438 18.980469 24 15.601562 24 C 13.964844 24 12.546875 23.34375 11.5625 22.363281 L 2.398438 22.363281 L 2.398438 0 L 14.398438 0 L 18.546875 4.363281 L 18.546875 12.871094 C 20.398438 13.855469 21.601562 15.816406 21.601562 18 Z M 14.617188 4.144531 L 17.453125 4.144531 L 14.617188 1.089844 Z M 2.945312 21.816406 C 2.945312 21.816406 6.980469 21.816406 10.910156 21.816406 C 10.144531 20.835938 9.601562 19.527344 9.601562 18.109375 C 9.601562 14.835938 12.21875 12.109375 15.601562 12.109375 C 16.363281 12.109375 17.128906 12.21875 17.78125 12.546875 L 17.78125 4.800781 L 13.964844 4.800781 L 13.964844 0.65625 L 2.945312 0.65625 Z M 20.835938 18 C 20.835938 15.164062 18.546875 12.871094 15.710938 12.871094 C 12.871094 12.871094 10.472656 15.273438 10.472656 18 C 10.472656 20.726562 12.761719 23.128906 15.601562 23.128906 C 18.4375 23.128906 20.835938 20.835938 20.835938 18 Z M 20.835938 18 "/>
</g>
</svg>
