<?xml version="1.0" encoding="UTF-8"?>
<svg width="24px" height="25px" viewBox="0 0 24 25" version="1.1" xmlns="http://www.w3.org/2000/svg" xmlns:xlink="http://www.w3.org/1999/xlink">
    <!-- Generator: Sketch 51.2 (57519) - http://www.bohemiancoding.com/sketch -->
    <title>Shape</title>
    <desc>Created with Sketch.</desc>
    <defs></defs>
    <g id="Page-1" stroke="none" stroke-width="1" fill="none" fill-rule="evenodd">
        <path d="M21.6,9.43598326 L21.6,6.32301255 L16.4,1.10125523 C16.2,0.90041841 16,0.8 15.7,0.8 L3,0.8 C2.7,0.8 2.4,1.10125523 2.4,1.40251046 L2.4,9.23514644 L0,9.23514644 L0,22.2895397 L2.4,22.2895397 L2.4,24.1974895 C2.4,24.4987448 2.7,24.8 3,24.8 L21,24.8 C21.3,24.8 21.6,24.4987448 21.6,24.1974895 L21.6,22.2895397 L24,22.2895397 L24,9.43598326 L21.6,9.43598326 Z M20.3,22.590795 L20.3,23.9966527 L3.6,23.9966527 L3.6,22.590795 L20.3,22.590795 Z M16.6,6.02175732 L16.6,3.21004184 L19.3,6.02175732 L16.6,6.02175732 Z M15.8,7.42761506 L20.3,7.42761506 L20.3,9.43598326 L3.6,9.43598326 L3.6,2.30627615 L15.2,2.30627615 L15.2,6.8251046 C15.2,7.12635983 15.5,7.42761506 15.8,7.42761506 Z M22.7,10.841841 L22.7,21.3857741 L1.3,21.3857741 L1.3,10.841841 L22.7,10.841841 Z M6.68945312,15.0542658 L7.68554688,13.0078975 L9.30419922,13.0078975 L7.57348633,16.0170175 L9.43701172,19.0761506 L7.73535156,19.0761506 L6.70605469,16.9881047 L5.67675781,19.0761506 L4.05810547,19.0761506 L5.83447266,16.0170175 L4.10375977,13.0078975 L5.70996094,13.0078975 L6.68945312,15.0542658 Z M13.0229492,17.4673967 C13.0229492,17.2506723 12.9523933,17.0846583 12.8112793,16.9693498 C12.6701653,16.8540413 12.4142271,16.7310937 12.043457,16.6005034 C11.293616,16.3559938 10.7367775,16.0955116 10.3729248,15.8190491 C10.0090721,15.5425865 9.82714844,15.1445698 9.82714844,14.6249869 C9.82714844,14.1165181 10.0388162,13.7053036 10.4621582,13.3913311 C10.8855002,13.0773585 11.4236621,12.9203746 12.0766602,12.9203746 C12.7656284,12.9203746 13.3203918,13.0822209 13.7409668,13.4059182 C14.1615418,13.7296156 14.3649089,14.1859803 14.3510742,14.7750262 L14.3427734,14.8000327 L12.9814453,14.8000327 C12.9814453,14.5138453 12.9039721,14.3061542 12.7490234,14.1769531 C12.5940747,14.047752 12.3602717,13.9831525 12.0476074,13.9831525 C11.7930489,13.9831525 11.5924486,14.0456682 11.4458008,14.1707015 C11.2991529,14.2957348 11.2258301,14.4499402 11.2258301,14.6333224 C11.2258301,14.8111476 11.3012281,14.9535445 11.4520264,15.0605175 C11.6028246,15.1674904 11.8843567,15.3015519 12.2966309,15.4627059 C12.9966669,15.6710948 13.5265281,15.9253254 13.8862305,16.2254053 C14.2459328,16.5254853 14.4257813,16.9366998 14.4257813,17.4590612 C14.4257813,17.9925367 14.2182638,18.4100027 13.8032227,18.711472 C13.3881815,19.0129412 12.8375685,19.1636735 12.1513672,19.1636735 C11.4679328,19.1636735 10.8889591,19.0018273 10.4144287,18.6781299 C9.93989834,18.3544325 9.70955397,17.8452767 9.72338867,17.1506472 L9.73168945,17.1256407 L11.097168,17.1256407 C11.097168,17.4785125 11.1836336,17.72927 11.3565674,17.8779207 C11.5295012,18.0265714 11.7944318,18.1008957 12.1513672,18.1008957 C12.4446629,18.1008957 12.663248,18.0425477 12.8071289,17.9258499 C12.9510098,17.8091521 13.0229492,17.6563359 13.0229492,17.4673967 Z M15.1894531,19.0761506 L15.1894531,13.0078975 L17.4016113,13.0078975 C18.1127151,13.0078975 18.7075985,13.2405949 19.1862793,13.7059967 C19.6649601,14.1713984 19.9042969,14.7680763 19.9042969,15.496048 L19.9042969,16.5880001 C19.9042969,17.3187504 19.6649601,17.9161228 19.1862793,18.3801353 C18.7075985,18.8441478 18.1127151,19.0761506 17.4016113,19.0761506 L15.1894531,19.0761506 Z M16.5922852,14.0915141 L16.5922852,17.992534 L17.4016113,17.992534 C17.7198095,17.992534 17.9819733,17.8619456 18.1881104,17.6007649 C18.3942474,17.3395842 18.4973145,17.0019993 18.4973145,16.5880001 L18.4973145,15.4877125 C18.4973145,15.0792703 18.3942474,14.7444639 18.1881104,14.4832832 C17.9819733,14.2221025 17.7198095,14.0915141 17.4016113,14.0915141 L16.5922852,14.0915141 Z" id="Shape" fill="#000000" fill-rule="nonzero"></path>
    </g>
</svg>