<?xml version="1.0" encoding="utf-8"?>
<!-- Generator: Adobe Illustrator 21.1.0, SVG Export Plug-In . SVG Version: 6.00 Build 0)  -->
<svg version="1.1" id="Layer_1" xmlns="http://www.w3.org/2000/svg" xmlns:xlink="http://www.w3.org/1999/xlink" x="0px" y="0px"
	 viewBox="0 0 24 24" style="enable-background:new 0 0 24 24;" xml:space="preserve">
<path d="M0.5,7.6l11.3,5.2c0,0,0.1,0,0.1,0s0.1,0,0.1,0l11.3-5.2c0.1-0.1,0.2-0.2,0.2-0.3c0-0.1-0.1-0.3-0.2-0.3L12.1,1.7
	c-0.1,0-0.2,0-0.3,0L0.5,6.9C0.4,7,0.3,7.1,0.3,7.2C0.3,7.4,0.4,7.5,0.5,7.6z M12,2.4l10.5,4.9L12,12.1L1.5,7.2L12,2.4z M0,11.6
	c0.1-0.2,0.3-0.3,0.5-0.2L12,16.9l11.5-5.4c0.2-0.1,0.4,0,0.5,0.2c0.1,0.2,0,0.4-0.2,0.5l-11.6,5.5c0,0-0.1,0-0.2,0s-0.1,0-0.2,0
	L0.2,12.1C0,12,0,11.8,0,11.6z M24,16.3c0.1,0.2,0,0.4-0.2,0.5l-11.6,5.5c0,0-0.1,0-0.2,0s-0.1,0-0.2,0L0.2,16.8
	C0,16.7,0,16.5,0,16.3c0.1-0.2,0.3-0.3,0.5-0.2L12,21.6l11.5-5.4C23.7,16.1,23.9,16.2,24,16.3z"/>
</svg>
