<?xml version="1.0" encoding="utf-8"?>
<!-- Generator: Adobe Illustrator 21.1.0, SVG Export Plug-In . SVG Version: 6.00 Build 0)  -->
<svg version="1.1" id="Layer_1" xmlns="http://www.w3.org/2000/svg" xmlns:xlink="http://www.w3.org/1999/xlink" x="0px" y="0px"
	 viewBox="0 0 24 24" style="enable-background:new 0 0 24 24;" xml:space="preserve">
<path d="M24,16.6c-0.1,0.2-0.2,0.3-0.4,0.4l-11.3,5.4l-0.6,0L0.4,17C0,16.8,0,16.4,0,16.2l0-0.2c0.2-0.4,0.6-0.5,1-0.4l11,5.2
	l11-5.2c0.3-0.2,0.7,0,0.9,0.2l0.1,0.1C24,16.2,24,16.4,24,16.6z M0.4,12.4l11.2,5.4l0.6,0l11.3-5.4c0.4-0.2,0.5-0.6,0.4-1
	c-0.1-0.2-0.3-0.3-0.4-0.4c-0.2-0.1-0.4,0-0.5,0l-11,5.2L1,11.1c-0.2-0.1-0.4-0.1-0.6,0c-0.2,0.1-0.3,0.2-0.4,0.4l0,0.2
	C0,11.8,0,12.2,0.4,12.4z M0.6,8C0.5,7.9,0.3,7.7,0.3,7.4c0-0.2,0.2-0.4,0.3-0.5l0.1-0.1l11.1-5.1l0.4,0l10.8,5.1
	c0.3,0.1,0.4,0.4,0.4,0.6c0,0.2-0.2,0.4-0.3,0.5l-0.1,0.1l-11,5.1l-0.4,0L0.6,8z M21.3,7.4L12,3.1L2.7,7.4l9.3,4.3L21.3,7.4z"/>
</svg>
