<?xml version="1.0" encoding="utf-8"?>
<!-- Generator: Adobe Illustrator 21.1.0, SVG Export Plug-In . SVG Version: 6.00 Build 0)  -->
<svg version="1.1" id="Layer_1" xmlns="http://www.w3.org/2000/svg" xmlns:xlink="http://www.w3.org/1999/xlink" x="0px" y="0px"
	 viewBox="0 0 24 24" style="enable-background:new 0 0 24 24;" xml:space="preserve">
<path d="M15.6,0H5.5C3.9,0,2.5,1.5,2.5,3.2v17.7c0,1.7,1.4,3.2,3.2,3.2h12.8c1.7,0,3.2-1.4,3.2-3.2V6.6L15.6,0z M16,6.2V2.7l3.1,3.5
	H16z M5.5,1.5h9v6.2H20v13.1c0,1-0.7,1.7-1.7,1.7H5.5c-1,0-1.7-0.7-1.7-1.7V3.2C3.9,2.2,4.6,1.5,5.5,1.5z M8.3,12.4H6.8V10h10.3v2.4
	h-1.5v-0.9h-2.9v6.6h1.5v1.5H9.6v-1.5h1.5v-6.6H8.3V12.4z"/>
</svg>
