<?xml version="1.0" encoding="UTF-8"?>
<svg width="16px" height="18px" viewBox="0 0 16 18" version="1.1" xmlns="http://www.w3.org/2000/svg" xmlns:xlink="http://www.w3.org/1999/xlink">
    <!-- Generator: Sketch 51.1 (57501) - http://www.bohemiancoding.com/sketch -->
    <title>filter-applied</title>
    <desc>Created with Sketch.</desc>
    <defs></defs>
    <g id="filter-applied" stroke="none" stroke-width="1" fill="none" fill-rule="evenodd">
        <path d="M10.3561239,7.273 C10.6571239,7.454 10.9791239,7.599 11.3161239,7.714 L9.84412395,9.616 L9.84412395,16.701 C9.88312395,16.999 9.78512395,17.317 9.55812395,17.526 C9.17412395,17.915 8.55312395,16.915 8.16812395,16.526 L6.21512395,14.537 C5.98912395,14.308 5.89012395,14 5.93012395,13.71 L5.93012395,9.616 L1.20812395,3.517 C0.873123946,3.089 0.952123946,2.462 1.37612395,2.124 C1.56312395,1.984 1.70012395,2 1.91712395,2 L8.01812395,2 C7.95212395,2.322 7.91712395,2.657 7.91712395,3 L1.91712395,3 L6.91712395,9 L6.90112395,13.422 L8.91712395,16 L8.91712395,9 L10.3561239,7.273 Z M12.9171239,6 C11.2601239,6 9.91712395,4.656 9.91712395,3 C9.91712395,1.342 11.2601239,4.61852778e-14 12.9171239,4.61852778e-14 C14.5741239,4.61852778e-14 15.9171239,1.342 15.9171239,3 C15.9171239,4.656 14.5741239,6 12.9171239,6 Z" id="Fill-1" fill="#000000"></path>
    </g>
</svg>