<?xml version="1.0" encoding="UTF-8"?>
<svg width="16px" height="18px" viewBox="0 0 16 18" version="1.1" xmlns="http://www.w3.org/2000/svg" xmlns:xlink="http://www.w3.org/1999/xlink">
    <!-- Generator: Sketch 51.1 (57501) - http://www.bohemiancoding.com/sketch -->
    <title>filter</title>
    <desc>Created with Sketch.</desc>
    <defs></defs>
    <g id="filter" stroke="none" stroke-width="1" fill="none" fill-rule="evenodd">
        <path d="M2,3 L7,9 L6.984,13.423 L9,16 L9,9 L14,3 L2,3 Z M9.69919129,17.9096429 C9.30789426,18.3082172 8.67673723,17.28258 8.28544019,16.8850304 L6.30151343,14.8460515 C6.07080063,14.6114152 5.97119775,14.2958345 6.01083563,13.9997215 L6.01083563,9.80495786 L1.21160296,3.5548215 C0.871123722,3.11628734 0.95141584,2.47385529 1.3813344,2.12753626 C1.57240931,1.98511512 1.71165007,2.00048431 1.93219931,2.00048431 L14.1284704,2.00048431 C14.3490196,2.00048431 14.427279,1.98511512 14.618354,2.12753626 C15.0492889,2.47385529 15.1285646,3.11628734 14.7880854,3.5548215 L9.98885273,9.80495786 L9.98885273,17.0633129 C10.029507,17.3696721 9.92990408,17.6954989 9.69919129,17.9096429 Z" id="Fill-1" fill="#000000"></path>
    </g>
</svg>