<?xml version="1.0" encoding="utf-8"?>
<!-- Generator: Adobe Illustrator 21.1.0, SVG Export Plug-In . SVG Version: 6.00 Build 0)  -->
<svg version="1.1" id="Layer_1" xmlns="http://www.w3.org/2000/svg" xmlns:xlink="http://www.w3.org/1999/xlink" x="0px" y="0px"
	 viewBox="0 0 24 24" style="enable-background:new 0 0 24 24;" xml:space="preserve">
<path d="M5.9,9.3l-3,3l-3-3l0.7-0.7l1.7,1.7c0.2-4.8,4.1-8.6,8.9-8.6c3.5,0,6.5,2,8,5c0.1,0.3,0,0.6-0.2,0.7c-0.3,0.1-0.6,0-0.7-0.2
	c-1.3-2.7-4-4.4-7.1-4.4c-4.2,0-7.6,3.3-7.9,7.5l1.7-1.7L5.9,9.3z M23.7,22.2l-0.7,0.7c-0.4,0.4-1.1,0.4-1.5,0l-5-5
	c-1.4,1-3.2,1.6-5.1,1.6c-3.5,0-6.5-2-8-5c-0.1-0.3,0-0.6,0.2-0.7c0.3-0.1,0.6,0,0.7,0.2c1.3,2.7,4,4.4,7.1,4.4
	c4.2,0,7.7-3.3,7.9-7.5l-1.7,1.7l-0.7-0.7l3-3l3,3L22,12.7L20.3,11c-0.1,1.7-0.6,3.4-1.6,4.7l5,5C24.1,21.1,24.1,21.7,23.7,22.2z
	 M22.9,21.4l-4.9-4.9c-0.2,0.3-0.5,0.5-0.7,0.7l4.9,4.9L22.9,21.4z"/>
</svg>
