<?xml version="1.0" encoding="utf-8"?>
<!-- Generator: Adobe Illustrator 21.1.0, SVG Export Plug-In . SVG Version: 6.00 Build 0)  -->
<svg version="1.1" id="Layer_1" xmlns="http://www.w3.org/2000/svg" xmlns:xlink="http://www.w3.org/1999/xlink" x="0px" y="0px"
	 viewBox="0 0 24 24" style="enable-background:new 0 0 24 24;" xml:space="preserve">
<path d="M13.1,9.8c-2.1,0-3.8,1.7-3.8,3.8c0,0.9,0.3,1.6,0.8,2.3l-2.8,2.8c-0.2,0.2-0.2,0.6,0,0.8c0.2,0.2,0.6,0.2,0.8,0
	c0,0,0,0,0,0l2.8-2.8c0.6,0.5,1.4,0.8,2.3,0.8c2.1,0,3.8-1.7,3.8-3.8C16.9,11.5,15.2,9.8,13.1,9.8z M13.1,16.4
	c-1.5,0-2.7-1.2-2.7-2.7c0-1.5,1.2-2.7,2.7-2.7s2.7,1.2,2.7,2.7C15.8,15.1,14.6,16.4,13.1,16.4z M21.1,4l-3.8-3.8
	C17.2,0.1,17.1,0,16.9,0H3.3c0,0,0,0-0.1,0C2.9,0,2.7,0.3,2.7,0.5v22.9C2.7,23.8,3,24,3.3,24h17.5c0.3,0,0.5-0.2,0.5-0.5V4.4
	C21.3,4.2,21.2,4.1,21.1,4z M17.5,1.9l2,2h-2V1.9z M20.2,22.9H3.8V1.1h12.5v3.3c0,0.3,0.3,0.5,0.5,0.5h3.3V22.9z"/>
</svg>
