<?xml version="1.0" encoding="utf-8"?>
<!-- Generator: Adobe Illustrator 21.1.0, SVG Export Plug-In . SVG Version: 6.00 Build 0)  -->
<svg version="1.1" id="Layer_1" xmlns="http://www.w3.org/2000/svg" xmlns:xlink="http://www.w3.org/1999/xlink" x="0px" y="0px"
	 viewBox="0 0 24 24" style="enable-background:new 0 0 24 24;" xml:space="preserve">
<path d="M6.2,9.3L3,12.5l-3.1-3.1l0.9-0.9l1.6,1.6c0.3-4.7,4.2-8.3,8.9-8.3c3.4,0,6.4,1.9,8,5c0.1,0.4,0,0.7-0.3,0.9
	c-0.4,0.1-0.7,0-0.9-0.3c-1.3-2.6-3.9-4.3-6.9-4.3c-3.9,0-7.2,3-7.6,6.9l1.5-1.5L6.2,9.3z M23.6,22.1L23.6,22.1l-0.7,0.7
	c-0.2,0.2-0.5,0.3-0.8,0.3s-0.6-0.1-0.8-0.3L16.4,18c-1.4,1-3.2,1.5-5,1.5c-3.4,0-6.4-1.9-8-5c-0.1-0.4,0-0.7,0.3-0.9
	c0.4-0.1,0.7,0,0.9,0.3c1.3,2.6,3.9,4.3,6.9,4.3c4,0,7.3-3,7.6-6.9l-1.5,1.5l-0.9-0.9l3.1-3.1l3.1,3.1l-1.1,1l-1.6-1.6
	c-0.1,1.7-0.7,3.2-1.5,4.3l4.8,4.8C24,20.9,24,21.6,23.6,22.1z M17.4,17.1l4.6,4.6l0.5-0.5l-4.6-4.6c-0.1,0.2-0.3,0.3-0.4,0.4
	C17.5,17.1,17.4,17.1,17.4,17.1z"/>
</svg>
