<?xml version="1.0" encoding="utf-8"?>
<!-- Generator: Adobe Illustrator 21.1.0, SVG Export Plug-In . SVG Version: 6.00 Build 0)  -->
<svg version="1.1" id="Layer_1" xmlns="http://www.w3.org/2000/svg" xmlns:xlink="http://www.w3.org/1999/xlink" x="0px" y="0px"
	 viewBox="0 0 24 24" style="enable-background:new 0 0 24 24;" xml:space="preserve">
<path d="M21.1,4l-3.7-3.7C17.3,0.2,17.1,0,16.8,0H3.4C3,0,2.6,0.4,2.6,0.7v22.4c0,0.5,0.4,0.8,0.8,0.8h17.1c0.4,0,0.7-0.3,0.7-0.7
	V4.6C21.4,4.3,21.2,4.1,21.1,4z M17.6,3.8V2.7l1.1,1.1H17.6z M16.7,5.3h3v17.1H4.2V1.6H16v3C16,5,16.4,5.3,16.7,5.3z M13.1,9.6
	c-2.2,0-4,1.8-4,4c0,0.8,0.2,1.5,0.7,2.2l-2.6,2.6c-0.3,0.3-0.3,0.8,0,1.1c0.1,0.1,0.3,0.2,0.6,0.2c0.2,0,0.4-0.1,0.6-0.2l2.6-2.6
	c0.6,0.5,1.4,0.7,2.2,0.7c2.2,0,4-1.8,4-4C17,11.4,15.3,9.6,13.1,9.6z M15.5,13.7c0,1.3-1.1,2.4-2.4,2.4c-1.3,0-2.4-1.1-2.4-2.4
	s1.1-2.4,2.4-2.4S15.5,12.3,15.5,13.7z"/>
</svg>
