<?xml version="1.0" encoding="UTF-8"?>
<svg width="14px" height="20px" viewBox="0 0 14 20" version="1.1" xmlns="http://www.w3.org/2000/svg" xmlns:xlink="http://www.w3.org/1999/xlink">
    <!-- Generator: Sketch 51.2 (57519) - http://www.bohemiancoding.com/sketch -->
    <title>flask</title>
    <desc>Created with Sketch.</desc>
    <defs></defs>
    <g id="Page-1" stroke="none" stroke-width="1" fill="none" fill-rule="evenodd">
        <g id="Artboard-Copy" transform="translate(-3.000000, 0.000000)" fill="#000000" fill-rule="nonzero">
            <g id="flask" transform="translate(3.000000, 0.000000)">
                <path d="M14,19.36 L14,20 L0,20 L0,19 L5,13.821 L5,7 L4,7 L4,6 L6,6 L6,14 L5.883,14.329 L1.362,19 L12.385,19 L7.992,14.624 L8,14 L8,6 L10,6 L10,7 L9,7 L9,14 L13.7,19 L14,19.346 L14.007,19.354 L14,19.36 Z M9.5,3 C8.67157288,3 8,2.32842712 8,1.5 C8,0.671572875 8.67157288,-2.84217094e-14 9.5,-2.84217094e-14 C10.3284271,-2.84217094e-14 11,0.671572875 11,1.5 C11,2.32842712 10.3284271,3 9.5,3 Z M9.5,1 C9.22385763,1 9,1.22385763 9,1.5 C9,1.77614237 9.22385763,2 9.5,2 C9.77614237,2 10,1.77614237 10,1.5 C10,1.22385763 9.77614237,1 9.5,1 Z M6,5 C5.44771525,5 5,4.55228475 5,4 C5,3.44771525 5.44771525,3 6,3 C6.55228475,3 7,3.44771525 7,4 C7,4.55228475 6.55228475,5 6,5 Z" id="Rectangle_1_copy"></path>
            </g>
        </g>
    </g>
</svg>