<svg xmlns="http://www.w3.org/2000/svg" width="14" height="20" viewBox="0 0 14 20">
  <metadata><?xpacket begin="﻿" id="W5M0MpCehiHzreSzNTczkc9d"?>
<x:xmpmeta xmlns:x="adobe:ns:meta/" x:xmptk="Adobe XMP Core 5.6-c140 79.160451, 2017/05/06-01:08:21        ">
   <rdf:RDF xmlns:rdf="http://www.w3.org/1999/02/22-rdf-syntax-ns#">
      <rdf:Description rdf:about=""/>
   </rdf:RDF>
</x:xmpmeta>
                                                                                                    
                                                                                                    
                                                                                                    
                                                                                                    
                                                                                                    
                                                                                                    
                                                                                                    
                                                                                                    
                                                                                                    
                                                                                                    
                                                                                                    
                                                                                                    
                                                                                                    
                                                                                                    
                                                                                                    
                                                                                                    
                                                                                                    
                                                                                                    
                                                                                                    
                                                                                                    
                           
<?xpacket end="w"?></metadata>
<defs>
    <style>
      .cls-1 {
        fill-rule: evenodd;
      }
    </style>
  </defs>
  <path id="Rectangle_1_copy" data-name="Rectangle 1 copy" class="cls-1" d="M639,240.36V241H625v-1l5-5.179V228h-1v-1h2v8l-0.117.329L626.362,240h11.023l-4.393-4.376L633,235v-8h2v1h-1v7l4.7,5,0.3,0.346,0.007,0.008ZM634.5,224a1.5,1.5,0,1,1,1.5-1.5A1.5,1.5,0,0,1,634.5,224Zm0-2a0.5,0.5,0,1,0,.5.5A0.5,0.5,0,0,0,634.5,222Zm-3.5,4a1,1,0,1,1,1-1A1,1,0,0,1,631,226Z" transform="translate(-625 -221)"/>
</svg>
