<?xml version="1.0" encoding="utf-8"?>
<!-- Generator: Adobe Illustrator 21.1.0, SVG Export Plug-In . SVG Version: 6.00 Build 0)  -->
<svg version="1.1" id="Layer_1" xmlns="http://www.w3.org/2000/svg" xmlns:xlink="http://www.w3.org/1999/xlink" x="0px" y="0px"
	 viewBox="0 0 24 24" style="enable-background:new 0 0 24 24;" xml:space="preserve">
<path d="M23.4,5.9H11.9L9.1,3.1C9,2.9,8.8,2.9,8.7,2.9h-8C0.2,2.9,0,3.1,0,3.6v16.8c0,0.4,0.3,0.6,0.6,0.6h22.7
	c0.3,0,0.6-0.3,0.6-0.6V6.5C24,6.2,23.7,5.9,23.4,5.9z M22.8,9.3v10.5H1.3V9.3H22.8z M22.8,7.2v1H1.3V4.2h7.2L11.2,7
	c0.2,0.2,0.4,0.2,0.5,0.2H22.8z"/>
</svg>
