<?xml version="1.0" encoding="utf-8"?>
<!-- Generator: Adobe Illustrator 21.1.0, SVG Export Plug-In . SVG Version: 6.00 Build 0)  -->
<svg version="1.1" id="Layer_1" xmlns="http://www.w3.org/2000/svg" xmlns:xlink="http://www.w3.org/1999/xlink" x="0px" y="0px"
	 viewBox="0 0 24 24" style="enable-background:new 0 0 24 24;" xml:space="preserve">
<path d="M10.7,11.1L8.8,6.7l-1.9,4.4l-4.8,0.4l3.6,3.1l-1.1,4.6l4.1-2.5l4.1,2.5l-1.1-4.6l3.6-3.1L10.7,11.1z M8.8,15.5l-2.2,1.3
	l0.5-2.1l0-0.4l-1.9-1.7l2.1-0.2h0.5l1-2.4l0.8,1.9v0.5l2.7,0.2L10.8,14l-0.3,0.3l0.5,2.5L8.8,15.5z M23.9,7.5
	C24,6.7,23.8,6,23.3,5.5c-0.5-0.6-1.3-0.9-2-0.9h-9L9.9,2.3H2.8C1.2,2.3,0,3.6,0,5.1v13.8c0,1.6,1.2,2.8,2.8,2.8h18.4
	c1.6,0,2.8-1.2,2.8-2.8L23.9,7.5z M21.2,20.4H2.8c-0.8,0-1.5-0.7-1.5-1.5V5.1c0-0.9,0.6-1.5,1.5-1.5h6.6l2.3,2.3l9.5,0
	c0.4,0,0.8,0.1,1.1,0.3c0.3,0.3,0.5,0.7,0.5,1.1v11.5C22.7,19.7,22.1,20.4,21.2,20.4z"/>
</svg>
