<?xml version="1.0" encoding="utf-8"?>
<!-- Generator: Adobe Illustrator 21.1.0, SVG Export Plug-In . SVG Version: 6.00 Build 0)  -->
<svg version="1.1" id="Layer_1" xmlns="http://www.w3.org/2000/svg" xmlns:xlink="http://www.w3.org/1999/xlink" x="0px" y="0px"
	 viewBox="0 0 22 22" style="enable-background:new 0 0 22 22;" xml:space="preserve">
<path d="M21.5,6.1c-0.2-0.2-0.3-0.3-0.6-0.4V4.7c0-0.9-0.7-1.6-1.5-1.6h-9l-1.1-1C9,1.8,8.7,1.7,8.4,1.7H2.6C1.7,1.7,1,2.4,1,3.3
	v2.4C0.8,5.8,0.6,5.9,0.5,6.1C0.1,6.5-0.1,6.9,0,7.4l0.4,11c0,1,0.8,1.7,1.8,1.7h17.5c1,0,1.8-0.8,1.8-1.7l0.4-11
	C22,7,21.8,6.5,21.5,6.1z M20.5,7.3l-0.5,11c0,0.2-0.2,0.3-0.3,0.3H2.2c-0.2,0-0.3-0.1-0.3-0.3l-0.4-11c0-0.1,0-0.2,0.1-0.2
	C1.6,7.1,1.7,7,1.8,7h18.4c0.1,0,0.2,0,0.2,0.1C20.5,7.2,20.5,7.2,20.5,7.3z M2.5,5.5V3.3l0-0.1h5.7l1.3,1.2
	c0.1,0.1,0.2,0.2,0.5,0.2l9.3,0.1v0.9H2.5z"/>
</svg>
