<?xml version="1.0" encoding="utf-8"?>
<!-- Generator: Adobe Illustrator 21.1.0, SVG Export Plug-In . SVG Version: 6.00 Build 0)  -->
<svg version="1.1" id="Layer_1" xmlns="http://www.w3.org/2000/svg" xmlns:xlink="http://www.w3.org/1999/xlink" x="0px" y="0px"
	 viewBox="0 0 24 24" style="enable-background:new 0 0 24 24;" xml:space="preserve">
<path d="M15.5,13.6c1.6,0,2.8-1.2,2.8-2.8S17,8.1,15.5,8.1s-2.8,1.2-2.8,2.8S13.9,13.6,15.5,13.6z M15.5,9.3c0.9,0,1.6,0.7,1.6,1.6
	c0,0.9-0.7,1.6-1.6,1.6s-1.6-0.7-1.6-1.6C13.9,10,14.6,9.3,15.5,9.3z M21.2,4.6h-9L9.9,2.3H2.8C1.2,2.3,0,3.5,0,5.1v13.9
	c0,1.6,1.2,2.8,2.8,2.8h18.5c1.6,0,2.8-1.2,2.8-2.8V7.4C24,5.8,22.8,4.6,21.2,4.6z M2.8,3.5h6.6l2.3,2.3h9.6c0.9,0,1.6,0.7,1.6,1.6
	v11.5c0,0.9-0.7,1.6-1.6,1.6H2.8c-0.9,0-1.6-0.7-1.6-1.6V5.1C1.2,4.2,1.9,3.5,2.8,3.5z M20.5,16.6c0-2-3.1-2.8-5.1-2.8
	c-2,0-5.1,0.8-5.1,2.8v1.6h10.1V16.6z M15.5,15.1c1.5,0,3.9,0.6,3.9,1.6V17h-7.6l0-0.4c0-0.2,0.1-0.3,0.2-0.5
	C12.6,15.4,14.4,15.1,15.5,15.1z"/>
</svg>
