<?xml version="1.0" encoding="utf-8"?>
<!-- Generator: Adobe Illustrator 21.1.0, SVG Export Plug-In . SVG Version: 6.00 Build 0)  -->
<svg version="1.1" id="Layer_1" xmlns="http://www.w3.org/2000/svg" xmlns:xlink="http://www.w3.org/1999/xlink" x="0px" y="0px"
	 viewBox="0 0 24 24" style="enable-background:new 0 0 24 24;" xml:space="preserve">
<path d="M23.8,8.8C23.8,8.8,23.7,8.8,23.8,8.8l-1,0V4.5c0-0.2-0.2-0.4-0.4-0.4l-20.6,0c0,0,0,0-0.1,0l0,0c-0.2,0-0.3,0.2-0.3,0.4
	v2.4l-1,0c0,0,0,0-0.1,0C0,6.9-0.1,7.1-0.1,7.3l1.4,12.3c0,0.2,0.2,0.4,0.4,0.4h20.6c0,0,0,0,0,0c0.2,0,0.4-0.2,0.4-0.4l1.4-10.3
	C24.1,9,24,8.8,23.8,8.8z M21.9,8.8H8L6.9,7C6.8,6.9,6.7,6.9,6.6,6.9H2.1v-2h19.8V8.8z M23.3,9.6L22,19.1H2L0.7,7.7h5.6l1.1,1.8
	c0.1,0.1,0.2,0.2,0.3,0.2H23.3z"/>
</svg>
