<?xml version="1.0" encoding="utf-8"?>
<!-- Generator: Adobe Illustrator 21.1.0, SVG Export Plug-In . SVG Version: 6.00 Build 0)  -->
<svg version="1.1" id="Layer_1" xmlns="http://www.w3.org/2000/svg" xmlns:xlink="http://www.w3.org/1999/xlink" x="0px" y="0px"
	 viewBox="0 0 14 14" style="enable-background:new 0 0 14 14;" xml:space="preserve">
<path d="M13.7,3.8c-0.1-0.1-0.2-0.2-0.4-0.3V2.9c0-0.6-0.4-1-1-1H6.6L5.9,1.3C5.7,1.1,5.5,1,5.3,1H1.6c-0.6,0-1,0.4-1,1v1.5
	C0.5,3.6,0.3,3.7,0.3,3.8C0,4.1-0.1,4.3,0,4.7l0.3,7c0,0.6,0.5,1.1,1.1,1.1h11.2c0.6,0,1.1-0.5,1.1-1.1l0.3-7
	C14,4.4,13.9,4.1,13.7,3.8z M13,4.6l-0.3,7c0,0.1-0.1,0.2-0.2,0.2H1.4c-0.1,0-0.2-0.1-0.2-0.2l-0.3-7c0-0.1,0-0.1,0.1-0.1
	c0,0,0.1-0.1,0.1-0.1h11.7c0.1,0,0.1,0,0.1,0.1C13,4.5,13,4.5,13,4.6z M1.6,3.5V2.1V2h3.6L6,2.8c0.1,0.1,0.1,0.1,0.3,0.1l5.9,0.1
	v0.6L1.6,3.5L1.6,3.5z"/>
</svg>
