<?xml version="1.0" encoding="utf-8"?>
<!-- Generator: Adobe Illustrator 21.1.0, SVG Export Plug-In . SVG Version: 6.00 Build 0)  -->
<svg version="1.1" id="Layer_1" xmlns="http://www.w3.org/2000/svg" xmlns:xlink="http://www.w3.org/1999/xlink" x="0px" y="0px"
	 viewBox="0 0 24 24" style="enable-background:new 0 0 24 24;" xml:space="preserve">
<path d="M23.5,8.6h-0.7V4.7c0-0.3-0.3-0.6-0.6-0.6H2c-0.3,0-0.5,0.3-0.5,0.6v2.1H0.6C0.3,6.8,0,7.1,0,7.5l1.4,11.9
	C1.4,19.7,1.7,20,2,20h20c0.3,0,0.6-0.3,0.6-0.6l1.4-10C24,8.8,23.7,8.6,23.5,8.6z M2.5,18.7L1.3,8.1h5l1,1.7C7.5,9.9,7.6,10,7.8,10
	h14.9l-1.2,8.6H2.5z M21.4,8.6H8.3L7.2,7C7,6.8,6.9,6.8,6.8,6.8H2.6V5.3h18.7V8.6z"/>
</svg>
