<?xml version="1.0" encoding="utf-8"?>
<!-- Generator: Adobe Illustrator 21.1.0, SVG Export Plug-In . SVG Version: 6.00 Build 0)  -->
<svg version="1.1" id="Layer_1" xmlns="http://www.w3.org/2000/svg" xmlns:xlink="http://www.w3.org/1999/xlink" x="0px" y="0px"
	 viewBox="0 0 24 24" style="enable-background:new 0 0 24 24;" xml:space="preserve">
<path d="M23.6,6H11.8L8.9,3.1C8.8,3,8.7,3,8.6,3H0.4C0.1,3,0,3.1,0,3.4v17.2C0,20.8,0.1,21,0.4,21h23.2c0.2,0,0.4-0.2,0.4-0.4V6.4
	C24,6.2,23.8,6,23.6,6z M8.5,3.8l2.9,2.9c0.1,0.1,0.2,0.1,0.3,0.1h11.6v1.5H0.8V3.8H8.5z M0.8,20.2V9h22.5v11.2H0.8z"/>
</svg>
