<?xml version="1.0" encoding="utf-8"?>
<!-- Generator: Adobe Illustrator 21.1.0, SVG Export Plug-In . SVG Version: 6.00 Build 0)  -->
<svg version="1.1" id="Layer_1" xmlns="http://www.w3.org/2000/svg" xmlns:xlink="http://www.w3.org/1999/xlink" x="0px" y="0px"
	 viewBox="0 0 24 24" style="enable-background:new 0 0 24 24;" xml:space="preserve">
<path d="M21.5,4.8h-9.4L9.7,2.4H2.5C1.2,2.4,0,3.5,0,4.9v14.2c0,1.4,1.1,2.5,2.5,2.5h18.9c1.4,0,2.5-1.1,2.5-2.5V7.3
	C24,5.9,22.8,4.8,21.5,4.8z M23.4,7.3v11.8c0,1.1-0.9,1.9-1.9,1.9H2.5c-1.1,0-1.9-0.9-1.9-1.9V4.9C0.6,3.8,1.4,3,2.5,3h6.9l2.4,2.4
	h9.6C22.6,5.3,23.4,6.2,23.4,7.3z M10.4,11.4L8.7,7.5l-1.7,3.9l-4.3,0.4l3.2,2.8l-1,4.1l3.6-2.2l3.6,2.2l-1-4.1l3.2-2.8L10.4,11.4z
	 M6.6,14.7l0-0.2l-2.5-2.2L7.2,12l0.3,0l0.1-0.2l1.2-2.8l1.2,2.8L10,12l3.3,0.3l-2.3,2l-0.2,0.2l0.7,3.2L8.7,16l-2.8,1.7L6.6,14.7z"
	/>
</svg>
