<?xml version="1.0" encoding="utf-8"?>
<!-- Generator: Adobe Illustrator 21.1.0, SVG Export Plug-In . SVG Version: 6.00 Build 0)  -->
<svg version="1.1" id="Layer_1" xmlns="http://www.w3.org/2000/svg" xmlns:xlink="http://www.w3.org/1999/xlink" x="0px" y="0px"
	 viewBox="0 0 24 24" style="enable-background:new 0 0 24 24;" xml:space="preserve">
<path d="M21.6,4.7h-9.5L9.7,2.3H2.4C1,2.3-0.1,3.4-0.1,4.8v14.4c0,1.4,1.1,2.5,2.5,2.5h19.2c1.4,0,2.5-1.1,2.5-2.5v-12
	C24.1,5.8,23,4.7,21.6,4.7z M23.6,7.2v12c0,1.1-0.9,2-2,2H2.4c-1.1,0-2-0.9-2-2V4.8c0-1.1,0.9-2,2-2h7l2.4,2.4h9.8
	C22.7,5.2,23.6,6.1,23.6,7.2z M15.6,13.3c1.4,0,2.5-1.1,2.5-2.5S17,8.3,15.6,8.3s-2.5,1.1-2.5,2.5S14.2,13.3,15.6,13.3z M15.6,8.8
	c1.1,0,2,0.9,2,2s-0.9,2-2,2s-2-0.9-2-2S14.5,8.8,15.6,8.8z M15.6,14.3c-1.6,0-4.9,0.6-4.9,2.5v1.3h9.8v-1.3
	C20.5,14.9,17.2,14.3,15.6,14.3z M15.6,14.8c1.5,0,4.4,0.6,4.4,2v0.8h-8.7v-0.8C11.2,15.4,14.1,14.8,15.6,14.8z"/>
</svg>
