<?xml version="1.0" encoding="utf-8"?>
<!-- Generator: Adobe Illustrator 21.1.0, SVG Export Plug-In . SVG Version: 6.00 Build 0)  -->
<svg version="1.1" id="Layer_1" xmlns="http://www.w3.org/2000/svg" xmlns:xlink="http://www.w3.org/1999/xlink" x="0px" y="0px"
	 viewBox="0 0 24 24" style="enable-background:new 0 0 24 24;" xml:space="preserve">
<style type="text/css">
	.st0{fill:#020400;}
</style>
<g id="surface1">
	<path class="st0" d="M17.1,18.2c-1.2,1.2-2.8,1.6-5,1.6c-2.2,0-3.8-0.4-5-1.6c-1.2-1.2-2-2.8-2-5V0h1.6v13.4c0,1.6,0.4,2.8,1.4,3.8
		c1,1,2.2,1.4,3.8,1.4s2.8-0.4,3.8-1.4c1-1,1.4-2.2,1.4-3.8V0h1.6v13.4C19,15.6,18.5,17.2,17.1,18.2z M4.6,24v-2h14.6v2H4.6z"/>
</g>
</svg>
