<?xml version="1.0" encoding="UTF-8"?>
<svg width="24px" height="24px" viewBox="0 0 24 24" version="1.1" xmlns="http://www.w3.org/2000/svg" xmlns:xlink="http://www.w3.org/1999/xlink">
    <!-- Generator: Sketch 51.1 (57501) - http://www.bohemiancoding.com/sketch -->
    <title>Artboard</title>
    <desc>Created with Sketch.</desc>
    <defs></defs>
    <g id="Artboard" stroke="none" stroke-width="1" fill="none" fill-rule="evenodd">
        <g id="format-underlined" transform="translate(4.000000, 0.000000)" fill="#020400" fill-rule="nonzero">
            <path d="M15,0.5 L15,13.5 C15,17.0898509 11.5898509,20 8,20 C4.41014913,20 1,17.0898509 1,13.5 L1,0.5 C1,0.331764003 1.00639146,0.165020812 1.01894482,-6.92779167e-14 L3,1.0658141e-14 L3,13.5 C3,15.9852814 5.5147186,18 8,18 C10.4852814,18 13,15.9852814 13,13.5 L13,1.04916076e-14 L14.9810552,1.04916076e-14 C14.9936085,0.165020812 15,0.331764003 15,0.5 Z M0,24 L0,22 L16,22 L16,24 L0,24 Z" id="Combined-Shape"></path>
        </g>
    </g>
</svg>