<?xml version="1.0" encoding="utf-8"?>
<!-- Generator: Adobe Illustrator 21.1.0, SVG Export Plug-In . SVG Version: 6.00 Build 0)  -->
<svg version="1.1" id="Layer_1" xmlns="http://www.w3.org/2000/svg" xmlns:xlink="http://www.w3.org/1999/xlink" x="0px" y="0px"
	 viewBox="0 0 24 24" style="enable-background:new 0 0 24 24;" xml:space="preserve">
<path d="M0,2c0-0.3,0.2-0.5,0.5-0.5h23C23.8,1.5,24,1.7,24,2s-0.2,0.5-0.5,0.5h-23C0.2,2.5,0,2.3,0,2z M0,17.5v-11
	C0,6,0.6,5.8,0.9,6.2l5,5.5c0.2,0.2,0.2,0.5,0,0.7l-5,5.5C0.6,18.2,0,18,0,17.5z M1,16.2L4.8,12L1,7.8V16.2z M23.5,16.5h-15
	C8.2,16.5,8,16.7,8,17s0.2,0.5,0.5,0.5h15c0.3,0,0.5-0.2,0.5-0.5S23.8,16.5,23.5,16.5z M23.5,21.5h-23C0.2,21.5,0,21.7,0,22
	s0.2,0.5,0.5,0.5h23c0.3,0,0.5-0.2,0.5-0.5S23.8,21.5,23.5,21.5z M23.5,11.5h-15C8.2,11.5,8,11.7,8,12s0.2,0.5,0.5,0.5h15
	c0.3,0,0.5-0.2,0.5-0.5S23.8,11.5,23.5,11.5z M23.5,6.5h-15C8.2,6.5,8,6.7,8,7s0.2,0.5,0.5,0.5h15C23.8,7.5,24,7.3,24,7
	S23.8,6.5,23.5,6.5z"/>
</svg>
