<?xml version="1.0" encoding="utf-8"?>
<!-- Generator: Adobe Illustrator 21.1.0, SVG Export Plug-In . SVG Version: 6.00 Build 0)  -->
<svg version="1.1" id="Layer_1" xmlns="http://www.w3.org/2000/svg" xmlns:xlink="http://www.w3.org/1999/xlink" x="0px" y="0px"
	 viewBox="0 0 24 24" style="enable-background:new 0 0 24 24;" xml:space="preserve">
<path d="M23.5,6.3h-23C0.2,6.3,0,6,0,5.7s0.2-0.5,0.5-0.5h23c0.3,0,0.5,0.2,0.5,0.5S23.8,6.3,23.5,6.3z M20.3,9.4H2.6
	c-0.3,0-0.5-0.2-0.5-0.5c0-0.3,0.2-0.5,0.5-0.5h17.7c0.3,0,0.5,0.2,0.5,0.5C20.9,9.2,20.6,9.4,20.3,9.4z M16.2,12.5H7.8
	c-0.3,0-0.5-0.2-0.5-0.5s0.2-0.5,0.5-0.5h8.3c0.3,0,0.5,0.2,0.5,0.5S16.5,12.5,16.2,12.5z M19.3,15.7H3.7c-0.3,0-0.5-0.2-0.5-0.5
	c0-0.3,0.2-0.5,0.5-0.5h15.7c0.3,0,0.5,0.2,0.5,0.5C19.8,15.4,19.6,15.7,19.3,15.7z M23.5,18.8h-23c-0.3,0-0.5-0.2-0.5-0.5
	c0-0.3,0.2-0.5,0.5-0.5h23c0.3,0,0.5,0.2,0.5,0.5C24,18.5,23.8,18.8,23.5,18.8z"/>
</svg>
