<?xml version="1.0" encoding="utf-8"?>
<!-- Generator: Adobe Illustrator 21.1.0, SVG Export Plug-In . SVG Version: 6.00 Build 0)  -->
<svg version="1.1" id="Layer_1" xmlns="http://www.w3.org/2000/svg" xmlns:xlink="http://www.w3.org/1999/xlink" x="0px" y="0px"
	 viewBox="0 0 24 24" style="enable-background:new 0 0 24 24;" xml:space="preserve">
<path d="M0,2.2c0-0.4,0.3-0.7,0.7-0.7h22.5c0.4,0,0.7,0.3,0.7,0.7S23.7,3,23.2,3H0.8C0.3,3,0,2.6,0,2.2z M23.2,21H0.8
	C0.3,21,0,21.4,0,21.8c0,0.4,0.3,0.7,0.7,0.7h22.5c0.4,0,0.7-0.3,0.7-0.7C24,21.4,23.7,21,23.2,21z M0.2,12.6C0.1,12.4,0,12.2,0,12
	c0-0.2,0.1-0.4,0.2-0.5l4.9-5.4c0.2-0.3,0.5-0.4,0.8-0.3C6.2,6,6.4,6.3,6.4,6.6v10.8c0,0.3-0.2,0.6-0.5,0.7c-0.1,0-0.2,0.1-0.3,0.1
	c-0.2,0-0.4-0.1-0.5-0.2L0.2,12.6z M4.9,15.5V8.5L1.8,12L4.9,15.5z M23.2,6.4H8.6c-0.4,0-0.7,0.3-0.7,0.7c0,0.4,0.3,0.7,0.7,0.7
	h14.7c0.4,0,0.7-0.3,0.7-0.7C24,6.7,23.7,6.4,23.2,6.4z M23.2,16.2H8.6c-0.4,0-0.7,0.3-0.7,0.7c0,0.4,0.3,0.7,0.7,0.7h14.7
	c0.4,0,0.7-0.3,0.7-0.7C24,16.5,23.7,16.2,23.2,16.2z M23.2,11.3H8.6c-0.4,0-0.7,0.3-0.7,0.7s0.3,0.7,0.7,0.7h14.7
	c0.4,0,0.7-0.3,0.7-0.7S23.7,11.3,23.2,11.3z"/>
</svg>
