<?xml version="1.0" encoding="utf-8"?>
<!-- Generator: Adobe Illustrator 21.1.0, SVG Export Plug-In . SVG Version: 6.00 Build 0)  -->
<svg version="1.1" id="Layer_1" xmlns="http://www.w3.org/2000/svg" xmlns:xlink="http://www.w3.org/1999/xlink" x="0px" y="0px"
	 viewBox="0 0 24 24" style="enable-background:new 0 0 24 24;" xml:space="preserve">
<path d="M23.5,6.5h-23C0.2,6.5,0,6.3,0,6s0.2-0.5,0.5-0.5h23C23.8,5.5,24,5.7,24,6S23.8,6.5,23.5,6.5z M18.5,9.5h-18
	C0.2,9.5,0,9.3,0,9s0.2-0.5,0.5-0.5h18C18.8,8.5,19,8.7,19,9S18.8,9.5,18.5,9.5z M9.5,12.5h-9C0.2,12.5,0,12.3,0,12s0.2-0.5,0.5-0.5
	h9c0.3,0,0.5,0.2,0.5,0.5S9.8,12.5,9.5,12.5z M16.5,15.5h-16C0.2,15.5,0,15.3,0,15s0.2-0.5,0.5-0.5h16c0.3,0,0.5,0.2,0.5,0.5
	S16.8,15.5,16.5,15.5z M13.5,18.5h-13C0.2,18.5,0,18.3,0,18s0.2-0.5,0.5-0.5h13c0.3,0,0.5,0.2,0.5,0.5S13.8,18.5,13.5,18.5z"/>
</svg>
