<?xml version="1.0" encoding="utf-8"?>
<!-- Generator: Adobe Illustrator 21.1.0, SVG Export Plug-In . SVG Version: 6.00 Build 0)  -->
<svg version="1.1" id="Layer_1" xmlns="http://www.w3.org/2000/svg" xmlns:xlink="http://www.w3.org/1999/xlink" x="0px" y="0px"
	 viewBox="0 0 24 24" style="enable-background:new 0 0 24 24;" xml:space="preserve">
<path d="M23.5,6.3h-23C0.2,6.3,0,6,0,5.7s0.2-0.5,0.5-0.5h23c0.3,0,0.5,0.2,0.5,0.5S23.8,6.3,23.5,6.3z M23.5,9.4h-23
	C0.2,9.4,0,9.2,0,8.9c0-0.3,0.2-0.5,0.5-0.5h23c0.3,0,0.5,0.2,0.5,0.5C24,9.2,23.8,9.4,23.5,9.4z M23.5,12.5h-23
	C0.2,12.5,0,12.3,0,12s0.2-0.5,0.5-0.5h23c0.3,0,0.5,0.2,0.5,0.5S23.8,12.5,23.5,12.5z M23.5,15.7h-23c-0.3,0-0.5-0.2-0.5-0.5
	c0-0.3,0.2-0.5,0.5-0.5h23c0.3,0,0.5,0.2,0.5,0.5C24,15.4,23.8,15.7,23.5,15.7z M23.5,18.8h-23c-0.3,0-0.5-0.2-0.5-0.5
	c0-0.3,0.2-0.5,0.5-0.5h23c0.3,0,0.5,0.2,0.5,0.5C24,18.5,23.8,18.8,23.5,18.8z"/>
</svg>
