<?xml version="1.0" encoding="utf-8"?>
<!-- Generator: Adobe Illustrator 21.1.0, SVG Export Plug-In . SVG Version: 6.00 Build 0)  -->
<svg version="1.1" id="Layer_1" xmlns="http://www.w3.org/2000/svg" xmlns:xlink="http://www.w3.org/1999/xlink" x="0px" y="0px"
	 viewBox="0 0 24 24" style="enable-background:new 0 0 24 24;" xml:space="preserve">
<path d="M0,2.2c0-0.4,0.3-0.7,0.7-0.7h22.5c0.4,0,0.7,0.3,0.7,0.7s-0.3,0.7-0.7,0.7H0.7C0.3,2.9,0,2.6,0,2.2z M23.3,21.1H0.7
	c-0.4,0-0.7,0.3-0.7,0.7c0,0.4,0.3,0.7,0.7,0.7h22.5c0.4,0,0.7-0.3,0.7-0.7C24,21.4,23.7,21.1,23.3,21.1z M0,17.4V6.6
	C0,6.3,0.2,6,0.5,5.9c0.3-0.1,0.6,0,0.8,0.3l4.9,5.4c0.1,0.1,0.2,0.3,0.2,0.5c0,0.2-0.1,0.4-0.2,0.5l-4.9,5.4
	c-0.1,0.1-0.3,0.2-0.5,0.2c-0.1,0-0.2,0-0.3-0.1C0.2,18,0,17.7,0,17.4z M4.6,12L1.5,8.5v7L4.6,12z M23.3,16.2H8.6
	c-0.4,0-0.7,0.3-0.7,0.7s0.3,0.7,0.7,0.7h14.7c0.4,0,0.7-0.3,0.7-0.7S23.7,16.2,23.3,16.2z M23.3,6.4H8.6c-0.4,0-0.7,0.3-0.7,0.7
	s0.3,0.7,0.7,0.7h14.7c0.4,0,0.7-0.3,0.7-0.7S23.7,6.4,23.3,6.4z M23.3,11.3H8.6c-0.4,0-0.7,0.3-0.7,0.7s0.3,0.7,0.7,0.7h14.7
	c0.4,0,0.7-0.3,0.7-0.7S23.7,11.3,23.3,11.3z"/>
</svg>
