<?xml version="1.0" encoding="utf-8"?>
<!-- Generator: Adobe Illustrator 21.1.0, SVG Export Plug-In . SVG Version: 6.00 Build 0)  -->
<svg version="1.1" id="Layer_1" xmlns="http://www.w3.org/2000/svg" xmlns:xlink="http://www.w3.org/1999/xlink" x="0px" y="0px"
	 viewBox="0 0 24 24" style="enable-background:new 0 0 24 24;" xml:space="preserve">
<style type="text/css">
	.st0{fill:none;stroke:#000000;stroke-width:0.5;stroke-miterlimit:10;}
</style>
<path class="st0" d="M18.9,16.9c1.1,0,2-0.9,2-2c0-1.3-2-3.4-2-3.4s-2,2.1-2,3.4C16.9,16,17.8,16.9,18.9,16.9z M9,16.5
	c0.3,0.3,0.7,0.4,1,0.4c0.4,0,0.8-0.1,1-0.4l5.4-5.4c0.6-0.6,0.6-1.5,0-2.1L7.7,0.2L6.3,1.6l2.3,2.3L3.6,9C3,9.6,3,10.5,3.6,11.1
	L9,16.5z M10,5.3l4.7,4.7H5.3L10,5.3z M0.2,19.9v3.9h23.6v-3.9H0.2z M18.9,16.9c1.1,0,2-0.9,2-2c0-1.3-2-3.4-2-3.4s-2,2.1-2,3.4
	C16.9,16,17.8,16.9,18.9,16.9z M9,16.5c0.3,0.3,0.7,0.4,1,0.4c0.4,0,0.8-0.1,1-0.4l5.4-5.4c0.6-0.6,0.6-1.5,0-2.1L7.7,0.2L6.3,1.6
	l2.3,2.3L3.6,9C3,9.6,3,10.5,3.6,11.1L9,16.5z M10,5.3l4.7,4.7H5.3L10,5.3z M0.2,19.9v3.9h23.6v-3.9H0.2z M18.9,16.9
	c1.1,0,2-0.9,2-2c0-1.3-2-3.4-2-3.4s-2,2.1-2,3.4C16.9,16,17.8,16.9,18.9,16.9z M9,16.5c0.3,0.3,0.7,0.4,1,0.4c0.4,0,0.8-0.1,1-0.4
	l5.4-5.4c0.6-0.6,0.6-1.5,0-2.1L7.7,0.2L6.3,1.6l2.3,2.3L3.6,9C3,9.6,3,10.5,3.6,11.1L9,16.5z M10,5.3l4.7,4.7H5.3L10,5.3z
	 M0.2,19.9v3.9h23.6v-3.9H0.2z M7.8,0.6l8.8,8.6c0.2,0.2,0.4,0.5,0.4,0.9c0,0.3-0.1,0.6-0.4,0.8l-5.5,5.4c-0.2,0.2-0.5,0.4-0.9,0.4
	s-0.6-0.1-0.9-0.4l-5.6-5.4c-0.2-0.2-0.4-0.5-0.4-0.8s0.1-0.6,0.4-0.9L9,4.2L9.2,4L9,3.7L6.8,1.6L7.8,0.6 M7.8,0.2L6.4,1.6L8.8,4
	L3.6,9.1C3,9.6,3,10.6,3.6,11.1l5.5,5.4c0.3,0.3,0.7,0.4,1.1,0.4c0.4,0,0.8-0.1,1.1-0.4l5.6-5.4c0.6-0.6,0.6-1.5,0-2.1L7.8,0.2
	L7.8,0.2z M10.2,5.9l4,4h-8L10.2,5.9 M10.2,5.5l-4.7,4.7h9.4L10.2,5.5L10.2,5.5z M18.9,11.9c0.6,0.7,1.6,2.1,1.6,2.9
	c0,0.9-0.7,1.6-1.6,1.6s-1.6-0.7-1.6-1.6C17.3,13.9,18.3,12.6,18.9,11.9 M18.9,11.4c0,0-1.9,2.1-1.9,3.4c0,1.1,0.9,1.9,1.9,1.9
	c1.1,0,1.9-0.9,1.9-1.9C20.8,13.5,18.9,11.4,18.9,11.4L18.9,11.4z M23.5,20v3.5h-23V20H23.5 M23.8,19.7H0.2v4.1h23.6V19.7L23.8,19.7
	z"/>
</svg>
