<?xml version="1.0" encoding="utf-8"?>
<!-- Generator: Adobe Illustrator 21.1.0, SVG Export Plug-In . SVG Version: 6.00 Build 0)  -->
<svg version="1.1" id="Layer_1" xmlns="http://www.w3.org/2000/svg" xmlns:xlink="http://www.w3.org/1999/xlink" x="0px" y="0px"
	 viewBox="0 0 24 24" style="enable-background:new 0 0 24 24;" xml:space="preserve">
<path d="M5.1,6.2l-5,5.5c-0.2,0.2-0.2,0.5,0,0.7l5,5.5C5.4,18.2,6,18,6,17.5v-11C6,6,5.4,5.8,5.1,6.2z M5,16.2L1.2,12L5,7.8V16.2z
	 M0,2c0-0.3,0.2-0.5,0.5-0.5h23C23.8,1.5,24,1.7,24,2s-0.2,0.5-0.5,0.5h-23C0.2,2.5,0,2.3,0,2z M24,7c0,0.3-0.2,0.5-0.5,0.5h-15
	C8.2,7.5,8,7.3,8,7s0.2-0.5,0.5-0.5h15C23.8,6.5,24,6.7,24,7z M24,12c0,0.3-0.2,0.5-0.5,0.5h-15C8.2,12.5,8,12.3,8,12
	s0.2-0.5,0.5-0.5h15C23.8,11.5,24,11.7,24,12z M24,17c0,0.3-0.2,0.5-0.5,0.5h-15C8.2,17.5,8,17.3,8,17s0.2-0.5,0.5-0.5h15
	C23.8,16.5,24,16.7,24,17z M24,22c0,0.3-0.2,0.5-0.5,0.5h-23C0.2,22.5,0,22.3,0,22s0.2-0.5,0.5-0.5h23C23.8,21.5,24,21.7,24,22z"/>
</svg>
