<?xml version="1.0" encoding="utf-8"?>
<!-- Generator: Adobe Illustrator 21.1.0, SVG Export Plug-In . SVG Version: 6.00 Build 0)  -->
<svg version="1.1" id="Layer_1" xmlns="http://www.w3.org/2000/svg" xmlns:xlink="http://www.w3.org/1999/xlink" x="0px" y="0px"
	 viewBox="0 0 24 24" style="enable-background:new 0 0 24 24;" xml:space="preserve">
<path d="M0,5.8c0-0.4,0.3-0.7,0.7-0.7h22.5c0.4,0,0.7,0.3,0.7,0.7c0,0.4-0.3,0.8-0.7,0.8H0.7C0.3,6.7,0,6.2,0,5.8z M23.2,8.2H5.8
	C5.4,8.2,5.1,8.5,5.1,9c0,0.4,0.3,0.7,0.7,0.7h17.4c0.2,0,0.4-0.1,0.6-0.3c0.1-0.1,0.1-0.3,0.1-0.5C23.9,8.5,23.6,8.2,23.2,8.2z
	 M23.3,11.3h-8.1c-0.4,0-0.7,0.3-0.7,0.7s0.3,0.7,0.7,0.7h8.1c0.4,0,0.7-0.3,0.7-0.7S23.7,11.3,23.3,11.3z M23.3,17.4H0.7
	c-0.4,0-0.7,0.3-0.7,0.7c0,0.4,0.3,0.7,0.7,0.7h22.5c0.4,0,0.7-0.4,0.7-0.7C24,17.7,23.7,17.4,23.3,17.4z M23.3,14.4H7.9
	c-0.4,0-0.7,0.3-0.7,0.7c0,0.4,0.3,0.7,0.7,0.7h15.4c0.4,0,0.7-0.4,0.7-0.7C24,14.7,23.7,14.4,23.3,14.4z"/>
</svg>
