<?xml version="1.0" encoding="utf-8"?>
<!-- Generator: Adobe Illustrator 21.1.0, SVG Export Plug-In . SVG Version: 6.00 Build 0)  -->
<svg version="1.1" id="Layer_1" xmlns="http://www.w3.org/2000/svg" xmlns:xlink="http://www.w3.org/1999/xlink" x="0px" y="0px"
	 viewBox="0 0 24 24" style="enable-background:new 0 0 24 24;" xml:space="preserve">
<path d="M17.1,14.9c0,0.4-0.3,0.7-0.7,0.7H0.7c-0.4,0-0.7-0.3-0.7-0.7c0-0.4,0.3-0.7,0.7-0.7h15.7C16.8,14.2,17.1,14.5,17.1,14.9z
	 M13.5,17.1H0.7c-0.4,0-0.7,0.3-0.7,0.7c0,0.4,0.3,0.7,0.7,0.7h12.7c0.4,0,0.7-0.3,0.7-0.7C14.2,17.5,13.9,17.1,13.5,17.1z
	 M18.4,8.3H0.7C0.3,8.3,0,8.6,0,9.1c0,0.4,0.3,0.7,0.7,0.7h17.6c0.4,0,0.7-0.3,0.7-0.7C19.1,8.6,18.8,8.3,18.4,8.3z M23.3,5.4H0.7
	C0.3,5.4,0,5.7,0,6.1s0.3,0.7,0.7,0.7h22.5c0.4,0,0.7-0.3,0.7-0.7S23.7,5.4,23.3,5.4z M0.7,12.7h8.8c0.4,0,0.7-0.3,0.7-0.7
	s-0.3-0.7-0.7-0.7H0.7C0.3,11.3,0,11.6,0,12S0.3,12.7,0.7,12.7z"/>
</svg>
