<?xml version="1.0" encoding="utf-8"?>
<!-- Generator: Adobe Illustrator 21.1.0, SVG Export Plug-In . SVG Version: 6.00 Build 0)  -->
<svg version="1.1" id="Layer_1" xmlns="http://www.w3.org/2000/svg" xmlns:xlink="http://www.w3.org/1999/xlink" x="0px" y="0px"
	 viewBox="0 0 24 24" style="enable-background:new 0 0 24 24;" xml:space="preserve">
<path d="M16.3,14.9c0,1.3,1.1,2.4,2.4,2.4c1.3,0,2.4-1.1,2.4-2.4c0-0.6-0.4-1.4-0.8-2c-0.5-0.8-1.1-1.5-1.3-1.7l-0.4-0.4l-0.4,0.4
	c-0.1,0.1-0.7,0.8-1.3,1.7C16.6,13.5,16.3,14.3,16.3,14.9z M18.7,12.8c0.6,0.8,1.1,1.6,1.1,2.1c0,0.6-0.5,1.1-1.1,1.1
	s-1.1-0.5-1.1-1.1C17.6,14.4,18,13.6,18.7,12.8z M0.1,19.1V24h23.8v-4.9H0.1z M22.7,22.8H1.3v-2.4h21.3V22.8z M14.4,10.6
	c0,0,0.1,0,0.1,0h1.2l-5.7-5.7l-5.7,5.7h10C14.4,10.6,14.4,10.6,14.4,10.6z M10.3,6.9L13,9.6H7.5L10.3,6.9z M3.5,11.6l5.2,5.2
	c0.5,0.5,1.1,0.5,1.3,0.5c0.1,0,0.1,0,0.2,0c0.6,0,1.1-0.2,1.4-0.5l5.4-5.2c0.8-0.8,0.8-1.9,0-2.7L7.9,0l0,0l0,0l-2,2L8,4.3L3.5,8.9
	C3.1,9.2,3,9.7,3,10.2c0,0.1,0,0.1,0,0.2C3,10.8,3.2,11.3,3.5,11.6z M4.3,9.7l5.1-4.9l0.5-0.5L9.5,3.8L7.6,2l0.3-0.3l8,7.9
	c0.2,0.2,0.2,0.4,0.2,0.6c0,0.2-0.1,0.4-0.2,0.6l-5.2,5.1c-0.2,0.2-0.3,0.2-0.5,0.2c-0.2,0-0.3,0-0.5-0.3l-5.4-5.2
	c-0.1-0.1-0.2-0.3-0.2-0.4C4.1,10.1,4.1,9.9,4.3,9.7z"/>
</svg>
