<?xml version="1.0" encoding="UTF-8"?>
<svg xmlns="http://www.w3.org/2000/svg" xmlns:xlink="http://www.w3.org/1999/xlink" width="24pt" height="24pt" viewBox="0 0 24 24" version="1.1">
<g id="surface1">
<path style=" stroke:none;fill-rule:nonzero;fill:rgb(0.784314%,1.568627%,0%);fill-opacity:1;" d="M 17.128906 18.21875 C 15.925781 19.417969 14.289062 19.855469 12.109375 19.855469 C 9.925781 19.855469 8.289062 19.417969 7.089844 18.21875 C 5.890625 17.019531 5.128906 15.382812 5.128906 13.199219 L 5.128906 0 L 6.761719 0 L 6.761719 13.417969 C 6.761719 15.054688 7.199219 16.253906 8.183594 17.238281 C 9.164062 18.21875 10.363281 18.65625 12 18.65625 C 13.636719 18.65625 14.835938 18.21875 15.816406 17.238281 C 16.800781 16.253906 17.238281 15.054688 17.238281 13.417969 L 17.238281 0 L 18.871094 0 L 18.871094 13.417969 C 18.980469 15.601562 18.546875 17.238281 17.128906 18.21875 Z M 4.582031 24 L 4.582031 22.035156 L 19.199219 22.035156 L 19.199219 24 Z M 4.582031 24 "/>
</g>
</svg>
