<?xml version="1.0" encoding="utf-8"?>
<!-- Generator: Adobe Illustrator 21.1.0, SVG Export Plug-In . SVG Version: 6.00 Build 0)  -->
<svg version="1.1" id="Layer_1" xmlns="http://www.w3.org/2000/svg" xmlns:xlink="http://www.w3.org/1999/xlink" x="0px" y="0px"
	 viewBox="0 0 24 24" style="enable-background:new 0 0 24 24;" xml:space="preserve">
<path d="M7.8,16.8v-4l-5.6,5.6L7.8,24v-4h14.5v-3.2H7.8z M6.5,18.6V21l-2.7-2.7l2.7-2.7v2.3h14.5v0.7H6.5z M9.4,15.4h3.2V3.2h1.3
	v12.2H17V9.9c2.5-0.3,4.5-2.4,4.5-5c0-2.7-2.2-4.9-4.9-4.9H7.1v3.2h2.3V15.4z M15.8,8.7v5.6h-0.7V2h-3.8v12.2h-0.7V2H8.4V1.3h8.2
	c2.1,0,3.7,1.6,3.7,3.7s-1.6,3.7-3.7,3.7H15.8z"/>
</svg>
