<?xml version="1.0" encoding="utf-8"?>
<!-- Generator: Adobe Illustrator 21.1.0, SVG Export Plug-In . SVG Version: 6.00 Build 0)  -->
<svg version="1.1" id="Layer_1" xmlns="http://www.w3.org/2000/svg" xmlns:xlink="http://www.w3.org/1999/xlink" x="0px" y="0px"
	 viewBox="0 0 24 24" style="enable-background:new 0 0 24 24;" xml:space="preserve">
<path d="M21.6,4.9c0-2.7-2.2-4.8-4.8-4.8H7.2v2.6h2.4v12.9h2.6V2.7h2.1v12.9h2.6V9.8C19.5,9.7,21.6,7.6,21.6,4.9z M7.8,2.2V0.7h9
	c2.4,0,4.3,1.9,4.3,4.3s-1.9,4.3-4.3,4.3h-0.4v5.9h-1.5V2.2h-3.2v12.9h-1.5V2.2H7.8z M2.2,19.1L2.2,19.1l5,5v-3.7h15.3v-2.6H7.2
	v-3.7L2.2,19.1z M6.6,19.8v2.9l-3.7-3.7l3.7-3.7v2.9h15.3v1.5H6.6z"/>
</svg>
