<?xml version="1.0" encoding="utf-8"?>
<!-- Generator: Adobe Illustrator 21.1.0, SVG Export Plug-In . SVG Version: 6.00 Build 0)  -->
<svg version="1.1" id="Layer_1" xmlns="http://www.w3.org/2000/svg" xmlns:xlink="http://www.w3.org/1999/xlink" x="0px" y="0px"
	 viewBox="0 0 24 24" style="enable-background:new 0 0 24 24;" xml:space="preserve">
<path d="M7.7,9.9v5.6h3.2V3.2h1.3v12.2h3.2V3.2h2.3V0H8.1C5.4,0,3.2,2.2,3.2,4.9C3.2,7.5,5.1,9.6,7.7,9.9z M8.1,1.2h8.2v0.7H14v12.3
	h-0.7V2H9.6v12.2H8.9V8.6H8.1C6,8.6,4.4,7,4.4,4.9C4.4,2.8,6,1.2,8.1,1.2z M22.5,18.4l-5.6-5.6v4H2.4V20h14.5v4L22.5,18.4z M18.1,18
	v-2.3l2.7,2.7L18.1,21v-2.3H3.5V18H18.1z"/>
</svg>
