<?xml version="1.0" encoding="utf-8"?>
<!-- Generator: Adobe Illustrator 21.1.0, SVG Export Plug-In . SVG Version: 6.00 Build 0)  -->
<svg version="1.1" id="Layer_1" xmlns="http://www.w3.org/2000/svg" xmlns:xlink="http://www.w3.org/1999/xlink" x="0px" y="0px"
	 viewBox="0 0 24 24" style="enable-background:new 0 0 24 24;" xml:space="preserve">
<path d="M15.7,7.6V0.8c0-0.4,0.4-0.7,0.7-0.7c0.4,0,0.7,0.4,0.7,0.7v6h6c0.4,0,0.7,0.4,0.7,0.7s-0.4,0.7-0.7,0.7h-6.8
	C16.1,8.3,15.7,8,15.7,7.6z M7.6,15.7H0.8c-0.4,0-0.7,0.4-0.7,0.7c0,0.4,0.4,0.7,0.7,0.7h6v6.1c0,0.3,0.4,0.7,0.7,0.7
	c0.4,0,0.7-0.4,0.7-0.7v-6.9C8.3,16,8,15.7,7.6,15.7z M7.6,0C7.2,0,6.8,0.4,6.8,0.8v6h-6C0.4,6.8,0,7.2,0,7.6s0.4,0.7,0.7,0.7h6.8
	C8,8.3,8.3,8,8.3,7.6V0.8C8.3,0.4,8,0,7.6,0z M23.2,15.7h-6.8c-0.4,0-0.7,0.4-0.7,0.7v6.9c0,0.4,0.4,0.7,0.7,0.7
	c0.4,0,0.7-0.4,0.7-0.7v-6.1h6.1c0.4,0,0.7-0.4,0.7-0.7C24,16,23.6,15.7,23.2,15.7z"/>
</svg>
