<?xml version="1.0" encoding="utf-8"?>
<!-- Generator: Adobe Illustrator 21.1.0, SVG Export Plug-In . SVG Version: 6.00 Build 0)  -->
<svg version="1.1" id="Layer_1" xmlns="http://www.w3.org/2000/svg" xmlns:xlink="http://www.w3.org/1999/xlink" x="0px" y="0px"
	 viewBox="0 0 24 24" style="enable-background:new 0 0 24 24;" xml:space="preserve">
<path d="M7.4,0C7.2,0,7,0.2,7,0.4V7H0.4C0.2,7,0,7.2,0,7.4s0.2,0.4,0.4,0.4h7c0.2,0,0.4-0.2,0.4-0.4v-7C7.8,0.2,7.6,0,7.4,0z
	 M16.6,7.8h7c0.2,0,0.4-0.2,0.4-0.4S23.8,7,23.6,7H17V0.4C17,0.2,16.8,0,16.6,0s-0.4,0.2-0.4,0.4v7C16.2,7.6,16.4,7.8,16.6,7.8z
	 M23.6,16.2h-7c-0.2,0-0.4,0.2-0.4,0.4v7.1c0,0.2,0.2,0.4,0.4,0.4s0.4-0.2,0.4-0.4v-6.7h6.7c0.2,0,0.4-0.2,0.4-0.4
	S23.8,16.2,23.6,16.2z M7.4,16.2h-7c-0.2,0-0.4,0.2-0.4,0.4s0.2,0.4,0.4,0.4H7v6.7C7,23.8,7.2,24,7.4,24s0.4-0.2,0.4-0.4v-7.1
	C7.8,16.3,7.6,16.2,7.4,16.2z"/>
</svg>
