<?xml version="1.0" encoding="UTF-8"?>
<svg xmlns="http://www.w3.org/2000/svg" xmlns:xlink="http://www.w3.org/1999/xlink" width="24pt" height="24pt" viewBox="0 0 24 24" version="1.1">
<g id="surface1">
<path style=" stroke:none;fill-rule:nonzero;fill:rgb(0%,0%,0%);fill-opacity:1;" d="M 0.980469 8.617188 L 0 8.617188 L 0 1.636719 L 6.4375 1.636719 L 6.4375 2.617188 L 0.980469 2.617188 Z M 24 8.617188 L 23.019531 8.617188 L 23.019531 2.617188 L 17.453125 2.617188 L 17.453125 1.636719 L 24 1.636719 Z M 6.4375 22.363281 L 0 22.363281 L 0 15.382812 L 0.980469 15.382812 L 0.980469 21.382812 L 6.546875 21.382812 L 6.546875 22.363281 Z M 24 22.363281 L 17.5625 22.363281 L 17.5625 21.382812 L 23.128906 21.382812 L 23.128906 15.382812 L 24 15.382812 Z M 20.183594 18.21875 L 3.816406 18.21875 L 3.816406 5.78125 L 20.183594 5.78125 Z M 4.800781 17.238281 L 19.199219 17.238281 L 19.199219 6.761719 L 4.800781 6.761719 Z M 4.800781 17.238281 "/>
<path style=" stroke:none;fill-rule:nonzero;fill:rgb(0%,0%,0%);fill-opacity:1;" d="M 17.238281 15.925781 L 6.65625 15.925781 L 6.65625 7.964844 L 17.238281 7.964844 Z M 7.417969 15.164062 L 16.363281 15.164062 L 16.363281 8.726562 L 7.417969 8.726562 Z M 7.417969 15.164062 "/>
</g>
</svg>
