<?xml version="1.0" encoding="utf-8"?>
<!-- Generator: Adobe Illustrator 21.1.0, SVG Export Plug-In . SVG Version: 6.00 Build 0)  -->
<svg version="1.1" id="Layer_1" xmlns="http://www.w3.org/2000/svg" xmlns:xlink="http://www.w3.org/1999/xlink" x="0px" y="0px"
	 viewBox="0 0 24 24" style="enable-background:new 0 0 24 24;" xml:space="preserve">
<path d="M12,6c-3.3,0-6,2.7-6,6c0,3.4,2.7,6.1,6,6.1c3.2,0,6-2.7,6-6C18,8.8,15.2,6,12,6z M12,16.5c-2.5,0-4.5-2-4.5-4.5
	c0-2.5,2-4.5,4.5-4.5c2.5,0,4.5,2,4.5,4.5C16.5,14.5,14.5,16.5,12,16.5z M24,10.9c-0.1-0.7-0.5-1.1-1.1-1.3L21.5,9
	C21.3,8.9,21,8.7,21,8.4c-0.1-0.3-0.1-0.6,0-0.9l0.5-1.4c0.4-0.5,0.2-1.3-0.3-1.7l-1.6-1.6c-0.4-0.4-1.2-0.5-1.6-0.3l-1.4,0.5
	C16,3.4,15.2,3.1,15,2.5l-0.6-1.3c0-0.6-0.6-1.1-1.2-1.1h-2.2c-0.6,0-1.2,0.5-1.3,1.1L9,2.5C8.7,3.2,8,3.4,7.4,3.2L6.1,2.6
	C5.6,2.3,5,2.4,4.4,2.8L2.8,4.4C2.4,4.8,2.3,5.5,2.6,6.1l0.5,1.4C3.4,8,3.1,8.8,2.5,9L1.2,9.6c-0.7,0.1-1.2,0.7-1.2,1.3v2.2
	c0,0.7,0.4,1.2,1,1.3l1.4,0.6c0.6,0.3,0.9,1,0.6,1.6l-0.5,1.4c-0.4,0.5-0.2,1.3,0.3,1.7l1.6,1.6c0.4,0.4,1.1,0.5,1.6,0.3l1.4-0.5
	C8,20.8,8.8,21.2,9,21.7l0.6,1.3c0.1,0.6,0.6,1,1.3,1h2.2c0.7,0,1.2-0.4,1.3-1l0.6-1.4c0.3-0.6,1-0.9,1.6-0.6l1.4,0.5
	c0.5,0.4,1.3,0.2,1.7-0.3l1.6-1.6c0.4-0.4,0.5-1.1,0.3-1.6l-0.5-1.4c-0.3-0.6,0.1-1.3,0.6-1.6l1.3-0.6c0.6-0.1,1-0.6,1-1.3L24,10.9z
	 M19.5,17.2l0.6,1.4v0.2l-1.5,1.5l-1.6-0.6c-1.4-0.6-2.9,0.1-3.5,1.4l-0.7,1.5H11L10.4,21c-0.3-0.7-0.8-1.2-1.4-1.4
	c-0.7-0.3-1.4-0.3-2.1,0l-1.4,0.6H5.3l-1.5-1.5l0.6-1.6c0.5-1.4-0.1-2.9-1.4-3.5L1.6,13l0-1.9l1.6-0.6C3.8,10.1,4.3,9.6,4.6,9
	c0.3-0.7,0.3-1.4,0-2.1L3.9,5.5V5.3l1.5-1.5L7,4.5c1.4,0.5,2.9-0.1,3.5-1.4l0.6-1.4l1.9,0l0.6,1.6c0.3,0.7,0.8,1.2,1.4,1.4
	c0.7,0.3,1.4,0.3,2.1,0l1.4-0.6h0.2l1.5,1.5L19.6,7c-0.2,0.6-0.2,1.4,0,2l0.5,1.2V9.7c0.2,0.3,0.6,0.5,0.9,0.6l1.5,0.7l0,2L21,13.6
	C19.6,14.3,19,15.8,19.5,17.2z"/>
</svg>
