<?xml version="1.0" encoding="UTF-8"?>
<svg xmlns="http://www.w3.org/2000/svg" xmlns:xlink="http://www.w3.org/1999/xlink" width="24pt" height="24pt" viewBox="0 0 24 24" version="1.1">
<g id="surface1">
<path style=" stroke:none;fill-rule:nonzero;fill:rgb(0%,0%,0%);fill-opacity:1;" d="M 12 6.109375 C 8.726562 6.109375 6.109375 8.726562 6.109375 12 C 6.109375 15.273438 8.726562 18 12 18 C 15.273438 18 17.890625 15.273438 17.890625 12.109375 C 17.890625 8.945312 15.273438 6.109375 12 6.109375 Z M 12 16.910156 C 9.273438 16.910156 7.089844 14.726562 7.089844 12 C 7.089844 9.273438 9.273438 7.089844 12 7.089844 C 14.726562 7.089844 16.910156 9.273438 16.910156 12 C 16.910156 14.726562 14.726562 16.910156 12 16.910156 Z M 23.128906 9.816406 L 21.710938 9.164062 C 21.382812 9.054688 21.054688 8.726562 20.945312 8.398438 C 20.835938 8.074219 20.835938 7.636719 20.945312 7.308594 L 21.492188 5.890625 C 21.816406 5.453125 21.710938 4.800781 21.273438 4.472656 L 19.636719 2.835938 C 19.308594 2.507812 18.65625 2.398438 18.21875 2.617188 L 16.800781 3.164062 C 16.035156 3.492188 15.164062 3.054688 14.835938 2.398438 L 14.183594 0.980469 C 14.183594 0.4375 13.746094 0 13.199219 0 L 10.910156 0 C 10.363281 0 9.925781 0.4375 9.816406 0.980469 L 9.164062 2.398438 C 8.835938 3.164062 7.964844 3.492188 7.199219 3.164062 L 5.78125 2.617188 C 5.34375 2.289062 4.800781 2.398438 4.363281 2.726562 L 2.726562 4.363281 C 2.398438 4.691406 2.289062 5.34375 2.617188 5.78125 L 3.164062 7.199219 C 3.492188 7.964844 3.054688 8.835938 2.398438 9.164062 L 0.980469 9.816406 C 0.4375 9.925781 0 10.363281 0 10.910156 L 0 13.199219 C 0 13.746094 0.328125 14.183594 0.871094 14.289062 L 2.289062 14.945312 C 3.054688 15.273438 3.382812 16.144531 3.054688 16.910156 L 2.507812 18.328125 C 2.183594 18.761719 2.289062 19.417969 2.726562 19.746094 L 4.363281 21.382812 C 4.691406 21.710938 5.34375 21.816406 5.78125 21.601562 L 7.199219 21.054688 C 7.964844 20.726562 8.835938 21.164062 9.164062 21.816406 L 9.816406 23.128906 C 9.925781 23.671875 10.363281 24 10.910156 24 L 13.199219 24 C 13.746094 24 14.183594 23.671875 14.289062 23.128906 L 14.945312 21.710938 C 15.273438 20.945312 16.144531 20.617188 16.910156 20.945312 L 18.328125 21.492188 C 18.761719 21.816406 19.417969 21.710938 19.746094 21.273438 L 21.382812 19.636719 C 21.710938 19.308594 21.816406 18.65625 21.601562 18.21875 L 21.054688 16.800781 C 20.726562 16.035156 21.164062 15.164062 21.816406 14.835938 L 23.238281 14.183594 C 23.78125 14.074219 24.109375 13.636719 24.109375 13.089844 L 24.109375 10.910156 C 24 10.363281 23.671875 9.925781 23.128906 9.816406 Z M 19.964844 17.238281 L 20.617188 18.761719 L 20.617188 18.871094 C 20.617188 18.980469 20.617188 18.980469 20.617188 19.089844 L 18.980469 20.726562 C 18.980469 20.726562 18.871094 20.835938 18.761719 20.726562 L 17.128906 20.074219 C 15.816406 19.527344 14.398438 20.183594 13.855469 21.382812 L 13.199219 22.800781 L 13.308594 22.910156 C 13.308594 23.019531 13.199219 23.019531 13.199219 23.019531 L 10.910156 23.019531 C 10.800781 23.019531 10.800781 23.019531 10.800781 22.910156 L 10.144531 21.273438 C 9.601562 19.964844 8.183594 19.417969 6.871094 19.964844 L 5.34375 20.617188 L 5.238281 20.617188 C 5.128906 20.617188 5.128906 20.617188 5.019531 20.617188 L 3.382812 18.980469 C 3.382812 18.980469 3.273438 18.871094 3.382812 18.761719 L 4.035156 17.128906 C 4.472656 15.816406 3.925781 14.398438 2.726562 13.855469 L 1.199219 13.199219 L 1.089844 13.199219 C 1.089844 13.308594 1.089844 13.199219 1.089844 13.199219 L 1.089844 10.910156 C 1.089844 10.800781 1.089844 10.800781 1.199219 10.800781 L 2.835938 10.144531 C 4.144531 9.601562 4.691406 8.183594 4.144531 6.871094 L 3.492188 5.34375 L 3.492188 5.238281 C 3.492188 5.128906 3.492188 5.128906 3.492188 5.019531 L 5.128906 3.382812 C 5.128906 3.382812 5.238281 3.273438 5.34375 3.382812 L 6.980469 4.035156 C 8.289062 4.472656 9.710938 3.925781 10.253906 2.726562 L 10.910156 1.199219 L 10.910156 1.089844 C 10.800781 1.089844 10.800781 1.089844 10.910156 1.089844 L 13.199219 1.089844 C 13.308594 1.089844 13.308594 1.089844 13.308594 1.199219 L 13.964844 2.835938 C 14.507812 4.144531 15.925781 4.691406 17.238281 4.144531 L 18.761719 3.492188 L 18.871094 3.492188 C 18.980469 3.492188 18.980469 3.492188 19.089844 3.492188 L 20.726562 5.128906 C 20.726562 5.128906 20.835938 5.238281 20.726562 5.34375 L 20.074219 6.980469 C 19.855469 7.527344 19.855469 8.289062 20.074219 8.835938 L 20.074219 8.726562 C 20.289062 9.382812 20.835938 9.816406 21.382812 10.035156 L 22.910156 10.691406 L 23.019531 10.691406 C 23.128906 10.691406 23.128906 10.800781 23.128906 10.800781 L 23.128906 13.089844 C 23.128906 13.199219 23.128906 13.199219 23.019531 13.199219 L 21.382812 13.855469 C 20.074219 14.507812 19.417969 15.925781 19.964844 17.238281 Z M 19.964844 17.238281 "/>
</g>
</svg>
