<?xml version="1.0" encoding="utf-8"?>
<!-- Generator: Adobe Illustrator 21.1.0, SVG Export Plug-In . SVG Version: 6.00 Build 0)  -->
<svg version="1.1" id="Layer_1" xmlns="http://www.w3.org/2000/svg" xmlns:xlink="http://www.w3.org/1999/xlink" x="0px" y="0px"
	 viewBox="0 0 24 24" style="enable-background:new 0 0 24 24;" xml:space="preserve">
<path d="M15.5,8.8c0-1.9-1.6-3.5-3.5-3.5S8.5,6.8,8.5,8.8s1.6,3.5,3.5,3.5C13.9,12.3,15.5,10.7,15.5,8.8z M9,8.8
	c0-1.6,1.3-2.9,2.9-2.9s2.9,1.3,2.9,2.9s-1.3,2.9-2.9,2.9S9,10.4,9,8.8z M24,23.6l-2.2-4.3c-0.1-0.1-0.1-0.1-0.2-0.1h-7.5
	c0.6-0.5,1.2-1.1,1.8-1.9c1.7-2,3.8-5.1,3.8-8.5c0-4.3-3.5-7.8-7.7-7.8S4.2,4.5,4.2,8.8c0,3.4,2.1,6.5,3.8,8.5
	c0.6,0.7,1.3,1.3,1.8,1.9H2.4c-0.1,0-0.2,0.1-0.2,0.2L0,23.6c-0.1,0.1,0,0.2,0,0.3C0.1,23.9,0.2,24,0.3,24h23.5
	c0.1,0,0.2-0.1,0.2-0.1C24,23.8,24,23.7,24,23.6z M4.8,8.8c0-4,3.2-7.2,7.2-7.2s7.2,3.2,7.2,7.2c0,5.7-6.1,10.6-7.2,11.4
	C10.9,19.4,4.8,14.5,4.8,8.8z M0.7,23.4l1.9-3.7h7.9c0.8,0.7,1.3,1.1,1.3,1.1c0.1,0,0.1,0.1,0.2,0.1s0.1,0,0.2-0.1
	c0,0,0.6-0.4,1.3-1.1h7.9l1.9,3.7H0.7z"/>
</svg>
