<?xml version="1.0" encoding="utf-8"?>
<!-- Generator: Adobe Illustrator 21.1.0, SVG Export Plug-In . SVG Version: 6.00 Build 0)  -->
<svg version="1.1" id="Layer_1" xmlns="http://www.w3.org/2000/svg" xmlns:xlink="http://www.w3.org/1999/xlink" x="0px" y="0px"
	 viewBox="0 0 24 24" style="enable-background:new 0 0 24 24;" xml:space="preserve">
<path d="M21.8,18.8l-0.1-0.1c-0.2-0.2-0.3-0.2-0.5-0.2h-6c0.3-0.3,0.6-0.7,0.9-1c2.5-2.9,3.8-5.8,3.8-8.5c0-4.4-3.5-8-7.9-8
	C7.7,1,4,4.6,4,9c0,2.7,1.3,5.5,3.8,8.5c0.3,0.3,0.6,0.7,0.9,1c0,0,0,0,0.1,0.1h-6c-0.3,0-0.6,0.2-0.7,0.5l-2,3.9
	C0,23-0.1,23.2,0,23.4v0.5h0.4c0.1,0,0.2,0.1,0.4,0.1h22.5c0.3,0,0.5-0.2,0.5-0.2l0.1-0.1V23L21.8,18.8z M2,22.5l1.3-2.6h7.1
	c0.7,0.6,1.1,0.9,1.1,0.9l0.1,0.1h0c0.1,0,0.2,0.1,0.3,0.1c0.3,0,0.4-0.1,0.5-0.2c0,0,0.5-0.4,1.2-1h7.1l1.3,2.6H2z M12,2.5
	c3.5,0,6.4,2.9,6.4,6.4c0,5-5.1,9.3-6.4,10.3C10.7,18.3,5.6,14,5.6,9C5.6,5.4,8.5,2.5,12,2.5z M12,12.8c2.1,0,3.8-1.8,3.8-3.8
	S14.1,5.1,12,5.1C9.8,5.1,8.2,6.8,8.2,9S9.8,12.8,12,12.8z M11.9,6.7c1.3,0,2.3,1,2.3,2.3c0,1.3-1,2.3-2.3,2.3c-1.3,0-2.3-1-2.3-2.3
	C9.6,7.7,10.6,6.7,11.9,6.7z"/>
</svg>
