<?xml version="1.0" encoding="UTF-8"?>
<svg xmlns="http://www.w3.org/2000/svg" xmlns:xlink="http://www.w3.org/1999/xlink" width="24pt" height="24pt" viewBox="0 0 24 24" version="1.1">
<g id="surface1">
<path style=" stroke:none;fill-rule:nonzero;fill:rgb(0%,0%,0%);fill-opacity:1;" d="M 12 0.0429688 C 5.34375 0.0429688 0 5.386719 0 12.042969 C 0 18.695312 5.34375 24.042969 12 24.042969 C 18.65625 24.042969 24 18.695312 24 12.042969 C 24 5.386719 18.65625 0.0429688 12 0.0429688 Z M 11.671875 0.585938 L 11.671875 7.023438 L 6.761719 7.023438 C 7.089844 5.824219 7.417969 4.730469 7.964844 3.859375 C 8.726562 2.441406 9.710938 0.804688 11.671875 0.585938 Z M 12.328125 0.585938 C 13.855469 0.695312 15.164062 1.894531 16.144531 3.859375 C 16.582031 4.730469 17.019531 5.824219 17.34375 7.023438 L 12.328125 7.023438 Z M 9.601562 0.804688 C 8.726562 1.460938 7.964844 2.441406 7.308594 3.53125 C 6.761719 4.515625 6.4375 5.714844 6.109375 6.914062 L 1.746094 6.914062 C 3.273438 3.859375 6.109375 1.570312 9.601562 0.804688 Z M 14.398438 0.804688 C 17.890625 1.570312 20.835938 3.859375 22.363281 7.023438 L 17.890625 7.023438 C 17.5625 5.714844 17.128906 4.625 16.691406 3.640625 C 16.035156 2.332031 15.273438 1.460938 14.398438 0.804688 Z M 1.417969 7.570312 L 6 7.570312 C 5.78125 8.878906 5.5625 10.296875 5.5625 11.714844 L 0.546875 11.714844 C 0.65625 10.1875 0.871094 8.878906 1.417969 7.570312 Z M 6.65625 7.570312 L 11.78125 7.570312 L 11.78125 11.714844 L 6.109375 11.714844 C 6.109375 10.1875 6.328125 8.878906 6.65625 7.570312 Z M 12.328125 7.570312 L 17.453125 7.570312 C 17.78125 8.878906 17.890625 10.296875 17.890625 11.714844 L 12.328125 11.714844 Z M 18 7.570312 L 22.582031 7.570312 C 23.128906 8.878906 23.453125 10.296875 23.453125 11.714844 L 18.4375 11.714844 C 18.4375 10.296875 18.21875 8.878906 18 7.570312 Z M 0.546875 12.257812 L 5.5625 12.257812 C 5.5625 13.785156 5.78125 15.097656 6 16.40625 L 1.417969 16.40625 C 0.871094 15.203125 0.65625 13.785156 0.546875 12.257812 Z M 6.109375 12.257812 L 11.671875 12.257812 L 11.671875 16.40625 L 6.65625 16.40625 C 6.328125 15.203125 6.109375 13.785156 6.109375 12.257812 Z M 12.328125 12.257812 L 17.890625 12.257812 C 17.890625 13.785156 17.671875 15.203125 17.453125 16.40625 L 12.328125 16.40625 Z M 18.4375 12.257812 L 23.453125 12.257812 C 23.453125 13.785156 23.128906 15.203125 22.582031 16.40625 L 18 16.40625 C 18.21875 15.203125 18.4375 13.785156 18.4375 12.257812 Z M 1.746094 17.058594 L 6.21875 17.058594 C 6.546875 18.367188 6.980469 19.460938 7.417969 20.441406 C 8.074219 21.640625 8.835938 22.625 9.710938 23.277344 C 6.109375 22.515625 3.273438 20.113281 1.746094 17.058594 Z M 6.761719 17.058594 L 11.78125 17.058594 L 11.78125 23.496094 C 10.253906 23.386719 8.945312 22.1875 7.964844 20.222656 C 7.417969 19.242188 6.980469 18.148438 6.761719 17.058594 Z M 12.328125 17.058594 L 17.34375 17.058594 C 17.019531 18.257812 16.691406 19.242188 16.144531 20.222656 C 15.164062 22.1875 13.746094 23.386719 12.328125 23.496094 Z M 17.890625 17.058594 L 22.363281 17.058594 C 20.835938 20.222656 17.890625 22.515625 14.398438 23.277344 C 15.273438 22.625 16.035156 21.640625 16.691406 20.441406 C 17.128906 19.460938 17.5625 18.257812 17.890625 17.058594 Z M 17.890625 17.058594 "/>
</g>
</svg>
