<?xml version="1.0" encoding="utf-8"?>
<!-- Generator: Adobe Illustrator 21.1.0, SVG Export Plug-In . SVG Version: 6.00 Build 0)  -->
<svg version="1.1" id="Layer_1" xmlns="http://www.w3.org/2000/svg" xmlns:xlink="http://www.w3.org/1999/xlink" x="0px" y="0px"
	 viewBox="0 0 24 24" style="enable-background:new 0 0 24 24;" xml:space="preserve">
<path d="M12,0C5.4,0,0,5.4,0,12c0,6.6,5.4,12,12,12c6.6,0,12-5.4,12-12C24,5.4,18.6,0,12,0z M22.7,11.4h-4.1c0-1.1-0.2-2.2-0.4-3.3
	H22C22.4,9.2,22.7,10.3,22.7,11.4z M22.7,12.6c0,1.2-0.3,2.3-0.7,3.3h-3.8c0.2-1,0.3-2.1,0.4-3.3H22.7z M12.7,11.4V8.1H17
	c0.2,1,0.3,2,0.3,3.3H12.7z M16.7,6.8h-4V1.4c1.4,0.3,2.4,1.7,3,2.9C16,4.8,16.4,5.7,16.7,6.8z M18,6.8c-0.3-1.3-0.8-2.3-1.1-3.1
	c-0.4-0.7-0.7-1.3-1.2-1.8c2.5,0.9,4.5,2.6,5.8,4.9H18z M15.7,19.8c-0.8,1.6-1.9,2.6-3,2.9v-5.5h4C16.4,18.2,16.1,19,15.7,19.8z
	 M12.7,15.9v-3.3h4.7c0,1.2-0.2,2.3-0.4,3.3H12.7z M15.6,22.2c0.4-0.5,0.8-1.1,1.2-1.8c0.4-0.9,0.8-2,1.1-3.1h3.5
	C20.2,19.5,18.1,21.3,15.6,22.2z M11.3,6.8H7.4C7.7,5.9,8,5,8.4,4.3C9.1,3,9.9,1.7,11.3,1.4V6.8z M7.1,3.6C6.6,4.5,6.3,5.6,6,6.7
	H2.7c1.3-2.2,3.3-3.9,5.7-4.8C7.9,2.4,7.5,3,7.1,3.6z M11.3,15.9H7.1c-0.3-1.1-0.4-2.2-0.4-3.3h4.7V15.9z M7.4,17.3h4v5.5
	C10,22.4,9,21,8.4,19.8C7.9,19,7.6,18.1,7.4,17.3z M1.3,11.4C1.4,10,1.6,9,2,8.1h3.8c-0.2,1.1-0.3,2.2-0.4,3.3H1.3z M5.4,12.6
	c0,1.2,0.2,2.3,0.4,3.3H2c-0.4-1.1-0.6-2.3-0.7-3.3H5.4z M6.1,17.3c0.3,1.3,0.8,2.3,1.1,3.1c0.4,0.7,0.8,1.3,1.2,1.8
	C6,21.3,4,19.6,2.7,17.3H6.1z M6.7,11.4c0-1.1,0.2-2.1,0.4-3.3h4.3v3.3H6.7z"/>
</svg>
