<?xml version="1.0" encoding="utf-8"?>
<!-- Generator: Adobe Illustrator 21.1.0, SVG Export Plug-In . SVG Version: 6.00 Build 0)  -->
<svg version="1.1" id="Layer_1" xmlns="http://www.w3.org/2000/svg" xmlns:xlink="http://www.w3.org/1999/xlink" x="0px" y="0px"
	 viewBox="0 0 24 24" style="enable-background:new 0 0 24 24;" xml:space="preserve">
<path d="M0,0.8L0.8,0L24,23.2L23.2,24l-2-2c-0.5,0.4-1.2,0.6-2,0.6H4.7c-1.9,0-3.4-1.5-3.4-3.4V4.8c0-0.7,0.2-1.4,0.6-2L0,0.8
	 M4.7,1.4h14.5c1.9,0,3.4,1.5,3.4,3.4v14.5l-0.1,0.8l-1-1v-3.2h-3.2l-1.1-1.1h4.3V9.2h-5.6v4.3l-1.1-1.1V9.2h-3.2l-1.1-1.1h4.3V2.5
	H9.2v4.3L8.1,5.7V2.5H4.9l-1-1L4.7,1.4 M2.5,4.8v3.4h4.9L2.8,3.6C2.6,3.9,2.5,4.3,2.5,4.8 M9.2,14.8H14L9.2,10V14.8 M15.9,21.5h3.4
	c0.4,0,0.8-0.1,1.2-0.3l-4.5-4.5V21.5 M2.5,19.3c0,1.2,1,2.2,2.2,2.2h3.4v-5.6H2.5V19.3 M8.1,9.2H2.5v5.6h5.6V9.2 M21.5,4.8
	c0-1.2-1-2.2-2.2-2.2h-3.4v5.6h5.6V4.8 M9.2,21.5h5.6v-5.6H9.2V21.5z"/>
</svg>
