<?xml version="1.0" encoding="utf-8"?>
<!-- Generator: Adobe Illustrator 21.1.0, SVG Export Plug-In . SVG Version: 6.00 Build 0)  -->
<svg version="1.1" id="Layer_1" xmlns="http://www.w3.org/2000/svg" xmlns:xlink="http://www.w3.org/1999/xlink" x="0px" y="0px"
	 viewBox="0 0 24 24" style="enable-background:new 0 0 24 24;" xml:space="preserve">
<path d="M8,2.8v3.1l1.3,1.3V2.8h5.3V8h-4.4l1.3,1.3h3.1v3.1l1.3,1.3V9.4h5.3v5.3h-4.4l1.3,1.3h3.1V19l1.2,1.2l0.1-1.1V4.9
	c0-1.9-1.5-3.5-3.5-3.5H4.8L3.8,1.6L5,2.8H8z M16,8.1V2.9h3.2c1.1,0,2,0.9,2,2v3.2H16z M1,0L0,1l1.9,2c-0.4,0.6-0.6,1.3-0.6,2v14.2
	c0,1.9,1.5,3.5,3.5,3.5h14.3c0.8,0,1.5-0.2,2-0.6l1.9,1.9L23,24l1-1L1,0z M20.2,21c-0.3,0.1-0.6,0.2-1,0.2h-3.1v-4.3L20.2,21z
	 M9.4,14.6v-4.3l4.3,4.3H9.4z M14.6,16v5.3H9.4V16H14.6z M8,16v5.3H4.8c-1.1,0-2-0.9-2-2V16H8z M2.8,8.1V4.9c0-0.4,0.1-0.7,0.2-1
	l4.2,4.2H2.8z M8,9.4v5.3H2.8V9.4H8z"/>
</svg>
