<?xml version="1.0" encoding="utf-8"?>
<!-- Generator: Adobe Illustrator 21.1.0, SVG Export Plug-In . SVG Version: 6.00 Build 0)  -->
<svg version="1.1" id="Layer_1" xmlns="http://www.w3.org/2000/svg" xmlns:xlink="http://www.w3.org/1999/xlink" x="0px" y="0px"
	 viewBox="0 0 24 24" style="enable-background:new 0 0 24 24;" xml:space="preserve">
<path d="M0,0v24h24V0H0z M1.5,7.5V1.5h6.1v6.1H1.5z M1.5,15.1V8.9h6.1v6.2H1.5z M1.5,22.5v-6.1h6.1v6.1H1.5z M8.9,7.5V1.5H15v6.1
	H8.9z M8.9,15V8.9H15V15H8.9z M8.9,22.5v-6.1h6.2v6.1H8.9z M16.5,7.5V1.5h6.1v6.1H16.5z M16.5,15V8.9h6.1V15H16.5z M16.5,22.5v-6.1
	h6.1v6.1H16.5z"/>
</svg>
