<?xml version="1.0" encoding="utf-8"?>
<!-- Generator: Adobe Illustrator 21.1.0, SVG Export Plug-In . SVG Version: 6.00 Build 0)  -->
<svg version="1.1" id="Layer_1" xmlns="http://www.w3.org/2000/svg" xmlns:xlink="http://www.w3.org/1999/xlink" x="0px" y="0px"
	 viewBox="0 0 24 24" style="enable-background:new 0 0 24 24;" xml:space="preserve">
<path d="M0,0v24h24V0H0z M23,7.7h-6.7V1H23V7.7z M8.6,15.4V8.6h6.7v6.7H8.6z M15.4,16.3V23H8.6v-6.7H15.4z M7.7,15.4H1V8.6h6.7V15.4
	z M8.6,7.7V1h6.7v6.7H8.6z M16.3,8.6H23v6.7h-6.7V8.6z M7.7,1v6.7H1V1H7.7z M1,16.3h6.7V23H1V16.3z M16.3,23v-6.7H23V23H16.3z"/>
</svg>
