<?xml version="1.0" encoding="utf-8"?>
<!-- Generator: Adobe Illustrator 21.1.0, SVG Export Plug-In . SVG Version: 6.00 Build 0)  -->
<svg version="1.1" id="Layer_1" xmlns="http://www.w3.org/2000/svg" xmlns:xlink="http://www.w3.org/1999/xlink" x="0px" y="0px"
	 viewBox="0 0 24 24" style="enable-background:new 0 0 24 24;" xml:space="preserve">
<path d="M16.6,18.8c-0.3,0-0.6-0.3-0.6-0.6v-0.4c0-0.3,0.3-0.6,0.6-0.6h0.5v-0.5c0-0.3,0.3-0.6,0.6-0.6H18c0.3,0,0.6,0.3,0.6,0.6
	v0.5h0.5c0.1,0,0.6,0,0.6,0.6v0.4c0,0.3-0.3,0.6-0.6,0.6h-0.5v0.5c0,0.3-0.3,0.6-0.6,0.6h-0.4c-0.3,0-0.6-0.3-0.6-0.6v-0.5H16.6z
	 M24,18.1v0.4l-0.4,0c-0.9-0.1-1.7-0.1-2.3-0.1c-0.2,1.7-1.6,3-3.4,3c-1.1,0-2-0.5-2.6-1.3l-0.2,0H5.6v-0.4c0-0.5,0-0.9,0.1-1.4H0
	V18c0-4.4,2.1-7.8,5.2-8.5C3.8,9,2.8,7.7,2.8,6.1c0-1.9,1.6-3.6,3.6-3.6c1.6,0,3,1,3.4,2.5c0.6-0.5,1.4-0.8,2.2-0.8
	c0.8,0,1.5,0.3,2.1,0.7c0.5-1.5,1.9-2.5,3.4-2.5c1.9,0,3.6,1.6,3.6,3.6c0,1.6-1.2,3.1-2.7,3.5C21.7,10,24,13.4,24,18.1z M15.7,18
	c0,1.3,1,2.3,2.3,2.3c1.2,0,2.3-1,2.3-2.3c0-1.2-1-2.3-2.3-2.3C16.7,15.8,15.7,16.7,15.7,18z M14.5,18c0-1.3,0.7-2.4,1.8-3
	c-1-1.9-2.4-2.9-4.3-2.9c-3,0-5.1,2.8-5.3,6.8l1.4,0c3.4,0.1,3.4,0.1,6.6,0.1C14.6,18.8,14.5,18.4,14.5,18z M10.2,10.9
	c0.1,0.1,0.2,0.2,0.2,0.2l0.2,0.2c0.1,0,0.3-0.1,0.4-0.1C10.7,11.2,10.4,11.1,10.2,10.9z M8.4,7.6C8.5,7,8.7,6.4,9,5.9L8.9,5.5
	C8.7,4.3,7.6,3.5,6.4,3.5C5,3.5,3.8,4.7,3.8,6.1c0,1.4,1.2,2.5,2.5,2.5C7,8.6,7.6,8.4,8.1,8L8.4,7.6z M7.6,9.5
	c0.6,0.1,1.2,0.4,1.7,0.7C9,9.8,8.7,9.4,8.6,8.9C8.3,9.2,7.9,9.4,7.6,9.5z M10.1,6.1C9.6,6.6,9.4,7.2,9.5,7.8c0,1.4,1.1,2.6,2.5,2.6
	s2.5-1.1,2.5-2.5S13.4,5.3,12,5.3C11.3,5.3,10.6,5.6,10.1,6.1z M20.2,6c0-1.4-1.2-2.5-2.5-2.5c-1.3,0.1-2.3,0.9-2.6,2.1L15,5.9
	c0.3,0.5,0.5,1,0.6,1.6l0.3,0.3c0.4,0.4,1.1,0.7,1.8,0.7C19,8.5,20.2,7.4,20.2,6z M15.4,8.9c-0.4,1.1-1.3,2-2.4,2.3
	c0.2,0,0.3,0.1,0.5,0.1l0.1-0.1c0.8-0.9,2-1.5,3.2-1.7C16.3,9.5,15.8,9.2,15.4,8.9z M21.2,17.4H23c-0.2-4.2-2.3-6.8-5.3-6.8
	c-1.1,0-2.1,0.4-3.1,1.2c1.2,0.6,2.1,1.6,2.7,2.9l0,0c0.2,0,0.4-0.1,0.6-0.1C19.5,14.6,20.9,15.8,21.2,17.4z M5.8,17.4
	c0.5-2.7,1.9-4.7,3.7-5.6c-0.9-0.8-2-1.3-3.2-1.3c-2.9,0.1-5,2.9-5.3,6.9H5.8z"/>
</svg>
