<?xml version="1.0" encoding="utf-8"?>
<!-- Generator: Adobe Illustrator 21.1.0, SVG Export Plug-In . SVG Version: 6.00 Build 0)  -->
<svg version="1.1" id="Layer_1" xmlns="http://www.w3.org/2000/svg" xmlns:xlink="http://www.w3.org/1999/xlink" x="0px" y="0px"
	 viewBox="0 0 24 24" style="enable-background:new 0 0 24 24;" xml:space="preserve">
<path d="M18.7,9.2c1.4,0,2.5-1.1,2.5-2.5c0-1.4-1.1-2.5-2.5-2.5c-1.4,0-2.5,1.1-2.5,2.5C16.2,8.1,17.3,9.2,18.7,9.2z M18.7,4.7
	c1.1,0,2,0.9,2,2c0,1.1-0.9,2-2,2c-1.1,0-2-0.9-2-2C16.7,5.6,17.6,4.7,18.7,4.7z M22.3,11.5c-1-0.6-2.4-0.9-3.9-0.9
	c-2.3,0-4.3,0.8-5.1,2c-0.4,0-0.8-0.1-1.3-0.1s-0.9,0-1.3,0.1c-0.9-1.3-2.8-2-5.1-2c-1.5,0-2.9,0.3-3.9,0.9C0.7,12.1,0,13,0,14v2.8
	C0,16.9,0.1,17,0.3,17h5.6v2.5c0,0.1,0.1,0.3,0.3,0.3h11.7c0.1,0,0.3-0.1,0.3-0.3V17h5.6c0.1,0,0.3-0.1,0.3-0.3V14
	C24,13,23.3,12.1,22.3,11.5z M5.9,15.6v0.8H0.6V14c0-0.7,0.5-1.4,1.4-1.9c0.9-0.5,2.2-0.8,3.6-0.8c2,0,3.7,0.7,4.5,1.6
	c-0.9,0.2-1.7,0.4-2.4,0.8C6.6,14.2,5.9,14.5,5.9,15.6z M17.6,19.3H6.4v-3.6c0-0.8,0.6-1,1.6-1.6c1-0.6,2.4-0.9,4-0.9v0
	c1.6,0,3,0.3,4,0.9c1,0.6,1.6,0.8,1.6,1.6V19.3z M23.4,16.5h-5.3v-0.8c0-1.1-0.7-1.5-1.9-2.1c-0.7-0.4-1.5-0.6-2.4-0.8
	c0.8-0.9,2.5-1.6,4.5-1.6c1.4,0,2.7,0.3,3.6,0.8c0.9,0.5,1.4,1.2,1.4,1.9V16.5z M12,10.9c1.7,0,3.1-1.4,3.1-3.1S13.7,4.7,12,4.7
	S8.9,6.1,8.9,7.8S10.3,10.9,12,10.9z M12,5.3c1.4,0,2.5,1.1,2.5,2.5s-1.1,2.5-2.5,2.5S9.5,9.2,9.5,7.8S10.6,5.3,12,5.3z M5.3,9.2
	c1.4,0,2.5-1.1,2.5-2.5c0-1.4-1.1-2.5-2.5-2.5c-1.4,0-2.5,1.1-2.5,2.5C2.8,8.1,3.9,9.2,5.3,9.2z M5.3,4.7c1.1,0,2,0.9,2,2
	c0,1.1-0.9,2-2,2c-1.1,0-2-0.9-2-2C3.3,5.6,4.2,4.7,5.3,4.7z"/>
</svg>
