<?xml version="1.0" encoding="utf-8"?>
<!-- Generator: Adobe Illustrator 21.1.0, SVG Export Plug-In . SVG Version: 6.00 Build 0)  -->
<svg version="1.1" id="Layer_1" xmlns="http://www.w3.org/2000/svg" xmlns:xlink="http://www.w3.org/1999/xlink" x="0px" y="0px"
	 viewBox="0 0 24 24" style="enable-background:new 0 0 24 24;" xml:space="preserve">
<path d="M18.5,9.7c1.6,0,2.8-1.2,2.8-2.8c0-1.6-1.2-2.8-2.8-2.8c-1.6,0-2.8,1.2-2.8,2.8C15.7,8.4,16.9,9.7,18.5,9.7z M18.5,8.4
	c-0.9,0-1.6-0.7-1.6-1.6s0.7-1.6,1.6-1.6C19.3,5.3,20,6,20,6.9S19.3,8.4,18.5,8.4z M12,11.3c1.9,0,3.4-1.5,3.4-3.4
	c0-1.9-1.5-3.4-3.4-3.4c-1.9,0-3.4,1.5-3.4,3.4C8.6,9.8,10.2,11.3,12,11.3z M12,5.9c1.2,0,2.1,0.9,2.1,2.1S13.2,10,12,10
	C10.9,10,10,9.1,10,7.9S10.9,5.9,12,5.9z M5.5,9.7c1.6,0,2.8-1.2,2.8-2.8c0-1.6-1.2-2.8-2.8-2.8S2.8,5.3,2.8,6.9
	C2.8,8.4,4,9.7,5.5,9.7z M5.5,8.4C4.7,8.4,4,7.7,4,6.9s0.7-1.6,1.6-1.6S7.1,6,7.1,6.9S6.4,8.4,5.5,8.4z M24,13.9
	c-0.1-1-0.8-2-1.9-2.7l0,0c-1-0.6-2.4-0.9-4-0.9c-2.2,0-4.2,0.7-5.1,1.9c-0.1,0-0.2,0-0.3,0c-0.6-0.1-1.3-0.1-1.8,0
	c-1-1.2-2.8-1.9-5.1-1.9c-1.6,0-3,0.3-4,0.9C0.7,11.9,0,12.9,0,13.9v2.7c0,0.3,0.2,0.6,0.7,0.6h5v2.1c0,0.3,0.3,0.7,0.7,0.7h11.3
	c0.3,0,0.7-0.3,0.7-0.7v-2.1h5c0.3,0,0.7-0.3,0.7-0.7L24,13.9z M16.2,13.2c-0.5-0.3-1.1-0.5-1.7-0.7c0.9-0.6,2.2-1,3.6-1
	c1.3,0,2.5,0.3,3.3,0.7c0.7,0.4,1.2,1,1.2,1.5V16h-4.3v-0.4C18.3,14.2,17.3,13.8,16.2,13.2z M5.7,15.5v0.4H1.4v-2
	c0-0.5,0.4-1.1,1.2-1.5c0.8-0.5,2-0.7,3.3-0.7c1.4,0,2.7,0.4,3.6,1c-0.6,0.2-1.2,0.3-1.8,0.7C6.6,13.8,5.7,14.2,5.7,15.5z M17,15.6
	v3.1H7v-3.1c0-0.4,0.2-0.6,0.9-1c0.1-0.1,0.3-0.2,0.4-0.2c0.9-0.5,2.2-0.8,3.7-0.8c1.5,0,2.8,0.3,3.7,0.8c0.2,0.1,0.3,0.2,0.4,0.2
	C16.8,15,17,15.1,17,15.6z"/>
</svg>
