<?xml version="1.0" encoding="utf-8"?>
<!-- Generator: Adobe Illustrator 21.1.0, SVG Export Plug-In . SVG Version: 6.00 Build 0)  -->
<svg version="1.1" id="Layer_1" xmlns="http://www.w3.org/2000/svg" xmlns:xlink="http://www.w3.org/1999/xlink" x="0px" y="0px"
	 viewBox="0 0 24 24" style="enable-background:new 0 0 24 24;" xml:space="preserve">
<path d="M18.1,15.1c-1.7,0-3.1,1.4-3.1,3.1c0,1.7,1.4,3.1,3.1,3.1s3.1-1.4,3.1-3.1C21.2,16.5,19.8,15.1,18.1,15.1z M18.1,20.9
	c-1.5,0-2.7-1.2-2.7-2.7c0-1.5,1.2-2.7,2.7-2.7c1.5,0,2.7,1.2,2.7,2.7C20.8,19.7,19.6,20.9,18.1,20.9z M19.5,18v0.4
	c0,0.1-0.1,0.2-0.2,0.2h-0.9v0.9c0,0.1-0.1,0.2-0.2,0.2h-0.4c-0.1,0-0.2-0.1-0.2-0.2v-0.9h-0.9c-0.1,0-0.2-0.1-0.2-0.2V18
	c0-0.1,0.1-0.2,0.2-0.2h0.9v-0.9c0-0.1,0.1-0.2,0.2-0.2h0.4c0.1,0,0.2,0.1,0.2,0.2v0.9h0.9C19.5,17.8,19.5,17.9,19.5,18z M12,11
	c1.8,0,3.3-1.5,3.3-3.3c0-1.8-1.5-3.3-3.3-3.3c-1.8,0-3.3,1.5-3.3,3.3C8.6,9.5,10.1,11,12,11z M12,4.7c1.7,0,3,1.4,3,3
	c0,1.7-1.4,3-3,3c-1.7,0-3-1.4-3-3C8.9,6,10.3,4.7,12,4.7z M15,19.7c0.1,0.1,0.1,0.2,0.2,0.3c-4.2,0-3.6,0-9.4,0
	c0-4.7,2.4-8.5,6.2-8.5c2.3,0,4.1,1.3,5.1,3.4c-0.1,0-0.2,0.1-0.3,0.1c-1-2-2.6-3.2-4.8-3.2c-3.5,0-5.8,3.4-5.9,7.8
	C11.6,19.7,11,19.7,15,19.7z M14.8,5.3c-0.1-0.1-0.2-0.2-0.3-0.3c0.4-1.4,1.7-2.4,3.2-2.4c1.8,0,3.3,1.5,3.3,3.3
	c0,1.8-1.5,3.3-3.3,3.3c-0.8,0-1.5-0.3-2.1-0.8c0-0.1,0-0.2,0.1-0.4c0.5,0.5,1.3,0.8,2.1,0.8c1.7,0,3-1.4,3-3s-1.4-3-3-3
	C16.3,2.9,15.1,3.9,14.8,5.3z M21.5,18.2L21.5,18.2c0-0.1,0-0.2,0-0.3c0.6,0,1.4,0,2.2,0c-0.1-4.4-2.2-7.8-5.9-7.8
	c-1.4,0-2.6,0.6-3.6,1.5c-0.1,0-0.2-0.1-0.3-0.1c1-1.1,2.4-1.7,3.9-1.7c3.9,0,6.2,3.8,6.2,8.5C23,18.2,22.2,18.2,21.5,18.2z
	 M2.9,5.9c0-1.8,1.5-3.3,3.3-3.3c1.5,0,2.8,1,3.2,2.4C9.4,5,9.3,5.1,9.2,5.2C8.9,3.9,7.7,2.9,6.2,2.9c-1.7,0-3,1.4-3,3s1.4,3,3,3
	c0.8,0,1.5-0.3,2-0.8c0,0.1,0,0.2,0.1,0.4C7.7,9,7,9.3,6.2,9.3C4.4,9.3,2.9,7.8,2.9,5.9z M0.3,17.9c2.9,0,4.1,0,5.2,0
	c0,0.1,0,0.2,0,0.3c-1.1,0-2.4,0-5.5,0c0-4.7,2.4-8.5,6.2-8.5c1.6,0,2.9,0.6,3.9,1.7c-0.1,0-0.2,0.1-0.3,0.1
	c-0.9-0.9-2.2-1.5-3.6-1.5C2.7,10.1,0.5,13.5,0.3,17.9z"/>
</svg>
