<?xml version="1.0" encoding="utf-8"?>
<!-- Generator: Adobe Illustrator 21.1.0, SVG Export Plug-In . SVG Version: 6.00 Build 0)  -->
<svg version="1.1" id="Layer_1" xmlns="http://www.w3.org/2000/svg" xmlns:xlink="http://www.w3.org/1999/xlink" x="0px" y="0px"
	 viewBox="0 0 24 24" style="enable-background:new 0 0 24 24;" xml:space="preserve">
<path d="M21.1,10.8c-0.3-0.7-1.1-1.2-1.9-1.2c-0.3,0-0.6,0.1-0.9,0.2c-0.2-0.9-1.1-1.7-2-1.7c-0.3,0-0.7,0.1-1.1,0.3
	c-0.5-0.9-1.5-1.3-2.6-0.9c0,0,0,0-0.1,0V7.2C14.4,6.2,15,3.9,14,2c-1-1.8-3.4-2.5-5.3-1.5C7.8,1,7.1,1.8,6.8,2.8
	c-0.3,1-0.1,2.1,0.4,3C7.6,6.5,8,7,8.6,7.2l0,8.3l-0.8-1.4c-0.8-1.4-2.3-2.1-3.8-1.7c-0.6,0.1-1,0.4-1.1,0.8c-0.1,0.4-0.1,0.7,0,1.2
	L5.9,20c1.2,2.1,3.6,3.6,6.2,4c0.4,0,0.7-0.2,0.7-0.6c0-0.4-0.2-0.7-0.5-0.7h0C10,22.4,8,21.1,7,19.3l-3.1-5.5v-0.2
	c0,0,0.1-0.1,0.1-0.1C5,13.4,6,13.9,6.6,14.8l1,1.7c0.1,0.3,0.4,0.5,0.7,0.5c0.3,0.1,0.6,0,0.9-0.1c0.4-0.3,0.5-0.5,0.5-1V5.1
	c0-0.5,0.3-0.8,0.8-0.9c0.5,0,0.9,0.3,0.9,0.8v8.5c0,0.4,0.3,0.6,0.6,0.6c0.2,0,0.6-0.3,0.6-0.6v-4c0-0.5,0.4-0.8,0.8-0.8
	c0.4,0,0.8,0.4,0.8,0.8v4c0,0.4,0.3,0.6,0.6,0.6c0.2,0,0.6-0.3,0.6-0.6v-3.3c0-0.5,0.4-0.8,0.8-0.8c0.5,0,0.8,0.4,0.8,0.8v4
	c0,0.4,0.3,0.6,0.6,0.6c0.4,0,0.6-0.3,0.6-0.6v-2.6c0-0.5,0.4-0.8,0.8-0.8c0.4,0,0.8,0.4,0.8,0.8v5.9c0,2.1-0.1,4.3-0.9,5.5
	c-0.1,0.2-0.1,0.3-0.1,0.4c0,0.2,0.1,0.3,0.3,0.4c0.1,0.1,0.2,0.1,0.4,0.1c0,0,0.1,0,0.1,0c0.2,0,0.3-0.1,0.4-0.3
	c1.1-1.6,1.2-4,1.2-6.2v-5.6h0V10.8z M12,3.6L12,3.6C11.5,3.2,11,3,10.6,3c-0.1,0-0.2,0-0.3,0C9.3,3,8.5,4,8.5,5.1v0.6
	c-0.8-1-0.9-2.4-0.1-3.4c0.4-0.6,1-0.9,1.8-1c0.7-0.1,1.5,0.1,2,0.6c0.6,0.5,0.9,1.2,1,1.9c0.1,0.7-0.1,1.3-0.6,1.9V5.1
	C12.6,4.4,12.3,3.9,12,3.6z"/>
</svg>
