<?xml version="1.0" encoding="utf-8"?>
<!-- Generator: Adobe Illustrator 21.1.0, SVG Export Plug-In . SVG Version: 6.00 Build 0)  -->
<svg version="1.1" id="Layer_1" xmlns="http://www.w3.org/2000/svg" xmlns:xlink="http://www.w3.org/1999/xlink" x="0px" y="0px"
	 viewBox="0 0 66 66" style="enable-background:new 0 0 66 66;" xml:space="preserve">
<path d="M64.9,25c-0.8,0-3.1,0-4.2-0.4c-1.2-0.4-6-2.9-7.7-3.8c-0.1,0-10.3-6.1-13.6-8.7c-3.3-2.6-7-6.7-7.1-6.7
	C32,5,31.6,4.9,31.2,5c-0.2,0.1-5.4,2.2-5.1,6.4c0.2,2.6,2.9,5.8,4.9,7.8H7.5c-3,0-7.5,1.5-7.5,5.5c0,4.3,4.7,5.5,7.5,5.5H18
	c-0.4,1.3-0.8,3.1-0.2,5c0.7,2.1,2.8,2.8,4.2,3.1c-0.5,1.3-0.9,3.2-0.3,5.1c0.8,2.6,3.7,3.1,5,3.2c-0.5,1.3-0.8,3.1-0.2,5
	c1,3.1,5.2,3.2,5.6,3.2c0,0,0,0,0,0h17.7c0.1,0,0.1,0,0.2,0c0.2,0,4.1-0.6,6.2-2.2c1.8-1.4,3.5-2,5.3-1.9c2.2,0.2,3.7,0,3.8,0
	c0.5-0.1,0.9-0.5,0.9-1V26c0-0.3-0.1-0.5-0.3-0.7C65.5,25.1,65.2,25,64.9,25z M63.9,48.7c-0.6,0-1.4,0-2.4-0.1
	c-2.3-0.2-4.5,0.6-6.7,2.3c-1.4,1-4.1,1.7-5.2,1.8H32c0,0-3.1,0-3.6-1.8c-0.5-1.8,0.1-3.6,0.5-4.4h7.6c0.6,0,1-0.5,1-1s-0.5-1-1-1
	h-9.2c0,0-3.1,0-3.6-1.8c-0.5-1.8,0.1-3.6,0.5-4.4h10.8c0.6,0,1-0.5,1-1s-0.5-1-1-1H23.3c0,0-3.1,0-3.6-1.8
	c-0.5-1.8,0.1-3.6,0.5-4.4h13.7c0.6,0,1-0.5,1-1c0-0.6-0.5-1-1-1H7.5c-0.6,0-5.4-0.1-5.4-3.4c0-2.8,4-3.4,5.4-3.4h29.6
	c0.6,0,1-0.5,1-1c0-0.6-0.5-1-1-1h-3.1c-1.8-1.6-5.6-5.6-5.8-7.9c-0.2-2,2-3.4,3.2-4c1.2,1.2,4.1,4.3,6.8,6.4
	c3.4,2.7,13.4,8.7,13.8,8.9c0.7,0.4,6.5,3.5,8.1,4c1.1,0.4,2.8,0.5,3.9,0.5L63.9,48.7L63.9,48.7z"/>
</svg>
