<?xml version="1.0" encoding="utf-8"?>
<!-- Generator: Adobe Illustrator 21.1.0, SVG Export Plug-In . SVG Version: 6.00 Build 0)  -->
<svg version="1.1" id="Layer_1" xmlns="http://www.w3.org/2000/svg" xmlns:xlink="http://www.w3.org/1999/xlink" x="0px" y="0px"
	 viewBox="0 0 24 24" style="enable-background:new 0 0 24 24;" xml:space="preserve">
<path d="M12,0C5.4,0,0,5.4,0,12s5.4,12,12,12s12-5.4,12-12S18.6,0,12,0z M12,22.5C6.2,22.5,1.5,17.8,1.5,12S6.2,1.5,12,1.5
	c5.8,0,10.5,4.7,10.5,10.5C22.5,17.8,17.8,22.5,12,22.5z M15.6,8.6c0.2,1.5-0.6,2.9-1.8,3.6c-0.7,0.4-1.1,1.1-1.1,1.9l0.1,1.1h-1.5
	v-1c0-1.3,0.7-2.6,1.8-3.2c0.8-0.4,1.2-1.3,1.1-2.2c-0.1-1-0.9-1.8-1.9-1.9C11.5,6.8,11,7,10.5,7.4C10,7.8,9.8,8.4,9.8,9v0.2H8.3V9
	C8.3,8,8.7,7,9.5,6.3c0.8-0.7,1.9-1,2.9-0.9C14.1,5.6,15.4,7,15.6,8.6z M13.2,17.4c0,0.7-0.5,1.2-1.2,1.2s-1.2-0.5-1.2-1.2
	c0-0.7,0.5-1.2,1.2-1.2S13.2,16.7,13.2,17.4z"/>
</svg>
