<?xml version="1.0" encoding="utf-8"?>
<!-- Generator: Adobe Illustrator 21.1.0, SVG Export Plug-In . SVG Version: 6.00 Build 0)  -->
<svg version="1.1" id="Layer_1" xmlns="http://www.w3.org/2000/svg" xmlns:xlink="http://www.w3.org/1999/xlink" x="0px" y="0px"
	 viewBox="0 0 24 24" style="enable-background:new 0 0 24 24;" xml:space="preserve">
<path d="M12.8,18.3c0,0.6-0.5,1.1-1.1,1.1s-1.1-0.5-1.1-1.1s0.5-1.1,1.1-1.1S12.8,17.7,12.8,18.3z M16.2,7.9
	c-0.4-1.8-1.8-3.2-3.6-3.6c-1.4-0.3-2.8,0.1-3.9,1c-1,0.9-1.6,2.1-1.6,3.4c0,0.8,1.2,0.8,1.2,0c0-1,0.4-1.9,1.2-2.5
	c0.8-0.6,1.9-0.9,2.9-0.7c1.3,0.2,2.3,1.3,2.6,2.6c0.4,1.8-0.7,3.5-2.4,3.9c-0.9,0.2-1.5,1-1.5,2v0.7c0,0.4,0.3,0.6,0.6,0.6
	c0.3,0,0.6-0.2,0.6-0.6v-0.7c0-0.4,0.3-0.8,0.6-0.8C15.2,12.6,16.7,10.3,16.2,7.9L16.2,7.9z M24,12c0,6.6-5.4,12-12,12S0,18.6,0,12
	C0,5.4,5.4,0,12,0S24,5.4,24,12z M22.6,12c0-5.9-4.8-10.6-10.6-10.6S1.4,6.1,1.4,12c0,5.9,4.8,10.6,10.6,10.6S22.6,17.9,22.6,12z"/>
</svg>
