<?xml version="1.0" encoding="utf-8"?>
<!-- Generator: Adobe Illustrator 21.1.0, SVG Export Plug-In . SVG Version: 6.00 Build 0)  -->
<svg version="1.1" id="Layer_1" xmlns="http://www.w3.org/2000/svg" xmlns:xlink="http://www.w3.org/1999/xlink" x="0px" y="0px"
	 viewBox="0 0 24 24" style="enable-background:new 0 0 24 24;" xml:space="preserve">
<path d="M13.2,22.4c0,0.9-0.7,1.6-1.6,1.6S10,23.3,10,22.4s0.7-1.6,1.6-1.6S13.2,21.5,13.2,22.4z M18.7,5.7c-0.6-2.8-2.8-5-5.6-5.6
	c-4.5-0.8-8.7,2.5-8.7,7c0,1.1,1.6,1.1,1.6,0C6,3.3,9.6,1,12.8,1.7C15,2.1,16.7,3.9,17.1,6c0.6,3-1.2,5.8-4,6.6
	c-1.4,0.3-2.3,1.6-2.3,3v1.1c0,1.1,1.6,1.1,1.6,0v-1.1c0-0.7,0.5-1.4,1.1-1.5C17.2,13.1,19.4,9.5,18.7,5.7z"/>
</svg>
