<?xml version="1.0" encoding="utf-8"?>
<!-- Generator: Adobe Illustrator 21.1.0, SVG Export Plug-In . SVG Version: 6.00 Build 0)  -->
<svg version="1.1" id="Layer_1" xmlns="http://www.w3.org/2000/svg" xmlns:xlink="http://www.w3.org/1999/xlink" x="0px" y="0px"
	 viewBox="0 0 24 24" style="enable-background:new 0 0 24 24;" xml:space="preserve">
<path transform="translate(0,-952.36218)" d="M12,954.6c-0.1,0-0.1,0-0.2,0l-11.7,9.2c-0.1,0.1-0.2,0.3-0.1,0.4
	c0.1,0.1,0.3,0.1,0.4,0l11.5-9.1l11.5,9.1c0.1,0.1,0.3,0.1,0.4,0c0.1-0.1,0.1-0.4,0-0.4l-11.7-9.2C12.1,954.6,12,954.6,12,954.6z
	 M4,962.3l-0.6,0.5v10.6c0,0.2,0.1,0.3,0.3,0.3h5.8c0.2,0,0.3-0.1,0.3-0.3v-5.8h4.3v5.8c0,0.2,0.1,0.3,0.3,0.3h5.8
	c0.2,0,0.3-0.1,0.3-0.3v-10.6l-0.6-0.5V973h-5.2v-5.8c0-0.2-0.1-0.3-0.3-0.3H9.5c-0.2,0-0.3,0.1-0.3,0.3v5.8H4V962.3z"/>
</svg>
