<?xml version="1.0" encoding="utf-8"?>
<!-- Generator: Adobe Illustrator 21.1.0, SVG Export Plug-In . SVG Version: 6.00 Build 0)  -->
<svg version="1.1" id="Layer_1" xmlns="http://www.w3.org/2000/svg" xmlns:xlink="http://www.w3.org/1999/xlink" x="0px" y="0px"
	 viewBox="0 0 24 24" style="enable-background:new 0 0 24 24;" xml:space="preserve">
<path d="M23.9,11.3L23.8,11h-0.2L12.3,2.1h-0.6l-11.4,9C0.1,11.2,0,11.5,0,11.7c0,0.2,0.1,0.3,0.2,0.4c0.3,0.3,0.8,0.2,1,0l2.1-1.7
	v10.2c0,0.5,0.3,0.8,0.8,0.8h5.6c0.5,0,0.8-0.3,0.8-0.8v-5.1h3.2v5.1c0,0.5,0.3,0.8,0.8,0.8H20c0.5,0,0.8-0.3,0.8-0.8V10.6l2,1.6
	c0.3,0.3,0.8,0.3,1.1,0C24,11.9,24,11.6,23.9,11.3z M19.2,19.8h-4v-5.1c0-0.5-0.3-0.8-0.8-0.8H9.7c-0.5,0-0.8,0.3-0.8,0.8v5.1h-4
	V9.3L12,3.7l7.2,5.7V19.8z"/>
</svg>
