<?xml version="1.0" encoding="utf-8"?>
<!-- Generator: Adobe Illustrator 21.1.0, SVG Export Plug-In . SVG Version: 6.00 Build 0)  -->
<svg version="1.1" id="Layer_1" xmlns="http://www.w3.org/2000/svg" xmlns:xlink="http://www.w3.org/1999/xlink" x="0px" y="0px"
	 viewBox="0 0 24 24" style="enable-background:new 0 0 24 24;" xml:space="preserve">
<path d="M1.1,8.5v3.2h3.7V8.5h1v7.7h-1v-3.6H1.1v3.6h-1V8.5H1.1z M9,9.3H6.6V8.5h5.7v0.8H10v6.8H9V9.3z M15.1,9.3h-2.3V8.5h5.7v0.8
	h-2.3v6.8h-1V9.3z M19.3,8.6c0.5-0.1,1.1-0.1,1.9-0.1c1,0,1.7,0.2,2.2,0.6C23.7,9.4,24,10,24,10.7c0,0.7-0.2,1.2-0.6,1.6
	c-0.5,0.6-1.4,0.8-2.3,0.8c-0.3,0-0.6,0-0.8-0.1v3.1h-1V8.6z M20.2,12.3c0.2,0.1,0.5,0.1,0.8,0.1c1.2,0,1.9-0.6,1.9-1.6
	c0-1-0.7-1.5-1.8-1.5c-0.4,0-0.8,0-0.9,0.1V12.3z"/>
</svg>
