<?xml version="1.0" encoding="utf-8"?>
<!-- Generator: Adobe Illustrator 21.1.0, SVG Export Plug-In . SVG Version: 6.00 Build 0)  -->
<svg version="1.1" id="Layer_1" xmlns="http://www.w3.org/2000/svg" xmlns:xlink="http://www.w3.org/1999/xlink" x="0px" y="0px"
	 viewBox="0 0 24 24" style="enable-background:new 0 0 24 24;" xml:space="preserve">
<path d="M18.4,9.3h-0.6V5.9C17.9,2.6,15.2,0,12,0C8.8,0,6.1,2.6,6.1,5.9v3.6H5.6c-1,0-1.8,0.8-1.8,1.8v10.9c0,1,0.8,1.8,1.8,1.8
	h12.9c1,0,1.8-0.8,1.8-1.8V11.2C20.3,10.2,19.4,9.3,18.4,9.3z M7.6,5.9c0-2.4,2-4.4,4.4-4.4c2.5,0,4.4,1.9,4.4,4.4v3.6H7.6V5.9z
	 M18.9,21.6L18.9,21.6l0,0.2c0,0.1,0,0.2-0.1,0.2v0c0,0.2-0.2,0.4-0.4,0.4H5.7c-0.2,0-0.4-0.2-0.4-0.4V11.2c0-0.2,0.2-0.4,0.4-0.4
	h12.9c0.2,0,0.4,0.2,0.4,0.4V21.6z"/>
</svg>
