<?xml version="1.0" encoding="utf-8"?>
<!-- Generator: Adobe Illustrator 21.1.0, SVG Export Plug-In . SVG Version: 6.00 Build 0)  -->
<svg version="1.1" id="Layer_1" xmlns="http://www.w3.org/2000/svg" xmlns:xlink="http://www.w3.org/1999/xlink" x="0px" y="0px"
	 viewBox="0 0 24 24" style="enable-background:new 0 0 24 24;" xml:space="preserve">
<path d="M6.5,8.4h5.9v1h-2.3v6.8H8.9V9.4H6.5V8.4z M4.7,11.6H1.3V8.4H0.1v7.9h1.2v-3.6h3.4v3.6H6V8.4H4.7V11.6z M12.7,9.4h2.4v6.8
	h1.2V9.4h2.3v-1h-5.9V9.4z M24.1,10.7c0,0.7-0.2,1.2-0.6,1.7c-0.6,0.7-1.6,0.8-2.4,0.8c-0.2,0-0.5,0-0.7,0v3h-1.2V8.5l0.1,0
	c0.5-0.1,1.1-0.1,1.9-0.1c1,0,1.7,0.2,2.3,0.6C23.7,9.3,24.1,9.9,24.1,10.7z M21,9.4c-0.2,0-0.6,0-0.8,0v2.7
	c0.2,0.1,0.4,0.1,0.7,0.1c1.1,0,1.8-0.5,1.8-1.5C22.7,9.6,21.7,9.4,21,9.4z"/>
</svg>
