<?xml version="1.0" encoding="utf-8"?>
<!-- Generator: Adobe Illustrator 21.1.0, SVG Export Plug-In . SVG Version: 6.00 Build 0)  -->
<svg version="1.1" id="Layer_1" xmlns="http://www.w3.org/2000/svg" xmlns:xlink="http://www.w3.org/1999/xlink" x="0px" y="0px"
	 viewBox="0 0 24 24" style="enable-background:new 0 0 24 24;" xml:space="preserve">
<path d="M18.7,9.7h-1.1V5.6C17.6,2.5,15.1,0,12,0S6.4,2.5,6.4,5.6v4.2H5.3c-0.8,0-1.4,0.6-1.4,1.4v11.4c0,0.8,0.6,1.4,1.4,1.4h13.4
	c0.8,0,1.4-0.6,1.4-1.4V11.2C20.1,10.4,19.5,9.7,18.7,9.7z M6.9,5.6c0-2.8,2.3-5.1,5.1-5.1s5.1,2.2,5.1,5.1v4.2H6.9V5.6z M19.6,22.5
	c0,0.5-0.4,0.9-0.9,0.9H5.4c-0.5,0-0.9-0.4-0.9-0.9V11.2c0-0.5,0.4-0.9,0.9-0.9h13.4c0.5,0,0.9,0.4,0.9,0.9V22.5z"/>
</svg>
