<?xml version="1.0" encoding="utf-8"?>
<!-- Generator: Adobe Illustrator 21.1.0, SVG Export Plug-In . SVG Version: 6.00 Build 0)  -->
<svg version="1.1" id="Layer_1" xmlns="http://www.w3.org/2000/svg" xmlns:xlink="http://www.w3.org/1999/xlink" x="0px" y="0px"
	 viewBox="0 0 24 24" style="enable-background:new 0 0 24 24;" xml:space="preserve">
<path d="M23.5,7l-0.2-0.2c-0.7-0.7-1.8-0.7-2.6,0L18.6,9c-0.1-0.1-0.2-0.1-0.3-0.1V5.7c0-0.9-0.6-1.5-1.5-1.5H1.5
	C0.6,4.2,0,4.8,0,5.7v13.4c0,0.9,0.6,1.5,1.5,1.5h15.2c0.9,0,1.5-0.6,1.5-1.5v-4.5l1.4-1.4l0,0c0.2,0.2,0.4,0.2,0.5,0.2
	c0.1,0,0.3,0,0.5-0.2l0.6-0.6c0.2-0.2,0.2-0.7,0.1-0.9l2.2-2.2C24.2,8.7,24.1,7.7,23.5,7z M15.9,15.3l-2.9,2.9c-0.3,0-0.7,0-1.2,0.3
	C12,18,12,17.6,12,17.3l5.8-5.8l0.9,0.9L15.9,15.3L15.9,15.3L15.9,15.3z M16.8,19.4h-3.4l3.3-3.3l0.4,0.4v2.6
	C17.1,19.3,16.9,19.4,16.8,19.4z M17.1,9.4L17.1,9.4c-0.2,0.2-0.3,0.5-0.3,0.6c0,0.1,0,0.3,0.2,0.5l0,0l-2.1,2.2l-0.5-0.5
	c-0.2-0.2-0.4-0.2-0.6-0.1l-0.3,0.2v0.1l-2.7,2.9l-4.5-4.6H5.9c-0.2,0-0.3,0.1-0.4,0.3l-4.3,3.8V5.7c0-0.2,0.1-0.3,0.3-0.3h15.2
	c0.2,0,0.3,0.1,0.3,0.3V9.4z M1.2,16.3L5.9,12l4.4,4.4c0.2,0.2,0.4,0.2,0.6,0.1l0.3-0.2v-0.1l2.7-2.8l0.2,0.2L11,16.8
	c-0.2,0.2-0.2,0.4-0.1,0.6l0.1,0.1c0,0.2,0,0.5-0.4,1c-0.1,0.1-0.3,0.3-0.3,0.6c0,0.1,0,0.2,0,0.3H1.5c-0.2,0-0.3-0.1-0.3-0.3V16.3z
	 M22.4,7.6l0.2,0.2c0.1,0.1,0.2,0.3,0.2,0.5c0,0.2-0.1,0.3-0.2,0.5l-2.2,2.2l-1.2-1.1l2.2-2.2C21.7,7.4,22.2,7.4,22.4,7.6z
	 M10.5,6.1c-1.3,0-2.4,1.1-2.4,2.4s1.1,2.4,2.4,2.4s2.4-1.1,2.4-2.4C12.9,7.2,11.8,6.1,10.5,6.1z M9.3,8.4c0-0.7,0.5-1.2,1.3-1.2
	c0.6,0,1.3,0.5,1.3,1.3C11.8,10.2,9.3,10,9.3,8.4z"/>
</svg>
