<?xml version="1.0" encoding="utf-8"?>
<!-- Generator: Adobe Illustrator 21.1.0, SVG Export Plug-In . SVG Version: 6.00 Build 0)  -->
<svg version="1.1" id="Layer_1" xmlns="http://www.w3.org/2000/svg" xmlns:xlink="http://www.w3.org/1999/xlink" x="0px" y="0px"
	 viewBox="0 0 24 24" style="enable-background:new 0 0 24 24;" xml:space="preserve">
<path d="M10.5,10.5c1.2,0,2.1-1,2.1-2.1s-1-2.1-2.1-2.1c-1.2,0-2.1,1-2.1,2.1S9.3,10.5,10.5,10.5z M10.5,6.7c0.9,0,1.7,0.7,1.7,1.7
	S11.4,10,10.5,10c-0.9,0-1.7-0.7-1.7-1.7C8.8,7.4,9.5,6.7,10.5,6.7z M23.6,7.1l-0.2-0.2c-0.6-0.6-1.5-0.6-2.1,0l-2.5,2.5l-0.2-0.2
	c-0.1-0.1-0.2-0.1-0.3-0.1c-0.1,0-0.1,0-0.2,0V5.5c0-0.7-0.5-1.2-1.2-1.2H1.2C0.5,4.3,0,4.8,0,5.5v13.8c0,0.7,0.5,1.2,1.2,1.2h15.7
	c0.7,0,1.2-0.5,1.2-1.2v-4.8l1.8-1.8l0.3,0.3c0.1,0.1,0.2,0.1,0.3,0.1s0.2,0,0.3-0.1l0.6-0.6c0.1-0.1,0.1-0.4,0-0.5l-0.2-0.2
	l2.5-2.5C24.1,8.6,24.1,7.7,23.6,7.1z M0.5,5.5c0-0.4,0.3-0.7,0.7-0.7v0h15.7c0.4,0,0.7,0.3,0.7,0.7v4l-0.2,0.2
	c-0.1,0.1-0.1,0.4,0,0.5l0.3,0.3L15,13.3l-0.8-0.8c-0.1-0.1-0.3-0.1-0.3,0l-3.2,3.4L5.9,11C5.8,11,5.7,11,5.7,11c0,0-0.1,0-0.1,0.1
	l-5.1,4.6V5.5z M17.6,19.3c0,0.4-0.3,0.7-0.7,0.7H1.2c-0.4,0-0.7-0.3-0.7-0.7v-3l5.2-4.8l4.8,4.8c0.1,0.1,0.3,0.1,0.3,0L14,13
	l0.7,0.7l-3.5,3.5c-0.1,0.1-0.1,0.2,0,0.2c0,0,0.2,0.6-0.5,1.5c-0.1,0.1-0.2,0.2-0.2,0.4c0,0.1,0,0.2,0.1,0.3l0.3,0.3
	C10.9,20,11,20,11.1,20c0,0,0,0,0,0c0.2,0,0.4-0.2,0.4-0.2c0.9-0.8,1.5-0.5,1.5-0.5c0.1,0,0.2,0,0.2,0l3.7-3.7
	c0,0.1-0.1,0.1-0.1,0.1c0,0,0,0,0,0c0,0,0,0,0,0l0.8,0.8V19.3z M17.6,15v0.9l-0.5-0.5c0,0,0,0-0.1,0l0.8-0.8
	C17.8,14.8,17.7,14.9,17.6,15z M13.1,18.8c-0.3-0.1-0.9-0.1-1.8,0.6c0,0,0,0,0,0c0,0-0.1,0.1-0.1,0.1c0,0,0,0,0,0l-0.3-0.3l0,0
	c0,0,0-0.1,0.1-0.1c0,0,0,0,0,0c0.7-0.9,0.7-1.5,0.6-1.8l6.4-6.4l1.5,1.5L13.1,18.8z M20.4,12.7L17.7,10l0.5-0.5l2.7,2.7L20.4,12.7z
	 M23.3,8.9l-2.5,2.5L19,9.7l2.5-2.5c0.4-0.4,1.1-0.4,1.5,0l0.2,0.2C23.7,7.8,23.7,8.5,23.3,8.9z"/>
</svg>
