<?xml version="1.0" encoding="utf-8"?>
<!-- Generator: Adobe Illustrator 21.1.0, SVG Export Plug-In . SVG Version: 6.00 Build 0)  -->
<svg version="1.1" id="Layer_1" xmlns="http://www.w3.org/2000/svg" xmlns:xlink="http://www.w3.org/1999/xlink" x="0px" y="0px"
	 viewBox="0 0 24 24" style="enable-background:new 0 0 24 24;" xml:space="preserve">
<path transform="translate(0,-952.36218)" d="M6,974.3H0.3c-0.1,0-0.3-0.1-0.3-0.3v-18.9c0-0.1,0.1-0.3,0.3-0.3H6
	c0.1,0,0.3,0.1,0.3,0.3v3.1c0,0.2-0.1,0.3-0.3,0.3c-0.2,0-0.3-0.1-0.3-0.3v-2.9H0.6v18.3h5.1v-2.9c0-0.2,0.1-0.3,0.3-0.3
	c0.2,0,0.3,0.1,0.3,0.3v3.1C6.3,974.2,6.1,974.3,6,974.3z M3.5,964.8l4.6,4.9c0.1,0.1,0.3,0.1,0.4,0c0.1-0.1,0.1-0.3,0-0.4l-4.1-4.4
	h19.3c0.2,0,0.3-0.1,0.3-0.3c0-0.2-0.1-0.3-0.3-0.3H4.4l4.1-4.4c0.1-0.1,0.1-0.3,0-0.4c-0.1-0.1-0.3-0.1-0.4,0l-4.6,4.9
	C3.4,964.5,3.4,964.7,3.5,964.8L3.5,964.8z"/>
</svg>
