<?xml version="1.0" encoding="utf-8"?>
<!-- Generator: Adobe Illustrator 21.1.0, SVG Export Plug-In . SVG Version: 6.00 Build 0)  -->
<svg version="1.1" id="Layer_1" xmlns="http://www.w3.org/2000/svg" xmlns:xlink="http://www.w3.org/1999/xlink" x="0px" y="0px"
	 viewBox="0 0 24 24" style="enable-background:new 0 0 24 24;" xml:space="preserve">
<path d="M6.8,18.2v3c0,0.6-0.4,0.8-0.7,0.8H0.7C0.3,22,0,21.7,0,21.4V3c0-0.3,0.3-0.7,0.7-0.7h5.5c0.3,0,0.7,0.3,0.7,0.7v3
	c0,0.4-0.3,0.7-0.7,0.7C5.8,6.7,5.5,6.4,5.5,6V3.6H1.3v17h4.2v-2.4c0-0.4,0.3-0.7,0.7-0.7C6.6,17.5,6.8,17.8,6.8,18.2z M23.3,11.6
	H5.5l3.4-3.6C9,7.8,9,7.7,9,7.5C9,7.3,9,7.1,8.9,7C8.6,6.8,8.2,6.8,8,7l-4.5,4.7c-0.1,0.1-0.2,0.3-0.2,0.5c0,0.2,0.1,0.3,0.2,0.4
	L8,17.4c0.1,0.1,0.3,0.2,0.5,0.2c0.2,0,0.3-0.1,0.5-0.2C9,17.3,9,17.2,9,17c0-0.2-0.1-0.3-0.2-0.4l-3.4-3.7h17.9
	c0.4,0,0.7-0.3,0.7-0.7S23.7,11.6,23.3,11.6z"/>
</svg>
