<?xml version="1.0" encoding="utf-8"?>
<!-- Generator: Adobe Illustrator 21.1.0, SVG Export Plug-In . SVG Version: 6.00 Build 0)  -->
<svg version="1.1" id="Layer_1" xmlns="http://www.w3.org/2000/svg" xmlns:xlink="http://www.w3.org/1999/xlink" x="0px" y="0px"
	 viewBox="0 0 24 24" style="enable-background:new 0 0 24 24;" xml:space="preserve">
<path d="M23.7,0.3v2.1H0.3V0.3H23.7 M23.7,5.7v2.1H11.1V5.7H23.7 M23.7,10.8v2.1H11.1v-2.1H23.7 M23.7,16.2v2.1H11.1v-2.1H23.7
	 M23.7,21.6v2.1H0.3v-2.1H23.7 M24,0H0v2.7h24V0L24,0z M24,5.4H10.8v2.7H24V5.4L24,5.4z M24,10.5H10.8v2.7H24V10.5L24,10.5z
	 M24,15.9H10.8v2.7H24V15.9L24,15.9z M24,21.3H0V24h24V21.3L24,21.3z M0.3,7.3L5,12l-4.7,4.7V7.3 M0,6.6v10.8L5.4,12L0,6.6L0,6.6z"
	/>
</svg>
