<?xml version="1.0" encoding="utf-8"?>
<!-- Generator: Adobe Illustrator 21.1.0, SVG Export Plug-In . SVG Version: 6.00 Build 0)  -->
<svg version="1.1" id="Layer_1" xmlns="http://www.w3.org/2000/svg" xmlns:xlink="http://www.w3.org/1999/xlink" x="0px" y="0px"
	 viewBox="0 0 24 24" style="enable-background:new 0 0 24 24;" xml:space="preserve">
<path d="M0,0v3.6h24V0H0z M1.2,2.3V1.2h21.5v1.1H1.2z M0,5.7v12.7L6.3,12L0,5.7z M4.6,12l-3.4,3.4V8.6L4.6,12z M0,24h24v-3.6H0V24z
	 M22.8,21.7v1.1H1.2v-1.1H22.8z M10.4,8.7H24V5.2H10.4V8.7z M22.8,6.4v1.1H11.6V6.4H22.8z M10.4,13.6H24v-3.6H10.4V13.6z M22.8,11.3
	v1.1H11.6v-1.1H22.8z M10.4,18.8H24v-3.6H10.4V18.8z M22.8,16.5v1.1H11.6v-1.1H22.8z"/>
</svg>
