<?xml version="1.0" encoding="utf-8"?>
<!-- Generator: Adobe Illustrator 21.1.0, SVG Export Plug-In . SVG Version: 6.00 Build 0)  -->
<svg version="1.1" id="Layer_1" xmlns="http://www.w3.org/2000/svg" xmlns:xlink="http://www.w3.org/1999/xlink" x="0px" y="0px"
	 viewBox="0 0 24 24" style="enable-background:new 0 0 24 24;" xml:space="preserve">
<path d="M11.2,7.7h1.6v12.2h-1.6V7.7z M11.2,6.1h1.6v-2h-1.6V6.1z M24,12c0,6.6-5.4,12-12,12S0,18.6,0,12S5.4,0,12,0S24,5.4,24,12z
	 M22.8,12c0-3.7-1.9-7-4.8-8.9c-1.7-1.2-3.8-1.8-6-1.8C6.1,1.2,1.2,6.1,1.2,12S6.1,22.8,12,22.8c0.4,0,0.7,0,1.1-0.1
	C18.5,22.2,22.8,17.6,22.8,12z"/>
</svg>
