<?xml version="1.0" encoding="utf-8"?>
<!-- Generator: Adobe Illustrator 21.1.0, SVG Export Plug-In . SVG Version: 6.00 Build 0)  -->
<svg version="1.1" id="Layer_1" xmlns="http://www.w3.org/2000/svg" xmlns:xlink="http://www.w3.org/1999/xlink" x="0px" y="0px"
	 viewBox="0 0 24 24" style="enable-background:new 0 0 24 24;" xml:space="preserve">
<path d="M11.2,8.9h1.6v8.9h-1.6V8.9z M24,12c0,6.6-5.4,12-12,12S0,18.6,0,12S5.4,0,12,0S24,5.4,24,12z M22.4,12
	c0-5.8-4.7-10.4-10.4-10.4C6.2,1.6,1.6,6.2,1.6,12c0,5.8,4.7,10.4,10.4,10.4C17.8,22.4,22.4,17.8,22.4,12z M11.2,8.3h1.6V6.5h-1.6
	V8.3z"/>
</svg>
