<?xml version="1.0" encoding="utf-8"?>
<!-- Generator: Adobe Illustrator 21.1.0, SVG Export Plug-In . SVG Version: 6.00 Build 0)  -->
<svg version="1.1" id="Layer_1" xmlns="http://www.w3.org/2000/svg" xmlns:xlink="http://www.w3.org/1999/xlink" x="0px" y="0px"
	 viewBox="0 0 14 14" style="enable-background:new 0 0 14 14;" xml:space="preserve">
<path d="M7,0C3.1,0,0,3.1,0,7s3.1,7,7,7s7-3.1,7-7S10.9,0,7,0z M4.6,4.3c0.6,0.1,1.3,0.2,1.9,0.2v0.1C6.2,4.8,6,5.2,6,5.5
	c0,0.4,0.2,0.7,0.5,0.8v0.3H4.4C4.5,5.8,4.5,5,4.6,4.3z M4.9,3.5c0.4-1.3,1-2.2,1.7-2.5v2.7C6,3.6,5.4,3.6,4.9,3.5z M5,1.1
	C4.6,1.7,4.3,2.4,4,3.2C3.5,3.2,3,3,2.5,2.8C3.2,2,4.1,1.5,5,1.1z M6.6,7.4v2.2c-0.6,0-1.3,0.1-1.9,0.2C4.5,9,4.5,8.3,4.4,7.4H6.6z
	 M2.5,6.8c0.1,0,0.2,0.1,0.2,0.2c0,0.2-0.3,0.2-0.3,0C2.4,6.9,2.5,6.8,2.5,6.8z M3.6,6.6L3.6,6.6C3.3,6.2,2.9,6,2.5,6
	s-0.8,0.3-1,0.6H0.9C1,5.4,1.3,4.4,2,3.4c0.5,0.3,1.1,0.5,1.8,0.7C3.7,4.9,3.6,5.7,3.6,6.6z M1.6,7.4C1.8,7.8,2.1,8,2.5,8
	s0.8-0.3,1-0.6h0.1c0,0.9,0.1,1.7,0.3,2.5c-0.7,0.2-1.3,0.4-1.8,0.6c-0.6-1-1.1-2-1.1-3.1C0.9,7.4,1.6,7.4,1.6,7.4z M6.6,10.4V13
	c-0.6-0.3-1.3-1.1-1.7-2.4C5.5,10.5,6,10.5,6.6,10.4z M4.1,10.8c0.3,0.8,0.6,1.5,1,2c-1-0.3-1.8-0.8-2.5-1.6
	C3,11.1,3.5,10.9,4.1,10.8z M7,5.4C7.1,5.4,7.1,5.5,7,5.4C7.1,5.5,6.9,5.5,7,5.4C6.9,5.5,6.9,5.4,7,5.4z M13.1,6.6h-2.7
	c0-0.8-0.1-1.7-0.3-2.4c0.7-0.2,1.3-0.4,1.9-0.6C12.7,4.5,13,5.5,13.1,6.6z M7.4,6.6V6.3C7.8,6.2,8,5.9,8,5.5c0-0.4-0.2-0.7-0.5-0.8
	V4.5c0.6,0,1.3-0.1,1.9-0.2C9.5,5,9.6,5.8,9.6,6.6C9.6,6.6,7.4,6.6,7.4,6.6z M8.1,10.1c0,0.1-0.1,0.1-0.1,0S8,10,8.1,10.1
	C8,10,8.1,10,8.1,10.1z M8.9,9.7C8.8,9.4,8.5,9.1,8,9.1c-0.2,0-0.4,0.1-0.6,0.2V7.4h2.2c0,0.8-0.1,1.7-0.3,2.4
	C9.2,9.8,9,9.7,8.9,9.7z M7.4,10.8c0.4,0.3,1,0.3,1.3-0.2c0.1,0,0.2,0,0.3,0.1c-0.4,1.3-1,2.2-1.7,2.4L7.4,10.8z M13.1,7.4
	C13,8.6,12.6,9.7,12,10.6c-0.5-0.3-1.1-0.5-1.8-0.6c0.2-0.8,0.3-1.7,0.3-2.5C10.5,7.4,13.1,7.4,13.1,7.4z M7.4,3.6V1
	c0.6,0.3,1.3,1.2,1.7,2.5C8.6,3.6,8,3.6,7.4,3.6z M10,3.3C9.7,2.4,9.4,1.7,9,1.1c1,0.3,1.8,0.9,2.5,1.7C11.1,3.1,10.5,3.2,10,3.3z
	 M9,12.9c0.4-0.5,0.7-1.2,1-2c0.5,0.1,1,0.3,1.5,0.5C10.7,12,9.9,12.5,9,12.9z"/>
</svg>
