<?xml version="1.0" encoding="utf-8"?>
<!-- Generator: Adobe Illustrator 21.1.0, SVG Export Plug-In . SVG Version: 6.00 Build 0)  -->
<svg version="1.1" id="Layer_1" xmlns="http://www.w3.org/2000/svg" xmlns:xlink="http://www.w3.org/1999/xlink" x="0px" y="0px"
	 viewBox="0 0 14 14" style="enable-background:new 0 0 14 14;" xml:space="preserve">
<path d="M13.5,7.7L13.5,7.7c-0.4-0.4-0.9-0.6-1.5-0.5c-0.1,0-0.1,0-0.1,0c0-0.3,0-0.4,0-0.5c0-0.3-0.3-0.4-0.5-0.4H0.5
	C0.2,6.2,0,6.4,0,6.7c0,0.1-0.2,3.8,3.3,6.5c0.3,0.2,0.6,0.3,1,0.3h3.4c0.4,0,0.7-0.1,1-0.3c0.4-0.4,0.9-0.8,1.3-1.3l0,0
	c0.2,0.2,0.5,0.2,0.7,0c0.2-0.2,0.2-0.5,0-0.7c0,0-0.1-0.1-0.1-0.3v-0.1c0.1-0.1,0.4-0.1,0.7-0.1c0.6,0,1.2-0.1,1.8-0.4
	c0.4-0.3,0.8-0.8,0.8-1.3C14.1,8.6,13.9,8,13.5,7.7z M11.3,9.9c0.2-0.5,0.4-1,0.5-1.5c0.1-0.1,0.3-0.2,0.4-0.3
	c0.3,0,0.5,0.1,0.6,0.2C13,8.4,13.1,8.7,13,9c0,0.3-0.1,0.4-0.4,0.6C12.3,9.9,11.8,9.9,11.3,9.9C11.3,9.9,11.3,9.9,11.3,9.9z
	 M10.9,7.2c-0.1,1.1-0.5,3.4-2.9,5.2c-0.1,0.1-0.3,0.1-0.4,0.1H4.3c-0.1,0-0.3-0.1-0.4-0.1C1.5,10.6,1.1,8.3,1,7.2H10.9z M5.5,4.8
	L5.5,4.8c0.1,0.1,0.1,0.3,0.1,0.4c0.1,0.2,0.3,0.3,0.4,0.3c0.1,0,0.1,0,0.1,0c0.3-0.1,0.4-0.4,0.3-0.6C6.5,4.8,6.4,4.6,6.4,4.4
	c0-0.2-0.1-0.4-0.1-0.5c-0.1-0.3,0-0.5,0.1-0.8C6.4,3,6.4,2.8,6.5,2.7c0.1-0.2,0.2-0.4,0.3-0.6c0.1-0.4,0.2-0.9,0.1-1.3
	C6.7,0.6,6.5,0.4,6.2,0.5C6,0.5,5.8,0.8,5.9,1.1S6,1.6,5.8,1.8C5.8,1.9,5.7,2.1,5.7,2.3C5.5,2.5,5.5,2.6,5.4,2.8
	C5.2,3.3,5.2,3.7,5.3,4.1C5.3,4.4,5.5,4.6,5.5,4.8z M8.1,4.8l0.1-0.1l0,0L8.1,4.8C8.2,5,8.3,5.1,8.3,5.2c0.1,0.2,0.3,0.3,0.4,0.3
	c0.1,0,0.1,0,0.1,0C9,5.5,9.1,5.4,9.2,5.3s0.1-0.3,0-0.4S9,4.6,9,4.4C8.9,4.2,8.8,4,8.8,3.9c0-0.2,0.1-0.4,0.1-0.7
	C9,3,9,2.8,9.1,2.7c0.1-0.2,0.2-0.4,0.3-0.6c0.2-0.4,0.2-0.9,0.1-1.3c0-0.1-0.1-0.3-0.2-0.3C9.2,0.4,9,0.4,8.9,0.4
	c-0.1,0-0.3,0.1-0.3,0.2C8.5,0.7,8.5,0.9,8.5,1c0.1,0.3,0.1,0.5-0.1,0.8C8.4,1.9,8.3,2.1,8.3,2.2C8.2,2.4,8.1,2.5,8,2.8
	C7.8,3.2,7.8,3.7,7.9,4C7.9,4.4,8.1,4.6,8.1,4.8z M2.9,4.8L3,4.8l0,0L2.9,4.8C3,4.9,3,5.1,3,5.2c0.1,0.2,0.3,0.3,0.4,0.3
	c0.1,0,0.1,0,0.1,0c0.2-0.1,0.3-0.1,0.3-0.3C4,5.1,4,5,3.9,4.9c0-0.1-0.1-0.3-0.1-0.4C3.7,4.2,3.7,4,3.6,3.9
	C3.6,3.7,3.6,3.4,3.7,3.2C3.7,3,3.8,2.8,3.9,2.7C4,2.5,4.1,2.3,4.1,2.1c0.1-0.4,0.2-0.9,0.1-1.3c0-0.1-0.1-0.3-0.2-0.3
	C3.9,0.5,3.7,0.4,3.6,0.5C3.4,0.5,3.2,0.8,3.3,1.1s0.1,0.5-0.1,0.8C3.2,1.9,3.1,2.1,3,2.3C2.9,2.5,2.8,2.6,2.8,2.8
	C2.6,3.2,2.6,3.7,2.7,4C2.7,4.4,2.8,4.6,2.9,4.8z"/>
</svg>
