<?xml version="1.0" encoding="utf-8"?>
<!-- Generator: Adobe Illustrator 21.1.0, SVG Export Plug-In . SVG Version: 6.00 Build 0)  -->
<svg version="1.1" id="Layer_1" xmlns="http://www.w3.org/2000/svg" xmlns:xlink="http://www.w3.org/1999/xlink" x="0px" y="0px"
	 viewBox="0 0 22 22" style="enable-background:new 0 0 22 22;" xml:space="preserve">
<g>
	<path d="M21.2,12.1L21.2,12.1c-0.6-0.6-1.4-0.9-2.3-0.8c-0.1,0-0.2,0-0.2,0c0-0.4,0-0.7,0-0.8c0-0.4-0.4-0.7-0.8-0.7H0.8
		C0.4,9.8,0,10.1,0,10.5c0,0.2-0.3,5.9,5.1,10.2c0.4,0.3,1,0.5,1.6,0.5h5.4c0.6,0,1.1-0.2,1.6-0.5c0.7-0.6,1.4-1.3,2-2c0,0,0,0,0,0
		c0.3,0.3,0.8,0.3,1.1,0c0.3-0.3,0.3-0.8,0-1.1c0,0-0.2-0.2-0.1-0.4l0-0.1c0.1-0.1,0.7-0.2,1.1-0.2c0.9,0,1.9-0.1,2.9-0.7
		c0.7-0.5,1.2-1.2,1.2-2.1C22.1,13.5,21.8,12.6,21.2,12.1z M17.7,15.6c0.3-0.8,0.6-1.6,0.8-2.4c0.2-0.2,0.5-0.3,0.7-0.4
		c0.4,0,0.8,0.1,1,0.3c0.2,0.2,0.4,0.6,0.3,1c0,0.4-0.2,0.7-0.6,1c-0.6,0.4-1.3,0.4-2.1,0.4C17.8,15.6,17.7,15.6,17.7,15.6z
		 M17.2,11.3c-0.1,1.7-0.8,5.3-4.5,8.2c-0.2,0.1-0.4,0.2-0.6,0.2H6.7c-0.2,0-0.5-0.1-0.6-0.2c-3.7-2.9-4.4-6.5-4.5-8.2H17.2z"/>
	<path d="M8.7,7.6L8.7,7.6C8.8,7.8,8.9,8,8.9,8.2c0.1,0.3,0.4,0.5,0.7,0.5c0.1,0,0.2,0,0.2,0c0.4-0.1,0.6-0.6,0.5-1
		c-0.1-0.2-0.2-0.5-0.3-0.7C10,6.7,9.9,6.4,9.8,6.2C9.7,5.8,9.8,5.4,9.9,5c0.1-0.2,0.2-0.5,0.3-0.7c0.1-0.3,0.3-0.6,0.4-0.9
		c0.2-0.7,0.3-1.4,0.1-2c-0.1-0.4-0.5-0.7-0.9-0.6C9.4,0.9,9.2,1.3,9.3,1.7c0.1,0.4,0.1,0.8-0.1,1.2C9.1,3.1,9,3.4,8.9,3.6
		C8.7,3.9,8.6,4.2,8.5,4.5c-0.3,0.7-0.3,1.4-0.1,2C8.4,6.9,8.6,7.3,8.7,7.6z"/>
	<path d="M12.8,7.6l0.2-0.1c0,0,0,0,0,0L12.8,7.6C12.9,7.9,13,8,13.1,8.2c0.1,0.3,0.4,0.5,0.7,0.5c0.1,0,0.2,0,0.2,0
		c0.2-0.1,0.3-0.2,0.4-0.4c0.1-0.2,0.1-0.4,0-0.6c-0.1-0.2-0.2-0.4-0.3-0.7c-0.1-0.3-0.2-0.6-0.3-0.9C13.8,5.8,13.9,5.4,14,5
		c0.1-0.2,0.2-0.5,0.3-0.7c0.1-0.3,0.3-0.6,0.4-0.9C15,2.7,15,2,14.9,1.3c0-0.2-0.2-0.4-0.3-0.5c-0.2-0.1-0.4-0.1-0.6-0.1
		c-0.2,0-0.4,0.2-0.5,0.3c-0.1,0.2-0.1,0.4-0.1,0.6c0.1,0.4,0.1,0.8-0.1,1.2c-0.1,0.2-0.2,0.5-0.3,0.7c-0.1,0.3-0.3,0.5-0.4,0.9
		c-0.3,0.7-0.3,1.4-0.1,2C12.5,6.9,12.7,7.3,12.8,7.6z"/>
	<path d="M4.6,7.6l0.2-0.1l0,0L4.6,7.6C4.7,7.8,4.8,8,4.8,8.2c0.1,0.3,0.4,0.5,0.7,0.5c0.1,0,0.2,0,0.2,0C6,8.6,6.1,8.5,6.2,8.3
		c0.1-0.2,0.1-0.4,0-0.6C6.2,7.5,6.1,7.3,6,7C5.9,6.7,5.8,6.4,5.7,6.2C5.6,5.8,5.6,5.4,5.8,5C5.9,4.7,6,4.5,6.1,4.3
		C6.3,4,6.4,3.7,6.5,3.4c0.2-0.7,0.3-1.4,0.1-2c0-0.2-0.2-0.4-0.3-0.5C6.1,0.8,5.9,0.7,5.7,0.8C5.3,0.9,5.1,1.3,5.2,1.7
		c0.1,0.4,0.1,0.8-0.1,1.2C5,3.1,4.9,3.3,4.8,3.6C4.6,3.9,4.5,4.1,4.4,4.4c-0.3,0.7-0.3,1.4-0.1,2C4.3,6.9,4.5,7.3,4.6,7.6z"/>
</g>
</svg>
