<?xml version="1.0" encoding="UTF-8"?>
<svg width="13px" height="13px" viewBox="0 0 13 13" version="1.1" xmlns="http://www.w3.org/2000/svg" xmlns:xlink="http://www.w3.org/1999/xlink">
    <!-- Generator: Sketch 56.3 (81716) - https://sketch.com -->
    <title>download</title>
    <desc>Created with Sketch.</desc>
    <g id="Page-1" stroke="none" stroke-width="1" fill="none" fill-rule="evenodd">
        <path d="M12,10.4568 C12,10.1808 12.224,9.9568 12.5,9.9568 C12.776,9.9568 13,10.1808 13,10.4568 L13,10.6738 C13,11.9558 11.956,12.9998 10.674,12.9998 L2.326,12.9998 C1.044,12.9998 0,11.9558 0,10.6738 L0,10.4568 C0,10.1808 0.224,9.9568 0.5,9.9568 C0.776,9.9568 1,10.1808 1,10.4568 L1,10.6738 C1,11.4048 1.595,11.9998 2.326,11.9998 L10.674,11.9998 C11.405,11.9998 12,11.4048 12,10.6738 L12,10.4568 Z M6.1455,9.74 L1.6925,5.286 C1.4975,5.091 1.4975,4.774 1.6925,4.579 C1.8875,4.384 2.2045,4.384 2.3995,4.579 L5.9995,8.179 L5.9995,0.5 C5.9995,0.223 6.2235,0 6.4995,0 C6.7765,0 6.9995,0.223 6.9995,0.5 L6.9995,8.179 L10.6005,4.579 C10.7955,4.384 11.1125,4.384 11.3075,4.579 C11.5025,4.774 11.5025,5.091 11.3075,5.286 L6.8545,9.74 C6.8075,9.786 6.7515,9.822 6.6915,9.847 C6.6295,9.873 6.5655,9.886 6.4995,9.886 C6.4345,9.886 6.3705,9.873 6.3085,9.847 C6.2485,9.822 6.1925,9.786 6.1455,9.74 Z" id="download" fill="#000000"></path>
    </g>
</svg>