<?xml version="1.0" encoding="UTF-8"?>
<svg width="12px" height="15px" viewBox="0 0 12 15" version="1.1" xmlns="http://www.w3.org/2000/svg" xmlns:xlink="http://www.w3.org/1999/xlink">
    <!-- Generator: Sketch 56.3 (81716) - https://sketch.com -->
    <title>logs</title>
    <desc>Created with Sketch.</desc>
    <g id="Page-1" stroke="none" stroke-width="1" fill="none" fill-rule="evenodd">
        <path d="M10.5,13.5 L10.5,3.707 L7.293,1 L1,1 L1,13.5 L10.5,13.5 Z M11.354,3.146 C11.447,3.24 11.5,3.367 11.5,3.5 L11.5,14 C11.5,14.276 11.276,14.5 11,14.5 L0.5,14.5 C0.224,14.5 0,14.276 0,14 L0,0.5 C0,0.224 0.224,0 0.5,0 L7.5,0 C7.633,0 7.76,0.053 7.854,0.146 L11.354,3.146 Z M3,5 C2.724,5 2.5,4.776 2.5,4.5 C2.5,4.224 2.724,4 3,4 L6,4 C6.276,4 6.5,4.224 6.5,4.5 C6.5,4.776 6.276,5 6,5 L3,5 Z M2.5,7.5 C2.5,7.224 2.724,7 3,7 L8.5,7 C8.776,7 9,7.224 9,7.5 C9,7.776 8.776,8 8.5,8 L3,8 C2.724,8 2.5,7.776 2.5,7.5 Z M8.5,10 C8.776,10 9,10.224 9,10.5 C9,10.776 8.776,11 8.5,11 L3,11 C2.724,11 2.5,10.776 2.5,10.5 C2.5,10.224 2.724,10 3,10 L8.5,10 Z" id="logs" fill="#000000"></path>
    </g>
</svg>