<?xml version="1.0" encoding="UTF-8"?>
<svg width="14px" height="14px" viewBox="0 0 14 14" version="1.1" xmlns="http://www.w3.org/2000/svg" xmlns:xlink="http://www.w3.org/1999/xlink">
    <!-- Generator: Sketch 56.3 (81716) - https://sketch.com -->
    <title>link</title>
    <desc>Created with Sketch.</desc>
    <g id="Page-1" stroke="none" stroke-width="1" fill="none" fill-rule="evenodd">
        <path d="M6.07587504,9.7037 C6.31087504,9.4697 6.69087504,9.4697 6.92487504,9.7037 C7.15887504,9.9377 7.15887504,10.3177 6.92487504,10.5527 L5.06287504,12.4137 C4.55687504,12.9197 3.88387504,13.1987 3.16787504,13.1987 C2.45187504,13.1987 1.77887504,12.9197 1.27287504,12.4137 L0.783875045,11.9237 C-0.261124955,10.8797 -0.261124955,9.1797 0.782875045,8.1357 L3.96887504,4.9497 C4.98187504,3.9367 6.74687504,3.9367 7.75887504,4.9497 L8.24887504,5.4397 C8.48287504,5.6737 8.48287504,6.0537 8.24887504,6.2877 C8.01387504,6.5227 7.63487504,6.5227 7.39987504,6.2877 L6.90987504,5.7977 C6.35087504,5.2387 5.37687504,5.2387 4.81787504,5.7977 L1.63187504,8.9837 C1.05487504,9.5607 1.05487504,10.4987 1.63187504,11.0757 L2.12087504,11.5647 C2.68087504,12.1247 3.65587504,12.1247 4.21387504,11.5657 L6.07587504,9.7037 Z M11.923775,0.783 L12.413775,1.274 C12.919775,1.779 13.198775,2.452 13.198775,3.168 C13.198775,3.884 12.919775,4.557 12.413775,5.063 L9.22877504,8.248 C8.72277504,8.754 8.04977504,9.033 7.33277504,9.033 C6.61777504,9.033 5.94477504,8.754 5.43877504,8.247 C5.20577504,8.013 5.20577504,7.633 5.43977504,7.399 C5.67577504,7.165 6.05577504,7.165 6.28877504,7.399 C6.56777504,7.679 6.93877504,7.833 7.33377504,7.833 C7.72877504,7.833 8.10077504,7.679 8.37977504,7.399 L11.564775,4.214 C11.844775,3.935 11.998775,3.563 11.998775,3.168 C11.998775,2.773 11.844775,2.401 11.565775,2.122 L11.075775,1.631 C10.497775,1.055 9.55977504,1.055 8.98377504,1.632 L7.07177504,3.544 C6.83777504,3.778 6.45777504,3.778 6.22377504,3.544 C5.98877504,3.309 5.98877504,2.929 6.22377504,2.695 L8.13477504,0.783 C9.17877504,-0.261 10.878775,-0.261 11.923775,0.783 Z" id="link" fill="#000000"></path>
    </g>
</svg>