<?xml version="1.0" encoding="utf-8"?>
<!-- Generator: Adobe Illustrator 21.1.0, SVG Export Plug-In . SVG Version: 6.00 Build 0)  -->
<svg version="1.1" id="Layer_1" xmlns="http://www.w3.org/2000/svg" xmlns:xlink="http://www.w3.org/1999/xlink" x="0px" y="0px"
	 viewBox="0 0 24 24" style="enable-background:new 0 0 24 24;" xml:space="preserve">
<path d="M10.4,5.1L0.3,11.6C0.1,11.7,0,11.9,0,12.1c0,0.2,0.1,0.4,0.3,0.5L10.4,19c0.1,0.1,0.2,0.1,0.3,0.1c0.2,0,0.4-0.1,0.5-0.3
	c0.2-0.3,0.1-0.6-0.2-0.8l-8.6-5.5h21c0.3,0,0.6-0.2,0.6-0.6s-0.2-0.6-0.6-0.6h-21L11,6.1c0.3-0.2,0.3-0.5,0.2-0.8
	C11.1,5.1,10.9,5,10.7,5C10.6,5,10.5,5.1,10.4,5.1z"/>
</svg>
