<?xml version="1.0" encoding="utf-8"?>
<!-- Generator: Adobe Illustrator 21.1.0, SVG Export Plug-In . SVG Version: 6.00 Build 0)  -->
<svg version="1.1" id="Layer_1" xmlns="http://www.w3.org/2000/svg" xmlns:xlink="http://www.w3.org/1999/xlink" x="0px" y="0px"
	 viewBox="0 0 24 24" style="enable-background:new 0 0 24 24;" xml:space="preserve">
<path d="M24,12.1c0,0.3-0.1,0.5-0.4,0.6l-10,6.4c-0.1,0.1-0.3,0.1-0.4,0.1c-0.3,0-0.5-0.1-0.6-0.4c-0.1-0.4-0.1-0.7,0.2-0.9l8.1-5
	H0.8c-0.5,0-0.7-0.4-0.7-0.7c0-0.5,0.4-0.7,0.7-0.7H21l-8.1-5.2c-0.4-0.2-0.5-0.6-0.2-1C12.8,5.1,13,5,13.3,5c0.1,0,0.1,0,0.2,0.1
	c0,0,0.1,0,0.1,0h0l0,0l10.1,6.4C23.9,11.6,24,11.8,24,12.1z"/>
</svg>
