<?xml version="1.0" encoding="utf-8"?>
<!-- Generator: Adobe Illustrator 21.1.0, SVG Export Plug-In . SVG Version: 6.00 Build 0)  -->
<svg version="1.1" id="Layer_1" xmlns="http://www.w3.org/2000/svg" xmlns:xlink="http://www.w3.org/1999/xlink" x="0px" y="0px"
	 viewBox="0 0 24 24" style="enable-background:new 0 0 24 24;" xml:space="preserve">
<path d="M11.9,0c-0.3,0-0.6,0.2-0.6,0.6v21l-5.3-7.8c-0.2-0.3-0.5-0.3-0.8-0.1C5,13.8,5,14.1,5.1,14.4l6.4,9.4
	c0.1,0.2,0.3,0.2,0.5,0.2c0.2,0,0.3-0.1,0.5-0.2l6.4-9.4c0.2-0.3,0.1-0.6-0.2-0.8c-0.3-0.2-0.6-0.1-0.8,0.1l-5.4,8V0.6
	C12.5,0.2,12.2,0,11.9,0z"/>
</svg>
