<?xml version="1.0" encoding="utf-8"?>
<!-- Generator: Adobe Illustrator 21.1.0, SVG Export Plug-In . SVG Version: 6.00 Build 0)  -->
<svg version="1.1" id="Layer_1" xmlns="http://www.w3.org/2000/svg" xmlns:xlink="http://www.w3.org/1999/xlink" x="0px" y="0px"
	 viewBox="0 0 24 24" style="enable-background:new 0 0 24 24;" xml:space="preserve">
<path d="M18.9,14.4l-6.4,9.3l0,0c-0.1,0-0.1,0.1-0.1,0.1C12.3,23.9,12.2,24,12,24c-0.2,0-0.5,0-0.6-0.3l-6.3-9.3
	C4.9,14,5,13.7,5.2,13.6c0.4-0.2,0.7-0.2,1,0.1l5,7.4V0.7c0-0.9,1.4-0.9,1.4,0v20.5l5.1-7.6c0.2-0.2,0.6-0.4,1-0.1
	C19.1,13.7,19.2,14.1,18.9,14.4z"/>
</svg>
