<?xml version="1.0" encoding="utf-8"?>
<!-- Generator: Adobe Illustrator 21.1.0, SVG Export Plug-In . SVG Version: 6.00 Build 0)  -->
<svg version="1.1" id="Layer_1" xmlns="http://www.w3.org/2000/svg" xmlns:xlink="http://www.w3.org/1999/xlink" x="0px" y="0px"
	 viewBox="0 0 24 24" style="enable-background:new 0 0 24 24;" xml:space="preserve">
<path d="M24,11.9c0,0.5-0.4,0.7-0.7,0.7H2.9l8.2,5.2c0.4,0.2,0.5,0.6,0.2,1c-0.1,0.2-0.3,0.4-0.6,0.4c-0.1,0-0.2,0-0.4-0.1l-10-6.3
	C0.1,12.6,0,12.4,0,12.1c0-0.3,0.1-0.5,0.4-0.6l10-6.4h0c0,0,0.1,0,0.1,0c0.1,0,0.1-0.1,0.2-0.1c0.3,0,0.5,0.1,0.6,0.4
	c0.1,0.4,0.1,0.7-0.2,1l-8.1,4.9h20.3C23.7,11.2,24,11.4,24,11.9z"/>
</svg>
