<?xml version="1.0" encoding="utf-8"?>
<!-- Generator: Adobe Illustrator 21.1.0, SVG Export Plug-In . SVG Version: 6.00 Build 0)  -->
<svg version="1.1" id="Layer_1" xmlns="http://www.w3.org/2000/svg" xmlns:xlink="http://www.w3.org/1999/xlink" x="0px" y="0px"
	 viewBox="0 0 24 24" style="enable-background:new 0 0 24 24;" xml:space="preserve">
<path d="M13.3,5c-0.2,0-0.4,0.1-0.5,0.3c-0.2,0.3-0.1,0.6,0.2,0.8l8.6,5.5h-21c-0.3,0-0.6,0.2-0.6,0.6c0,0.3,0.2,0.6,0.6,0.6h21
	L13,18.1c-0.3,0.2-0.3,0.5-0.2,0.8c0.1,0.2,0.3,0.3,0.5,0.3c0.1,0,0.2,0,0.3-0.1l10.2-6.5c0.2-0.1,0.3-0.3,0.3-0.5s-0.1-0.4-0.3-0.5
	L13.6,5.1C13.5,5.1,13.4,5,13.3,5z"/>
</svg>
