<?xml version="1.0" encoding="utf-8"?>
<!-- Generator: Adobe Illustrator 21.1.0, SVG Export Plug-In . SVG Version: 6.00 Build 0)  -->
<svg version="1.1" id="Layer_1" xmlns="http://www.w3.org/2000/svg" xmlns:xlink="http://www.w3.org/1999/xlink" x="0px" y="0px"
	 viewBox="0 0 24 24" style="enable-background:new 0 0 24 24;" xml:space="preserve">
<path d="M7.6,21.9c0.2,0,0.3-0.2,0.3-0.3V8.5c0-0.2-0.2-0.3-0.3-0.3H1.7c-0.2,0-0.3,0.2-0.3,0.3v13c0,0.1-0.1,0.1,0,0.2
	c0,0.1,0.2,0.2,0.4,0.2H7.6z M2,21.1V8.8h5v12.2H2z M15,21.9c0.2,0,0.3-0.2,0.3-0.3V8.5c0-0.2-0.2-0.3-0.3-0.3H9.2
	C9.1,8.1,9,8.1,9,8.1c-0.1,0-0.2,0.2-0.2,0.4v13.1c0,0.2,0.2,0.3,0.3,0.3H15z M9.5,21.1V8.8h5v12.2H9.5z M23.7,3.2H0.3
	C0.2,3.2,0,3.4,0,3.5v3.3h24V3.5C24,3.4,23.8,3.2,23.7,3.2z M23.2,3.9v2.3H0.7V3.9H23.2z M23.7,22.1H0.3c-0.2,0-0.3,0.1-0.3,0.1l0,0
	v2.2h24v-2.2C24,22.1,23.8,22.1,23.7,22.1z M23.2,22.6V24H0.7v-1.4H23.2z M23.7,0.6H0.3C0.2,0.6,0.1,0.7,0,0.8l0,0v2.3h24V0.8
	C24,0.6,23.8,0.6,23.7,0.6z M0.7,2.5V1.1h22.5v1.4H0.7z M22.3,21.9c0.2,0,0.3-0.2,0.3-0.3V8.5c0-0.2-0.2-0.3-0.3-0.3h-5.9
	c-0.2,0-0.3,0.2-0.3,0.3v13.1c0,0.2,0.2,0.3,0.3,0.3H22.3z M16.9,21.1V8.8h5v12.2H16.9z"/>
</svg>
