<?xml version="1.0" encoding="UTF-8"?>
<svg xmlns="http://www.w3.org/2000/svg" xmlns:xlink="http://www.w3.org/1999/xlink" width="24pt" height="24pt" viewBox="0 0 24 24" version="1.1">
<g id="surface1">
<path style=" stroke:none;fill-rule:nonzero;fill:rgb(0%,0%,0%);fill-opacity:1;" d="M 1.746094 21.492188 L 7.417969 21.492188 C 7.527344 21.492188 7.636719 21.382812 7.636719 21.273438 L 7.636719 8.617188 C 7.636719 8.507812 7.527344 8.398438 7.417969 8.398438 L 1.746094 8.398438 C 1.636719 8.398438 1.527344 8.507812 1.527344 8.617188 L 1.527344 21.273438 C 1.417969 21.382812 1.527344 21.492188 1.746094 21.492188 Z M 1.964844 8.835938 L 7.089844 8.835938 L 7.089844 20.945312 L 1.964844 20.945312 Z M 1.964844 8.835938 "/>
<path style=" stroke:none;fill-rule:nonzero;fill:rgb(0%,0%,0%);fill-opacity:1;" d="M 8.945312 21.492188 L 14.617188 21.492188 C 14.726562 21.492188 14.835938 21.382812 14.835938 21.273438 L 14.835938 8.617188 C 14.835938 8.507812 14.726562 8.398438 14.617188 8.398438 L 8.945312 8.398438 C 8.835938 8.289062 8.726562 8.398438 8.726562 8.617188 L 8.726562 21.273438 C 8.726562 21.382812 8.835938 21.492188 8.945312 21.492188 Z M 9.164062 8.835938 L 14.289062 8.835938 L 14.289062 20.945312 L 9.164062 20.945312 Z M 9.164062 8.835938 "/>
<path style=" stroke:none;fill-rule:nonzero;fill:rgb(0%,0%,0%);fill-opacity:1;" d="M 22.691406 6.871094 L 23.238281 6.871094 L 23.238281 3.816406 C 23.238281 3.710938 23.128906 3.601562 23.019531 3.601562 L 0.4375 3.601562 C 0.328125 3.601562 0.21875 3.710938 0.21875 3.816406 L 0.21875 6.871094 L 2.289062 6.871094 C 2.289062 6.871094 2.289062 6.871094 2.398438 6.871094 Z M 0.65625 6.546875 L 0.65625 4.035156 L 22.691406 4.035156 L 22.691406 6.546875 Z M 0.65625 6.546875 "/>
<path style=" stroke:none;fill-rule:nonzero;fill:rgb(0%,0%,0%);fill-opacity:1;" d="M 22.691406 24 L 23.238281 24 L 23.238281 22.035156 C 23.238281 21.925781 23.128906 21.925781 23.019531 21.925781 L 0.4375 21.925781 C 0.328125 21.925781 0.21875 22.035156 0.21875 22.035156 L 0.21875 24 L 2.289062 24 C 2.289062 24 2.289062 24 2.398438 24 Z M 0.65625 23.78125 L 0.65625 22.144531 L 22.691406 22.144531 L 22.691406 23.78125 Z M 0.65625 23.78125 "/>
<path style=" stroke:none;fill-rule:nonzero;fill:rgb(0%,0%,0%);fill-opacity:1;" d="M 22.691406 3.273438 L 23.238281 3.273438 L 23.238281 1.199219 C 23.238281 1.089844 23.128906 1.089844 23.019531 1.089844 L 0.4375 1.089844 C 0.328125 1.089844 0.21875 1.199219 0.21875 1.199219 L 0.21875 3.273438 L 2.289062 3.273438 C 2.289062 3.273438 2.289062 3.273438 2.398438 3.273438 Z M 0.65625 2.945312 L 0.65625 1.308594 L 22.691406 1.308594 L 22.691406 2.945312 Z M 0.65625 2.945312 "/>
<path style=" stroke:none;fill-rule:nonzero;fill:rgb(0%,0%,0%);fill-opacity:1;" d="M 16.035156 21.492188 L 21.710938 21.492188 C 21.816406 21.492188 21.925781 21.382812 21.925781 21.273438 L 21.925781 8.617188 C 21.925781 8.507812 21.816406 8.398438 21.710938 8.398438 L 16.035156 8.398438 C 15.925781 8.398438 15.816406 8.507812 15.816406 8.617188 L 15.816406 21.273438 C 15.816406 21.382812 15.925781 21.492188 16.035156 21.492188 Z M 16.363281 8.835938 L 21.492188 8.835938 L 21.492188 20.945312 L 16.363281 20.945312 Z M 16.363281 8.835938 "/>
</g>
</svg>
