<?xml version="1.0" encoding="utf-8"?>
<!-- Generator: Adobe Illustrator 21.1.0, SVG Export Plug-In . SVG Version: 6.00 Build 0)  -->
<svg version="1.1" id="Layer_1" xmlns="http://www.w3.org/2000/svg" xmlns:xlink="http://www.w3.org/1999/xlink" x="0px" y="0px"
	 viewBox="0 0 24 24" style="enable-background:new 0 0 24 24;" xml:space="preserve">
<path d="M2.3,21.7c-0.1-0.1-0.1-0.3-0.1-0.4l5.3-8.7c0-0.1,0.1-0.1,0.2-0.2s0.2,0,0.3,0l5,3.4l5.2-13.4c0-0.1,0.1-0.2,0.3-0.2
	c0.1,0,0.2,0.1,0.3,0.2l5.3,8.3c0.1,0.2,0.1,0.3-0.1,0.4c-0.2,0.1-0.3,0.1-0.4-0.1l-4.9-7.8l-5.1,13.2c0,0.1-0.1,0.2-0.2,0.2
	s-0.2,0-0.3,0l-5-3.4l-4.4,7.2l4.1-2.8c0.1,0,0.2-0.1,0.3,0l5.1,1.4l5.2-5.4c0.1-0.1,0.3-0.2,0.4-0.1l5.3,3.3
	c0.2,0.1,0.2,0.3,0.1,0.4c-0.1,0.2-0.3,0.2-0.4,0.1l-5.1-3.2l-5.1,5.4c-0.1,0.1-0.2,0.1-0.3,0.1l-5.2-1.4l-5.2,3.5
	c-0.1,0-0.1,0.1-0.2,0.1S2.3,21.8,2.3,21.7z M23.7,23.4h-23V0.3C0.6,0.1,0.5,0,0.3,0S0,0.1,0,0.3v23.3C0,23.8,0.2,24,0.3,24h23.3
	c0.2,0,0.3-0.1,0.3-0.3S23.8,23.4,23.7,23.4z"/>
</svg>
