<?xml version="1.0" encoding="utf-8"?>
<!-- Generator: Adobe Illustrator 21.1.0, SVG Export Plug-In . SVG Version: 6.00 Build 0)  -->
<svg version="1.1" id="Layer_1" xmlns="http://www.w3.org/2000/svg" xmlns:xlink="http://www.w3.org/1999/xlink" x="0px" y="0px"
	 viewBox="0 0 24 24" style="enable-background:new 0 0 24 24;" xml:space="preserve">
<path transform="translate(-270 -560)" d="M270,578.1h24v4.4h-24V578.1z M270,573.7h24v2.7h-24V573.7z M270,570.1h24v1.8h-24V570.1z
	 M270,567.4h24v0.9h-24V567.4z M270,562.1h0.9v0.9H270V562.1z M271.8,562.1h0.9v0.9h-0.9V562.1z M273.6,562.1h0.9v0.9h-0.9V562.1z
	 M275.3,562.1h0.9v0.9h-0.9V562.1z M277.1,562.1h0.9v0.9h-0.9V562.1z M278.9,562.1h0.9v0.9h-0.9V562.1z M280.7,562.1h0.9v0.9h-0.9
	V562.1z M282.4,562.1h0.9v0.9h-0.9V562.1z M284.2,562.1h0.9v0.9h-0.9V562.1z M286,562.1h0.9v0.9H286V562.1z M287.8,562.1h0.9v0.9
	h-0.9V562.1z M289.6,562.1h0.9v0.9h-0.9V562.1z M291.3,562.1h0.9v0.9h-0.9V562.1z M293.1,562.1h0.9v0.9h-0.9V562.1z M270,564.8h2.7
	v0.9H270V564.8z M273.6,564.8h2.7v0.9h-2.7V564.8z M277.1,564.8h2.7v0.9h-2.7V564.8z M280.7,564.8h2.7v0.9h-2.7V564.8z M284.2,564.8
	h2.7v0.9h-2.7V564.8z M287.8,564.8h2.7v0.9h-2.7V564.8z M291.3,564.8h2.7v0.9h-2.7V564.8z"/>
</svg>
