<?xml version="1.0" encoding="utf-8"?>
<!-- Generator: Adobe Illustrator 21.1.0, SVG Export Plug-In . SVG Version: 6.00 Build 0)  -->
<svg version="1.1" id="Layer_1" xmlns="http://www.w3.org/2000/svg" xmlns:xlink="http://www.w3.org/1999/xlink" x="0px" y="0px"
	 viewBox="0 0 24 24" style="enable-background:new 0 0 24 24;" xml:space="preserve">
<path d="M0,18.1h24v4.4H0V18.1z M0,13.7h24v2.7H0V13.7z M0,10.1h24v1.8H0V10.1z M0,7.4h24v0.9H0V7.4z M0,2.1h0.9V3H0V2.1z M1.8,2.1
	h0.9V3H1.8V2.1z M3.6,2.1h0.9V3H3.6V2.1z M5.3,2.1h0.9V3H5.3V2.1z M7.1,2.1H8V3H7.1V2.1z M8.9,2.1h0.9V3H8.9V2.1z M10.7,2.1h0.9V3
	h-0.9V2.1z M12.4,2.1h0.9V3h-0.9V2.1z M14.2,2.1h0.9V3h-0.9V2.1z M16,2.1h0.9V3H16V2.1z M17.8,2.1h0.9V3h-0.9V2.1z M19.6,2.1h0.9V3
	h-0.9V2.1z M21.3,2.1h0.9V3h-0.9V2.1z M23.1,2.1H24V3h-0.9V2.1z M0,4.8h2.7v0.9H0V4.8z M3.6,4.8h2.7v0.9H3.6V4.8z M7.1,4.8h2.7v0.9
	H7.1V4.8z M10.7,4.8h2.7v0.9h-2.7V4.8z M14.2,4.8h2.7v0.9h-2.7V4.8z M17.8,4.8h2.7v0.9h-2.7V4.8z M21.3,4.8H24v0.9h-2.7V4.8z"/>
</svg>
