<?xml version="1.0" encoding="utf-8"?>
<!-- Generator: Adobe Illustrator 21.1.0, SVG Export Plug-In . SVG Version: 6.00 Build 0)  -->
<svg version="1.1" id="Layer_1" xmlns="http://www.w3.org/2000/svg" xmlns:xlink="http://www.w3.org/1999/xlink" x="0px" y="0px"
	 viewBox="0 0 24 24" style="enable-background:new 0 0 24 24;" xml:space="preserve">
<path transform="translate(0,-952.36218)" d="M2.3,964.7c-2.2,1.3-2.9,4.1-1.7,6.3c1.3,2.2,4.1,2.9,6.3,1.7l5.3-3.1
	c2.1-1.2,2.9-3.8,1.8-6c-0.1-0.2-0.3-0.2-0.4-0.1c-0.2,0.1-0.2,0.3-0.1,0.4c0,0,0,0,0,0c0.9,1.9,0.2,4.1-1.6,5.2l-5.3,3.1
	c-1.9,1.1-4.3,0.5-5.4-1.5c-1.1-1.9-0.5-4.3,1.5-5.4l5.3-3.1c0.1-0.1,0.2-0.3,0.1-0.4c-0.1-0.1-0.3-0.2-0.4-0.1c0,0,0,0,0,0
	L2.3,964.7L2.3,964.7z M11.8,959.2c-2.1,1.2-2.9,3.8-1.8,6c0.1,0.2,0.3,0.2,0.4,0.1s0.2-0.3,0.1-0.4l0,0c-0.9-1.9-0.2-4.1,1.6-5.2
	l5.3-3.1c1.9-1.1,4.3-0.5,5.4,1.5s0.5,4.3-1.5,5.4l-5.3,3.1c-0.1,0.1-0.2,0.3-0.1,0.4c0.1,0.1,0.3,0.2,0.4,0.1c0,0,0,0,0,0l5.3-3.1
	c2.2-1.3,2.9-4.1,1.7-6.3c-1.3-2.2-4.1-2.9-6.3-1.7C17.1,956.1,11.8,959.2,11.8,959.2z"/>
</svg>
