<?xml version="1.0" encoding="utf-8"?>
<!-- Generator: Adobe Illustrator 21.1.0, SVG Export Plug-In . SVG Version: 6.00 Build 0)  -->
<svg version="1.1" id="Layer_1" xmlns="http://www.w3.org/2000/svg" xmlns:xlink="http://www.w3.org/1999/xlink" x="0px" y="0px"
	 viewBox="0 0 15 15" style="enable-background:new 0 0 15 15;" xml:space="preserve">
<path d="M15,3.2c0,0.9-0.3,1.7-0.9,2.3l-2.9,2.9c-0.1,0.1-0.3,0.2-0.5,0.2c-0.2,0-0.4-0.1-0.5-0.2c-0.3-0.3-0.3-0.7,0-1l2.9-2.9
	c0.7-0.7,0.7-1.9,0-2.6c-0.7-0.7-1.9-0.7-2.6,0l-3,3C6.8,5.7,6.7,6.7,7.4,7.4c0.3,0.3,0.2,0.7-0.1,1C7,8.7,6.5,8.7,6.3,8.4
	C5.2,7.1,5.3,5.2,6.4,4l3-3C10.1,0.3,10.9,0,11.8,0c0.9,0,1.7,0.3,2.3,0.9C14.7,1.6,15,2.4,15,3.2z M8.2,6.4c-0.2,0-0.4,0-0.5,0.2
	C7.6,6.7,7.5,6.8,7.5,7c0,0.2,0,0.4,0.2,0.5C8.3,8.3,8.2,9.3,7.6,10l-3,3c-0.7,0.7-1.9,0.7-2.6,0c-0.7-0.7-0.7-1.9,0-2.6l2.9-2.9
	C5,7.5,5,7.3,5,7.1c0-0.2-0.1-0.4-0.2-0.5C4.7,6.5,4.5,6.4,4.4,6.4C4.2,6.4,4,6.4,3.8,6.6L0.9,9.5C0.3,10.1,0,10.9,0,11.8
	c0,0.9,0.3,1.7,0.9,2.3C1.6,14.7,2.4,15,3.2,15c0.9,0,1.7-0.3,2.3-0.9l3-3c1.2-1.2,1.3-3.1,0.2-4.4C8.6,6.5,8.4,6.4,8.2,6.4z"/>
</svg>
