<?xml version="1.0" encoding="utf-8"?>
<!-- Generator: Adobe Illustrator 21.1.0, SVG Export Plug-In . SVG Version: 6.00 Build 0)  -->
<svg version="1.1" id="Layer_1" xmlns="http://www.w3.org/2000/svg" xmlns:xlink="http://www.w3.org/1999/xlink" x="0px" y="0px"
	 viewBox="0 0 24 24" style="enable-background:new 0 0 24 24;" xml:space="preserve">
<path d="M21.5,2.7C21.4,1.2,20.2,0,18.8,0H6C4.5,0,3.3,1.2,3.3,2.7v18.6C3.3,22.8,4.5,24,6,24h12.8c1.5,0,2.7-1.2,2.7-2.7L21.5,2.7z
	 M18.8,22.7H6c-0.8,0-1.4-0.6-1.4-1.4V2.7c0-0.8,0.6-1.4,1.4-1.4h12.8c0.8,0,1.4,0.6,1.4,1.4v18.6C20.2,22.1,19.6,22.7,18.8,22.7z
	 M7.1,12.4c-1.1,0-1.9,0.8-1.9,1.9s0.8,1.9,1.9,1.9S9,15.4,9,14.3S8.1,12.4,7.1,12.4z M7.1,13.7c0.4,0,0.6,0.2,0.6,0.6
	c0,0.4-0.2,0.6-0.6,0.6c-0.4,0-0.6-0.2-0.6-0.6C6.5,14,6.8,13.7,7.1,13.7z M7.1,17c-1.1,0-1.9,0.8-1.9,1.9s0.8,1.9,1.9,1.9
	S9,20,9,18.9C9,17.9,8.1,17,7.1,17z M7.1,18.3c0.4,0,0.6,0.2,0.6,0.6c0,0.4-0.2,0.6-0.6,0.6c-0.4,0-0.6-0.2-0.6-0.6
	C6.5,18.6,6.8,18.3,7.1,18.3z M19.3,9.7c0,0.4-0.3,0.7-0.7,0.7h-8.2c-0.3,0-0.7-0.3-0.7-0.7C9.7,9.4,10,9,10.4,9h8.3
	C19,9,19.3,9.2,19.3,9.7z M19.3,14.3c0,0.4-0.3,0.7-0.7,0.7h-8.2c-0.3,0-0.7-0.3-0.7-0.7c0-0.3,0.3-0.7,0.7-0.7h8.2
	C19,13.7,19.3,13.9,19.3,14.3z M7.1,7.8C6,7.8,5.2,8.6,5.2,9.7s0.8,1.9,1.9,1.9S9,10.7,9,9.7S8.1,7.8,7.1,7.8z M7.1,9.1
	c0.4,0,0.6,0.2,0.6,0.6c0,0.4-0.2,0.6-0.6,0.6c-0.4,0-0.6-0.2-0.6-0.6C6.5,9.4,6.8,9.1,7.1,9.1z M19.3,18.9c0,0.4-0.3,0.7-0.7,0.7
	h-8.2c-0.3,0-0.7-0.3-0.7-0.7c0-0.3,0.3-0.7,0.7-0.7h8.2C19,18.2,19.3,18.5,19.3,18.9z M7.1,3.2C6,3.2,5.2,4,5.2,5.1S6,7,7.1,7
	S9,6.2,9,5.1S8.1,3.2,7.1,3.2z M7.1,4.5c0.4,0,0.6,0.2,0.6,0.6c0,0.4-0.2,0.6-0.6,0.6c-0.4,0-0.6-0.2-0.6-0.6
	C6.5,4.7,6.8,4.5,7.1,4.5z M19.3,5.1c0,0.4-0.3,0.7-0.7,0.7h-8.2c-0.3,0-0.7-0.3-0.7-0.7c0-0.3,0.3-0.7,0.7-0.7h8.2
	C19,4.5,19.3,4.7,19.3,5.1z"/>
</svg>
