<?xml version="1.0" encoding="utf-8"?>
<!-- Generator: Adobe Illustrator 21.1.0, SVG Export Plug-In . SVG Version: 6.00 Build 0)  -->
<svg version="1.1" id="Layer_1" xmlns="http://www.w3.org/2000/svg" xmlns:xlink="http://www.w3.org/1999/xlink" x="0px" y="0px"
	 viewBox="0 0 24 24" style="enable-background:new 0 0 24 24;" xml:space="preserve">
<path d="M5.8,0C4.5,0,3.4,1.1,3.4,2.4v19.2c0,1.3,1.1,2.4,2.4,2.4H19c1.3,0,2.4-1.1,2.4-2.4V2.4C21.3,1.1,20.3,0,19,0L5.8,0L5.8,0z
	 M5.8,0.6H19c1,0,1.8,0.8,1.8,1.8v19.2c0,1-0.8,1.8-1.8,1.8H5.8c-1,0-1.8-0.8-1.8-1.8V2.4C4,1.4,4.8,0.6,5.8,0.6L5.8,0.6z M6.9,3.3
	C6,3.3,5.3,4,5.3,4.9c0,0.9,0.7,1.6,1.6,1.6c0.9,0,1.6-0.7,1.6-1.6S7.8,3.3,6.9,3.3L6.9,3.3z M6.9,3.9c0.6,0,1,0.4,1,1
	c0,0.6-0.4,1-1,1c-0.6,0-1-0.4-1-1C5.9,4.3,6.4,3.9,6.9,3.9L6.9,3.9z M10.3,4.6c-0.2,0-0.3,0.2-0.3,0.3c0,0.2,0.2,0.3,0.3,0.3h8.5
	c0.1,0,0.3-0.1,0.3-0.3c0-0.2-0.1-0.3-0.3-0.3L10.3,4.6C10.4,4.6,10.4,4.6,10.3,4.6C10.3,4.6,10.3,4.6,10.3,4.6L10.3,4.6z M6.9,8
	C6,8,5.3,8.7,5.3,9.6s0.7,1.6,1.6,1.6c0.9,0,1.6-0.7,1.6-1.6S7.8,8,6.9,8L6.9,8z M6.9,8.6c0.6,0,1,0.4,1,1c0,0.6-0.4,1-1,1
	c-0.6,0-1-0.4-1-1C5.9,9.1,6.4,8.6,6.9,8.6L6.9,8.6z M10.3,9.3c-0.2,0-0.3,0.2-0.3,0.3c0,0.2,0.2,0.3,0.3,0.3h8.5
	c0.1,0,0.3-0.1,0.3-0.3S19,9.3,18.9,9.3L10.3,9.3C10.4,9.3,10.3,9.3,10.3,9.3C10.3,9.3,10.3,9.3,10.3,9.3L10.3,9.3z M6.9,12.8
	c-0.9,0-1.6,0.7-1.6,1.6C5.3,15.3,6,16,6.9,16c0.9,0,1.6-0.7,1.6-1.6C8.5,13.5,7.8,12.8,6.9,12.8L6.9,12.8z M6.9,13.4
	c0.6,0,1,0.4,1,1c0,0.6-0.4,1-1,1c-0.6,0-1-0.4-1-1C5.9,13.8,6.4,13.4,6.9,13.4L6.9,13.4z M10.3,14.1c-0.2,0-0.3,0.2-0.3,0.3
	c0,0.2,0.2,0.3,0.3,0.3h8.5c0.1,0,0.3-0.1,0.3-0.3c0-0.2-0.1-0.3-0.3-0.3H10.3C10.4,14.1,10.4,14.1,10.3,14.1
	C10.3,14.1,10.3,14.1,10.3,14.1L10.3,14.1z M6.9,17.5c-0.9,0-1.6,0.7-1.6,1.6c0,0.9,0.7,1.6,1.6,1.6c0.9,0,1.6-0.7,1.6-1.6
	C8.5,18.3,7.8,17.5,6.9,17.5L6.9,17.5z M6.9,18.1c0.6,0,1,0.4,1,1c0,0.6-0.4,1-1,1c-0.6,0-1-0.4-1-1C5.9,18.6,6.4,18.1,6.9,18.1
	L6.9,18.1z M10.3,18.8c-0.2,0-0.3,0.2-0.3,0.3c0,0.2,0.2,0.3,0.3,0.3h8.5c0.1,0,0.3-0.1,0.3-0.3c0-0.2-0.1-0.3-0.3-0.3H10.3
	C10.4,18.8,10.3,18.8,10.3,18.8C10.3,18.8,10.3,18.8,10.3,18.8L10.3,18.8z"/>
</svg>
