<?xml version="1.0" encoding="utf-8"?>
<!-- Generator: Adobe Illustrator 21.1.0, SVG Export Plug-In . SVG Version: 6.00 Build 0)  -->
<svg version="1.1" id="Layer_1" xmlns="http://www.w3.org/2000/svg" xmlns:xlink="http://www.w3.org/1999/xlink" x="0px" y="0px"
	 viewBox="0 0 24 24" style="enable-background:new 0 0 24 24;" xml:space="preserve">
<path d="M2.5,17.9c-1.4,0-2.5,1.1-2.5,2.5c0,1.4,1.1,2.5,2.5,2.5c1.4,0,2.5-1.1,2.5-2.5C5,19.1,3.9,17.9,2.5,17.9z M2.5,21.8
	c-0.7,0-1.3-0.6-1.3-1.3s0.6-1.3,1.3-1.3s1.3,0.6,1.3,1.3C3.8,21.2,3.2,21.8,2.5,21.8z M24,2.7v1.8H7.6V2.7H24z M7.6,19.5H24v1.8
	H7.6V19.5z M7.6,11.1H24v1.8H7.6V11.1z M2.5,9.5C1.1,9.5,0,10.6,0,12c0,1.4,1.1,2.5,2.5,2.5C3.9,14.5,5,13.4,5,12
	C5,10.6,3.9,9.5,2.5,9.5z M2.5,13.3c-0.7,0-1.3-0.6-1.3-1.3c0-0.7,0.6-1.3,1.3-1.3s1.3,0.6,1.3,1.3C3.8,12.7,3.2,13.3,2.5,13.3z
	 M2.5,1.1C1.1,1.1,0,2.2,0,3.6c0,1.4,1.1,2.5,2.5,2.5C3.9,6.1,5,4.9,5,3.6C5,2.2,3.9,1.1,2.5,1.1z M2.5,4.9c-0.7,0-1.3-0.6-1.3-1.3
	s0.6-1.3,1.3-1.3c0.7,0,1.3,0.6,1.3,1.3C3.8,4.3,3.2,4.9,2.5,4.9z"/>
</svg>
