<?xml version="1.0" encoding="UTF-8"?>
<svg xmlns="http://www.w3.org/2000/svg" xmlns:xlink="http://www.w3.org/1999/xlink" width="24pt" height="24pt" viewBox="0 0 24 24" version="1.1">
<g id="surface1">
<path style=" stroke:none;fill-rule:nonzero;fill:rgb(0%,0%,0%);fill-opacity:1;" d="M 2.398438 9.601562 C 1.089844 9.601562 0 10.691406 0 12 C 0 13.308594 1.089844 14.398438 2.398438 14.398438 C 3.710938 14.398438 4.800781 13.308594 4.800781 12 C 4.800781 10.691406 3.710938 9.601562 2.398438 9.601562 Z M 2.398438 13.417969 C 1.636719 13.417969 0.980469 12.761719 0.980469 12 C 0.980469 11.238281 1.636719 10.582031 2.398438 10.582031 C 3.164062 10.582031 3.816406 11.238281 3.816406 12 C 3.816406 12.761719 3.164062 13.417969 2.398438 13.417969 Z M 2.398438 18.109375 C 1.089844 18.109375 0 19.199219 0 20.507812 C 0 21.816406 1.089844 22.910156 2.398438 22.910156 C 3.710938 22.910156 4.800781 21.816406 4.800781 20.507812 C 4.800781 19.199219 3.710938 18.109375 2.398438 18.109375 Z M 2.398438 22.035156 C 1.636719 22.035156 0.980469 21.382812 0.980469 20.617188 C 0.980469 19.855469 1.636719 19.199219 2.398438 19.199219 C 3.164062 19.199219 3.816406 19.855469 3.816406 20.617188 C 3.816406 21.382812 3.164062 22.035156 2.398438 22.035156 Z M 24 2.726562 L 24 4.253906 L 7.636719 4.253906 L 7.636719 2.726562 Z M 2.398438 1.089844 C 1.089844 1.089844 0 2.183594 0 3.492188 C 0 4.800781 1.089844 5.890625 2.398438 5.890625 C 3.710938 5.890625 4.800781 4.800781 4.800781 3.492188 C 4.800781 2.183594 3.710938 1.089844 2.398438 1.089844 Z M 2.398438 4.910156 C 1.636719 4.910156 0.980469 4.253906 0.980469 3.492188 C 0.980469 2.726562 1.636719 2.074219 2.398438 2.074219 C 3.164062 2.074219 3.816406 2.726562 3.816406 3.492188 C 3.816406 4.253906 3.164062 4.910156 2.398438 4.910156 Z M 7.636719 11.238281 L 24 11.238281 L 24 12.761719 L 7.636719 12.761719 Z M 7.636719 19.746094 L 24 19.746094 L 24 21.273438 L 7.636719 21.273438 Z M 7.636719 19.746094 "/>
</g>
</svg>
