<?xml version="1.0" encoding="utf-8"?>
<!-- Generator: Adobe Illustrator 21.1.0, SVG Export Plug-In . SVG Version: 6.00 Build 0)  -->
<svg version="1.1" id="Layer_1" xmlns="http://www.w3.org/2000/svg" xmlns:xlink="http://www.w3.org/1999/xlink" x="0px" y="0px"
	 viewBox="0 0 24 24" style="enable-background:new 0 0 24 24;" xml:space="preserve">
<path d="M18.7,9V4.5c0-0.8-0.5-1.3-1.3-1.3H1.2c-0.8,0-1.3,0.5-1.3,1.3v13.8c0,0.8,0.5,1.3,1.3,1.3h16.2c0.8,0,1.3-0.5,1.3-1.3v-4.5
	l5.2,5.2l0.2,0.2V3.6L18.7,9z M23.6,4.9v13l-5.4-5.4v5.8c0,0.5-0.3,0.8-0.8,0.8H1.2c-0.5,0-0.8-0.3-0.8-0.8V4.5
	c0-0.5,0.3-0.8,0.8-0.8h16.2c0.5,0,0.8,0.3,0.8,0.8v5.8L23.6,4.9z"/>
</svg>
