<?xml version="1.0" encoding="utf-8"?>
<!-- Generator: Adobe Illustrator 21.1.0, SVG Export Plug-In . SVG Version: 6.00 Build 0)  -->
<svg version="1.1" id="Layer_1" xmlns="http://www.w3.org/2000/svg" xmlns:xlink="http://www.w3.org/1999/xlink" x="0px" y="0px"
	 viewBox="0 0 24 24" style="enable-background:new 0 0 24 24;" xml:space="preserve">
<path d="M18.9,8V4.8c0-1-0.7-1.7-1.7-1.7H1.7C0.7,3.1,0,3.8,0,4.8V18c0,1,0.7,1.7,1.7,1.7h15.4c1,0,1.7-0.7,1.7-1.7v-3.1L24,20V2.8
	L18.9,8z M1.4,4.8c0-0.2,0.1-0.3,0.3-0.3h15.4c0.2,0,0.3,0.1,0.3,0.3V18c0,0.2-0.1,0.3-0.3,0.3H1.7c-0.2,0-0.3-0.1-0.3-0.3V4.8z
	 M17.5,11.4l5-5v10.1L17.5,11.4z"/>
</svg>
