<?xml version="1.0" encoding="utf-8"?>
<!-- Generator: Adobe Illustrator 21.1.0, SVG Export Plug-In . SVG Version: 6.00 Build 0)  -->
<svg version="1.1" id="Layer_1" xmlns="http://www.w3.org/2000/svg" xmlns:xlink="http://www.w3.org/1999/xlink" x="0px" y="0px"
	 viewBox="0 0 24 24" style="enable-background:new 0 0 24 24;" xml:space="preserve">
<path d="M1.4,20.2v-3.6c1.8,1,5,1.6,8.2,1.6c1.5,0,2.9-0.1,4.2-0.3v-1.4c-1.2,0.2-2.6,0.3-4.2,0.3c-5.1,0-8.2-1.3-8.2-2v-3.6
	c1.8,1,5,1.6,8.2,1.6s6.4-0.5,8.2-1.6v2.1h1.4V3.8c0-2.2-4.8-3.4-9.5-3.4S0,1.6,0,3.8v16.3c0,2.2,4.8,3.4,9.5,3.4
	c0.9,0,1.7,0,2.6-0.1v-1.4c-0.8,0.1-1.7,0.1-2.6,0.1C4.5,22.2,1.4,20.9,1.4,20.2z M9.5,1.8c5.1,0,8.2,1.3,8.2,2s-3.1,2-8.2,2
	s-8.2-1.3-8.2-2S4.5,1.8,9.5,1.8z M1.4,5.7c1.8,1,5,1.6,8.2,1.6s6.4-0.5,8.2-1.6v3.6c0,0.7-3.1,2-8.2,2s-8.2-1.3-8.2-2V5.7z
	 M20,17.1L19.4,18l0.3,1.2c0.6,2.1,0.7,2.3,1.3,2.6c0.3,0.2,0.8,0.2,1.5,0c0.6-0.1,0.7-0.1,0.6,0.5c-0.1,0.5-0.1,0.5-0.9,0.8
	c-0.9,0.4-1.8,0.5-2.5,0.3c-0.8-0.2-1.3-0.8-1.7-2.6c-0.1-0.2-0.1-0.5-0.2-0.6c0-0.1-0.3,0.2-0.6,0.6c-1.2,1.8-2.2,2.6-3.1,2.6
	c-0.9,0-1.3-0.4-1.3-1.2c0-1,0.9-1.6,2.1-1.3c0.5,0.1,0.6,0.1,0.7,0c0.2-0.2,1.3-1.5,1.6-2l0.3-0.4l-0.5-1.6c-0.5-1.7-0.6-2-1.1-2.2
	c-0.2-0.1-0.4-0.1-1,0c-0.9,0.2-1,0.1-0.8-0.5c0.1-0.4,0.2-0.4,1-0.7c1.5-0.6,2.6-0.5,3.2,0.4c0.1,0.2,0.4,0.8,0.6,1.4
	c0.2,0.6,0.3,1.1,0.3,1.1c0,0,0.3-0.4,0.6-0.8c0.6-0.9,1.4-1.8,1.8-2.1c0.2-0.1,0.5-0.3,0.7-0.3c0.9-0.3,1.8,0.2,1.8,0.9
	c0.1,1.2-0.7,1.7-2.1,1.5l-0.6-0.1L21,15.8C20.8,16,20.3,16.6,20,17.1z"/>
</svg>
