<?xml version="1.0" encoding="utf-8"?>
<!-- Generator: Adobe Illustrator 21.1.0, SVG Export Plug-In . SVG Version: 6.00 Build 0)  -->
<svg version="1.1" id="Layer_1" xmlns="http://www.w3.org/2000/svg" xmlns:xlink="http://www.w3.org/1999/xlink" x="0px" y="0px"
	 viewBox="0 0 24 24" style="enable-background:new 0 0 24 24;" xml:space="preserve">
<path d="M13.9,13c0,0.4-0.3,0.7-0.7,0.7H4.5c-0.4,0-0.7-0.3-0.7-0.7s0.3-0.7,0.7-0.7h8.7C13.6,12.4,13.9,12.6,13.9,13z M19,9H4.6
	c-0.2,0-0.3,0-0.4,0C3.9,9.2,3.8,9.4,3.8,9.6c0,0.4,0.3,0.7,0.7,0.7H19c0.4,0,0.7-0.3,0.7-0.7S19.4,9,19,9z M24,4.4v10.4
	c0,2.4-2,4.4-4.4,4.4h-2.7l-1.2,4.2c-0.2,0.3-0.5,0.5-0.8,0.5c-0.3,0-0.6-0.2-0.8-0.4l-4.1-4.3H4.4c-2.4,0-4.4-2-4.4-4.4V4.4
	C0,2,1.9,0.1,4.4,0l15.1,0C22,0,24,2,24,4.4z M22.5,14.7V4.4c0-1.7-1.3-3-3-3H4.3c-1.7,0-3,1.3-3,3v10.3c0,1.7,1.4,3,3.1,3h5.7
	c0.2,0,0.3,0.1,0.5,0.2l3.9,4.1l1.1-3.8c0-0.3,0.4-0.5,0.6-0.5h3.3C21.2,17.7,22.5,16.4,22.5,14.7z M19,5.2H4.5
	c-0.4,0-0.7,0.3-0.7,0.7c0,0.4,0.3,0.7,0.7,0.7H19c0.4,0,0.7-0.3,0.7-0.7C19.7,5.5,19.4,5.2,19,5.2z"/>
</svg>
