<?xml version="1.0" encoding="UTF-8"?>
<svg xmlns="http://www.w3.org/2000/svg" xmlns:xlink="http://www.w3.org/1999/xlink" width="24pt" height="24pt" viewBox="0 0 24 24" version="1.1">
<g id="surface1">
<path style=" stroke:none;fill-rule:nonzero;fill:rgb(0%,0%,0%);fill-opacity:1;" d="M 21.273438 12 C 21.273438 10.582031 20.074219 9.382812 18.65625 9.382812 L 18.546875 9.382812 L 18.546875 6.761719 C 18.546875 3.054688 15.492188 0 11.78125 0 C 8.074219 0 5.019531 3.054688 5.019531 6.761719 L 5.019531 9.382812 C 3.710938 9.492188 2.726562 10.691406 2.726562 12 L 2.726562 21.382812 C 2.726562 22.800781 3.925781 24 5.34375 24 L 18.65625 24 C 20.074219 24 21.273438 22.800781 21.273438 21.382812 Z M 11.78125 0.980469 C 14.945312 0.980469 17.453125 3.492188 17.453125 6.65625 L 17.453125 9.601562 L 16.144531 9.601562 L 16.144531 6.65625 C 16.144531 4.253906 14.183594 2.183594 11.671875 2.183594 C 10.472656 2.183594 9.382812 2.617188 8.507812 3.492188 C 7.855469 4.472656 7.308594 5.5625 7.308594 6.761719 L 7.308594 9.710938 L 6 9.710938 L 6 6.761719 C 6.109375 3.601562 8.617188 0.980469 11.78125 0.980469 Z M 15.164062 6.761719 L 15.164062 9.382812 L 8.289062 9.382812 L 8.289062 6.761719 C 8.398438 5.78125 8.726562 4.910156 9.382812 4.363281 C 10.035156 3.816406 10.910156 3.273438 11.78125 3.273438 L 11.78125 2.726562 L 11.78125 3.273438 C 13.636719 3.273438 15.164062 4.800781 15.164062 6.761719 Z M 18.65625 23.019531 L 5.34375 23.019531 L 5.34375 23.5625 L 5.34375 23.019531 C 4.472656 23.019531 3.710938 22.253906 3.710938 21.382812 L 3.710938 12 C 3.710938 11.128906 4.472656 10.363281 5.34375 10.363281 L 18.65625 10.363281 C 19.527344 10.363281 20.289062 11.128906 20.289062 12 L 20.289062 21.382812 C 20.289062 22.253906 19.527344 23.019531 18.65625 23.019531 Z M 16.035156 13.964844 L 7.964844 13.964844 L 7.964844 12.871094 L 15.925781 12.871094 L 15.925781 13.964844 Z M 16.035156 16.144531 L 7.964844 16.144531 L 7.964844 15.054688 L 15.925781 15.054688 L 15.925781 16.144531 Z M 16.035156 16.144531 "/>
</g>
</svg>
