<?xml version="1.0" encoding="utf-8"?>
<!-- Generator: Adobe Illustrator 21.1.0, SVG Export Plug-In . SVG Version: 6.00 Build 0)  -->
<svg version="1.1" id="Layer_1" xmlns="http://www.w3.org/2000/svg" xmlns:xlink="http://www.w3.org/1999/xlink" x="0px" y="0px"
	 viewBox="0 0 24 24" style="enable-background:new 0 0 24 24;" xml:space="preserve">
<path d="M18.7,9.2V6.9c0-3.8-3.1-6.9-6.9-6.9C8,0,4.9,3.1,4.9,6.9v2.4C3.6,9.4,2.7,10.6,2.7,12v9.2C2.7,22.7,4,24,5.5,24h13
	c1.5,0,2.8-1.3,2.8-2.8V12C21.3,10.5,20.1,9.3,18.7,9.2z M9.6,4.7c0.5-0.5,1.4-1,2.2-1c1.7,0,3.1,1.4,3.1,3.2v2.3H8.6l0-2.3
	C8.7,5.9,9.1,5.2,9.6,4.7z M11.8,1.5c3,0,5.3,2.3,5.3,5.3v2.6h-0.8V6.8c0-2.6-2.1-4.6-4.6-4.6c-1.3,0-2.4,0.5-3.3,1.4
	c-0.6,0.9-1.2,2-1.2,3.3v2.6H6.4V6.9C6.5,3.8,8.9,1.5,11.8,1.5z M18.5,22.5H5.7H5.5c-0.7,0-1.4-0.6-1.4-1.4V12
	c0-0.7,0.6-1.4,1.4-1.4h13c0.7,0,1.4,0.6,1.4,1.4v9.2C19.9,21.9,19.2,22.5,18.5,22.5z M7.8,14.7h8.3v1.3H16v0.2H7.8V14.7z M7.8,12.6
	h8.3v1.3H16v0.2H7.8V12.6z"/>
</svg>
