<?xml version="1.0" encoding="utf-8"?>
<!-- Generator: Adobe Illustrator 21.1.0, SVG Export Plug-In . SVG Version: 6.00 Build 0)  -->
<svg version="1.1" id="Layer_1" xmlns="http://www.w3.org/2000/svg" xmlns:xlink="http://www.w3.org/1999/xlink" x="0px" y="0px"
	 viewBox="0 0 24 24" style="enable-background:new 0 0 24 24;" xml:space="preserve">
<path transform="translate(0,-952.36218)" d="M8.6,953.9c0,0.5-0.4,0.9-0.9,0.9H1.8v19.1h5.8c0.5,0,0.9,0.4,0.9,0.9
	s-0.4,0.9-0.9,0.9H0.9c-0.5,0-0.9-0.4-0.9-0.9l0-20.9c0-0.5,0.4-0.9,0.9-0.9h6.8C8.2,953,8.6,953.4,8.6,953.9L8.6,953.9z M24,964.4
	c0,0.2-0.1,0.5-0.2,0.6l-4.9,5.2c-0.3,0.3-1,0.4-1.3,0.1c-0.4-0.3-0.3-1,0-1.3l3.5-3.7H5.2c-0.5,0-0.9-0.4-0.9-0.9
	c0-0.5,0.4-0.9,0.9-0.9H21l-3.5-3.7c-0.4-0.3-0.4-1,0-1.3c0.4-0.3,1-0.2,1.3,0.1l4.9,5.2C23.9,963.9,24,964.1,24,964.4L24,964.4z"/>
</svg>
