<?xml version="1.0" encoding="utf-8"?>
<!-- Generator: Adobe Illustrator 21.1.0, SVG Export Plug-In . SVG Version: 6.00 Build 0)  -->
<svg version="1.1" id="Layer_1" xmlns="http://www.w3.org/2000/svg" xmlns:xlink="http://www.w3.org/1999/xlink" x="0px" y="0px"
	 viewBox="0 0 24 24" style="enable-background:new 0 0 24 24;" xml:space="preserve">
<path d="M24,23.1C24,23.1,23.9,23,24,23.1L13.2,0.4c-0.1-0.2-0.2-0.3-0.4-0.3c-0.2-0.1-0.3,0-0.5,0C12.1,0.2,12,0.3,12,0.4L8.3,8.3
	L0.4,12c-0.2,0.1-0.3,0.2-0.3,0.4c-0.1,0.2-0.1,0.3,0,0.5c0.1,0.1,0.2,0.3,0.3,0.3L23,23.9c0.1,0,0.2,0.1,0.3,0.1
	c0.2,0,0.5-0.1,0.6-0.4L24,23.1L24,23.1z M2.2,12.6l6.4-3l11.5,11.5L2.2,12.6z M9.6,8.7l3-6.5l8.5,17.9L9.6,8.7z"/>
</svg>
