<?xml version="1.0" encoding="utf-8"?>
<!-- Generator: Adobe Illustrator 20.0.0, SVG Export Plug-In . SVG Version: 6.00 Build 0)  -->
<svg version="1.1" id="Layer_1" xmlns="http://www.w3.org/2000/svg" xmlns:xlink="http://www.w3.org/1999/xlink" x="0px" y="0px"
	 viewBox="0 0 340.2 340.2" style="enable-background:new 0 0 340.2 340.2;" xml:space="preserve">
<style type="text/css">
	.st0{fill:#1794EF;}
</style>
<title>logo_final-05</title>
<g>
	<path class="st0" d="M335.5,115.7C316.4,58.8,268.7,16.2,210,3.7C124.7-14.5,38.2,35.9,12.3,119.3c-25.9,82.9,14.9,172,94.6,206.6
		c-3.4-2.1-6.6-4.4-9.8-6.9C39.6,274.7,28.8,192.3,73,134.8c7.2-9.3,15.6-17.7,24.9-24.7c23-17.4,50.9-26.9,79.7-27
		c9.2,0,18.4,1,27.4,2.9c21.5,4.6,41.5,14.5,58.2,28.9c0.6,0.5,1.2,1.2,1.9,1.7c8.2,0.1,16.3,1,24.3,2.7
		c10.3,2.2,20.3,5.7,29.7,10.4c5.7,2.9,12.6,0.7,15.6-4.9C336.2,121.9,336.5,118.6,335.5,115.7z"/>
	<path class="st0" d="M168.8,272.3c10.7-29.2,42.4-45,72.2-36c8.7,2.6,16.2-6.8,11.9-14.8c-20.8-39.3-69.5-54.3-108.8-33.5
		c-39.3,20.8-54.3,69.5-33.5,108.8c15.1,28.5,45.6,45.2,77.7,42.6C167.7,323.7,159.9,296.5,168.8,272.3z"/>
	<path class="st0" d="M293.6,168.3c-15.4-38.7-49.1-67.2-89.9-75.9c-64.8-14-130,26.1-147.1,90.1C40,244.8,73.5,309.5,133.9,331.9
		c-2.2-1.4-4.3-3-6.3-4.6c-37.6-29.8-44-84.5-14.1-122.1c5.1-6.4,11-12.1,17.7-16.8c14.8-10.6,32.6-16.3,50.8-16.4
		c5.3,0,10.6,0.5,15.8,1.5c6.6,1.2,13,3.2,19.1,5.9c14.7-4.5,30.3-5.2,45.4-2c5.8,1.2,11.5,3.1,16.9,5.4
		C288.2,186.6,297.2,177.4,293.6,168.3z"/>
</g>
</svg>
