<?xml version="1.0" encoding="utf-8"?>
<!-- Generator: Adobe Illustrator 21.1.0, SVG Export Plug-In . SVG Version: 6.00 Build 0)  -->
<svg version="1.1" id="Layer_1" xmlns="http://www.w3.org/2000/svg" xmlns:xlink="http://www.w3.org/1999/xlink" x="0px" y="0px"
	 viewBox="0 0 24 24" style="enable-background:new 0 0 24 24;" xml:space="preserve">
<path d="M9.2,16.2c0.1,0,0.3-0.2,0.6-0.7c0.6-0.8,1.1-1.4,1.6-1.8c0.2-0.1,0.4-0.3,0.7-0.3c0.9-0.2,1.6,0.1,1.6,0.8
	c0,1-0.7,1.4-1.8,1.2l-0.6-0.1l-0.3,0.3c-0.2,0.1-0.6,0.7-0.8,1l-0.6,0.8l0.3,1c0.6,1.8,0.7,2,1.1,2.2c0.2,0.1,0.7,0.1,1.2,0
	c0.6-0.1,0.6,0,0.4,0.4c-0.1,0.4-0.1,0.4-0.8,0.7c-0.8,0.3-1.6,0.3-2.1,0.2c-0.8-0.1-1.1-0.7-1.4-2.1c0-0.1-0.1-0.3-0.1-0.4
	c0-0.1-0.2,0.1-0.4,0.6c-1,1.6-1.9,2.2-2.7,2.2s-1.1-0.3-1.1-1c0-0.9,0.8-1.3,1.8-1.1c0.3,0.1,0.4,0.1,0.6,0
	c0.2-0.1,1.1-1.2,1.3-1.7l0.2-0.3l-0.3-1.3c-0.3-1.4-0.4-1.7-0.9-1.9c-0.2-0.1-0.3-0.1-0.9,0C4.9,15,4.8,15,5,14.4
	c0.1-0.3,0.1-0.4,0.8-0.7c1.3-0.4,2.2-0.4,2.7,0.3c0.1,0.2,0.3,0.7,0.4,1.2C9.1,15.8,9.2,16.2,9.2,16.2z M19.8,2.3
	c-0.5,0.4-0.9,0.8-1.3,1.3l2.1,1.9h-2.6c0,0,0,0,0,0h-3c0,0,0,0,0,0H9.4v1.5h6.3v0h1.5v0h3.5l-2.1,1.9c0.4,0.4,0.8,0.8,1.2,1.2
	L24,6.1L19.8,2.3z M15.7,7.9v14.6H1.5V1.5h14.2v2.9h1.5V0.1H0.1v24h17.1V7.9H15.7z"/>
</svg>
