<?xml version="1.0" encoding="utf-8"?>
<!-- Generator: Adobe Illustrator 21.1.0, SVG Export Plug-In . SVG Version: 6.00 Build 0)  -->
<svg version="1.1" id="Layer_1" xmlns="http://www.w3.org/2000/svg" xmlns:xlink="http://www.w3.org/1999/xlink" x="0px" y="0px"
	 viewBox="0 0 24 24" style="enable-background:new 0 0 24 24;" xml:space="preserve">
<path transform="translate(0,-952.36218)" d="M9,952.4c-5,0-9,4-9,9s4,9,9,9c1.8,0,3.4-0.5,4.8-1.4l6.8,6.8c0.8,0.8,2.1,0.8,2.8,0
	c0.8-0.8,0.8-2.1,0-2.8l-6.8-6.8c0.9-1.4,1.4-3,1.4-4.8C18,956.4,14,952.4,9,952.4L9,952.4z M9,953c4.6,0,8.3,3.7,8.3,8.3
	s-3.7,8.3-8.3,8.3s-8.3-3.7-8.3-8.3S4.4,953,9,953z M16.2,966.7l6.7,6.7c0.5,0.5,0.5,1.4,0,1.9c-0.5,0.5-1.4,0.5-1.9,0l-6.7-6.7
	C15.1,968.1,15.7,967.4,16.2,966.7z"/>
</svg>
