<?xml version="1.0" encoding="utf-8"?>
<!-- Generator: Adobe Illustrator 21.1.0, SVG Export Plug-In . SVG Version: 6.00 Build 0)  -->
<svg version="1.1" id="Layer_1" xmlns="http://www.w3.org/2000/svg" xmlns:xlink="http://www.w3.org/1999/xlink" x="0px" y="0px"
	 viewBox="0 0 24 24" style="enable-background:new 0 0 24 24;" xml:space="preserve">
<path d="M23.3,20.1l-6.4-6.4c0.8-1.4,1.3-2.9,1.3-4.6c0-5-4.1-9.1-9.1-9.1C4.1,0,0,4.1,0,9.1c0,5,4.1,9.1,9.1,9.1
	c1.7,0,3.2-0.4,4.6-1.3l6.4,6.4c0.4,0.4,1,0.7,1.7,0.7c0,0,0.1,0,0.1,0c0.6,0,1.1-0.3,1.5-0.7c0.5-0.5,0.7-1.1,0.7-1.7
	C24,21,23.7,20.5,23.3,20.1z M16.1,14.8l6.2,6.2c0.3,0.3,0.3,1,0,1.3c-0.3,0.3-1,0.3-1.3,0l-6.2-6.2C15.4,15.7,15.8,15.2,16.1,14.8z
	 M1.4,9c0-4.2,3.4-7.7,7.7-7.7c4.2,0,7.7,3.4,7.7,7.7c0,4.2-3.4,7.7-7.7,7.7C4.9,16.7,1.4,13.3,1.4,9z"/>
</svg>
