<?xml version="1.0" encoding="utf-8"?>
<!-- Generator: Adobe Illustrator 21.1.0, SVG Export Plug-In . SVG Version: 6.00 Build 0)  -->
<svg version="1.1" id="Layer_1" xmlns="http://www.w3.org/2000/svg" xmlns:xlink="http://www.w3.org/1999/xlink" x="0px" y="0px"
	 viewBox="0 0 24 24" style="enable-background:new 0 0 24 24;" xml:space="preserve">
<path transform="translate(0,-952.36218)" d="M1.3,957.3c-0.7,0-1.3,0.6-1.3,1.3v11.5c0,0.7,0.6,1.3,1.3,1.3h21.4
	c0.7,0,1.3-0.6,1.3-1.3v-11.5c0-0.7-0.6-1.3-1.3-1.3H1.3z M1.3,957.8h21.4c0.1,0,0.2,0,0.3,0l-10.3,8.4c-0.4,0.3-1.1,0.3-1.4,0
	L1,957.9C1.1,957.9,1.2,957.8,1.3,957.8z M0.6,958.2l7.9,6.4l-7.9,5.8c-0.1-0.1-0.1-0.3-0.1-0.4v-11.5
	C0.5,958.5,0.6,958.3,0.6,958.2z M23.4,958.2c0.1,0.1,0.1,0.2,0.1,0.4v11.5c0,0.1,0,0.3-0.1,0.4l-7.9-5.8L23.4,958.2z M8.9,965
	l2,1.6c0.6,0.5,1.5,0.5,2.1,0l2-1.6l7.9,5.8c-0.1,0-0.2,0-0.3,0H1.3c-0.1,0-0.2,0-0.3,0C1,970.8,8.9,965,8.9,965z"/>
</svg>
