<?xml version="1.0" encoding="utf-8"?>
<!-- Generator: Adobe Illustrator 21.1.0, SVG Export Plug-In . SVG Version: 6.00 Build 0)  -->
<svg version="1.1" id="Layer_1" xmlns="http://www.w3.org/2000/svg" xmlns:xlink="http://www.w3.org/1999/xlink" x="0px" y="0px"
	 viewBox="0 0 24 24" style="enable-background:new 0 0 24 24;" xml:space="preserve">
<path d="M24,6.5c0-0.4-0.1-0.7-0.4-1l0,0c0,0-0.1-0.1-0.1-0.1c0,0-0.1-0.1-0.1-0.1h0c-0.3-0.3-0.7-0.5-1.2-0.5H1.7
	C1.3,4.7,1,4.9,0.7,5.1l0,0c0,0,0,0.1-0.1,0.1c0,0-0.1,0.1-0.1,0.1h0c0,0.1-0.1,0.1-0.1,0.2l0,0C0.1,5.8,0,6.1,0,6.5v11
	c0,0.3,0.1,0.7,0.3,0.9l0,0c0,0,0.1,0.1,0.1,0.1c0,0,0.1,0.1,0.1,0.1h0c0.3,0.4,0.8,0.6,1.3,0.6h20.5c0.5,0,1-0.2,1.3-0.6h0
	c0,0,0,0,0,0c0,0,0.1-0.1,0.1-0.1l0,0c0.2-0.3,0.3-0.6,0.3-1V6.5z M21.2,6.2l-8.8,7.2c-0.2,0.2-0.6,0.1-0.8,0L2.7,6.2H21.2z
	 M1.5,16.9V7l6.4,5.2L1.5,16.9z M2.9,17.7L9,13.2l1.6,1.3c0.8,0.6,1.9,0.6,2.6,0l1.6-1.3l6.1,4.5H2.9z M22.5,17l-6.4-4.7L22.5,7V17z
	"/>
</svg>
