<?xml version="1.0" encoding="utf-8"?>
<!-- Generator: Adobe Illustrator 21.1.0, SVG Export Plug-In . SVG Version: 6.00 Build 0)  -->
<svg version="1.1" id="Layer_1" xmlns="http://www.w3.org/2000/svg" xmlns:xlink="http://www.w3.org/1999/xlink" x="0px" y="0px"
	 viewBox="0 0 24 24" style="enable-background:new 0 0 24 24;" xml:space="preserve">
<path d="M18.8,9.9c0,0.1,0,0.3,0,0.6v0.2h-0.2H5.2V9.5h13.4V10C18.7,10,18.8,9.9,18.8,9.9z M23.9,10v13.3c0,0.4-0.3,0.7-0.7,0.7H0.6
	c-0.4,0-0.7-0.3-0.7-0.7V10.1c0-0.2,0.2-0.4,0.3-0.5L2,8.2V3.9c0-0.4,0.3-0.7,0.7-0.7h5.2l3.7-3C11.7,0,12,0,12.3,0.2L16,3.2h5.2
	c0.4,0,0.7,0.3,0.7,0.7v4.2l1.7,1.4c0.1,0.1,0.1,0.2,0.2,0.2C23.8,9.9,23.9,9.9,23.9,10L23.9,10z M14.1,3.2l-2.2-1.8L9.8,3.2H14.1z
	 M20.7,10.5V4.5H3.2v6l8.8,3.9L22.2,10l-0.2-0.2V10L20.7,10.5z M1.8,9.9L2,10V9.8L1.8,9.9z M12,15.6l-0.3,0L1.3,11.1v11.6h21.2V11.1
	L12,15.6z M18.6,6.9V6.4H5.2v1.2h13.3h0.2V7.4c0-0.3,0-0.5,0-0.6C18.8,6.8,18.7,6.9,18.6,6.9z"/>
</svg>
