<?xml version="1.0" encoding="utf-8"?>
<!-- Generator: Adobe Illustrator 21.1.0, SVG Export Plug-In . SVG Version: 6.00 Build 0)  -->
<svg version="1.1" id="Layer_1" xmlns="http://www.w3.org/2000/svg" xmlns:xlink="http://www.w3.org/1999/xlink" x="0px" y="0px"
	 viewBox="0 0 24 24" style="enable-background:new 0 0 24 24;" xml:space="preserve">
<path d="M5.5,1.2v5.5H0l0-5.5H5.5z M5.5,17.5H0L0,23h5.5V17.5z M17.8,12.1c0,0.4,0.3,0.7,0.7,0.8v1.9H24V9.3h-5.5v1.9
	C18.1,11.3,17.8,11.7,17.8,12.1z M15.2,9.5c0,0.5,0.4,0.9,0.9,0.9c0.5,0,0.9-0.4,0.9-0.9c0-0.5-0.4-0.9-0.9-0.9
	C15.6,8.7,15.2,9,15.2,9.5z M13.5,8.8c0.5,0,0.9-0.4,0.9-0.9c0-0.5-0.4-0.9-0.9-0.9c-0.5,0-0.9,0.4-0.9,0.9
	C12.7,8.4,13,8.8,13.5,8.8z M10.5,6.8c0.5,0,0.9-0.4,0.9-0.9c0-0.5-0.4-0.9-0.9-0.9c-0.5,0-0.9,0.4-0.9,0.9C9.7,6.4,10,6.8,10.5,6.8
	z M6.7,3.9c0,0.5,0.4,0.9,0.9,0.9c0.5,0,0.9-0.4,0.9-0.9c0-0.5-0.4-0.9-0.9-0.9C7,3.1,6.7,3.5,6.7,3.9z M6.7,19.9
	c0,0.5,0.4,0.9,0.9,0.9c0.5,0,0.9-0.4,0.9-0.9C8.4,19.4,8,19,7.5,19C7,19,6.7,19.4,6.7,19.9z M9.2,18.3c0,0.5,0.4,0.9,0.9,0.9
	c0.5,0,0.9-0.4,0.9-0.9c0-0.5-0.4-0.9-0.9-0.9C9.6,17.4,9.2,17.8,9.2,18.3z M12.2,16.3c0,0.5,0.4,0.9,0.9,0.9c0.5,0,0.9-0.4,0.9-0.9
	c0-0.5-0.4-0.9-0.9-0.9C12.6,15.4,12.2,15.8,12.2,16.3z M15.2,14.3c0,0.5,0.4,0.9,0.9,0.9c0.5,0,0.9-0.4,0.9-0.9
	c0-0.5-0.4-0.9-0.9-0.9C15.6,13.4,15.2,13.8,15.2,14.3z"/>
</svg>
