<?xml version="1.0" encoding="utf-8"?>
<!-- Generator: Adobe Illustrator 21.1.0, SVG Export Plug-In . SVG Version: 6.00 Build 0)  -->
<svg version="1.1" id="Layer_1" xmlns="http://www.w3.org/2000/svg" xmlns:xlink="http://www.w3.org/1999/xlink" x="0px" y="0px"
	 viewBox="0 0 24 24" style="enable-background:new 0 0 24 24;" xml:space="preserve">
<path d="M18.3,12l-0.4-0.3l-8.2-6L9,5.2v13.5l0.6-0.5l8.2-6L18.3,12z M9.4,18V6l8.2,6L9.4,18z M12,0.4c6.4,0,11.6,5.2,11.6,11.6
	S18.4,23.6,12,23.6S0.4,18.4,0.4,12S5.6,0.4,12,0.4 M12,0C5.4,0,0,5.4,0,12s5.4,12,12,12s12-5.4,12-12S18.6,0,12,0L12,0z"/>
</svg>
