<?xml version="1.0" encoding="utf-8"?>
<!-- Generator: Adobe Illustrator 21.1.0, SVG Export Plug-In . SVG Version: 6.00 Build 0)  -->
<svg version="1.1" id="Layer_1" xmlns="http://www.w3.org/2000/svg" xmlns:xlink="http://www.w3.org/1999/xlink" x="0px" y="0px"
	 viewBox="0 0 24 24" style="enable-background:new 0 0 24 24;" xml:space="preserve">
<path d="M12,0C5.4,0,0,5.4,0,12s5.4,12,12,12s12-5.4,12-12S18.6,0,12,0z M12,22.7C6.1,22.7,1.3,17.9,1.3,12C1.3,6.1,6.1,1.3,12,1.3
	c5.9,0,10.7,4.8,10.7,10.7C22.7,17.9,17.9,22.7,12,22.7z M8.6,4.5v14.9l0.8-0.7l8.4-6.2l1.2-0.5l-8.9-6.6L8.6,4.5z M16.6,12L10,16.8
	V7.2L16.6,12z"/>
</svg>
