<?xml version="1.0" encoding="utf-8"?>
<!-- Generator: Adobe Illustrator 21.1.0, SVG Export Plug-In . SVG Version: 6.00 Build 0)  -->
<svg version="1.1" id="Layer_1" xmlns="http://www.w3.org/2000/svg" xmlns:xlink="http://www.w3.org/1999/xlink" x="0px" y="0px"
	 viewBox="0 0 24 24" style="enable-background:new 0 0 24 24;" xml:space="preserve">
<path d="M11.8,0.4L17.6,6h-4.3H13v0.3v9.2l-8.5,8.1L2.9,22l7.6-7.4l0.1-0.1v-0.1V6.3V6h-0.3H5.9L11.8,0.4 M16.1,17.6l4.5,4.4
	l-1.6,1.6l-4.5-4.4L16.1,17.6 M11.8,0L5.2,6.3h5.1v8.1L2.5,22l2,2l8.8-8.4V6.3h5.1L11.8,0L11.8,0z M16.1,17.2l-2,2l4.9,4.8l2-2
	L16.1,17.2L16.1,17.2z"/>
</svg>
