<?xml version="1.0" encoding="utf-8"?>
<!-- Generator: Adobe Illustrator 21.1.0, SVG Export Plug-In . SVG Version: 6.00 Build 0)  -->
<svg version="1.1" id="Layer_1" xmlns="http://www.w3.org/2000/svg" xmlns:xlink="http://www.w3.org/1999/xlink" x="0px" y="0px"
	 viewBox="0 0 24 24" style="enable-background:new 0 0 24 24;" xml:space="preserve">
<path d="M19.6,24h-0.2c-2.9,0-5.5-1.8-7.4-5.2C10.2,22.1,7.5,24,4.6,24H4.4V19h0.2c2,0,4.4-3.8,4.8-9.4H6.3L12-0.2l5.7,9.9h-3.2
	c0.4,5.5,2.8,9.4,4.8,9.4h0.2V24z M12,17.7l0.2,0.4c0.1,0.2,0.1,0.3,0.2,0.4c1.7,3.1,4.1,4.8,6.7,4.9v-4c-2.5-0.3-4.8-4.8-5.1-10.1
	l0-0.3h2.8L12,0.8L7.2,9.2H10l0,0.3c-0.3,5.3-2.6,9.8-5.1,10.1v4c2.6-0.1,5-1.8,6.7-4.9c0.1-0.1,0.1-0.3,0.2-0.4L12,17.7z"/>
</svg>
