<?xml version="1.0" encoding="utf-8"?>
<!-- Generator: Adobe Illustrator 21.1.0, SVG Export Plug-In . SVG Version: 6.00 Build 0)  -->
<svg version="1.1" id="Layer_1" xmlns="http://www.w3.org/2000/svg" xmlns:xlink="http://www.w3.org/1999/xlink" x="0px" y="0px"
	 viewBox="0 0 24 24" style="enable-background:new 0 0 24 24;" xml:space="preserve">
<path d="M19,18.6c-1.5,0-3.7-3.1-4.2-8.2h3.3L12,0L6,10.4h3.2c-0.4,4.8-2.5,8.2-4.2,8.2H4.5V24H5c2.7,0,5.2-1.7,7-4.6
	c1.8,2.9,4.1,4.5,6.7,4.6l0.5,0v-0.4h0h0.3v-5H19z M5.7,22.9v-3.1c2.5-0.6,4.5-4.8,4.8-9.9V9.3H8.1l3.9-6.9L16,9.1h-2.4l0,0.7
	c0.3,5,2.4,9.2,4.8,9.8v3.1c-2.2-0.2-4.2-1.8-5.7-4.4l-0.1-0.2c0-0.1,0-0.1-0.1-0.2L12,16.7l-0.4,1.3c-0.1,0.1-0.1,0.2-0.1,0.3
	l-0.1,0.1C9.9,21.1,7.9,22.6,5.7,22.9z"/>
</svg>
