<?xml version="1.0" encoding="utf-8"?>
<!-- Generator: Adobe Illustrator 21.1.0, SVG Export Plug-In . SVG Version: 6.00 Build 0)  -->
<svg version="1.1" id="Layer_1" xmlns="http://www.w3.org/2000/svg" xmlns:xlink="http://www.w3.org/1999/xlink" x="0px" y="0px"
	 viewBox="0 0 24 24" style="enable-background:new 0 0 24 24;" xml:space="preserve">
<path d="M20.7,15.9c0,0.4-0.3,0.7-0.7,0.7H6.5c-0.4,0-0.7-0.3-0.7-0.7c0-0.4,0.3-0.7,0.7-0.7H20C20.4,15.2,20.7,15.5,20.7,15.9z
	 M20,12.5H9.2c-0.4,0-0.7,0.3-0.7,0.7c0,0.4,0.3,0.7,0.7,0.7H20c0.4,0,0.7-0.3,0.7-0.7C20.7,12.8,20.4,12.5,20,12.5z M20,10H6.5
	c-0.4,0-0.7,0.3-0.7,0.7c0,0.4,0.3,0.7,0.7,0.7H20c0.4,0,0.7-0.3,0.7-0.7C20.7,10.2,20.4,10,20,10z M20,7.5H3.9
	c-0.4,0-0.7,0.3-0.7,0.7c0,0.4,0.3,0.7,0.7,0.7H20c0.4,0,0.7-0.3,0.7-0.7C20.7,7.7,20.4,7.5,20,7.5z M24,3.9v15.5
	c0,0.4-0.3,0.7-0.7,0.7h-3.2l0.6,3.3c0,0.5-0.3,0.7-0.6,0.7c-0.3,0-0.4-0.1-0.5-0.2l-5-3.7H0.7c-0.4,0-0.7-0.3-0.7-0.7V3.9
	c0-0.4,0.3-0.7,0.7-0.7h22.7C23.7,3.3,24,3.5,24,3.9z M19.5,18.9H23V4.6H1.3v14.2h13.5c0.2,0,0.3,0.1,0.5,0.2l4.1,3l-0.4-2.4
	C18.9,19.1,19.2,18.9,19.5,18.9z"/>
</svg>
