<?xml version="1.0" encoding="utf-8"?>
<!-- Generator: Adobe Illustrator 21.1.0, SVG Export Plug-In . SVG Version: 6.00 Build 0)  -->
<svg version="1.1" id="Layer_1" xmlns="http://www.w3.org/2000/svg" xmlns:xlink="http://www.w3.org/1999/xlink" x="0px" y="0px"
	 viewBox="0 0 24 24" style="enable-background:new 0 0 24 24;" xml:space="preserve">
<path transform="translate(0,-952.36218)" d="M20.3,960c0.2,0,0.3,0.1,0.3,0.3c0,0.2-0.1,0.3-0.3,0.3c0,0,0,0,0,0H3.6
	c-0.2,0-0.3-0.1-0.3-0.3c0-0.2,0.1-0.3,0.3-0.3c0,0,0,0,0,0H20.3z M20.3,962.6c0.2,0,0.3,0.1,0.3,0.3c0,0.2-0.1,0.3-0.3,0.3
	c0,0,0,0,0,0h-14c-0.2,0-0.3-0.1-0.3-0.3s0.1-0.3,0.3-0.3c0,0,0,0,0,0H20.3z M20.3,965.2c0.2,0,0.3,0.1,0.3,0.3
	c0,0.2-0.1,0.3-0.3,0.3c0,0,0,0,0,0H9.1c-0.2,0-0.3-0.1-0.3-0.3s0.1-0.3,0.3-0.3c0,0,0,0,0,0H20.3z M20.3,968c0.2,0,0.3,0.1,0.3,0.3
	s-0.1,0.3-0.3,0.3c0,0,0,0,0,0H6.3c-0.2,0-0.3-0.1-0.3-0.3c0-0.2,0.1-0.3,0.3-0.3c0,0,0,0,0,0H20.3z M23.7,955.7
	c0.2,0,0.3,0.1,0.3,0.3v16c0,0.2-0.1,0.3-0.3,0.3h-3.8l0.7,3.8c0,0.2-0.1,0.3-0.2,0.3c-0.1,0-0.2,0-0.2-0.1l-5.4-4H0.3
	c-0.2,0-0.3-0.1-0.3-0.3v-16c0-0.2,0.1-0.3,0.3-0.3C0.3,955.7,23.7,955.7,23.7,955.7z M23.4,956.3H0.6v15.4h14.3
	c0.1,0,0.1,0,0.2,0.1l5,3.7l-0.6-3.4c0-0.2,0.1-0.3,0.2-0.3c0,0,0,0,0.1,0h3.9V956.3L23.4,956.3z"/>
</svg>
