<?xml version="1.0" encoding="utf-8"?>
<!-- Generator: Adobe Illustrator 21.1.0, SVG Export Plug-In . SVG Version: 6.00 Build 0)  -->
<svg version="1.1" id="Layer_1" xmlns="http://www.w3.org/2000/svg" xmlns:xlink="http://www.w3.org/1999/xlink" x="0px" y="0px"
	 viewBox="0 0 24 24" style="enable-background:new 0 0 24 24;" xml:space="preserve">
<path d="M20.5,3.5C18.2,1.2,15.2,0,12,0C8.8,0,5.8,1.2,3.5,3.5C1.2,5.8,0,8.8,0,12c0,3.2,1.2,6.2,3.5,8.5C5.8,22.8,8.8,24,12,24
	c3.2,0,6.2-1.2,8.5-3.5c2.3-2.3,3.5-5.3,3.5-8.5C24,8.8,22.8,5.8,20.5,3.5z M12,0.9c3,0,5.8,1.2,7.8,3.3c2.1,2.1,3.3,4.9,3.3,7.8
	c0,3-1.2,5.8-3.3,7.8S15,23.1,12,23.1c-3,0-5.8-1.2-7.8-3.3S0.9,15,0.9,12c0-3,1.2-5.8,3.3-7.8C6.2,2.1,9,0.9,12,0.9z M6.1,12.5
	l11.7,0c0.2,0,0.5-0.2,0.5-0.5s-0.2-0.5-0.5-0.5H6.1c-0.2,0-0.5,0.2-0.5,0.4S5.9,12.5,6.1,12.5z"/>
</svg>
