<?xml version="1.0" encoding="utf-8"?>
<!-- Generator: Adobe Illustrator 21.1.0, SVG Export Plug-In . SVG Version: 6.00 Build 0)  -->
<svg version="1.1" id="Layer_1" xmlns="http://www.w3.org/2000/svg" xmlns:xlink="http://www.w3.org/1999/xlink" x="0px" y="0px"
	 viewBox="0 0 24 24" style="enable-background:new 0 0 24 24;" xml:space="preserve">
<path d="M18.4,12c0,0.4-0.4,0.7-0.7,0.7H6.2c-0.4,0-0.7-0.5-0.7-0.8c0-0.4,0.4-0.6,0.7-0.6h11.5C18.1,11.3,18.4,11.6,18.4,12z
	 M24,12c0,3.2-1.2,6.2-3.5,8.5S15.2,24,12,24s-6.2-1.2-8.5-3.5S0,15.2,0,12s1.2-6.2,3.5-8.5S8.8,0,12,0s6.2,1.2,8.5,3.5
	S24,8.8,24,12z M19.5,19.5c2-1.9,3.2-4.6,3.2-7.5c0-2.8-1.1-5.4-3.2-7.5c-1.9-2-4.6-3.2-7.5-3.2c-2.9,0-5.5,1.1-7.5,3.2
	c-2,1.9-3.2,4.6-3.2,7.5c0,2.7,1.1,5.3,3.2,7.5c1.9,2,4.6,3.2,7.5,3.2C14.7,22.6,17.3,21.5,19.5,19.5z"/>
</svg>
