<?xml version="1.0" encoding="UTF-8"?>
<svg xmlns="http://www.w3.org/2000/svg" xmlns:xlink="http://www.w3.org/1999/xlink" width="24pt" height="24pt" viewBox="0 0 24 24" version="1.1">
<g id="surface1">
<path style=" stroke:none;fill-rule:nonzero;fill:rgb(0%,0%,0%);fill-opacity:1;" d="M 16.910156 0 L 7.527344 0 C 6.761719 0 6.109375 0.65625 6.109375 1.417969 L 6.109375 22.472656 C 6.109375 23.238281 6.761719 23.890625 7.527344 23.890625 L 16.800781 23.890625 C 17.5625 23.890625 18.21875 23.238281 18.21875 22.472656 L 18.21875 1.417969 C 18.328125 0.65625 17.671875 0 16.910156 0 Z M 10.253906 0.4375 L 14.074219 0.4375 C 14.183594 0.4375 14.183594 0.546875 14.183594 0.65625 C 14.183594 0.761719 14.183594 0.871094 14.074219 0.871094 L 10.253906 0.871094 C 10.144531 0.871094 10.035156 0.761719 10.035156 0.65625 C 10.035156 0.546875 10.144531 0.4375 10.253906 0.4375 Z M 9.054688 0.4375 C 9.164062 0.4375 9.273438 0.546875 9.273438 0.65625 C 9.273438 0.761719 9.164062 0.871094 9.054688 0.871094 C 8.945312 0.871094 8.835938 0.761719 8.835938 0.65625 C 8.835938 0.546875 8.945312 0.4375 9.054688 0.4375 Z M 14.074219 22.800781 L 10.253906 22.800781 C 10.035156 22.800781 9.925781 22.691406 9.925781 22.472656 C 9.925781 22.253906 10.035156 22.144531 10.253906 22.144531 L 14.074219 22.144531 C 14.289062 22.144531 14.398438 22.253906 14.398438 22.472656 C 14.398438 22.691406 14.289062 22.800781 14.074219 22.800781 Z M 17.453125 21.054688 L 6.980469 21.054688 L 6.980469 1.308594 L 17.453125 1.308594 Z M 17.453125 21.054688 "/>
</g>
</svg>
