<?xml version="1.0" encoding="UTF-8"?>
<svg viewBox="0 0 15 18" version="1.1" xmlns="http://www.w3.org/2000/svg" xmlns:xlink="http://www.w3.org/1999/xlink">
    <title>Combined Shape Copy</title>
    <g id="Page-1" stroke="none" stroke-width="1" fill="none" fill-rule="evenodd">
        <g id="Group-97" transform="translate(-830.000000, -267.000000)">
            <g id="Group-96" transform="translate(826.000000, 261.000000)">
                <g id="Combined-Shape-Copy" transform="translate(4.000000, 6.000000)">
                    <path d="M10,5.0175778 L10,2 C10,0.9 9.1,0 8,0 L2,0 C0.9,0 0,0.9 0,2 L0,16 C0,17.1 0.9,18 2,18 L8,18 C9.1,18 10,17.1 10,16 L9.23786894,16 C9.23786894,16.9 8.56817584,17.2760065 7.66817584,17.2760065 L2.26850634,17.2760065 C1.36850634,17.2760065 0.771772192,16.5247312 0.771772192,15.6247312 L0.771772192,2.22473121 C0.771772192,1.32473121 1.36850634,0.705869137 2.26850634,0.705869137 L7.66817584,0.705869137 C8.56817584,0.705869137 9.23786894,1.3 9.23786894,2.2 L9.23786894,5.0175778 L10,5.0175778 Z" id="Combined-Shape" fill="#999999"></path>
                    <g id="cordova-Gray" transform="translate(5.000000, 6.000000)" fill-rule="nonzero" stroke="#999999" stroke-width="0.6">
                        <path d="M8.18180859,9 L6.72444141,9 L6.82671094,7.71425415 L6.11078906,7.71425415 L6.00851953,9 L2.99148047,9 L2.88917578,7.71425415 L2.17332422,7.71425415 L2.27562891,9 L0.81815625,9 L0,3.42853284 L2.04546094,0 L6.95453906,0 L9,3.42853284 L8.18180859,9 Z M6.54546094,1.71426642 L5.23051172,1.71426642 L5.31819141,2.35713935 L3.68180859,2.35713935 L3.76948828,1.71426642 L2.45453906,1.71426642 L1.63634766,3.42856967 L2.04546094,6.85710252 L6.95453906,6.85710252 L7.36365234,3.42856967 L6.54546094,1.71426642 Z" id="Shape"></path>
                    </g>
                    <path d="" id="Oval" stroke="#979797" stroke-width="1.3" fill="#999999"></path>
                    <polygon id="Rectangle" fill="#999999" points="0 2.56672454 10 2.56672454 10 3.12672454 0 3.12672454"></polygon>
                </g>
            </g>
        </g>
    </g>
</svg>