<?xml version="1.0" encoding="utf-8"?>
<!-- Generator: Adobe Illustrator 21.1.0, SVG Export Plug-In . SVG Version: 6.00 Build 0)  -->
<svg version="1.1" id="Layer_1" xmlns="http://www.w3.org/2000/svg" xmlns:xlink="http://www.w3.org/1999/xlink" x="0px" y="0px"
	 viewBox="0 0 14 14" style="enable-background:new 0 0 14 14;" xml:space="preserve">
<path d="M1.8,5.3c1,0,1.8,0.8,1.8,1.8S2.9,8.9,1.8,8.9S0,8.1,0,7.1S0.8,5.3,1.8,5.3z M7,5.3c1,0,1.8,0.8,1.8,1.8S8,8.9,7,8.9
	S5.2,8.1,5.2,7.1S6,5.3,7,5.3z M12.2,5.3c1,0,1.8,0.8,1.8,1.8s-0.8,1.8-1.8,1.8s-1.8-0.8-1.8-1.8S11.1,5.3,12.2,5.3z"/>
</svg>
