<?xml version="1.0" encoding="utf-8"?>
<!-- Generator: Adobe Illustrator 21.1.0, SVG Export Plug-In . SVG Version: 6.00 Build 0)  -->
<svg version="1.1" id="Layer_1" xmlns="http://www.w3.org/2000/svg" xmlns:xlink="http://www.w3.org/1999/xlink" x="0px" y="0px"
	 viewBox="0 0 24 24" style="enable-background:new 0 0 24 24;" xml:space="preserve">
<path d="M14.4,8.8H8.8C8.5,8.8,8.3,9,8.3,9.2v5.5c0,0.2,0.2,0.4,0.4,0.4h5.7c0.2,0,0.4-0.2,0.4-0.4V9.2C14.8,9,14.6,8.8,14.4,8.8z
	 M9.2,14.4V9.6H14v4.7H9.2z M14.4-0.1H8.8c-0.2,0-0.4,0.2-0.4,0.4v5.5c0,0.2,0.2,0.4,0.4,0.4h5.7c0.2,0,0.4-0.2,0.4-0.4V0.3
	C14.8,0.1,14.6-0.1,14.4-0.1z M9.2,5.4V0.7H14v4.7H9.2z M14.4,17.8C14.4,17.8,14.4,17.8,14.4,17.8H8.8c-0.2,0-0.4,0.2-0.4,0.4v5.5
	c0,0.2,0.2,0.4,0.4,0.4h5.7c0.2,0,0.4-0.2,0.4-0.4v-5.5c0-0.1,0-0.2-0.1-0.3C14.6,17.8,14.5,17.8,14.4,17.8z M9.2,23.3v-4.7H14v4.7
	H9.2z"/>
</svg>
