<?xml version="1.0" encoding="utf-8"?>
<!-- Generator: Adobe Illustrator 21.1.0, SVG Export Plug-In . SVG Version: 6.00 Build 0)  -->
<svg version="1.1" id="Layer_1" xmlns="http://www.w3.org/2000/svg" xmlns:xlink="http://www.w3.org/1999/xlink" x="0px" y="0px"
	 viewBox="0 0 20 20" style="enable-background:new 0 0 20 20;" xml:space="preserve">
<path d="M6.9,2.9C6.9,1.3,8.2,0,9.8,0c1.6,0,2.9,1.3,2.9,2.9s-1.3,2.9-2.9,2.9C8.2,5.8,6.9,4.5,6.9,2.9z M9.8,7.1
	c-1.6,0-2.9,1.3-2.9,2.9s1.3,2.9,2.9,2.9c1.6,0,2.9-1.3,2.9-2.9S11.3,7.1,9.8,7.1z M9.8,14.2c-1.6,0-2.9,1.3-2.9,2.9
	c0,1.6,1.3,2.9,2.9,2.9c1.6,0,2.9-1.3,2.9-2.9C12.6,15.5,11.3,14.2,9.8,14.2z"/>
</svg>
