<?xml version="1.0" encoding="utf-8"?>
<!-- Generator: Adobe Illustrator 21.1.0, SVG Export Plug-In . SVG Version: 6.00 Build 0)  -->
<svg version="1.1" id="Layer_1" xmlns="http://www.w3.org/2000/svg" xmlns:xlink="http://www.w3.org/1999/xlink" x="0px" y="0px"
	 viewBox="0 0 24 24" style="enable-background:new 0 0 24 24;" xml:space="preserve">
<path transform="translate(0,-952.36218)" d="M9.3,961c-0.3,0-0.5,0.2-0.5,0.5v5.5c0,0.3,0.2,0.5,0.5,0.5h5.4c0.3,0,0.5-0.2,0.5-0.5
	v-5.5c0-0.3-0.2-0.5-0.5-0.5H9.3z M9.8,962.1h4.3v4.5H9.8V962.1z M0.5,961c-0.3,0-0.5,0.2-0.5,0.5v5.5c0,0.3,0.2,0.5,0.5,0.5H6
	c0.3,0,0.5-0.2,0.5-0.5v-5.5c0-0.3-0.2-0.5-0.5-0.5H0.5z M1.1,962.1h4.3v4.5H1.1C1.1,966.6,1.1,962.1,1.1,962.1z M18,961
	c-0.3,0-0.5,0.2-0.5,0.5v5.5c0,0.3,0.2,0.5,0.5,0.5h5.4c0.3,0,0.5-0.2,0.5-0.5v-5.5c0-0.3-0.2-0.5-0.5-0.5H18z M18.6,962.1h4.3v4.5
	h-4.3V962.1z"/>
</svg>
