<?xml version="1.0" encoding="UTF-8"?>
<svg viewBox="0 0 9 15" version="1.1" xmlns="http://www.w3.org/2000/svg" xmlns:xlink="http://www.w3.org/1999/xlink">
    <title>Group 62</title>
    <g id="Page-1" stroke="none" stroke-width="1" fill="none" fill-rule="evenodd">
        <g id="Artboard" transform="translate(-71.000000, -182.000000)">
            <g id="Group-62" transform="translate(71.000000, 182.000000)">
                <g id="Group-61" fill="#999999" fill-rule="nonzero">
                    <g id="Group-60">
                        <path d="M8.1295111,15 C8.60941382,15 9,14.5986074 9,14.1051376 L9,0.894862382 C9,0.401392629 8.60941382,0 8.1295111,0 L0.870488904,0 C0.390586179,0 0,0.401392629 0,0.894862382 L0,14.1051376 C0,14.5986074 0.390586179,15 0.870488904,15 L8.1295111,15 Z M0.442224281,3.13866114 L8.55777572,3.13866114 L8.55777572,12.1386611 L0.442224281,12.1385465 L0.442224281,3.13866114 Z M0.87055207,0.454606454 L8.12957426,0.454606454 C8.36583042,0.454606454 8.55790205,0.765849481 8.55790205,1.14863439 L8.55790205,2.45460645 L0.442350613,2.45460645 L0.442350613,1.14863439 C0.442350613,0.765823894 0.634438034,0.454606454 0.870678401,0.454606454 L0.87055207,0.454606454 Z M0.442224281,14.1051376 L0.442224281,12.5930079 L8.55777572,12.5930079 L8.55765236,14.1051376 C8.55765236,14.3480089 8.36556493,14.5454585 8.12932457,14.5454585 L0.870302375,14.5454585 C0.634046216,14.5454585 0.441974586,14.3479927 0.441974586,14.1051376 L0.442224281,14.1051376 Z" id="Shape"></path>
                        <path d="M4.49987068,2 C4.53447798,2 4.56489985,1.99498132 4.59950501,1.98996307 C4.62992617,1.98494439 4.65950995,1.97490697 4.68992968,1.95985086 C4.71979283,1.94981393 4.74993463,1.93475782 4.77979706,1.91496162 C4.80463669,1.89488705 4.82975498,1.87509156 4.85487469,1.85501699 C4.94474207,1.76022219 5,1.63001764 5,1.50036268 C5,1.4351205 4.98967361,1.37043649 4.96008982,1.31020921 C4.93469218,1.2452454 4.90008488,1.19031852 4.8551469,1.14542999 C4.82974926,1.12535542 4.80491034,1.10026239 4.78006928,1.08548536 C4.75020613,1.06541079 4.72006433,1.05063377 4.6902019,1.04059613 C4.65978074,1.02554002 4.63019695,1.01550309 4.59977722,1.01048391 C4.43483222,0.975353237 4.26458577,1.03055848 4.14513174,1.14542785 C4.09963933,1.19031709 4.06503132,1.2452404 4.03963153,1.31020707 C4.01479189,1.3701517 4,1.4351155 4,1.50036053 C4,1.63000836 4.05470207,1.76021291 4.14512531,1.85501485 C4.2394582,1.9447919 4.36951511,2 4.49985067,2 L4.49987068,2 Z" id="Path"></path>
                    </g>
                    <g id="React-icon" transform="translate(1.000000, 4.000000)">
                        <path d="M7,3.5008011 C7,2.98008698 6.41928251,2.48661021 5.52894415,2.18059052 C5.73440685,1.16159304 5.64309009,0.350881209 5.24072564,0.0913252461 C5.14798206,0.0304417487 5.03954342,0.0016021973 4.921117,0.0016021973 L4.921117,0.358892195 C4.98675092,0.358892195 5.03954342,0.373311971 5.08377497,0.400549325 C5.27782307,0.525520714 5.36200571,1.00137331 5.29637179,1.61341268 C5.28067672,1.76401923 5.25499389,1.92263676 5.22360375,2.08445869 C4.94394619,2.00755322 4.63860579,1.94827192 4.31757032,1.90981918 C4.12494904,1.61341268 3.92519364,1.34424353 3.72401141,1.10872053 C4.18915614,0.623254749 4.62576437,0.357289998 4.92254382,0.357289998 L4.92254382,0 C4.92254382,0 4.92254382,0 4.92254382,0 C4.53016714,0 4.0165104,0.314030671 3.49714635,0.858777752 C2.97778231,0.317235065 2.46412556,0.0064087892 2.07174888,0.0064087892 L2.07174888,0.363698787 C2.36710151,0.363698787 2.80513657,0.628061341 3.27028129,1.11032273 C3.07052589,1.34584573 2.87077049,1.61341268 2.68100285,1.90981918 C2.35854056,1.94827192 2.05320016,2.00755322 1.7735426,2.08606088 C1.74072564,1.92584115 1.71646963,1.77042802 1.69934774,1.62142367 C1.632287,1.0093843 1.7150428,0.533531701 1.90766408,0.406958114 C1.95046881,0.378118563 2.00611496,0.365300984 2.07174888,0.365300984 L2.07174888,0.0080109865 C2.07174888,0.0080109865 2.07174888,0.0080109865 2.07174888,0.0080109865 C1.95189564,0.0080109865 1.84345699,0.0368505379 1.74928659,0.0977340352 C1.34834896,0.357289998 1.25845903,1.16639963 1.46534855,2.18219272 C0.57786384,2.4898146 0,2.98168917 0,3.5008011 C0,4.02151522 0.580717489,4.51499199 1.47105585,4.82101167 C1.26559315,5.84000916 1.35690991,6.65072099 1.75927436,6.91027695 C1.85201794,6.97116045 1.96045658,7 2.08030982,7 C2.47268651,7 2.98634325,6.68596933 3.5057073,6.14122225 C4.02507134,6.68276493 4.53872809,6.99359121 4.93110477,6.99359121 C5.05095801,6.99359121 5.15939666,6.96475166 5.25356706,6.90386816 C5.65450469,6.6443122 5.74439462,5.83520256 5.5375051,4.81940948 C6.42213616,4.51338979 7,4.01991302 7,3.5008011 Z M5.14227477,2.4321355 C5.08948227,2.63881895 5.02384835,2.85191119 4.94965349,3.06500343 C4.89115369,2.93682765 4.82980024,2.80865187 4.7627395,2.68047608 C4.69710558,2.5523003 4.62719119,2.42732891 4.5572768,2.30556191 C4.75988585,2.33920806 4.95536078,2.38086519 5.14227477,2.4321355 Z M4.48878924,4.13847562 C4.37749694,4.35477226 4.263351,4.55985351 4.14492458,4.75051499 C3.93232776,4.77134356 3.71687729,4.78255894 3.5,4.78255894 C3.28454953,4.78255894 3.06909906,4.77134356 2.85792907,4.75211719 C2.73950265,4.56145571 2.62392988,4.35797665 2.51263759,4.14328222 C2.40419894,3.93339437 2.30574806,3.72030213 2.21585813,3.50560769 C2.30432124,3.29091325 2.40419894,3.07621881 2.51121076,2.86633097 C2.62250306,2.65003433 2.736649,2.44495308 2.85507542,2.2542916 C3.06767224,2.23346304 3.28312271,2.22224765 3.5,2.22224765 C3.71545047,2.22224765 3.93090094,2.23346304 4.14207093,2.2526894 C4.26049735,2.44335088 4.37607012,2.64682994 4.48736241,2.86152438 C4.59580106,3.07141222 4.69425194,3.28450446 4.78414187,3.4991989 C4.69425194,3.71389334 4.59580106,3.92858778 4.48878924,4.13847562 Z M4.94965349,3.93018997 C5.026702,4.14488441 5.09233592,4.35957885 5.14655524,4.5678645 C4.95964126,4.61913481 4.7627395,4.66239414 4.55870363,4.69604028 C4.62861802,4.57267109 4.69853241,4.44609751 4.76416633,4.31631952 C4.82980024,4.18814374 4.89115369,4.05836576 4.94965349,3.93018997 Z M3.50285365,5.63973449 C3.37015899,5.48592355 3.23746433,5.31448844 3.10619649,5.12703136 C3.23461068,5.13344015 3.36587852,5.13824674 3.49857318,5.13824674 C3.63269466,5.13824674 3.76538932,5.13504234 3.89523033,5.12703136 C3.76681614,5.31448844 3.63412148,5.48592355 3.50285365,5.63973449 Z M2.44129637,4.69604028 C2.23868732,4.66239414 2.04321239,4.62073701 1.85629841,4.5694667 C1.90909091,4.36278325 1.97472483,4.149691 2.04891969,3.93659876 C2.10741949,4.06477455 2.16877293,4.19295033 2.23583367,4.32112612 C2.30289442,4.4493019 2.37138198,4.57427329 2.44129637,4.69604028 Z M3.49571953,1.3618677 C3.62841419,1.51567864 3.76110885,1.68711376 3.89237668,1.87457084 C3.76396249,1.86816205 3.63269466,1.86335546 3.5,1.86335546 C3.36587852,1.86335546 3.23318386,1.86655985 3.10334285,1.87457084 C3.23175703,1.68711376 3.36445169,1.51567864 3.49571953,1.3618677 Z M2.43986955,2.30556191 C2.36995516,2.42893111 2.30004077,2.55550469 2.23440685,2.68528267 C2.16877293,2.81345846 2.10741949,2.94163424 2.04891969,3.06981003 C1.97187118,2.85511559 1.90623726,2.64042115 1.85201794,2.4321355 C2.03893192,2.38246738 2.23583367,2.33920806 2.43986955,2.30556191 Z M1.14859356,4.31151293 C0.643497758,4.06958114 0.316754994,3.75234607 0.316754994,3.5008011 C0.316754994,3.24925612 0.643497758,2.93041886 1.14859356,2.69008927 C1.27130045,2.63080797 1.40542193,2.57793545 1.54382389,2.52826734 C1.62515287,2.84229801 1.7321647,3.16914626 1.86485936,3.50400549 C1.73359152,3.83726253 1.62800652,4.16250858 1.54810436,4.47493706 C1.40684876,4.42526894 1.27272727,4.37079423 1.14859356,4.31151293 Z M1.91622503,6.60105287 C1.72217693,6.47608148 1.63799429,6.00022889 1.70362821,5.38818952 C1.71932328,5.23758297 1.74500611,5.07896544 1.77639625,4.91714351 C2.05605381,4.99404898 2.36139421,5.05333028 2.68242968,5.09178302 C2.87505096,5.38818952 3.07480636,5.65735866 3.27598859,5.89288167 C2.81084386,6.37834745 2.37423563,6.6443122 2.07745618,6.6443122 C2.01324908,6.64271 1.95902976,6.62829023 1.91622503,6.60105287 Z M5.30065226,5.38017853 C5.367713,5.9922179 5.2849572,6.4680705 5.09233592,6.59464408 C5.04953119,6.62348363 4.99388504,6.63630121 4.92825112,6.63630121 C4.63289849,6.63630121 4.19486343,6.37193866 3.72971871,5.88967727 C3.92947411,5.65415427 4.12922951,5.38658732 4.31899715,5.09018082 C4.64145944,5.05172808 4.94679984,4.99244678 5.2264574,4.91393912 C5.25927436,5.07576104 5.2849572,5.23117418 5.30065226,5.38017853 Z M5.84997962,4.31151293 C5.72727273,4.37079423 5.59315124,4.42366674 5.45474929,4.47333486 C5.3734203,4.15930419 5.26640848,3.83245594 5.13371382,3.4975967 C5.26498166,3.16433967 5.37056665,2.83909361 5.45046881,2.52666514 C5.59172442,2.57633326 5.7258459,2.63080797 5.85140644,2.69008927 C6.35650224,2.93202106 6.68324501,3.24925612 6.68324501,3.5008011 C6.68181818,3.75234607 6.35507542,4.07118334 5.84997962,4.31151293 Z" id="Shape" stroke="#999999" stroke-width="0.1"></path>
                        <circle id="Oval" cx="3.5" cy="3.5" r="1"></circle>
                    </g>
                </g>
                <path d="" id="Rectangle-Copy-14" stroke="#979797" fill="#D8D8D8"></path>
            </g>
        </g>
    </g>
</svg>