<?xml version="1.0" encoding="UTF-8"?>
<svg viewBox="0 0 14 18" version="1.1" xmlns="http://www.w3.org/2000/svg" xmlns:xlink="http://www.w3.org/1999/xlink">
    <title>Combined Shape Copy 2</title>
    <g id="Page-1" stroke="none" stroke-width="1" fill="none" fill-rule="evenodd">
        <g id="Group-97" transform="translate(-518.000000, -267.000000)" fill="#999999">
            <g id="Group-95" transform="translate(509.000000, 261.000000)">
                <g id="Combined-Shape-Copy-2" transform="translate(9.000000, 6.000000)">
                    <path d="M10,5.0175778 L10,2 C10,0.9 9.1,0 8,0 L2,0 C0.9,0 0,0.9 0,2 L0,16 C0,17.1 0.9,18 2,18 L8,18 C9.1,18 10,17.1 10,16 L9.23786894,16 C9.23786894,16.9 8.56817584,17.2760065 7.66817584,17.2760065 L2.26850634,17.2760065 C1.36850634,17.2760065 0.771772192,16.5247312 0.771772192,15.6247312 L0.771772192,2.22473121 C0.771772192,1.32473121 1.36850634,0.705869137 2.26850634,0.705869137 L7.66817584,0.705869137 C8.56817584,0.705869137 9.23786894,1.3 9.23786894,2.2 L9.23786894,5.0175778 L10,5.0175778 Z" id="Combined-Shape"></path>
                    <g id="React-icon-Gray-Copy" transform="translate(3.000000, 5.000000)" fill-rule="nonzero">
                        <path d="M11,5.50125887 C11,4.68299382 10.0874439,3.90753033 8.68834081,3.42664225 C9.01121076,1.82536049 8.867713,0.551384756 8.23542601,0.143511101 C8.0896861,0.0478370336 7.91928251,0.00251773861 7.73318386,0.00251773861 L7.73318386,0.563973449 C7.83632287,0.563973449 7.91928251,0.586633097 7.98878924,0.629434653 C8.29372197,0.825818265 8.42600897,1.57358663 8.32286996,2.53536278 C8.29820628,2.77203021 8.25784753,3.02128634 8.20852018,3.27557794 C7.7690583,3.15472648 7.28923767,3.06157015 6.78475336,3.00114443 C6.48206278,2.53536278 6.16816143,2.1123827 5.85201794,1.74227512 C6.58295964,0.97940032 7.2690583,0.561455711 7.73542601,0.561455711 L7.73542601,0 C7.73542601,0 7.73542601,0 7.73542601,0 C7.11883408,0 6.31165919,0.493476768 5.4955157,1.3495079 C4.6793722,0.498512245 3.87219731,0.0100709545 3.25560538,0.0100709545 L3.25560538,0.571526665 C3.71973094,0.571526665 4.40807175,0.986953536 5.13901345,1.74479286 C4.82511211,2.11490043 4.51121076,2.53536278 4.21300448,3.00114443 C3.70627803,3.06157015 3.2264574,3.15472648 2.78699552,3.27809567 C2.73542601,3.02632181 2.69730942,2.78210117 2.67040359,2.54795148 C2.56502242,1.58617533 2.69506726,0.838406958 2.99775785,0.639505608 C3.06502242,0.594186313 3.15246637,0.574044404 3.25560538,0.574044404 L3.25560538,0.0125886931 C3.25560538,0.0125886931 3.25560538,0.0125886931 3.25560538,0.0125886931 C3.06726457,0.0125886931 2.89686099,0.0579079881 2.74887892,0.153582055 C2.11883408,0.561455711 1.97757848,1.83291371 2.30269058,3.42915999 C0.908071749,3.9125658 0,4.68551156 0,5.50125887 C0,6.31952392 0.912556054,7.09498741 2.31165919,7.57587549 C1.98878924,9.17715724 2.132287,10.451133 2.76457399,10.8590066 C2.9103139,10.9546807 3.08071749,11 3.2690583,11 C3.88565022,11 4.69282511,10.5065232 5.50896861,9.6504921 C6.32511211,10.5014878 7.132287,10.989929 7.74887892,10.989929 C7.93721973,10.989929 8.10762332,10.9446098 8.25560538,10.8489357 C8.88565022,10.441062 9.02690583,9.16960403 8.70179372,7.57335775 C10.0919283,7.09246967 11,6.31700618 11,5.50125887 Z M8.08071749,3.82192721 C7.99775785,4.1467155 7.89461883,4.48157473 7.77802691,4.81643397 C7.68609865,4.61501488 7.5896861,4.41359579 7.48430493,4.2121767 C7.38116592,4.01075761 7.27130045,3.814374 7.16143498,3.62302586 C7.47982063,3.67589837 7.78699552,3.74135958 8.08071749,3.82192721 Z M7.05381166,6.50331884 C6.87892377,6.84321355 6.69955157,7.16548409 6.51345291,7.46509499 C6.1793722,7.49782559 5.84080717,7.51544976 5.5,7.51544976 C5.16143498,7.51544976 4.82286996,7.49782559 4.49103139,7.46761273 C4.30493274,7.16800183 4.12331839,6.84824903 3.94843049,6.51087205 C3.77802691,6.18104829 3.62331839,5.84618906 3.48206278,5.50881209 C3.62107623,5.17143511 3.77802691,4.83405814 3.94618834,4.50423438 C4.12107623,4.16433967 4.30044843,3.84206912 4.48654709,3.54245823 C4.8206278,3.50972763 5.15919283,3.49210346 5.5,3.49210346 C5.83856502,3.49210346 6.17713004,3.50972763 6.50896861,3.53994049 C6.69506726,3.83955138 6.87668161,4.15930419 7.05156951,4.49668116 C7.22197309,4.82650492 7.37668161,5.16136416 7.51793722,5.49874113 C7.37668161,5.8361181 7.22197309,6.17349508 7.05381166,6.50331884 Z M7.77802691,6.17601282 C7.89910314,6.51338979 8.00224215,6.85076677 8.08744395,7.17807279 C7.79372197,7.25864042 7.48430493,7.32661936 7.16367713,7.37949187 C7.2735426,7.185626 7.38340807,6.98672465 7.48654709,6.78278782 C7.5896861,6.58136873 7.68609865,6.37743191 7.77802691,6.17601282 Z M5.5044843,8.86243992 C5.29596413,8.62073701 5.08744395,8.35133898 4.88116592,8.05676356 C5.08295964,8.06683452 5.28923767,8.07438773 5.49775785,8.07438773 C5.70852018,8.07438773 5.91704036,8.06935225 6.12107623,8.05676356 C5.91928251,8.35133898 5.71076233,8.62073701 5.5044843,8.86243992 Z M3.83632287,7.37949187 C3.51793722,7.32661936 3.21076233,7.26115816 2.91704036,7.18059052 C3,6.85580224 3.10313901,6.52094301 3.21973094,6.18608377 C3.31165919,6.38750286 3.40807175,6.58892195 3.51345291,6.79034104 C3.61883408,6.99176013 3.7264574,7.18814374 3.83632287,7.37949187 Z M5.49327354,2.14007782 C5.70179372,2.38178073 5.9103139,2.65117876 6.11659193,2.94575418 C5.91479821,2.93568322 5.70852018,2.92813001 5.5,2.92813001 C5.28923767,2.92813001 5.08071749,2.93316548 4.87668161,2.94575418 C5.07847534,2.65117876 5.28699552,2.38178073 5.49327354,2.14007782 Z M3.83408072,3.62302586 C3.72421525,3.81689174 3.61434978,4.01579309 3.51121076,4.21972992 C3.40807175,4.421149 3.31165919,4.62256809 3.21973094,4.82398718 C3.09865471,4.48661021 2.9955157,4.14923323 2.9103139,3.82192721 C3.20403587,3.74387732 3.51345291,3.67589837 3.83408072,3.62302586 Z M1.80493274,6.77523461 C1.01121076,6.39505608 0.497757848,5.89654383 0.497757848,5.50125887 C0.497757848,5.10597391 1.01121076,4.60494392 1.80493274,4.22728313 C1.99775785,4.1341268 2.20852018,4.05104143 2.42600897,3.97299153 C2.55381166,4.4664683 2.72197309,4.98008698 2.93049327,5.50629435 C2.72421525,6.02998398 2.55829596,6.54108492 2.43273543,7.03204395 C2.21076233,6.95399405 2,6.86839094 1.80493274,6.77523461 Z M3.01121076,10.3730831 C2.70627803,10.1766995 2.57399103,9.42893111 2.67713004,8.46715496 C2.70179372,8.23048753 2.74215247,7.9812314 2.79147982,7.7269398 C3.2309417,7.84779126 3.71076233,7.94094759 4.21524664,8.00137331 C4.51793722,8.46715496 4.83183857,8.89013504 5.14798206,9.26024262 C4.41704036,10.0231174 3.7309417,10.441062 3.26457399,10.441062 C3.16367713,10.4385443 3.07847534,10.4158846 3.01121076,10.3730831 Z M8.32959641,8.45456626 C8.43497758,9.41634241 8.30493274,10.1641108 8.00224215,10.3630121 C7.93497758,10.4083314 7.84753363,10.4284733 7.74439462,10.4284733 C7.28026906,10.4284733 6.59192825,10.0130465 5.86098655,9.25520714 C6.17488789,8.88509957 6.48878924,8.46463722 6.78699552,7.99885557 C7.29372197,7.93842985 7.7735426,7.84527352 8.21300448,7.72190433 C8.26457399,7.97619593 8.30493274,8.22041657 8.32959641,8.45456626 Z M9.19282511,6.77523461 C9,6.86839094 8.78923767,6.95147631 8.57174888,7.02952621 C8.44394619,6.53604944 8.27578475,6.02243076 8.06726457,5.49622339 C8.2735426,4.97253376 8.43946188,4.46143282 8.56502242,3.97047379 C8.78699552,4.04852369 8.99775785,4.1341268 9.19506726,4.22728313 C9.98878924,4.60746166 10.5022422,5.10597391 10.5022422,5.50125887 C10.5,5.89654383 9.98654709,6.39757382 9.19282511,6.77523461 Z" id="Shape"></path>
                        <path d="M5.68373672,6.59803162 C6.23602147,6.59803162 6.74316066,6.07158202 6.74316066,5.54388766 C6.74316066,5.0161933 6.23602147,4.4897437 5.68373672,4.4897437 C5.13145197,4.4897437 4.60901301,5.0161933 4.60901301,5.54388766 C4.60901301,6.07158202 5.13145197,6.59803162 5.68373672,6.59803162 Z" id="Oval"></path>
                    </g>
                    <path d="" id="Oval" stroke="#979797" stroke-width="1.3"></path>
                    <polygon id="Rectangle" points="0 2.56672454 10 2.56672454 10 3.12672454 0 3.12672454"></polygon>
                </g>
            </g>
        </g>
    </g>
</svg>