<?xml version="1.0" encoding="utf-8"?>
<!-- Generator: Adobe Illustrator 21.1.0, SVG Export Plug-In . SVG Version: 6.00 Build 0)  -->
<svg version="1.1" id="Layer_1" xmlns="http://www.w3.org/2000/svg" xmlns:xlink="http://www.w3.org/1999/xlink" x="0px" y="0px"
	 viewBox="0 0 24 24" style="enable-background:new 0 0 24 24;" xml:space="preserve">
<path d="M11.2,21.6c1.1,0,2.2-0.2,3.1-0.6v1.6c-1,0.3-2,0.5-3.1,0.5C5,23.2,0,18.2,0,12C0,5.8,5,0.8,11.2,0.8s11.2,5,11.2,11.2
	c0,0.3,0,0.7-0.1,1h-1.6c0-0.3,0.1-0.7,0.1-1c0-5.3-4.3-9.6-9.6-9.6S1.6,6.7,1.6,12C1.6,17.3,5.9,21.6,11.2,21.6z M15.7,7.5l-11.4,5
	c-0.2,0.1-0.3,0.2-0.2,0.4c0,0.2,0.1,0.3,0.3,0.4l4.8,1.2l1.2,4.8c0,0.2,0.2,0.3,0.4,0.3c0,0,0,0,0,0c0.2,0,0.3-0.1,0.4-0.2l5-11.4
	c0.1-0.1,0-0.3-0.1-0.5C16,7.4,15.8,7.4,15.7,7.5z M21.7,16.4l0.3-0.3l0.5,0.1c1,0.2,1.6-0.2,1.6-1.1c0-0.6-0.6-0.9-1.4-0.7
	c-0.2,0-0.4,0.2-0.6,0.3c-0.4,0.3-0.9,0.9-1.4,1.6c-0.2,0.4-0.4,0.6-0.5,0.6c0,0-0.1-0.4-0.2-0.8c-0.1-0.5-0.3-0.9-0.4-1.1
	c-0.4-0.7-1.2-0.7-2.4-0.3c-0.6,0.2-0.6,0.3-0.7,0.6c-0.2,0.5-0.1,0.5,0.6,0.4c0.5-0.1,0.6-0.1,0.8,0c0.4,0.2,0.5,0.4,0.8,1.7
	l0.3,1.2l-0.2,0.3c-0.2,0.4-1,1.4-1.2,1.5c-0.1,0.1-0.2,0.1-0.5,0c-0.9-0.2-1.6,0.2-1.6,1c0,0.6,0.3,0.9,1,0.9c0.7,0,1.5-0.6,2.4-2
	c0.2-0.4,0.4-0.6,0.4-0.5c0,0.1,0.1,0.3,0.1,0.4c0.3,1.3,0.6,1.8,1.3,1.9c0.5,0.1,1.2,0.1,1.9-0.2c0.6-0.2,0.6-0.2,0.7-0.6
	c0.1-0.4,0.1-0.5-0.4-0.4c-0.5,0.1-0.9,0.1-1.1,0c-0.4-0.2-0.5-0.4-1-2l-0.3-0.9l0.5-0.7C21.2,17,21.5,16.5,21.7,16.4z"/>
</svg>
