<?xml version="1.0" encoding="utf-8"?>
<!-- Generator: Adobe Illustrator 21.1.0, SVG Export Plug-In . SVG Version: 6.00 Build 0)  -->
<svg version="1.1" id="Layer_1" xmlns="http://www.w3.org/2000/svg" xmlns:xlink="http://www.w3.org/1999/xlink" x="0px" y="0px"
	 viewBox="0 0 24 24" style="enable-background:new 0 0 24 24;" xml:space="preserve">
<path d="M20.1,0H3.9C3.2,0,2.7,0.5,2.7,1.2v21.6c0,0.7,0.5,1.2,1.2,1.2h10.5c0.2,0,0.8,0,1.1-0.5c0.1,0,0.2-0.1,0.2-0.2
	c0,0,0-0.1,0.1-0.1l5.1-6.8c0.3-0.5,0.5-0.9,0.5-1.3V1.2C21.3,0.5,20.8,0,20.1,0z M19.1,16.4l-0.5,0.7l-3,4v-4.7H19.1z M19.9,15
	h-4.6c-0.7,0-1.2,0.5-1.2,1.2v6.4h-10V1.5h15.7C19.9,2.7,19.9,10,19.9,15z"/>
</svg>
