<?xml version="1.0" encoding="utf-8"?>
<!-- Generator: Adobe Illustrator 21.1.0, SVG Export Plug-In . SVG Version: 6.00 Build 0)  -->
<svg version="1.1" id="Layer_1" xmlns="http://www.w3.org/2000/svg" xmlns:xlink="http://www.w3.org/1999/xlink" x="0px" y="0px"
	 viewBox="0 0 24 24" style="enable-background:new 0 0 24 24;" xml:space="preserve">
<path d="M15.8,18.8l-0.1-0.1l-4.8,2.1l0,0.2c0,0.4,0.1,0.9,0.2,1.2c0.3,0.7,0.9,1.3,1.6,1.6C13,24,13.4,24,13.8,24
	c0.4,0,0.8-0.1,1.2-0.3c0.7-0.3,1.3-0.9,1.6-1.6c0.3-0.7,0.3-1.6,0-2.3C16.3,19.5,16.1,19.1,15.8,18.8z M16.1,22
	c-0.2,0.6-0.7,1.1-1.3,1.4c-0.6,0.3-1.3,0.3-1.9,0c-0.6-0.2-1.1-0.7-1.4-1.3c-0.1-0.3-0.2-0.6-0.2-0.9l4.2-1.9
	c0.2,0.2,0.4,0.5,0.5,0.7C16.3,20.7,16.3,21.3,16.1,22z M22.2,13.2c-0.4-1-1.6-1.1-2-1.1c-2.2-0.4-4.4-5.2-4.4-5.3
	C14.4,3.9,11.6,2,8.6,2c0-0.1-0.1-0.2-0.1-0.3C7.9,0.2,6.1-0.5,4.6,0.2C3.9,0.5,3.3,1.1,3,1.9c-0.3,0.7-0.3,1.6,0,2.3
	c0,0.1,0.1,0.2,0.1,0.2c-2,2.2-2.4,5.3-1.2,8.4l0,0c0,0,2.2,4.9,1,6.8c0,0-0.8,1-0.5,2.1c0.1,0.4,0.4,0.7,0.8,0.8
	c0.3,0.1,0.7,0.2,1.1,0.2c0.5,0,1-0.1,1.6-0.3l14.4-6.2C21.8,15.6,22.6,14.3,22.2,13.2z M20.2,15.8L5.7,22c-0.8,0.3-1.6,0.4-2.2,0.1
	c-0.2-0.1-0.5-0.3-0.6-0.6C2.7,20.8,3.3,20,3.4,20c1.4-2.2-0.8-7.1-0.9-7.3c-1.2-3-0.7-6,1.2-8l0.1-0.1L3.7,4.2
	C3.6,4.1,3.6,4,3.5,3.9C3.3,3.3,3.2,2.7,3.5,2c0.2-0.6,0.7-1.1,1.3-1.4c1.3-0.5,2.7,0,3.3,1.3c0,0.1,0.1,0.2,0.1,0.4l0,0.2l0.2,0
	c2.8-0.1,5.6,1.7,7,4.5c0.1,0.2,2.3,5.2,4.8,5.6c0.2,0,1.2,0.1,1.5,0.8C22.1,14.2,21.3,15.3,20.2,15.8z"/>
</svg>
