<?xml version="1.0" encoding="utf-8"?>
<!-- Generator: Adobe Illustrator 21.1.0, SVG Export Plug-In . SVG Version: 6.00 Build 0)  -->
<svg version="1.1" id="Layer_1" xmlns="http://www.w3.org/2000/svg" xmlns:xlink="http://www.w3.org/1999/xlink" x="0px" y="0px"
	 viewBox="0 0 24 24" style="enable-background:new 0 0 24 24;" xml:space="preserve">
<path d="M13.7,20.2h1.4v0.7c0,1.8-1.3,3.1-3.1,3.1c-1.7,0-3.1-1.4-3.1-3.1v-0.7h1.4v0.7c0,0.9,0.7,1.7,1.7,1.7
	c0.9,0,1.7-0.7,1.7-1.7V20.2z M20.6,12v7.7H3.5v-7.6c0-4.2,2.5-7.9,6.1-9.2V2.4C9.6,1.1,10.7,0,12,0c1.3,0,2.4,1.1,2.4,2.4v0.5
	C18,4.1,20.5,7.9,20.6,12z M19.1,18.4v-6.3C19.1,7.6,15.9,4,12,4s-7.1,3.6-7.1,8.1v6.3H19.1z M13.1,2.5c0-0.6-0.5-1.1-1.1-1.1
	c-0.6,0-1.1,0.5-1.1,1.1v0.1c0.4-0.1,0.7-0.1,1.1-0.1c0.2,0,0.4,0,0.6,0.1c0.2,0,0.3,0,0.5,0V2.5z"/>
</svg>
