<?xml version="1.0" encoding="utf-8"?>
<!-- Generator: Adobe Illustrator 21.1.0, SVG Export Plug-In . SVG Version: 6.00 Build 0)  -->
<svg version="1.1" id="Layer_1" xmlns="http://www.w3.org/2000/svg" xmlns:xlink="http://www.w3.org/1999/xlink" x="0px" y="0px"
	 viewBox="0 0 24 24" style="enable-background:new 0 0 24 24;" xml:space="preserve">
<path d="M14.3,2.9V2.3c0-1.3-1-2.3-2.3-2.3S9.7,1,9.7,2.3v0.6c-3.6,1.2-6.2,4.8-6.2,9.2v6.5V19v0.7h17.1V19v-0.5v-6.5
	C20.5,7.8,17.9,4.1,14.3,2.9z M10.8,2.4c0-0.6,0.5-1.2,1.2-1.2c0.6,0,1.2,0.5,1.2,1.2v0.3c-0.4,0-0.8-0.1-1.2-0.1s-0.8,0-1.2,0.1
	V2.4z M4.7,18.6v-6.5C4.7,7.5,8,3.8,12,3.8s7.3,3.7,7.3,8.3v6.5H4.7z M13.8,21c0,1-0.8,1.8-1.8,1.8S10.2,22,10.2,21v-0.6H9V21
	c0,1.6,1.3,3,3,3s3-1.3,3-3v-0.6h-1.2V21z"/>
</svg>
