<?xml version="1.0" encoding="utf-8"?>
<!-- Generator: Adobe Illustrator 21.1.0, SVG Export Plug-In . SVG Version: 6.00 Build 0)  -->
<svg version="1.1" id="Layer_1" xmlns="http://www.w3.org/2000/svg" xmlns:xlink="http://www.w3.org/1999/xlink" x="0px" y="0px"
	 viewBox="0 0 24 24" style="enable-background:new 0 0 24 24;" xml:space="preserve">
<path d="M22.4,13.1L22.4,13.1c-0.5-1.2-1.9-1.3-2.2-1.3c-1.8-0.3-3.7-4.3-4-4.8l0-0.1C14.9,4,12.1,2.1,9.2,2l0-0.1
	C8.9,1.2,8.2,0.5,7.4,0.2C6.6-0.1,5.7-0.1,4.9,0.3c-0.8,0.3-1.4,1-1.7,1.8c-0.3,0.8-0.3,1.7,0,2.5c0,0,0,0,0,0.1
	C1.3,6.8,0.9,9.8,2.1,13c0.6,1.3,1.9,4.9,1,6.2c0,0-0.9,1.1-0.6,2.3c0.1,0.5,0.5,0.9,1,1c1,0.3,1.7,0.3,2.9-0.1l4.3-1.9v0.2
	c0,0.4,0.1,1,0.2,1.3c0.3,0.8,1,1.4,1.7,1.7C13.1,24,13.6,24,14,24c0.4,0,0.9-0.1,1.3-0.3c0.8-0.3,1.4-1,1.7-1.7
	c0.3-0.8,0.3-1.7,0-2.5l-0.1-0.1c-0.1-0.1-0.2-0.3-0.3-0.4c-0.1-0.2-0.3-0.4-0.4-0.5l-0.1-0.1l4.3-1.9C22,15.8,22.9,14.3,22.4,13.1z
	 M15.5,19.5c0.1,0.1,0.2,0.3,0.2,0.4c0.2,0.6,0.3,1,0.1,1.7c-0.2,0.5-0.5,0.9-1.1,1.1c-0.5,0.2-1,0.2-1.6,0c-0.5-0.2-0.9-0.5-1.1-1
	c-0.1-0.2-0.1-0.4-0.2-0.5L15.5,19.5z M4,20.1L4,20.1L4.2,20c1.5-2.4-0.8-7.4-0.8-7.4C2.3,9.8,2.7,7.1,4.5,5.2L4.7,5L4.5,4.3
	L4.4,4.2c0,0-0.1-0.1-0.1-0.2c-0.2-0.5-0.2-1,0-1.5c0.2-0.5,0.5-0.9,1-1.1c1.1-0.4,2.2,0,2.7,1c0,0.1,0,0.1,0.1,0.2
	c0,0.1,0,0.1,0,0.1v0.6h0.6c2.6-0.1,5.1,1.6,6.5,4.2c0.7,1.6,2.6,5.2,4.9,5.6c0.2,0,0.9,0.1,1.1,0.6c0.1,0.2,0.1,0.4,0,0.6
	c-0.2,0.5-0.7,1-1.3,1.2l-14,6c-0.5,0.2-1.3,0.4-1.8,0.1c-0.2-0.1-0.4-0.2-0.4-0.4C3.7,20.8,3.9,20.3,4,20.1z"/>
</svg>
