<?xml version="1.0" encoding="utf-8"?>
<!-- Generator: Adobe Illustrator 21.1.0, SVG Export Plug-In . SVG Version: 6.00 Build 0)  -->
<svg version="1.1" id="Layer_1" xmlns="http://www.w3.org/2000/svg" xmlns:xlink="http://www.w3.org/1999/xlink" x="0px" y="0px"
	 viewBox="0 0 24 24" style="enable-background:new 0 0 24 24;" xml:space="preserve">
<path d="M24,1.2v5.5h-5.5V1.2H24z M18.5,23H24v-5.5h-5.5V23z M5.5,11.3V9.3H0v5.5h5.5v-1.9c0.4-0.1,0.7-0.4,0.7-0.8
	C6.2,11.7,5.9,11.3,5.5,11.3z M7.9,8.7C7.4,8.7,7.1,9,7.1,9.5c0,0.5,0.4,0.9,0.9,0.9c0.5,0,0.9-0.4,0.9-0.9C8.8,9,8.4,8.7,7.9,8.7z
	 M11.3,7.9c0-0.5-0.4-0.9-0.9-0.9c-0.5,0-0.9,0.4-0.9,0.9c0,0.5,0.4,0.9,0.9,0.9C11,8.8,11.3,8.4,11.3,7.9z M14.3,5.9
	c0-0.5-0.4-0.9-0.9-0.9c-0.5,0-0.9,0.4-0.9,0.9c0,0.5,0.4,0.9,0.9,0.9C14,6.8,14.3,6.4,14.3,5.9z M16.5,3.1c-0.5,0-0.9,0.4-0.9,0.9
	c0,0.5,0.4,0.9,0.9,0.9c0.5,0,0.9-0.4,0.9-0.9C17.3,3.5,17,3.1,16.5,3.1z M16.5,19c-0.5,0-0.9,0.4-0.9,0.9c0,0.5,0.4,0.9,0.9,0.9
	c0.5,0,0.9-0.4,0.9-0.9C17.3,19.4,17,19,16.5,19z M13.9,17.4c-0.5,0-0.9,0.4-0.9,0.9c0,0.5,0.4,0.9,0.9,0.9c0.5,0,0.9-0.4,0.9-0.9
	C14.8,17.8,14.4,17.4,13.9,17.4z M10.9,15.4c-0.5,0-0.9,0.4-0.9,0.9c0,0.5,0.4,0.9,0.9,0.9c0.5,0,0.9-0.4,0.9-0.9
	C11.8,15.8,11.4,15.4,10.9,15.4z M7.9,13.4c-0.5,0-0.9,0.4-0.9,0.9c0,0.5,0.4,0.9,0.9,0.9c0.5,0,0.9-0.4,0.9-0.9
	C8.8,13.8,8.4,13.4,7.9,13.4z"/>
</svg>
