<?xml version="1.0" encoding="UTF-8"?>
<svg xmlns="http://www.w3.org/2000/svg" xmlns:xlink="http://www.w3.org/1999/xlink" width="24pt" height="24pt" viewBox="0 0 24 24" version="1.1">
<g id="surface1">
<path style=" stroke:none;fill-rule:nonzero;fill:rgb(0%,0%,0%);fill-opacity:1;" d="M 20.289062 0 L 3.710938 0 C 3.164062 0 2.726562 0.4375 2.726562 0.980469 L 2.726562 23.019531 C 2.726562 23.5625 3.164062 24 3.710938 24 L 14.398438 24 C 14.726562 24 15.164062 23.890625 15.382812 23.5625 C 15.492188 23.5625 15.492188 23.453125 15.601562 23.34375 L 20.835938 16.363281 C 21.054688 16.035156 21.273438 15.601562 21.273438 15.164062 L 21.273438 0.980469 C 21.273438 0.4375 20.835938 0 20.289062 0 Z M 18.871094 17.34375 L 15.382812 22.035156 L 15.382812 16.253906 L 19.746094 16.253906 Z M 20.289062 15.273438 L 15.382812 15.273438 C 14.835938 15.273438 14.398438 15.710938 14.398438 16.253906 L 14.398438 23.019531 L 3.710938 23.019531 L 3.710938 0.980469 L 20.183594 0.980469 C 20.289062 0.980469 20.289062 15.273438 20.289062 15.273438 Z M 20.289062 15.273438 "/>
</g>
</svg>
