<?xml version="1.0" encoding="utf-8"?>
<!-- Generator: Adobe Illustrator 21.1.0, SVG Export Plug-In . SVG Version: 6.00 Build 0)  -->
<svg version="1.1" id="Layer_1" xmlns="http://www.w3.org/2000/svg" xmlns:xlink="http://www.w3.org/1999/xlink" x="0px" y="0px"
	 viewBox="0 0 24 24" style="enable-background:new 0 0 24 24;" xml:space="preserve">
<path d="M21.4,5.6l-5.3-5.3c-0.2-0.2-0.5-0.3-0.8-0.3H6.2c-0.9,0-1.6,0.7-1.6,1.6V20c0,0.9,0.7,1.6,1.6,1.6h14.1
	c0.9,0,1.6-0.7,1.6-1.6V6.4C21.8,6.1,21.6,5.8,21.4,5.6z M16.2,2.4l3.2,3.2h-3c-0.1,0-0.2-0.1-0.2-0.2C16.2,5.3,16.2,2.4,16.2,2.4z
	 M20.4,20.1c-0.1,0.1-0.1,0.2-0.3,0.2h-14c-0.1,0-0.2-0.1-0.2-0.2V1.6c0-0.1,0.1-0.2,0.2-0.2h8.7v3.9c0,0.9,0.7,1.6,1.6,1.6h3.9
	V20.1z M17.8,22.6H4.8c-0.6,0-1.2-0.5-1.2-1.2V3.9c0-0.4-0.3-0.7-0.7-0.7S2.2,3.5,2.2,3.9v17.6c0,1.4,1.2,2.5,2.5,2.5h13.2
	c0.4,0,0.7-0.3,0.7-0.7C18.5,22.9,18.2,22.6,17.8,22.6z"/>
</svg>
