<?xml version="1.0" encoding="utf-8"?>
<!-- Generator: Adobe Illustrator 21.1.0, SVG Export Plug-In . SVG Version: 6.00 Build 0)  -->
<svg version="1.1" id="Layer_1" xmlns="http://www.w3.org/2000/svg" xmlns:xlink="http://www.w3.org/1999/xlink" x="0px" y="0px"
	 viewBox="0 0 24 24" style="enable-background:new 0 0 24 24;" xml:space="preserve">
<path d="M17,0H3.6v24h17.6V4.2L17,0z M19.8,22.7H4.9V1.3h11.3v3.9h3.7v17.5H19.8z M19,3.9h-1.5V2.4L19,3.9z M6.4,15.7h12V17h-12
	C6.4,17,6.4,15.7,6.4,15.7z M6.4,12.8h12v1.3h-12C6.4,14.1,6.4,12.8,6.4,12.8z M6.4,9.8h12v1.3h-12C6.4,11.1,6.4,9.8,6.4,9.8z
	 M6.4,6.9h12v1.3h-12C6.4,8.2,6.4,6.9,6.4,6.9z"/>
</svg>
