<?xml version="1.0" encoding="UTF-8"?>
<svg xmlns="http://www.w3.org/2000/svg" xmlns:xlink="http://www.w3.org/1999/xlink" width="24pt" height="24pt" viewBox="0 0 24 24" version="1.1">
<g id="surface1">
<path style=" stroke:none;fill-rule:nonzero;fill:rgb(0%,0%,0%);fill-opacity:1;" d="M 0 23.019531 C 0 23.238281 0 23.5625 0.21875 23.671875 C 0.4375 23.890625 0.65625 24 0.871094 24 C 0.871094 24 0.871094 24 0.980469 24 C 1.089844 24 0.980469 24 1.089844 24 C 1.199219 24 1.199219 24 1.308594 24 L 8.074219 22.363281 C 8.183594 22.363281 8.289062 22.253906 8.398438 22.253906 C 8.507812 22.253906 8.617188 22.144531 8.726562 22.035156 L 23.5625 7.089844 C 23.890625 6.761719 24 6.4375 24 6 C 24 5.890625 24 5.78125 24 5.671875 C 24 5.453125 23.78125 5.128906 23.671875 4.910156 L 19.089844 0.328125 C 18.871094 0.109375 18.4375 -0.109375 18.109375 -0.109375 C 17.78125 -0.109375 17.34375 0 17.128906 0.328125 C 17.128906 0.328125 17.128906 0.328125 17.019531 0.4375 L 2.074219 15.382812 C 1.855469 15.601562 1.636719 16.035156 1.636719 16.363281 L 0 22.691406 C 0 22.800781 0 22.910156 0 23.019531 Z M 8.183594 21.382812 C 7.964844 21.601562 7.527344 21.601562 7.199219 21.382812 L 6.4375 20.617188 L 17.128906 9.925781 L 18 10.800781 C 18.109375 10.910156 18.328125 11.019531 18.546875 11.128906 Z M 13.855469 4.800781 L 14.617188 4.035156 C 14.726562 4.144531 14.726562 4.363281 14.945312 4.472656 L 19.527344 9.054688 C 19.636719 9.164062 19.855469 9.273438 20.074219 9.382812 L 19.199219 10.253906 C 18.980469 10.472656 18.65625 10.472656 18.4375 10.253906 L 13.855469 5.671875 C 13.636719 5.453125 13.636719 5.019531 13.855469 4.800781 Z M 14.726562 7.636719 L 16.472656 9.382812 L 5.78125 20.074219 L 4.035156 18.328125 Z M 17.671875 1.089844 C 17.890625 0.871094 18.21875 0.871094 18.4375 1.089844 L 23.019531 5.671875 C 23.238281 5.890625 23.238281 6.21875 23.019531 6.4375 L 21.054688 8.507812 C 20.835938 8.726562 20.507812 8.726562 20.289062 8.507812 L 15.710938 3.925781 C 15.492188 3.710938 15.492188 3.382812 15.710938 3.164062 Z M 2.726562 15.925781 L 13.089844 5.5625 C 13.089844 5.78125 13.199219 6 13.417969 6.109375 L 14.183594 7.089844 L 3.492188 17.78125 L 2.726562 17.019531 C 2.617188 16.910156 2.507812 16.691406 2.507812 16.582031 C 2.507812 16.472656 2.507812 16.144531 2.726562 15.925781 Z M 2.183594 17.671875 L 6.4375 21.925781 L 3.054688 22.691406 L 1.308594 20.945312 Z M 19.527344 6.21875 C 19.636719 6.328125 19.964844 6.328125 20.183594 6.21875 L 20.835938 5.5625 C 20.945312 5.453125 20.945312 5.34375 20.945312 5.238281 C 20.945312 5.128906 20.945312 5.019531 20.835938 4.910156 L 19.089844 3.164062 C 18.980469 3.054688 18.65625 3.054688 18.4375 3.164062 L 17.78125 3.816406 C 17.671875 3.925781 17.671875 4.035156 17.671875 4.144531 C 17.671875 4.253906 17.671875 4.363281 17.78125 4.472656 Z M 19.527344 6.21875 "/>
</g>
</svg>
