<?xml version="1.0" encoding="utf-8"?>
<!-- Generator: Adobe Illustrator 21.1.0, SVG Export Plug-In . SVG Version: 6.00 Build 0)  -->
<svg version="1.1" id="Layer_1" xmlns="http://www.w3.org/2000/svg" xmlns:xlink="http://www.w3.org/1999/xlink" x="0px" y="0px"
	 viewBox="0 0 24 24" style="enable-background:new 0 0 24 24;" xml:space="preserve">
<path d="M20.8,6l-0.7,0.7c-0.1,0.1-0.3,0.1-0.5,0.1c-0.2,0-0.4-0.1-0.5-0.2L17.3,5c-0.2-0.2-0.2-0.4-0.2-0.6s0-0.4,0.2-0.6l0.7-0.7
	c0.3-0.2,0.8-0.2,1,0.1l1.7,1.7C21,5.1,21,5.3,21,5.5C21,5.6,21,5.8,20.8,6z M23.9,5.9v0.3c0,0.5-0.2,0.9-0.5,1.3L9.1,21.9
	c-0.1,0.1-0.3,0.3-0.6,0.3c-0.1,0-0.2,0.1-0.3,0.1l-6.4,1.6l-0.3,0H1.3c-0.3,0-0.6-0.1-0.8-0.4c-0.4-0.2-0.4-0.7-0.4-0.9l0-0.4
	l1.6-6.1c0-0.4,0.3-0.9,0.5-1.2L16.7,0.5c0.3-0.5,1-0.5,1.2-0.5c0.4,0,0.9,0.3,1.2,0.5L23.6,5l0.1,0.2C23.8,5.4,23.9,5.6,23.9,5.9z
	 M15.8,3.9l4.4,4.4c0.1,0.1,0.2,0.1,0.2,0l1.9-2c0.1-0.1,0.1-0.2,0-0.2L18,1.7c-0.1-0.1-0.2-0.1-0.2,0l-1.9,2c0,0-0.1,0.1-0.1,0.1
	C15.8,3.9,15.8,3.9,15.8,3.9z M3.3,16.6l0.5,0.5l9.8-9.8l-0.5-0.6c-0.1,0-0.1-0.1-0.2-0.2L3.3,16c-0.1,0.1-0.1,0.3-0.1,0.4
	C3.2,16.4,3.3,16.5,3.3,16.6z M4.8,18.1L6,19.3l9.8-9.8l-1.2-1.2L4.8,18.1z M8.1,20.8l9.7-9.6c-0.1,0-0.1-0.1-0.2-0.1L17,10.5
	l-9.8,9.8l0.5,0.5C7.8,20.9,8,20.9,8.1,20.8L8.1,20.8z M14,5.6l4.4,4.4c0.1,0.1,0.2,0.1,0.2,0l0.5-0.5c-0.1,0-0.1-0.1-0.2-0.1
	L14.6,5c-0.1,0-0.1-0.1-0.2-0.1L14,5.3C14,5.4,14,5.6,14,5.6z M5.9,21.4l-3.2-3.2l-0.6,2.4l1.4,1.4L5.9,21.4z"/>
</svg>
