<?xml version="1.0" encoding="utf-8"?>
<!-- Generator: Adobe Illustrator 21.1.0, SVG Export Plug-In . SVG Version: 6.00 Build 0)  -->
<svg version="1.1" id="Layer_1" xmlns="http://www.w3.org/2000/svg" xmlns:xlink="http://www.w3.org/1999/xlink" x="0px" y="0px"
	 viewBox="0 0 24 24" style="enable-background:new 0 0 24 24;" xml:space="preserve">
<path d="M18.5,8c0.6,0,1.2-0.2,1.6-0.7c0.4-0.4,0.7-1,0.7-1.6s-0.2-1.2-0.7-1.6c-0.9-0.9-2.3-0.9-3.2,0C16,5,16,6.4,16.9,7.3
	C17.3,7.7,17.9,8,18.5,8z M17.9,5.1c0.2-0.2,0.4-0.3,0.6-0.3c0.2,0,0.5,0.1,0.6,0.3c0.4,0.4,0.4,0.9,0,1.3c-0.3,0.3-0.9,0.3-1.3,0
	l0,0c-0.2-0.2-0.3-0.4-0.3-0.6C17.6,5.5,17.7,5.3,17.9,5.1z M21.9,2.4c-1.4-1.4-3.3-2.2-5.3-2.1c-2,0.1-3.9,0.9-5,2.1
	C9.8,4.1,9.1,6.7,9.6,9.2l-9.2,9.2c-0.1,0.1-0.2,0.3-0.2,0.4L0,23.1c0,0.2,0.1,0.4,0.2,0.5c0.1,0.1,0.3,0.2,0.5,0.2c0,0,0,0,0,0
	l5.3-0.4c0.4,0,0.6-0.3,0.6-0.7v-2h2c0.2,0,0.4-0.1,0.5-0.2c0.1-0.1,0.2-0.3,0.2-0.5v-2h2c0.2,0,0.4-0.1,0.5-0.2l3.2-3.2
	c2.5,0.6,5.1-0.2,6.8-1.9c1.4-1.4,2.1-3.2,2.1-5.2S23.2,3.7,21.9,2.4z M5.5,19.5c-0.1,0.1-0.2,0.3-0.2,0.5v2l-4,0.3l0.2-3.2l9.3-9.3
	C11,9.7,11.1,9.4,11,9.2c-0.6-2.1,0-4.3,1.5-5.9c1.1-1.1,2.6-1.7,4.2-1.7c1.6,0,3.1,0.6,4.2,1.7c2.3,2.3,2.3,6.1,0,8.4
	c-1.5,1.5-3.8,2.1-5.9,1.5c-0.2-0.1-0.5,0-0.7,0.2l-3.3,3.3H8.7c-0.2,0-0.4,0.1-0.5,0.2C8.1,17,8,17.1,8,17.3v2H6
	C5.8,19.3,5.7,19.4,5.5,19.5z"/>
</svg>
