<?xml version="1.0" encoding="utf-8"?>
<!-- Generator: Adobe Illustrator 21.1.0, SVG Export Plug-In . SVG Version: 6.00 Build 0)  -->
<svg version="1.1" id="Layer_1" xmlns="http://www.w3.org/2000/svg" xmlns:xlink="http://www.w3.org/1999/xlink" x="0px" y="0px"
	 viewBox="0 0 24 24" style="enable-background:new 0 0 24 24;" xml:space="preserve">
<path d="M24,0.4l-0.1-0.1C23.8,0.2,23.6,0,23.4,0H0.6C0.3,0,0.1,0.3,0.1,0.6v22.7c0,0.3,0.3,0.6,0.6,0.6h22.7c0.3,0,0.6-0.3,0.6-0.6
	V0.6L24,0.4z M22.8,22.8H1.2V1.2h21.5V22.8z M8,7.9c0-2.2,1.8-4.1,4.1-4.1c2.2,0,4.1,1.8,4.1,4.1c0,2.2-1.8,4.1-4.1,4.1
	C9.8,12,8,10.2,8,7.9z M20.2,20.2H3.9v-2c0-2.7,5.4-4.1,8.2-4.1c2.7,0,8.2,1.4,8.2,4.1V20.2z"/>
</svg>
