<?xml version="1.0" encoding="utf-8"?>
<!-- Generator: Adobe Illustrator 21.1.0, SVG Export Plug-In . SVG Version: 6.00 Build 0)  -->
<svg version="1.1" id="Layer_1" xmlns="http://www.w3.org/2000/svg" xmlns:xlink="http://www.w3.org/1999/xlink" x="0px" y="0px"
	 viewBox="0 0 24 24" style="enable-background:new 0 0 24 24;" xml:space="preserve">
<style type="text/css">
	.st0{stroke:#000000;stroke-width:0.25;stroke-miterlimit:10;}
</style>
<path class="st0" d="M8.7,10.4H5.4V7.1H3.3v3.3H0v2.1h3.3v3.3h2.1v-3.3h3.3V10.4z M8.4,12.2h-3H5.1v0.3v3H3.6v-3v-0.3H3.3h-3v-1.5h3
	h0.3v-0.3v-3h1.5v3v0.3h0.3h3V12.2z M15.3,14.6c-2.9,0-8.7,1.6-8.7,4.5v2.1H24v-2.1C24,16.2,18.2,14.6,15.3,14.6z M23.7,20.9H6.9
	v-1.8c0-2.6,5.4-4.2,8.4-4.2c3,0,8.4,1.6,8.4,4.2V20.9z M15.2,12.5c2.4,0,4.3-2,4.3-4.3c0-2.4-2-4.4-4.3-4.4c-2.4,0-4.4,2-4.4,4.4
	C10.8,10.5,12.8,12.5,15.2,12.5z M15.2,4.1c2.2,0,4,1.8,4,4.1c0,2.2-1.8,4-4,4c-2.2,0-4.1-1.8-4.1-4C11.1,5.9,12.9,4.1,15.2,4.1z"/>
</svg>
