<?xml version="1.0" encoding="utf-8"?>
<!-- Generator: Adobe Illustrator 21.1.0, SVG Export Plug-In . SVG Version: 6.00 Build 0)  -->
<svg version="1.1" id="Layer_1" xmlns="http://www.w3.org/2000/svg" xmlns:xlink="http://www.w3.org/1999/xlink" x="0px" y="0px"
	 viewBox="0 0 24 24" style="enable-background:new 0 0 24 24;" xml:space="preserve">
<path d="M6.3,9.9V6.7h-3v3.2H0v3h3.2v3.2h3V13h3.2v-3H6.3z M5,11.7v3.2H4.5v-3.2H1.3v-0.5h3.2V8H5v3.2h3.2v0.5H5z M16,11.8
	c-2.2,0-4-1.8-4-4c0-2.2,1.8-4,4-4c2.2,0,4,1.8,4,4C20,10,18.2,11.8,16,11.8z M16,13.8c2.7,0,8,1.3,8,4v2H8v-2
	C8,15.2,13.3,13.8,16,13.8z"/>
</svg>
