<?xml version="1.0" encoding="utf-8"?>
<!-- Generator: Adobe Illustrator 21.1.0, SVG Export Plug-In . SVG Version: 6.00 Build 0)  -->
<svg version="1.1" id="Layer_1" xmlns="http://www.w3.org/2000/svg" xmlns:xlink="http://www.w3.org/1999/xlink" x="0px" y="0px"
	 viewBox="0 0 24 24" style="enable-background:new 0 0 24 24;" xml:space="preserve">
<path d="M23.9-0.1H0.1C0-0.1-0.1,0-0.1,0.1v23.7c0,0.1,0.1,0.3,0.3,0.3h23.7c0.1,0,0.3-0.1,0.3-0.3V0.1C24.1,0,24-0.1,23.9-0.1z
	 M23.6,23.6H0.4V0.4h23.2V23.6z M12,10.4c1.9,0,3.5-1.6,3.5-3.5c0-1.9-1.6-3.5-3.5-3.5c-1.9,0-3.5,1.6-3.5,3.5
	C8.5,8.8,10.1,10.4,12,10.4z M12,4c1.6,0,2.9,1.3,2.9,2.9c0,1.6-1.3,2.9-2.9,2.9c-1.6,0-2.9-1.3-2.9-2.9C9.1,5.3,10.4,4,12,4z
	 M6,20.6h12c0.4,0,0.8-0.2,1-0.5c0.2-0.2,0.2-0.5,0.2-0.8l-0.8-2.5c-1.3-4.2-3.4-6.3-6.4-6.3c-2.9,0-5,2.1-6.3,6.3l-0.8,2.5
	c-0.1,0.3,0,0.5,0.1,0.8C5.2,20.4,5.6,20.6,6,20.6z M5.5,19.6l0.8-2.5c1.2-3.9,3.1-5.8,5.7-5.8c2.6,0,4.5,1.9,5.7,5.8l0.8,2.5
	c0,0.1,0,0.1-0.1,0.2C18.4,19.9,18.2,20,18,20H6c-0.2,0-0.4-0.1-0.5-0.2C5.4,19.7,5.5,19.6,5.5,19.6z"/>
</svg>
