<?xml version="1.0" encoding="utf-8"?>
<!-- Generator: Adobe Illustrator 21.1.0, SVG Export Plug-In . SVG Version: 6.00 Build 0)  -->
<svg version="1.1" id="Layer_1" xmlns="http://www.w3.org/2000/svg" xmlns:xlink="http://www.w3.org/1999/xlink" x="0px" y="0px"
	 viewBox="0 0 24 24" style="enable-background:new 0 0 24 24;" xml:space="preserve">
<path d="M22.6,0H1.4C0.6,0,0,0.6,0,1.4v21.1C0,23.4,0.6,24,1.4,24h21.1c0.8,0,1.4-0.6,1.4-1.4V1.4C24,0.6,23.4,0,22.6,0z M23,22.6
	c0,0.3-0.2,0.5-0.5,0.5H1.4C1.2,23,1,22.8,1,22.6v-2.2l4.7-5.9C5.8,14.2,6.1,14,6.4,14s0.6,0.1,0.8,0.3l2.9,3.4
	c0.1,0.1,0.2,0.2,0.4,0.2c0.2,0,0.3-0.1,0.4-0.2l5-8.7c0.2-0.3,0.5-0.5,0.8-0.5s0.6,0.2,0.8,0.4l5.6,8.8L23,22.6L23,22.6z M23,16
	l-4.8-7.5c-0.4-0.6-1-0.9-1.7-0.9c-0.7,0-1.3,0.4-1.6,1l-4.6,8l-2.5-2.9c-0.4-0.4-0.9-0.7-1.5-0.7s-1.1,0.3-1.5,0.7l-3.9,5V1.4
	C1,1.2,1.2,1,1.4,1h21.1C22.8,1,23,1.2,23,1.4V16z M6.7,3.8c-1.6,0-2.9,1.3-2.9,2.9s1.3,2.9,2.9,2.9s2.9-1.3,2.9-2.9
	S8.3,3.8,6.7,3.8z M6.7,8.6c-1,0-1.9-0.9-1.9-1.9s0.9-1.9,1.9-1.9s1.9,0.9,1.9,1.9S7.8,8.6,6.7,8.6z"/>
</svg>
