<?xml version="1.0" encoding="utf-8"?>
<!-- Generator: Adobe Illustrator 21.1.0, SVG Export Plug-In . SVG Version: 6.00 Build 0)  -->
<svg version="1.1" id="Layer_1" xmlns="http://www.w3.org/2000/svg" xmlns:xlink="http://www.w3.org/1999/xlink" x="0px" y="0px"
	 viewBox="0 0 24 24" style="enable-background:new 0 0 24 24;" xml:space="preserve">
<path d="M23.6,0.5C23.3,0.2,22.8,0,22.4,0H1.6C0.7,0,0,0.7,0,1.6v20.7c0,1,0.7,1.7,1.6,1.7h20.7c0.9,0,1.6-0.7,1.6-1.6l0-20.7
	C24,1.2,23.8,0.8,23.6,0.5z M22.5,15.1l-4.3-6.6c-0.4-0.6-1.1-1-1.9-1c-0.8,0-1.4,0.4-1.8,1.1l-4.3,7.5l-2.2-2.6c-1-1-2.3-1-3.3,0
	l-3.4,4.3V1.7c0.1-0.1,0.2-0.2,0.2-0.2h20.7c0.2,0,0.2,0.1,0.2,0.1V15.1z M1.5,20.3L6,14.6l0-0.1c0.1-0.2,0.3-0.3,0.5-0.3
	c0.2,0,0.5,0.1,0.6,0.2l2.9,3.3c0.1,0.1,0.3,0.3,0.6,0.3c0.3,0,0.5-0.2,0.6-0.3L16,9.2c0.2-0.2,0.4-0.4,0.6-0.4
	c0.2,0,0.5,0.2,0.6,0.3l5.4,8.6l-0.1,4.7v0c0,0.2-0.1,0.2-0.2,0.2H1.7c-0.1-0.1-0.2-0.2-0.2-0.2V20.3z M6.8,3.7
	c-1.7,0-3.1,1.4-3.1,3.1c0,1.7,1.4,3.1,3.1,3.1c1.7,0,3.1-1.4,3.1-3.1C9.9,5.1,8.5,3.7,6.8,3.7z M8.4,6.8c0,0.9-0.7,1.6-1.6,1.6
	C6,8.4,5.2,7.7,5.2,6.8C5.2,6,6,5.2,6.8,5.2C7.7,5.2,8.4,6,8.4,6.8z"/>
</svg>
