<?xml version="1.0" encoding="utf-8"?>
<!-- Generator: Adobe Illustrator 21.1.0, SVG Export Plug-In . SVG Version: 6.00 Build 0)  -->
<svg version="1.1" id="Layer_1" xmlns="http://www.w3.org/2000/svg" xmlns:xlink="http://www.w3.org/1999/xlink" x="0px" y="0px"
	 viewBox="0 0 24 24" style="enable-background:new 0 0 24 24;" xml:space="preserve">
<path d="M16.8,7.6h4.4v1.6h-2.6v0.5h2.2v1.7h-2.2v2.2h-1.8V7.6z M1.3,9.1H0V24h14.7v-1.3H1.3V9.1z M10.9,8.2
	c0.2,0.3,0.4,0.8,0.4,1.3c0,0.4-0.1,0.7-0.2,1L11,10.6c-0.1,0.1-0.1,0.1-0.2,0.2c-0.1,0.1-0.2,0.3-0.4,0.3c-0.2,0.2-0.5,0.3-0.7,0.4
	c-0.3,0.1-0.7,0.1-1.2,0.1H8.2v2H6.4V7.6h2.1c0.8,0,1.2,0,1.4,0.1c0.1,0,0.3,0.1,0.4,0.2C10.5,8,10.6,8,10.8,8.1l0.1,0L10.9,8.2z
	 M9.3,9.6c0,0,0-0.1,0-0.1c0-0.1-0.1-0.2-0.1-0.2C9.1,9.2,9.1,9.2,9.1,9.2H8.2v0.7h0.2c0.3,0,0.6,0,0.7,0L9.3,9.6
	C9.3,9.6,9.3,9.6,9.3,9.6z M16.4,9.3c0.1,0.3,0.2,0.8,0.2,1.3c0,0.4-0.1,0.8-0.2,1.3c-0.1,0.3-0.3,0.9-0.7,1.2
	c-0.1,0-0.2,0.1-0.2,0.1c-0.2,0.1-0.4,0.2-0.6,0.3c-0.3,0.1-0.6,0.1-1,0.1h-2.4V7.6h2.3c0.4,0,0.9,0,1.1,0.1c0.4,0.1,0.8,0.4,1,0.6
	C16,8.4,16.3,8.8,16.4,9.3z M13.2,12h0.4c0.1,0,0.3,0,0.4-0.1c0.1,0,0.2,0,0.3,0c0,0,0.1-0.1,0.1-0.1c0.1-0.1,0.2-0.3,0.2-0.4
	c0.1-0.1,0.1-0.5,0.1-0.8s0-0.7-0.1-0.8c-0.1-0.1-0.2-0.3-0.2-0.4l-0.1-0.1c0-0.1-0.1-0.1-0.2-0.1h-0.2L14,9.2c0,0-0.3,0-0.6,0h-0.1
	V12z M24,0v21.5H2.5V0H24z M22.6,20.2V1.3H3.8v18.9H22.6z"/>
</svg>
