<?xml version="1.0" encoding="utf-8"?>
<!-- Generator: Adobe Illustrator 21.1.0, SVG Export Plug-In . SVG Version: 6.00 Build 0)  -->
<svg version="1.1" id="Layer_1" xmlns="http://www.w3.org/2000/svg" xmlns:xlink="http://www.w3.org/1999/xlink" x="0px" y="0px"
	 viewBox="0 0 24 24" style="enable-background:new 0 0 24 24;" xml:space="preserve">
<path d="M2.6,0v21.4H24V0H2.6z M23.4,20.8H3.2V0.6h20.1V20.8z M0.6,23.4h13.8c0,0.1,0,0.1,0,0.2V24H0V9.4h0.6V23.4z M14.8,13.2
	c0.3-0.1,0.6-0.3,0.8-0.4c0.3-0.2,0.5-0.6,0.6-1c0.1-0.3,0.2-0.7,0.2-1.2c0-0.5-0.1-1-0.2-1.3c-0.1-0.4-0.3-0.7-0.5-0.9
	S15.2,8,14.8,7.9c-0.2-0.1-0.6-0.1-1-0.1h-2v5.5h2.1C14.3,13.3,14.6,13.3,14.8,13.2z M12.9,12.4V8.7h0.5c0.5,0,0.8,0,0.9,0.1
	c0.2,0,0.4,0.1,0.5,0.3c0.1,0.1,0.2,0.3,0.3,0.5c0.1,0.2,0.1,0.6,0.1,1s0,0.8-0.1,1c-0.1,0.2-0.2,0.4-0.3,0.5
	c-0.1,0.1-0.3,0.2-0.4,0.2c-0.1,0-0.4,0.1-0.7,0.1H12.9z M18.4,13.3h-1.1V7.8h3.8v0.9h-2.7V10h2.3V11h-2.3V13.3z M7.7,11.2h0.7
	c0.5,0,0.9,0,1.2-0.1c0.2,0,0.4-0.1,0.6-0.3c0.2-0.1,0.3-0.3,0.5-0.5c0.1-0.2,0.2-0.5,0.2-0.9c0-0.4-0.1-0.8-0.3-1.1
	C10.3,8.2,10,8,9.7,7.9C9.5,7.8,9.1,7.8,8.4,7.8H6.6v5.5h1.1V11.2z M7.7,8.7h0.5c0.4,0,0.7,0,0.8,0c0.2,0,0.3,0.1,0.4,0.2
	s0.2,0.3,0.2,0.5c0,0.2,0,0.3-0.1,0.4c-0.1,0.1-0.2,0.2-0.3,0.3c-0.1,0.1-0.4,0.1-0.9,0.1H7.7V8.7z"/>
</svg>
