<?xml version="1.0" encoding="utf-8"?>
<!-- Generator: Adobe Illustrator 21.1.0, SVG Export Plug-In . SVG Version: 6.00 Build 0)  -->
<svg version="1.1" id="Layer_1" xmlns="http://www.w3.org/2000/svg" xmlns:xlink="http://www.w3.org/1999/xlink" x="0px" y="0px"
	 viewBox="0 0 24 24" style="enable-background:new 0 0 24 24;" xml:space="preserve">
<path d="M13.8,11.1c1.2,0,2.2-1,2.2-2.2c0-1.2-1-2.2-2.2-2.2c-1.2,0-2.2,1-2.2,2.2S12.6,11.1,13.8,11.1z M13.7,7.9L13.7,7.9
	c0.7,0,1.1,0.4,1.1,1s-0.4,1-1,1s-1-0.4-1-1C12.8,8.4,13.3,7.9,13.7,7.9z M0,3.4v17.7h24V3.4H0z M22.7,15.5l-4.2-3.4
	c-0.1-0.1-0.3-0.2-0.4-0.2c-0.1,0-0.2,0-0.3,0.1l-3.8,2.7l-5.1-4.1c-0.1-0.1-0.2-0.2-0.5-0.2H8L1.2,15V4.7h21.5V15.5z M14.2,15.9
	l3.8-2.7l4.7,3.8v2.8H1.2v-3.3l7.1-4.8l5.2,4.2C13.7,16.1,14.1,16.1,14.2,15.9z"/>
</svg>
