<?xml version="1.0" encoding="utf-8"?>
<!-- Generator: Adobe Illustrator 21.1.0, SVG Export Plug-In . SVG Version: 6.00 Build 0)  -->
<svg version="1.1" id="Layer_1" xmlns="http://www.w3.org/2000/svg" xmlns:xlink="http://www.w3.org/1999/xlink" x="0px" y="0px"
	 viewBox="0 0 24 24" style="enable-background:new 0 0 24 24;" xml:space="preserve">
<path transform="translate(0,-952.36218)" d="M0,955.9v0.3v16.9v0.3h0.3h23.5H24v-0.3v-16.9v-0.3h-0.3H0.3H0z M0.5,956.5h22.9v12.2
	l-5-4c-0.1-0.1-0.2-0.1-0.3,0l-4.2,2.9l-5.6-4.5C8.3,963,8.2,963,8.1,963c0,0-0.1,0-0.1,0l-7.5,5.2V956.5z M13.9,959.2
	c-1.1,0-1.9,0.9-1.9,1.9c0,1.1,0.9,1.9,1.9,1.9s1.9-0.9,1.9-1.9S15,959.2,13.9,959.2z M13.8,959.8c0,0,0.1,0,0.1,0
	c0.8,0,1.4,0.6,1.4,1.4s-0.6,1.4-1.4,1.4c-0.8,0-1.4-0.6-1.4-1.4C12.5,960.4,13.1,959.8,13.8,959.8z M8.2,963.6l5.6,4.5
	c0.1,0.1,0.2,0.1,0.3,0l4.2-2.9l5.2,4.2v3.4H0.5v-4L8.2,963.6z"/>
</svg>
