<?xml version="1.0" encoding="utf-8"?>
<!-- Generator: Adobe Illustrator 21.1.0, SVG Export Plug-In . SVG Version: 6.00 Build 0)  -->
<svg version="1.1" id="Layer_1" xmlns="http://www.w3.org/2000/svg" xmlns:xlink="http://www.w3.org/1999/xlink" x="0px" y="0px"
	 viewBox="0 0 24 24" style="enable-background:new 0 0 24 24;" xml:space="preserve">
<path d="M12.8,1.5c-0.4,0-0.6,0.3-0.6,0.6v10h-10c-0.4,0-0.6,0.3-0.6,0.6c0,6.2,5,11.2,11.2,11.2c6.2,0,11.2-5,11.2-11.2
	C24,6.6,19,1.5,12.8,1.5z M22.8,12.8c0,5.5-4.5,10-10,10c-5.3,0-9.6-4.1-10-9.4h10c0.4,0,0.6-0.3,0.6-0.6v-10
	C18.7,3.1,22.8,7.5,22.8,12.8z M11.8,11.2V0.7c0-0.4-0.3-0.6-0.6-0.6C5,0,0,5.1,0,11.2c0,0.4,0.3,0.6,0.6,0.6h10.6
	C11.6,11.9,11.8,11.6,11.8,11.2z M10.6,1.3v9.3H1.2C1.6,5.6,5.6,1.6,10.6,1.3z"/>
</svg>
