<?xml version="1.0" encoding="utf-8"?>
<!-- Generator: Adobe Illustrator 21.1.0, SVG Export Plug-In . SVG Version: 6.00 Build 0)  -->
<svg version="1.1" id="Layer_1" xmlns="http://www.w3.org/2000/svg" xmlns:xlink="http://www.w3.org/1999/xlink" x="0px" y="0px"
	 viewBox="0 0 24 24" style="enable-background:new 0 0 24 24;" xml:space="preserve">
<path transform="translate(0,-952.36218)" d="M11.2,952.4c0.3,0,0.5,0.2,0.5,0.5v10.7c0,0.3-0.2,0.5-0.5,0.5H0.5
	c-0.3,0-0.5-0.2-0.5-0.5C0,957.4,5,952.4,11.2,952.4z M10.7,953.4c-5.2,0.3-9.4,4.4-9.7,9.7h9.7V953.4z M12.8,953.9
	c6.2,0,11.2,5,11.2,11.2c0,6.2-5,11.2-11.2,11.2s-11.2-5-11.2-11.2c0-0.3,0.2-0.5,0.5-0.5h10.2v-10.2
	C12.3,954.1,12.5,953.9,12.8,953.9z M13.3,955v10.2c0,0.3-0.2,0.5-0.5,0.5H2.6c0.3,5.4,4.7,9.7,10.2,9.7c5.6,0,10.2-4.6,10.2-10.2
	C23,959.7,18.7,955.2,13.3,955z"/>
</svg>
