<?xml version="1.0" encoding="utf-8"?>
<!-- Generator: Adobe Illustrator 21.1.0, SVG Export Plug-In . SVG Version: 6.00 Build 0)  -->
<svg version="1.1" id="Layer_1" xmlns="http://www.w3.org/2000/svg" xmlns:xlink="http://www.w3.org/1999/xlink" x="0px" y="0px"
	 viewBox="0 0 24 24" style="enable-background:new 0 0 24 24;" xml:space="preserve">
<style type="text/css">
	.st0{fill:#030400;}
</style>
<path class="st0" d="M4,24c0.1,0,0.2,0,0.3-0.1l14.3-9.7c2.8-1.9,2.8-1.9,2.8-2.2c0-0.1-0.1-0.3-0.2-0.4C21,11.5,4.6,0.3,4.3,0.1
	C4.2,0,4.1,0,4,0C3.8,0,3.6,0.2,3.6,0.4v23.1c0,0.2,0.1,0.3,0.2,0.4C3.9,24,3.9,24,4,24z M4.4,1.3c0.4,0.3,1,0.7,1.9,1.3L20.1,12
	c-2.5,1.7-12.9,8.8-15.7,10.7V1.3z"/>
</svg>
