<?xml version="1.0" encoding="utf-8"?>
<!-- Generator: Adobe Illustrator 21.1.0, SVG Export Plug-In . SVG Version: 6.00 Build 0)  -->
<svg version="1.1" id="Layer_1" xmlns="http://www.w3.org/2000/svg" xmlns:xlink="http://www.w3.org/1999/xlink" x="0px" y="0px"
	 viewBox="0 0 24 24" style="enable-background:new 0 0 24 24;" xml:space="preserve">
<style type="text/css">
	.st0{fill:#030400;}
</style>
<path transform="translate(0,-952.36218)" class="st0" d="M12,976.1c-6.6,0-12-5.4-12-12c0-6.6,5.4-12,12-12s12,5.4,12,12
	C24,970.7,18.6,976.1,12,976.1z M12,952.7c-6.3,0-11.4,5.1-11.4,11.4s5.1,11.4,11.4,11.4s11.4-5.1,11.4-11.4S18.3,952.7,12,952.7z
	 M7.8,971.6c0,0-0.1,0-0.1,0c-0.1,0-0.1-0.1-0.1-0.2v-14.5c0-0.2,0.1-0.3,0.3-0.3c0.1,0,0.1,0,0.2,0.1c0.2,0.2,10.5,7.2,10.6,7.3
	c0.1,0.1,0.1,0.1,0.1,0.2c0,0.1,0,0.1-1.8,1.4L8,971.6C7.9,971.6,7.9,971.6,7.8,971.6z M8.1,957.4v13.5c1.8-1.2,8.3-5.7,9.8-6.7
	l-8.6-5.9C8.7,957.8,8.4,957.6,8.1,957.4z"/>
</svg>
