<?xml version="1.0" encoding="utf-8"?>
<!-- Generator: Adobe Illustrator 21.1.0, SVG Export Plug-In . SVG Version: 6.00 Build 0)  -->
<svg version="1.1" id="Layer_1" xmlns="http://www.w3.org/2000/svg" xmlns:xlink="http://www.w3.org/1999/xlink" x="0px" y="0px"
	 viewBox="0 0 24 24" style="enable-background:new 0 0 24 24;" xml:space="preserve">
<path d="M12,0C5.4,0,0,5.4,0,12s5.4,12,12,12c6.6,0,12-5.4,12-12S18.6,0,12,0z M12,22.7C6.1,22.7,1.3,17.9,1.3,12
	C1.3,6.1,6.1,1.3,12,1.3S22.7,6.1,22.7,12C22.7,17.9,17.9,22.7,12,22.7z M14.9,9c-2.6-1.8-6.2-4.3-6.4-4.4C8.3,4.4,8.2,4.4,8,4.4
	C7.6,4.4,7.4,4.6,7.4,5v14.1c0,0.5,0.4,0.6,0.5,0.6h0.4l8.8-5.9c1.9-1.4,1.9-1.4,1.9-1.7c0-0.2-0.1-0.3-0.2-0.5
	C18.7,11.6,18.6,11.5,14.9,9z M17.1,12.1c-0.9,0.6-2.4,1.6-3.9,2.7c-1.7,1.2-3.5,2.4-4.5,3.1V6.2c0.2,0.1,0.3,0.3,0.6,0.5L17.1,12.1
	z"/>
</svg>
