<?xml version="1.0" encoding="utf-8"?>
<!-- Generator: Adobe Illustrator 21.1.0, SVG Export Plug-In . SVG Version: 6.00 Build 0)  -->
<svg version="1.1" id="Layer_1" xmlns="http://www.w3.org/2000/svg" xmlns:xlink="http://www.w3.org/1999/xlink" x="0px" y="0px"
	 viewBox="0 0 24 24" style="enable-background:new 0 0 24 24;" xml:space="preserve">
<path d="M21.2,11.4L21.2,11.4c-0.4-0.2-8.8-6-13.4-9.1c-1.8-1.2-3-2.1-3-2.1C4.6,0,4.4,0,4.3,0C3.9,0,3.5,0.4,3.5,0.8v22.4
	c0,0.3,0.2,0.5,0.3,0.6C3.9,23.9,4,24,4.3,24c0.1,0,0.3,0,0.5-0.2l13.9-9.4c2.9-2,2.9-2,2.9-2.4C21.5,11.8,21.3,11.5,21.2,11.4z
	 M19.2,12c-1.2,0.8-3.2,2.2-5.5,3.8C10.5,18,6.9,20.4,5,21.7V2.3c0.3,0.2,0.7,0.5,1.3,0.9L19.2,12z"/>
</svg>
