<?xml version="1.0" encoding="utf-8"?>
<!-- Generator: Adobe Illustrator 21.1.0, SVG Export Plug-In . SVG Version: 6.00 Build 0)  -->
<svg version="1.1" id="Layer_1" xmlns="http://www.w3.org/2000/svg" xmlns:xlink="http://www.w3.org/1999/xlink" x="0px" y="0px"
	 viewBox="0 0 23 23" style="enable-background:new 0 0 23 23;" xml:space="preserve">
<path d="M12.2,10.8h5.9v1.4h-5.9v5.9h-1.4v-5.9H4.9v-1.4h5.9V4.9h1.4V10.8z M23,3.5v16c0,1.9-1.6,3.5-3.5,3.5h-16
	C1.6,23,0,21.4,0,19.5v-16C0,1.6,1.6,0,3.5,0h16C21.4,0,23,1.6,23,3.5z M21.6,19.5v-16c0-1.2-0.9-2.1-2.1-2.1h-16
	c-1.2,0-2.1,0.9-2.1,2.1v16c0,1.2,0.9,2.1,2.1,2.1h16C20.7,21.6,21.6,20.7,21.6,19.5z"/>
</svg>
