<?xml version="1.0" encoding="utf-8"?>
<!-- Generator: Adobe Illustrator 21.1.0, SVG Export Plug-In . SVG Version: 6.00 Build 0)  -->
<svg version="1.1" id="Layer_1" xmlns="http://www.w3.org/2000/svg" xmlns:xlink="http://www.w3.org/1999/xlink" x="0px" y="0px"
	 viewBox="0 0 24 24" style="enable-background:new 0 0 24 24;" xml:space="preserve">
<path d="M12.1,19.3c0.5,0,0.8,0.3,0.8,0.8c0,0.5-0.3,0.8-0.8,0.8c-0.5,0-0.8-0.3-0.8-0.8C11.2,19.7,11.6,19.3,12.1,19.3 M12.1,18.8
	c-0.7,0-1.3,0.6-1.3,1.3c0,0.8,0.6,1.3,1.3,1.3c0.8,0,1.3-0.6,1.3-1.3C13.4,19.4,12.8,18.8,12.1,18.8L12.1,18.8z M12,15.4
	c-0.4,0-0.8,0.1-1.2,0.1l-1.3,1.3c0.7-0.5,1.6-0.7,2.5-0.7c1.3,0,2.5,0.5,3.5,1.4l0.5-0.5C14.9,15.9,13.4,15.4,12,15.4L12,15.4z
	 M14.4,11.9l-0.6,0.6c1.6,0.3,3.2,1.2,4.4,2.4l0.5-0.5C17.4,13.2,16,12.4,14.4,11.9L14.4,11.9z M11.3,11.7c-2.2,0.2-4.3,1.1-5.9,2.7
	l0.5,0.5c1.3-1.3,2.8-2.1,4.5-2.4L11.3,11.7L11.3,11.7z M17.4,9l-0.6,0.6c1.5,0.6,2.8,1.5,4,2.7l0.5-0.5C20.1,10.5,18.8,9.6,17.4,9
	L17.4,9z M12,7.9c-3.4,0-6.7,1.3-9.3,3.9l0.5,0.5C5.5,9.9,8.7,8.6,12,8.6c0.7,0,1.4,0.1,2.1,0.2l0.6-0.6C13.9,8,12.9,7.9,12,7.9
	L12,7.9z M12,4.1c-4.3,0-8.7,1.7-12,5l0,0l0.5,0.5C3.6,6.5,7.7,4.8,12,4.8c1.8,0,3.6,0.3,5.2,0.9l0.6-0.6C15.9,4.4,14,4.1,12,4.1
	L12,4.1z M20.2,6.2l-0.6,0.6c1.4,0.8,2.7,1.7,3.9,2.9L24,9.1C22.8,7.9,21.5,6.9,20.2,6.2L20.2,6.2z M21.4,2.7l-17,17l0.6,0.6L22,3.3
	L21.4,2.7z"/>
</svg>
