<?xml version="1.0" encoding="utf-8"?>
<!-- Generator: Adobe Illustrator 21.1.0, SVG Export Plug-In . SVG Version: 6.00 Build 0)  -->
<svg version="1.1" id="Layer_1" xmlns="http://www.w3.org/2000/svg" xmlns:xlink="http://www.w3.org/1999/xlink" x="0px" y="0px"
	 viewBox="0 0 24 24" style="enable-background:new 0 0 24 24;" xml:space="preserve">
<path transform="translate(0,-972.36218)" d="M9.3,972.4c-0.3,0-0.6,0.3-0.6,0.6v5.4H6.9c-0.4,0-0.6,0.3-0.6,0.6v4.8
	c0,2.8,2.1,5.1,4.8,5.4v6.6c0,0.3,0.3,0.6,0.6,0.6c0.3,0,0.6-0.3,0.6-0.6v-6.6c2.7-0.3,4.8-2.6,4.8-5.4V979c0-0.3-0.3-0.6-0.6-0.6
	h-1.8V973c0-0.3-0.3-0.6-0.6-0.6s-0.6,0.3-0.6,0.6v5.4H9.9V973C9.9,972.6,9.6,972.4,9.3,972.4L9.3,972.4z M7.5,979.6
	c2.8,0,5.6,0,8.4,0v4.2c0,2.3-1.9,4.2-4.2,4.2s-4.2-1.9-4.2-4.2V979.6z"/>
</svg>
