<?xml version="1.0" encoding="utf-8"?>
<!-- Generator: Adobe Illustrator 21.1.0, SVG Export Plug-In . SVG Version: 6.00 Build 0)  -->
<svg version="1.1" id="Layer_1" xmlns="http://www.w3.org/2000/svg" xmlns:xlink="http://www.w3.org/1999/xlink" x="0px" y="0px"
	 viewBox="0 0 24 24" style="enable-background:new 0 0 24 24;" xml:space="preserve">
<path d="M16.5,6h-1.7V0.8c0-0.4-0.3-0.7-0.7-0.7c-0.4,0-0.7,0.4-0.7,0.7V6H10V0.8C10,0.3,9.7,0,9.3,0C9,0,8.6,0.4,8.6,0.8V6H6.9
	C6.5,6,6.2,6.3,6.2,6.7v4.8c0,2.8,2,5.1,4.8,5.5v6.4c0,0.4,0.3,0.7,0.7,0.7c0.4,0,0.7-0.3,0.7-0.7v-6.4c2.7-0.4,4.8-2.7,4.8-5.5V6.7
	C17.2,6.3,16.8,6,16.5,6z M15.7,7.4v4c0,2.2-1.8,4-4,4s-4-1.8-4-4v-4H15.7z"/>
</svg>
