<?xml version="1.0" encoding="utf-8"?>
<!-- Generator: Adobe Illustrator 21.1.0, SVG Export Plug-In . SVG Version: 6.00 Build 0)  -->
<svg version="1.1" id="Layer_1" xmlns="http://www.w3.org/2000/svg" xmlns:xlink="http://www.w3.org/1999/xlink" x="0px" y="0px"
	 viewBox="0 0 24 24" style="enable-background:new 0 0 24 24;" xml:space="preserve">
<path d="M22.8,6.4l-3.3,4.7l1.5,1.1c0.3,0.2,0.4,0.7,0.2,1.1l-3,4.4c-1.8,2.5-5.1,3.3-7.8,2l-3,4.4H6.5h-1H3.4V13.4H0.1L5,0
	l4.9,13.4H6.5v9.2l2.6-3.8c-1.2-1.1-1.8-2.4-2-3.9c0.6,0,1.2,0,1.8,0.1c0.2,1.1,0.8,2.1,1.8,2.8c2,1.4,4.8,0.9,6.1-1.1l2.5-3.6
	l-7.3-5l-1.9,2.7C10,10.1,9.7,9.6,9.4,9l1.8-2.6C11.5,6,12,5.9,12.3,6.2l1.5,1.1l3.3-4.7C17.4,2.1,18,2,18.3,2.2
	c0.4,0.3,0.4,0.7,0.1,1.2l-3.3,4.7l3.1,2.1l3.3-4.7c0.2-0.3,0.7-0.4,1.1-0.2S23,6,22.8,6.4z"/>
</svg>
