<?xml version="1.0" encoding="utf-8"?>
<!-- Generator: Adobe Illustrator 21.1.0, SVG Export Plug-In . SVG Version: 6.00 Build 0)  -->
<svg version="1.1" id="Layer_1" xmlns="http://www.w3.org/2000/svg" xmlns:xlink="http://www.w3.org/1999/xlink" x="0px" y="0px"
	 viewBox="0 0 24 24" style="enable-background:new 0 0 24 24;" xml:space="preserve">
<path d="M23.5,11.5C23.3,11.3,18,6.1,12,6.1c-5.1,0-9.6,3.7-11.1,5l0,0L0,12l0.5,0.4C0.7,12.7,6,17.9,12,17.9c5.1,0,9.6-3.7,11.1-5
	l0,0L24,12L23.5,11.5z M12,8.2c2.1,0,3.8,1.7,3.8,3.8c0,2.1-1.7,3.8-3.8,3.8c-2.1,0-3.8-1.7-3.8-3.8C8.2,9.9,9.9,8.2,12,8.2z
	 M8.8,7.9c-1.2,1-2,2.4-2,4.1c0,1.6,0.8,3.1,2,4.1C5.7,15.1,3,12.9,2,12C3,11,5.7,8.9,8.8,7.9z M15.2,16.1c1.2-1,2-2.4,2-4.1
	c0-1.6-0.8-3.1-2-4.1C18.3,9,21,11.1,22,12C21,13,18.3,15.1,15.2,16.1z"/>
</svg>
