<?xml version="1.0" encoding="utf-8"?>
<!-- Generator: Adobe Illustrator 21.1.0, SVG Export Plug-In . SVG Version: 6.00 Build 0)  -->
<svg version="1.1" id="Layer_1" xmlns="http://www.w3.org/2000/svg" xmlns:xlink="http://www.w3.org/1999/xlink" x="0px" y="0px"
	 viewBox="0 0 22 22" style="enable-background:new 0 0 22 22;" xml:space="preserve">
<path d="M9,2c-5,0-9,4-9,9s4,9,9,9s9-4,9-9S14,2,9,2z M15.3,16.2c-1.3-1.8-3-2.9-4.8-3.3c1.3-0.6,2.2-1.9,2.2-3.4
	c0-2.1-1.7-3.8-3.8-3.8S5.2,7.4,5.2,9.5c0,1.5,0.9,2.8,2.2,3.4c-1.8,0.4-3.4,1.6-4.8,3.3C1.5,14.8,0.8,13,0.8,11
	c0-4.5,3.7-8.2,8.2-8.2s8.2,3.7,8.2,8.2C17.2,13,16.5,14.8,15.3,16.2z M22,6l-2.1,2.1c-0.1,0.1-0.2,0.1-0.3,0.1s-0.2,0-0.3-0.1
	L17.1,6c-0.2-0.2-0.2-0.5,0-0.6c0.2-0.2,0.5-0.2,0.6,0l1.8,1.8l1.8-1.9c0.2-0.2,0.5-0.2,0.6,0C22,5.5,22.1,5.8,22,6z"/>
</svg>
