<?xml version="1.0" encoding="utf-8"?>
<!-- Generator: Adobe Illustrator 21.1.0, SVG Export Plug-In . SVG Version: 6.00 Build 0)  -->
<svg version="1.1" id="Layer_1" xmlns="http://www.w3.org/2000/svg" xmlns:xlink="http://www.w3.org/1999/xlink" x="0px" y="0px"
	 viewBox="0 0 24 24" style="enable-background:new 0 0 24 24;" xml:space="preserve">
<path d="M14.3,11.4c2.1-0.9,3.6-3,3.6-5.5c0-3.3-2.7-6-6-6S6,2.7,6,6c0,2.5,1.5,4.6,3.6,5.5c-5.1,1-9.1,5.5-9.1,10.7v1.4
	C0.6,23.8,0.8,24,1,24H23c0.3,0,0.5-0.2,0.5-0.5v-1.4C23.4,17,19.4,12.5,14.3,11.4z M7,5.9c0-2.8,2.2-5,5-5s5,2.2,5,5s-2.2,5-5,5
	S7,8.7,7,5.9z M22.5,23h-21v-1c0-5.4,4.8-10,10.5-10s10.5,4.6,10.5,10V23z"/>
</svg>
