<?xml version="1.0" encoding="utf-8"?>
<!-- Generator: Adobe Illustrator 21.1.0, SVG Export Plug-In . SVG Version: 6.00 Build 0)  -->
<svg version="1.1" id="Layer_1" xmlns="http://www.w3.org/2000/svg" xmlns:xlink="http://www.w3.org/1999/xlink" x="0px" y="0px"
	 viewBox="0 0 24 24" style="enable-background:new 0 0 24 24;" xml:space="preserve">
<path d="M14.9,11.3C16.8,10.3,18,8.3,18,6c0-3.4-2.7-6.1-6.1-6.1c-3.3,0-6,2.8-6,6.2c0,2.2,1.2,4.2,3,5.3C4.1,12.7,0.5,17.1,0.5,22
	v1.4l0,0.1c0.1,0.3,0.4,0.5,0.7,0.5h21.5c0.4,0,0.7-0.3,0.7-0.7v-1.4C23.4,17.1,19.8,12.7,14.9,11.3z M12,12.2c5.4,0,10,4.4,10,9.5
	v0.7H2v-0.7C2,16.6,6.6,12.2,12,12.2z M12,10.7c-2.6,0-4.6-2-4.6-4.6s2-4.6,4.6-4.6c2.6,0,4.6,2,4.6,4.6S14.6,10.7,12,10.7z"/>
</svg>
