<?xml version="1.0" encoding="utf-8"?>
<!-- Generator: Adobe Illustrator 21.1.0, SVG Export Plug-In . SVG Version: 6.00 Build 0)  -->
<svg version="1.1" id="Layer_1" xmlns="http://www.w3.org/2000/svg" xmlns:xlink="http://www.w3.org/1999/xlink" x="0px" y="0px"
	 viewBox="0 0 22 22" style="enable-background:new 0 0 22 22;" xml:space="preserve">
<path d="M11,0C4.9,0,0,4.9,0,11s4.9,11,11,11s11-4.9,11-11S17.1,0,11,0z M18.7,17.4c-1.6-2.2-3.7-3.5-5.9-4c1.6-0.7,2.7-2.3,2.7-4.2
	c0-2.6-2.1-4.6-4.6-4.6c-2.6,0-4.5,2.1-4.5,4.6c0,1.8,1.1,3.4,2.7,4.2c-2.2,0.5-4.2,2-5.9,4C1.8,15.6,1,13.4,1,11C1,5.5,5.5,1,11,1
	s10,4.5,10,10C21,13.4,20.2,15.6,18.7,17.4z"/>
</svg>
