<?xml version="1.0" encoding="utf-8"?>
<!-- Generator: Adobe Illustrator 21.1.0, SVG Export Plug-In . SVG Version: 6.00 Build 0)  -->
<svg version="1.1" id="Layer_1" xmlns="http://www.w3.org/2000/svg" xmlns:xlink="http://www.w3.org/1999/xlink" x="0px" y="0px"
	 viewBox="0 0 24 24" style="enable-background:new 0 0 24 24;" xml:space="preserve">
<path d="M21.2,3.7L17.5,0H5.6v2.7H2.8V24h15.6v-2.7h2.8V3.7z M18,2.1l1.3,1.4H18V2.1z M17.2,22.8H4v-19h1.6v17.5h11.6V22.8z
	 M17.2,7.4v12.8H6.8V3.9H14v3.5H17.2z M15.1,6.2V4.8l1.3,1.4H15.1z M20,20.1h-1.6V6.4l-3.7-3.7H6.8V1.2h10v3.5H20V20.1z M8.4,16.6
	h7.6v1.2H8.3C8.3,17.4,8.3,17,8.4,16.6z M8.3,14h7.6v1.2H8.3C8.3,14.8,8.3,14.4,8.3,14z M8.3,11.4h7.6v1.2H8.3
	C8.3,12.2,8.3,11.8,8.3,11.4z"/>
</svg>
