<?xml version="1.0" encoding="utf-8"?>
<!-- Generator: Adobe Illustrator 21.1.0, SVG Export Plug-In . SVG Version: 6.00 Build 0)  -->
<svg version="1.1" id="Layer_1" xmlns="http://www.w3.org/2000/svg" xmlns:xlink="http://www.w3.org/1999/xlink" x="0px" y="0px"
	 viewBox="0 0 24 24" style="enable-background:new 0 0 24 24;" xml:space="preserve">
<path d="M23.2,11.4h-3.7V6.5c0-0.5-0.4-0.8-0.8-0.8h-3.7V0.8c0-0.5-0.4-0.8-0.8-0.8H0.8C0.4,0,0,0.4,0,0.8v10.9
	c0,0.5,0.4,0.8,0.8,0.8h3.7v4.8c0,0.5,0.4,0.8,0.8,0.8h3.7v4.8c0,0.5,0.4,0.8,0.8,0.8h13.5c0.4,0,0.8-0.4,0.8-0.8V12.2
	C24,11.7,23.6,11.4,23.2,11.4z M22.4,13.1l0,1.9H10.5v-1.9H22.4z M18,7.4L18,9H6V7.4H18z M13.5,1.7l0,1.3H1.6V1.7H13.5z M4.5,6.5
	v4.4l-2.9,0V4h11.9l0,1.7H5.3C4.8,5.7,4.5,6.1,4.5,6.5z M8.9,12.2v4.4l-2.9,0V10H18l0,1.4H9.7C9.3,11.4,8.9,11.7,8.9,12.2z
	 M10.5,22.3V16h11.9l0,6.3L10.5,22.3z"/>
</svg>
