<?xml version="1.0" encoding="utf-8"?>
<!-- Generator: Adobe Illustrator 21.1.0, SVG Export Plug-In . SVG Version: 6.00 Build 0)  -->
<svg version="1.1" id="Layer_1" xmlns="http://www.w3.org/2000/svg" xmlns:xlink="http://www.w3.org/1999/xlink" x="0px" y="0px"
	 viewBox="0 0 24 24" style="enable-background:new 0 0 24 24;" xml:space="preserve">
<path d="M15.5,13c-0.9,0-1.9,0.4-2.6,1.2c-0.7,0.7-1,1.6-1,2.6c0,0.9,0.4,1.8,1.1,2.5c0.7,0.6,1.6,0.9,2.5,0.9
	c0.9,0,1.9-0.4,2.6-1.2c0.7-0.7,1-1.6,1-2.6c0-0.9-0.4-1.8-1.1-2.5C17.3,13.4,16.4,13,15.5,13z M17.7,16.5c0,0.5-0.2,1.1-0.6,1.6
	c-0.5,0.5-1,0.7-1.6,0.7c-0.5,0-1.1-0.2-1.5-0.6c-0.5-0.5-0.7-1-0.7-1.6c0-0.7,0.2-1.2,0.6-1.6c0.5-0.5,1-0.7,1.6-0.7
	c0.5,0,1.1,0.2,1.5,0.6C17.5,15.4,17.7,15.9,17.7,16.5z M22.7,14.9c-0.1-0.4-0.5-0.7-0.9-0.8c0,0-0.4-0.1-0.6-0.5
	c-0.2-0.4,0-0.7,0-0.8c0.1-0.3,0.1-0.8-0.2-1.2l-0.3-0.3c-0.1-0.1-0.2-0.1-0.2-0.1v-0.1l-0.2-0.1c-0.1,0-0.2-0.1-0.2-0.1
	c0,0-0.1,0-0.1,0V6.1c0-0.8-0.4-1.7-1-2.1l-3.3-3.1C15.4,0.4,14.3,0,13.7,0H3C2.2,0,1.6,0.6,1.6,1.4v19.5c0,0.8,0.6,1.4,1.4,1.4h7.9
	c0.2,0.1,0.4,0.1,0.6,0.1c0.2,0,0.4,0,0.5-0.1c0.1,0,0.2-0.1,0.4-0.1c0.1,0,0.2,0,0.4,0.1c0.4,0.2,0.5,0.6,0.5,0.6
	c0.1,0.4,0.5,0.8,0.9,0.8c0,0,0,0,0,0l0.9,0.2c0.4,0,0.9-0.3,1-0.6c0,0,0.2-0.4,0.6-0.4h0.2c0.4,0,0.6,0.2,0.6,0.2
	c0.3,0.3,0.6,0.3,0.8,0.3c0.1,0,0.3,0,0.4-0.1l0.8-0.4c0.4-0.2,0.6-0.7,0.5-1.1c0,0-0.1-0.4,0.2-0.8c0.2-0.2,0.5-0.3,0.6-0.3h0.2
	c0.4,0,0.8-0.3,1-0.5l0.5-0.9c0.1-0.3,0-0.8-0.3-1.2c0,0-0.3-0.3-0.2-0.7c0.1-0.3,0.5-0.5,0.6-0.6l0,0c0.4-0.3,0.6-0.6,0.6-1.1
	L22.7,14.9z M20.9,19.3L20.9,19.3c-0.5,0-1.2,0.2-1.7,0.7c-0.5,0.6-0.6,1.2-0.6,1.7l-0.3,0.1c-0.2-0.2-0.7-0.4-1.4-0.4l-0.4,0
	c-0.8,0.1-1.3,0.6-1.6,1.1l-0.4,0.1c-0.1-0.4-0.5-1-1.2-1.3c-0.3-0.1-0.6-0.2-1-0.2c-0.4,0-0.6,0.1-0.8,0.2L11.3,21
	c0.1-0.3,0.3-1.1-0.2-1.8c-0.4-0.7-1-1-1.5-1.2l-0.1-0.4c0.4-0.3,0.9-0.8,1-1.6c0.1-0.9-0.2-1.5-0.5-1.8l0.1-0.3h0
	c0.5,0,1.2-0.2,1.7-0.7c0.5-0.6,0.6-1.2,0.6-1.7l0.3-0.1c0.2,0.2,0.7,0.4,1.4,0.4l0.4,0c0.7-0.1,1.3-0.6,1.6-1.1l0.3,0
	c0.1,0.4,0.4,1,1.2,1.4c0.3,0.1,0.6,0.2,1,0.2c0.4,0,0.6-0.1,0.8-0.2l0.2,0.2c-0.1,0.3-0.3,1.1,0.2,1.8c0.5,0.7,1.1,1,1.5,1.1
	c0,0,0,0,0,0l0,0.3c-0.3,0.2-0.8,0.7-0.9,1.4l0,0c-0.1,0.9,0.2,1.5,0.5,1.8L20.9,19.3z M15.1,6.6h3.6v4.3h0c-0.1,0-0.2,0-0.4-0.1
	c-0.4-0.2-0.5-0.6-0.5-0.7c-0.1-0.4-0.5-0.9-0.9-0.9c0,0,0,0,0,0L16,9.2c-0.4,0-0.9,0.3-1,0.6c0,0-0.2,0.4-0.6,0.4h-0.2
	c-0.4,0-0.6-0.2-0.6-0.2c-0.3-0.3-0.6-0.3-0.8-0.3c-0.1,0-0.3,0-0.4,0.1l-0.8,0.4c-0.4,0.2-0.6,0.7-0.5,1.1c0,0,0.1,0.4-0.2,0.8
	c-0.2,0.2-0.5,0.3-0.6,0.3h-0.2c-0.4,0-0.8,0.3-1,0.5l-0.5,0.9c-0.1,0.3,0,0.8,0.3,1.2c0,0,0.3,0.3,0.2,0.8
	c-0.1,0.4-0.4,0.6-0.5,0.6c-0.4,0.3-0.6,0.6-0.6,1.1l0.2,0.9c0.1,0.4,0.5,0.7,0.9,0.8c0,0,0.4,0.1,0.7,0.5c0.2,0.2,0.1,0.5,0,0.5
	c-0.1,0.2-0.1,0.4-0.1,0.5H3l0,0V1.4l0,0h10.2v3.3C13.2,5.7,14.1,6.6,15.1,6.6z M15.1,5.2c-0.1,0-0.3-0.1-0.3-0.1
	c-0.1,0-0.1-0.2-0.1-0.3v-3c0.1,0,0.1,0.1,0.2,0.1L18.2,5c0,0,0.1,0.1,0.1,0.2H15.1z M12.5,7.9c0,0.4-0.3,0.7-0.6,0.7H5.4
	C5,8.6,4.7,8.2,4.7,7.9c0-0.3,0.3-0.6,0.5-0.7l0.1,0h6.5C12.2,7.2,12.5,7.5,12.5,7.9z M4.7,4.9c0-0.3,0.3-0.6,0.5-0.7l0.1,0h5.3
	c0.4,0,0.7,0.4,0.7,0.7c0,0.5-0.4,0.7-0.7,0.7H5.3C5,5.7,4.7,5.4,4.7,4.9z"/>
</svg>
