<?xml version="1.0" encoding="utf-8"?>
<!-- Generator: Adobe Illustrator 21.1.0, SVG Export Plug-In . SVG Version: 6.00 Build 0)  -->
<svg version="1.1" id="Layer_1" xmlns="http://www.w3.org/2000/svg" xmlns:xlink="http://www.w3.org/1999/xlink" x="0px" y="0px"
	 viewBox="0 0 20 20" style="enable-background:new 0 0 20 20;" xml:space="preserve">
<path d="M16.8,2.5c-0.1-0.3-0.3-0.5-0.5-0.6l-3-1.7C13.1,0,12.9,0,12.6,0c-0.3,0.1-0.6,0.2-0.7,0.5L3.3,15.3
	c-0.1,0.2-0.1,0.4-0.1,0.6L3.4,19c0,0.3,0.2,0.6,0.5,0.8C4.1,20,4.3,20,4.4,20c0.2,0,0.3,0,0.4-0.1l2.8-1.4c0.2-0.1,0.4-0.2,0.5-0.4
	l8.5-14.8C16.8,3.1,16.8,2.8,16.8,2.5z M12.9,2.9l0.3-0.4l1.2,0.7l-0.3,0.4L12.9,2.9z M5.4,17.3l-0.1-1.2l6.6-11.4L13,5.4L6.5,16.8
	L5.4,17.3z"/>
</svg>
