<?xml version="1.0" encoding="utf-8"?>
<!-- Generator: Adobe Illustrator 21.1.0, SVG Export Plug-In . SVG Version: 6.00 Build 0)  -->
<svg version="1.1" id="Layer_1" xmlns="http://www.w3.org/2000/svg" xmlns:xlink="http://www.w3.org/1999/xlink" x="0px" y="0px"
	 viewBox="0 0 24 24" style="enable-background:new 0 0 24 24;" xml:space="preserve">
<path d="M19.4,0.6c-0.7-0.7-1.9-0.7-2.7,0L2.3,15c-0.1,0.1-0.2,0.2-0.2,0.3c-0.1,0.1-0.2,0.3-0.3,0.5L0,22.5c-0.1,0.4,0,0.8,0.3,1.1
	c0.2,0.2,0.5,0.4,0.8,0.4c0.1,0,0.2,0,0.3,0l6.7-1.6c0.2-0.1,0.4-0.2,0.6-0.4C8.9,21.9,9,21.8,9,21.7L23.5,7.3C23.8,7,24,6.5,24,6
	c0-0.5-0.2-1-0.5-1.3L19.4,0.6z M23.1,6.4l-2,2c-0.3,0.3-0.7,0.3-1,0L15.6,4c-0.1-0.1-0.2-0.3-0.2-0.5c0-0.2,0.1-0.4,0.2-0.5l2-2
	c0.3-0.3,0.7-0.3,1,0l4.5,4.5C23.4,5.7,23.4,6.1,23.1,6.4z M14.8,7.3l1.9,1.9L6.3,19.6l-1.9-1.9L14.8,7.3z M13.9,5.7
	c-0.3-0.3-0.3-0.7,0-1l0.9-0.9C14.9,4,15,4.2,15.1,4.3l4.5,4.5c0.2,0.2,0.5,0.3,0.7,0.4l-1,1c-0.3,0.3-0.7,0.3-1,0L13.9,5.7z
	 M2.9,16.1C2.9,16.1,2.9,16.1,2.9,16.1L2.9,16L3,15.9c0.1-0.1,0.1-0.1,0.1-0.2L13.2,5.6c0.1,0.2,0.2,0.3,0.3,0.4L14.4,7L4,17.3
	L2.9,16.1L2.9,16.1z M2.9,22.5L1.5,21l1.1-4.4l4.7,4.7L2.9,22.5z M8.3,21C8.2,21,8.2,21,8.1,21.1l-0.1,0L8,21.2L6.7,20L17.1,9.6
	l0.9,0.9c0.1,0.1,0.3,0.2,0.4,0.3L8.3,21z M19.1,3.1c-0.2-0.2-0.5-0.2-0.6,0l-0.6,0.6c-0.1,0.1-0.1,0.2-0.1,0.3
	c0,0.1,0.1,0.2,0.1,0.3l1.8,1.8c0.2,0.2,0.5,0.2,0.6,0l0.6-0.6c0.2-0.2,0.2-0.5,0-0.6L19.1,3.1z"/>
</svg>
