<?xml version="1.0" encoding="UTF-8"?>
<svg width="48px" height="38px" viewBox="0 0 48 38" version="1.1" xmlns="http://www.w3.org/2000/svg" xmlns:xlink="http://www.w3.org/1999/xlink">
    <!-- Generator: Sketch 56.3 (81716) - https://sketch.com -->
    <title>publish</title>
    <desc>Created with Sketch.</desc>
    <g id="Page-1" stroke="none" stroke-width="1" fill="none" fill-rule="evenodd">
        <g id="publish" fill="#000000" fill-rule="nonzero">
            <path d="M43,36 L5,36 C3.346,36 2,34.654 2,33 L2,12 L46,12 L46,33 C46,34.654 44.654,36 43,36 M5,2 L43,2 C44.654,2 46,3.346 46,5 L46,10 L2,10 L2,5 C2,3.346 3.346,2 5,2 M43,0 L5,0 C2.243,0 0,2.243 0,5 L0,33 C0,35.757 2.243,38 5,38 L43,38 C45.757,38 48,35.757 48,33 L48,5 C48,2.243 45.757,0 43,0" id="Fill-1"></path>
            <path d="M8,8 C9.103,8 10,7.103 10,6 C10,4.897 9.103,4 8,4 C6.897,4 6,4.897 6,6 C6,7.103 6.897,8 8,8" id="Fill-3"></path>
            <path d="M14,8 C15.103,8 16,7.103 16,6 C16,4.897 15.103,4 14,4 C12.897,4 12,4.897 12,6 C12,7.103 12.897,8 14,8" id="Fill-5"></path>
            <path d="M20,8 C21.103,8 22,7.103 22,6 C22,4.897 21.103,4 20,4 C18.897,4 18,4.897 18,6 C18,7.103 18.897,8 20,8" id="Fill-7"></path>
        </g>
    </g>
</svg>