<?xml version="1.0" encoding="UTF-8"?>
<svg width="60px" height="60px" viewBox="0 0 60 60" version="1.1" xmlns="http://www.w3.org/2000/svg" xmlns:xlink="http://www.w3.org/1999/xlink">
    <!-- Generator: Sketch 53.1 (72631) - https://sketchapp.com -->
    <title>publish</title>
    <desc>Created with Sketch.</desc>
    <g id="publish" stroke="none" stroke-width="1" fill="none" fill-rule="evenodd">
        <g transform="translate(6.000000, 11.000000)" fill="#000000">
            <path d="M43,36 L5,36 C3.346,36 2,34.654 2,33 L2,12 L46,12 L46,33 C46,34.654 44.654,36 43,36 M5,2 L43,2 C44.654,2 46,3.346 46,5 L46,10 L2,10 L2,5 C2,3.346 3.346,2 5,2 M43,0 L5,0 C2.243,0 0,2.243 0,5 L0,33 C0,35.757 2.243,38 5,38 L43,38 C45.757,38 48,35.757 48,33 L48,5 C48,2.243 45.757,0 43,0" id="Fill-1"></path>
            <path d="M8,8 C9.103,8 10,7.103 10,6 C10,4.897 9.103,4 8,4 C6.897,4 6,4.897 6,6 C6,7.103 6.897,8 8,8" id="Fill-3"></path>
            <path d="M14,8 C15.103,8 16,7.103 16,6 C16,4.897 15.103,4 14,4 C12.897,4 12,4.897 12,6 C12,7.103 12.897,8 14,8" id="Fill-5"></path>
            <path d="M20,8 C21.103,8 22,7.103 22,6 C22,4.897 21.103,4 20,4 C18.897,4 18,4.897 18,6 C18,7.103 18.897,8 20,8" id="Fill-7"></path>
            <path d="M19.7344,22.2256 L24.0004,17.6046 L24.0004,27.0156 C24.0004,27.5686 24.4474,28.0156 25.0004,28.0156 C25.5524,28.0156 26.0004,27.5686 26.0004,27.0156 L26.0004,17.6046 L30.2654,22.2256 C30.4624,22.4386 30.7304,22.5466 31.0004,22.5466 C31.2434,22.5466 31.4864,22.4586 31.6784,22.2816 C32.0844,21.9076 32.1094,21.2746 31.7344,20.8686 L25.7344,14.3686 C25.7304,14.3636 25.7234,14.3626 25.7194,14.3586 C25.5384,14.1676 25.2844,14.0466 25.0004,14.0466 C24.7154,14.0466 24.4624,14.1676 24.2804,14.3586 C24.2764,14.3626 24.2694,14.3636 24.2654,14.3686 L18.2654,20.8686 C17.8904,21.2746 17.9164,21.9076 18.3214,22.2816 C18.7274,22.6566 19.3614,22.6296 19.7344,22.2256" id="Fill-9"></path>
            <path d="M35,26.0156 C34.447,26.0156 34,26.4626 34,27.0156 L34,29.9996 L16,29.9996 L16,27.0156 C16,26.4626 15.553,26.0156 15,26.0156 C14.447,26.0156 14,26.4626 14,27.0156 L14,30.9996 C14,31.5526 14.447,31.9996 15,31.9996 L35,31.9996 C35.553,31.9996 36,31.5526 36,30.9996 L36,27.0156 C36,26.4626 35.553,26.0156 35,26.0156" id="Fill-11"></path>
        </g>
    </g>
</svg>