<?xml version="1.0" encoding="utf-8"?>
<!-- Generator: Adobe Illustrator 21.1.0, SVG Export Plug-In . SVG Version: 6.00 Build 0)  -->
<svg version="1.1" id="Layer_1" xmlns="http://www.w3.org/2000/svg" xmlns:xlink="http://www.w3.org/1999/xlink" x="0px" y="0px"
	 viewBox="0 0 24 24" style="enable-background:new 0 0 24 24;" xml:space="preserve">
<path d="M13.6,22.8c0,0.8-0.6,1.2-1.2,1.2c-0.7,0-1.2-0.5-1.2-1.2c0-0.8,0.6-1.2,1.2-1.2S13.6,22.1,13.6,22.8z M17.5,1.8
	C15.9,0.6,14.2,0,12.4,0C8.9,0,5.9,2.3,5.1,5.3C5,5.5,5.1,5.8,5.2,6c0.1,0.1,0.2,0.2,0.4,0.2C6,6.3,6.3,6.1,6.5,5.6
	c0.5-2,2.8-4.1,5.9-4.1c1.4,0,2.8,0.5,4.1,1.4c1.1,0.8,1.8,2.1,1.8,3.5c0,1.4-0.3,2.4-0.8,3.2c-0.4,0.5-1,0.9-1.6,1.3
	c-0.2,0.1-0.4,0.3-0.5,0.4c-1.1,0.8-1.9,1.6-2.4,2.6c-0.7,1.5-1.1,3.3-1.1,5.6c0,0.4,0.3,0.7,0.7,0.7c0.4,0,0.7-0.3,0.7-0.7
	c0-2.1,0.3-3.7,0.9-4.9c0.6-1,1.3-1.6,2.1-2.2c0.2-0.1,0.4-0.3,0.6-0.4c0.6-0.4,1.3-0.9,1.8-1.6c0.8-1.1,1.2-2.4,1.2-4.1
	C19.9,4.7,19,3,17.5,1.8z"/>
</svg>
