<?xml version="1.0" encoding="utf-8"?>
<!-- Generator: Adobe Illustrator 21.1.0, SVG Export Plug-In . SVG Version: 6.00 Build 0)  -->
<svg version="1.1" id="Layer_1" xmlns="http://www.w3.org/2000/svg" xmlns:xlink="http://www.w3.org/1999/xlink" x="0px" y="0px"
	 viewBox="0 0 24 24" style="enable-background:new 0 0 24 24;" xml:space="preserve">
<path transform="translate(0,-952.36218)" d="M12.4,952.4c-3.6,0-6.5,2.4-7.2,5.2c-0.1,0.3,0.1,0.6,0.3,0.6c0.3,0.1,0.5-0.1,0.6-0.4
	c0.6-2.3,3.1-4.4,6.3-4.4c1.6,0,3.1,0.6,4.3,1.5c1.2,0.9,1.9,2.3,1.9,3.8c0,1.7-0.4,2.7-0.9,3.4c-0.6,0.7-1.4,1.2-2.2,1.8
	c-0.9,0.6-1.8,1.4-2.4,2.6s-1.1,3-1.1,5.6c0,0.3,0.2,0.5,0.5,0.5c0.3,0,0.5-0.2,0.5-0.5c0-2.5,0.4-4,1-5.1c0.6-1.1,1.4-1.7,2.2-2.3
	c0.8-0.6,1.7-1.1,2.4-2c0.7-0.9,1.2-2.1,1.2-4c0-1.8-0.9-3.4-2.3-4.5C15.9,953,14.2,952.4,12.4,952.4z M12.4,974.4c-0.5,0-1,0.4-1,1
	s0.4,1,1,1c0.5,0,1-0.4,1-1S12.9,974.4,12.4,974.4z"/>
</svg>
