<?xml version="1.0" encoding="utf-8"?>
<!-- Generator: Adobe Illustrator 21.1.0, SVG Export Plug-In . SVG Version: 6.00 Build 0)  -->
<svg version="1.1" id="Layer_1" xmlns="http://www.w3.org/2000/svg" xmlns:xlink="http://www.w3.org/1999/xlink" x="0px" y="0px"
	 viewBox="0 0 24 24" style="enable-background:new 0 0 24 24;" xml:space="preserve">
<path d="M20.2,16h-6.1v-1.5h6.1V16z M20.2,11.5h-6.1V13h6.1V11.5z M20.2,17.3h-6.1v1.5h6.1V17.3z M5.7,15.2c0-1.2,0.9-2.1,2.1-2.1
	s2.1,0.9,2.1,2.1s-0.9,2.1-2.1,2.1S5.7,16.3,5.7,15.2z M7.8,15.7c0.3,0,0.6-0.2,0.6-0.6c0-0.3-0.2-0.6-0.6-0.6
	c-0.3,0-0.6,0.2-0.6,0.6C7.2,15.5,7.4,15.7,7.8,15.7z M24,10.3v9.8c0,1.8-1.5,3.4-3.4,3.4H3.4c-1.8,0-3.4-1.5-3.4-3.4v-9.8
	c0-1.8,1.5-3.4,3.4-3.4h12.9L8.4,2.1C8,1.7,7.9,1.3,8.2,1c0.2-0.4,0.6-0.5,1-0.3l10,6.3h1.4C22.4,6.9,23.9,8.5,24,10.3z M1.6,20.1
	c0,1,0.8,1.8,1.8,1.8h17.2c1,0,1.8-0.8,1.8-1.8V20h0.1v-9.6c0-1-0.8-1.8-1.8-1.8H3.4c-1,0-1.8,0.8-1.8,1.8V20.1z M3,15.2
	c0-2.6,2.1-4.8,4.8-4.8s4.8,2.1,4.8,4.8s-2.1,4.8-4.8,4.8S3,17.8,3,15.2z M7.8,18.4c1.8,0,3.2-1.4,3.2-3.2c0-1.8-1.4-3.2-3.2-3.2
	c-1.8,0-3.2,1.4-3.2,3.2C4.5,17,6,18.4,7.8,18.4z"/>
</svg>
