<?xml version="1.0" encoding="utf-8"?>
<!-- Generator: Adobe Illustrator 21.1.0, SVG Export Plug-In . SVG Version: 6.00 Build 0)  -->
<svg version="1.1" id="Layer_1" xmlns="http://www.w3.org/2000/svg" xmlns:xlink="http://www.w3.org/1999/xlink" x="0px" y="0px"
	 viewBox="0 0 24 24" style="enable-background:new 0 0 24 24;" xml:space="preserve">
<style type="text/css">
	.st0{fill:#010101;}
</style>
<path class="st0" d="M12,0C5.4,0,0,5.4,0,12s5.4,12,12,12s12-5.4,12-12S18.6,0,12,0z M12,22.8C6,22.8,1.2,18,1.2,12S6,1.2,12,1.2
	S22.8,6,22.8,12S18,22.8,12,22.8z M12,4.7c4,0,7.3,3.3,7.3,7.3S16,19.3,12,19.3S4.7,16,4.7,12S8,4.7,12,4.7z"/>
</svg>
