<?xml version="1.0" encoding="utf-8"?>
<!-- Generator: Adobe Illustrator 21.1.0, SVG Export Plug-In . SVG Version: 6.00 Build 0)  -->
<svg version="1.1" id="Layer_1" xmlns="http://www.w3.org/2000/svg" xmlns:xlink="http://www.w3.org/1999/xlink" x="0px" y="0px"
	 viewBox="0 0 24 24" style="enable-background:new 0 0 24 24;" xml:space="preserve">
<path d="M20.7,7h-1.5L9.1,0.6C8.8,0.5,8.4,0.5,8.2,0.9C8,1.2,8.1,1.5,8.4,1.8L16.8,7H3.3C1.5,7,0,8.5,0,10.3v9.9
	c0,1.8,1.5,3.3,3.3,3.3h17.5c1.8,0,3.3-1.5,3.3-3.3v-9.9C24,8.5,22.5,7,20.7,7z M22.7,20.2c0,1.1-0.9,2-2,2H3.3c-1.1,0-2-0.9-2-2
	v-9.9c0-1.1,0.9-2,2-2h17.5c1.1,0,2,0.9,2,2V20.2z M7.7,10.5c-2.6,0-4.7,2.1-4.7,4.7s2.1,4.7,4.7,4.7s4.7-2.1,4.7-4.7
	S10.3,10.5,7.7,10.5z M7.7,18.6c-1.9,0-3.4-1.5-3.4-3.4s1.5-3.4,3.4-3.4s3.4,1.5,3.4,3.4S9.6,18.6,7.7,18.6z M7.7,13.2
	c-1.1,0-2,0.9-2,2s0.9,2,2,2s2-0.9,2-2S8.8,13.2,7.7,13.2z M7.7,15.9c-0.4,0-0.7-0.3-0.7-0.7s0.3-0.7,0.7-0.7c0.4,0,0.7,0.3,0.7,0.7
	S8.1,15.9,7.7,15.9z M14.3,11.6h5.9v1.3h-5.9V11.6z M14.3,14.6h5.9v1.3h-5.9V14.6z M14.3,17.5h5.9v1.3h-5.9V17.5z"/>
</svg>
