<?xml version="1.0" encoding="utf-8"?>
<!-- Generator: Adobe Illustrator 21.1.0, SVG Export Plug-In . SVG Version: 6.00 Build 0)  -->
<svg version="1.1" id="Layer_1" xmlns="http://www.w3.org/2000/svg" xmlns:xlink="http://www.w3.org/1999/xlink" x="0px" y="0px"
	 viewBox="0 0 24 24" style="enable-background:new 0 0 24 24;" xml:space="preserve">
<path transform="translate(0,-952.36218)" d="M14.5,956.7c0,0,0.1,0,0.1,0.1l9.3,6.8c0.1,0.1,0.1,0.3,0.1,0.4c0,0,0,0-0.1,0.1
	l-9.3,6.8c-0.1,0.1-0.3,0.1-0.4-0.1c0,0-0.1-0.1-0.1-0.2v-3c-0.5,0-2.3-0.1-4.8,0.3c-2.8,0.5-6.1,1.6-8.9,4c-0.1,0.1-0.3,0.1-0.4,0
	C0,971.8,0,971.7,0,971.6c2.3-7,9.3-10.3,14.2-11.6V957C14.2,956.9,14.3,956.7,14.5,956.7C14.5,956.7,14.5,956.7,14.5,956.7z
	 M14.7,957.5v2.7c0,0.1-0.1,0.2-0.2,0.3c-4.6,1.2-11.1,4.2-13.6,10.4c2.7-2.1,5.8-3.1,8.3-3.5c2.8-0.5,5-0.3,5.2-0.3
	c0.1,0,0.3,0.1,0.3,0.3v2.7l8.5-6.3L14.7,957.5L14.7,957.5z"/>
</svg>
