<?xml version="1.0" encoding="utf-8"?>
<!-- Generator: Adobe Illustrator 21.1.0, SVG Export Plug-In . SVG Version: 6.00 Build 0)  -->
<svg version="1.1" id="Layer_1" xmlns="http://www.w3.org/2000/svg" xmlns:xlink="http://www.w3.org/1999/xlink" x="0px" y="0px"
	 viewBox="0 0 24 24" style="enable-background:new 0 0 24 24;" xml:space="preserve">
<path d="M24,13.9C23.1,19.8,18.1,24,12.1,24c-3.5,0-6.6-1.3-8.9-3.7C1.1,18.1,0,15.1,0.1,12c0.2-6.7,5.5-12,12-12
	c4.2,0,8.2,2.3,10.4,5.9v-5c0-0.4,0.4-0.7,0.7-0.7c0.4,0,0.7,0.4,0.7,0.7V8c0,0.4-0.4,0.7-0.7,0.7h-6.6c-0.4,0-0.7-0.4-0.7-0.7
	c0-0.4,0.4-0.7,0.7-0.7h5.1c-1.8-3.6-5.6-6-9.6-6C6.4,1.3,1.7,6,1.5,12c-0.1,2.8,0.9,5.4,2.7,7.3c1.9,2,4.9,3.2,7.8,3.2
	c5.3,0,9.7-3.7,10.5-8.9c0.1-0.4,0.5-0.6,0.8-0.6l0,0C23.8,13.2,24,13.5,24,13.9z"/>
</svg>
