<?xml version="1.0" encoding="utf-8"?>
<!-- Generator: Adobe Illustrator 21.1.0, SVG Export Plug-In . SVG Version: 6.00 Build 0)  -->
<svg version="1.1" id="Layer_1" xmlns="http://www.w3.org/2000/svg" xmlns:xlink="http://www.w3.org/1999/xlink" x="0px" y="0px"
	 viewBox="0 0 24 24" style="enable-background:new 0 0 24 24;" xml:space="preserve">
<path d="M12.1,24C12.1,24,12.1,24,12.1,24c6,0,11-4.3,11.9-10.1c0-0.3-0.2-0.6-0.5-0.7c-0.3,0-0.6,0.2-0.7,0.5
	c-0.8,5.3-5.3,9.1-10.7,9.1c0,0,0,0,0,0c-3,0-6-1.2-8-3.3c-1.9-2-2.9-4.7-2.8-7.5c0.2-6.1,5-10.9,10.8-10.9c4.2,0,8.1,2.5,9.9,6.3
	h-5.4c-0.3,0-0.6,0.3-0.6,0.6c0,0.3,0.3,0.6,0.6,0.6h6.7c0.3,0,0.6-0.3,0.6-0.6V0.8c0-0.3-0.3-0.6-0.6-0.6c-0.3,0-0.6,0.3-0.6,0.6
	v5.5C20.6,2.5,16.5,0,12.1,0C5.6,0,0.3,5.3,0.1,12c-0.1,3.1,1,6.1,3.1,8.3C5.5,22.7,8.7,24,12.1,24z"/>
</svg>
