<?xml version="1.0" encoding="utf-8"?>
<!-- Generator: Adobe Illustrator 21.1.0, SVG Export Plug-In . SVG Version: 6.00 Build 0)  -->
<svg version="1.1" id="Layer_1" xmlns="http://www.w3.org/2000/svg" xmlns:xlink="http://www.w3.org/1999/xlink" x="0px" y="0px"
	 viewBox="0 0 24 24" style="enable-background:new 0 0 24 24;" xml:space="preserve">
<path transform="translate(3025.3599,-1684.4644)" d="M-3013.9,1708.5c-1.2-0.1-2.2-0.3-3.2-0.6c-1.8-0.6-3.4-1.6-4.8-2.9
	c-1.9-1.9-3.1-4.3-3.5-7.1c-0.1-0.5-0.1-2.2,0-2.7c0.3-2.8,1.5-5.2,3.5-7.1c1.9-1.9,4.3-3.1,6.9-3.4c0.6-0.1,1-0.1,1.6-0.1
	s1,0,1.6,0.1c2.6,0.4,5,1.5,6.9,3.4c1.8,1.8,2.9,4,3.4,6.5c0.1,0.8,0.1,0.9,0.1,2s0,1.3-0.1,2c-0.4,2.5-1.6,4.7-3.4,6.5
	c-2,2-4.6,3.2-7.4,3.5C-3012.6,1708.4-3013.6,1708.5-3013.9,1708.5z M-3005,1696.5v-1.3h-8.4h-8.4v1.3v1.3h8.4h8.4V1696.5z"/>
</svg>
