<?xml version="1.0" encoding="utf-8"?>
<!-- Generator: Adobe Illustrator 21.1.0, SVG Export Plug-In . SVG Version: 6.00 Build 0)  -->
<svg version="1.1" id="Layer_1" xmlns="http://www.w3.org/2000/svg" xmlns:xlink="http://www.w3.org/1999/xlink" x="0px" y="0px"
	 viewBox="0 0 24 24" style="enable-background:new 0 0 24 24;" xml:space="preserve">
<path d="M12,1C6,1,1,6,1,12S6,23,12,23S23,18,23,12S18,1,12,1 M12,24C5.4,24,0,18.6,0,12C0,5.4,5.4,0,12,0s12,5.4,12,12
	C24,18.6,18.6,24,12,24 M17.3,11.5H7.3c-0.2,0-0.3,0.1-0.3,0.3v1.5c0,0.2,0.1,0.3,0.3,0.3h9.9c0.2,0,0.3-0.1,0.3-0.3v-1.5
	C17.5,11.6,17.4,11.5,17.3,11.5 M12,1C6,1,1,6,1,12S6,23,12,23S23,18,23,12S18,1,12,1 M12,24C5.4,24,0,18.6,0,12C0,5.4,5.4,0,12,0
	s12,5.4,12,12C24,18.6,18.6,24,12,24"/>
</svg>
