<?xml version="1.0" encoding="utf-8"?>
<!-- Generator: Adobe Illustrator 21.1.0, SVG Export Plug-In . SVG Version: 6.00 Build 0)  -->
<svg version="1.1" id="Layer_1" xmlns="http://www.w3.org/2000/svg" xmlns:xlink="http://www.w3.org/1999/xlink" x="0px" y="0px"
	 viewBox="0 0 24 24" style="enable-background:new 0 0 24 24;" xml:space="preserve">
<path d="M17.6,11.8v1.5c0,0.3-0.2,0.5-0.5,0.5H7.4c-0.3,0-0.5-0.2-0.5-0.5v-1.5c0-0.3,0.2-0.5,0.5-0.5h9.8
	C17.4,11.3,17.6,11.5,17.6,11.8z M24,12c0,6.6-5.4,12-12,12S0,18.6,0,12S5.4,0,12,0S24,5.4,24,12z M22.5,12
	c0-5.7-4.8-10.5-10.5-10.5S1.5,6.3,1.5,12S6.3,22.5,12,22.5S22.5,17.7,22.5,12z"/>
</svg>
