<?xml version="1.0" encoding="utf-8"?>
<!-- Generator: Adobe Illustrator 21.1.0, SVG Export Plug-In . SVG Version: 6.00 Build 0)  -->
<svg version="1.1" id="Layer_1" xmlns="http://www.w3.org/2000/svg" xmlns:xlink="http://www.w3.org/1999/xlink" x="0px" y="0px"
	 viewBox="0 0 24 24" style="enable-background:new 0 0 24 24;" xml:space="preserve">
<path d="M11.5,23.9c-1.2-0.1-2.2-0.3-3.2-0.6c-1.8-0.6-3.4-1.6-4.8-2.9c-1.9-1.9-3.1-4.3-3.5-7.1c-0.1-0.5-0.1-2.2,0-2.7
	c0.3-2.8,1.5-5.2,3.5-7.1c1.9-1.9,4.3-3.1,6.9-3.4C11,0,11.4,0,12,0s1,0,1.6,0.1c2.6,0.4,5,1.5,6.9,3.4c1.8,1.8,2.9,4,3.4,6.5
	c0.1,0.8,0.1,0.9,0.1,2s0,1.3-0.1,2c-0.4,2.5-1.6,4.7-3.4,6.5c-2,2-4.6,3.2-7.4,3.5C12.8,23.8,11.8,23.9,11.5,23.9z M20.4,11.9v-1.3
	H12H3.6v1.3v1.3H12h8.4V11.9z"/>
</svg>
