<?xml version="1.0" encoding="utf-8"?>
<!-- Generator: Adobe Illustrator 21.1.0, SVG Export Plug-In . SVG Version: 6.00 Build 0)  -->
<svg version="1.1" id="Layer_1" xmlns="http://www.w3.org/2000/svg" xmlns:xlink="http://www.w3.org/1999/xlink" x="0px" y="0px"
	 viewBox="0 0 24 24" style="enable-background:new 0 0 24 24;" xml:space="preserve">
<path d="M20.6,16.6c0.2,0.2,0.2,0.5,0,0.7l-2.7,3.2c-0.1,0.1-0.2,0.2-0.3,0.2c0,0-0.1,0-0.1,0c-0.1,0-0.2,0-0.3-0.1
	c-0.1-0.1-0.2-0.2-0.3-0.4c0-0.2,0-0.3,0.1-0.4c0-0.1,0.1-0.1,0.1-0.1l1.9-2.2H3.4c-2.1,0-3.3-1.7-3.3-3.3V8.8
	c0-0.3,0.2-0.6,0.6-0.6c0,0,0.1,0,0.1,0h0c0.3,0,0.5,0.3,0.5,0.6v5.5c0,1.1,0.7,2.2,2.2,2.2h15.6L17,14.2c-0.1-0.1-0.2-0.3-0.1-0.4
	c0-0.2,0.1-0.3,0.2-0.4c0.1-0.1,0.3-0.2,0.4-0.1c0.2,0,0.3,0.1,0.4,0.2L20.6,16.6z M20.6,6.4H5.1L7,4.2C7.1,4.1,7.1,4,7.1,3.8
	c0-0.3-0.2-0.6-0.5-0.6l0,0c-0.2,0-0.4,0.1-0.5,0.2L3.4,6.6c-0.2,0.2-0.2,0.5,0,0.7l2.7,3.2c0,0.1,0.1,0.1,0.1,0.1
	c0.2,0.2,0.6,0.2,0.8-0.1C7.2,10.3,7.2,10,7,9.8L5.1,7.6h15.6c1.4,0,2.2,1.1,2.2,2.2v5.5c0,0.3,0.3,0.6,0.6,0.6c0,0,0,0,0,0
	c0.2,0,0.3-0.1,0.4-0.2c0.1-0.1,0.2-0.3,0.2-0.4V9.7C24,8.1,22.7,6.4,20.6,6.4z"/>
</svg>
