<?xml version="1.0" encoding="utf-8"?>
<!-- Generator: Adobe Illustrator 21.1.0, SVG Export Plug-In . SVG Version: 6.00 Build 0)  -->
<svg version="1.1" id="Layer_1" xmlns="http://www.w3.org/2000/svg" xmlns:xlink="http://www.w3.org/1999/xlink" x="0px" y="0px"
	 viewBox="0 0 24 24" style="enable-background:new 0 0 24 24;" xml:space="preserve">
<path d="M20.5,16.5c0.1,0.1,0.2,0.3,0.2,0.4c0,0.2-0.1,0.3-0.2,0.4l-2.7,3.2c-0.1,0.1-0.2,0.2-0.4,0.2h-0.1c-0.1,0-0.2,0-0.4-0.1
	c-0.1-0.1-0.2-0.2-0.3-0.4l0-0.1c0-0.2,0-0.3,0.1-0.5c0-0.1,0.1-0.1,0.2-0.2l1.7-1.9H3.4c-2.1,0-3.4-1.7-3.4-3.4V8.8
	c0-0.4,0.2-0.7,0.7-0.7h0.1c0.4,0,0.6,0.4,0.6,0.7v5.4c0,1,0.6,2.1,2.1,2.1h15.2l-1.9-2.1c-0.1-0.1-0.2-0.4-0.1-0.5
	c0-0.2,0.1-0.3,0.2-0.4c0.1-0.1,0.2-0.1,0.2-0.2c0.1,0,0.2,0,0.3,0c0.2,0,0.3,0.1,0.4,0.2L20.5,16.5z M20.4,6.3H5.3l1.7-2
	c0.1-0.1,0.1-0.3,0.1-0.5c0-0.3-0.2-0.7-0.6-0.7C6.3,3.2,6.1,3.3,6,3.4L3.3,6.6c-0.2,0.2-0.2,0.6,0,0.9l2.6,3.1
	c0,0.1,0.1,0.1,0.2,0.2c0.1,0.1,0.3,0.2,0.5,0.1c0.2,0,0.4-0.1,0.5-0.3c0.1-0.1,0.2-0.3,0.2-0.4C7.2,10,7.2,9.9,7,9.7l-1.7-2h15.2
	c1.3,0,2.1,1.1,2.1,2.1v5.4c0,0.4,0.4,0.7,0.7,0.7c0.2,0,0.4-0.1,0.5-0.2c0.1-0.1,0.2-0.3,0.2-0.5V9.7C23.9,8.1,22.5,6.3,20.4,6.3z"
	/>
</svg>
