<?xml version="1.0" encoding="utf-8"?>
<!-- Generator: Adobe Illustrator 21.1.0, SVG Export Plug-In . SVG Version: 6.00 Build 0)  -->
<svg version="1.1" id="Layer_1" xmlns="http://www.w3.org/2000/svg" xmlns:xlink="http://www.w3.org/1999/xlink" x="0px" y="0px"
	 viewBox="0 0 24 24" style="enable-background:new 0 0 24 24;" xml:space="preserve">
<path d="M23.2,12.8C23.2,19,18.2,24,12,24S0.8,19,0.8,12.8c0-5.4,3.9-10.1,9-11.1L9.1,1.3C8.8,1.2,8.7,0.7,8.9,0.4
	C9,0.2,9.2,0,9.4,0c0.2,0,0.4,0,0.5,0.1l2.4,1.4c0.2,0.1,0.4,0.2,0.4,0.5c0.1,0.2,0,0.4-0.1,0.6l-1.9,2.1c-0.1,0.1-0.4,0.3-0.5,0.3
	c-0.1,0-0.3,0-0.4-0.1C9.5,4.6,9.4,4.5,9.4,4.2c0-0.2,0.1-0.4,0.2-0.5L10.4,3C5.7,4,2.3,8,2.3,12.8c0,5.4,4.4,9.8,9.8,9.8
	c5.4,0,9.8-4.4,9.8-9.8c0-3.8-2.2-7.3-5.6-9c-0.2-0.1-0.3-0.2-0.4-0.4c-0.1-0.2-0.1-0.4,0-0.5c0.1-0.4,0.5-0.5,0.9-0.4l0,0
	C20.7,4.3,23.2,8.4,23.2,12.8z"/>
</svg>
