<?xml version="1.0" encoding="UTF-8"?>
<svg xmlns="http://www.w3.org/2000/svg" xmlns:xlink="http://www.w3.org/1999/xlink" width="24pt" height="24pt" viewBox="0 0 24 24" version="1.1">
<g id="surface1">
<path style=" stroke:none;fill-rule:nonzero;fill:rgb(0%,0%,0%);fill-opacity:1;" d="M 16.800781 2.507812 C 16.472656 2.398438 16.144531 2.507812 16.035156 2.835938 C 15.925781 3.164062 16.035156 3.492188 16.363281 3.601562 C 19.855469 5.238281 22.144531 8.835938 22.144531 12.761719 C 22.144531 18.328125 17.671875 22.800781 12.109375 22.800781 C 6.546875 22.800781 2.074219 18.328125 2.074219 12.761719 C 2.074219 7.636719 5.890625 3.492188 10.800781 2.726562 L 9.601562 3.710938 C 9.382812 3.925781 9.382812 4.363281 9.710938 4.582031 C 9.816406 4.691406 9.925781 4.691406 10.035156 4.691406 C 10.144531 4.691406 10.363281 4.582031 10.472656 4.472656 L 12.4375 2.398438 C 12.546875 2.289062 12.65625 2.074219 12.546875 1.964844 C 12.546875 1.746094 12.4375 1.636719 12.21875 1.527344 L 9.816406 0.109375 C 9.492188 -0.109375 9.164062 0 8.945312 0.328125 C 8.835938 0.546875 8.945312 0.980469 9.164062 1.089844 L 10.144531 1.636719 C 4.800781 2.507812 0.761719 7.199219 0.761719 12.761719 C 0.761719 18.980469 5.78125 24 12 24 C 18.21875 24 23.238281 18.980469 23.238281 12.761719 C 23.238281 8.398438 20.726562 4.363281 16.800781 2.507812 Z M 16.800781 2.507812 "/>
</g>
</svg>
