<?xml version="1.0" encoding="utf-8"?>
<!-- Generator: Adobe Illustrator 21.1.0, SVG Export Plug-In . SVG Version: 6.00 Build 0)  -->
<svg version="1.1" id="Layer_1" xmlns="http://www.w3.org/2000/svg" xmlns:xlink="http://www.w3.org/1999/xlink" x="0px" y="0px"
	 viewBox="0 0 24 24" style="enable-background:new 0 0 24 24;" xml:space="preserve">
<path d="M12,19.4c1.3,0,2.3-1,2.3-2.3s-1-2.3-2.3-2.3s-2.3,1-2.3,2.3S10.7,19.4,12,19.4z M12,16.3c0.5,0,0.8,0.3,0.8,0.8
	s-0.3,0.8-0.8,0.8c-0.5,0-0.8-0.3-0.8-0.8S11.5,16.3,12,16.3z M14,5.1h-4V14h4V5.1z M11.5,12.5V6.6h1v5.9H11.5z M17,0H7L0,7v10l7,7
	h10l7-7V7L17,0z M16.3,1.4l6.2,6.2v8.7l-6.2,6.2H7.6l-6.2-6.2V7.6l6.2-6.2H16.3z"/>
</svg>
