<?xml version="1.0" encoding="utf-8"?>
<!-- Generator: Adobe Illustrator 21.1.0, SVG Export Plug-In . SVG Version: 6.00 Build 0)  -->
<svg version="1.1" id="Layer_1" xmlns="http://www.w3.org/2000/svg" xmlns:xlink="http://www.w3.org/1999/xlink" x="0px" y="0px"
	 viewBox="0 0 24 24" style="enable-background:new 0 0 24 24;" xml:space="preserve">
<path d="M17,0H7L0,7v10l7,7h10l7-7V7L17,0z M7.3,23.2l-6.6-6.6V7.3l6.6-6.6h9.3l6.6,6.6v9.3l-6.6,6.6H7.3z M12,15.3
	c-1.1,0-2,0.9-2,2s0.9,2,2,2c1.1,0,2-0.9,2-2S13.1,15.3,12,15.3z M12,18.5c-0.7,0-1.2-0.5-1.2-1.2s0.5-1.2,1.2-1.2s1.2,0.5,1.2,1.2
	S12.7,18.5,12,18.5z M13.7,5.3h-3.4v8.4h3.4V5.3z M11.1,12.9V6.1h1.8v6.8H11.1z"/>
</svg>
