<?xml version="1.0" encoding="utf-8"?>
<!-- Generator: Adobe Illustrator 21.1.0, SVG Export Plug-In . SVG Version: 6.00 Build 0)  -->
<svg version="1.1" id="Layer_1" xmlns="http://www.w3.org/2000/svg" xmlns:xlink="http://www.w3.org/1999/xlink" x="0px" y="0px"
	 viewBox="0 0 24 24" style="enable-background:new 0 0 24 24;" xml:space="preserve">
<path transform="translate(0,-952.36218)" d="M19.2,965.8l1.3-9.2c-7.6,3.9-15,10.1-17.3,19.1c0,0,0,0.1,0,0.1
	c-0.1,0.4-0.6,0.6-1,0.5c-0.4-0.1-0.6-0.6-0.5-1c2.4-9.6,10.1-16,18-20l-9.3-1.3c-0.3,0-0.6-0.3-0.7-0.6c-0.1-0.4,0.2-0.9,0.6-1
	c0.1,0,0.2,0,0.3,0l11.2,1.6c0.4,0.1,0.7,0.5,0.7,0.9L20.8,966c-0.1,0.4-0.5,0.7-0.9,0.7C19.4,966.7,19.1,966.3,19.2,965.8z"/>
</svg>
