<?xml version="1.0" encoding="utf-8"?>
<!-- Generator: Adobe Illustrator 21.1.0, SVG Export Plug-In . SVG Version: 6.00 Build 0)  -->
<svg version="1.1" id="Layer_1" xmlns="http://www.w3.org/2000/svg" xmlns:xlink="http://www.w3.org/1999/xlink" x="0px" y="0px"
	 viewBox="0 0 24 24" style="enable-background:new 0 0 24 24;" xml:space="preserve">
<path d="M8,9.6c0.7,2,2.3,3.2,4.2,3.2c1.8,0,3.4-1.3,4.2-3.2c0.4-0.1,0.7-0.5,0.8-1.1c0.1-0.6,0-1.2-0.4-1.3
	c-0.1-2.9-2.1-5.2-4.6-5.2c-2.4,0-4.4,2.3-4.6,5.2c-0.1,0-0.3,0.1-0.5,0.5C7,7.9,7,8.2,7.1,8.5C7.2,9.2,7.6,9.6,8,9.6z M7.7,7.6
	l0.4,0.2V7.4c0-2.7,1.8-4.9,4.1-4.9c2.2,0,4.1,2.2,4.1,4.9l0,0.3l0.3,0c0.1,0,0.2,0.3,0.1,0.8c-0.1,0.5-0.3,0.7-0.4,0.7L16,9
	l-0.1,0.2c-0.6,1.9-2.1,3.1-3.8,3.1c-1.7,0-3.1-1.2-3.8-3.1L8.2,8.8L7.9,9.1c-0.1,0-0.3-0.2-0.4-0.7C7.5,7.9,7.6,7.6,7.7,7.6z
	 M14.1,16.8h3.7v-1.1h-3.7V16.8z M14.6,16.2h2.7v0.1L14.6,16.2L14.6,16.2z M14.4,12.3h-0.2l-0.1,0c-0.3,0.2-0.6,0.3-0.9,0.4l-0.1,0
	l-1,4.4l-1-4.4l-0.1,0c-0.3-0.1-0.6-0.2-0.9-0.4l-0.1,0H9.8c-2.7,0-4.9,2.2-4.9,4.9V19l0,0.4h7l0,1l0.2-1l0.3,1v-1H19l0.2-0.1l0-2.1
	C19.3,14.5,17.1,12.3,14.4,12.3z M5.3,18.9v-1.6c0-2.5,2-4.4,4.4-4.4h0c0.2,0.1,0.5,0.3,0.8,0.4l1.2,5.1l0,0.6H5.3z M18.8,18.9h-6.5
	v-0.5l1.2-5.2c0.3-0.1,0.5-0.2,0.8-0.4h0c2.5,0,4.4,2,4.4,4.4V18.9z M21,13.6h2.2v0.8H21V13.6z M24,14.5c0-1.4-1.1-2.6-2.5-2.7
	c0.4-0.3,0.8-0.7,1-1.3c0.2-0.1,0.4-0.3,0.4-0.7c0.1-0.4,0-0.7-0.2-0.8c-0.1-1.6-1.2-2.8-2.5-2.8c-1.3,0-2.4,1.2-2.5,2.8
	c-0.1,0.1-0.2,0.2-0.2,0.3c0,0.1,0,0.3,0,0.5c0.1,0.4,0.3,0.6,0.5,0.7c0.2,0.5,0.5,0.9,0.9,1.2c-0.5,0-1,0.2-1.4,0.4L17,12.5
	l0.3,0.2c1,0.7,1.8,1.7,2.2,2.9l0.1,0.2h0.3l0.1,0.4l0.1-0.4H24L24,14.5z M22.4,9.5c0,0.1,0,0.1,0,0.3c0,0.1-0.1,0.2-0.1,0.3l-0.1,0
	c0-0.2,0.1-0.3,0.1-0.5L22.4,9.5z M17.9,10c0,0-0.1-0.1-0.1-0.2c0-0.1,0-0.2,0-0.2l0.2,0.1c0,0.1,0,0.1,0,0.2L17.9,10z M18.2,8.4
	c0.3-0.9,1-1.6,1.9-1.6c1.1,0,2,1.1,2,2.4l-0.2,0c-0.2,0-0.8,0-1.4-0.7c-0.3-0.4-0.8-0.6-1.3-0.6c0,0,0,0,0,0
	C18.9,7.9,18.5,8.1,18.2,8.4z M18.6,8.8c0.2-0.2,0.4-0.3,0.7-0.3c0.3,0,0.7,0.2,0.9,0.4c0.5,0.6,1.1,0.8,1.5,0.9
	c-0.2,0.9-0.8,1.6-1.6,1.6c-0.9,0-1.6-0.9-1.6-2.1C18.5,9.1,18.5,8.9,18.6,8.8z M18,12.5c0.3-0.1,0.6-0.2,0.9-0.2
	c0.1,0.1,0.2,0.1,0.3,0.2l0.4,2C19.2,13.7,18.7,13,18,12.5z M20,14l-0.4-1.8c0.2,0,0.3,0.1,0.5,0.1c0.1,0,0.2,0,0.3,0L20,14z
	 M23.5,15.2h-3.3l0.7-2.8c0.1,0,0.3-0.1,0.4-0.2c1.2,0,2.2,1,2.2,2.2V15.2z M5.3,14.1L5.3,14.1L5.4,14c0.3-0.5,0.8-0.9,1.4-1.3
	L7,12.5l-0.3-0.2c-0.4-0.3-0.9-0.4-1.4-0.5c0.4-0.3,0.7-0.7,1-1.3c0,0,0.1,0,0.1-0.1c0.2-0.1,0.3-0.3,0.3-0.6c0.1-0.4,0-0.7-0.2-0.8
	C6.4,7.5,5.3,6.3,4,6.3c-1.3,0-2.4,1.2-2.5,2.8c-0.1,0-0.1,0.1-0.2,0.1C1.2,9.4,1.1,9.6,1.2,9.9c0,0.2,0.1,0.3,0.2,0.5
	c0.1,0.1,0.2,0.2,0.3,0.2c0.2,0.5,0.5,1,0.9,1.2C1.1,11.9,0,13.1,0,14.5v0.9c0,0,0,0.1,0,0.1l0,0.2h4.5l0.1-0.2
	c0.1-0.3,0.3-0.7,0.4-1L5.3,14.1z M6.2,9.5c0,0.1,0,0.1,0,0.3c0,0.1-0.1,0.2-0.1,0.3L6,10C6,9.9,6,9.7,6.1,9.5L6.2,9.5z M1.8,10
	c0,0-0.1-0.1-0.1-0.2c0-0.1,0-0.2,0-0.2l0.2,0.1c0,0.1,0,0.1,0,0.2L1.8,10z M2.1,8.4c0.3-0.9,1-1.6,1.9-1.6c1.1,0,2,1.1,2,2.4
	l-0.2,0c-0.1,0-0.8,0-1.4-0.7C4.1,8.1,3.6,7.9,3.2,7.9c0,0,0,0,0,0C2.7,7.9,2.3,8.1,2.1,8.4z M2.4,8.8c0.2-0.2,0.4-0.3,0.7-0.3
	c0.3,0,0.7,0.2,0.9,0.4c0.5,0.6,1.1,0.8,1.5,0.9c-0.2,0.9-0.8,1.6-1.6,1.6c-0.9,0-1.6-0.9-1.6-2.1C2.4,9.1,2.4,8.9,2.4,8.8z M4,12.3
	c0.1,0,0.2,0,0.4,0L3.9,14l-0.4-1.8C3.7,12.3,3.8,12.3,4,12.3z M4.8,13.8c-0.3,0.5-0.5,1-0.7,1.5H0.5v-0.7c0-1.2,1-2.2,2.3-2.2
	c0.1,0.1,0.2,0.1,0.3,0.2l0.6,2.6l0.5,0.1l0.6-2.7c0.1,0,0.2-0.1,0.4-0.2c0.3,0,0.7,0.1,1,0.2c-0.4,0.3-0.8,0.7-1.1,1.1H4.9l0,0
	l-0.1,0V13.8z"/>
</svg>
