<?xml version="1.0" encoding="utf-8"?>
<!-- Generator: Adobe Illustrator 21.1.0, SVG Export Plug-In . SVG Version: 6.00 Build 0)  -->
<svg version="1.1" id="Layer_1" xmlns="http://www.w3.org/2000/svg" xmlns:xlink="http://www.w3.org/1999/xlink" x="0px" y="0px"
	 viewBox="0 0 24 24" style="enable-background:new 0 0 24 24;" xml:space="preserve">
<path d="M21.9,11.6c0.2-0.2,0.5-0.5,0.6-1c0.3-0.2,0.4-0.5,0.4-0.8c0.1-0.4,0-0.8-0.2-1C22.6,7.3,21.4,6,20,6
	c-1.4,0-2.5,1.2-2.7,2.9c-0.1,0.1-0.2,0.2-0.2,0.4l0,0.5c0.1,0.4,0.3,0.6,0.5,0.8c0.1,0.3,0.3,0.6,0.5,0.8c-0.3,0.1-0.6,0.2-1,0.4
	l-0.8,0.6l0.1,0.1c-0.5-0.3-1.1-0.4-1.8-0.5c0.7-0.5,1.3-1.3,1.7-2.2c0.4-0.2,0.7-0.6,0.8-1.2c0.1-0.7,0-1.3-0.4-1.5
	c-0.2-2.9-2.2-5.2-4.7-5.2c-2.4,0-4.5,2.3-4.7,5.2C7.3,7.2,7.1,7.3,7,7.7C6.9,7.9,6.8,8.3,7,8.6c0.1,0.7,0.5,1.2,0.9,1.3
	c0.3,0.9,0.9,1.7,1.5,2.2c-2.6,0.2-4.7,2.4-4.7,5v2.4h1.3c0.1,0,0.1,0,0.2,0h12.7l0.4-0.2v-2.2c0-0.5,0-1-0.2-1.5l0.2,0.3h0.3l0,0.1
	c0.1-0.1,0.2-0.1,0.3-0.1h0.2l0,0H24v-1.5C24,13.1,23.1,12,21.9,11.6z M22.7,13.3h-2l0.2-0.7c0.1,0,0.2-0.1,0.3-0.2
	C21.8,12.4,22.4,12.8,22.7,13.3z M19.9,7.1c0.9,0,1.6,0.8,1.7,1.9c-0.2,0-0.7-0.1-1.1-0.6c-0.3-0.4-0.9-0.7-1.5-0.7
	c-0.1,0-0.2,0-0.3,0.1C19,7.4,19.5,7.1,19.9,7.1z M8.6,9.2L8.4,8.4L8,8.8c0-0.1-0.1-0.2-0.1-0.4c0-0.2,0-0.4,0-0.5l0.5,0.3V7.5
	c0-2.5,1.7-4.6,3.8-4.6c2,0,3.8,2.1,3.8,4.6V8h0.4c0,0.1,0,0.2,0,0.5c0,0.2-0.1,0.4-0.2,0.4l-0.4-0.3l-0.2,0.5
	C15,10.9,13.7,12,12.1,12C10.6,12,9.3,10.9,8.6,9.2z M11.5,18.6H5.7v-1.4c0-2.3,1.8-4,4-4.1c0,0,0.1,0.1,0.1,0.1
	c0.1,0.1,0.3,0.2,0.5,0.3l1.1,4.8V18.6z M11.4,12.9c0.4,0.1,0.9,0.1,1.3,0l-0.7,2.9L11.4,12.9z M18.3,18.5h-5.8l0-0.2l1.1-5
	c0.2-0.1,0.4-0.2,0.6-0.3c2.2,0,4,1.8,4,4.1V18.5z M18.4,12.6c0.1,0,0.2,0,0.3,0c0,0,0.1,0.1,0.1,0.1c0,0,0,0,0,0l0.1,0.6
	C18.8,12.9,18.6,12.7,18.4,12.6z M19.9,11.1c-0.8,0-1.3-0.8-1.3-1.8c0-0.1,0-0.3,0-0.3c0.2-0.2,0.3-0.2,0.5-0.2
	c0.2,0,0.6,0.2,0.7,0.3c0.4,0.5,1,0.8,1.4,0.9C21,10.7,20.5,11.1,19.9,11.1z M23,14.9h-2.7l0.2-0.9v0.6H23V14.9z M19.9,12.5
	l-0.1,0.3l-0.1-0.3C19.8,12.5,19.9,12.5,19.9,12.5z M17.9,16.9h-4.1v-1.6h4.1V16.9z M5,15.5c0-0.1,0.1-0.3,0.2-0.5
	c0.1-0.2,0.1-0.3,0.2-0.5l0.3-0.4l0.1-0.1c0.3-0.5,0.8-0.9,1.3-1.2l0.4-0.4L7,12.1c-0.3-0.2-0.6-0.3-1-0.4c0.2-0.2,0.4-0.5,0.6-0.9
	c0.1,0,0.1-0.1,0.1-0.1c0.2-0.1,0.3-0.3,0.3-0.7c0.1-0.4,0-0.8-0.2-1C6.7,7.3,5.5,6.1,4.2,6.1C2.8,6.1,1.6,7.4,1.5,9c0,0,0,0,0,0
	L1.4,9L1.3,9.1C1.2,9.3,1.1,9.6,1.2,10c0,0.2,0.1,0.3,0.2,0.4c0,0,0,0.1,0.1,0.1l0,0.1c0.1,0.1,0.2,0.2,0.3,0.2
	c0.1,0.3,0.3,0.6,0.5,0.8C0.9,12,0,13.1,0,14.4v1.4h4.8L5,15.5z M4.2,7.1C5,7.1,5.8,8,5.9,9C5.7,9,5.2,8.9,4.8,8.4
	C4.4,8,3.9,7.7,3.4,7.7c-0.2,0-0.3,0-0.4,0C3.3,7.4,3.7,7.1,4.2,7.1z M4.1,13L4,12.5c0.1,0,0.1,0,0.2,0h0.1L4.1,13z M2.8,8.9
	C3,8.8,3.1,8.8,3.3,8.8C3.5,8.8,3.8,9,4,9.1c0.4,0.5,1,0.8,1.4,0.9c-0.2,0.7-0.7,1.2-1.3,1.2c-0.7,0-1.3-0.8-1.3-1.8
	C2.8,9.2,2.8,9.1,2.8,8.9z M1,14.5c0-1,0.9-1.9,1.9-1.9c0,0,0.1,0.1,0.1,0.1c0,0,0,0,0,0L3.6,15H1V14.5z M5.2,12.8
	c0,0,0.1,0,0.1-0.1c0,0,0.1,0,0.1-0.1c0.1,0,0.3,0,0.4,0.1c-0.2,0.2-0.5,0.5-0.7,0.7H5L5.2,12.8z"/>
</svg>
