<?xml version="1.0" encoding="utf-8"?>
<!-- Generator: Adobe Illustrator 21.1.0, SVG Export Plug-In . SVG Version: 6.00 Build 0)  -->
<svg version="1.1" id="Layer_1" xmlns="http://www.w3.org/2000/svg" xmlns:xlink="http://www.w3.org/1999/xlink" x="0px" y="0px"
	 viewBox="0 0 24 24" style="enable-background:new 0 0 24 24;" xml:space="preserve">
<path d="M23.4,0h-6.2c-0.3,0-0.6,0.3-0.6,0.6v6.2c0,0.3,0.3,0.6,0.6,0.6h6.2c0.3,0,0.6-0.3,0.6-0.6V0.6C24,0.3,23.7,0,23.4,0z
	 M22.7,6.2h-5v-5h5V6.2z M6.9,8.3H0.6C0.3,8.3,0,8.6,0,8.9v6.2c0,0.3,0.3,0.6,0.6,0.6h6.2c0.3,0,0.6-0.3,0.6-0.6V8.9
	C7.5,8.6,7.2,8.3,6.9,8.3z M6.2,14.5h-5v-5h5V14.5z M6.9,16.5H0.6c-0.3,0-0.6,0.3-0.6,0.6v6.2C0,23.7,0.3,24,0.6,24h6.2
	c0.3,0,0.6-0.3,0.6-0.6v-6.2C7.5,16.8,7.2,16.5,6.9,16.5z M6.2,22.7h-5v-5h5V22.7z M15.1,8.3H8.9c-0.3,0-0.6,0.3-0.6,0.6v6.2
	c0,0.3,0.3,0.6,0.6,0.6h6.2c0.3,0,0.6-0.3,0.6-0.6V8.9C15.7,8.6,15.4,8.3,15.1,8.3z M14.5,14.5h-5v-5h5V14.5z M15.1,0H8.9
	C8.6,0,8.3,0.3,8.3,0.6v6.2c0,0.3,0.3,0.6,0.6,0.6h6.2c0.3,0,0.6-0.3,0.6-0.6V0.6C15.7,0.3,15.4,0,15.1,0z M14.5,6.2h-5v-5h5V6.2z
	 M23.4,16.5h-6.2c-0.3,0-0.6,0.3-0.6,0.6v6.2c0,0.3,0.3,0.6,0.6,0.6h6.2c0.3,0,0.6-0.3,0.6-0.6v-6.2C24,16.8,23.7,16.5,23.4,16.5z
	 M22.7,22.7h-5v-5h5V22.7z M6.9,0H0.6C0.3,0,0,0.3,0,0.6v6.2c0,0.3,0.3,0.6,0.6,0.6h6.2c0.3,0,0.6-0.3,0.6-0.6V0.6
	C7.5,0.3,7.2,0,6.9,0z M6.2,6.2h-5v-5h5V6.2z M23.4,8.3h-6.2c-0.3,0-0.6,0.3-0.6,0.6v6.2c0,0.3,0.3,0.6,0.6,0.6h6.2
	c0.3,0,0.6-0.3,0.6-0.6V8.9C24,8.6,23.7,8.3,23.4,8.3z M22.7,14.5h-5v-5h5V14.5z M15.1,16.5H8.9c-0.3,0-0.6,0.3-0.6,0.6v6.2
	c0,0.3,0.3,0.6,0.6,0.6h6.2c0.3,0,0.6-0.3,0.6-0.6v-6.2C15.7,16.8,15.4,16.5,15.1,16.5z M14.5,22.7h-5v-5h5V22.7z"/>
</svg>
