<?xml version="1.0" encoding="utf-8"?>
<!-- Generator: Adobe Illustrator 21.1.0, SVG Export Plug-In . SVG Version: 6.00 Build 0)  -->
<svg version="1.1" id="Layer_1" xmlns="http://www.w3.org/2000/svg" xmlns:xlink="http://www.w3.org/1999/xlink" x="0px" y="0px"
	 viewBox="0 0 24 24" style="enable-background:new 0 0 24 24;" xml:space="preserve">
<path d="M6.7,8.4H0.3c-0.2,0-0.4,0.2-0.4,0.4v6.4c0,0.2,0.2,0.4,0.4,0.4h6.4c0.2,0,0.4-0.2,0.4-0.4V8.8C7.1,8.6,6.9,8.4,6.7,8.4z
	 M6.3,9.2v5.6H0.7V9.2H6.3z M23.7,8.4h-6.4c-0.2,0-0.4,0.2-0.4,0.4v6.4c0,0.2,0.2,0.4,0.4,0.4h6.4c0.2,0,0.4-0.2,0.4-0.4V8.8
	C24.1,8.6,23.9,8.4,23.7,8.4z M23.3,9.2v5.6h-5.6V9.2H23.3z M23.7-0.1h-6.4c-0.2,0-0.4,0.2-0.4,0.4v6.4c0,0.2,0.2,0.4,0.4,0.4h6.4
	c0.2,0,0.4-0.2,0.4-0.4V0.3C24.1,0.1,23.9-0.1,23.7-0.1z M23.3,0.7v5.6h-5.6V0.7H23.3z M6.7,16.9H0.3c-0.2,0-0.4,0.2-0.4,0.4v6.4
	c0,0.2,0.2,0.4,0.4,0.4h6.4c0.2,0,0.4-0.2,0.4-0.4v-6.4C7.1,17.1,6.9,16.9,6.7,16.9z M6.3,17.7v5.6H0.7v-5.6H6.3z M15.2,16.9H8.8
	c-0.2,0-0.4,0.2-0.4,0.4v6.4c0,0.2,0.2,0.4,0.4,0.4h6.4c0.2,0,0.4-0.2,0.4-0.4v-6.4C15.6,17.1,15.4,16.9,15.2,16.9z M14.8,17.7v5.6
	H9.2v-5.6H14.8z M23.7,16.9h-6.4c-0.2,0-0.4,0.2-0.4,0.4v6.4c0,0.2,0.2,0.4,0.4,0.4h6.4c0.2,0,0.4-0.2,0.4-0.4v-6.4
	C24.1,17.1,23.9,16.9,23.7,16.9z M23.3,17.7v5.6h-5.6v-5.6H23.3z M15.2,8.4H8.8c-0.2,0-0.4,0.2-0.4,0.4v6.4c0,0.2,0.2,0.4,0.4,0.4
	h6.4c0.2,0,0.4-0.2,0.4-0.4V8.8C15.6,8.6,15.4,8.4,15.2,8.4z M14.8,9.2v5.6H9.2V9.2H14.8z M15.2-0.1H8.8c-0.2,0-0.4,0.2-0.4,0.4v6.4
	c0,0.2,0.2,0.4,0.4,0.4h6.4c0.2,0,0.4-0.2,0.4-0.4V0.3C15.6,0.1,15.4-0.1,15.2-0.1z M14.8,0.7v5.6H9.2V0.7H14.8z M6.7-0.1H0.3
	c-0.2,0-0.4,0.2-0.4,0.4v6.4c0,0.2,0.2,0.4,0.4,0.4h6.4c0.2,0,0.4-0.2,0.4-0.4V0.3C7.1,0.1,6.9-0.1,6.7-0.1z M6.3,0.7v5.6H0.7V0.7
	H6.3z"/>
</svg>
