<?xml version="1.0" encoding="utf-8"?>
<!-- Generator: Adobe Illustrator 21.1.0, SVG Export Plug-In . SVG Version: 6.00 Build 0)  -->
<svg version="1.1" id="Layer_1" xmlns="http://www.w3.org/2000/svg" xmlns:xlink="http://www.w3.org/1999/xlink" x="0px" y="0px"
	 viewBox="0 0 20 20" style="enable-background:new 0 0 20 20;" xml:space="preserve">
<path d="M5.1,9.9c0-0.4,0.3-0.8,0.8-0.8h8.5c0.4,0,0.8,0.3,0.8,0.8c0,0.4-0.3,0.8-0.8,0.8H5.8C5.4,10.6,5.1,10.3,5.1,9.9z M20,3.9
	v15.4c0,0.4-0.3,0.8-0.8,0.8H0.8C0.3,20,0,19.7,0,19.2V0.8C0,0.3,0.3,0,0.8,0h15.4c0.2,0,0.4,0.1,0.5,0.2l3.1,3.1
	C19.9,3.5,20,3.7,20,3.9z M4.8,8.6v9.9h10.6V8.6H4.8z M15.4,3.1V1.5H4.8v1.6L15.4,3.1z M16.9,7.9v10.6h1.6V4.2l-1.6-1.6v1.3
	c0,0.4-0.3,0.8-0.8,0.8H4c-0.4,0-0.8-0.3-0.8-0.8V1.5H1.5v17h1.7V7.9c0-0.4,0.3-0.8,0.8-0.8h12.1c0.2,0,0.4,0.1,0.5,0.2
	C16.8,7.5,16.9,7.7,16.9,7.9z"/>
</svg>
