<?xml version="1.0" encoding="utf-8"?>
<!-- Generator: Adobe Illustrator 21.1.0, SVG Export Plug-In . SVG Version: 6.00 Build 0)  -->
<svg version="1.1" id="Layer_1" xmlns="http://www.w3.org/2000/svg" xmlns:xlink="http://www.w3.org/1999/xlink" x="0px" y="0px"
	 viewBox="0 0 24 24" style="enable-background:new 0 0 24 24;" xml:space="preserve">
<path d="M2.1,0C1,0,0,1,0,2.1v19.8C0,23,1,24,2.1,24h19.8c1.1,0,2.1-1,2.1-2.1V5.7c0-0.2-0.1-0.5-0.3-0.6l-4.8-4.8
	C18.7,0.1,18.5,0,18.3,0H2.1z M2.1,1.8h2.4v7.5c0,0.5,0.4,0.9,0.9,0.9h12c0.5,0,0.9-0.4,0.9-0.9V2.2l3.9,3.9v15.8
	c0,0.2-0.1,0.3-0.3,0.3H2.1c-0.2,0-0.3-0.1-0.3-0.3V2.1C1.8,1.9,1.9,1.8,2.1,1.8z M6.3,1.8h10.2v6.6H6.3V1.8z M12,12.3
	c-2.1,0-3.9,1.8-3.9,3.9c0,2.1,1.8,3.9,3.9,3.9s3.9-1.8,3.9-3.9C15.9,14,14.1,12.3,12,12.3z M12,14.1c1.2,0,2.1,0.9,2.1,2.1
	c0,1.2-0.9,2.1-2.1,2.1s-2.1-0.9-2.1-2.1S10.8,14.1,12,14.1z"/>
</svg>
