<?xml version="1.0" encoding="utf-8"?>
<!-- Generator: Adobe Illustrator 21.1.0, SVG Export Plug-In . SVG Version: 6.00 Build 0)  -->
<svg version="1.1" id="Layer_1" xmlns="http://www.w3.org/2000/svg" xmlns:xlink="http://www.w3.org/1999/xlink" x="0px" y="0px"
	 viewBox="0 0 24 24" style="enable-background:new 0 0 24 24;" xml:space="preserve">
<path transform="translate(0,-952.36218)" d="M2.1,952.4c-1.1,0-2.1,1-2.1,2.1v19.8c0,1.1,1,2.1,2.1,2.1h19.8c1.1,0,2.1-1,2.1-2.1
	v-16.2c0-0.2-0.1-0.5-0.3-0.6l-4.8-4.8c-0.2-0.2-0.4-0.3-0.6-0.3H2.1z M2.1,954.2h2.4v7.5c0,0.5,0.4,0.9,0.9,0.9h12
	c0.5,0,0.9-0.4,0.9-0.9v-7.1l3.9,3.9v15.8c0,0.2-0.1,0.3-0.3,0.3H2.1c-0.2,0-0.3-0.1-0.3-0.3v-19.8C1.8,954.3,1.9,954.2,2.1,954.2z
	 M6.3,954.2h10.2v6.6H6.3V954.2z M12,964.7c-2.1,0-3.9,1.8-3.9,3.9c0,2.1,1.8,3.9,3.9,3.9s3.9-1.8,3.9-3.9
	C15.9,966.4,14.1,964.7,12,964.7z M12,966.5c1.2,0,2.1,0.9,2.1,2.1c0,1.2-0.9,2.1-2.1,2.1s-2.1-0.9-2.1-2.1
	C9.9,967.4,10.8,966.5,12,966.5z"/>
</svg>
