<?xml version="1.0" encoding="utf-8"?>
<!-- Generator: Adobe Illustrator 21.1.0, SVG Export Plug-In . SVG Version: 6.00 Build 0)  -->
<svg version="1.1" id="Layer_1" xmlns="http://www.w3.org/2000/svg" xmlns:xlink="http://www.w3.org/1999/xlink" x="0px" y="0px"
	 viewBox="0 0 24 24" style="enable-background:new 0 0 24 24;" xml:space="preserve">
<path d="M19.6,15.2H21v4.9H0V6h12.9v1.4H1.4v11.2h18.2V15.2z M17.1,13.6v0.1h1.4v-0.1c0-2.4-1.9-4.3-4.3-4.3h-0.1v1.4h0.1
	C15.8,10.7,17.1,12,17.1,13.6z M14.3,6.7h-0.1v1.3h0.1c3,0,5.5,2.5,5.5,5.5v0.1h1.4v-0.1C21.2,9.8,18.1,6.7,14.3,6.7z M14.3,3.9
	h-0.1v1.4h0.1c4.6,0,8.3,3.7,8.3,8.3v0.1H24v-0.1C24,8.2,19.6,3.9,14.3,3.9z"/>
</svg>
