<?xml version="1.0" encoding="utf-8"?>
<!-- Generator: Adobe Illustrator 21.1.0, SVG Export Plug-In . SVG Version: 6.00 Build 0)  -->
<svg version="1.1" id="Layer_1" xmlns="http://www.w3.org/2000/svg" xmlns:xlink="http://www.w3.org/1999/xlink" x="0px" y="0px"
	 viewBox="0 0 24 24" style="enable-background:new 0 0 24 24;" xml:space="preserve">
<path d="M21.2,13.6H20c0-3.1-2.5-5.7-5.7-5.7V6.8C18.1,6.8,21.2,9.8,21.2,13.6z M20.9,20.1H0v-14h12.8v1.2H1.2v11.6h18.6v-3.5h1.2
	V20.1z M24,13.6h-1.2c0-4.7-3.8-8.5-8.5-8.5V3.9C19.7,3.9,24,8.3,24,13.6z M18.5,13.6h-1.2c0-1.7-1.4-3-3-3V9.4
	C16.6,9.4,18.5,11.3,18.5,13.6z"/>
</svg>
