<?xml version="1.0" encoding="utf-8"?>
<!-- Generator: Adobe Illustrator 21.1.0, SVG Export Plug-In . SVG Version: 6.00 Build 0)  -->
<svg version="1.1" id="Layer_1" xmlns="http://www.w3.org/2000/svg" xmlns:xlink="http://www.w3.org/1999/xlink" x="0px" y="0px"
	 viewBox="0 0 24 24" style="enable-background:new 0 0 24 24;" xml:space="preserve">
<path d="M19.5,18.3c1.7-2,2.7-4.5,2.7-7.2c0-2.9-1.1-5.8-3.3-7.8C16.8,1.1,14.1,0,11.2,0C8.1,0,5.4,1.1,3.3,3.3
	C1.1,5.4,0,8.1,0,11.2c0,3.1,1.1,5.8,3.3,7.8c2.2,2.1,4.9,3.3,7.8,3.3c2.7,0,5.1-1,7.2-2.7l4.4,4.4l1.2-1.2L19.5,18.3z M17.8,17.7
	c-1.8,1.8-4.2,2.8-6.6,2.8c-2.4,0-4.8-1-6.6-2.7c-1.8-1.8-2.8-4.2-2.8-6.6c0-2.4,1-4.8,2.7-6.6c1.8-1.8,4.2-2.8,6.7-2.8
	c2.5,0,4.8,1,6.6,2.7c1.7,1.7,2.7,4,2.7,6.6C20.5,13.6,19.5,15.8,17.8,17.7z"/>
</svg>
