<?xml version="1.0" encoding="utf-8"?>
<!-- Generator: Adobe Illustrator 21.1.0, SVG Export Plug-In . SVG Version: 6.00 Build 0)  -->
<svg version="1.1" id="Layer_1" xmlns="http://www.w3.org/2000/svg" xmlns:xlink="http://www.w3.org/1999/xlink" x="0px" y="0px"
	 viewBox="0 0 8 8" style="enable-background:new 0 0 8 8;" xml:space="preserve">
<path d="M7.8,7L6.5,5.7C7,5.1,7.2,4.4,7.2,3.6c0-2-1.6-3.6-3.6-3.6S0,1.6,0,3.6c0,2,1.6,3.6,3.6,3.6c0.8,0,1.5-0.2,2.1-0.7L7,7.8
	C7.1,7.9,7.2,8,7.4,8c0.1,0,0.3-0.1,0.4-0.2C7.9,7.7,8,7.6,8,7.4C8,7.3,7.9,7.1,7.8,7z M3.6,1.2C4.9,1.2,6,2.3,6,3.6S4.9,6,3.6,6
	S1.2,4.9,1.2,3.6S2.3,1.2,3.6,1.2z"/>
</svg>
