<?xml version="1.0" encoding="UTF-8"?>
<svg xmlns="http://www.w3.org/2000/svg" xmlns:xlink="http://www.w3.org/1999/xlink" width="24pt" height="24pt" viewBox="0 0 24 24" version="1.1">
<g id="surface1">
<path style=" stroke:none;fill-rule:nonzero;fill:rgb(0%,0%,0%);fill-opacity:1;" d="M 11.890625 0.585938 C 11.890625 0.585938 11.78125 0.585938 11.78125 0.585938 L 3.601562 3.640625 C 3.382812 3.75 3.273438 3.96875 3.273438 4.1875 L 3.273438 13.785156 C 3.273438 15.96875 4.472656 17.714844 6.109375 19.242188 C 7.746094 20.769531 9.816406 22.1875 11.671875 23.496094 C 11.890625 23.605469 12.109375 23.605469 12.328125 23.496094 C 14.183594 22.1875 16.253906 20.769531 17.890625 19.242188 C 19.527344 17.714844 20.726562 15.96875 20.726562 13.785156 L 20.726562 4.1875 C 20.726562 3.96875 20.617188 3.75 20.398438 3.640625 L 12.21875 0.585938 C 12.109375 0.585938 12 0.585938 11.890625 0.585938 Z M 12 1.675781 L 19.636719 4.515625 L 19.636719 13.675781 C 19.636719 15.421875 18.65625 16.839844 17.128906 18.367188 C 15.710938 19.785156 13.855469 20.988281 12 22.296875 C 10.144531 20.988281 8.289062 19.675781 6.871094 18.367188 C 5.34375 16.949219 4.363281 15.421875 4.363281 13.675781 L 4.363281 4.515625 Z M 12 1.675781 "/>
</g>
</svg>
