<?xml version="1.0" encoding="utf-8"?>
<!-- Generator: Adobe Illustrator 21.1.0, SVG Export Plug-In . SVG Version: 6.00 Build 0)  -->
<svg version="1.1" id="Layer_1" xmlns="http://www.w3.org/2000/svg" xmlns:xlink="http://www.w3.org/1999/xlink" x="0px" y="0px"
	 viewBox="0 0 24 24" style="enable-background:new 0 0 24 24;" xml:space="preserve">
<path d="M20.9,3.3L12.2,0c-0.1,0-0.2,0-0.3,0L3.1,3.3C2.9,3.4,2.8,3.5,2.8,3.7v10.6c0,1.8,0.9,3.5,3,5.3c1.4,1.3,3.3,2.5,5.1,3.7
	c0.3,0.2,0.6,0.4,0.9,0.6C11.8,24,11.9,24,12,24c0.1,0,0.2,0,0.3-0.1c0.3-0.2,0.6-0.4,0.9-0.6c1.8-1.2,3.6-2.4,5.1-3.7
	c2-1.8,3-3.5,3-5.3V3.7C21.2,3.5,21.1,3.4,20.9,3.3z M20.3,14.4c0,1.5-0.8,3-2.7,4.6c-1.4,1.2-3.2,2.4-5,3.6
	c-0.2,0.1-0.4,0.3-0.6,0.4c-0.2-0.1-0.4-0.3-0.6-0.4c-1.8-1.2-3.6-2.4-5-3.6c-1.8-1.6-2.7-3.1-2.7-4.6V4L12,0.9L20.3,4V14.4z"/>
</svg>
