<?xml version="1.0" encoding="utf-8"?>
<!-- Generator: Adobe Illustrator 21.1.0, SVG Export Plug-In . SVG Version: 6.00 Build 0)  -->
<svg version="1.1" id="Layer_1" xmlns="http://www.w3.org/2000/svg" xmlns:xlink="http://www.w3.org/1999/xlink" x="0px" y="0px"
	 viewBox="0 0 22 22" style="enable-background:new 0 0 22 22;" xml:space="preserve">
<path d="M7.4,19.2c0.9,0.8,1.7,1.5,2.2,1.9C10.7,22,10.7,22,11,22h0.2l0.2-0.1c0.2-0.2,5.9-4.4,7.5-8.2c1.9-4.4,1.2-12,1.2-12.3
	L20.1,0L19,0.8c-0.3,0.3-1.4,0.9-2.2,0.9c-0.9,0-3.8-0.9-5.6-1.5l-0.1,0h-0.2l-0.1,0C9.1,0.8,6.1,1.7,5.2,1.7C4.4,1.7,3.3,1.1,3,0.8
	L1.9,0L1.8,1.3c0,0.3-0.7,7.9,1.2,12.3C3.7,15.3,5.2,17.1,7.4,19.2z M3.2,2.6c0.6,0.3,1.3,0.5,2,0.5c1.2,0,4.7-1.1,5.7-1.5v9.1h7.4
	c-0.2,0.8-0.4,1.5-0.7,2.2c-1.2,2.9-5.3,6.2-6.6,7.3c0,0,0,0,0,0v-9.5H3.7C3.1,7.9,3.1,4.4,3.2,2.6z"/>
</svg>
