<?xml version="1.0" encoding="utf-8"?>
<!-- Generator: Adobe Illustrator 21.1.0, SVG Export Plug-In . SVG Version: 6.00 Build 0)  -->
<svg version="1.1" id="Layer_1" xmlns="http://www.w3.org/2000/svg" xmlns:xlink="http://www.w3.org/1999/xlink" x="0px" y="0px"
	 viewBox="0 0 20 20" style="enable-background:new 0 0 20 20;" xml:space="preserve">
<path d="M17.4,3.9l-7.2-3.8C10,0,9.7,0,9.5,0.1L2.6,3.9C2.4,4,2.3,4.2,2.3,4.4v5.5c0,4.2,2.5,8,6.4,9.6l1,0.5c0.1,0,0.2,0,0.3,0
	s0.2,0,0.3-0.1l1.1-0.5c3.9-1.6,6.5-5.5,6.5-9.7V4.4C17.6,4.2,17.6,4,17.4,3.9z M16.5,4.8v5c0,3.8-2.3,7.2-5.7,8.6l-0.9,0.4
	l-0.7-0.4C5.7,17,3.4,13.6,3.4,9.9V4.8l6.4-3.5L16.5,4.8z"/>
</svg>
