<?xml version="1.0" encoding="utf-8"?>
<!-- Generator: Adobe Illustrator 21.1.0, SVG Export Plug-In . SVG Version: 6.00 Build 0)  -->
<svg version="1.1" id="Layer_1" xmlns="http://www.w3.org/2000/svg" xmlns:xlink="http://www.w3.org/1999/xlink" x="0px" y="0px"
	 viewBox="0 0 24 24" style="enable-background:new 0 0 24 24;" xml:space="preserve">
<path d="M12.1,8.5h0.4c0,0,0,0,0,0.1c0.1,0.1,0.1,0.3,0.2,0.5l-0.2,0.3c0,0,0,0.1-0.1,0.1c-0.1,0.1-0.2,0.3-0.2,0.5
	c0,0.3,0.1,0.5,0.3,0.7l0.9,0.9c0.1,0.1,0.4,0.2,0.6,0.2h0c0.2,0,0.5-0.1,0.6-0.2l0.3-0.3c0.2,0.1,0.4,0.2,0.7,0.3v0.3
	c0,0.4,0.3,0.8,0.8,0.8h1.3c0.5,0,0.8-0.4,0.8-0.7v-0.3c0.2-0.1,0.4-0.1,0.6-0.3l0.2,0.2c0.3,0.3,0.9,0.3,1.2,0l0.9-0.9l0-0.1
	c0,0,0-0.1,0.1-0.1c0.1-0.1,0.2-0.3,0.2-0.5c0-0.3-0.1-0.5-0.3-0.7L21.1,9l0.2-0.6h0.4c0.4,0,0.8-0.3,0.8-0.8V6.1L22.4,6
	c-0.1-0.2-0.4-0.5-0.8-0.5h-0.4C21.2,5.2,21.1,5,21,4.8l0.4-0.4l0-0.1c0,0,0-0.1,0.1-0.1c0.1-0.1,0.2-0.3,0.2-0.5
	c0-0.3-0.1-0.5-0.3-0.7l-0.9-0.9C20.3,2.2,20.2,2,19.9,2c-0.2,0-0.4,0.1-0.6,0.3l-0.4,0.4c-0.1-0.1-0.3-0.1-0.5-0.2V2.1
	c0-0.4-0.3-0.8-0.8-0.8h-1.3c-0.4,0-0.8,0.3-0.8,0.8v0.4c-0.2,0.1-0.4,0.1-0.6,0.2l-0.4-0.4C14.5,2.2,14.3,2,14,2
	c-0.3,0-0.5,0.1-0.7,0.2l-0.9,0.9l0,0.1c0,0,0,0.1-0.1,0.1c-0.1,0.1-0.2,0.3-0.2,0.5c0,0.3,0.1,0.5,0.3,0.7l0.4,0.4
	c-0.1,0.2-0.2,0.4-0.3,0.7h-0.4c-0.4,0-0.8,0.3-0.8,0.8v1.4C11.3,8.1,11.6,8.5,12.1,8.5z M14.5,9.4l-0.3-0.5
	c-0.3-0.3-0.3-0.7-0.4-1.1l-0.2-0.5h-0.9V6.8h0.9l0.2-0.5c0.1-0.5,0.2-0.8,0.4-1.2l0.2-0.5l-0.8-0.8l0.4-0.4l0.7,0.9L15.2,4
	c0.3-0.3,0.7-0.4,1.1-0.4l0.5-0.2v-1h0.6v1.1l0.4,0c0.4,0.1,0.7,0.2,1.1,0.5l0.5,0.3L20,3.5l0.5,0.5l-0.6,0.7l0.3,0.4
	c0.2,0.4,0.4,0.7,0.5,1.2l0.2,0.5h1v0.4h-0.9l-0.2,0.5c-0.1,0.4-0.2,0.7-0.4,1.1L20,9.2l0.6,0.6l-0.4,0.4l-0.6-0.6l-0.4,0.3
	c-0.4,0.2-0.7,0.4-1.2,0.5l-0.5,0.2v0.9H17v-0.7l-0.5-0.2c-0.5-0.1-0.8-0.2-1.2-0.4l-0.5-0.3l-0.7,0.7l-0.4-0.4L14.5,9.4z M23.9,15
	c-0.2-0.6-0.6-1-1-1.2c-0.6-0.3-1-0.3-1.6-0.2l-4.5,1.3c-0.1-0.2-0.3-0.4-0.6-0.5L10,10.9c-0.2-0.2-1-0.6-2-0.3
	c-0.1,0-0.5,0.1-2.5,0.7l-2.3,0.7C2,12.3,1,12.5,0.8,12.6H0l1.8,6.3l4.9-1.4c0.4,0.2,1.2,0.7,2,1.3l2.1,1.3c0.4,0.2,0.9,0.3,1.4,0.3
	c0.2,0,0.5,0,0.6-0.1c0.1,0,0.3-0.1,0.3,0l0.1,0l0.1,0c0.8-0.2,4-1.1,9.2-2.6c0.5-0.1,0.9-0.6,1.1-1C24,16.1,24.1,15.5,23.9,15z
	 M22.5,16.1c-0.2,0.2-0.4,0.4-0.5,0.4c-1.6,0.4-3.9,1.1-5.7,1.7c-0.1,0-0.2,0.1-0.3,0.1c0.5-0.2,1-0.6,1.3-1.1
	c0.2-0.3,0.3-0.8,0.3-1.2l4-1.1c0.2-0.1,0.4,0,0.6,0.1c0.1,0,0.3,0.2,0.4,0.4C22.6,15.7,22.6,15.9,22.5,16.1z M15.9,16L15.9,16
	c0,0.3,0,0.3,0,0.3l-0.1,0.1c-0.1,0.2-0.1,0.2-0.4,0.3c-0.2,0.1-0.4,0-0.6-0.1l-3.1-1.8l-0.8,1.5l3.1,1.8c0.5,0.3,1,0.4,1.5,0.3
	c-1.3,0.4-2.3,0.7-2.4,0.7l-0.2,0c-0.2,0.1-1,0.2-1.5-0.1l-1.3-0.8c-0.8-0.5-1.8-1.1-2.4-1.5c-0.3-0.2-0.6-0.3-0.6-0.4l-0.2-0.2
	l-4.2,1.2l-1.1-3.7c0.4-0.1,1.1-0.3,1.9-0.5c1.7-0.6,4.4-1.3,4.6-1.3l0.2,0C8.7,11.7,9.2,12,9.3,12l6.3,3.5
	C15.7,15.6,15.9,15.8,15.9,16z M17.1,10.1c1.7,0,3.2-1.4,3.2-3.2c0-1.7-1.4-3.2-3.2-3.2c-1.8,0-3.2,1.4-3.2,3.2
	C13.9,8.7,15.3,10.1,17.1,10.1z M15.2,7c0-1,0.9-1.9,1.9-1.9S19,6,19,7s-0.9,1.9-1.9,1.9S15.2,8,15.2,7z"/>
</svg>
