<?xml version="1.0" encoding="utf-8"?>
<!-- Generator: Adobe Illustrator 21.1.0, SVG Export Plug-In . SVG Version: 6.00 Build 0)  -->
<svg version="1.1" id="Layer_1" xmlns="http://www.w3.org/2000/svg" xmlns:xlink="http://www.w3.org/1999/xlink" x="0px" y="0px"
	 viewBox="0 0 24 24" style="enable-background:new 0 0 24 24;" xml:space="preserve">
<path d="M12.2,20.4c-0.4,0-0.9-0.1-1.3-0.3l-1.3-0.8c-1.1-0.7-2.5-1.6-3-1.9l-4.9,1.4L0,12.9h0.5c0,0,1.1-0.3,2.5-0.7
	c3.8-1.1,4.8-1.4,4.9-1.4c1-0.3,1.8,0.2,1.9,0.3l6.5,3.6c0.3,0.1,0.5,0.4,0.6,0.6l0.2-0.1l4.6-1.3c0.5-0.1,0.9-0.1,1.4,0.2
	c0.4,0.2,0.7,0.6,0.9,1.1c0.2,0.5,0.1,1-0.2,1.5c-0.2,0.4-0.6,0.8-1,0.9c-7.6,2.2-9.1,2.6-9.5,2.7l0,0
	C13.1,20.2,12.7,20.4,12.2,20.4z M6.6,16.6l0.1,0.1c0.3,0.2,2,1.2,3.2,2l1.3,0.8c0.7,0.4,1.7,0.1,1.7,0.1l0.1,0
	c0.1,0,6.2-1.8,9.4-2.7c0.2-0.1,0.4-0.3,0.6-0.5c0.2-0.3,0.2-0.6,0.1-1l0,0c-0.1-0.3-0.3-0.5-0.5-0.6s-0.5-0.2-0.8-0.1l-4.3,1.2
	c0,0.4-0.1,0.9-0.3,1.3c-0.3,0.5-0.8,0.9-1.4,1.1c-0.6,0.2-1.2,0.1-1.7-0.2l-3-1.7l0.6-1.1l3,1.7c0.2,0.1,0.5,0.2,0.8,0.1
	c0.3-0.1,0.5-0.2,0.6-0.5c0.1-0.1,0.1-0.2,0.1-0.4c0.1-0.3-0.1-0.6-0.4-0.8l-6.5-3.6c0,0-0.6-0.4-1.3-0.2l-0.1,0
	c-0.1,0-3,0.8-4.8,1.4c-0.9,0.3-1.7,0.5-2.2,0.6l1.3,4.3L6.6,16.6z M17.9,12.4h-1.3c-0.4,0-0.6-0.3-0.6-0.6v-0.5
	c-0.4-0.1-0.7-0.2-1-0.4l-0.4,0.4c-0.2,0.2-0.7,0.2-0.9,0l-0.9-0.9c-0.1-0.1-0.2-0.3-0.2-0.5c0-0.2,0.1-0.3,0.2-0.5L13.1,9
	c-0.2-0.3-0.3-0.6-0.4-0.8h-0.6c-0.4,0-0.6-0.3-0.6-0.6V6.2c0-0.4,0.3-0.6,0.6-0.6h0.6c0.1-0.4,0.2-0.7,0.4-1l-0.5-0.5
	c-0.1-0.1-0.2-0.3-0.2-0.5s0.1-0.3,0.2-0.5l0.9-0.9C13.7,2.1,13.9,2,14.1,2c0,0,0,0,0,0c0.2,0,0.3,0.1,0.4,0.2L15,2.8
	c0.3-0.2,0.6-0.3,0.9-0.4V1.8c0-0.4,0.3-0.6,0.6-0.6h1.3c0.4,0,0.6,0.3,0.6,0.6v0.6c0.3,0.1,0.6,0.2,0.8,0.3l0.5-0.5
	c0.1-0.1,0.3-0.2,0.4-0.2c0,0,0,0,0,0c0.2,0,0.3,0.1,0.4,0.2l0.9,0.9c0.1,0.1,0.2,0.3,0.2,0.5c0,0.2-0.1,0.3-0.2,0.5l-0.5,0.5
	c0.2,0.3,0.3,0.6,0.4,1h0.6c0.4,0,0.6,0.3,0.6,0.4l0.1,0.1v1.4c0,0.4-0.3,0.6-0.6,0.6h-0.6c-0.1,0.3-0.2,0.6-0.3,0.9l0.4,0.4
	c0.1,0.1,0.2,0.3,0.2,0.5s-0.1,0.3-0.2,0.5l-0.9,0.9c-0.2,0.2-0.7,0.2-0.9,0l-0.3-0.3c-0.3,0.2-0.6,0.3-0.9,0.4v0.5
	C18.5,12.1,18.3,12.4,17.9,12.4z M16.7,11.7h1.1v-1l0.3-0.1c0.5-0.1,0.9-0.3,1.3-0.5l0.3-0.2l0.7,0.7l0.8-0.8l-0.7-0.7l0.2-0.3
	c0.2-0.3,0.4-0.7,0.5-1.2l0.1-0.3h1V6.4c0,0,0,0,0,0l-1.1,0l-0.1-0.3c-0.1-0.5-0.3-0.9-0.5-1.3l-0.2-0.3L21,3.7l-0.8-0.8l-0.8,0.8
	l-0.3-0.2c-0.3-0.2-0.7-0.4-1.2-0.5L17.7,3V1.9h-1.1V3l-0.3,0.1c-0.4,0.1-0.8,0.2-1.2,0.5l-0.3,0.2L14,2.8l-0.8,0.8l0.9,0.9L14,4.8
	c-0.3,0.4-0.4,0.8-0.5,1.3l-0.1,0.3h-1v1.1h1l0.1,0.3c0.1,0.4,0.2,0.8,0.5,1.2l0.2,0.3l-0.8,0.8l0.8,0.8l0.8-0.8l0.3,0.2
	c0.4,0.3,0.8,0.4,1.3,0.5l0.3,0.1V11.7z M14.1,10.8L14.1,10.8L14.1,10.8z M20.2,2.8C20.2,2.8,20.2,2.8,20.2,2.8L20.2,2.8z M14,2.8
	C14,2.8,14,2.8,14,2.8L14,2.8z M17.2,9.8c-1.6,0-3-1.3-3-3s1.3-3,3-3c1.6,0,3,1.3,3,3S18.8,9.8,17.2,9.8z M17.2,4.7
	c-1.2,0-2.2,1-2.2,2.2s1,2.2,2.2,2.2s2.2-1,2.2-2.2S18.4,4.7,17.2,4.7z"/>
</svg>
