<?xml version="1.0" encoding="utf-8"?>
<!-- Generator: Adobe Illustrator 21.1.0, SVG Export Plug-In . SVG Version: 6.00 Build 0)  -->
<svg version="1.1" id="Layer_1" xmlns="http://www.w3.org/2000/svg" xmlns:xlink="http://www.w3.org/1999/xlink" x="0px" y="0px"
	 viewBox="0 0 22 22" style="enable-background:new 0 0 22 22;" xml:space="preserve">
<path d="M11,5.5C8,5.5,5.5,8,5.5,11c0,3.1,2.5,5.6,5.6,5.6c3.1,0,5.6-2.5,5.6-5.6C16.6,8,14.1,5.5,11,5.5z M15.2,11
	c0,2.3-1.9,4.2-4.2,4.2S6.9,13.3,6.9,11S8.7,6.9,11,6.9S15.2,8.7,15.2,11z M21.1,8.8l-1.3-0.5c-0.2-0.1-0.4-0.3-0.5-0.5l0-0.1
	c-0.1-0.3-0.1-0.6,0-0.8l0.5-1.2C20.1,5.1,20,4.4,19.5,4l-1.4-1.4c-0.4-0.4-1.1-0.5-1.5-0.2l-1.3,0.5c-0.6,0.2-1.2,0-1.4-0.6
	l-0.5-1.2c-0.1-0.6-0.6-1-1.2-1h-2C9.4,0,8.9,0.5,8.8,1L8.3,2.3C8,2.8,7.4,3.1,6.8,2.9L5.6,2.4C5.1,2,4.4,2.1,4,2.6L2.6,4
	C2.1,4.4,2.1,5.1,2.3,5.5l0.5,1.3c0.2,0.6,0,1.2-0.6,1.4L1.1,8.8C0.5,8.9,0,9.4,0,10v2c0,0.6,0.4,1.1,0.9,1.2l1.3,0.5
	c0.5,0.2,0.8,0.9,0.6,1.4l-0.5,1.2C2,17,2.1,17.7,2.6,18.1L4,19.5C4.4,20,5.1,20,5.5,19.8l1.3-0.5c0.6-0.2,1.2,0,1.4,0.6L8.8,21
	c0.1,0.6,0.6,1,1.2,1h2c0.6,0,1.1-0.4,1.2-0.9l0.5-1.3c0.2-0.5,0.9-0.8,1.4-0.6l1.2,0.5c0.5,0.3,1.2,0.3,1.6-0.2l1.4-1.4
	c0.4-0.4,0.5-1.1,0.2-1.5l-0.5-1.3c-0.2-0.6,0-1.2,0.6-1.4l1.2-0.5c0.6-0.1,1-0.6,1-1.2v-2C22,9.4,21.6,8.9,21.1,8.8z M17.9,15.8
	l0.5,1.3l0,0.1l-1.3,1.3l-1.4-0.6c-1.2-0.5-2.7,0.1-3.2,1.3L12,20.5l0,0.1h-1.9l-0.6-1.4c-0.5-1.3-2-1.9-3.2-1.3l-1.3,0.5l-0.1,0
	l-1.3-1.3l0.6-1.4c0.5-1.2-0.1-2.7-1.3-3.2L1.5,12l0-1.9l1.4-0.6C4.1,9,4.6,7.5,4.2,6.3L3.6,4.9l0-0.1l1.3-1.3l1.4,0.6
	C7.5,4.6,9,4,9.5,2.8l0.6-1.4l1.9,0l0.6,1.4c0.5,1.2,1.9,1.8,3.2,1.3l1.3-0.5l0.1,0l1.3,1.3l-0.6,1.4c-0.2,0.6-0.2,1.2,0,1.8l0,0.1
	c0.2,0.6,0.7,1.1,1.3,1.4l1.4,0.6l0,1.9l-1.4,0.6C18,13.1,17.4,14.6,17.9,15.8z"/>
</svg>
