<?xml version="1.0" encoding="UTF-8"?>
<svg xmlns="http://www.w3.org/2000/svg" xmlns:xlink="http://www.w3.org/1999/xlink" width="24pt" height="24pt" viewBox="0 0 24 24" version="1.1">
<g id="surface1">
<path style=" stroke:none;fill-rule:nonzero;fill:rgb(0%,0%,0%);fill-opacity:1;" d="M 22.910156 19.417969 L 15.382812 11.890625 L 16.363281 10.910156 C 18.328125 11.5625 20.074219 11.128906 21.710938 9.601562 C 23.128906 8.183594 23.5625 6.21875 23.019531 4.253906 C 22.910156 3.816406 22.363281 3.601562 21.925781 4.035156 L 19.964844 6 C 19.308594 6.546875 18.4375 6.65625 17.78125 6 C 17.128906 5.34375 17.128906 4.363281 17.78125 3.816406 L 19.746094 1.855469 C 20.074219 1.527344 19.964844 0.980469 19.527344 0.761719 C 17.5625 0.109375 15.601562 0.65625 14.183594 2.074219 C 12.761719 3.492188 12.4375 5.671875 13.089844 7.527344 L 12 8.507812 L 10.035156 6.4375 L 12.328125 4.144531 C 12.546875 3.925781 12.546875 3.492188 12.328125 3.273438 L 11.128906 2.074219 C 10.910156 1.855469 10.800781 1.855469 10.472656 1.855469 L 5.890625 2.726562 C 5.671875 2.726562 5.5625 2.835938 5.453125 2.945312 L 0.761719 7.746094 C 0.546875 7.964844 0.546875 8.398438 0.761719 8.617188 L 3.925781 11.78125 C 4.253906 12 4.472656 12 4.800781 11.78125 L 7.089844 9.492188 L 9.164062 11.5625 L 1.308594 19.417969 C 0.4375 20.289062 0.4375 21.816406 1.308594 22.800781 C 2.289062 23.78125 3.816406 23.671875 4.582031 22.800781 L 12.328125 14.945312 L 19.855469 22.472656 C 20.726562 23.238281 21.816406 23.34375 22.800781 22.472656 C 23.671875 21.601562 23.671875 20.289062 22.910156 19.417969 Z M 15.164062 3.054688 C 15.925781 2.289062 16.910156 1.855469 18 1.855469 L 16.910156 2.945312 C 15.816406 4.035156 15.816406 5.890625 16.910156 6.871094 C 18 7.964844 19.636719 7.964844 20.835938 6.871094 L 21.925781 5.78125 C 21.925781 6.871094 21.492188 7.855469 20.726562 8.726562 C 19.089844 10.363281 16.582031 10.253906 15.054688 8.617188 C 13.636719 6.980469 13.636719 4.582031 15.164062 3.054688 Z M 13.636719 8.726562 C 13.746094 8.945312 13.964844 9.164062 14.183594 9.382812 C 14.507812 9.710938 14.835938 10.035156 15.164062 10.253906 L 14.507812 10.910156 L 12.980469 9.382812 Z M 4.363281 10.363281 L 2.183594 8.074219 L 6.328125 3.925781 L 10.472656 3.273438 L 10.910156 3.710938 Z M 3.710938 21.816406 C 3.273438 22.253906 2.617188 22.253906 2.183594 21.816406 C 1.746094 21.382812 1.746094 20.726562 2.183594 20.289062 L 9.925781 12.4375 L 11.453125 13.964844 Z M 21.925781 21.492188 C 21.601562 21.816406 21.054688 21.816406 20.726562 21.492188 L 7.964844 8.507812 L 9.164062 7.308594 L 21.925781 20.289062 C 22.253906 20.617188 22.253906 21.164062 21.925781 21.492188 Z M 21.925781 21.492188 "/>
</g>
</svg>
