<?xml version="1.0" encoding="utf-8"?>
<!-- Generator: Adobe Illustrator 21.1.0, SVG Export Plug-In . SVG Version: 6.00 Build 0)  -->
<svg version="1.1" id="Layer_1" xmlns="http://www.w3.org/2000/svg" xmlns:xlink="http://www.w3.org/1999/xlink" x="0px" y="0px"
	 viewBox="0 0 24 24" style="enable-background:new 0 0 24 24;" xml:space="preserve">
<path d="M11.5,16.6c0,0.4-0.3,0.7-0.7,0.7H3.6c-0.4,0-0.7-0.3-0.7-0.7s0.3-0.7,0.7-0.7h7.2C11.2,15.9,11.5,16.2,11.5,16.6z M24,18.9
	c0,0.2-0.1,0.3-0.3,0.5l-6.4,4.1c0,0-0.1,0.1-0.2,0.1c-0.2,0-0.3-0.1-0.5-0.3l0-0.1c-0.2-0.3-0.1-0.7,0.2-0.8l4.6-2.9h-6.5v1.9H0V2
	h10l0.2,0.2l4.6,4.7v11.4h6.5l-4.6-2.9c-0.3-0.1-0.4-0.5-0.2-0.8l0-0.1c0.1-0.1,0.3-0.3,0.5-0.3c0.2,0,0.2,0,0.4,0.2l6.2,4
	C23.9,18.5,24,18.7,24,18.9z M12.6,6.6l-2.1-2.1v2.1H12.6z M9.1,8V3.4H1.4v16.5h12v-0.8c0-0.1,0-0.2,0.1-0.3l0,0V8H9.1z M2.9,10.1
	c0,0.4,0.3,0.7,0.6,0.7h7.2c0.4,0,0.7-0.3,0.7-0.7c0-0.3-0.3-0.7-0.6-0.7H3.7C3.2,9.3,2.9,9.6,2.9,10.1z M10.7,12.7H3.6
	c-0.4,0-0.7,0.3-0.7,0.7c0,0.4,0.3,0.7,0.7,0.7h7.2c0.4,0,0.7-0.3,0.7-0.7C11.5,13,11.2,12.7,10.7,12.7z"/>
</svg>
