<?xml version="1.0" encoding="utf-8"?>
<!-- Generator: Adobe Illustrator 21.1.0, SVG Export Plug-In . SVG Version: 6.00 Build 0)  -->
<svg version="1.1" id="Layer_1" xmlns="http://www.w3.org/2000/svg" xmlns:xlink="http://www.w3.org/1999/xlink" x="0px" y="0px"
	 viewBox="0 0 24 24" style="enable-background:new 0 0 24 24;" xml:space="preserve">
<path d="M18.6,17.6c-0.9,0-1.7,0.4-2.3,1l-7.9-5.7c0.1-0.3,0.2-0.7,0.2-1c0-0.4-0.1-0.7-0.2-1l7.7-5.6c0.6,0.7,1.5,1.1,2.4,1.1
	c1.8,0,3.2-1.4,3.2-3.2c0-1.8-1.4-3.2-3.2-3.2c-1.8,0-3.2,1.4-3.2,3.2c0,0.3,0,0.6,0.1,0.9L7.7,9.7c-0.6-0.6-1.4-1-2.3-1
	c-1.8,0-3.2,1.4-3.2,3.2c0,1.8,1.4,3.2,3.2,3.2c0.9,0,1.7-0.4,2.3-1l7.9,5.7c-0.1,0.3-0.2,0.7-0.2,1c0,1.8,1.4,3.2,3.2,3.2
	c1.8,0,3.2-1.4,3.2-3.2C21.8,19.1,20.3,17.6,18.6,17.6z M18.6,1.3c1,0,1.9,0.8,1.9,1.9c0,1-0.8,1.9-1.9,1.9c-1,0-1.9-0.8-1.9-1.9
	C16.7,2.2,17.6,1.3,18.6,1.3z M5.4,13.8c-1,0-1.9-0.8-1.9-1.9c0-1,0.8-1.9,1.9-1.9c1,0,1.9,0.8,1.9,1.9C7.3,12.9,6.4,13.8,5.4,13.8z
	 M18.6,22.7c-1,0-1.9-0.8-1.9-1.9c0-1,0.8-1.9,1.9-1.9c1,0,1.9,0.8,1.9,1.9C20.4,21.8,19.6,22.7,18.6,22.7z"/>
</svg>
