<?xml version="1.0" encoding="utf-8"?>
<!-- Generator: Adobe Illustrator 21.1.0, SVG Export Plug-In . SVG Version: 6.00 Build 0)  -->
<svg version="1.1" id="Layer_1" xmlns="http://www.w3.org/2000/svg" xmlns:xlink="http://www.w3.org/1999/xlink" x="0px" y="0px"
	 viewBox="0 0 24 24" style="enable-background:new 0 0 24 24;" xml:space="preserve">
<path d="M11.2,10c0,0.3-0.2,0.5-0.5,0.5H3.4C3.2,10.5,3,10.3,3,10c0-0.3,0.2-0.5,0.5-0.5h7.3C11,9.5,11.2,9.8,11.2,10z M10.7,12.9
	H3.4c-0.3,0-0.5,0.2-0.5,0.5c0,0.3,0.2,0.5,0.5,0.5h7.3c0.3,0,0.5-0.2,0.5-0.5C11.2,13.1,11,12.9,10.7,12.9z M10.7,16.2H3.4
	c-0.3,0-0.5,0.2-0.5,0.5c0,0.3,0.2,0.5,0.5,0.5h7.3c0.3,0,0.5-0.2,0.5-0.5C11.2,16.4,11,16.2,10.7,16.2z M24,19
	c0,0.1-0.1,0.2-0.2,0.3l-6.4,4.1c-0.1,0-0.1,0.1-0.2,0.1c-0.1,0-0.2-0.1-0.3-0.2c-0.1-0.2-0.1-0.4,0.1-0.5l5.4-3.4h-7.8v1.9H0V2h9.9
	l0.1,0.1c0,0,0,0,0,0l4.6,4.7v11.8h7.8l-5.4-3.4c-0.2-0.1-0.2-0.3-0.1-0.5c0.1-0.1,0.2-0.2,0.3-0.2c0.1,0,0.1,0,0.2,0.1l6.4,4.1
	C23.9,18.8,24,18.9,24,19z M10.2,6.7h3l-3-3V6.7z M13.8,18.9c0-0.1,0-0.2,0-0.2V7.6H9.3V3H0.9v17.3h12.8v-1.1
	C13.7,19.1,13.8,19,13.8,18.9z"/>
</svg>
