<?xml version="1.0" encoding="utf-8"?>
<!-- Generator: Adobe Illustrator 21.1.0, SVG Export Plug-In . SVG Version: 6.00 Build 0)  -->
<svg version="1.1" id="Layer_1" xmlns="http://www.w3.org/2000/svg" xmlns:xlink="http://www.w3.org/1999/xlink" x="0px" y="0px"
	 viewBox="0 0 24 24" style="enable-background:new 0 0 24 24;" xml:space="preserve">
<path d="M18.5,17.4c-0.8,0-1.6,0.3-2.3,1l-7.7-5.5c0.1-0.2,0.2-0.6,0.2-0.9c0-0.4-0.1-0.7-0.2-0.9L16,5.5c0.6,0.7,1.5,1,2.4,1
	c1.8,0,3.3-1.4,3.3-3.3c0-1.8-1.4-3.3-3.3-3.3c-1.8,0-3.3,1.4-3.3,3.3c0,0.3,0,0.6,0.1,0.8L7.8,9.6c-0.6-0.6-1.5-1-2.3-1
	c-1.8,0-3.3,1.4-3.3,3.3c0,1.8,1.4,3.3,3.3,3.3c0.8,0,1.6-0.3,2.3-1l7.7,5.5c-0.1,0.2-0.2,0.6-0.2,0.9c0,1.8,1.4,3.3,3.3,3.3
	s3.3-1.4,3.3-3.3C21.8,19,20.3,17.4,18.5,17.4z M20.3,20.7c-0.1,1-0.9,1.8-1.8,1.8c-1,0-1.8-0.8-1.8-1.8s0.8-1.8,1.8-1.8
	S20.3,19.7,20.3,20.7z M18.5,5c-1,0-1.8-0.8-1.8-1.8c0-0.9,0.8-1.8,1.8-1.8c1,0,1.8,0.8,1.8,1.8C20.3,4.3,19.5,5,18.5,5z M7.2,11.9
	c0,0.9-0.8,1.8-1.8,1.8c-1,0-1.8-0.8-1.8-1.8c0-1,0.8-1.8,1.8-1.8S7.2,10.9,7.2,11.9z"/>
</svg>
