<?xml version="1.0" encoding="utf-8"?>
<!-- Generator: Adobe Illustrator 21.1.0, SVG Export Plug-In . SVG Version: 6.00 Build 0)  -->
<svg version="1.1" id="Layer_1" xmlns="http://www.w3.org/2000/svg" xmlns:xlink="http://www.w3.org/1999/xlink" x="0px" y="0px"
	 viewBox="0 0 24 24" style="enable-background:new 0 0 24 24;" xml:space="preserve">
<g>
	<path d="M24,23.9H0V1.1h24V23.9z M1.5,22.4h21V2.6h-21V22.4z"/>
</g>
<path d="M23,7.2H1V5.5l0.8,0H23V7.2z"/>
<path d="M17.3,14l-1-0.3l-0.1-0.3l0.5-1c0.1-0.2,0.1-0.4-0.1-0.5l-0.4-0.4l-0.8-0.8c-0.1-0.1-0.3-0.2-0.5-0.1l-1,0.5l-0.3-0.1
	l-0.3-1c-0.1-0.2-0.2-0.3-0.4-0.3h-1.7c-0.2,0-0.4,0.1-0.4,0.3l-0.3,1l-0.3,0.1l-1-0.5c-0.2-0.1-0.4-0.1-0.5,0.1l-1.2,1.2
	c-0.1,0.1-0.2,0.3-0.1,0.5l0.5,1l-0.1,0.3l-1,0.3c-0.2,0.1-0.3,0.2-0.3,0.4v1.7c0,0.2,0.1,0.4,0.3,0.4l1,0.3l0.1,0.3l-0.5,1
	c-0.1,0.2-0.1,0.4,0.1,0.5l1.2,1.2C8.8,19.9,9,20,9.2,19.9l1-0.5l0.3,0.1l0.3,1c0.1,0.2,0.2,0.3,0.4,0.3h1.7c0.2,0,0.4-0.1,0.4-0.3
	l0.3-1l0.3-0.1l1,0.5c0.2,0.1,0.4,0.1,0.5-0.1l1.2-1.2c0.1-0.1,0.2-0.3,0.1-0.5l-0.5-1l0.1-0.3l1-0.3c0.2-0.1,0.3-0.2,0.3-0.4v-1.7
	C17.6,14.3,17.4,14.1,17.3,14z M16.7,15.8l-0.9,0.3c-0.1,0-0.2,0.1-0.3,0.2L15.2,17c0,0.1,0,0.2,0,0.4l0.4,0.9L15,19l-0.9-0.5
	c-0.1-0.1-0.2-0.1-0.4,0l-0.7,0.3c-0.1,0-0.2,0.1-0.2,0.3L12.5,20h-1L11.2,19c0-0.1-0.1-0.2-0.2-0.3l-0.7-0.3c-0.1,0-0.2,0-0.4,0
	L9,19l-0.7-0.7l0.5-0.9c0.1-0.1,0.1-0.2,0-0.4l-0.3-0.7c0-0.1-0.1-0.2-0.3-0.2l-0.9-0.3v-1l0.9-0.3c0.1,0,0.2-0.1,0.3-0.2l0.3-0.7
	c0-0.1,0-0.2,0-0.4l-0.5-0.9L9,11.6L9.9,12c0.1,0.1,0.2,0.1,0.4,0l0.7-0.3c0.1,0,0.2-0.1,0.2-0.3l0.3-0.9h1l0.3,0.9
	c0,0.1,0.1,0.2,0.2,0.3l0.7,0.3c0.1,0,0.2,0,0.4,0l0.9-0.5l0.6,0.6l0.2,0.2l-0.5,0.9c-0.1,0.1-0.1,0.2,0,0.4l0.3,0.7
	c0,0.1,0.1,0.2,0.3,0.2l0.9,0.3L16.7,15.8z"/>
<path d="M12,12.1c-1.8,0-3.2,1.4-3.2,3.2c0,1.8,1.4,3.2,3.2,3.2c1.8,0,3.2-1.4,3.2-3.2C15.2,13.5,13.8,12.1,12,12.1z M12,17.6
	c-1.3,0-2.3-1-2.3-2.3s1-2.3,2.3-2.3c1.3,0,2.3,1,2.3,2.3c0,0,0,0,0,0C14.3,16.6,13.3,17.6,12,17.6z"/>
</svg>
