<?xml version="1.0" encoding="utf-8"?>
<!-- Generator: Adobe Illustrator 21.1.0, SVG Export Plug-In . SVG Version: 6.00 Build 0)  -->
<svg version="1.1" id="Layer_1" xmlns="http://www.w3.org/2000/svg" xmlns:xlink="http://www.w3.org/1999/xlink" x="0px" y="0px"
	 viewBox="0 0 24 24" style="enable-background:new 0 0 24 24;" xml:space="preserve">
<path d="M12,9.1c-3.1,0-6.1,1.3-8.2,3.4l-0.3,0.3l-1-1l0.3-0.3C5.3,9.1,8.6,7.7,12,7.7c0.9,0,1.9,0.1,2.7,0.3l0.6,0.2l-1.2,1.2
	l-0.2,0C13.3,9.2,12.6,9.1,12,9.1z M13.7,19.8c0,0.9-0.7,1.6-1.6,1.6c-0.9,0-1.6-0.7-1.6-1.6c0-0.9,0.7-1.6,1.6-1.6
	C13,18.2,13.7,18.9,13.7,19.8z M11.7,19.7c0,0.4,0.1,0.5,0.4,0.5c0.3,0,0.4-0.1,0.4-0.4c0-0.3-0.1-0.4-0.4-0.4
	c-0.2,0-0.3,0.1-0.4,0.2C11.7,19.6,11.7,19.6,11.7,19.7z M16.9,6.3l0.2,0.1l1.1-1.1L17.7,5c-1.8-0.7-3.6-1-5.7-1
	C7.6,4.1,3.4,5.9,0.2,9L0,9.2l1,1L1.2,10C4.1,7.1,8,5.5,12,5.5C13.7,5.5,15.4,5.7,16.9,6.3z M14.4,11.6l-0.2-0.1l7.8-7.8L21,2.6
	l-8.7,8.7l-1,0.1C9,11.6,6.9,12.5,5.4,14l-0.3,0.3l1,1L6.4,15c1.2-1.2,2.6-1.9,4.1-2.2l0.1,0l1.3-1.1l-7.7,7.7l1.1,1.1l4.1-4.1
	l0.4,0.5c0.7-0.5,1.6-0.6,2.2-0.6c1.1,0,2.2,0.4,3.1,1.2l0.3,0.2l1-1l-0.3-0.3c-1.2-1.2-2.9-1.8-4.7-1.6c-0.2,0-0.4,0-0.5,0h-0.1
	l2.3-2.3l0.6,0.1c1.4,0.3,2.9,1.1,4,2.2l0.3,0.3l1-1L18.7,14C17.4,12.9,16,12.1,14.4,11.6z M23.8,9c-1.2-1.2-2.5-2.2-3.7-2.8L19.8,6
	l-1.1,1.1l0.4,0.2c1.5,0.9,2.7,1.7,3.7,2.7l0.3,0.3L24,9.2L23.8,9z M17.3,8.8l-0.2-0.1L16,9.8l0.5,0.2c1.4,0.5,2.6,1.4,3.7,2.5
	l0.3,0.3l1-1l-0.2-0.3C20,10.3,18.8,9.4,17.3,8.8z"/>
</svg>
