<?xml version="1.0" encoding="utf-8"?>
<!-- Generator: Adobe Illustrator 21.1.0, SVG Export Plug-In . SVG Version: 6.00 Build 0)  -->
<svg version="1.1" id="Layer_1" xmlns="http://www.w3.org/2000/svg" xmlns:xlink="http://www.w3.org/1999/xlink" x="0px" y="0px"
	 viewBox="0 0 24 24" style="enable-background:new 0 0 24 24;" xml:space="preserve">
<path d="M0,0v24h24V0H0z M22.5,22.5H1.5V1.5h20.9V22.5z M12,21c5,0,9-4,9-9c0-5-4-9-9-9s-9,4-9,9C3,17,7,21,12,21z M12,4.4
	c4.2,0,7.6,3.4,7.6,7.6s-3.4,7.6-7.6,7.6S4.4,16.2,4.4,12S7.8,4.4,12,4.4z M13.9,8.4c-0.2-0.2-0.2-0.4,0-0.6c0.2-0.2,0.4-0.2,0.6,0
	l3.6,3.8c0.2,0.2,0.2,0.4,0,0.6l-3.6,3.8c-0.1,0.1-0.2,0.1-0.3,0.1c-0.1,0-0.2,0-0.3-0.1c-0.1-0.1-0.1-0.2-0.1-0.3
	c0-0.1,0-0.2,0.1-0.3l3.3-3.6L13.9,8.4z M9.5,16.1l-3.6-3.8c-0.2-0.2-0.2-0.4,0-0.6l3.6-3.8c0.2-0.2,0.4-0.2,0.6,0
	c0.2,0.2,0.2,0.4,0,0.6L6.8,12l3.3,3.6c0.1,0.1,0.1,0.2,0.1,0.3c0,0.1-0.1,0.2-0.1,0.3c-0.1,0.1-0.2,0.1-0.3,0.1
	C9.7,16.2,9.6,16.2,9.5,16.1z M13.5,12.5h-3v-1h3V12.5z"/>
</svg>
