<?xml version="1.0" encoding="utf-8"?>
<!-- Generator: Adobe Illustrator 21.1.0, SVG Export Plug-In . SVG Version: 6.00 Build 0)  -->
<svg version="1.1" id="Layer_1" xmlns="http://www.w3.org/2000/svg" xmlns:xlink="http://www.w3.org/1999/xlink" x="0px" y="0px"
	 viewBox="0 0 24 24" style="enable-background:new 0 0 24 24;" xml:space="preserve">
<path d="M13.9,15.4V8.7c0.4-0.2,0.9-0.5,1.1-0.8c1.8-1.8,1.8-4.7,0-6.5c-0.5-0.5-1.1-0.8-1.8-1.2L12.4,0v4.8h-1.3V0l-0.9,0.2
	C9.6,0.4,9.1,0.8,8.6,1.3C6.8,3.1,6.8,6,8.6,7.7C9,8.2,9.5,8.5,10,8.7v6.4c-0.5,0.2-1,0.6-1.4,1c-1.8,1.8-1.8,4.7,0,6.5
	c0.5,0.5,1.1,0.8,1.8,1.1l0.8,0.3v-4.9h1.3V24l0.9-0.2c0.6-0.2,1.1-0.6,1.7-1c1.8-1.8,1.8-4.7,0-6.4C14.7,16,14.4,15.7,13.9,15.4z
	 M14.1,21.7C14,21.9,13.9,22,13.8,22v-4.2H10v4.2c-0.2-0.1-0.4-0.3-0.5-0.4c-1.3-1.3-1.3-3.4,0-4.7c0.4-0.4,0.9-0.7,1.4-0.9l0.4-0.2
	v-8l-0.4-0.2c-0.5-0.2-1-0.4-1.4-0.9c-0.6-0.6-1-1.4-1-2.3s0.4-1.7,1-2.3C9.6,2.1,9.7,2,9.8,2v4.2h3.8V1.9C13.8,2,14,2.1,14.2,2.3
	c0.6,0.6,1,1.4,1,2.2c0,0.9-0.3,1.8-1,2.4c-0.4,0.4-0.7,0.6-1.1,0.8h-0.5v8.5l0.4,0.2c0.4,0.2,0.7,0.4,1.1,0.8c0.6,0.6,1,1.4,1,2.3
	C15.1,20.3,14.8,21.2,14.1,21.7L14.1,21.7z"/>
</svg>
