<?xml version="1.0" encoding="utf-8"?>
<!-- Generator: Adobe Illustrator 21.1.0, SVG Export Plug-In . SVG Version: 6.00 Build 0)  -->
<svg version="1.1" id="Layer_1" xmlns="http://www.w3.org/2000/svg" xmlns:xlink="http://www.w3.org/1999/xlink" x="0px" y="0px"
	 viewBox="0 0 24 24" style="enable-background:new 0 0 24 24;" xml:space="preserve">
<path d="M13.6,15.7v-4h0V8.3c0.5-0.2,1-0.5,1.3-0.9c1.7-1.7,1.7-4.5,0-6.2c-0.5-0.5-1.1-0.8-1.7-1.1L12.8,0v4.9l-2.1,0V0l-0.4,0.1
	c-0.6,0.2-1.1,0.6-1.6,1C7,2.9,7,5.6,8.7,7.3c0.5,0.5,1,0.8,1.6,1v3.3h0v3.9c-0.6,0.2-1.2,0.6-1.6,1c-1.7,1.7-1.7,4.5,0,6.2
	c0.5,0.5,1.1,0.8,1.7,1.1l0.3,0.1v-4.9l2.1,0V24l0.4-0.1c0.6-0.2,1.1-0.6,1.6-1c1.7-1.7,1.7-4.5,0-6.2C14.5,16.3,14.1,16,13.6,15.7z
	 M14.5,22.4c-0.3,0.3-0.6,0.5-1,0.7v-4.6l-3.2,0v4.7c-0.4-0.2-0.8-0.5-1.2-0.8c-1.5-1.5-1.5-3.9,0-5.4c0.4-0.4,1-0.8,1.6-1l0.2-0.1
	v-4.3h0V8l-0.2-0.1c-0.6-0.2-1.1-0.5-1.6-1C7.6,5.5,7.6,3,9.1,1.6c0.3-0.3,0.6-0.5,1-0.7v4.6l3.2,0V0.8c0.4,0.2,0.8,0.5,1.2,0.8
	C16,3,16,5.5,14.5,7c-0.4,0.4-0.8,0.7-1.3,0.9L13,7.9v3.8h0v4.4l0.2,0.1c0.5,0.2,0.9,0.5,1.3,0.9C16,18.5,16,21,14.5,22.4z"/>
</svg>
