<?xml version="1.0" encoding="utf-8"?>
<!-- Generator: Adobe Illustrator 21.1.0, SVG Export Plug-In . SVG Version: 6.00 Build 0)  -->
<svg version="1.1" id="Layer_1" xmlns="http://www.w3.org/2000/svg" xmlns:xlink="http://www.w3.org/1999/xlink" x="0px" y="0px"
	 viewBox="0 0 24 24" style="enable-background:new 0 0 24 24;" xml:space="preserve">
<path d="M24,9.4c0-0.2-0.1-0.3-0.2-0.5c-0.1-0.1-0.2-0.2-0.4-0.2l-7.5-1.2l-3.4-6.8c-0.1-0.2-0.2-0.3-0.4-0.3
	c-0.2-0.1-0.3-0.1-0.5,0c-0.2,0-0.2,0.1-0.3,0.2c0,0,0,0.1-0.1,0.1L8,7.5L0.6,8.7C0.4,8.7,0.2,8.8,0.1,9C0,9.1,0,9.3,0,9.4
	c0,0.2,0.1,0.3,0.2,0.3l5.4,5.4l-1.3,7.6c0,0.3,0.2,0.6,0.5,0.8l0.4,0L12,20l6.6,3.4c0,0,0,0,0,0c0.1,0.2,0.3,0.2,0.4,0.2
	c0.4,0,0.7-0.3,0.7-0.7l-1.3-7.7l5.4-5.4C23.9,9.7,24,9.5,24,9.4z M6.9,15.1c0-0.1,0-0.4-0.2-0.6L2.1,9.9l6.4-1
	c0.2,0,0.4-0.2,0.5-0.3l3-6l3,6l0,0.1c0.1,0.1,0.3,0.3,0.5,0.3l6.5,1l-4.7,4.7c-0.2,0.2-0.2,0.4-0.2,0.6l0.9,6.6l-5.9-3.1
	c-0.3-0.2-0.6-0.1-0.7,0l-5.7,3.1L6.9,15.1z"/>
</svg>
