<?xml version="1.0" encoding="utf-8"?>
<!-- Generator: Adobe Illustrator 21.1.0, SVG Export Plug-In . SVG Version: 6.00 Build 0)  -->
<svg version="1.1" id="Layer_1" xmlns="http://www.w3.org/2000/svg" xmlns:xlink="http://www.w3.org/1999/xlink" x="0px" y="0px"
	 viewBox="0 0 24 24" style="enable-background:new 0 0 24 24;" xml:space="preserve">
<path d="M17.8,8v8c0,1-0.8,1.8-1.8,1.8H8c-1,0-1.8-0.8-1.8-1.8V8C6.2,7,7,6.2,8,6.2h8C17,6.2,17.8,7,17.8,8z M24,12
	c0,6.6-5.4,12-12,12C5.4,24,0,18.6,0,12C0,5.4,5.4,0,12,0C18.6,0,24,5.4,24,12z M12,1.3C6.1,1.3,1.3,6.1,1.3,12
	c0,5.9,4.8,10.7,10.7,10.7c5.9,0,10.7-4.8,10.7-10.7C22.7,6.1,17.9,1.3,12,1.3z"/>
</svg>
