<?xml version="1.0" encoding="utf-8"?>
<!-- Generator: Adobe Illustrator 21.1.0, SVG Export Plug-In . SVG Version: 6.00 Build 0)  -->
<svg version="1.1" id="Layer_1" xmlns="http://www.w3.org/2000/svg" xmlns:xlink="http://www.w3.org/1999/xlink" x="0px" y="0px"
	 viewBox="0 0 24 24" style="enable-background:new 0 0 24 24;" xml:space="preserve">
<path d="M1,7.1h15.8v4.9h1V3.5c0-0.3-0.2-0.5-0.5-0.5H0.5C0.2,3,0,3.2,0,3.5v15.1c0,0.3,0.2,0.5,0.5,0.5h12.1v-1H1V7.1z M1,4h15.8
	v2.1H1V4z M12.7,5.1c0,0.4-0.3,0.6-0.6,0.6c-0.4,0-0.6-0.3-0.6-0.6c0-0.4,0.3-0.6,0.6-0.6C12.4,4.4,12.7,4.7,12.7,5.1z M14.3,5.1
	c0,0.4-0.3,0.6-0.6,0.6c-0.4,0-0.6-0.3-0.6-0.6c0-0.4,0.3-0.6,0.6-0.6C14.1,4.4,14.3,4.7,14.3,5.1z M16,5.1c0,0.4-0.3,0.6-0.6,0.6
	c-0.4,0-0.6-0.3-0.6-0.6c0-0.4,0.3-0.6,0.6-0.6C15.7,4.4,16,4.7,16,5.1z M18.8,15.4c-1.4,0-2.6,1.2-2.6,2.6c0,1.4,1.2,2.6,2.6,2.6
	s2.6-1.2,2.6-2.6C21.4,16.6,20.2,15.4,18.8,15.4z M18.8,19.5c-0.8,0-1.5-0.7-1.5-1.5c0-0.8,0.7-1.5,1.5-1.5s1.5,0.7,1.5,1.5
	C20.3,18.8,19.6,19.5,18.8,19.5z M23.1,16.3l-0.2,0l0.1-0.1c0.3-0.4,0.3-1-0.1-1.4L22,13.9c-0.4-0.4-1-0.4-1.4-0.1l-0.2,0.1l0-0.2
	c-0.1-0.5-0.5-0.9-1-0.9h-1.3c-0.5,0-1,0.4-1,0.9l0,0.2l-0.1-0.1c-0.4-0.3-1-0.3-1.4,0.1l-0.9,0.9c-0.4,0.4-0.4,1-0.1,1.4l0.1,0.2
	l-0.2,0c-0.5,0.1-0.9,0.5-0.9,1v1.3c0,0.5,0.4,1,0.9,1l0.2,0l-0.1,0.1c-0.3,0.4-0.3,1,0.1,1.4l0.9,0.9c0.4,0.4,1,0.4,1.3,0.1
	l0.2-0.1l0,0.2c0.1,0.5,0.5,0.9,1,0.9h1.3c0.5,0,1-0.4,1-0.9l0-0.2l0.1,0.1c0.4,0.3,1,0.3,1.4-0.1l0.9-0.9c0.4-0.4,0.4-1,0.1-1.3
	l-0.1-0.2l0.2,0c0.5-0.1,0.9-0.5,0.9-1v-1.3C24,16.8,23.6,16.4,23.1,16.3z M17.7,14.9L17.7,14.9L17.7,14.9
	C17.7,14.9,17.7,14.9,17.7,14.9z M19.8,21.1L19.8,21.1L19.8,21.1C19.8,21.1,19.8,21.1,19.8,21.1z M21.9,18.8c-0.2,0-0.3,0.1-0.4,0.3
	c-0.1,0.2-0.1,0.4,0,0.5l0.6,0.8l-0.9,0.9l-0.9-0.6c-0.2-0.1-0.4-0.1-0.5,0c-0.2,0.1-0.3,0.2-0.3,0.4l-0.1,1l-1.2,0l-0.2-1
	c0-0.2-0.1-0.3-0.3-0.4c0,0-0.1-0.1-0.2-0.1c-0.1,0-0.2,0-0.3,0.1l-0.8,0.6l-0.9-0.9l0.6-0.9c0.1-0.2,0.1-0.4,0-0.5
	c-0.1-0.2-0.2-0.3-0.4-0.3l-1-0.1l0-1.2l1-0.2c0.2,0,0.3-0.1,0.4-0.3c0.1-0.2,0.1-0.4,0-0.5l-0.6-0.8l0.9-0.9l0.9,0.6
	c0.2,0.1,0.4,0.1,0.5,0c0.2-0.1,0.3-0.2,0.3-0.4l0.1-1l1.2,0l0.2,1c0,0.2,0.1,0.3,0.3,0.4c0.2,0.1,0.4,0.1,0.5,0l0.8-0.6l0.9,0.9
	l-0.6,0.9c-0.1,0.2-0.1,0.4,0,0.5c0.1,0.2,0.2,0.3,0.4,0.3l1.1,0.2l0,1.2L21.9,18.8z M15.7,19L15.7,19L15.7,19
	C15.7,19,15.7,19,15.7,19z M21.9,17L21.9,17L21.9,17C21.9,17,21.9,17,21.9,17z"/>
</svg>
