<?xml version="1.0" encoding="utf-8"?>
<!-- Generator: Adobe Illustrator 21.1.0, SVG Export Plug-In . SVG Version: 6.00 Build 0)  -->
<svg version="1.1" id="Layer_1" xmlns="http://www.w3.org/2000/svg" xmlns:xlink="http://www.w3.org/1999/xlink" x="0px" y="0px"
	 viewBox="0 0 20 20" style="enable-background:new 0 0 20 20;" xml:space="preserve">
<path d="M19.5,2.4L19.5,2.4c-0.5-0.5-1.3-0.6-1.8-0.3l-0.2,0.1c-0.1,0-0.1,0.1-0.1,0.1c-0.3,0.2-1.2,1.1-2.4,2.2
	c-1.6-1.6-4-2.6-6.6-2.6C3.8,1.9,0,5.2,0,9.1c0,0.8,0.2,1.6,0.5,2.4C0.6,11.8,0.8,11.9,1,12c0.2,0.1,0.5,0.1,0.8-0.1
	c0,0,0.1,0,0.1-0.1l0.1,0c0.8-0.3,1.6-0.2,1.8,0.2c0.1,0.3-0.2,0.8-0.7,1.1c-0.2,0.2-0.4,0.4-0.4,0.7c0,0.3,0.1,0.6,0.4,0.8
	c0.2,0.2,0.5,0.3,0.7,0.4C3.1,16.3,3,18,3,18.2l0,0.7l0.8,0c0.4,0,2.5-0.1,3.6-1.2c0.4-0.4,0.7-0.9,1-1.4c0.1,0,0.1,0,0.2,0
	c4.7,0,8.5-3.2,8.5-7.2c0-0.5-0.1-1.1-0.2-1.6l2.8-3l0.2-0.3C20.1,3.6,20,2.9,19.5,2.4z M6.3,16.7c-0.4,0.4-1.1,0.6-1.8,0.7
	c0.1-0.6,0.3-1.4,0.7-1.8c0.7-0.7,1.3-0.8,1.4-0.8c0,0,0,0,0.1,0l0.5,0.5C7.1,15.6,6.9,16.2,6.3,16.7L6.3,16.7z M18.3,3.4L18.3,3.4
	c0.1-0.1,0.2-0.1,0.2,0c0,0,0,0.1,0.1,0.1c0,0,0,0,0,0l-7.7,8.3l-2.1,1.6l-0.2-0.2l1.6-2.1C10.5,10.8,17.5,4.2,18.3,3.4z M15.2,9.2
	c-0.1,2.6-2.4,4.7-5.4,5.2l2-1.6L15.2,9.2z M9.4,5.2C9.3,4.6,8.9,4,8.3,3.8c0.1,0,0.1,0,0.2,0c0.7,0,1.5,0.1,2.1,0.3
	C10,4.2,9.6,4.6,9.4,5.2z M4.7,7c0,0.3-0.2,0.5-0.5,0.5C3.9,7.5,3.7,7.3,3.7,7c0-0.2,0.2-0.5,0.5-0.5C4.5,6.5,4.7,6.8,4.7,7z
	 M4.2,5.1c-0.1,0-0.1,0-0.2,0c0.6-0.5,1.4-0.8,2.2-1.1C5.9,4.4,5.6,4.9,5.6,5.5c0,0.1,0,0.3,0,0.4C5.3,5.4,4.8,5.1,4.2,5.1z M7.5,5
	C7.8,5,8,5.2,8,5.5c0,0.3-0.2,0.5-0.5,0.5c-0.3,0-0.5-0.2-0.5-0.5C7.1,5.2,7.3,5,7.5,5z M11.2,5.4c0.3,0,0.5,0.2,0.5,0.5
	c0,0.3-0.2,0.5-0.5,0.5c-0.3,0-0.5-0.2-0.5-0.5C10.7,5.6,10.9,5.4,11.2,5.4z M12.9,5.1c0.3,0.2,0.6,0.4,0.8,0.7l-0.8,0.7
	c0.1-0.2,0.1-0.4,0.1-0.7C13.1,5.6,13,5.3,12.9,5.1z M6.9,13.3c0,0,0,0.1,0,0.1c-0.1,0-0.3,0-0.4,0c-0.4,0-0.8,0.2-1.3,0.4
	c0,0-0.1,0-0.1-0.1c0.6-0.8,0.7-1.6,0.4-2.4C5,10.2,3.5,9.6,1.9,10C1.8,9.7,1.8,9.4,1.8,9.1c0-0.7,0.2-1.4,0.5-2
	c0,1,0.9,1.8,1.9,1.8c1,0,1.9-0.9,1.9-1.9c0-0.1,0-0.3,0-0.4c0.3,0.4,0.9,0.7,1.5,0.7c0.8,0,1.5-0.5,1.8-1.3
	c0.1,0.9,0.9,1.7,1.9,1.7c0.2,0,0.4,0,0.5-0.1l-2.6,2.4l-1.9,2.5C7,12.8,6.9,13,6.9,13.3z M1.5,11.6L1.5,11.6L1.5,11.6L1.5,11.6z"/>
</svg>
