<?xml version="1.0" encoding="utf-8"?>
<!-- Generator: Adobe Illustrator 21.1.0, SVG Export Plug-In . SVG Version: 6.00 Build 0)  -->
<svg version="1.1" id="Layer_1" xmlns="http://www.w3.org/2000/svg" xmlns:xlink="http://www.w3.org/1999/xlink" x="0px" y="0px"
	 viewBox="0 0 24 24" style="enable-background:new 0 0 24 24;" xml:space="preserve">
<path d="M22.7,2.1H1.3C0.6,2.1,0,2.7,0,3.4v17.1c0,0.7,0.6,1.3,1.3,1.3h21.4c0.7,0,1.3-0.6,1.3-1.3V3.4C24,2.7,23.4,2.1,22.7,2.1z
	 M1.3,3h21.4c0.3,0,0.4,0.2,0.4,0.4v7l-3,1.1V6.9c0-0.3-0.2-0.4-0.4-0.4H4.3C4,6.4,3.9,6.6,3.9,6.9v4.7l-3-1.1v-7C0.9,3.2,1,3,1.3,3
	z M19.3,11.8L12,14.5l-7.3-2.7V7.3h14.6V11.8z M22.7,21H1.3c-0.3,0-0.4-0.2-0.4-0.4v-9.3l11,4.1c0.1,0,0.1,0.1,0.3,0l11-4.1v9.3
	C23.1,20.8,23,21,22.7,21z M17.1,10.3H8.6V9.4h8.6V10.3z M17.1,12H6.9v-0.9h10.3V12z"/>
</svg>
