<?xml version="1.0" encoding="utf-8"?>
<!-- Generator: Adobe Illustrator 21.1.0, SVG Export Plug-In . SVG Version: 6.00 Build 0)  -->
<svg version="1.1" id="Layer_1" xmlns="http://www.w3.org/2000/svg" xmlns:xlink="http://www.w3.org/1999/xlink" x="0px" y="0px"
	 viewBox="0 0 24 24" style="enable-background:new 0 0 24 24;" xml:space="preserve">
<path d="M22.5,2.1h-21C0.7,2.1,0,2.8,0,3.6v16.8c0,0.8,0.7,1.5,1.5,1.5h21c0.8,0,1.5-0.7,1.5-1.5V3.6C24,2.8,23.3,2.1,22.5,2.1z
	 M1.4,11.7l10.5,3.9c0.1,0,0.2,0.1,0.4,0l10.4-3.9v8.7c-0.1,0.2-0.1,0.2-0.2,0.2h-21c-0.1,0-0.1,0-0.1-0.1V11.7z M6.8,10.9v1.4h10.5
	L12,14.2l-6.9-2.6v-4h13.8v4l-1.6,0.6v-1.3H6.8z M22.6,10.3l-2.4,0.9V7c0-0.4-0.3-0.6-0.6-0.6h-15C4.3,6.3,4.1,6.4,4,6.4
	C3.9,6.5,3.8,6.7,3.8,7v4.3l-2.4-0.9V3.7c0-0.2,0.1-0.2,0.1-0.2h21c0.1,0,0.1,0,0.1,0.1V10.3z M17.3,10.6H8.4V9.2h8.9V10.6z"/>
</svg>
