<?xml version="1.0" encoding="UTF-8"?>
<svg xmlns="http://www.w3.org/2000/svg" xmlns:xlink="http://www.w3.org/1999/xlink" width="24pt" height="24pt" viewBox="0 0 24 24" version="1.1">
<g id="surface1">
<path style=" stroke:none;fill-rule:nonzero;fill:rgb(0%,0%,0%);fill-opacity:1;" d="M 0 19.417969 C 0 20.835938 1.199219 22.035156 2.617188 22.035156 L 21.273438 22.035156 C 22.691406 22.035156 23.890625 20.835938 23.890625 19.417969 L 23.890625 7.746094 C 23.890625 6.328125 22.691406 5.128906 21.273438 5.128906 L 17.019531 5.128906 L 17.019531 3.816406 C 17.019531 2.835938 16.144531 1.964844 15.164062 1.964844 L 8.835938 1.964844 C 7.855469 1.964844 6.980469 2.835938 6.980469 3.816406 L 6.980469 5.019531 L 2.617188 5.019531 C 1.199219 5.019531 0 6.21875 0 7.746094 C 0 7.746094 0 19.417969 0 19.417969 Z M 7.964844 3.816406 C 7.964844 3.382812 8.289062 3.054688 8.726562 3.054688 L 15.273438 3.054688 C 15.710938 3.054688 16.035156 3.382812 16.035156 3.816406 L 16.035156 5.019531 L 7.964844 5.019531 C 7.964844 5.128906 7.964844 3.816406 7.964844 3.816406 Z M 1.089844 7.746094 C 1.089844 6.871094 1.855469 6.109375 2.726562 6.109375 L 21.382812 6.109375 C 22.253906 6.109375 23.019531 6.871094 23.019531 7.746094 L 23.019531 19.417969 C 23.019531 20.289062 22.253906 21.054688 21.382812 21.054688 L 2.617188 21.054688 C 1.746094 21.054688 0.980469 20.289062 0.980469 19.417969 L 0.980469 7.746094 Z M 1.089844 7.746094 "/>
</g>
</svg>
