<?xml version="1.0" encoding="utf-8"?>
<!-- Generator: Adobe Illustrator 21.1.0, SVG Export Plug-In . SVG Version: 6.00 Build 0)  -->
<svg version="1.1" id="Layer_1" xmlns="http://www.w3.org/2000/svg" xmlns:xlink="http://www.w3.org/1999/xlink" x="0px" y="0px"
	 viewBox="0 0 24 24" style="enable-background:new 0 0 24 24;" xml:space="preserve">
<path d="M21.1,5h-3.9v-1c0-1.1-1-2.1-2.1-2.1H8.9c-1.1,0-2.1,1-2.1,2.1v0.9h-4c-1.6,0-2.8,1.3-2.8,2.9v11.5c0,1.5,1.3,2.8,2.8,2.8
	h18.4c1.5,0,2.8-1.3,2.8-2.8V7.8C23.9,6.3,22.7,5,21.1,5z M8.3,3.9c0-0.3,0.2-0.5,0.5-0.5h6.4c0.3,0,0.5,0.2,0.5,0.5v0.9H8.3V3.9z
	 M21.2,20.7H2.8c-0.7,0-1.4-0.6-1.4-1.4V8.1l0.1-0.2c0,0,0-0.1,0-0.1l0-0.1C1.6,7,2.2,6.4,2.9,6.4h18.4c0.7,0,1.4,0.6,1.4,1.4v11.5
	C22.6,20,22,20.7,21.2,20.7z"/>
</svg>
