<?xml version="1.0" encoding="utf-8"?>
<!-- Generator: Adobe Illustrator 21.1.0, SVG Export Plug-In . SVG Version: 6.00 Build 0)  -->
<svg version="1.1" id="Layer_1" xmlns="http://www.w3.org/2000/svg" xmlns:xlink="http://www.w3.org/1999/xlink" x="0px" y="0px"
	 viewBox="0 0 24 24" style="enable-background:new 0 0 24 24;" xml:space="preserve">
<path d="M22.1,6.1V4.3c0-1.2-1-2.1-2.1-2.1h-1.8L16.9,1c-0.4-0.4-1-0.6-1.5-0.6c-0.5,0-1.1,0.2-1.5,0.6l-1.3,1.3h-1.8
	c-1.2,0-2.1,1-2.1,2.1v1.8L8.6,6.3C8.3,6.6,8.4,7,8.7,7.1l0,0C8.9,7.2,9.1,7.2,9.3,7l0.2-0.2l0.3-0.3V6.1V4.3c0-0.6,0.5-1.1,1.1-1.1
	h1.8h0.4l0.3-0.3l1.3-1.3c0.2-0.2,0.5-0.3,0.8-0.3c0.3,0,0.6,0.1,0.8,0.3l1.3,1.3l0.3,0.3h0.4H20c0.6,0,1.1,0.5,1.1,1.1v1.8v0.4
	l0.3,0.3l1.3,1.3c0.4,0.4,0.4,1.2,0,1.6L21.4,11l-0.3,0.3v0.4v1.8c0,0.6-0.5,1.1-1.1,1.1h-1.8h-0.4l-0.3,0.3l-1.3,1.3
	c-0.2,0.2-0.5,0.3-0.8,0.3c-0.3,0-0.6-0.1-0.8-0.3l-1.3-1.3l-0.3-0.3h-0.4h-0.9c-0.2,0-0.4,0.1-0.4,0.3c0,0,0,0,0,0
	c-0.1,0.3,0.1,0.7,0.4,0.7h0.9l1.3,1.3c0.4,0.4,1,0.6,1.5,0.6c0.5,0,1.1-0.2,1.5-0.6l1.3-1.3H20c1.2,0,2.1-1,2.1-2.1v-1.8l1.3-1.3
	c0.8-0.8,0.8-2.2,0-3L22.1,6.1z M2,3.4C2,5,3.2,6.3,4.8,6.3S7.6,5,7.6,3.4S6.3,0.6,4.8,0.6C3.2,0.6,2,1.9,2,3.4z M6.5,3.4
	c0,1-0.8,1.7-1.7,1.7S3,4.4,3,3.4c0-1,0.8-1.7,1.7-1.7S6.5,2.5,6.5,3.4z M6,7.3H3.6H3.5C1.6,7.3,0,8.8,0,10.8V16
	c0,1,0.7,1.8,1.6,1.9v3.8c0,1.1,0.9,2,2,2H6c1.1,0,2-0.9,2-2v-3.5v-0.3c0.9-0.2,1.6-1,1.6-1.9v-5.2C9.5,8.8,8,7.3,6,7.3z M8.5,16
	c0,0.5-0.4,0.9-0.9,0.9H6.9v4.8c0,0.5-0.4,0.9-0.9,0.9H3.6c-0.5,0-0.9-0.4-0.9-0.9v-4.8H2c-0.5,0-0.9-0.4-0.9-0.9v-5.2
	c0-1.3,1.1-2.4,2.4-2.4H6c1.3,0,2.4,1.1,2.4,2.4L8.5,16L8.5,16z M15.4,12.6c2.1,0,3.7-1.7,3.7-3.7s-1.7-3.7-3.7-3.7
	s-3.7,1.7-3.7,3.7C11.7,10.9,13.4,12.6,15.4,12.6z M15.4,6.4c1.4,0,2.5,1.1,2.5,2.5c0,1.4-1.1,2.5-2.5,2.5c-1.4,0-2.5-1.1-2.5-2.5
	C12.9,7.5,14.1,6.4,15.4,6.4z"/>
</svg>
