<?xml version="1.0" encoding="utf-8"?>
<!-- Generator: Adobe Illustrator 21.1.0, SVG Export Plug-In . SVG Version: 6.00 Build 0)  -->
<svg version="1.1" id="Layer_1" xmlns="http://www.w3.org/2000/svg" xmlns:xlink="http://www.w3.org/1999/xlink" x="0px" y="0px"
	 viewBox="0 0 24 24" style="enable-background:new 0 0 24 24;" xml:space="preserve">
<path d="M4.9,6.5c1.6,0,2.9-1.3,2.9-3c0-1.6-1.3-2.9-2.9-2.9S2,1.9,2,3.5C2,5.2,3.3,6.5,4.9,6.5z M3.2,3.5c0-0.9,0.7-1.6,1.6-1.6
	c0.9,0,1.7,0.8,1.7,1.6C6.4,4.4,5.7,5,4.9,5C4.1,5,3.2,4.4,3.2,3.5z M15.4,12.7c2.1,0,3.8-1.7,3.8-3.8c0-2.1-1.7-3.8-3.8-3.8
	s-3.8,1.7-3.8,3.8S13.3,12.7,15.4,12.7z M13,8.9c0-1.3,1.1-2.4,2.4-2.4c1.3,0,2.4,1,2.4,2.4s-1,2.4-2.4,2.4S13,10.3,13,8.9z
	 M6.1,7.2H3.6c-2,0-3.6,1.6-3.6,3.6V16c0,1,0.7,1.8,1.6,2v3.7c0,1.2,0.9,2.1,2.1,2.1h2.4c1.2,0,2.1-0.9,2.1-2.1v-3.7
	c0.9-0.2,1.6-1.1,1.6-2v-5.2C9.6,8.7,8.1,7.2,6.1,7.2z M6.8,16.7v4.9c0,0.4-0.3,0.8-0.8,0.8H3.7c-0.4,0-0.8-0.3-0.8-0.8v-4.9H2.1
	c-0.4,0-0.8-0.3-0.8-0.8v-5.1c0-1.2,1-2.3,2.3-2.3h2.5c1.2,0,2.3,1,2.3,2.3L8.4,16c0,0.4-0.3,0.8-0.8,0.8H6.8z M23.4,10.5l-1.3,1.3
	v1.7c0,1.2-1,2.2-2.2,2.2h-1.7l-1.2,1.3c-0.4,0.4-1,0.6-1.6,0.6c-0.6,0-1.2-0.2-1.6-0.6l-1.3-1.3h-0.8c-0.2,0-0.3-0.1-0.4-0.2
	c-0.1-0.2-0.2-0.4-0.1-0.6c0-0.2,0.2-0.4,0.5-0.4H13l1.6,1.6c0.2,0.2,0.4,0.3,0.7,0.3s0.5-0.1,0.7-0.3l1.6-1.6h2.2c0.5,0,1-0.4,1-1
	v-2.2l1.6-1.6c0.3-0.3,0.3-1.1,0-1.4l-1.6-1.6V4.4c0-0.5-0.4-1-1-1h-2.1l-1.6-1.6c-0.2-0.2-0.4-0.3-0.7-0.3s-0.5,0.1-0.7,0.3
	l-1.6,1.6h-2.2c-0.5,0-1,0.4-1,1v2.2L9.4,7.1C9.2,7.4,9,7.4,8.7,7.3C8.5,7.2,8.4,7.1,8.3,6.9c-0.1-0.2,0-0.4,0.2-0.6l0.1-0.1V4.5
	c0-1.2,1-2.2,2.2-2.2h1.7L13.8,1c0.4-0.4,1-0.6,1.6-0.6c0.6,0,1.2,0.2,1.6,0.6l1.2,1.2h1.7c1.2,0,2.2,1,2.2,2.2v1.7l1.3,1.3
	C24.2,8.2,24.2,9.7,23.4,10.5z"/>
</svg>
