<?xml version="1.0" encoding="UTF-8"?>
<svg width="60px" height="60px" viewBox="0 0 60 60" version="1.1" xmlns="http://www.w3.org/2000/svg" xmlns:xlink="http://www.w3.org/1999/xlink">
    <!-- Generator: Sketch 53.1 (72631) - https://sketchapp.com -->
    <title>synccode</title>
    <desc>Created with Sketch.</desc>
    <g id="synccode" stroke="none" stroke-width="1" fill="none" fill-rule="evenodd">
        <g transform="translate(2.000000, 7.000000)" fill="#000000">
            <g id="Group-3" transform="translate(0.000000, 0.439500)">
                <path d="M52.1006,13.5176 C49.7556,11.2546 46.7076,10.0076 43.4586,9.9646 C40.4706,4.2316 34.4726,0.5606 27.9996,0.5606 C19.1626,0.5606 11.7726,7.2006 10.7186,15.8666 C8.1666,15.6266 5.6316,16.3866 3.6196,18.0216 C1.3196,19.8906 -0.0004,22.6626 -0.0004,25.6266 C-0.0004,32.4166 4.8996,34.4956 7.8206,35.1296 C7.8916,35.1456 7.9626,35.1526 8.0336,35.1526 C8.4936,35.1526 8.9086,34.8326 9.0096,34.3646 C9.1266,33.8256 8.7846,33.2916 8.2446,33.1746 C5.3956,32.5566 1.9996,30.7446 1.9996,25.6266 C1.9996,23.2676 3.0496,21.0606 4.8796,19.5736 C6.7136,18.0836 9.0966,17.5066 11.4136,17.9906 C11.7026,18.0526 11.9966,17.9836 12.2266,17.8056 C12.4576,17.6286 12.6006,17.3616 12.6176,17.0706 C13.0966,8.9346 19.8536,2.5606 27.9996,2.5606 C33.9196,2.5606 39.3916,6.0306 41.9396,11.4006 C42.1106,11.7606 42.4696,11.9886 42.8786,11.9706 C45.8016,11.8686 48.6056,12.9236 50.7126,14.9566 C52.8326,17.0006 53.9996,19.7486 53.9996,22.6936 C53.9996,28.6486 50.2486,31.3936 47.1026,32.6476 C46.5896,32.8516 46.3386,33.4336 46.5436,33.9466 C46.7476,34.4586 47.3306,34.7106 47.8426,34.5046 C50.8896,33.2906 55.9996,30.1426 55.9996,22.6936 C55.9996,19.2016 54.6156,15.9426 52.1006,13.5176" id="Fill-1"></path>
            </g>
            <path d="M35.0586,40.9102 C33.3716,43.1532 30.7986,44.4392 27.9996,44.4392 C23.1376,44.4392 19.1816,40.4832 19.1816,35.6212 L19.1816,35.5802 L21.1566,37.5562 C21.3516,37.7512 21.6076,37.8482 21.8636,37.8482 C22.1196,37.8482 22.3746,37.7512 22.5706,37.5562 C22.9606,37.1652 22.9606,36.5322 22.5706,36.1412 L18.8896,32.4602 C18.7086,32.2782 18.4586,32.1662 18.1816,32.1662 C17.9046,32.1662 17.6546,32.2782 17.4736,32.4602 L13.7926,36.1412 C13.4026,36.5322 13.4026,37.1652 13.7926,37.5562 C14.1836,37.9462 14.8166,37.9462 15.2066,37.5562 L17.1816,35.5802 L17.1816,35.6212 C17.1816,41.5862 22.0356,46.4392 27.9996,46.4392 C31.4336,46.4392 34.5886,44.8622 36.6566,42.1112 C36.9886,41.6702 36.8996,41.0432 36.4576,40.7122 C36.0176,40.3792 35.3906,40.4682 35.0586,40.9102" id="Fill-4"></path>
            <path d="M40.793,33.6866 L38.818,35.6616 L38.818,35.6216 C38.818,29.6566 33.965,24.8026 28,24.8026 C24.565,24.8026 21.412,26.3796 19.348,29.1286 C19.017,29.5716 19.106,30.1976 19.547,30.5296 C19.989,30.8606 20.616,30.7726 20.947,30.3306 C22.63,28.0876 25.2,26.8026 28,26.8026 C32.862,26.8026 36.818,30.7586 36.818,35.6216 L36.818,35.6616 L34.844,33.6866 C34.453,33.2956 33.82,33.2956 33.43,33.6866 C33.039,34.0776 33.039,34.7096 33.43,35.1006 L37.11,38.7816 C37.202,38.8736 37.314,38.9476 37.437,38.9986 C37.559,39.0486 37.689,39.0756 37.818,39.0756 C37.948,39.0756 38.078,39.0486 38.2,38.9986 C38.323,38.9476 38.435,38.8736 38.526,38.7816 L42.207,35.1006 C42.598,34.7096 42.598,34.0776 42.207,33.6866 C41.816,33.2956 41.184,33.2956 40.793,33.6866" id="Fill-6"></path>
        </g>
    </g>
</svg>