<?xml version="1.0" encoding="utf-8"?>
<!-- Generator: Adobe Illustrator 23.0.5, SVG Export Plug-In . SVG Version: 6.00 Build 0)  -->
<svg version="1.1" id="Layer_1" xmlns="http://www.w3.org/2000/svg" xmlns:xlink="http://www.w3.org/1999/xlink" x="0px" y="0px"
	 viewBox="0 0 20 20" style="enable-background:new 0 0 20 20;" xml:space="preserve">
<g>
	<g>
		<path d="M18.1,17.8H1.9V2.2h16.2V17.8z M2.9,16.8h14.2V3.2H2.9V16.8z"/>
	</g>
	<g>
		<g>
			<path d="M7.6,6.6L7.6,6.6c0,0.1,0,0.1,0,0.1C7.1,7.1,6.6,7.5,6.3,8C5.9,8.5,5.7,9,5.5,9.6c-0.2,0.5-0.2,1.1-0.2,1.6
				c0,0.4,0.1,0.8,0.2,1.1C5.5,12.6,5.7,13,6,13.3c0,0,0,0,0,0.1c0,0,0,0,0,0.1c0,0,0,0-0.1,0.1s0,0-0.1,0c-0.4-0.3-0.7-0.6-1-1.1
				c-0.3-0.5-0.4-1-0.4-1.5c0-0.6,0.2-1.3,0.5-1.9C5.2,8.5,5.6,8,6.1,7.6C6.5,7.1,7,6.8,7.6,6.6C7.6,6.5,7.6,6.5,7.6,6.6
				C7.6,6.5,7.6,6.5,7.6,6.6z"/>
		</g>
		<g>
			<path d="M13.5,7.2C13.5,7.2,13.5,7.3,13.5,7.2c-0.1,0.1-0.1,0.2-0.1,0.2c-0.3,0-0.5,0.1-0.6,0.2c-0.1,0.1-0.4,0.2-0.6,0.5
				l-1.7,1.7l1,2.1c0.1,0.2,0.2,0.4,0.3,0.4c0.1,0.1,0.1,0.1,0.3,0.2c0.1,0,0.3,0.1,0.5,0.1c0,0,0,0,0,0.1s0,0.1,0,0.1
				c0,0,0,0.1-0.1,0.1c-0.1,0-0.3,0-0.6,0c-0.2,0-0.4,0-0.5,0c-0.1,0-0.3,0-0.5,0c-0.3,0-0.6,0-0.8,0c0,0,0,0,0-0.1
				c0-0.1,0-0.1,0.1-0.1c0.2,0,0.4-0.1,0.5-0.1c0.1-0.1,0.1-0.1,0.1-0.2c0-0.1,0-0.2-0.1-0.4l-0.7-1.6l-1.5,1.6
				c-0.1,0.1-0.2,0.3-0.2,0.4c0,0.2,0.2,0.3,0.6,0.3c0,0,0,0,0,0.1s0,0.1,0,0.1c0,0,0,0.1-0.1,0.1c-0.2,0-0.4,0-0.7,0
				c-0.2,0-0.3,0-0.4,0c-0.1,0-0.2,0-0.4,0c-0.2,0-0.4,0-0.6,0c0,0,0,0,0-0.1c0-0.1,0-0.1,0.1-0.1c0.2,0,0.4-0.1,0.6-0.2
				c0.2-0.1,0.4-0.2,0.7-0.5l1.8-1.8l-1-2.1C8.7,7.8,8.5,7.6,8.4,7.5C8.3,7.4,8.1,7.4,7.8,7.3c0,0,0,0,0-0.1s0-0.1,0-0.1
				s0-0.1,0.1-0.1c0.1,0,0.3,0,0.6,0c0.2,0,0.4,0,0.6,0c0.1,0,0.3,0,0.6,0c0.3,0,0.5,0,0.7,0c0,0,0.1,0,0.1,0.1c0,0,0,0.1,0,0.1
				c0,0,0,0.1-0.1,0.1c-0.4,0-0.6,0.2-0.6,0.4c0,0.1,0,0.2,0.1,0.3l0.7,1.5l1.4-1.5c0.1-0.2,0.2-0.3,0.2-0.4c0-0.2-0.2-0.3-0.6-0.3
				c0,0,0,0,0-0.1s0-0.1,0-0.1c0,0,0-0.1,0.1-0.1c0.2,0,0.4,0,0.6,0c0.2,0,0.4,0,0.5,0c0.1,0,0.2,0,0.4,0
				C13.1,7.1,13.3,7.1,13.5,7.2C13.5,7.1,13.5,7.2,13.5,7.2z"/>
		</g>
		<g>
			<path d="M15.5,9.1c0,0.6-0.1,1.3-0.5,1.9c-0.3,0.6-0.6,1.1-1.1,1.5c-0.4,0.4-0.9,0.8-1.4,1.1c0,0,0,0-0.1,0s0,0-0.1-0.1
				c0,0,0-0.1,0-0.1c0.5-0.4,1-0.8,1.3-1.3c0.3-0.5,0.6-1,0.8-1.6c0.2-0.5,0.2-1.1,0.2-1.6c0-0.4-0.1-0.8-0.1-1.1
				C14.5,7.4,14.3,7,14,6.7c0,0,0,0,0-0.1s0-0.1,0-0.1c0,0,0.1,0,0.1-0.1c0,0,0,0,0.1,0c0.4,0.3,0.7,0.7,1,1.1
				C15.4,8,15.5,8.5,15.5,9.1z"/>
		</g>
	</g>
</g>
</svg>
