<?xml version="1.0" encoding="utf-8"?>
<!-- Generator: Adobe Illustrator 21.1.0, SVG Export Plug-In . SVG Version: 6.00 Build 0)  -->
<svg version="1.1" id="Layer_1" xmlns="http://www.w3.org/2000/svg" xmlns:xlink="http://www.w3.org/1999/xlink" x="0px" y="0px"
	 viewBox="0 0 24 24" style="enable-background:new 0 0 24 24;" xml:space="preserve">
<path d="M21.6,13.3V4l-4-4H3v24h18.7v-4h-1.3v2.7h-16V1.3h12v4h4v8H21.6z M14.6,18h1.9v0.7h-3.1v-0.5l1.9-2.7h-1.9v-0.7h3.1v0.5
	L14.6,18z M17.8,18.7h-1v-4h1V18.7z M19.3,17.4v1.4h-1v-4H20c0.3,0,0.6,0.1,0.8,0.2c0.2,0.1,0.4,0.3,0.5,0.5s0.2,0.4,0.2,0.7
	c0,0.4-0.1,0.7-0.4,0.9c-0.3,0.2-0.7,0.3-1.1,0.3C20,17.4,19.3,17.4,19.3,17.4z M19.3,16.6H20c0.2,0,0.3,0,0.4-0.1s0.1-0.2,0.1-0.4
	c0-0.2-0.1-0.3-0.2-0.4c-0.1-0.1-0.2-0.2-0.4-0.2h-0.6V16.6L19.3,16.6z"/>
</svg>
