<?xml version="1.0" encoding="utf-8"?>
<!-- Generator: Adobe Illustrator 21.1.0, SVG Export Plug-In . SVG Version: 6.00 Build 0)  -->
<svg version="1.1" id="Layer_1" xmlns="http://www.w3.org/2000/svg" xmlns:xlink="http://www.w3.org/1999/xlink" x="0px" y="0px"
	 viewBox="0 0 24 24" style="enable-background:new 0 0 24 24;" xml:space="preserve">
<path d="M23.6,0H0.4C0.2,0,0,0.2,0,0.4v23.2C0,23.8,0.2,24,0.4,24h23.2c0.2,0,0.4-0.2,0.4-0.4V0.4C24,0.2,23.8,0,23.6,0z M7.4,22.3
	H1.7v-5.7h5.7V22.3z M7.4,14.8H1.7V9.2h5.7V14.8z M7.4,7.4H1.7V1.7h5.7V7.4z M14.8,22.3H9.2v-5.7h5.7L14.8,22.3L14.8,22.3z
	 M14.8,14.8H9.2V9.2h5.7L14.8,14.8L14.8,14.8z M14.8,7.4H9.2V1.7h5.7L14.8,7.4L14.8,7.4z M22.3,22.3h-5.7v-5.7h5.7V22.3z M22.3,14.8
	h-5.7V9.2h5.7V14.8z M22.3,7.4h-5.7V1.7h5.7V7.4z"/>
</svg>
