<?xml version="1.0" encoding="utf-8"?>
<!-- Generator: Adobe Illustrator 21.1.0, SVG Export Plug-In . SVG Version: 6.00 Build 0)  -->
<svg version="1.1" id="Layer_1" xmlns="http://www.w3.org/2000/svg" xmlns:xlink="http://www.w3.org/1999/xlink" x="0px" y="0px"
	 viewBox="0 0 24 24" style="enable-background:new 0 0 24 24;" xml:space="preserve">
<path d="M0,12c0,1.3,1.1,2.3,2.4,2.3h5c0.9,0,1.6,0.7,1.6,1.6v3.8c0,1.3,1,2.3,2.2,2.4c0.3,0,0.6,0,0.9,0c6.6,0,12-4.5,12-10.1
	c0-5.5-5.4-10.1-12-10.1S0,6.5,0,12z M0.8,12c0-5.1,5-9.3,11.2-9.3S23.2,6.9,23.2,12s-5,9.3-11.2,9.3c-0.3,0-0.6,0-0.8,0
	c-0.8-0.1-1.5-0.8-1.5-1.6v-3.8c0-1.3-1.1-2.4-2.4-2.4h-5C1.5,13.5,0.8,12.9,0.8,12z M3.5,8.9c0,1.9,1.6,3.5,3.5,3.5
	s3.5-1.6,3.5-3.5S8.9,5.4,7,5.4S3.5,7,3.5,8.9z M4.3,8.9c0-1.5,1.2-2.7,2.7-2.7s2.7,1.2,2.7,2.7S8.5,11.6,7,11.6S4.3,10.4,4.3,8.9z
	 M11.2,6.6c0,1.3,1,2.3,2.3,2.3s2.3-1,2.3-2.3s-1-2.3-2.3-2.3S11.2,5.3,11.2,6.6z M12,6.6C12,5.7,12.7,5,13.5,5s1.5,0.7,1.5,1.5
	s-0.7,1.5-1.5,1.5S12,7.4,12,6.6z M20.5,9.3c0-1.3-1-2.3-2.3-2.3s-2.3,1-2.3,2.3s1,2.3,2.3,2.3S20.5,10.6,20.5,9.3z M19.7,9.3
	c0,0.9-0.7,1.5-1.5,1.5s-1.5-0.7-1.5-1.5s0.7-1.5,1.5-1.5S19.7,8.4,19.7,9.3z M17,14.3c0,1.1,0.9,1.9,1.9,1.9c1.1,0,1.9-0.9,1.9-1.9
	S20,12.4,19,12.4C17.9,12.4,17,13.3,17,14.3z M17.8,14.3c0-0.6,0.5-1.2,1.2-1.2c0.6,0,1.2,0.5,1.2,1.2s-0.5,1.2-1.2,1.2
	C18.3,15.5,17.8,15,17.8,14.3z M13.2,17.4c0,1.1,0.9,1.9,1.9,1.9s1.9-0.9,1.9-1.9c0-1.1-0.9-1.9-1.9-1.9S13.2,16.4,13.2,17.4z
	 M13.9,17.4c0-0.6,0.5-1.2,1.2-1.2s1.2,0.5,1.2,1.2c0,0.6-0.5,1.2-1.2,1.2S13.9,18.1,13.9,17.4z"/>
</svg>
