<?xml version="1.0" encoding="utf-8"?>
<!-- Generator: Adobe Illustrator 21.1.0, SVG Export Plug-In . SVG Version: 6.00 Build 0)  -->
<svg version="1.1" id="Layer_1" xmlns="http://www.w3.org/2000/svg" xmlns:xlink="http://www.w3.org/1999/xlink" x="0px" y="0px"
	 viewBox="0 0 24 24" style="enable-background:new 0 0 24 24;" xml:space="preserve">
<path d="M21.3,11.9c-2.2-1.3-2-4.1-0.8-6.2c1-1.7,0.5-3.5-1-4.5C18.2,0.4,16.6,0,15,0C11,0,7,2.5,4.6,6.4c-1.7,2.7-2.4,6.1-2,9.2
	c0.4,3.2,1.9,5.8,4.2,7.2C8,23.6,9.5,24,11.1,24c4,0,8.1-2.6,10.6-6.6c0.6-1,0.9-2.1,0.9-3.1C22.5,13.2,22.1,12.4,21.3,11.9z
	 M19.2,5c-1.8,3.3-1.3,6.5,1.3,8.1c0.3,0.2,0.5,0.6,0.6,1.2c0,0.7-0.2,1.5-0.7,2.3c-2.2,3.6-5.9,5.9-9.3,5.9c-1.3,0-2.5-0.3-3.6-1
	c-1.9-1.2-3.2-3.4-3.5-6.1c-0.3-2.8,0.3-5.8,1.8-8.2C8,3.6,11.5,1.4,15,1.4c1.4,0,2.6,0.3,3.8,1C19.8,3.1,19.7,4.3,19.2,5z
	 M14.1,11.5c-0.7,0.6-1.2,1.3-1.4,2.1c-0.2,0.8,0,1.6,0.5,2.2c0.5,0.6,1.3,1,2.1,1c0.8,0,1.6-0.3,2.3-0.8c0.7-0.5,1.2-1.3,1.3-2
	c0.2-0.8,0-1.6-0.5-2.3c-0.5-0.6-1.3-1-2.1-1C15.6,10.7,14.8,11,14.1,11.5z M15,12.6c0.4-0.3,0.9-0.5,1.4-0.5c0.4,0,0.8,0.1,1,0.4
	c0.2,0.3,0.3,0.6,0.2,1c-0.1,0.5-0.4,0.9-0.8,1.2c-0.4,0.3-0.9,0.5-1.4,0.5c-0.4,0-0.8-0.2-1-0.4c-0.2-0.3-0.3-0.7-0.2-1.1
	C14.3,13.4,14.6,13,15,12.6z M9.1,10.7c0.1,0.5,0,1-0.2,1.5c-0.4,0.6-1,0.9-1.6,0.9c-0.4,0-0.7-0.1-1-0.3c-0.4-0.3-0.7-0.7-0.9-1.2
	c-0.1-0.5,0-1,0.2-1.5c0.4-0.6,1-0.9,1.6-0.9c0.4,0,0.7,0.1,1,0.3C8.7,9.7,9,10.2,9.1,10.7z M10.4,8.6c-0.4,0-0.7-0.1-1-0.3
	C9,8,8.7,7.6,8.5,7.1c-0.1-0.5,0-1,0.2-1.5c0.4-0.6,1-0.9,1.6-0.9c0.4,0,0.7,0.1,1,0.3c0.1,0.1,0.2,0.2,0.3,0.3
	c0.2,0.2,0.4,0.4,0.4,0.7c0.2,0.6,0.2,1.2-0.1,1.7C11.7,8.2,11.1,8.6,10.4,8.6z M13.5,19.2c0.1,0.5,0,1-0.2,1.5
	c-0.4,0.6-1,0.9-1.6,0.9c-0.4,0-0.7-0.1-1-0.3c-0.4-0.3-0.7-0.7-0.9-1.2c-0.1-0.5,0-1,0.2-1.5c0.4-0.6,1-0.9,1.6-0.9
	c0.4,0,0.7,0.1,1,0.3C13.1,18.3,13.4,18.7,13.5,19.2z M8.9,16.1c0.1,0.5,0,1-0.2,1.5c-0.4,0.6-1,0.9-1.6,0.9c-0.4,0-0.7-0.1-1-0.3
	c-0.4-0.3-0.7-0.7-0.9-1.2c-0.1-0.5,0-1,0.2-1.5c0.4-0.6,1-0.9,1.6-0.9c0.4,0,0.7,0.1,1,0.3C8.5,15.2,8.8,15.6,8.9,16.1z M13.8,5.2
	c-0.1-0.5,0-1,0.2-1.5c0.4-0.6,1-0.9,1.6-0.9c0.4,0,0.7,0.1,1,0.3c0.4,0.3,0.7,0.7,0.9,1.2c0.1,0.5,0,1-0.2,1.5
	c-0.4,0.6-1,0.9-1.6,0.9c-0.4,0-0.7-0.1-1-0.3C14.3,6.1,14,5.7,13.8,5.2z"/>
</svg>
