<?xml version="1.0" encoding="utf-8"?>
<!-- Generator: Adobe Illustrator 21.1.0, SVG Export Plug-In . SVG Version: 6.00 Build 0)  -->
<svg version="1.1" id="Layer_1" xmlns="http://www.w3.org/2000/svg" xmlns:xlink="http://www.w3.org/1999/xlink" x="0px" y="0px"
	 viewBox="0 0 24 24" style="enable-background:new 0 0 24 24;" xml:space="preserve">
<path d="M2.6,17.8c-1.4,0-2.6-1.2-2.6-2.6c0-1.4,1.2-2.6,2.6-2.6c0.1,0,0.3,0,0.4,0l4.4-4.4c0-0.1,0-0.2,0-0.4
	c0-1.4,1.2-2.6,2.6-2.6s2.6,1.2,2.6,2.6c0,0.1,0,0.3,0,0.4l2.3,2.3c0.2,0,0.5,0,0.8,0l3.3-3.3c0-0.1,0-0.2,0-0.4
	c0-1.4,1.2-2.6,2.6-2.6S24,5.5,24,6.9s-1.2,2.6-2.6,2.6c-0.1,0-0.3,0-0.4,0l-3.3,3.3c0,0.1,0,0.2,0,0.4c0,1.4-1.2,2.6-2.6,2.6
	s-2.6-1.2-2.6-2.6c0-0.1,0-0.3,0-0.4l-2.3-2.3c-0.2,0-0.5,0-0.8,0l-4.4,4.4c0,0.1,0,0.2,0,0.4C5.2,16.6,4,17.8,2.6,17.8z M2.6,13.6
	c-0.9,0-1.6,0.7-1.6,1.6s0.7,1.6,1.6,1.6s1.6-0.7,1.6-1.6c0-0.1,0-0.3-0.1-0.4l-0.1-0.3l5.2-5.2l0.3,0.1c0.2,0.1,0.6,0.1,0.8,0
	l0.3-0.1l3.1,3.1l-0.1,0.3c0,0.1,0,0.2,0,0.4c0,0.9,0.7,1.6,1.6,1.6s1.6-0.7,1.6-1.6c0-0.2,0-0.3,0-0.4l-0.1-0.3l4.1-4.1L21,8.4
	c0.1,0,0.2,0.1,0.4,0.1c0.9,0,1.6-0.7,1.6-1.6s-0.7-1.6-1.6-1.6S19.8,6,19.8,6.9c0,0.1,0,0.3,0,0.4l0.1,0.3l-4.1,4.1l-0.3-0.1
	c-0.2-0.1-0.6-0.1-0.8,0l-0.3,0.1l-3.1-3.1l0.1-0.3c0-0.1,0.1-0.2,0.1-0.4c0-0.9-0.7-1.6-1.6-1.6S8.3,7,8.3,7.9c0,0.2,0,0.3,0,0.4
	l0.1,0.3l-5.2,5.2L3,13.7C2.9,13.6,2.8,13.6,2.6,13.6z"/>
</svg>
