<?xml version="1.0" encoding="utf-8"?>
<!-- Generator: Adobe Illustrator 21.1.0, SVG Export Plug-In . SVG Version: 6.00 Build 0)  -->
<svg version="1.1" id="Layer_1" xmlns="http://www.w3.org/2000/svg" xmlns:xlink="http://www.w3.org/1999/xlink" x="0px" y="0px"
	 viewBox="0 0 24 24" style="enable-background:new 0 0 24 24;" xml:space="preserve">
<path d="M21.4,4.1c-1.5,0-2.8,1.3-2.8,2.8v0.3l-3.1,3.1h-0.6l-2.1-2.1V7.9c0-1.5-1.3-2.8-2.8-2.8c-1.5,0-2.8,1.3-2.8,2.8v0.3
	l-4.2,4.2H2.8c-1.5,0-2.8,1.3-2.8,2.8s1.3,2.8,2.8,2.8c0.8,0,1.5-0.4,2-0.9c0.4-0.5,0.6-1.2,0.5-1.8v-0.3l4.2-4.2h0.6l2.1,2.1v0.3
	c0,1.5,1.3,2.8,2.8,2.8s2.8-1.3,2.8-2.8v-0.3l3.1-3.1h0.3C22.7,9.8,24,8.5,24,7C24,5.4,22.8,4.1,21.4,4.1z M16.5,12.7v0.4
	c0,0.7-0.6,1.3-1.3,1.3c-0.7,0-1.3-0.6-1.3-1.3v-0.4l0.1-0.4l-3.3-3.3l-0.5,0.2c-0.1,0.1-0.4,0.1-0.6,0L9.2,9.1l-5.3,5.3L4,14.8
	l0.1,0.1c0,0,0,0.1,0,0.2c0,0.7-0.6,1.3-1.3,1.3s-1.3-0.6-1.3-1.3c0-0.7,0.6-1.3,1.3-1.3c0.2,0,0.2,0,0.2,0L3.4,14l5.3-5.3L8.6,8.3
	V8c0-0.7,0.6-1.3,1.3-1.3s1.3,0.6,1.3,1.3c0,0.1,0,0.1,0,0.2c0,0,0,0.1-0.1,0.2L11,8.7l3.3,3.3l0.5-0.2c0.1-0.1,0.4-0.1,0.6,0
	l0.4,0.1L20,7.7l-0.1-0.4V7c0-0.7,0.6-1.3,1.3-1.3c0.7,0,1.3,0.6,1.3,1.3s-0.6,1.3-1.3,1.3c-0.1,0-0.1,0-0.2,0c0,0-0.1,0-0.2,0
	l-0.3-0.2l-4.2,4.2L16.5,12.7z"/>
</svg>
