<?xml version="1.0" encoding="utf-8"?>
<!-- Generator: Adobe Illustrator 21.1.0, SVG Export Plug-In . SVG Version: 6.00 Build 0)  -->
<svg version="1.1" id="Layer_1" xmlns="http://www.w3.org/2000/svg" xmlns:xlink="http://www.w3.org/1999/xlink" x="0px" y="0px"
	 viewBox="0 0 24 24" style="enable-background:new 0 0 24 24;" xml:space="preserve">
<path d="M17.3,16.8c0.3,0.3,0.2,0.8-0.1,1.1c-0.1,0.1-0.3,0.2-0.5,0.2c-0.2,0-0.4-0.1-0.6-0.3l-4.7-5.3c-0.1-0.1-0.2-0.3-0.2-0.5
	V3.7c0-0.4,0.3-0.8,0.8-0.8s0.8,0.3,0.8,0.8v8L17.3,16.8z M24,12c0,6.6-5.4,12-12,12S0,18.6,0,12S5.4,0,12,0S24,5.4,24,12z M22.4,12
	c0-5.8-4.7-10.4-10.4-10.4C6.2,1.6,1.6,6.2,1.6,12c0,5.8,4.7,10.4,10.4,10.4C17.8,22.4,22.4,17.8,22.4,12z"/>
</svg>
