<?xml version="1.0" encoding="utf-8"?>
<!-- Generator: Adobe Illustrator 21.1.0, SVG Export Plug-In . SVG Version: 6.00 Build 0)  -->
<svg version="1.1" id="Layer_1" xmlns="http://www.w3.org/2000/svg" xmlns:xlink="http://www.w3.org/1999/xlink" x="0px" y="0px"
	 viewBox="0 0 24 24" style="enable-background:new 0 0 24 24;" xml:space="preserve">
<path d="M20.5,3.5l-1.7,1.7c1.8,1.9,2.8,4.3,2.8,6.8c0,5.3-4.3,9.6-9.6,9.6S2.4,17.3,2.4,12c0-4.9,3.7-8.9,8.4-9.5v2.4
	c-3.4,0.6-6,3.5-6,7.1c0,4,3.2,7.2,7.2,7.2s7.2-3.2,7.2-7.2c0-1.9-0.7-3.7-2.2-5l-1.7,1.7c1,0.8,1.4,2,1.4,3.4
	c0,2.6-2.2,4.8-4.8,4.8S7.2,14.6,7.2,12c0-2.3,1.6-4.1,3.6-4.7v2.5c-0.7,0.4-1.2,1.2-1.2,2c0,1.3,1.1,2.4,2.4,2.4s2.4-1.1,2.4-2.4
	c0-0.8-0.5-1.7-1.2-2V0H12C5.4,0,0,5.4,0,12s5.4,12,12,12s12-5.4,12-12C24,8.8,22.8,5.8,20.5,3.5z"/>
</svg>
