<?xml version="1.0" encoding="utf-8"?>
<!-- Generator: Adobe Illustrator 21.1.0, SVG Export Plug-In . SVG Version: 6.00 Build 0)  -->
<svg version="1.1" id="Layer_1" xmlns="http://www.w3.org/2000/svg" xmlns:xlink="http://www.w3.org/1999/xlink" x="0px" y="0px"
	 viewBox="0 0 22 22" style="enable-background:new 0 0 22 22;" xml:space="preserve">
<path d="M10.5,11.6C9,10.2,7.8,9,7.1,6.1h5V4H7.1V1.3H5v2.8H0v2.1h5.1c0,0,0,0.4-0.1,0.7c-0.7,2.8-1.6,4.5-5,6.3l0.7,2.1
	C4,13.5,5.7,11.4,6.4,9c0.7,1.8,1.9,3.3,3.3,4.7L10.5,11.6z M17,4.8h-2.8l-5,14h2.1l1.4-4.2h5.7l1.4,4.2H22L17,4.8z M13.5,12.4
	l2.1-5.6l2.1,5.6L13.5,12.4L13.5,12.4z"/>
</svg>
