<?xml version="1.0" encoding="utf-8"?>
<!-- Generator: Adobe Illustrator 21.1.0, SVG Export Plug-In . SVG Version: 6.00 Build 0)  -->
<svg version="1.1" id="Layer_1" xmlns="http://www.w3.org/2000/svg" xmlns:xlink="http://www.w3.org/1999/xlink" x="0px" y="0px"
	 viewBox="0 0 22 22" style="enable-background:new 0 0 22 22;" xml:space="preserve">
<path d="M20.1,0.7c0-0.4-0.3-0.7-0.7-0.7H4.1C2.9,0,2,1,2,2.1v16.4h0c0,0.1,0,0.3,0,0.4c0,1.7,1.4,3,3,3h14.4c0.4,0,0.7-0.3,0.7-0.7
	v-4.6c0-0.1,0-0.1,0-0.2h0L20.1,0.7L20.1,0.7z M14.4,1.5h2.1v4.8L16,5.7c-0.1-0.1-0.3-0.3-0.6-0.3s-0.4,0.1-0.6,0.3l-0.5,0.5V1.5z
	 M4.1,1.5H13v6.7c0,0.3,0.2,0.6,0.5,0.7c0.3,0.1,0.6,0,0.8-0.2l1.2-1.4l1.2,1.4c0.1,0.1,0.3,0.3,0.5,0.3c0.1,0,0.2,0,0.3,0
	C17.8,8.8,18,8.5,18,8.2V1.5h0.7v14.4H5c-0.6,0-1.1,0.2-1.6,0.4V2.1C3.4,1.8,3.7,1.5,4.1,1.5z M5,20.5c-0.9,0-1.6-0.7-1.6-1.6
	c0-0.9,0.7-1.6,1.6-1.6h13.6v0.8H6.2c-0.4,0-0.7,0.3-0.7,0.7c0,0.4,0.3,0.7,0.7,0.7h12.5v0.8H5z"/>
</svg>
