<?xml version="1.0" encoding="utf-8"?>
<!-- Generator: Adobe Illustrator 21.1.0, SVG Export Plug-In . SVG Version: 6.00 Build 0)  -->
<svg version="1.1" id="Layer_1" xmlns="http://www.w3.org/2000/svg" xmlns:xlink="http://www.w3.org/1999/xlink" x="0px" y="0px"
	 viewBox="0 0 24 24" style="enable-background:new 0 0 24 24;" xml:space="preserve">
<path d="M5,0c-1.6,0-3,1.3-3,3s1.3,3,3,3s3-1.3,3-3l0,0C8,1.4,6.7,0,5,0z M5,4.7c-1,0-1.7-0.8-1.7-1.7S4.1,1.2,5,1.2S6.8,2,6.8,3
	S6,4.7,5,4.7z M1.8,15.6l1,7.1C2.9,23.4,3.5,24,4.2,24h1.6c0.7,0,1.3-0.5,1.4-1.3l0.5-4.4l1-7.3l1.1,0.9c0.6,0.5,1.5,0.5,2.1,0
	l3.2-2.5c0.7-0.5,0.9-1.5,0.4-2.3C15,6.4,14,6.1,13.2,6.6c-0.1,0-0.1,0.1-0.2,0.1l-2.2,1.7L8.7,6.6C8.4,6.4,8,6.2,7.6,6.2h-1
	C6.4,6.2,6.2,6.3,6,6.5L5,7.7L4,6.5C3.9,6.3,3.7,6.2,3.5,6.2H2.7C1.2,6.2,0,7.4,0,8.9C0,9,0,9.1,0,9.2l0.6,4.5
	C0.7,14.5,1.2,15.2,1.8,15.6z M1.6,8c0.3-0.3,0.7-0.5,1.1-0.5h0.5l1.1,1.4C4.6,9.2,5.2,9.3,5.5,9c0.1,0,0.1-0.1,0.1-0.1l1.1-1.4h0.8
	c0.1,0,0.2,0,0.3,0.1l2.6,2.1c0.2,0.2,0.5,0.2,0.8,0l2.6-2c0.1-0.1,0.2-0.1,0.3-0.1c0.2,0,0.3,0.1,0.4,0.2c0.1,0.2,0.1,0.5-0.1,0.6
	L11.1,11c-0.2,0.1-0.4,0.1-0.6,0L8.6,9.4C8.3,9.2,7.9,9.2,7.7,9.5C7.7,9.6,7.6,9.7,7.6,9.8l-1.1,8.4L6,22.6c0,0.1-0.1,0.2-0.2,0.2
	H4.2c-0.1,0-0.2-0.1-0.2-0.2l-1-7.5c0-0.2-0.2-0.4-0.4-0.5c-0.4-0.2-0.7-0.5-0.8-1L1.2,9.1C1.2,8.7,1.3,8.3,1.6,8L1.6,8z M24,1.1
	v2.4c0,0.3-0.3,0.6-0.6,0.6h-1v11.3c0,0.3-0.3,0.6-0.6,0.6h-6.6v2.8l4.1,4.1c0.2,0.2,0.2,0.6,0,0.9c-0.2,0.2-0.6,0.2-0.9,0l0,0
	l-3.3-3.3v2.7c0,0.3-0.3,0.6-0.6,0.6c-0.3,0-0.6-0.3-0.6-0.6v-2.7l-3.3,3.3c-0.2,0.2-0.6,0.2-0.9,0c-0.2-0.2-0.2-0.6,0-0.9l0,0
	l4.1-4.1V16h-4c-0.3,0-0.6-0.3-0.6-0.6c0-0.3,0.3-0.6,0.6-0.6h11.3V4.1H9.8c-0.3,0-0.6-0.3-0.6-0.6s0.3-0.6,0.6-0.6h13V1.7H9.6
	C9.2,1.7,9,1.4,9,1s0.3-0.6,0.6-0.6h13.8C23.7,0.4,24,0.7,24,1.1C24,1.1,24,1.1,24,1.1L24,1.1z"/>
</svg>
