<?xml version="1.0" encoding="utf-8"?>
<!-- Generator: Adobe Illustrator 21.1.0, SVG Export Plug-In . SVG Version: 6.00 Build 0)  -->
<svg version="1.1" id="Layer_1" xmlns="http://www.w3.org/2000/svg" xmlns:xlink="http://www.w3.org/1999/xlink" x="0px" y="0px"
	 viewBox="0 0 24 24" style="enable-background:new 0 0 24 24;" xml:space="preserve">
<path d="M23.9,18.1C21.4,10.2,13.2,7.3,9.7,6.3v-3c0-0.1,0-0.2-0.1-0.3C9.5,3,9.4,2.9,9.3,2.9c0,0-0.1,0-0.1,0C9.1,2.9,9.1,3,9,3
	L0.2,9.9C0.1,9.9,0.1,10,0,10.1c0,0.1,0,0.2,0.1,0.3c0,0,0,0.1,0.1,0.1L9,17.4c0.2,0.1,0.4,0.1,0.6-0.1c0.1-0.1,0.1-0.2,0.1-0.2
	v-2.9c1.5-0.1,3.1,0,4.7,0.3c2.5,0.4,6,1.5,8.9,4c0.1,0.1,0.2,0.1,0.3,0.1c0.1,0,0.2,0,0.3-0.1C24,18.3,24,18.2,23.9,18.1z M9.2,7
	c3.1,0.8,10.5,3.3,13.5,10c-2.9-2-6-2.9-8.1-3.3c-1.7-0.3-3.2-0.4-4.2-0.4c-0.4,0-0.8,0-1,0l0,0c-0.2,0-0.4,0.2-0.4,0.4v2.5l-7.7-6
	l7.7-6.1v2.5C8.9,6.8,9,7,9.2,7z"/>
</svg>
