<?xml version="1.0" encoding="utf-8"?>
<!-- Generator: Adobe Illustrator 21.1.0, SVG Export Plug-In . SVG Version: 6.00 Build 0)  -->
<svg version="1.1" id="Layer_1" xmlns="http://www.w3.org/2000/svg" xmlns:xlink="http://www.w3.org/1999/xlink" x="0px" y="0px"
	 viewBox="0 0 24 24" style="enable-background:new 0 0 24 24;" xml:space="preserve">
<path d="M13.3,5.4c0.3,0,0.6,0.3,0.6,0.6s-0.3,0.6-0.6,0.6S12.7,6.4,12.7,6S12.9,5.4,13.3,5.4z M12,8c-0.8,0-1.5,0.6-1.5,1.3H9.6
	C9.6,8,10.7,7,12,7s2.4,1,2.4,2.2h-0.9C13.4,8.5,12.8,8,12,8z M16.5,7c0,2.5-2,4.5-4.5,4.5S7.5,9.5,7.5,7s2-4.5,4.5-4.5
	S16.5,4.5,16.5,7z M15.6,7c0-2-1.6-3.6-3.6-3.6S8.4,5,8.4,7c0,0.9,0.3,1.6,0.8,2.3c0.7,0.8,1.6,1.3,2.8,1.3c1.1,0,2-0.5,2.6-1.2
	C15.2,8.8,15.6,7.9,15.6,7z M11.3,6c0,0.3-0.3,0.6-0.6,0.6S10.1,6.4,10.1,6s0.3-0.6,0.6-0.6C11.1,5.4,11.3,5.7,11.3,6z M19.8,9.5
	V0.9H4.2v8.8l7.8,5L19.8,9.5z M23.5,7v17H0.5V7.3l2.8,1.8V0h17.6v8.9L23.5,7z M22.6,8.8l-1.7,1.2L12,15.9l-9-5.8L1.4,9v14.1h21.2
	L22.6,8.8L22.6,8.8z"/>
</svg>
