<?xml version="1.0" encoding="utf-8"?>
<!-- Generator: Adobe Illustrator 21.1.0, SVG Export Plug-In . SVG Version: 6.00 Build 0)  -->
<svg version="1.1" id="Layer_1" xmlns="http://www.w3.org/2000/svg" xmlns:xlink="http://www.w3.org/1999/xlink" x="0px" y="0px"
	 viewBox="0 0 24 24" style="enable-background:new 0 0 24 24;" xml:space="preserve">
<path d="M1.4,11.6v0.8H0v-0.8C0.2,5,5.8-0.2,12.4,0.1c3.3,0.1,6.2,1.5,8.4,3.8L20.9,4L21,0.4h1.5l-0.2,5.7l-0.7,0.6l-5.6-0.2V4.9
	l4,0.1l-0.2-0.2c-1.9-2.1-4.4-3.2-7.3-3.3c-0.1,0-0.3,0-0.4,0C6.3,1.5,1.7,5.9,1.4,11.6z M22.4,11.6v0.8c-0.1,2.8-1.3,5.4-3.3,7.3
	c-2,1.9-4.7,2.9-7.5,2.8c-2.9-0.1-5.4-1.3-7.3-3.3L4,18.9L8.1,19v-1.4l-5.6-0.2l-0.7,0.6l-0.2,5.7H3L3.1,20l0.1,0.1
	c2.2,2.4,5.1,3.7,8.4,3.8c0.1,0,0.3,0,0.4,0c3.1,0,5.9-1.1,8.2-3.2c2.3-2.2,3.7-5.1,3.8-8.3v-0.8H22.4z M11.1,20.6V16
	c-2-0.3-3.5-2.1-3.5-4.1V8.4c0-0.4,0.3-0.7,0.7-0.7h1V4c0-0.4,0.3-0.7,0.7-0.7c0.4,0,0.7,0.3,0.7,0.7v3.7h2.2V4
	c0-0.3,0.3-0.7,0.7-0.7c0.4,0,0.7,0.3,0.7,0.7v3.7h1c0.4,0,0.7,0.3,0.7,0.7v3.5c0,2.1-1.5,3.8-3.5,4.1v4.6c0,0.4-0.3,0.7-0.7,0.7
	C11.4,21.3,11.1,20.9,11.1,20.6z M11.7,14.6c1.6,0,2.8-1.3,2.8-2.8V9.1H9v2.8c0,0.7,0.2,1.3,0.7,1.8C10.2,14.3,11,14.6,11.7,14.6z"
	/>
</svg>
