<?xml version="1.0" encoding="utf-8"?>
<!-- Generator: Adobe Illustrator 21.1.0, SVG Export Plug-In . SVG Version: 6.00 Build 0)  -->
<svg version="1.1" id="Layer_1" xmlns="http://www.w3.org/2000/svg" xmlns:xlink="http://www.w3.org/1999/xlink" x="0px" y="0px"
	 viewBox="0 0 24 24" style="enable-background:new 0 0 24 24;" xml:space="preserve">
<path d="M1,12.5l-1,0L0,12C0,5.4,5.4,0,12,0c3.2,0,6.2,1.3,8.5,3.5L22,5l-0.7,0.7l-1.5-1.5C17.7,2.1,14.9,1,12,1C5.9,1,1,5.9,1,12
	L1,12.5z M12,24c-3.2,0-6.2-1.3-8.5-3.5l-1.4-1.4l0.7-0.7l1.4,1.4C6.3,21.9,9.1,23,12,23c6.1,0,11-4.9,11-11l0-0.5l1,0l0,0.5
	C24,18.6,18.6,24,12,24z M21.5,6L16,6l0-1l5,0l0-5l1,0l0,5.5L21.5,6z M3,24l-1,0l0-5.5L2.5,18L8,18l0,1l-5,0L3,24z"/>
</svg>
