<?xml version="1.0" encoding="utf-8"?>
<!-- Generator: Adobe Illustrator 21.1.0, SVG Export Plug-In . SVG Version: 6.00 Build 0)  -->
<svg version="1.1" id="Layer_1" xmlns="http://www.w3.org/2000/svg" xmlns:xlink="http://www.w3.org/1999/xlink" x="0px" y="0px"
	 viewBox="0 0 24 24" style="enable-background:new 0 0 24 24;" xml:space="preserve">
<path d="M1.5,12v0.7H0V12C0,5.4,5.4,0,12,0c3.1,0,6.1,1.2,8.5,3.5l0.1,0.1V0H22v5l0.1,0.1L22,5.2v0.5l-0.6,0.6h-5.7V4.9h4.2
	l-0.4-0.4c-2-2-4.6-3.1-7.5-3.1C6.2,1.5,1.5,6.2,1.5,12z M22.5,11.3V12c0,5.8-4.7,10.5-10.5,10.5c-2.8,0-5.5-1.1-7.5-3.1l-0.4-0.4
	h4.2v-1.5H2.6L2,18.3V24h1.5v-3.6l0.1,0.1C5.9,22.8,8.9,24,12,24c6.6,0,12-5.4,12-12v-0.7H22.5z"/>
</svg>
