<?xml version="1.0" encoding="utf-8"?>
<!-- Generator: Adobe Illustrator 21.1.0, SVG Export Plug-In . SVG Version: 6.00 Build 0)  -->
<svg version="1.1" id="Layer_1" xmlns="http://www.w3.org/2000/svg" xmlns:xlink="http://www.w3.org/1999/xlink" x="0px" y="0px"
	 viewBox="0 0 24 24" style="enable-background:new 0 0 24 24;" xml:space="preserve">
<path d="M1,11.6l0,0.5l-1,0l0-0.5C0.3,5,5.8-0.2,12.4,0c3.2,0.1,6.2,1.5,8.3,3.8l0.5,0.5l0.1-4l1,0l-0.2,5.5l-0.5,0.5l-5.5-0.2l0-1
	l4.6,0.2L20,4.5c-2-2.2-4.7-3.4-7.7-3.5C6.3,0.8,1.2,5.6,1,11.6z M23,11.9l0,0.5c-0.2,6.1-5.3,10.8-11.4,10.6
	C8.7,22.9,6,21.6,4,19.5l-0.8-0.8l4.6,0.2l0-1l-5.5-0.2l-0.5,0.5l-0.2,5.5l1,0l0.1-4l0.5,0.5c2.2,2.3,5.1,3.7,8.3,3.8
	c6.6,0.2,12.2-5,12.4-11.6l0-0.5L23,11.9z M10.6,10.3C9.5,9.8,8.7,8.7,8.7,7.4c0-1.7,1.4-3.1,3.1-3.1c1.7,0,3.1,1.4,3.1,3.1
	c0,1.3-0.8,2.4-1.9,2.9c2.7,0.5,4.7,2.9,4.7,5.6v0.7c0,0.1-0.1,0.2-0.2,0.2H6.1c-0.1,0-0.2-0.1-0.2-0.2v-0.7
	C5.9,13.2,8,10.8,10.6,10.3z M11.8,10c1.4,0,2.6-1.2,2.6-2.6s-1.2-2.6-2.6-2.6S9.2,5.9,9.2,7.4S10.4,10,11.8,10z M6.4,15.8v0.5h10.9
	v-0.5c0-2.8-2.5-5.2-5.5-5.2S6.4,13,6.4,15.8z"/>
</svg>
