<?xml version="1.0" encoding="UTF-8"?>
<svg xmlns="http://www.w3.org/2000/svg" xmlns:xlink="http://www.w3.org/1999/xlink" width="24pt" height="24pt" viewBox="0 0 24 24" version="1.1">
<g id="surface1">
<path style=" stroke:none;fill-rule:nonzero;fill:rgb(0%,0%,0%);fill-opacity:1;" d="M 24 13.855469 L 24 19.308594 C 24 20.835938 22.800781 22.035156 21.273438 22.035156 L 2.726562 22.035156 C 1.199219 22.035156 0 20.726562 0 19.308594 L 0 13.855469 C 0 13.417969 0.328125 13.089844 0.761719 13.089844 C 1.199219 13.089844 1.527344 13.417969 1.527344 13.855469 L 1.527344 19.308594 C 1.527344 19.964844 2.074219 20.507812 2.726562 20.507812 L 21.273438 20.507812 C 21.925781 20.507812 22.472656 19.964844 22.472656 19.308594 L 22.472656 13.855469 C 22.472656 13.417969 22.800781 13.089844 23.238281 13.089844 C 23.671875 13.089844 24 13.417969 24 13.855469 Z M 13.417969 2.617188 C 12.980469 2.183594 12.546875 1.964844 12 1.964844 C 11.453125 1.964844 11.019531 2.183594 10.582031 2.507812 L 7.089844 6 C 6.761719 6.328125 6.761719 6.761719 7.089844 6.980469 C 7.417969 7.308594 7.855469 7.308594 8.074219 6.980469 L 11.128906 3.925781 L 11.128906 15.925781 C 11.128906 16.363281 11.453125 16.691406 11.890625 16.691406 C 12.328125 16.691406 12.65625 16.363281 12.65625 15.925781 L 12.65625 3.925781 L 15.710938 6.980469 C 16.035156 7.308594 16.472656 7.308594 16.691406 6.980469 C 17.019531 6.65625 17.019531 6.21875 16.691406 6 Z M 13.417969 2.617188 "/>
</g>
</svg>
