<?xml version="1.0" encoding="utf-8"?>
<!-- Generator: Adobe Illustrator 21.1.0, SVG Export Plug-In . SVG Version: 6.00 Build 0)  -->
<svg version="1.1" id="Layer_1" xmlns="http://www.w3.org/2000/svg" xmlns:xlink="http://www.w3.org/1999/xlink" x="0px" y="0px"
	 viewBox="0 0 24 24" style="enable-background:new 0 0 24 24;" xml:space="preserve">
<path d="M7.1,7c-0.3-0.2-0.3-0.7,0-1l3.5-3.5C11,2.2,11.5,2,12,2s1,0.2,1.4,0.7L16.7,6c0.3,0.2,0.3,0.7,0,1c-0.2,0.3-0.7,0.3-1,0
	l-3.1-3.1v12c0,0.4-0.3,0.8-0.8,0.8s-0.8-0.3-0.8-0.8v-12L8.1,7C7.9,7.3,7.4,7.3,7.1,7z M23.2,13.1c-0.4,0-0.8,0.3-0.8,0.8v5.5
	c0,0.7-0.5,1.2-1.2,1.2H2.7c-0.7,0-1.2-0.5-1.2-1.2v-5.5c0-0.4-0.3-0.8-0.8-0.8c-0.4,0-0.8,0.3-0.8,0.8v5.5C0,20.7,1.2,22,2.7,22
	h18.5c1.5,0,2.7-1.2,2.7-2.7v-5.5C24,13.4,23.7,13.1,23.2,13.1z"/>
</svg>
