<?xml version="1.0" encoding="utf-8"?>
<!-- Generator: Adobe Illustrator 21.1.0, SVG Export Plug-In . SVG Version: 6.00 Build 0)  -->
<svg version="1.1" id="Layer_1" xmlns="http://www.w3.org/2000/svg" xmlns:xlink="http://www.w3.org/1999/xlink" x="0px" y="0px"
	 viewBox="0 0 22 22" style="enable-background:new 0 0 22 22;" xml:space="preserve">
<path d="M20.7,7.8v11.9c0,1.3-1.1,2.3-2.4,2.3H3.7c-1.3,0-2.4-1-2.4-2.3V7.8c0-1.3,1.1-2.3,2.4-2.3h4.5v1.3H3.7
	c-0.6,0-1.1,0.5-1.1,1v11.9c0,0.6,0.5,1,1.1,1h14.6c0.6,0,1.1-0.5,1.1-1V7.8c0-0.6-0.5-1-1.1-1h-4.5V5.4h4.5
	C19.6,5.4,20.7,6.5,20.7,7.8z M10.4,2.1v12l1.3-0.1v-12l2.1,2l0.9-1l-3.2-3c-0.3-0.3-0.7-0.3-0.9,0l-3.2,3l0.9,1L10.4,2.1z"/>
</svg>
