<?xml version="1.0" encoding="utf-8"?>
<!-- Generator: Adobe Illustrator 21.1.0, SVG Export Plug-In . SVG Version: 6.00 Build 0)  -->
<svg version="1.1" id="Layer_1" xmlns="http://www.w3.org/2000/svg" xmlns:xlink="http://www.w3.org/1999/xlink" x="0px" y="0px"
	 viewBox="0 0 24 24" style="enable-background:new 0 0 24 24;" xml:space="preserve">
<path d="M23.8,17.1L23.8,17.1c-0.8-1.6-2.1-2.6-3.6-2.9l-1-0.3L20,13c0.9-1,1.3-2.4,1.2-3.7l-0.1-1.4C20.9,6.4,20,5,18.9,4.3
	c-0.9-0.5-1.8-0.8-2.6-0.8c-0.6,0-1.7,0.1-2.7,0.8c-1,0.7-1.8,1.9-2,3.3l-0.2,1.5c-0.2,1.6,0.2,3,1.1,3.9l0.7,0.9L12.9,14
	c-0.7-0.8-1.5-1.3-2.3-1.4l-0.9-0.3l0.4-0.7c0.8-0.9,1.1-2,1-3.2L11,7.3C10.7,5.9,10,4.8,9,4.1C7.5,3.3,5.8,3.4,4.5,4.2
	C3.6,4.7,3,5.7,2.8,6.9L2.6,8.1c-0.2,1.3,0.1,2.5,0.9,3.3l0.6,0.8l-0.8,0.3C2,12.9,1,13.8,0.2,15c-0.4,0.7-0.2,1.4,0.1,1.9
	c0.4,0.6,1,1,1.7,1h6c-0.1,0.5,0,1.1,0.3,1.6c0.5,0.7,1.2,1.1,2,1.1h11.2c0.7,0,1.5-0.4,2-1.1C24.1,18.8,24.1,17.9,23.8,17.1z
	 M4.9,13.1c0.5-0.1,0.9-0.7,0.7-1.3l0-0.1l0,0c0,0,0,0,0,0c0,0,0,0,0,0v-0.1l-1-1C4,9.9,3.7,9,3.8,8.3L4,7c0.1-0.6,0.4-1.4,1.2-1.9
	c0.4-0.3,1-0.4,1.7-0.4c0.5,0,1.1,0.2,1.5,0.5c0.7,0.3,1.1,1,1.2,1.9l0.1,1.2C9.9,9.2,9.6,10,9,10.6l-0.9,1C8.1,11.7,8,11.7,8,11.8
	c-0.1,0.7,0.1,1.2,0.7,1.5l1.2,0.4c0.6,0.2,1,0.4,1.3,0.7c-1.1,0.4-2.1,1.1-2.8,2.2l-6.4,0c-0.3,0-0.6-0.2-0.7-0.5
	c-0.1-0.2-0.1-0.4,0-0.7c0.5-0.9,1.3-1.6,2.3-1.9L4.9,13.1z M14.5,13.6L14.5,13.6l-0.1-0.1c0,0,0,0,0-0.2v-0.1l-1.1-1.2
	c-0.7-0.8-1-1.8-0.8-2.8l0.2-1.5c0.1-0.8,0.6-1.8,1.5-2.3c0.6-0.4,1.3-0.6,2-0.6c0.6,0,1.3,0.2,1.8,0.6c0.8,0.5,1.4,1.5,1.5,2.5
	l0.1,1.4c0.1,1-0.2,2-0.8,2.7l-1.1,1.2c-0.2,0.2-0.2,0.2-0.2,0.4c-0.1,0.3,0,0.7,0.2,1c0.2,0.3,0.4,0.4,0.6,0.5l1.4,0.4
	c1.4,0.5,2.3,1.2,2.7,2.3c0.2,0.3,0.2,0.7,0,1c-0.2,0.3-0.5,0.4-0.8,0.4l-11.3,0c-0.4,0-0.7-0.3-0.9-0.6c-0.2-0.3-0.2-0.7,0-0.9
	c0.6-1,1.7-1.8,2.9-2.2l1.4-0.4C14.3,14.9,14.6,14.3,14.5,13.6z"/>
</svg>
