<?xml version="1.0" encoding="utf-8"?>
<!-- Generator: Adobe Illustrator 21.1.0, SVG Export Plug-In . SVG Version: 6.00 Build 0)  -->
<svg version="1.1" id="Layer_1" xmlns="http://www.w3.org/2000/svg" xmlns:xlink="http://www.w3.org/1999/xlink" x="0px" y="0px"
	 viewBox="0 0 24 24" style="enable-background:new 0 0 24 24;" xml:space="preserve">
<path d="M17.3,11c0,0.2-0.2,0.4-0.4,0.4h-5.6c-0.2,0-0.4-0.2-0.4-0.4c0-0.2,0.2-0.4,0.4-0.4h5.6C17.1,10.6,17.3,10.8,17.3,11z
	 M17.5,7.1h-6.9V4.2h6.9V7.1z M16.6,6.2v-1h-4.9v1H16.6z M21.7,22.6c0,0.8-0.6,1.4-1.4,1.4h-17v-2.4c-0.6-0.2-1-0.6-1-1
	c0-0.6,0.5-0.8,1-1v-0.5c-0.5-0.2-1-0.4-1-1c0-0.6,0.5-0.8,1-1v-0.5c-0.6-0.2-1-0.6-1-1c0-0.6,0.5-0.8,1-1v-0.5c-0.6-0.2-1-0.6-1-1
	c0-0.6,0.5-0.8,1-1v-0.5c-0.6-0.2-1-0.6-1-1c0-0.6,0.5-0.8,1-1V9.5c-0.6-0.2-1-0.6-1-1c0-0.3,0.3-0.8,1-0.9V7.1c-0.6-0.2-1-0.6-1-1
	c0-0.6,0.5-0.8,1-1V4.7c-0.6-0.2-1-0.6-1-1s0.4-0.8,1-1V0h16.9c0.8,0,1.4,0.6,1.5,1.4L21.7,22.6z M6.6,20.3
	c-0.2-0.1-0.4-0.1-0.8-0.1v2.5h14.4c0.1,0,0.1-0.1,0.1-0.1V1.4c0-0.1-0.1-0.1-0.1-0.1H5.9v1.3c0.2,0,0.4,0,0.5,0c0.2,0,0.4,0,0.6,0
	l0.1,0c0.7,0.2,1,0.6,1,1c0,0.6-0.5,0.8-1,1L7,4.7H6.9c-0.4,0-0.5-0.2-0.5-0.4c0-0.2,0.1-0.4,0.3-0.6l0,0C6.5,3.6,6.2,3.6,5.9,3.5
	v1.4c0.4,0,0.7,0.1,1.2,0.2c0.7,0.2,1.1,0.6,1.1,1C8.1,6.5,7.8,6.9,7,7l-0.1,0c-0.4,0-0.5-0.2-0.5-0.4c0-0.2,0.1-0.5,0.4-0.5
	c0,0,0,0,0,0c0,0,0,0,0,0C6.4,6,6.2,5.9,5.9,5.9v1.4c0.4,0,0.7,0.1,1.2,0.2c0.7,0.2,1.1,0.6,1.1,1c0,0.3-0.3,0.7-0.7,0.9
	c0.5,0.2,0.7,0.5,0.7,0.9c0,0.6-0.5,0.8-1,1l-0.1,0H6.9c-0.4,0-0.5-0.2-0.5-0.4c0-0.1,0.1-0.4,0.3-0.5c-0.3-0.1-0.5-0.1-0.8-0.1v1.4
	c0.4,0,0.7,0.1,1.2,0.2c0.7,0.2,1.1,0.6,1.1,1c0,0.6-0.5,0.8-1,1l-0.1,0H6.9c-0.4,0-0.5-0.2-0.5-0.4c0-0.1,0.1-0.4,0.3-0.5
	c-0.3-0.1-0.5-0.1-0.8-0.1v1.4c0.4,0,0.7,0.1,1.2,0.2c0.7,0.2,1.1,0.6,1.1,1c0,0.6-0.5,0.8-1,1l-0.1,0H6.9c-0.4,0-0.5-0.2-0.5-0.4
	c0-0.1,0.1-0.4,0.3-0.5c-0.2-0.1-0.4-0.1-0.8-0.1v1.4c0.4,0,0.7,0.1,1.2,0.2c0.5,0.2,1.1,0.4,1.1,1c0,0.6-0.5,0.8-1,1l-0.1,0H6.9
	c-0.4,0-0.5-0.2-0.5-0.4c0-0.2,0.1-0.5,0.4-0.5c0,0,0.1,0,0.1,0l-0.1-0.1c-0.3-0.1-0.5-0.1-0.8-0.2V19c0.4,0,0.7,0.1,1.2,0.2
	c0.7,0.2,1.1,0.6,1.1,1c0,0.6-0.5,0.8-1,1l-0.1,0H6.9c-0.4,0-0.5-0.2-0.5-0.4C6.4,20.7,6.5,20.4,6.6,20.3z M6.6,8.5
	C6.4,8.4,6.1,8.4,5.9,8.3v1.3c0.3,0,0.6,0,0.8-0.2C6.5,9.4,6.4,9.2,6.4,9.1C6.4,8.8,6.5,8.6,6.6,8.5L6.6,8.5z M9.7,8.8h8.7
	c0.3,0,0.5-0.2,0.5-0.5c0-0.3-0.3-0.5-0.5-0.5H9.7c-0.3,0-0.5,0.2-0.5,0.5S9.4,8.8,9.7,8.8z M9.7,10.4h8.7c0.3,0,0.5-0.2,0.5-0.5
	c0-0.3-0.3-0.5-0.5-0.5H9.7c-0.3,0-0.5,0.2-0.5,0.5S9.4,10.4,9.7,10.4z"/>
</svg>
