<?xml version="1.0" encoding="utf-8"?>
<!-- Generator: Adobe Illustrator 21.1.0, SVG Export Plug-In . SVG Version: 6.00 Build 0)  -->
<svg version="1.1" id="Layer_1" xmlns="http://www.w3.org/2000/svg" xmlns:xlink="http://www.w3.org/1999/xlink" x="0px" y="0px"
	 viewBox="0 0 24 24" style="enable-background:new 0 0 24 24;" xml:space="preserve">
<path d="M23,19.5c-1.2-2.1-3-3.5-5-4.1l-1.9-0.6l1.4-1.5c1.3-1.4,1.9-3.2,1.7-5.2l-0.2-2.1c-0.3-2.2-1.5-4-3.2-5.1
	C14.5,0.4,13.3,0,12.1,0c-1.4,0-2.7,0.4-3.7,1.1C6.9,2.2,5.9,3.8,5.5,5.6L5.2,7.8c-0.3,2.1,0.2,4.1,1.5,5.5L8,14.7l-1.9,0.6
	c-2.1,0.6-3.9,2.1-5,4.2c-0.5,0.9-0.5,2.1,0.1,3C1.8,23.5,2.8,24,3.9,24h16.3c1.1,0,2.1-0.5,2.7-1.5C23.4,21.7,23.5,20.5,23,19.5z
	 M21.6,21.9c-0.3,0.5-0.8,0.8-1.4,0.8l-16.3,0c-0.6-0.1-1.2-0.5-1.5-1.1c-0.2-0.5-0.2-1,0-1.5l0,0c0.9-1.6,2.4-2.9,4.1-3.4l2-0.6
	c0.8-0.2,1.2-1,1-1.9l0,0l0,0c0,0-0.1-0.1-0.1-0.2c0-0.1-0.1-0.2-0.1-0.3L8,12.1C7,11,6.5,9.4,6.7,7.9L7,5.8
	c0.2-1.1,0.9-2.6,2.2-3.4C10,1.8,11,1.5,12.2,1.5c0.9,0,1.9,0.3,2.7,0.8c1.2,0.7,2.1,2.1,2.3,3.7l0.2,2.1c0.2,1.4-0.3,2.9-1.3,4
	l-1.5,1.7c-0.1,0.1-0.2,0.2-0.3,0.5c-0.1,0.4-0.1,0.8,0.1,1.2c0.2,0.3,0.5,0.6,0.8,0.7l2.1,0.7c1.8,0.5,3.3,1.7,4.1,3.4
	C21.9,20.8,21.9,21.4,21.6,21.9z"/>
</svg>
