<?xml version="1.0" encoding="UTF-8"?>
<svg xmlns="http://www.w3.org/2000/svg" xmlns:xlink="http://www.w3.org/1999/xlink" width="24pt" height="24pt" viewBox="0 0 24 24" version="1.1">
<g id="surface1">
<path style=" stroke:none;fill-rule:nonzero;fill:rgb(0%,0%,0%);fill-opacity:1;" d="M 23.78125 17.34375 C 23.019531 15.925781 21.816406 14.835938 20.289062 14.507812 L 18.871094 14.074219 L 19.964844 12.871094 C 20.835938 11.890625 21.273438 10.582031 21.164062 9.273438 L 21.054688 7.855469 C 20.835938 6.328125 19.964844 5.019531 18.871094 4.363281 C 18.109375 3.925781 17.238281 3.601562 16.363281 3.601562 C 15.492188 3.601562 14.507812 3.816406 13.746094 4.363281 C 12.65625 5.128906 12 6.328125 11.78125 7.527344 L 11.5625 9.054688 C 11.34375 10.472656 11.671875 11.890625 12.65625 12.871094 L 13.636719 14.074219 L 12.871094 14.289062 C 12.21875 13.527344 11.453125 12.980469 10.472656 12.761719 L 9.273438 12.328125 L 9.816406 11.34375 C 10.582031 10.472656 10.910156 9.382812 10.800781 8.289062 L 10.691406 7.199219 C 10.472656 5.890625 9.816406 4.800781 8.835938 4.144531 C 8.183594 3.816406 7.417969 3.601562 6.65625 3.601562 C 5.890625 3.601562 5.128906 3.816406 4.472656 4.253906 C 3.601562 4.800781 3.054688 5.78125 2.835938 6.871094 L 2.617188 8.074219 C 2.398438 9.273438 2.726562 10.472656 3.492188 11.238281 L 4.363281 12.328125 L 3.164062 12.761719 C 1.855469 13.199219 0.871094 14.074219 0.21875 15.164062 C -0.109375 15.710938 0 16.363281 0.328125 16.800781 C 0.65625 17.34375 1.199219 17.671875 1.855469 17.671875 L 8.289062 17.671875 C 8.074219 18.328125 8.183594 18.871094 8.507812 19.417969 C 8.945312 20.074219 9.601562 20.398438 10.363281 20.398438 L 21.816406 20.398438 C 22.582031 20.398438 23.238281 19.964844 23.671875 19.417969 C 24.109375 18.871094 24.109375 18 23.78125 17.34375 Z M 12.21875 14.398438 L 12.109375 14.398438 C 12.109375 14.398438 12.109375 14.398438 12.21875 14.398438 Z M 8.507812 17.019531 L 1.855469 17.019531 C 1.089844 16.910156 0.546875 16.144531 0.980469 15.382812 C 1.527344 14.398438 2.398438 13.636719 3.492188 13.308594 L 4.691406 12.871094 C 5.128906 12.761719 5.34375 12.328125 5.238281 11.890625 C 5.128906 11.78125 5.128906 11.671875 5.128906 11.671875 L 4.144531 10.691406 C 3.601562 10.035156 3.273438 9.054688 3.382812 8.183594 L 3.601562 6.871094 C 3.710938 6.109375 4.144531 5.238281 4.910156 4.800781 C 5.453125 4.472656 6.109375 4.363281 6.761719 4.363281 C 7.308594 4.363281 7.964844 4.582031 8.398438 4.910156 C 9.164062 5.238281 9.710938 6.109375 9.816406 7.089844 L 9.925781 8.289062 C 10.144531 9.164062 9.816406 10.144531 9.164062 10.691406 L 8.289062 11.671875 C 8.183594 11.78125 8.183594 11.78125 8.183594 11.890625 C 8.074219 12.4375 8.183594 12.871094 8.726562 13.089844 L 9.925781 13.527344 C 10.582031 13.746094 11.238281 14.074219 11.671875 14.617188 C 10.363281 14.945312 9.273438 15.816406 8.507812 17.019531 Z M 21.816406 19.636719 L 10.253906 19.636719 C 9.382812 19.527344 8.726562 18.546875 9.164062 17.671875 C 9.816406 16.582031 10.910156 15.710938 12.21875 15.273438 L 13.636719 14.835938 C 14.183594 14.726562 14.398438 14.183594 14.289062 13.636719 C 14.183594 13.527344 14.183594 13.417969 14.183594 13.308594 L 13.089844 12.109375 C 12.328125 11.238281 12 10.144531 12.21875 9.054688 L 12.4375 7.527344 C 12.546875 6.65625 13.089844 5.5625 14.074219 5.019531 C 14.726562 4.582031 15.492188 4.363281 16.253906 4.363281 C 16.910156 4.363281 17.671875 4.582031 18.21875 5.019531 C 19.089844 5.5625 19.746094 6.546875 19.855469 7.746094 L 19.964844 9.164062 C 20.074219 10.253906 19.746094 11.34375 19.089844 12.109375 L 18 13.308594 C 17.890625 13.417969 17.890625 13.417969 17.890625 13.636719 C 17.78125 14.074219 18 14.726562 18.546875 14.835938 L 19.964844 15.273438 C 21.273438 15.710938 22.363281 16.472656 22.910156 17.78125 C 23.34375 18.65625 22.800781 19.636719 21.816406 19.636719 Z M 21.816406 19.636719 "/>
</g>
</svg>
