<?xml version="1.0" encoding="utf-8"?>
<!-- Generator: Adobe Illustrator 21.1.0, SVG Export Plug-In . SVG Version: 6.00 Build 0)  -->
<svg version="1.1" id="Layer_1" xmlns="http://www.w3.org/2000/svg" xmlns:xlink="http://www.w3.org/1999/xlink" x="0px" y="0px"
	 viewBox="0 0 24 24" style="enable-background:new 0 0 24 24;" xml:space="preserve">
<path d="M17.4,4.3h-6.5v2.4h6.5V4.3z M16.9,6.3h-5.5V4.8h5.5V6.3z M18.6,7.9H9.7C9.5,7.9,9.4,8,9.4,8.2s0.1,0.3,0.3,0.3h8.9
	c0.2,0,0.3-0.1,0.3-0.3S18.7,7.9,18.6,7.9z M18.6,9.5H9.7c-0.2,0-0.3,0.1-0.3,0.3s0.1,0.3,0.3,0.3h8.9c0.2,0,0.3-0.1,0.3-0.3
	S18.7,9.5,18.6,9.5z M17,10.8h-5.7c-0.1,0-0.2,0.1-0.2,0.2s0.1,0.2,0.2,0.2H17c0.1,0,0.2-0.1,0.2-0.2S17.1,10.8,17,10.8z M20.4,0
	H3.4v2.7c0,0-0.1,0-0.1,0C2.7,2.9,2.4,3.2,2.4,3.5c0,0.3,0.3,0.6,0.9,0.8c0,0,0.1,0,0.1,0v0.9c0,0-0.1,0-0.1,0
	C2.7,5.4,2.4,5.6,2.4,6c0,0.3,0.3,0.6,0.9,0.8c0,0,0.1,0,0.1,0v0.9c0,0-0.1,0-0.1,0C2.7,7.8,2.4,8.1,2.4,8.4c0,0.3,0.3,0.6,0.9,0.8
	c0,0,0.1,0,0.1,0V10c0,0-0.1,0-0.1,0c-0.6,0.2-0.9,0.4-0.9,0.8c0,0.3,0.3,0.6,0.9,0.8c0,0,0.1,0,0.1,0v0.9c0,0-0.1,0-0.1,0
	c-0.6,0.2-0.9,0.4-0.9,0.8c0,0.3,0.3,0.6,0.9,0.8c0,0,0.1,0,0.1,0v0.9c0,0-0.1,0-0.1,0c-0.6,0.2-0.9,0.4-0.9,0.8
	c0,0.3,0.3,0.6,0.9,0.8c0,0,0.1,0,0.1,0v0.9c0,0-0.1,0-0.1,0c-0.6,0.2-0.9,0.4-0.9,0.8s0.3,0.6,0.9,0.8c0,0,0.1,0,0.1,0v0.9
	c0,0-0.1,0-0.1,0c-0.6,0.2-0.9,0.4-0.9,0.8c0,0.3,0.3,0.6,0.9,0.8c0,0,0.1,0,0.1,0V24h17.1c0.7,0,1.2-0.5,1.2-1.2V1.2
	C21.6,0.5,21.1,0,20.4,0z M3.4,20.7c-0.3-0.1-0.4-0.2-0.4-0.2c0,0,0.1-0.1,0.4-0.2V20.7z M3.4,18.3c-0.3-0.1-0.4-0.2-0.4-0.2
	c0,0,0.1-0.1,0.4-0.2V18.3z M3.4,15.9c-0.3-0.1-0.4-0.2-0.4-0.2c0,0,0.1-0.1,0.4-0.2V15.9z M3.4,13.4c-0.3-0.1-0.4-0.2-0.4-0.2
	c0,0,0.1-0.1,0.4-0.2V13.4z M3.4,11c-0.3-0.1-0.4-0.2-0.4-0.2c0,0,0.1-0.1,0.4-0.2V11z M3.4,8.6C3.1,8.5,3,8.4,2.9,8.4
	c0,0,0.1-0.1,0.4-0.2V8.6z M3.4,6.2C3.1,6.1,3,6,2.9,6c0,0,0.1-0.1,0.4-0.2V6.2z M3.4,3.8C3.1,3.7,3,3.6,2.9,3.5
	c0,0,0.1-0.1,0.4-0.2V3.8z M20.8,22.8c0,0.2-0.2,0.4-0.4,0.4H5.5v-3.1c0.5,0,0.9,0.1,1.2,0.2c0.3,0.1,0.5,0.2,0.5,0.2
	c0,0-0.2,0.1-0.5,0.2c-0.1,0-0.2,0.2-0.2,0.3c0,0.1,0.1,0.2,0.3,0.2c0,0,0.1,0,0.1,0c0.6-0.2,0.9-0.4,0.9-0.8c0-0.3-0.3-0.6-0.9-0.8
	c-0.4-0.1-0.9-0.2-1.4-0.2v-1.9c0.5,0,0.9,0.1,1.2,0.2C7,17.9,7.2,18,7.2,18.1c0,0-0.2,0.1-0.5,0.2c-0.1,0-0.2,0.2-0.2,0.3
	c0,0.1,0.1,0.2,0.3,0.2c0,0,0.1,0,0.1,0c0.6-0.2,0.9-0.4,0.9-0.8s-0.3-0.6-0.9-0.8c-0.4-0.1-0.9-0.2-1.4-0.2v-1.9
	c0.5,0,0.9,0.1,1.2,0.2c0.3,0.1,0.5,0.2,0.5,0.2c0,0-0.2,0.1-0.5,0.2c-0.1,0-0.2,0.2-0.2,0.3c0,0.1,0.1,0.2,0.3,0.2c0,0,0.1,0,0.1,0
	c0.6-0.2,0.9-0.4,0.9-0.8c0-0.3-0.3-0.6-0.9-0.8c-0.4-0.1-0.9-0.2-1.4-0.2v-1.9c0.5,0,0.9,0.1,1.2,0.2c0.3,0.1,0.5,0.2,0.5,0.2
	c0,0-0.2,0.1-0.5,0.2c-0.1,0-0.2,0.2-0.2,0.3c0,0.1,0.1,0.2,0.3,0.2c0,0,0.1,0,0.1,0c0.6-0.2,0.9-0.4,0.9-0.8c0-0.3-0.3-0.6-0.9-0.8
	c-0.4-0.1-0.9-0.2-1.4-0.2v-1.9c0.5,0,0.9,0.1,1.2,0.2c0.3,0.1,0.5,0.2,0.5,0.2c0,0-0.2,0.1-0.5,0.2c-0.1,0-0.2,0.2-0.2,0.3
	c0,0.1,0.1,0.2,0.3,0.2c0,0,0.1,0,0.1,0c0.6-0.2,0.9-0.4,0.9-0.8c0-0.3-0.3-0.6-0.9-0.8C6.5,9.9,6,9.9,5.5,9.8V8
	c0.5,0,0.9,0.1,1.2,0.2C7,8.2,7.2,8.3,7.2,8.4c0,0-0.2,0.1-0.5,0.2C6.6,8.7,6.5,8.8,6.5,9c0,0.1,0.1,0.2,0.3,0.2c0,0,0.1,0,0.1,0
	C7.5,9,7.8,8.7,7.8,8.4c0-0.3-0.3-0.6-0.9-0.8C6.5,7.5,6,7.4,5.5,7.4V5.5c0.5,0,0.9,0.1,1.2,0.2C7,5.8,7.2,5.9,7.2,6
	c0,0-0.2,0.1-0.5,0.2c-0.1,0-0.2,0.2-0.2,0.3c0,0.1,0.1,0.2,0.3,0.2c0,0,0.1,0,0.1,0C7.5,6.6,7.8,6.3,7.8,6c0-0.3-0.3-0.6-0.9-0.8
	C6.5,5.1,6,5,5.5,5V3.1c0.5,0,0.9,0.1,1.2,0.2C7,3.4,7.2,3.5,7.2,3.5c0,0-0.2,0.1-0.5,0.2C6.6,3.8,6.5,4,6.5,4.1
	c0,0.1,0.1,0.2,0.3,0.2c0,0,0.1,0,0.1,0c0.6-0.2,0.9-0.4,0.9-0.8c0-0.3-0.3-0.6-0.9-0.8C6.5,2.7,6,2.6,5.5,2.6V0.8h14.9
	c0.2,0,0.4,0.2,0.4,0.4L20.8,22.8L20.8,22.8z"/>
</svg>
