<?xml version="1.0" encoding="UTF-8"?>
<svg xmlns="http://www.w3.org/2000/svg" xmlns:xlink="http://www.w3.org/1999/xlink" width="24pt" height="24pt" viewBox="0 0 24 24" version="1.1">
<g id="surface1">
<path style=" stroke:none;fill-rule:nonzero;fill:rgb(0%,0%,0%);fill-opacity:1;" d="M 3.816406 24 L 20.289062 24 C 21.382812 24 22.363281 23.453125 22.910156 22.582031 C 23.453125 21.710938 23.453125 20.507812 23.019531 19.636719 C 21.925781 17.671875 20.183594 16.144531 18 15.601562 L 15.925781 14.945312 L 17.453125 13.308594 C 18.761719 11.890625 19.308594 10.035156 19.089844 8.183594 L 18.871094 6.109375 C 18.546875 3.925781 17.34375 2.074219 15.710938 1.089844 C 14.617188 0.4375 13.417969 0 12.109375 0 C 10.800781 0 9.492188 0.328125 8.398438 1.089844 C 6.871094 2.183594 5.890625 3.816406 5.5625 5.5625 L 5.238281 7.746094 C 4.910156 9.816406 5.453125 11.78125 6.761719 13.199219 L 8.183594 14.835938 L 6.109375 15.492188 C 3.925781 16.144531 2.183594 17.671875 1.089844 19.636719 C 0.546875 20.617188 0.65625 21.710938 1.199219 22.582031 C 1.746094 23.453125 2.726562 24 3.816406 24 Z M 2.289062 20.183594 C 3.164062 18.546875 4.691406 17.238281 6.546875 16.691406 L 8.617188 16.035156 C 9.382812 15.816406 9.710938 15.054688 9.492188 14.289062 C 9.382812 14.183594 9.382812 13.964844 9.273438 13.855469 L 7.855469 12.21875 C 6.761719 11.019531 6.328125 9.382812 6.546875 7.855469 L 6.871094 5.671875 C 7.089844 4.363281 7.855469 2.945312 9.164062 2.183594 C 10.035156 1.527344 11.128906 1.308594 12.21875 1.308594 C 13.199219 1.308594 14.183594 1.636719 15.054688 2.183594 C 16.363281 2.945312 17.238281 4.363281 17.453125 6 L 17.671875 8.074219 C 17.890625 9.601562 17.34375 11.128906 16.363281 12.21875 L 14.835938 13.964844 C 14.726562 14.074219 14.617188 14.183594 14.617188 14.398438 C 14.398438 15.054688 14.726562 15.925781 15.492188 16.144531 L 17.5625 16.800781 C 19.417969 17.34375 20.945312 18.546875 21.816406 20.289062 C 22.472656 21.492188 21.601562 22.910156 20.289062 22.910156 L 3.816406 22.910156 C 2.507812 22.691406 1.636719 21.382812 2.289062 20.183594 Z M 2.289062 20.183594 "/>
</g>
</svg>
