<?xml version="1.0" encoding="utf-8"?>
<!-- Generator: Adobe Illustrator 24.1.0, SVG Export Plug-In . SVG Version: 6.00 Build 0)  -->
<svg version="1.1" id="Layer_1" xmlns="http://www.w3.org/2000/svg" xmlns:xlink="http://www.w3.org/1999/xlink" x="0px" y="0px"
	 viewBox="0 0 20 21" style="enable-background:new 0 0 20 21;" xml:space="preserve">
<style type="text/css">
	.st0{fill-rule:evenodd;clip-rule:evenodd;}
</style>
<path id="Rectangle_5_copy" class="st0" d="M14,2.95c-1.03-0.1-2.05,0.23-2.82,0.91c-0.2,0.19-0.52,0.19-0.71-0.01
	c-0.19-0.2-0.19-0.52,0.01-0.71l0,0c0.96-0.87,2.23-1.3,3.52-1.2V0h5v5h-5V2.95z M15,4h3V1h-3V4z M9,7.5
	c0.14-1.41-0.36-2.8-1.36-3.8C6.88,3.13,5.94,2.87,5,2.95V5H0V0h5v1.95c1.17-0.09,2.34,0.26,3.27,0.97C9.52,4.1,10.15,5.79,10,7.5
	v1.2C9.65,8.86,9.32,9.05,9,9.27V7.5z M4,1H1v3h3V1z M5,15.05c0.33,0.01,0.67-0.01,1-0.06V15c0.01,0.34,0.04,0.67,0.1,1
	c-0.27,0.04-0.54,0.06-0.82,0.07c-0.1,0-0.2,0-0.28-0.01V18H0v-5h5C5,13,5,15.05,5,15.05z M4,14H1v3h3V14z M13.5,8
	c3.59,0,6.5,2.91,6.5,6.5S17.09,21,13.5,21S7,18.09,7,14.5l0,0C7,10.91,9.91,8,13.5,8z M13.5,20c3.04,0,5.5-2.46,5.5-5.5
	S16.54,9,13.5,9S8,11.46,8,14.5S10.46,20,13.5,20z M13,16.79V11h1v5.76l2.36-2.36l0.71,0.71L14,18h-1l-3.1-2.89l0.71-0.71L13,16.79z
	"/>
</svg>
