<?xml version="1.0" encoding="utf-8"?>
<!-- Generator: Adobe Illustrator 21.0.2, SVG Export Plug-In . SVG Version: 6.00 Build 0)  -->
<svg version="1.1" id="Layer_1" xmlns="http://www.w3.org/2000/svg" xmlns:xlink="http://www.w3.org/1999/xlink" x="0px" y="0px"
	 viewBox="0 0 16 16" style="enable-background:new 0 0 16 16;" xml:space="preserve">
<style type="text/css">
	.st0{enable-background:new    ;}
</style>
<title>icon_integrate_widgets</title>
<g>
	<g class="st0">
		<path d="M15.6,8.4c-1,0-1.2,0.6-1.2,1.1c0,0.4,0.1,0.8,0.1,1.2c0.1,0.4,0.1,0.8,0.1,1.2c0,1.4-0.9,2-2.1,2h-0.3V13h0.2
			c0.8,0,1.1-0.4,1.1-1.2c0-0.3-0.1-0.7-0.1-1c-0.1-0.3-0.1-0.7-0.1-1.1c0-0.9,0.4-1.4,1-1.6v0c-0.6-0.2-1-0.6-1-1.5
			c0-0.4,0.1-0.7,0.1-1.1c0-0.3,0.1-0.7,0.1-1c0-0.8-0.3-1.2-1.1-1.2h-0.3V2.4h0.3c1.2,0,2.1,0.6,2.1,1.9c0,0.4-0.1,0.8-0.1,1.2
			c-0.1,0.4-0.1,0.8-0.1,1.2c0,0.5,0.1,1.1,1.2,1.1V8.4z"/>
	</g>
	<g class="st0">
		<path d="M0.4,7.7c1,0,1.2-0.6,1.2-1.1c0-0.4-0.1-0.8-0.1-1.2C1.4,5.1,1.3,4.7,1.3,4.3c0-1.3,0.9-1.9,2.1-1.9h0.3v0.8H3.4
			c-0.8,0-1.1,0.5-1.1,1.2c0,0.3,0,0.7,0.1,1c0.1,0.4,0.1,0.7,0.1,1.1c0,0.9-0.4,1.4-1,1.5v0c0.6,0.2,1,0.6,1,1.6
			c0,0.4,0,0.7-0.1,1.1c-0.1,0.4-0.1,0.7-0.1,1c0,0.8,0.3,1.2,1.1,1.2h0.3v0.8H3.4c-1.2,0-2.1-0.5-2.1-2c0-0.4,0.1-0.8,0.1-1.2
			c0.1-0.4,0.1-0.8,0.1-1.2c0-0.4-0.1-1.1-1.2-1.1V7.7z"/>
	</g>
	<g>
		<path d="M4.9,12.2c0,0-0.1,0-0.2,0l0.1-1c0.1,0,0.1,0,0.2,0c1.4,0,2.5-1.4,2.5-3c0-1.7-1.1-3-2.5-3c-0.1,0-0.2,0-0.2,0l-0.1-1
			c0.1,0,0.2,0,0.3,0c0,0,0,0,0,0c1.9,0,3.4,1.8,3.4,4c0,2.2-1.6,4-3.5,4C4.9,12.2,4.9,12.2,4.9,12.2z"/>
	</g>
	<g>
		<path d="M11.2,12.2c-0.1,0-0.1,0-0.2,0c0,0,0,0,0,0c-1.9,0-3.5-1.8-3.5-4s1.6-4,3.5-4c0.1,0,0.2,0,0.3,0l-0.1,1
			c-0.1,0-0.1,0-0.2,0c-1.4,0-2.5,1.4-2.5,3c0,1.7,1.1,3,2.5,3c0.1,0,0.2,0,0.2,0l0.1,1C11.3,12.2,11.2,12.2,11.2,12.2z"/>
	</g>
</g>
</svg>
