<?xml version="1.0" encoding="utf-8"?>
<!-- Generator: Adobe Illustrator 21.1.0, SVG Export Plug-In . SVG Version: 6.00 Build 0)  -->
<svg version="1.1" id="Layer_1" xmlns="http://www.w3.org/2000/svg" xmlns:xlink="http://www.w3.org/1999/xlink" x="0px" y="0px"
	 viewBox="0 0 18 18" style="enable-background:new 0 0 18 18;" xml:space="preserve">
<path d="M13.5,5.4c0.1,1-0.6,1.5-1.8,1.3l-0.6-0.1l-0.3,0.3C10.7,7,10.3,7.5,10,8L9.4,8.8l0.3,1.1c0.5,1.8,0.6,2,1.1,2.3
	c0.3,0.1,0.7,0.2,1.3,0c0.6-0.1,0.6-0.1,0.5,0.5c-0.1,0.4-0.1,0.4-0.8,0.7c-0.8,0.3-1.6,0.4-2.2,0.3c-0.7-0.2-1.1-0.7-1.5-2.3
	C8.1,11.1,8,10.9,8,10.8c0-0.1-0.2,0.1-0.5,0.6c-1,1.5-1.9,2.3-2.8,2.3c-0.8,0-1.2-0.4-1.2-1.1c0-0.9,0.8-1.4,1.9-1.1
	c0.4,0.1,0.5,0.1,0.6,0c0.2-0.2,1.1-1.3,1.4-1.8l0.2-0.4L7.3,7.9c-0.4-1.5-0.6-1.8-1-2C6.1,5.9,5.9,5.9,5.4,6
	C4.6,6.1,4.5,6.1,4.7,5.5c0.1-0.4,0.2-0.4,0.9-0.7c1.4-0.6,2.3-0.5,2.8,0.3c0.1,0.2,0.3,0.7,0.5,1.3c0.1,0.5,0.3,1,0.3,1
	c0,0,0.3-0.3,0.5-0.7c0.6-0.8,1.2-1.6,1.6-1.9c0.1-0.1,0.4-0.2,0.7-0.3C12.8,4.3,13.5,4.7,13.5,5.4z M1.8,2.5H4V0.8H0v16.2h4v-1.7
	H1.8V2.5z M14,0.8v1.7h2.1v12.9H14v1.7h4V0.8H14z"/>
</svg>
