<?xml version="1.0" encoding="utf-8"?>
<!-- Generator: Adobe Illustrator 21.1.0, SVG Export Plug-In . SVG Version: 6.00 Build 0)  -->
<svg version="1.1" id="Layer_1" xmlns="http://www.w3.org/2000/svg" xmlns:xlink="http://www.w3.org/1999/xlink" x="0px" y="0px"
	 viewBox="0 0 24 24" style="enable-background:new 0 0 24 24;" xml:space="preserve">
<path d="M0,0v24h24V0H0z M22.3,22.3H1.7V1.7h20.7V22.3z M10.7,20.2c0-1,0.9-1.6,2.1-1.3c0.5,0.1,0.6,0.1,0.7,0
	c0.2-0.2,1.3-1.5,1.6-2l0.3-0.4l-0.5-1.6c-0.5-1.7-0.6-2-1.1-2.2c-0.2-0.1-0.4-0.1-1,0c-0.9,0.2-1,0.1-0.8-0.5
	c0.1-0.4,0.2-0.4,1-0.7c1.5-0.6,2.6-0.5,3.2,0.4c0.1,0.2,0.4,0.8,0.6,1.4c0.2,0.6,0.3,1.1,0.3,1.1c0,0,0.3-0.4,0.6-0.8
	c0.6-0.9,1.4-1.8,1.9-2.1c0.2-0.1,0.5-0.3,0.7-0.3c0.9-0.3,1.8,0.2,1.8,0.9c0.1,1.2-0.7,1.7-2.1,1.5l-0.6-0.1L19,13.7
	c-0.2,0.2-0.6,0.8-1,1.3l-0.6,0.9l0.3,1.2c0.6,2.1,0.7,2.3,1.3,2.6c0.3,0.2,0.8,0.2,1.5,0c0.6-0.1,0.7-0.1,0.6,0.5
	c-0.1,0.5-0.1,0.5-0.9,0.8c-0.9,0.4-1.8,0.5-2.5,0.3c-0.8-0.2-1.3-0.8-1.7-2.6c-0.1-0.2-0.1-0.5-0.2-0.6c0-0.1-0.3,0.2-0.6,0.6
	c-1.2,1.8-2.2,2.6-3.1,2.6C11.2,21.4,10.7,21,10.7,20.2z"/>
</svg>
