<?xml version="1.0" encoding="utf-8"?>
<!-- Generator: Adobe Illustrator 21.1.0, SVG Export Plug-In . SVG Version: 6.00 Build 0)  -->
<svg version="1.1" id="Layer_1" xmlns="http://www.w3.org/2000/svg" xmlns:xlink="http://www.w3.org/1999/xlink" x="0px" y="0px"
	 viewBox="0 0 24 24" style="enable-background:new 0 0 24 24;" xml:space="preserve">
<style type="text/css">
	.st0{stroke:#000000;stroke-width:0.5;stroke-miterlimit:10;}
</style>
<path class="st0" d="M17.5,6.5V0H0v17.5h6.5V24H24V6.5H17.5z M23.3,23.3h-16v-6.5H6.7c0,0,0,0,0,0H0.7v-16h16v5.8h0
	c0,0.1,0,0.2,0,0.3v0.4h6.6V23.3z M5.8,6.5h0.6V7H5.9v0.7H5.5V6.9C5.5,6.7,5.6,6.5,5.8,6.5z M9.4,7H8.6V6.5h0.7V7z M12.3,7h-0.7V6.5
	h0.7V7z M15.3,7h-0.7V6.5h0.7V7z M17.5,8.8H17V8.1h0.5V8.8z M17.5,11.5H17v-0.7h0.5V11.5z M17.5,14.3H17v-0.7h0.5V14.3z M5.5,15h0.5
	v0.7H5.5V15z M5.5,12.3h0.5V13H5.5V12.3z M5.5,9.7h0.5v0.7H5.5V9.7z M16.5,17H17v-0.7h0.5v0.8c0,0.2-0.2,0.3-0.4,0.3h-0.6V17z
	 M15,17h0.8v0.5H15V17z M11.8,16.8h0.7v0.4h-0.7V16.8z M8.9,16.8h0.7v0.4H8.9V16.8z"/>
</svg>
