<?xml version="1.0" encoding="utf-8"?>
<!-- Generator: Adobe Illustrator 21.1.0, SVG Export Plug-In . SVG Version: 6.00 Build 0)  -->
<svg version="1.1" id="Layer_1" xmlns="http://www.w3.org/2000/svg" xmlns:xlink="http://www.w3.org/1999/xlink" x="0px" y="0px"
	 viewBox="0 0 22 22" style="enable-background:new 0 0 22 22;" xml:space="preserve">
<path d="M17.1,0c-2.1,0-3.8,1.7-3.8,3.8c0,0.9,0.3,1.7,0.8,2.4L11,8.5L7.9,6.2c0.5-0.7,0.8-1.5,0.8-2.4C8.7,1.7,7,0,4.9,0
	S1,1.7,1,3.8s1.7,3.8,3.8,3.8c0.7,0,1.3-0.2,1.8-0.5l0,0l3.6,2.6v4.6c-1.7,0.4-3.1,1.9-3.1,3.8c0,2.1,1.7,3.8,3.8,3.8
	c2.1,0,3.8-1.7,3.8-3.8c0-1.9-1.3-3.4-3.1-3.8V9.8l3.6-2.6l0,0c0.5,0.3,1.1,0.5,1.8,0.5C19.3,7.7,21,6,21,3.8S19.3,0,17.1,0z
	 M4.9,6.1c-1.3,0-2.3-1-2.3-2.3s1-2.3,2.3-2.3s2.3,1,2.3,2.3S6.1,6.1,4.9,6.1z M13.3,18.2c0,1.3-1,2.3-2.3,2.3c-1.3,0-2.3-1-2.3-2.3
	s1-2.3,2.3-2.3C12.3,15.9,13.3,16.9,13.3,18.2z M17.1,6.1c-1.3,0-2.3-1-2.3-2.3s1-2.3,2.3-2.3s2.3,1,2.3,2.3S18.4,6.1,17.1,6.1z"/>
</svg>
