<?xml version="1.0" encoding="utf-8"?>
<!-- Generator: Adobe Illustrator 21.1.0, SVG Export Plug-In . SVG Version: 6.00 Build 0)  -->
<svg version="1.1" id="Layer_1" xmlns="http://www.w3.org/2000/svg" xmlns:xlink="http://www.w3.org/1999/xlink" x="0px" y="0px"
	 viewBox="0 0 24 24" style="enable-background:new 0 0 24 24;" xml:space="preserve">
<path d="M7.3,3.1C7,3.1,6.7,3.3,6.7,3.6v16.7c0,0.3,0.2,0.6,0.6,0.6h9.3c0.3,0,0.6-0.2,0.6-0.6V3.6c0-0.3-0.2-0.6-0.6-0.6H7.3z
	 M16,19.8H7.9V4.2H16V19.8z M3.3,7.6v8.7c0,0.3,0.2,0.6,0.6,0.6s0.6-0.2,0.6-0.6V7.6c0-0.3-0.2-0.6-0.6-0.6S3.3,7.3,3.3,7.6z
	 M0.6,15c0.3,0,0.6-0.2,0.6-0.6v-5C1.1,9.2,0.9,9,0.6,9S0,9.2,0,9.5v5C0,14.8,0.2,15,0.6,15z M19.6,7.6v8.7c0,0.3,0.2,0.6,0.6,0.6
	s0.6-0.2,0.6-0.6V7.6c0-0.3-0.2-0.6-0.6-0.6S19.6,7.3,19.6,7.6z M22.9,9.5v5c0,0.3,0.2,0.6,0.6,0.6s0.6-0.2,0.6-0.6v-5
	C24,9.2,23.8,9,23.4,9S22.9,9.2,22.9,9.5z"/>
</svg>
