<?xml version="1.0" encoding="utf-8"?>
<!-- Generator: Adobe Illustrator 21.1.0, SVG Export Plug-In . SVG Version: 6.00 Build 0)  -->
<svg version="1.1" id="Layer_1" xmlns="http://www.w3.org/2000/svg" xmlns:xlink="http://www.w3.org/1999/xlink" x="0px" y="0px"
	 viewBox="0 0 24 24" style="enable-background:new 0 0 24 24;" xml:space="preserve">
<path d="M4.7,7.7v8.6C4.7,16.7,4.5,17,4,17c-0.5,0-0.7-0.4-0.7-0.7V7.7c0-0.4,0.2-0.7,0.7-0.7S4.7,7.3,4.7,7.7z M0.8,8.9
	C0.4,8.9,0,9.2,0,9.5v4.9c0,0.4,0.3,0.6,0.7,0.6c0.4,0,0.7-0.2,0.7-0.7V9.4l0-0.1C1.3,9.1,1.1,8.9,0.8,8.9z M24,9.5
	c-0.1-0.4-0.4-0.6-0.8-0.6c-0.4,0-0.6,0.2-0.6,0.6v4.9c0,0.4,0.2,0.7,0.7,0.7c0.5,0,0.7-0.3,0.7-0.7L24,9.5L24,9.5z M20.1,6.9
	c-0.5,0-0.7,0.4-0.7,0.7v8.6c0,0.4,0.2,0.7,0.7,0.7c0.5,0,0.7-0.3,0.7-0.7V7.7C20.8,7.3,20.6,6.9,20.1,6.9z M17.2,3.7v16.5
	c0,0.5-0.4,0.7-0.7,0.7H7.4c-0.5,0-0.7-0.4-0.7-0.7V3.7c0-0.3,0.3-0.6,0.6-0.6v0l9.6,0C17.1,3.2,17.2,3.4,17.2,3.7z M8.1,4.4v15.1
	h7.7V4.4H8.1z"/>
</svg>
