<?xml version="1.0" encoding="utf-8"?>
<!-- Generator: Adobe Illustrator 21.1.0, SVG Export Plug-In . SVG Version: 6.00 Build 0)  -->
<svg version="1.1" id="Layer_1" xmlns="http://www.w3.org/2000/svg" xmlns:xlink="http://www.w3.org/1999/xlink" x="0px" y="0px"
	 viewBox="0 0 24 24" style="enable-background:new 0 0 24 24;" xml:space="preserve">
<path transform="translate(0,-952.36218)" d="M4.8,955.4c-2.6,0-4.8,2.2-4.8,4.8v7.5c0,2.6,2.2,4.8,4.8,4.8h14.4
	c2.6,0,4.8-2.2,4.8-4.8v-7.5c0-2.6-2.2-4.8-4.8-4.8H4.8z M4.8,956.5h14.4c2.1,0,3.7,1.7,3.7,3.7v7.5c0,2.1-1.7,3.7-3.7,3.7H4.8
	c-2.1,0-3.7-1.7-3.7-3.7v-7.5C1.1,958.1,2.7,956.5,4.8,956.5z M9.6,959.6c-0.3,0-0.5,0.3-0.5,0.6v7.5c0,0.2,0.1,0.4,0.3,0.5
	c0.2,0.1,0.4,0.1,0.5,0l5.9-3.7c0.3-0.2,0.3-0.8,0-1l-5.9-3.7C9.8,959.7,9.7,959.6,9.6,959.6L9.6,959.6z M10.1,961.2l4.3,2.8
	l-4.3,2.7V961.2z"/>
</svg>
