<?xml version="1.0" encoding="utf-8"?>
<!-- Generator: Adobe Illustrator 21.1.0, SVG Export Plug-In . SVG Version: 6.00 Build 0)  -->
<svg version="1.1" id="Layer_1" xmlns="http://www.w3.org/2000/svg" xmlns:xlink="http://www.w3.org/1999/xlink" x="0px" y="0px"
	 viewBox="0 0 24 24" style="enable-background:new 0 0 24 24;" xml:space="preserve">
<path d="M10,7.4C9.9,7.3,9.8,7.2,9.6,7.2C9.2,7.2,9,7.5,9,7.9v7.4c0,0.3,0.1,0.5,0.4,0.6C9.5,16,9.6,16,9.7,16c0.1,0,0.2,0,0.3-0.1
	l5.8-3.7c0.2-0.1,0.3-0.3,0.3-0.6c0-0.3-0.1-0.5-0.3-0.6L10,7.4z M14.1,11.6l-3.9,2.5v-5L14.1,11.6z M19.1,3H4.9C2.2,3,0,5.2,0,7.9
	v7.4c0,2.6,2.2,4.9,4.9,4.9h14.3c2.6,0,4.9-2.2,4.9-4.9V7.9C24,5.2,21.8,3,19.1,3z M22.7,7.9v7.4c0,2-1.6,3.5-3.5,3.5H4.9
	c-2,0-3.5-1.6-3.5-3.5V7.9c0-2,1.5-3.5,3.5-3.5h14.3C21.1,4.3,22.7,5.9,22.7,7.9z"/>
</svg>
