<?xml version="1.0" encoding="utf-8"?>
<!-- Generator: Adobe Illustrator 21.1.0, SVG Export Plug-In . SVG Version: 6.00 Build 0)  -->
<svg version="1.1" id="Layer_1" xmlns="http://www.w3.org/2000/svg" xmlns:xlink="http://www.w3.org/1999/xlink" x="0px" y="0px"
	 viewBox="0 0 24 24" style="enable-background:new 0 0 24 24;" xml:space="preserve">
<path d="M5.7,16.4h12.6V7.5H5.7V16.4z M17.1,8.8v6.5H6.9V8.8H17.1z M9,7.1h6c0.4,0,0.7-0.3,0.7-0.7c0-0.2-0.1-0.3-0.2-0.4l-3-4.4
	c-0.1-0.2-0.3-0.3-0.6-0.3c0,0,0,0,0,0c-0.2,0-0.5,0.1-0.5,0.3L8.5,6.1C8.4,6.2,8.4,6.4,8.4,6.5c0,0.1,0,0.2,0.1,0.3
	C8.5,7,8.6,7.1,9,7.1z M10.2,5.9L12,3.2l1.8,2.7H10.2z M23.8,11.5l-4.1-2.9c-0.1-0.1-0.4-0.2-0.6-0.1c-0.2,0.1-0.4,0.3-0.4,0.6v5.8
	c0,0.1,0,0.6,0.7,0.6h0.1l4.2-3C24.1,12.2,24.1,11.8,23.8,11.5z M19.9,13.6v-3.3l2.4,1.6L19.9,13.6z M4.4,8.7l-4.2,3
	c-0.2,0.2-0.2,0.6,0,0.8l4,2.9c0.1,0.1,0.2,0.1,0.4,0.1c0.1,0,0.1,0,0.2,0c0.2-0.1,0.4-0.3,0.4-0.6V9.1c0-0.2-0.1-0.3-0.2-0.4
	C4.8,8.6,4.6,8.5,4.4,8.7z M1.7,12l2.4-1.6v3.3L1.7,12z M15,16.7H9c-0.2,0-0.4,0.2-0.5,0.2L8.4,17v0.6l3.1,4.6
	c0.1,0.1,0.2,0.2,0.5,0.2c0.4,0,0.5-0.2,0.5-0.3l2.9-4.4c0.1-0.1,0.2-0.3,0.2-0.4c0-0.1,0-0.2-0.1-0.3C15.5,16.8,15.4,16.7,15,16.7z
	 M13.8,18L12,20.7L10.2,18H13.8z"/>
</svg>
