<?xml version="1.0" encoding="utf-8"?>
<!-- Generator: Adobe Illustrator 21.1.0, SVG Export Plug-In . SVG Version: 6.00 Build 0)  -->
<svg version="1.1" id="Layer_1" xmlns="http://www.w3.org/2000/svg" xmlns:xlink="http://www.w3.org/1999/xlink" x="0px" y="0px"
	 viewBox="0 0 24 24" style="enable-background:new 0 0 24 24;" xml:space="preserve">
<path d="M5.9,16.2h12.2V7.8H5.9V16.2z M6.4,8.3h11.2v7.4H6.4V8.3z M15.1,17.2H8.9c-0.1,0-0.2,0.1-0.2,0.1c0,0.1,0,0.2,0,0.3l3.1,4.6
	c0.1,0.1,0.1,0.1,0.2,0.1s0.2,0,0.2-0.1l3.1-4.6c0.1-0.1,0.1-0.2,0-0.3C15.3,17.2,15.2,17.2,15.1,17.2z M12,21.6l-2.6-3.8h5.2
	L12,21.6z M23.9,11.8l-4.2-3c-0.1-0.1-0.3,0-0.3,0.2V15c0,0.2,0.2,0.2,0.3,0.2l4.2-3C24,12.1,24,11.9,23.9,11.8z M19.8,14.4V9.6
	l3.5,2.4L19.8,14.4z M4.3,8.9l-4.2,3c-0.1,0.1-0.1,0.2,0,0.3l4.2,3c0.1,0.1,0.3,0,0.3-0.2V9C4.6,8.9,4.5,8.8,4.3,8.9z M4.2,14.4
	L0.7,12l3.5-2.4V14.4z M8.9,6.6h6.2c0.2,0,0.3-0.1,0.3-0.3c0-0.1,0-0.1-0.1-0.2l-3.1-4.6c-0.1-0.2-0.4-0.2-0.5,0L8.7,6.2
	c-0.1,0.1-0.1,0.2,0,0.3C8.7,6.6,8.8,6.6,8.9,6.6z M12,2.3l2.6,3.8H9.4L12,2.3z"/>
</svg>
