<?xml version="1.0" encoding="utf-8"?>
<!-- Generator: Adobe Illustrator 21.1.0, SVG Export Plug-In . SVG Version: 6.00 Build 0)  -->
<svg version="1.1" id="Layer_1" xmlns="http://www.w3.org/2000/svg" xmlns:xlink="http://www.w3.org/1999/xlink" x="0px" y="0px"
	 viewBox="0 0 24 24" style="enable-background:new 0 0 24 24;" xml:space="preserve">
<path d="M11.1,10.7c0,2.2,1.5,3.9,3.4,3.9c1.9,0,3.4-1.7,3.4-3.9s-1.5-3.9-3.4-3.9C12.6,6.8,11.1,8.5,11.1,10.7z M16.8,10.7
	c0,1.5-1,2.7-2.3,2.7c-1.3,0-2.3-1.2-2.3-2.7S13.3,8,14.5,8C15.8,8,16.8,9.2,16.8,10.7z M23.1,5.2V0C23,0,23,0,22.9,0H1.1
	C0.5,0,0,0.5,0,1.1v21.2h1.9c0,0,0,0,0,0h2.3v-1H2.1v-5.2h1.8V15H2.1V8.8h1.8V7.7H2.1V3.5h5.7v1.6h1.1V3.5h6.2V5c-0.2,0-0.4,0-0.6,0
	c-2,0-4,0.9-5.9,2.7C7.4,8.7,6.4,10,6.2,10.3c-0.2,0.2-0.2,0.6,0,0.7c0,0,0.8,1.4,2.4,2.6c2,1.8,3.9,2.7,5.9,2.7s4-0.9,5.9-2.7
	c0.8-0.8,1.6-1.6,2.4-2.6l0.1-0.1c0.1-0.2,0.1-0.6,0-0.7c-0.1-0.1-0.1-0.2-0.2-0.2c-0.4-0.5-1.1-1.5-2.3-2.3
	c-1.6-1.4-3.1-2.3-4.7-2.5h0.4V3.5h5.7v1.7H23.1z M21.7,10.7c-0.9,1.1-3.9,4.5-7.2,4.5c-2.3,0-4.7-1.5-7.3-4.5
	c1-1.1,3.9-4.5,7.3-4.5C18.2,6.2,21.2,9.9,21.7,10.7z"/>
</svg>
