<?xml version="1.0" encoding="utf-8"?>
<!-- Generator: Adobe Illustrator 21.1.0, SVG Export Plug-In . SVG Version: 6.00 Build 0)  -->
<svg version="1.1" id="Layer_1" xmlns="http://www.w3.org/2000/svg" xmlns:xlink="http://www.w3.org/1999/xlink" x="0px" y="0px"
	 viewBox="0 0 24 24" style="enable-background:new 0 0 24 24;" xml:space="preserve">
<path d="M23.9,11.5L23.9,11.5L23.9,11.5c-0.1-0.1-0.2-0.2-0.3-0.3C23,10.6,22,9.4,20.4,8.3c-2.8-2.2-5.6-3.3-8.4-3.3
	c-2.8,0-5.7,1.1-8.4,3.3c-1.7,1.3-3.1,2.9-3.4,3.3c-0.3,0.3-0.3,0.7,0,0.9c0,0,1.2,1.7,3.4,3.2c2.8,2.2,5.6,3.3,8.4,3.3
	c2.8,0,5.7-1.1,8.4-3.3c1.2-1,2.3-2,3.4-3.2c0,0,0.1-0.1,0.1-0.1C24.1,12.1,24.1,11.7,23.9,11.5z M22.2,12
	c-1.3,1.4-5.5,5.5-10.2,5.5c-3.2,0-6.6-1.8-10.3-5.5C3.1,10.6,7.2,6.5,12,6.5C17.2,6.5,21.5,11.1,22.2,12z M7.2,12
	c0,2.7,2.1,4.8,4.8,4.8c2.7,0,4.8-2.1,4.8-4.8c0-2.7-2.1-4.8-4.8-4.8C9.3,7.2,7.2,9.3,7.2,12z M12,15.3c-1.8,0-3.3-1.5-3.3-3.3
	c0-1.8,1.6-3.3,3.3-3.3c1.8,0,3.3,1.5,3.3,3.3C15.3,13.9,13.9,15.3,12,15.3z"/>
</svg>
