<?xml version="1.0" encoding="utf-8"?>
<!-- Generator: Adobe Illustrator 21.1.0, SVG Export Plug-In . SVG Version: 6.00 Build 0)  -->
<svg version="1.1" id="Layer_1" xmlns="http://www.w3.org/2000/svg" xmlns:xlink="http://www.w3.org/1999/xlink" x="0px" y="0px"
	 viewBox="0 0 24 24" style="enable-background:new 0 0 24 24;" xml:space="preserve">
<path d="M16,0.1L16,0.1l-12,0c-0.5,0-0.9,0.3-0.9,1V23c0,0.7,0.5,1,1,1H20c0.5,0,1-0.3,1-1V4.9L16,0.1z M12.1,12.3l0.2,1
	c-0.3-0.2-0.8-0.2-1.1,0l0.2-1H12.1z M11.7,14.3c0,0.1,0,0.1,0,0.2C11.7,14.5,11.7,14.4,11.7,14.3c0-0.1,0-0.1,0-0.2
	C11.7,14.2,11.7,14.2,11.7,14.3z M11.3,9.7h-0.3V9.5h0.3V9.7z M11.3,7.2h-0.3V6.9h0.3V7.2z M11.3,4.6h-0.3V4.3h0.3V4.6z M10.9,1.8
	h0.3v0.3h-0.3V1.8z M4.1,22.8C4.1,22.8,4.1,22.8,4.1,22.8c0.1,0.1,0,0.1,0,0.1V22.8z M19.2,22.2C19.2,22.2,19.2,22.3,19.2,22.2
	l-14.2,0c0,0,0,0,0,0v-5.1l1,4.3h1.5l0.5-2l0.6,2h1.3h0.2h1.4l0.4-1H13l0.4,1h1.4l0.1,0.2v-0.2h1.4v-1.7l0.2,0c0,0,0.1,0.1,0.1,0.1
	c0,0,0,0,0.1,0.1l0,0c0.1,0.1,0.2,0.3,0.4,0.4l0.7,1h1.6V22.2z M12.4,19.1l0.1-0.2l0.1,0.2H12.4z M16.2,18.3V18l0.8,0
	c0,0,0.1,0.1,0.1,0.1c0,0,0,0,0,0s0,0,0,0L17,18.3c-0.1,0-0.4,0-0.5,0H16.2z M19.2,21L18.6,20c-0.3-0.4-0.4-0.6-0.5-0.7c0,0,0,0,0,0
	c0.2-0.1,0.3-0.2,0.4-0.3l0.1-0.1c0.1-0.2,0.3-0.5,0.3-0.8c0-0.4-0.1-0.6-0.2-0.8c-0.1-0.3-0.4-0.4-0.6-0.5
	c-0.3-0.1-0.6-0.1-1.1-0.1h-2.1v3.9l-1.5-3.8h-1.4L10.4,20l0.8-3.4H9.6l-0.4,1.8l-0.5-1.8H7.2l-0.4,1.7l-0.3-1.7H4.9V1.8
	c0,0,0,0,0,0H10V3h1.3v0.3H10v2.3h1.3v0.3H10v2.3h1.3v0.3H10v2.3h1.3v0.5h-0.6L10,14.9l0,0.1c0.1,0.5,0.6,1.4,1.7,1.4
	c0.5,0,0.9-0.2,1.2-0.5c0.4-0.4,0.5-0.9,0.5-1.1L13,12.1h0.4V9.7h-1.3V9.5h1.3V7.2h-1.3V6.9h1.3V4.6h-1.3V4.3h1.3V2.1h-1.3V1.8h2.4
	v3.6c0,0.7,0.5,1,1,1h3.6V21z M12.3,11.1v-0.3h0.3v0.3H12.3z M12.3,8.5V8.1h0.3v0.3H12.3z M12.3,5.9V5.6h0.3v0.3H12.3z M12.3,3.4
	V3.1h0.3v0.3H12.3z M19.9,22.9C19.9,22.9,19.9,22.9,19.9,22.9C19.9,22.9,19.9,22.9,19.9,22.9L19.9,22.9
	C19.9,22.9,19.9,22.9,19.9,22.9L19.9,22.9z M19.9,5.5h-4.3c0,0,0,0-0.1,0c0,0-0.1,0-0.1,0c0,0,0,0,0-0.1V1.1h0.1L19.9,5.5L19.9,5.5z
	"/>
</svg>
