<?xml version="1.0" encoding="utf-8"?>
<!-- Generator: Adobe Illustrator 21.1.0, SVG Export Plug-In . SVG Version: 6.00 Build 0)  -->
<svg version="1.1" id="Layer_1" xmlns="http://www.w3.org/2000/svg" xmlns:xlink="http://www.w3.org/1999/xlink" x="0px" y="0px"
	 viewBox="0 0 24 24" style="enable-background:new 0 0 24 24;" xml:space="preserve">
<path d="M16,0H3.8C3.6,0,3.2,0.1,3.2,0.7v22.7c0,0.5,0.4,0.7,0.7,0.7h16.4c0.2,0,0.7-0.1,0.7-0.7V4.8L16,0z M20.6,23.3
	c0,0.4-0.3,0.4-0.4,0.4H3.8c0,0-0.4,0-0.4-0.4V0.7c0-0.4,0.3-0.4,0.4-0.4h12.1l4.7,4.7V23.3z M15.3,5.1V0.8H4.6C4.4,0.8,4,0.9,4,1.4
	v21.2c0,0.5,0.4,0.6,0.6,0.6h14.9c0.2,0,0.6-0.1,0.6-0.6v-17h-4.4C15.6,5.5,15.3,5.5,15.3,5.1z M11.9,2.4h1.1v1.1h-1.1V2.4z M11.9,5
	h1.1v1.1h-1.1V5z M11.9,7.6h1.1v1.1h-1.1V7.6z M11.9,10.3h1.1v1.1h-1.1V10.3z M12.4,11.9l0.5,3c0,0.1-0.3,0.9-1.2,0.9
	c-0.9,0-1.1-0.8-1.2-0.9l0.5-3H12.4z M11.6,10h-1.1V9h1.1V10z M11.6,7.4h-1.1V6.3h1.1V7.4z M11.6,4.7h-1.1V3.7h1.1V4.7z M10.5,1.1
	h1.1v1.1h-1.1V1.1z M19.8,22.6c0,0.3-0.3,0.4-0.3,0.4H4.6c-0.1,0-0.3,0-0.3-0.4V1.4c0-0.3,0.3-0.4,0.3-0.4h5.7v1.3h1.3v1.1h-1.3V5
	h1.3v1.1h-1.3v1.6h1.3v1.1h-1.3v1.6h1.3v1.3h-0.7l-0.6,3.3l0,0c0,0,0.3,1.2,1.4,1.2c1.2,0,1.4-1.1,1.4-1.2l0,0l-0.5-3.3h0.5V10h-1.3
	V9h1.3V7.4h-1.3V6.3h1.3V4.7h-1.3V3.7h1.3V2.1h-1.3V1.1H15v4.1c0,0.5,0.4,0.7,0.7,0.7h4.1V22.6z M11.7,15.3c0.4,0,0.7-0.4,0.7-0.9
	c0-0.5-0.3-0.9-0.7-0.9c-0.4,0-0.7,0.4-0.7,0.9C11.1,14.9,11.4,15.3,11.7,15.3z M11.7,13.7c0.2,0,0.4,0.3,0.4,0.7
	c0,0.4-0.2,0.7-0.4,0.7s-0.4-0.3-0.4-0.7C11.3,14,11.5,13.7,11.7,13.7z M12,17.1l-1.7,4.3h0.9l0.4-1h1.7l0.4,1h0.9l-1.7-4.3H12z
	 M11.9,19.7l0.6-1.6l0.6,1.6H11.9z M15.1,21.4H16v-1.8h0.2c0.2,0,0.3,0,0.4,0s0.2,0.1,0.3,0.2s0.2,0.3,0.5,0.6l0.6,0.9h1l-0.5-0.8
	c-0.2-0.3-0.4-0.6-0.5-0.7s-0.3-0.3-0.5-0.4c0.4-0.1,0.7-0.2,0.8-0.4s0.3-0.5,0.3-0.8c0-0.3-0.1-0.5-0.2-0.7s-0.3-0.3-0.5-0.4
	s-0.5-0.1-1-0.1h-1.8V21.4z M16,17.8h0.7c0.4,0,0.6,0,0.6,0c0.1,0,0.2,0.1,0.3,0.2s0.1,0.2,0.1,0.3c0,0.1,0,0.2-0.1,0.3
	s-0.1,0.1-0.2,0.2s-0.4,0.1-0.8,0.1H16V17.8z M10.7,17.1l-1,4.3H8.7l-0.9-3.2L7,21.4H6l-1-4.3h0.9l0.6,3l0.8-3h1l0.8,3l0.7-3H10.7z"
	/>
</svg>
