<?xml version="1.0" encoding="UTF-8"?>
<svg width="3px" height="14px" viewBox="0 0 3 14" version="1.1" xmlns="http://www.w3.org/2000/svg" xmlns:xlink="http://www.w3.org/1999/xlink">
    <!-- Generator: Sketch 56.3 (81716) - https://sketch.com -->
    <title>Combined Shape</title>
    <desc>Created with Sketch.</desc>
    <g id="Page-1" stroke="none" stroke-width="1" fill="#000" fill-rule="evenodd">
        <g id="deployment-04" transform="translate(-621.000000, -301.000000)" fill="#000000" fill-rule="nonzero">
            <path d="M623.75,308.712873 C623.75,309.403229 623.190356,309.962873 622.5,309.962873 C621.809644,309.962873 621.25,309.403229 621.25,308.712873 L621.25,302.712873 C621.25,302.022517 621.809644,301.462873 622.5,301.462873 C623.190356,301.462873 623.75,302.022517 623.75,302.712873 L623.75,308.712873 Z M624,313.212873 C624,314.042098 623.32844,314.712873 622.502752,314.712873 C621.67156,314.712873 621,314.042098 621,313.212873 C621,312.383647 621.67156,311.712873 622.502752,311.712873 C623.32844,311.712873 624,312.383647 624,313.212873 Z" id="Combined-Shape"></path>
        </g>
    </g>
</svg>