<?xml version="1.0" encoding="utf-8"?>
<!-- Generator: Adobe Illustrator 21.1.0, SVG Export Plug-In . SVG Version: 6.00 Build 0)  -->
<svg version="1.1" id="Layer_1" xmlns="http://www.w3.org/2000/svg" xmlns:xlink="http://www.w3.org/1999/xlink" x="0px" y="0px"
	 viewBox="0 0 24 24" style="enable-background:new 0 0 24 24;" xml:space="preserve">
<path d="M19.4,10.1h-0.2c-0.4-1.5-1.8-2.5-3.4-2.5c-0.3,0-0.7,0.1-0.9,0.1C14,5.5,11.9,4,9.4,4C6.2,4,3.6,6.6,3.6,9.9
	c0,0.1,0,0.3,0,0.4C1.5,10.7,0,12.5,0,14.7c0,2.5,2.1,4.6,4.6,4.6h14.8c2.5,0,4.6-2,4.6-4.6C24,12.2,21.9,10.1,19.4,10.1z M19.4,18
	H4.6c-1.9,0-3.4-1.5-3.4-3.3c0-1.6,1.2-3,2.8-3.3l0.9-0.2l-0.1-0.9c0-0.2,0-0.3,0-0.5c0-1.2,0.5-2.4,1.4-3.3c0.9-0.9,2-1.4,3.3-1.4
	c2,0,3.7,1.2,4.4,3.1l0.3,0.9l0.9-0.3c0.3-0.1,0.5-0.1,0.8-0.1c1.1,0,2,0.7,2.3,1.8l0.2,0.8h1.1c1.9,0,3.4,1.5,3.4,3.3
	S21.3,18,19.4,18z M11.8,14.1c0.1,0.2-0.1,0.4-0.3,0.3c-0.7-0.2-1.4,0.2-1.7,0.8c-0.2,0.6,0,1.2,0.5,1.6c-0.3,0-0.5,0-0.8-0.1
	c-1-0.3-1.5-1.4-1.2-2.4c0.3-0.9,1.2-1.4,2.1-1.3C11,13.2,11.5,13.6,11.8,14.1z M12.7,12.8c0.1,0.2-0.1,0.4-0.3,0.3
	c-0.1-0.1-0.3-0.1-0.4-0.1c-0.4-0.1-0.7-0.1-1.1,0c-0.1-0.1-0.3-0.1-0.5-0.1c-0.1,0-0.2,0-0.4,0c-0.4,0-0.8,0.1-1.2,0.4
	c-0.2,0.1-0.3,0.2-0.4,0.4c-0.7,0.9-0.6,2.2,0.3,2.9c0,0,0.1,0.1,0.1,0.1c-1.4-0.5-2.2-2.1-1.8-3.5c0.4-1.5,1.9-2.5,3.5-2.1
	C11.6,11.2,12.4,11.9,12.7,12.8z M13.7,11.6c0.1,0.2-0.2,0.4-0.4,0.3c-0.2-0.1-0.5-0.2-0.7-0.2c-0.2,0-0.4-0.1-0.6-0.1c0,0,0,0,0,0
	c-0.4-0.3-0.9-0.6-1.4-0.7c-0.2,0-0.4-0.1-0.6-0.1c-0.7,0-1.3,0.2-1.9,0.6c-0.2,0.2-0.4,0.4-0.6,0.6c-1,1.4-0.8,3.3,0.6,4.3
	c0.1,0.1,0.2,0.1,0.2,0.2c-1.8-0.8-2.9-2.9-2.2-4.9c0.6-2,2.6-3.2,4.7-2.7C12.2,9.2,13.3,10.2,13.7,11.6z"/>
</svg>
