<?xml version="1.0" encoding="utf-8"?>
<!-- Generator: Adobe Illustrator 21.1.0, SVG Export Plug-In . SVG Version: 6.00 Build 0)  -->
<svg version="1.1" id="Layer_1" xmlns="http://www.w3.org/2000/svg" xmlns:xlink="http://www.w3.org/1999/xlink" x="0px" y="0px"
	 viewBox="0 0 22 22" style="enable-background:new 0 0 22 22;" xml:space="preserve">
<path d="M11,0C4.9,0,0,4.9,0,11c0,6.1,4.9,11,11,11c6.1,0,11-4.9,11-11C22,4.9,17.1,0,11,0z M7.3,6.8c1,0.2,2,0.3,3,0.3v0.2
	C9.8,7.6,9.5,8.1,9.5,8.6c0,0.6,0.3,1.1,0.8,1.3v0.4H6.9C7,9.1,7.1,7.9,7.3,6.8z M7.7,5.5c0.6-2.1,1.6-3.5,2.6-4v4.2
	C9.4,5.7,8.5,5.6,7.7,5.5z M7.9,1.8c-0.6,0.9-1.2,2-1.6,3.3C5.5,5,4.7,4.7,4,4.4C5.1,3.2,6.5,2.3,7.9,1.8z M10.3,11.7v3.4
	c-1,0-2,0.1-3,0.3C7.1,14.2,7,13,6.9,11.7H10.3z M4,10.7c0.1,0,0.3,0.1,0.3,0.3c0,0.3-0.5,0.3-0.5,0C3.7,10.9,3.9,10.7,4,10.7z
	 M5.6,10.3H5.5C5.2,9.8,4.6,9.4,4,9.4s-1.2,0.4-1.5,0.9H1.4c0.1-1.8,0.7-3.4,1.8-4.9C4,5.9,4.9,6.2,6,6.5C5.8,7.7,5.6,9,5.6,10.3z
	 M2.5,11.7c0.3,0.6,0.8,0.9,1.5,0.9s1.2-0.4,1.5-0.9h0.1c0,1.4,0.2,2.7,0.5,3.9c-1.1,0.3-2.1,0.6-2.9,1c-1-1.5-1.7-3.1-1.8-4.9H2.5z
	 M10.3,16.4v4.1c-1-0.4-2-1.8-2.6-3.8C8.6,16.5,9.4,16.5,10.3,16.4z M6.4,16.9c0.4,1.3,0.9,2.4,1.5,3.2c-1.5-0.5-2.8-1.3-3.9-2.5
	C4.7,17.4,5.5,17.1,6.4,16.9z M11,8.5c0.1,0,0.1,0.1,0.1,0.1c0,0.1-0.2,0.1-0.2,0C10.9,8.6,10.9,8.5,11,8.5z M20.6,10.3h-4.2
	c0-1.3-0.2-2.6-0.4-3.8c1.1-0.3,2.1-0.6,3-1C19.9,7,20.5,8.6,20.6,10.3z M11.7,10.3V9.9c0.5-0.2,0.8-0.7,0.8-1.3
	c0-0.6-0.3-1.1-0.8-1.3V7.1c1,0,2-0.1,3-0.3c0.2,1.1,0.4,2.3,0.4,3.5H11.7z M12.7,15.8c0,0.1-0.2,0.1-0.2,0c0-0.1,0.1-0.1,0.1-0.1
	S12.7,15.7,12.7,15.8z M14,15.3c-0.2-0.6-0.7-1-1.4-1c-0.3,0-0.7,0.1-0.9,0.3v-2.9h3.4c0,1.3-0.2,2.6-0.5,3.7
	C14.4,15.4,14.2,15.3,14,15.3z M11.7,16.9c0.6,0.5,1.6,0.4,2.1-0.3c0.2,0,0.3,0,0.5,0.1c-0.6,2-1.6,3.4-2.6,3.8L11.7,16.9z
	 M20.6,11.7c-0.1,1.8-0.8,3.6-1.8,5c-0.8-0.4-1.8-0.8-2.8-1c0.3-1.3,0.5-2.6,0.5-4H20.6z M11.7,5.7V1.5c1,0.4,2,1.9,2.7,4
	C13.5,5.6,12.6,5.7,11.7,5.7z M15.7,5.2c-0.4-1.4-1-2.5-1.6-3.4c1.5,0.5,2.9,1.4,4,2.6C17.4,4.8,16.5,5,15.7,5.2z M14.1,20.2
	c0.6-0.8,1.1-1.9,1.5-3.2c0.8,0.2,1.6,0.5,2.3,0.8C16.8,18.9,15.5,19.7,14.1,20.2z"/>
</svg>
