<?xml version="1.0" encoding="utf-8"?>
<!-- Generator: Adobe Illustrator 21.1.0, SVG Export Plug-In . SVG Version: 6.00 Build 0)  -->
<svg version="1.1" id="Layer_1" xmlns="http://www.w3.org/2000/svg" xmlns:xlink="http://www.w3.org/1999/xlink" x="0px" y="0px"
	 viewBox="0 0 24 24" style="enable-background:new 0 0 24 24;" xml:space="preserve">
<path d="M12,7.7c0-2.3-1.9-4.2-4.2-4.2S3.5,5.4,3.5,7.7S5.4,12,7.7,12S12,10.1,12,7.7z M10.5,7.7c0,1.5-1.2,2.7-2.7,2.7S5,9.3,5,7.7
	S6.2,5,7.7,5S10.5,6.2,10.5,7.7z M12.4,14.1l1.6-1.6c0.2-0.2,0.3-0.4,0.3-0.5c0-0.2-0.1-0.4-0.3-0.5l-0.1-0.1
	c-0.2-0.3-0.3-0.8-0.1-1.1c0.1-0.3,0.5-0.5,0.8-0.5h0.1c0.4,0,0.8-0.4,0.8-0.8V6.6c0-0.4-0.4-0.8-0.8-0.8h-0.1
	c-0.4,0-0.7-0.2-0.8-0.5c-0.1-0.4-0.1-0.7,0.2-1l0.1-0.1c0.3-0.3,0.3-0.8,0-1.1l-1.6-1.6c-0.3-0.3-0.8-0.3-1.1,0l-0.1,0.1
	c-0.3,0.2-0.8,0.3-1.1,0.1C9.9,1.5,9.6,1.2,9.6,0.8V0.8C9.6,0.4,9.3,0,8.9,0H6.6C6.2,0,5.8,0.4,5.8,0.8v0.1c0,0.4-0.2,0.7-0.5,0.8
	c-0.4,0.1-0.7,0.1-1-0.2L4.2,1.4C3.9,1,3.4,1,3.1,1.4L1.5,3c-0.3,0.3-0.3,0.8,0,1.1l0.1,0.1c0.2,0.3,0.3,0.8,0.1,1.1
	C1.5,5.6,1.2,5.8,0.8,5.8H0.7C0.4,5.8,0,6.2,0,6.6v2.3c0,0.4,0.4,0.8,0.8,0.8h0.1c0.4,0,0.7,0.2,0.8,0.5c0.1,0.4,0.1,0.7-0.2,1
	l-0.1,0.1C1,11.6,1,12,1.4,12.4L3,14c0.3,0.3,0.8,0.3,1.1,0l0.1-0.1c0.3-0.2,0.8-0.3,1.1-0.1c0.3,0.1,0.5,0.5,0.5,0.8v0.1
	c0,0.4,0.4,0.8,0.8,0.8h2.3c0.2,0,0.5-0.1,0.6-0.3c0.1-0.2,0.1-0.3,0.1-0.5v0c0-0.3,0.3-0.7,0.6-0.8c0.4-0.1,0.7-0.1,1,0.2l0.1,0.1
	C11.6,14.4,12,14.4,12.4,14.1z M7.2,14c-0.2-0.7-0.7-1.2-1.4-1.5c-0.7-0.3-1.5-0.3-2.1,0.1L3,11.7c0.3-0.7,0.4-1.4,0.1-2.1
	C2.7,8.9,2.2,8.4,1.5,8.2v-1C2.2,7,2.7,6.5,3,5.7c0.3-0.7,0.3-1.4-0.1-2L3.7,3C4.4,3.3,5.1,3.3,5.8,3c0.7-0.3,1.2-0.9,1.4-1.5h1
	C8.4,2.2,8.9,2.7,9.6,3c0.7,0.3,1.5,0.3,2.1-0.1l0.8,0.8c-0.3,0.6-0.4,1.4-0.1,2.1c0.3,0.7,0.9,1.2,1.5,1.4v1
	c-0.7,0.2-1.2,0.7-1.5,1.4c-0.3,0.7-0.3,1.5,0.1,2.1l-0.8,0.8c-0.7-0.3-1.4-0.4-2.1-0.1c-0.7,0.3-1.2,0.9-1.4,1.5H7.2z M23.2,16
	h-0.7l0.5-0.5c0.2-0.2,0.3-0.4,0.3-0.5s-0.1-0.4-0.3-0.5l-1.6-1.6c-0.3-0.3-0.8-0.3-1.1,0l-0.5,0.6v-0.7c0-0.4-0.4-0.8-0.8-0.8h-2.3
	c-0.4,0-0.8,0.4-0.8,0.8v0.7l-0.5-0.5c-0.2-0.2-0.4-0.3-0.7-0.2c-0.2,0-0.3,0.1-0.4,0.3l-1.6,1.6c-0.2,0.2-0.3,0.4-0.3,0.5
	s0.1,0.4,0.3,0.5l0.6,0.5h-0.7c-0.4,0-0.8,0.4-0.8,0.8v2.3c0,0.4,0.4,0.8,0.8,0.8h0.7l-0.5,0.5c-0.2,0.2-0.3,0.4-0.3,0.5
	c0,0.2,0.1,0.4,0.3,0.5l1.6,1.7c0.2,0.2,0.4,0.2,0.5,0.2c0.1,0,0.3,0,0.5-0.2l0.5-0.6v0.7c0,0.4,0.4,0.8,0.8,0.8H19
	c0.4,0,0.8-0.4,0.8-0.8v-0.7l0.5,0.5c0.3,0.3,0.8,0.3,1.1,0l1.6-1.6c0.2-0.2,0.3-0.4,0.3-0.5c0-0.2-0.1-0.4-0.3-0.5l-0.6-0.5h0.7
	c0.4,0,0.8-0.4,0.8-0.8v-2.3C23.9,16.4,23.5,16,23.2,16z M14.8,14.4c0.5,0.4,1.1,0.5,1.6,0.2c0.5-0.3,0.9-0.8,0.9-1.4l0.8,0v0
	c0,0.7,0.3,1.2,1,1.4c0.6,0.1,1.2,0,1.6-0.4l0,0l0.6,0.6l-0.1,0.1c-0.4,0.5-0.5,1.1-0.2,1.6c0.3,0.5,0.8,0.9,1.4,0.9l0,0.8h0
	c-0.7,0-1.2,0.3-1.4,1c-0.1,0.6,0,1.2,0.4,1.6l0,0l-0.6,0.6l-0.1-0.1c-0.5-0.4-1.1-0.5-1.6-0.2c-0.5,0.3-0.9,0.8-0.9,1.4l-0.8,0v0
	c0-0.7-0.3-1.2-1-1.4c-0.6-0.1-1.2,0-1.6,0.4l0,0l-0.6-0.6l0.1-0.1c0.4-0.5,0.5-1.1,0.2-1.6c-0.3-0.5-0.8-0.9-1.4-0.9l0-0.8h0
	c0.7,0,1.2-0.3,1.4-1c0.1-0.6,0-1.2-0.4-1.6l0,0L14.8,14.4L14.8,14.4z M17.8,20.9c1.7,0,3.1-1.4,3.1-3.1s-1.4-3.1-3.1-3.1
	c-1.7,0-3.1,1.4-3.1,3.1S16.1,20.9,17.8,20.9z M17.8,16.2c0.9,0,1.6,0.7,1.6,1.6s-0.7,1.6-1.6,1.6s-1.6-0.7-1.6-1.6
	S16.9,16.2,17.8,16.2z"/>
</svg>
