<?xml version="1.0" encoding="utf-8"?>
<!-- Generator: Adobe Illustrator 21.1.0, SVG Export Plug-In . SVG Version: 6.00 Build 0)  -->
<svg version="1.1" id="Layer_1" xmlns="http://www.w3.org/2000/svg" xmlns:xlink="http://www.w3.org/1999/xlink" x="0px" y="0px"
	 viewBox="0 0 24 24" style="enable-background:new 0 0 24 24;" xml:space="preserve">
<path d="M7.6,11.6c-2.2,0-4-1.8-4-4s1.8-4,4-4s4,1.8,4,4S9.8,11.6,7.6,11.6z M7.6,4.4c-1.8,0-3.2,1.4-3.2,3.2s1.4,3.2,3.2,3.2
	s3.2-1.4,3.2-3.2S9.4,4.4,7.6,4.4z M19.2,24h-2.4c-0.2,0-0.4-0.2-0.4-0.4v-0.8c0-0.2-0.1-0.3-0.2-0.3c0,0,0,0,0,0
	c-0.1,0-0.3,0-0.4,0.1l-0.6,0.6c-0.1,0.1-0.2,0.1-0.3,0.1l0,0c-0.1,0-0.2,0-0.3-0.1l-1.7-1.7c-0.2-0.2-0.2-0.4,0-0.6l0.6-0.6
	c0.1-0.1,0.1-0.3,0.1-0.4c-0.1-0.2-0.2-0.2-0.3-0.2h-0.8c-0.2,0-0.4-0.2-0.4-0.4v-2.4c0-0.2,0.2-0.4,0.4-0.4h0.8
	c0.1,0,0.3-0.1,0.3-0.2c0,0,0,0,0,0c0-0.1,0-0.3-0.1-0.4l-0.6-0.6c-0.2-0.2-0.2-0.4,0-0.6l1.7-1.7c0.1-0.2,0.4-0.2,0.6,0l0.6,0.6
	c0.1,0.1,0.3,0.1,0.4,0.1c0.2-0.1,0.2-0.2,0.2-0.3v-0.8c0-0.2,0.2-0.4,0.4-0.4h2.4c0.2,0,0.4,0.2,0.4,0.4v0.8c0,0.1,0.1,0.3,0.2,0.3
	c0,0,0,0,0,0c0.1,0,0.3,0,0.4-0.1l0.6-0.6c0.2-0.2,0.4-0.2,0.6,0l1.7,1.7c0.2,0.2,0.2,0.4,0,0.6l-0.6,0.6c-0.1,0.1-0.1,0.3-0.1,0.4
	c0.1,0.2,0.2,0.2,0.3,0.2h0.8c0.2,0,0.4,0.2,0.4,0.4v2.4c0,0.2-0.2,0.4-0.4,0.4h-0.8c-0.2,0-0.3,0.1-0.3,0.2c0,0,0,0,0,0
	c0,0.1,0,0.3,0.1,0.4l0.6,0.6c0.2,0.2,0.2,0.4,0,0.6l-1.7,1.7c-0.2,0.2-0.4,0.2-0.6,0l-0.6-0.6c-0.1-0.1-0.3-0.1-0.4-0.1
	c-0.2,0.1-0.2,0.2-0.2,0.3v0.8C19.6,23.8,19.4,24,19.2,24z M17.2,23.2h1.6v-0.4c0-0.5,0.3-0.9,0.7-1.1c0.4-0.2,0.9-0.1,1.3,0.2
	l0.3,0.3l1.1-1.1l-0.3-0.3c-0.3-0.3-0.4-0.8-0.3-1.3c0.2-0.5,0.6-0.7,1.1-0.7h0.4v-1.6h-0.4c-0.5,0-0.9-0.3-1.1-0.7
	c-0.2-0.4-0.1-0.9,0.2-1.3l0.3-0.3l-1.1-1.1l-0.3,0.3c-0.3,0.3-0.8,0.4-1.3,0.3c-0.5-0.2-0.7-0.6-0.7-1.1v-0.4h-1.6v0.4
	c0,0.5-0.3,0.9-0.7,1.1c-0.4,0.2-0.9,0.1-1.3-0.2l-0.3-0.3l-1.1,1.1l0.3,0.3c0.3,0.3,0.4,0.8,0.3,1.3c-0.2,0.5-0.6,0.7-1.1,0.7h-0.4
	v1.6h0.4c0.5,0,0.9,0.3,1.1,0.7c0.2,0.4,0.1,0.9-0.2,1.3l-0.3,0.3l1.1,1.1l0.3-0.3c0.3-0.3,0.8-0.4,1.3-0.3c0.5,0.2,0.7,0.6,0.7,1.1
	V23.2z M18,20.8c-1.5,0-2.8-1.3-2.8-2.8s1.3-2.8,2.8-2.8s2.8,1.3,2.8,2.8S19.5,20.8,18,20.8z M18,16c-1.1,0-2,0.9-2,2s0.9,2,2,2
	s2-0.9,2-2S19.1,16,18,16z M8.8,15.2H6.4C6.2,15.2,6,15,6,14.8v-0.1c0-0.5-0.3-1-0.8-1.2c-0.5-0.2-1.1-0.1-1.5,0.2l-0.1,0.1
	c-0.2,0.2-0.4,0.2-0.6,0l-1.7-1.7c-0.2-0.2-0.2-0.4,0-0.6l0.1-0.1c0.4-0.4,0.5-0.9,0.3-1.4C1.5,9.5,1,9.2,0.5,9.2H0.4
	C0.2,9.2,0,9,0,8.8V6.4C0,6.2,0.2,6,0.4,6h0.1c0.5,0,1-0.3,1.2-0.8c0.2-0.5,0.1-1.1-0.2-1.5L1.4,3.6c-0.2-0.2-0.2-0.4,0-0.6l1.7-1.7
	c0.2-0.2,0.4-0.2,0.6,0l0.1,0.1c0.4,0.4,0.9,0.5,1.4,0.3C5.7,1.5,6,1,6,0.5V0.4C6,0.2,6.2,0,6.4,0h2.4C9,0,9.2,0.2,9.2,0.4v0.1
	c0,0.5,0.3,1,0.8,1.2c0.5,0.2,1.1,0.1,1.5-0.2l0.1-0.1c0.2-0.2,0.4-0.2,0.6,0l1.7,1.7c0.2,0.2,0.2,0.4,0,0.6l-0.1,0.1
	c-0.4,0.4-0.5,0.9-0.3,1.4C13.7,5.7,14.2,6,14.7,6h0.1c0.2,0,0.4,0.2,0.4,0.4v2.4c0,0.2-0.2,0.4-0.4,0.4h-0.1c-0.5,0-1,0.3-1.2,0.8
	c-0.2,0.5-0.1,1.1,0.2,1.5l0.1,0.1c0.2,0.2,0.2,0.4,0,0.6l-1.7,1.7c-0.2,0.2-0.4,0.2-0.6,0l-0.1-0.1c-0.4-0.4-0.9-0.5-1.4-0.3
	c-0.5,0.2-0.9,0.7-0.9,1.2v0.1C9.2,15,9,15.2,8.8,15.2z M6.8,14.4h1.6c0.1-0.7,0.6-1.3,1.3-1.6c0.7-0.3,1.5-0.2,2.1,0.2l1.2-1.2
	c-0.4-0.6-0.5-1.4-0.2-2.1c0.3-0.7,0.9-1.2,1.6-1.3V6.8c-0.7-0.1-1.3-0.6-1.6-1.3C12.5,4.7,12.6,4,13,3.4l-1.2-1.2
	c-0.6,0.4-1.4,0.5-2.1,0.2C9,2.1,8.5,1.5,8.4,0.8H6.8C6.7,1.5,6.2,2.1,5.5,2.4C4.7,2.7,4,2.6,3.4,2.2L2.2,3.4C2.6,4,2.7,4.7,2.4,5.4
	C2.1,6.2,1.5,6.7,0.8,6.8v1.6C1.5,8.5,2.1,9,2.4,9.7c0.3,0.7,0.2,1.5-0.2,2.1L3.4,13c0.6-0.4,1.4-0.5,2.1-0.2
	C6.2,13.1,6.7,13.7,6.8,14.4z"/>
</svg>
