<?xml version="1.0" encoding="UTF-8"?>
<svg width="19px" height="17px" viewBox="0 0 19 17" version="1.1" xmlns="http://www.w3.org/2000/svg" xmlns:xlink="http://www.w3.org/1999/xlink">
    <!-- Generator: Sketch 53.1 (72631) - https://sketchapp.com -->
    <title>computer</title>
    <desc>Created with Sketch.</desc>
    <g id="Page-1" stroke="none" stroke-width="1" fill="none" fill-rule="evenodd">
        <g id="computer" transform="translate(0.000400, 0.000000)" fill="#000000">
            <path d="M16.9,13 L2.1,13 C1.494,13 1,12.417 1,11.7 L1,11 L18,11 L18,11.7 C18,12.417 17.506,13 16.9,13 L16.9,13 Z M1,2.3 C1,1.583 1.494,1 2.1,1 L16.9,1 C17.506,1 18,1.583 18,2.3 L18,10 L1,10 L1,2.3 Z M16.9,0 L2.1,0 C0.942,0 0,1.031 0,2.3 L0,11.7 C0,12.969 0.942,14 2.1,14 L9,14 L9,16 L5.5,16 C5.223,16 5,16.224 5,16.5 C5,16.776 5.223,17 5.5,17 L13.5,17 C13.776,17 14,16.776 14,16.5 C14,16.224 13.776,16 13.5,16 L10,16 L10,14 L16.9,14 C18.058,14 19,12.969 19,11.7 L19,2.3 C19,1.031 18.058,0 16.9,0 L16.9,0 Z" id="Fill-1"></path>
        </g>
    </g>
</svg>