<?xml version="1.0" encoding="utf-8"?>
<!-- Generator: Adobe Illustrator 21.1.0, SVG Export Plug-In . SVG Version: 6.00 Build 0)  -->
<svg version="1.1" id="Layer_1" xmlns="http://www.w3.org/2000/svg" xmlns:xlink="http://www.w3.org/1999/xlink" x="0px" y="0px"
	 viewBox="0 0 24 24" style="enable-background:new 0 0 24 24;" xml:space="preserve">
<path d="M12,0C5.4,0,0,5.4,0,12c0,6.6,5.4,12,12,12c6.6,0,12-5.4,12-12C24,5.4,18.6,0,12,0z M12.7,11.3V8.7c1,0,2-0.2,2.9-0.4
	c0.3,1,0.5,2,0.6,3.1H12.7z M17.6,11.3c-0.1-1.2-0.3-2.3-0.7-3.5c1.3-0.5,2.5-1.2,3.7-2.1c1.2,1.6,1.9,3.5,2,5.6H17.6z M22.6,12.7
	c-0.1,2-0.8,3.9-2,5.5c-1.1-0.8-2.3-1.5-3.5-2c0.3-1.2,0.5-2.4,0.5-3.6H22.6z M16.5,6.5c-0.9-2.2-2-3.9-2.9-5
	c2.3,0.3,4.5,1.5,6.1,3.2C18.7,5.5,17.6,6.1,16.5,6.5z M12.7,7.3V2.6c0.8,1,1.7,2.5,2.5,4.4C14.3,7.2,13.5,7.3,12.7,7.3z M12.7,15.3
	v-2.6h3.6c0,1-0.2,2.1-0.4,3.1C14.8,15.5,13.7,15.3,12.7,15.3z M15.4,17.1c-0.6,1.5-1.5,3-2.7,4.5v-4.9
	C13.6,16.7,14.5,16.8,15.4,17.1z M19.7,19.3c-1.6,1.7-3.7,2.8-6,3.2c1.3-1.6,2.4-3.2,3-4.9C17.7,18,18.7,18.6,19.7,19.3z M11.3,8.6
	v2.7H7.7C7.8,10.3,8,9.2,8.4,8.1C9.3,8.4,10.3,8.6,11.3,8.6z M4.3,4.7C5.9,3,8.1,1.9,10.4,1.5c-0.8,1.1-2,2.8-2.8,4.9
	C6.1,5.9,5,5.2,4.3,4.7z M11.3,12.7v2.6c-1,0.1-2.1,0.3-3.1,0.6c-0.3-1.1-0.5-2.2-0.5-3.2H11.3z M1.4,11.3c0.1-2,0.8-3.9,2-5.6
	c0.7,0.5,2,1.3,3.7,1.9c-0.4,1.2-0.6,2.4-0.7,3.6H1.4z M6.3,12.7c0,1.2,0.2,2.5,0.6,3.7c-1.6,0.6-2.8,1.4-3.5,1.9
	c-1.2-1.6-1.9-3.5-2-5.6H6.3z M7.3,17.6c0.7,1.7,1.7,3.3,3,4.8c-2.3-0.4-4.4-1.5-6-3.2C4.9,18.9,5.9,18.2,7.3,17.6z M11.3,16.7v4.9
	c-1.2-1.4-2.1-2.9-2.7-4.4C9.5,16.9,10.4,16.7,11.3,16.7z M8.8,6.9c0.8-1.8,1.7-3.3,2.5-4.3v4.8C10.5,7.3,9.6,7.1,8.8,6.9z"/>
</svg>
