<?xml version="1.0" encoding="UTF-8"?>
<svg xmlns="http://www.w3.org/2000/svg" xmlns:xlink="http://www.w3.org/1999/xlink" width="24pt" height="24pt" viewBox="0 0 24 24" version="1.1">
<g id="surface1">
<path style=" stroke:none;fill-rule:nonzero;fill:rgb(0%,0%,0%);fill-opacity:1;" d="M 19.199219 23.605469 C 19.417969 23.605469 19.636719 23.386719 19.636719 23.167969 C 19.636719 23.167969 19.636719 23.167969 19.636719 23.058594 L 18.328125 15.203125 L 23.890625 9.640625 C 24.109375 9.421875 24.109375 9.203125 23.890625 8.988281 C 23.78125 8.878906 23.78125 8.878906 23.671875 8.878906 L 15.925781 7.675781 L 12.4375 0.585938 C 12.328125 0.367188 12.109375 0.257812 11.890625 0.367188 C 11.78125 0.367188 11.78125 0.476562 11.671875 0.585938 L 8.183594 7.675781 L 0.4375 8.878906 C 0.21875 8.878906 0 9.097656 0.109375 9.3125 C 0.109375 9.421875 0.21875 9.53125 0.21875 9.53125 L 5.78125 15.097656 L 4.472656 22.949219 C 4.472656 23.167969 4.582031 23.386719 4.800781 23.496094 C 4.910156 23.496094 5.019531 23.496094 5.128906 23.496094 L 12.109375 19.894531 L 19.089844 23.496094 C 18.980469 23.605469 19.089844 23.605469 19.199219 23.605469 Z M 18.546875 22.40625 L 12.109375 19.023438 C 12 18.914062 11.890625 18.914062 11.671875 19.023438 L 5.453125 22.40625 L 6.65625 15.203125 C 6.65625 15.097656 6.65625 14.878906 6.546875 14.769531 L 1.417969 9.640625 L 8.507812 8.550781 C 8.617188 8.550781 8.726562 8.441406 8.835938 8.332031 L 12.109375 1.785156 L 15.382812 8.332031 C 15.492188 8.441406 15.601562 8.550781 15.710938 8.550781 L 22.800781 9.640625 L 17.671875 14.769531 C 17.5625 14.878906 17.5625 14.988281 17.5625 15.203125 Z M 18.546875 22.40625 "/>
</g>
</svg>
