<?xml version="1.0" encoding="utf-8"?>
<!-- Generator: Adobe Illustrator 21.1.0, SVG Export Plug-In . SVG Version: 6.00 Build 0)  -->
<svg version="1.1" id="Layer_1" xmlns="http://www.w3.org/2000/svg" xmlns:xlink="http://www.w3.org/1999/xlink" x="0px" y="0px"
	 viewBox="0 0 24 24" style="enable-background:new 0 0 24 24;" xml:space="preserve">
<path d="M13.2,22.8c0,0.7-0.5,1.2-1.2,1.2s-1.2-0.5-1.2-1.2c0-0.7,0.5-1.2,1.2-1.2S13.2,22.2,13.2,22.8z M9.9,18.5
	c-0.1,0.1-0.2,0.3-0.2,0.5c0,0.2,0.1,0.4,0.2,0.5c0.3,0.3,0.8,0.3,1.1,0c0.6-0.6,1.5-0.6,2.1,0c0.1,0.1,0.3,0.2,0.5,0.2
	s0.4-0.1,0.5-0.2c0.3-0.3,0.3-0.8,0-1.1C12.9,17.4,11.1,17.4,9.9,18.5z M12,12.8c-2.1,0-4.1,0.8-5.5,2.3c-0.3,0.3-0.3,0.8,0,1.1
	c0.1,0.1,0.3,0.2,0.5,0.2c0.2,0,0.4-0.1,0.5-0.2c1.2-1.2,2.8-1.9,4.5-1.9c1.7,0,3.3,0.7,4.5,1.9c0.3,0.3,0.8,0.3,1.1,0
	c0.1-0.1,0.2-0.3,0.2-0.5c0-0.2-0.1-0.4-0.2-0.5C16.1,13.6,14.1,12.8,12,12.8z M12,8.5c-3.3,0-6.3,1.3-8.6,3.6
	c-0.1,0.1-0.2,0.3-0.2,0.5s0.1,0.4,0.2,0.5c0.1,0.1,0.3,0.2,0.5,0.2s0.4-0.1,0.5-0.2c2-2,4.7-3.1,7.6-3.1s5.5,1.1,7.6,3.1
	c0.3,0.3,0.8,0.3,1.1,0c0.1-0.1,0.2-0.3,0.2-0.5c0-0.2-0.1-0.4-0.2-0.5C18.3,9.7,15.3,8.5,12,8.5z M23.8,8.9C20.6,5.7,16.4,4,12,4
	S3.4,5.7,0.2,8.9c-0.3,0.3-0.3,0.8,0,1.1c0.1,0.1,0.3,0.2,0.5,0.2c0.2,0,0.4-0.1,0.5-0.2C4.1,7.1,7.9,5.5,12,5.5s7.9,1.6,10.7,4.4
	c0.3,0.3,0.8,0.3,1.1,0C24.1,9.6,24.1,9.2,23.8,8.9z"/>
</svg>
