<?xml version="1.0" encoding="utf-8"?>
<!-- Generator: Adobe Illustrator 21.1.0, SVG Export Plug-In . SVG Version: 6.00 Build 0)  -->
<svg version="1.1" id="Layer_1" xmlns="http://www.w3.org/2000/svg" xmlns:xlink="http://www.w3.org/1999/xlink" x="0px" y="0px"
	 viewBox="0 0 24 24" style="enable-background:new 0 0 24 24;" xml:space="preserve">
<path d="M1.9,6.6c-0.4,0-0.6,0.3-0.6,0.6s0.3,0.6,0.6,0.6c0.4,0,0.6-0.3,0.6-0.6S2.3,6.6,1.9,6.6z M1.9,7.4c-0.1,0-0.2-0.1-0.2-0.2
	s0.1-0.2,0.2-0.2c0.1,0,0.2,0.1,0.2,0.2S2,7.4,1.9,7.4z M3.4,6.6C3,6.6,2.7,6.9,2.7,7.2S3,7.9,3.4,7.9C3.7,7.9,4,7.6,4,7.2
	S3.7,6.6,3.4,6.6z M3.4,7.4c-0.1,0-0.2-0.1-0.2-0.2s0.1-0.2,0.2-0.2c0.1,0,0.1,0,0.1,0.1c0,0,0.1,0.1,0.1,0.1
	C3.6,7.3,3.5,7.4,3.4,7.4z M4.8,6.6c-0.4,0-0.6,0.3-0.6,0.6s0.3,0.6,0.6,0.6s0.6-0.3,0.6-0.6S5.2,6.6,4.8,6.6z M4.8,7.4
	c-0.1,0-0.2-0.1-0.2-0.2s0.1-0.2,0.2-0.2C4.9,7.1,5,7.1,5,7.2S4.9,7.4,4.8,7.4z M4.6,2.6c-0.4,0-0.6,0.3-0.6,0.6s0.3,0.6,0.6,0.6
	c0.4,0,0.6-0.3,0.6-0.6S4.9,2.6,4.6,2.6z M4.6,3.4c-0.1,0-0.2-0.1-0.2-0.2S4.5,3,4.6,3c0.1,0,0.2,0.1,0.2,0.2S4.7,3.4,4.6,3.4z
	 M6,2.6c-0.4,0-0.6,0.3-0.6,0.6S5.7,3.9,6,3.9c0.4,0,0.6-0.3,0.6-0.6S6.4,2.6,6,2.6z M6,3.4c-0.1,0-0.2-0.1-0.2-0.2S5.9,3,6,3
	c0.1,0,0.1,0,0.1,0.1c0,0,0.1,0.1,0.1,0.1C6.2,3.3,6.1,3.4,6,3.4z M7.5,2.6c-0.4,0-0.6,0.3-0.6,0.6s0.3,0.6,0.6,0.6s0.6-0.3,0.6-0.6
	S7.8,2.6,7.5,2.6z M7.5,3.4c-0.1,0-0.2-0.1-0.2-0.2S7.4,3,7.5,3c0.1,0,0.2,0.1,0.2,0.2S7.6,3.4,7.5,3.4z M22.5,1.9H4.2
	c-0.8,0-1.5,0.7-1.5,1.5v2.5H1.5C0.7,5.9,0,6.5,0,7.4v14.8h21.3v-4H24V3.4C24,2.5,23.3,1.9,22.5,1.9z M19.8,5.9H3.2V4.6h20.2v13
	h-2.1V7.4C21.3,6.5,20.6,5.9,19.8,5.9z M20.8,8.6v13H0.6v-13H20.8z M0.6,8V7.4c0-0.5,0.4-0.9,0.9-0.9h18.3c0.5,0,0.9,0.4,0.9,0.9V8
	H0.6z M3.2,4V3.4c0-0.5,0.4-0.9,0.9-0.9h18.3c0.5,0,0.9,0.4,0.9,0.9V4H3.2z"/>
</svg>
