<?xml version="1.0" encoding="utf-8"?>
<!-- Generator: Adobe Illustrator 21.1.0, SVG Export Plug-In . SVG Version: 6.00 Build 0)  -->
<svg version="1.1" id="Layer_1" xmlns="http://www.w3.org/2000/svg" xmlns:xlink="http://www.w3.org/1999/xlink" x="0px" y="0px"
	 viewBox="0 0 24 24" style="enable-background:new 0 0 24 24;" xml:space="preserve">
<path d="M22.3,0H4C3.3,0,2.7,0.6,2.7,1.3V5h-1C0.9,5,0.3,5.6,0.3,6.3v16.3c0,0.7,0.6,1.3,1.3,1.3H20c0.7,0,1.3-0.6,1.3-1.3V19h1
	c0.7,0,1.3-0.6,1.3-1.3V1.3C23.7,0.6,23.1,0,22.3,0z M19.9,22.6l-18.2,0V9.3h18.2V22.6z M19.9,7.9H1.7l0-1.6l18.2,0V7.9z M22.3,17.6
	h-1V6.3C21.3,5.6,20.7,5,20,5H4.1V4.3h18.2V17.6z M22.3,2.9H4.1l0-1.6l18.2,0V2.9z M5.2,2.7c0.3,0,0.6-0.3,0.6-0.6S5.6,1.6,5.2,1.6
	S4.7,1.9,4.7,2.2S4.9,2.7,5.2,2.7z M5.2,2c0.1,0,0.2,0.1,0.2,0.2S5.3,2.3,5.2,2.3S5.1,2.3,5.1,2.2S5.2,2,5.2,2z M7.2,2.7
	c0.3,0,0.6-0.3,0.6-0.6S7.6,1.6,7.2,1.6S6.7,1.9,6.7,2.2S6.9,2.7,7.2,2.7z M7.2,2c0.1,0,0.2,0.1,0.2,0.2S7.3,2.3,7.2,2.3
	S7.1,2.3,7.1,2.2S7.2,2,7.2,2z M9.2,2.7c0.3,0,0.6-0.3,0.6-0.6S9.6,1.6,9.2,1.6S8.7,1.9,8.7,2.2S8.9,2.7,9.2,2.7z M9.2,2
	c0.1,0,0.2,0.1,0.2,0.2S9.3,2.3,9.2,2.3S9.1,2.3,9.1,2.2S9.2,2,9.2,2z M3.2,7.7c0.3,0,0.6-0.3,0.6-0.6S3.6,6.6,3.2,6.6
	S2.7,6.9,2.7,7.2S2.9,7.7,3.2,7.7z M3.2,7c0.1,0,0.2,0.1,0.2,0.2S3.3,7.3,3.2,7.3S3.1,7.3,3.1,7.2S3.2,7,3.2,7z M5.2,7.7
	c0.3,0,0.6-0.3,0.6-0.6S5.6,6.6,5.2,6.6S4.7,6.9,4.7,7.2S4.9,7.7,5.2,7.7z M5.2,7c0.1,0,0.2,0.1,0.2,0.2S5.3,7.3,5.2,7.3
	S5.1,7.3,5.1,7.2S5.2,7,5.2,7z M7.2,7.7c0.3,0,0.6-0.3,0.6-0.6S7.6,6.6,7.2,6.6S6.7,6.9,6.7,7.2S6.9,7.7,7.2,7.7z M7.2,7
	c0.1,0,0.2,0.1,0.2,0.2S7.3,7.3,7.2,7.3S7.1,7.3,7.1,7.2S7.2,7,7.2,7z"/>
</svg>
