<?xml version="1.0" encoding="utf-8"?>
<!-- Generator: Adobe Illustrator 21.1.0, SVG Export Plug-In . SVG Version: 6.00 Build 0)  -->
<svg version="1.1" id="Layer_1" xmlns="http://www.w3.org/2000/svg" xmlns:xlink="http://www.w3.org/1999/xlink" x="0px" y="0px"
	 viewBox="0 0 24 24" style="enable-background:new 0 0 24 24;" xml:space="preserve">
<path d="M24,22.8l-8.2-8.2c1.3-1.5,2-3.5,2-5.7c0-4.9-4-8.9-8.9-8.9S0,4,0,8.9s4,8.9,8.9,8.9c2.2,0,4.1-0.8,5.7-2l8.2,8.2L24,22.8z
	 M1.7,8.9c0-4,3.2-7.2,7.2-7.2s7.2,3.2,7.2,7.2s-3.2,7.2-7.2,7.2S1.7,12.9,1.7,8.9z M9.8,8.1h2.1v1.7H9.8v2.1H8.1V9.8H6V8.1h2.1V6
	h1.7V8.1z"/>
</svg>
