<?xml version="1.0" encoding="utf-8"?>
<!-- Generator: Adobe Illustrator 21.1.0, SVG Export Plug-In . SVG Version: 6.00 Build 0)  -->
<svg version="1.1" id="Layer_1" xmlns="http://www.w3.org/2000/svg" xmlns:xlink="http://www.w3.org/1999/xlink" x="0px" y="0px"
	 viewBox="0 0 24 24" style="enable-background:new 0 0 24 24;" xml:space="preserve">
<path d="M8.4,11.1v1.3h-2v2H5.1v-2h-2v-1.3h2v-2h1.3v2H8.4z M1.6,11.8c0-2.3,1.9-4.2,4.2-4.2c2.4,0,4.2,1.9,4.2,4.2
	c0,2.3-1.9,4.2-4.2,4.2S1.6,14.1,1.6,11.8z M8.8,11.8c0-1.7-1.3-3-3-3s-3,1.3-3,3s1.3,3,3,3C7.4,14.7,8.8,13.4,8.8,11.8z M0,0.7
	h11.7v22.6H0V0.7z M1.3,2v20.1h9.2V2H1.3z M24,0.7v22.6H12.3V0.7H24z M22.7,21.9V2h-9.2v20H22.7z"/>
</svg>
