<?xml version="1.0" encoding="utf-8"?>
<!-- Generator: Adobe Illustrator 21.1.0, SVG Export Plug-In . SVG Version: 6.00 Build 0)  -->
<svg version="1.1" id="Layer_1" xmlns="http://www.w3.org/2000/svg" xmlns:xlink="http://www.w3.org/1999/xlink" x="0px" y="0px"
	 viewBox="0 0 24 24" style="enable-background:new 0 0 24 24;" xml:space="preserve">
<path d="M0,23.9h11.5V0.1H0V23.9z M10.5,1.3v21.5H1.2V1.3H10.5z M12.6,0.1v23.7H24V0.1H12.6z M13.9,22.7V1.3h8.9v21.4H13.9z M21,12
	V13h-2.1v2.1h-1.1v-2.2h-2.1v-1.1h2.1v-2h1.1V12H21z M18.3,8.2c-2.4,0-4.3,1.9-4.3,4.3c0,2.4,1.9,4.3,4.3,4.3s4.3-1.9,4.3-4.3
	C22.6,10.1,20.7,8.2,18.3,8.2z M18.3,15.8c-1.9,0-3.3-1.4-3.3-3.3c0-1.8,1.5-3.3,3.3-3.3s3.3,1.5,3.3,3.3
	C21.7,14.4,20.2,15.8,18.3,15.8z"/>
</svg>
