<?xml version="1.0" encoding="utf-8"?>
<!-- Generator: Adobe Illustrator 21.1.0, SVG Export Plug-In . SVG Version: 6.00 Build 0)  -->
<svg version="1.1" id="Layer_1" xmlns="http://www.w3.org/2000/svg" xmlns:xlink="http://www.w3.org/1999/xlink" x="0px" y="0px"
	 viewBox="0 0 24 24" style="enable-background:new 0 0 24 24;" xml:space="preserve">
<path d="M11.5,17.4H9.6v-0.7h1.8v-1.8h0.7v1.8H14v0.7h-1.8v1.8h-0.7V17.4z M8.2,16.9c0-1.9,1.6-3.6,3.6-3.6c2,0,3.6,1.6,3.6,3.6
	c0,1.9-1.6,3.6-3.6,3.6S8.2,18.9,8.2,16.9z M11.8,19.9c1.6,0,2.8-1.3,2.8-2.8c0-1.5-1.3-2.8-2.8-2.8C10.3,14.2,9,15.5,9,17
	C9,18.6,10.2,19.9,11.8,19.9z M0,12.2h24v9.6H0V12.2z M0.7,13v8h22.5v-8H0.7z M24,2.3v9.6H0V2.3H24z M23.3,11V3H0.7v8H23.3z"/>
</svg>
