<?xml version="1.0" encoding="utf-8"?>
<!-- Generator: Adobe Illustrator 21.1.0, SVG Export Plug-In . SVG Version: 6.00 Build 0)  -->
<svg version="1.1" id="Layer_1" xmlns="http://www.w3.org/2000/svg" xmlns:xlink="http://www.w3.org/1999/xlink" x="0px" y="0px"
	 viewBox="0 0 24 24" style="enable-background:new 0 0 24 24;" xml:space="preserve">
<path d="M13.2,11.9v1.1H11v2.2H10v-2.2H7.7v-1.1h2.2V9.7h1.1v2.2H13.2z M14.9,12.4c0,2.4-2,4.4-4.4,4.4c-2.4,0-4.4-1.9-4.4-4.4
	c0-2.4,2-4.4,4.4-4.4C12.9,8,14.9,10,14.9,12.4z M13.8,12.4c0-1.8-1.5-3.3-3.3-3.3c-1.8,0-3.3,1.5-3.3,3.3c0,1.8,1.5,3.3,3.3,3.3
	C12.3,15.7,13.8,14.2,13.8,12.4z M16.1,0v24H4.8V0H16.1z M15,22.7V1.3h-9v21.5H15z"/>
</svg>
