<?xml version="1.0" encoding="utf-8"?>
<!-- Generator: Adobe Illustrator 21.1.0, SVG Export Plug-In . SVG Version: 6.00 Build 0)  -->
<svg version="1.1" id="Layer_1" xmlns="http://www.w3.org/2000/svg" xmlns:xlink="http://www.w3.org/1999/xlink" x="0px" y="0px"
	 viewBox="0 0 24 24" style="enable-background:new 0 0 24 24;" xml:space="preserve">
<path d="M0,21.3h24v-9.5H0V21.3z M23.3,12.5v8H0.7v-8H23.3z M11.3,2.9c-2,0-3.6,1.6-3.6,3.6c0,2,1.7,3.7,3.6,3.7
	c2,0,3.6-1.6,3.6-3.6C14.9,4.6,13.3,2.9,11.3,2.9z M14.2,6.5c0,1.5-1.3,2.9-2.9,2.9c-1.6,0-2.9-1.3-2.9-2.9c0-1.5,1.3-2.9,2.9-2.9
	C12.9,3.6,14.2,4.9,14.2,6.5z M0,1.8v9.5h24V1.8H0z M0.7,10.6v-8h22.5v8H0.7z M11.7,6.2h1.9v0.7h-1.9v1.9H11V6.9H9.1V6.2H11V4.3h0.7
	V6.2z"/>
</svg>
