<?xml version="1.0" encoding="utf-8"?>
<!-- Generator: Adobe Illustrator 21.1.0, SVG Export Plug-In . SVG Version: 6.00 Build 0)  -->
<svg version="1.1" id="Layer_1" xmlns="http://www.w3.org/2000/svg" xmlns:xlink="http://www.w3.org/1999/xlink" x="0px" y="0px"
	 viewBox="0 0 24 24" style="enable-background:new 0 0 24 24;" xml:space="preserve">
<path d="M9.5,12.2v-1h1.9V9.5h0.7v0.2h0.1v1.5H14v1h-1.8V14h-1v-1.8H9.5z M24,6.9v9.9H0V6.9H24z M23,15.8V7.8H1v7.9H23z M15.5,11.8
	c0,2-1.7,3.7-3.7,3.7c-2,0-3.7-1.7-3.7-3.7c0-2,1.7-3.7,3.7-3.7C13.8,8.1,15.5,9.8,15.5,11.8z M9.1,11.8c0,1.5,1.2,2.7,2.7,2.7
	c1.5,0,2.7-1.2,2.7-2.7c0-1.5-1.2-2.7-2.7-2.7C10.3,9.1,9.1,10.3,9.1,11.8z"/>
</svg>
