<?xml version="1.0" encoding="UTF-8"?>
<svg xmlns="http://www.w3.org/2000/svg" xmlns:xlink="http://www.w3.org/1999/xlink" width="24pt" height="24pt" viewBox="0 0 24 24" version="1.1">
<g id="surface1">
<path style=" stroke:none;fill-rule:nonzero;fill:rgb(0%,0%,0%);fill-opacity:1;" d="M 12.542969 0 C 12.324219 -0.105469 12.109375 0 11.890625 0.105469 L 5.046875 6.441406 L 0.59375 6.441406 C 0.269531 6.441406 0.0507812 6.648438 0.0507812 7.066406 L 0.0507812 16.414062 C 0.0507812 16.726562 0.269531 16.933594 0.59375 16.933594 L 4.941406 16.933594 L 11.890625 23.792969 C 12 23.894531 12.109375 24 12.324219 24 C 12.433594 24 12.433594 24 12.542969 24 C 12.761719 23.894531 12.867188 23.6875 12.867188 23.480469 L 12.867188 0.625 C 12.976562 0.3125 12.761719 0.105469 12.542969 0 Z M 11.78125 22.027344 L 5.699219 16 C 5.589844 15.894531 5.484375 15.792969 5.265625 15.792969 L 1.246094 15.792969 L 1.246094 7.585938 L 5.265625 7.585938 C 5.375 7.585938 5.589844 7.480469 5.699219 7.375 L 11.78125 1.871094 Z M 22.210938 16.832031 C 20.582031 18.804688 18.300781 20.15625 15.691406 20.46875 L 15.585938 19.324219 C 17.867188 19.011719 19.929688 17.972656 21.339844 16.207031 C 22.535156 14.648438 23.078125 12.675781 22.863281 10.910156 C 22.320312 7.792969 19.277344 5.296875 15.691406 4.882812 L 15.800781 3.742188 C 19.929688 4.15625 23.40625 7.066406 24.058594 10.703125 C 24.164062 12.777344 23.621094 15.066406 22.210938 16.832031 Z M 19.058594 15.167969 C 18.082031 16.105469 16.777344 16.625 15.476562 16.625 L 15.476562 15.480469 C 16.5625 15.480469 17.539062 15.066406 18.191406 14.335938 C 18.84375 13.609375 19.277344 12.777344 19.167969 11.84375 C 19.058594 10.078125 17.539062 8.625 15.585938 8.625 L 15.585938 7.480469 C 18.082031 7.585938 20.144531 9.453125 20.363281 11.84375 C 20.363281 12.988281 19.929688 14.234375 19.058594 15.167969 Z M 19.058594 15.167969 "/>
</g>
</svg>
