<?xml version="1.0" encoding="utf-8"?>
<!-- Generator: Adobe Illustrator 21.1.0, SVG Export Plug-In . SVG Version: 6.00 Build 0)  -->
<svg version="1.1" id="Layer_1" xmlns="http://www.w3.org/2000/svg" xmlns:xlink="http://www.w3.org/1999/xlink" x="0px" y="0px"
	 viewBox="0 0 24 24" style="enable-background:new 0 0 24 24;" xml:space="preserve">
<path d="M18.4,5.9H6c-3.3,0-6,2.7-6,6c0,3.3,2.7,6,6,6h12c3.1,0,5.8-2.4,6-5.6v-0.4C24,8.8,21.5,6.1,18.4,5.9z M12.1,12
	c0,1.8,0.9,3.5,2.3,4.7H6.1c-2.6,0-4.7-2.1-4.7-4.7c0-2.5,2.1-4.7,4.7-4.7h8.3C12.9,8.5,12.1,10.2,12.1,12z M20.8,15.8L20.6,16h-0.1
	l-0.1,0c-0.8,0.5-1.7,0.7-2.5,0.7c-2.5,0-4.7-2.1-4.7-4.7c0-2.5,2.1-4.7,4.7-4.7c0.9,0,1.8,0.3,2.6,0.8l0.2,0.2
	c1.1,0.8,1.8,2.2,1.8,3.6C22.6,13.5,21.9,15,20.8,15.8z"/>
</svg>
