<?xml version="1.0" encoding="utf-8"?>
<!-- Generator: Adobe Illustrator 21.1.0, SVG Export Plug-In . SVG Version: 6.00 Build 0)  -->
<svg version="1.1" id="Layer_1" xmlns="http://www.w3.org/2000/svg" xmlns:xlink="http://www.w3.org/1999/xlink" x="0px" y="0px"
	 viewBox="0 0 24 24" style="enable-background:new 0 0 24 24;" xml:space="preserve">
<path d="M12,0C5.4,0,0,5.4,0,12s5.4,12,12,12s12-5.4,12-12S18.6,0,12,0z M12,16.5c-2.4,0-4.5-2-4.5-4.5s2-4.5,4.5-4.5s4.5,2,4.5,4.5
	S14.4,16.5,12,16.5z M6.8,14.8c1,1.9,3.1,3.1,5.2,3.1c1.4,0,2.7-0.5,3.8-1.4l3.3,3.3c-1.9,1.8-4.5,2.9-7.1,2.9
	c-4-0.1-7.5-2.3-9.3-5.7L6.8,14.8z M16.8,15.4c0.7-1,1.1-2.2,1.1-3.4c0-2.7-1.8-5-4.4-5.7V1.6c5.2,0.8,9,5.2,9,10.4
	c0,2.5-0.8,4.8-2.4,6.7L16.8,15.4z M6.3,13.3L6.3,13.3l-4.2,2.2c-0.4-1.2-0.6-2.4-0.6-3.5C1.5,6.2,6.2,1.5,12,1.5h0.1v4.6H12
	c-3.3,0-5.9,2.7-5.9,5.9C6.1,12.5,6.2,12.9,6.3,13.3z"/>
</svg>
