<?xml version="1.0" encoding="utf-8"?>
<!-- Generator: Adobe Illustrator 21.1.0, SVG Export Plug-In . SVG Version: 6.00 Build 0)  -->
<svg version="1.1" id="Layer_1" xmlns="http://www.w3.org/2000/svg" xmlns:xlink="http://www.w3.org/1999/xlink" x="0px" y="0px"
	 viewBox="0 0 24 24" style="enable-background:new 0 0 24 24;" xml:space="preserve">
<path d="M23.2,3H0.9C0.3,3,0,3.3,0,3.8v16.5C0,20.7,0.3,21,0.9,21h22.3c0.5,0,0.8-0.3,0.8-0.8V3.8C24,3.3,23.7,3,23.2,3z M18.4,4.6
	c0-0.2,0-0.3,0.4-0.3c0.1,0,0.3,0.1,0.3,0.3C19.1,4.8,19,5,18.8,5C18.7,5,18.4,4.9,18.4,4.6z M20.2,4.6c0-0.2,0-0.3,0.4-0.3
	c0.3,0,0.3,0.1,0.3,0.3c0,0.2-0.1,0.4-0.3,0.4C20.4,5,20.2,4.9,20.2,4.6z M22.5,6.4v12.9c0,0.2-0.1,0.3-0.3,0.3H1.7
	c-0.2,0-0.4-0.1-0.4-0.3V6.4C1.3,6.3,1.4,6,1.7,6h20.5C22.3,6,22.5,6,22.5,6.4z M22.1,4.6c0-0.3,0.1-0.3,0.3-0.3
	c0.2,0,0.3,0.1,0.3,0.3c0,0.2-0.1,0.4-0.3,0.4C22.3,5,22.1,5,22.1,4.6z M16.1,9l1.2,1.2l-6.8,6.5l-3.7-3.7L8,11.9l2.6,2.6L16.1,9z"
	/>
</svg>
