<?xml version="1.0" encoding="utf-8"?>
<!-- Generator: Adobe Illustrator 21.1.0, SVG Export Plug-In . SVG Version: 6.00 Build 0)  -->
<svg version="1.1" id="Layer_1" xmlns="http://www.w3.org/2000/svg" xmlns:xlink="http://www.w3.org/1999/xlink" x="0px" y="0px"
	 viewBox="0 0 24 24" style="enable-background:new 0 0 24 24;" xml:space="preserve">
<path d="M3.2,19.2c0.1,0.1,1.5,2.3,1.5,3.2c0,0.9-0.7,1.6-1.6,1.6c-1,0-1.7-0.7-1.7-1.6c0-0.9,1.6-3.1,1.6-3.2L3.2,19L3.2,19.2z
	 M21.8,4.6l-3.1,3.2l0.9,0.9c0.5,0.5,0.5,1.4,0,1.9C19.3,10.8,19,11,18.7,11c-0.4,0-0.8-0.1-1.1-0.4l-1-1l-7.8,7.8l-3.6,1.9
	l-1.6-1.6l1.8-3.9L13.1,6l-1-1c-0.2-0.2-0.4-0.6-0.4-1c0-0.4,0.1-0.7,0.4-1c0.2-0.3,0.5-0.4,0.8-0.4c0.4,0,0.8,0.1,1.1,0.4l0.9,0.9
	l3.2-3.2C18.5,0.3,19.1,0,19.9,0c0.7,0,1.3,0.2,1.8,0.8l0.1,0.1c0.5,0.4,0.8,1.1,0.8,1.9C22.6,3.5,22.4,4.1,21.8,4.6z M8,16.1
	l7.7-7.6L14.2,7l-7.6,7.6l-1.2,2.7l0.1,0.1L8,16.1z"/>
</svg>
