<?xml version="1.0" encoding="UTF-8"?>
<svg xmlns="http://www.w3.org/2000/svg" xmlns:xlink="http://www.w3.org/1999/xlink" width="24pt" height="24pt" viewBox="0 0 24 24" version="1.1">
<g id="surface1">
<path style=" stroke:none;fill-rule:nonzero;fill:rgb(0%,0%,0%);fill-opacity:1;" d="M 7.417969 12.871094 L 0.21875 12.871094 L 0.21875 7.855469 L 7.308594 7.855469 L 7.308594 12.871094 Z M 0.871094 12.21875 L 6.871094 12.21875 L 6.871094 8.507812 L 0.871094 8.507812 Z M 15.054688 12.871094 L 7.855469 12.871094 L 7.855469 7.855469 L 14.945312 7.855469 L 14.945312 12.871094 Z M 8.507812 12.21875 L 14.507812 12.21875 L 14.507812 8.507812 L 8.507812 8.507812 Z M 22.691406 12.871094 L 15.601562 12.871094 L 15.601562 7.855469 L 22.691406 7.855469 Z M 16.144531 12.21875 L 22.144531 12.21875 L 22.144531 8.507812 L 16.144531 8.507812 Z M 16.144531 12.21875 "/>
<path style=" stroke:none;fill-rule:nonzero;fill:rgb(0%,0%,0%);fill-opacity:1;" d="M 5.453125 10.910156 L 2.183594 10.910156 L 2.183594 9.816406 L 5.453125 9.816406 Z M 13.089844 9.816406 L 9.816406 9.816406 L 9.816406 10.910156 L 13.089844 10.910156 Z M 20.726562 9.816406 L 17.453125 9.816406 L 17.453125 10.910156 L 20.726562 10.910156 Z M 20.726562 9.816406 "/>
</g>
</svg>
