<?xml version="1.0" encoding="UTF-8"?>
<svg xmlns="http://www.w3.org/2000/svg" xmlns:xlink="http://www.w3.org/1999/xlink" width="24pt" height="24pt" viewBox="0 0 24 24" version="1.1">
<g id="surface1">
<path style=" stroke:none;fill-rule:nonzero;fill:rgb(0%,0%,0%);fill-opacity:1;" d="M 12 0 C 5.34375 0 0 5.34375 0 12 C 0 18.65625 5.34375 24 12 24 C 18.65625 24 24 18.65625 24 12 C 24 5.34375 18.65625 0 12 0 Z M 23.019531 12 C 23.019531 14.726562 22.035156 17.238281 20.289062 19.199219 L 16.582031 15.492188 C 17.34375 14.507812 17.78125 13.308594 17.78125 12 C 17.78125 9.273438 15.925781 6.980469 13.308594 6.328125 L 13.308594 1.089844 C 18.761719 1.746094 23.019531 6.328125 23.019531 12 Z M 7.199219 12 C 7.199219 9.382812 9.382812 7.199219 12 7.199219 C 14.617188 7.199219 16.800781 9.382812 16.800781 12 C 16.800781 14.617188 14.617188 16.800781 12 16.800781 C 9.382812 16.800781 7.199219 14.617188 7.199219 12 Z M 12 0.980469 C 12.109375 0.980469 12.21875 0.980469 12.328125 0.980469 L 12.328125 6.21875 C 12.21875 6.21875 12.109375 6.21875 12 6.21875 C 8.835938 6.21875 6.21875 8.835938 6.21875 12 C 6.21875 12.546875 6.328125 12.980469 6.4375 13.527344 L 1.746094 15.925781 C 1.308594 14.726562 0.980469 13.308594 0.980469 12 C 0.980469 5.890625 5.890625 0.980469 12 0.980469 Z M 2.183594 16.910156 L 6.761719 14.507812 C 7.636719 16.363281 9.710938 17.78125 12 17.78125 C 13.527344 17.78125 14.945312 17.128906 15.925781 16.253906 L 19.636719 19.964844 C 17.671875 21.925781 14.945312 23.128906 12 23.128906 C 7.636719 23.019531 3.925781 20.507812 2.183594 16.910156 Z M 2.183594 16.910156 "/>
</g>
</svg>
