<?xml version="1.0" encoding="utf-8"?>
<!-- Generator: Adobe Illustrator 21.1.0, SVG Export Plug-In . SVG Version: 6.00 Build 0)  -->
<svg version="1.1" id="Layer_1" xmlns="http://www.w3.org/2000/svg" xmlns:xlink="http://www.w3.org/1999/xlink" x="0px" y="0px"
	 viewBox="0 0 24 24" style="enable-background:new 0 0 24 24;" xml:space="preserve">
<path d="M22.2,16.9L22.2,16.9c-1.7,2-4,3.3-6.5,3.6l-0.1,0l-0.1-1.4l0.1,0c2.3-0.3,4.3-1.4,5.6-3c1.1-1.5,1.7-3.4,1.5-5.1
	c-0.5-3-3.5-5.4-7-5.9l-0.1,0l0.1-1.4l0.1,0c4.1,0.4,7.6,3.4,8.3,7C24.2,13,23.5,15.2,22.2,16.9z M13,0.8v22.6
	c0,0.3-0.1,0.5-0.4,0.6l0,0h-0.2c-0.3,0-0.4-0.1-0.5-0.2L5,17H0.7c-0.4,0-0.7-0.3-0.7-0.6V7.1c0-0.5,0.3-0.7,0.7-0.7h4.4l6.8-6.3
	C12.1,0,12.3-0.1,12.6,0C12.9,0.2,13.1,0.5,13,0.8z M5.9,7.5C5.7,7.6,5.5,7.8,5.3,7.8H1.5v7.9h3.9c0.3,0,0.4,0.1,0.5,0.2l5.8,5.8
	V2.3L5.9,7.5z M19.1,15.2L19.1,15.2c0.8-0.9,1.3-2.1,1.3-3.4c-0.2-2.4-2.3-4.3-4.8-4.4l-0.1,0v1.4h0.1c1.8,0,3.3,1.3,3.4,3.1
	c0.1,0.8-0.2,1.6-0.9,2.4c-0.6,0.7-1.6,1.1-2.6,1.1h-0.1v1.4h0.1C16.8,16.7,18.1,16.2,19.1,15.2z"/>
</svg>
