<?xml version="1.0" encoding="UTF-8"?>
<svg xmlns="http://www.w3.org/2000/svg" xmlns:xlink="http://www.w3.org/1999/xlink" width="24pt" height="24pt" viewBox="0 0 24 24" version="1.1">
<g id="surface1">
<path style=" stroke:none;fill-rule:nonzero;fill:rgb(0%,0%,0%);fill-opacity:1;" d="M 21.710938 16.582031 L 19.855469 14.507812 L 17.890625 16.253906 L 18.546875 17.019531 L 19.308594 16.363281 C 18.980469 19.964844 16.035156 22.800781 12.4375 23.128906 L 12.4375 8.617188 L 16.582031 8.617188 L 16.582031 7.636719 L 12.4375 7.636719 L 12.4375 4.363281 C 13.417969 4.144531 14.183594 3.273438 14.183594 2.183594 C 14.183594 0.980469 13.199219 0 12 0 C 10.800781 0 9.816406 0.980469 9.816406 2.183594 C 9.816406 3.273438 10.582031 4.144531 11.5625 4.363281 L 11.5625 7.636719 L 7.308594 7.636719 L 7.308594 8.617188 L 11.453125 8.617188 L 11.453125 23.019531 C 7.855469 22.691406 4.910156 19.855469 4.582031 16.253906 L 5.453125 16.910156 L 6.109375 16.144531 L 4.144531 14.398438 L 2.289062 16.472656 L 3.054688 17.128906 L 3.710938 16.363281 C 4.144531 20.507812 7.527344 23.890625 11.890625 24 C 11.890625 24 12 24 12 24 C 12 24 12.109375 24 12.109375 24 C 16.363281 23.890625 19.855469 20.507812 20.289062 16.363281 L 21.054688 17.238281 Z M 12 3.492188 C 11.34375 3.492188 10.800781 2.945312 10.800781 2.289062 C 10.800781 1.636719 11.34375 1.089844 12 1.089844 C 12.65625 1.089844 13.199219 1.636719 13.199219 2.289062 C 13.199219 2.945312 12.65625 3.492188 12 3.492188 Z M 12 3.492188 "/>
</g>
</svg>
