<?xml version="1.0" encoding="UTF-8"?>
<svg xmlns="http://www.w3.org/2000/svg" xmlns:xlink="http://www.w3.org/1999/xlink" width="24pt" height="24pt" viewBox="0 0 24 24" version="1.1">
<g id="surface1">
<path style=" stroke:none;fill-rule:nonzero;fill:rgb(0%,0%,0%);fill-opacity:1;" d="M 12.4375 24 C 12.328125 24 12.109375 23.890625 12 23.78125 L 5.453125 13.308594 C 5.34375 13.199219 5.34375 13.089844 5.238281 12.980469 L 5.128906 12.761719 C 5.128906 12.761719 5.128906 12.761719 5.128906 12.65625 C 4.363281 11.34375 4.035156 9.925781 4.035156 8.507812 C 3.925781 3.816406 7.746094 0 12.4375 0 C 17.128906 0 20.945312 3.816406 20.945312 8.507812 C 20.945312 9.925781 20.617188 11.34375 19.855469 12.65625 C 19.855469 12.65625 19.855469 12.65625 19.855469 12.761719 L 19.636719 12.871094 C 19.527344 12.980469 19.527344 13.089844 19.417969 13.308594 L 12.871094 23.78125 C 12.761719 23.890625 12.546875 24 12.4375 24 Z M 5.890625 12.21875 L 6 12.4375 C 6.109375 12.546875 6.109375 12.65625 6.21875 12.761719 L 12.4375 22.691406 L 18.65625 12.871094 C 18.761719 12.761719 18.761719 12.65625 18.871094 12.546875 L 18.980469 12.328125 C 19.636719 11.238281 19.964844 9.925781 19.964844 8.617188 C 19.964844 4.472656 16.582031 1.089844 12.4375 1.089844 C 8.289062 1.089844 4.910156 4.253906 4.910156 8.398438 C 4.910156 9.710938 5.238281 11.019531 5.890625 12.21875 C 5.890625 12.109375 5.890625 12.109375 5.890625 12.21875 Z M 5.890625 12.21875 "/>
<path style=" stroke:none;fill-rule:nonzero;fill:rgb(0%,0%,0%);fill-opacity:1;" d="M 12.546875 11.890625 C 10.363281 11.890625 8.617188 10.144531 8.617188 7.964844 C 8.617188 5.78125 10.363281 4.035156 12.546875 4.035156 C 14.726562 4.035156 16.363281 5.78125 16.363281 7.964844 C 16.363281 10.144531 14.617188 11.890625 12.546875 11.890625 Z M 12.546875 5.019531 C 10.910156 5.019531 9.601562 6.328125 9.601562 7.964844 C 9.601562 9.601562 10.910156 10.910156 12.546875 10.910156 C 14.183594 10.910156 15.492188 9.601562 15.492188 7.964844 C 15.492188 6.328125 14.074219 5.019531 12.546875 5.019531 Z M 12.546875 5.019531 "/>
</g>
</svg>
