<?xml version="1.0" encoding="UTF-8"?>
<svg xmlns="http://www.w3.org/2000/svg" xmlns:xlink="http://www.w3.org/1999/xlink" width="24pt" height="24pt" viewBox="0 0 24 24" version="1.1">
<g id="surface1">
<path style=" stroke:none;fill-rule:nonzero;fill:rgb(0%,0%,0%);fill-opacity:1;" d="M 11.949219 0 C 5.378906 0 0 5.378906 0 12.050781 C 0 18.621094 5.378906 24 11.949219 24 C 12.347656 24 13.542969 23.902344 13.542969 23.902344 L 13.542969 13.542969 L 23.800781 13.644531 C 23.800781 13.644531 23.902344 12.25 23.902344 11.949219 C 23.902344 5.378906 18.523438 0 11.949219 0 Z M 22.707031 12.546875 L 12.347656 12.449219 L 12.347656 22.804688 C 12.25 22.804688 12.050781 22.804688 11.949219 22.804688 C 6.074219 22.804688 1.195312 17.824219 1.195312 11.949219 C 1.195312 6.074219 6.074219 1.195312 11.949219 1.195312 C 17.925781 1.195312 22.804688 6.074219 22.707031 12.050781 C 22.707031 12.148438 22.707031 12.347656 22.707031 12.546875 Z M 14.640625 14.640625 L 23.601562 14.640625 C 23.601562 14.640625 23.601562 14.839844 23.601562 15.039062 C 22.804688 18.621094 19.617188 22.605469 15.238281 23.601562 C 14.839844 23.703125 14.640625 23.703125 14.640625 23.703125 Z M 14.640625 14.640625 "/>
</g>
</svg>
