<?xml version="1.0" encoding="UTF-8"?>
<svg xmlns="http://www.w3.org/2000/svg" xmlns:xlink="http://www.w3.org/1999/xlink" width="24pt" height="24pt" viewBox="0 0 24 24" version="1.1">
<g id="surface1">
<path style=" stroke:none;fill-rule:nonzero;fill:rgb(0%,0%,0%);fill-opacity:1;" d="M 6.871094 8.183594 C 7.089844 8.183594 7.308594 7.964844 7.308594 7.746094 C 7.308594 7.527344 7.089844 7.308594 6.871094 7.308594 C 6.328125 7.308594 5.78125 7.527344 5.453125 7.964844 C 5.128906 7.636719 4.582031 7.308594 4.035156 7.308594 C 3.816406 7.308594 3.601562 7.527344 3.601562 7.746094 C 3.601562 7.964844 3.816406 8.183594 4.035156 8.183594 C 4.363281 8.183594 5.019531 8.183594 5.019531 9.710938 L 5.019531 14.289062 C 5.019531 15.816406 4.363281 15.816406 4.035156 15.816406 C 3.816406 15.816406 3.601562 16.035156 3.601562 16.253906 C 3.601562 16.472656 3.816406 16.691406 4.035156 16.691406 C 4.582031 16.691406 5.128906 16.472656 5.453125 16.035156 C 5.78125 16.472656 6.328125 16.691406 6.871094 16.691406 C 7.089844 16.691406 7.308594 16.472656 7.308594 16.253906 C 7.308594 16.035156 7.089844 15.816406 6.871094 15.816406 C 6.546875 15.816406 5.890625 15.816406 5.890625 14.289062 L 5.890625 9.710938 C 5.890625 8.183594 6.546875 8.183594 6.871094 8.183594 Z M 22.144531 3.601562 L 1.855469 3.601562 C 0.761719 3.601562 0 4.363281 0 5.34375 L 0 18.546875 C 0 19.527344 0.761719 20.398438 1.855469 20.398438 L 22.253906 20.398438 C 23.238281 20.398438 24.109375 19.636719 24.109375 18.546875 L 24.109375 5.34375 C 24 4.363281 23.238281 3.601562 22.144531 3.601562 Z M 23.128906 18.65625 C 23.128906 19.199219 22.691406 19.636719 22.144531 19.636719 L 1.855469 19.636719 C 1.308594 19.636719 0.871094 19.199219 0.871094 18.65625 L 0.871094 5.34375 C 0.871094 4.800781 1.308594 4.363281 1.855469 4.363281 L 22.253906 4.363281 C 22.800781 4.363281 23.238281 4.800781 23.238281 5.34375 L 23.238281 18.65625 Z M 23.128906 18.65625 "/>
</g>
</svg>
