<?xml version="1.0" encoding="utf-8"?>
<!-- Generator: Adobe Illustrator 21.1.0, SVG Export Plug-In . SVG Version: 6.00 Build 0)  -->
<svg version="1.1" id="Layer_1" xmlns="http://www.w3.org/2000/svg" xmlns:xlink="http://www.w3.org/1999/xlink" x="0px" y="0px"
	 viewBox="0 0 24 24" style="enable-background:new 0 0 24 24;" xml:space="preserve">
<path d="M20.1,7.2H3.9C1.8,7.2,0,9,0,11.1S1.8,15,3.9,15h16.2c2.1,0,3.9-1.7,3.9-3.9S22.3,7.2,20.1,7.2z M15,8.6v4.9H8.9V8.6H15z
	 M1.4,11.1c0-1.4,1.1-2.5,2.5-2.5h3.4v4.9H3.9C2.6,13.6,1.4,12.5,1.4,11.1z M20.1,13.6h-3.6V8.6h3.6c1.4,0,2.5,1.1,2.5,2.5
	S21.5,13.6,20.1,13.6z"/>
</svg>
