<?xml version="1.0" encoding="utf-8"?>
<!-- Generator: Adobe Illustrator 21.1.0, SVG Export Plug-In . SVG Version: 6.00 Build 0)  -->
<svg version="1.1" id="Layer_1" xmlns="http://www.w3.org/2000/svg" xmlns:xlink="http://www.w3.org/1999/xlink" x="0px" y="0px"
	 viewBox="0 0 24 24" style="enable-background:new 0 0 24 24;" xml:space="preserve">
<path d="M12.7,12l3.9,3.4l-0.9,1l-4.4-3.9V4.1h1.3V12z M24,11.6v0.9c-0.2,6.4-5.2,11.4-11.6,11.6h-0.9C5.2,23.8,0.2,18.8,0,12.4
	v-0.9C0.2,5.2,5.2,0.2,11.6,0h0.9C18.8,0.2,23.8,5.2,24,11.6z M21.7,12.7v-1.3h0.7C22.1,6,18,1.9,12.7,1.6v0.7h-1.3V1.6
	c-5.2,0.3-9.4,4.5-9.8,9.8h0.7v1.3H1.6c0.3,5.2,4.5,9.4,9.8,9.8v-0.7h1.3v0.7c5.3-0.3,9.4-4.5,9.8-9.8H21.7z"/>
</svg>
