<?xml version="1.0" encoding="UTF-8"?>
<svg xmlns="http://www.w3.org/2000/svg" xmlns:xlink="http://www.w3.org/1999/xlink" width="24pt" height="24pt" viewBox="0 0 24 24" version="1.1">
<g id="surface1">
<path style=" stroke:none;fill-rule:nonzero;fill:rgb(0%,0%,0%);fill-opacity:1;" d="M 23.671875 9.21875 L 22.363281 7.910156 C 22.035156 7.691406 21.164062 7.144531 20.398438 7.910156 L 17.78125 10.527344 L 17.78125 4.308594 L 14.398438 0.164062 L 0 0.164062 L 0 23.835938 L 17.78125 23.835938 L 17.78125 16.964844 L 23.5625 11.289062 C 24.109375 10.746094 24.109375 9.871094 23.671875 9.21875 Z M 13.964844 1.144531 L 16.910156 4.746094 L 16.910156 5.183594 L 13.964844 5.183594 Z M 16.910156 22.964844 L 0.871094 22.964844 L 0.871094 1.035156 L 13.089844 1.035156 L 13.089844 6.054688 L 16.910156 6.054688 L 16.910156 11.398438 L 11.671875 16.636719 C 11.671875 16.746094 11.5625 16.746094 11.5625 16.855469 L 10.582031 20.453125 C 10.472656 20.5625 10.582031 20.78125 10.691406 20.890625 C 10.800781 21 11.019531 21 11.128906 21 L 14.726562 20.019531 C 14.835938 20.019531 14.835938 20.019531 14.945312 19.910156 L 16.144531 18.710938 L 16.800781 17.945312 L 16.910156 17.835938 Z M 11.890625 18.164062 L 13.417969 19.691406 L 11.34375 20.238281 Z M 16.910156 16.746094 L 16.144531 17.507812 L 14.398438 19.253906 L 12.4375 17.289062 L 19.636719 10.089844 L 21.601562 12.054688 Z M 23.019531 10.636719 L 22.253906 11.398438 L 20.289062 9.328125 L 21.054688 8.5625 C 21.273438 8.34375 21.492188 8.34375 21.710938 8.5625 L 23.128906 9.980469 C 23.238281 10.089844 23.238281 10.417969 23.019531 10.636719 Z M 23.019531 10.636719 "/>
</g>
</svg>
