<?xml version="1.0" encoding="UTF-8"?>
<svg xmlns="http://www.w3.org/2000/svg" xmlns:xlink="http://www.w3.org/1999/xlink" width="24pt" height="24pt" viewBox="0 0 24 24" version="1.1">
<g id="surface1">
<path style=" stroke:none;fill-rule:nonzero;fill:rgb(0%,0%,0%);fill-opacity:1;" d="M 7.199219 0.148438 L 3.273438 0.148438 C 3.054688 0.148438 2.945312 0.75 2.945312 1.050781 L 2.945312 16.050781 C 2.945312 16.351562 3.054688 16.351562 3.054688 16.648438 L 4.910156 23.550781 C 5.019531 23.851562 5.128906 23.851562 5.238281 23.851562 C 5.34375 23.851562 5.453125 23.550781 5.5625 23.25 L 7.417969 16.351562 C 7.527344 16.351562 7.527344 16.050781 7.527344 15.75 L 7.527344 1.050781 C 7.527344 0.75 7.417969 0.148438 7.199219 0.148438 Z M 6.328125 14.851562 L 5.238281 18.449219 C 5.238281 18.75 5.238281 18.75 5.128906 18.75 L 5.019531 18.449219 L 4.035156 15.148438 L 4.035156 7.351562 C 4.035156 7.050781 4.144531 6.75 4.253906 6.75 L 6.21875 6.75 C 6.328125 6.75 6.4375 7.050781 6.4375 7.351562 Z M 0 11.25 L 2.398438 11.25 L 2.398438 12.75 L 0 12.75 Z M 4.691406 11.25 L 5.890625 11.25 L 5.890625 12.75 L 4.691406 12.75 Z M 24 11.25 L 24 12.75 L 8.183594 12.75 L 8.183594 11.25 Z M 24 11.25 "/>
</g>
</svg>
