<?xml version="1.0" encoding="utf-8"?>
<!-- Generator: Adobe Illustrator 21.1.0, SVG Export Plug-In . SVG Version: 6.00 Build 0)  -->
<svg version="1.1" id="Layer_1" xmlns="http://www.w3.org/2000/svg" xmlns:xlink="http://www.w3.org/1999/xlink" x="0px" y="0px"
	 viewBox="0 0 24 24" style="enable-background:new 0 0 24 24;" xml:space="preserve">
<path d="M7.3,6.2L1.8,12l5.4,5.8c0.1,0.1,0.2,0.2,0.2,0.4c0,0.2,0,0.5-0.2,0.6C7,19,6.8,19,6.7,19c-0.1,0-0.3,0-0.5-0.2l-6-6.3
	C0.1,12.4,0,12.3,0,12.1c0-0.2,0-0.5,0.2-0.6l6-6.3C6.2,5.1,6.4,5,6.5,5C6.7,5,7,5,7.1,5.2c0.1,0.1,0.2,0.2,0.2,0.3
	C7.4,5.7,7.4,5.9,7.3,6.2L7.3,6.2z M23.9,11.6l-6-6.4C17.7,5,17.4,4.9,17.2,5c-0.2,0-0.3,0.1-0.4,0.2c-0.2,0.2-0.2,0.4-0.2,0.6
	c0,0.2,0.1,0.3,0.2,0.4l5.5,5.8l-5.5,5.8c-0.2,0.2-0.3,0.4-0.2,0.6c0,0.2,0.1,0.3,0.3,0.4C17,19,17.2,19,17.3,19
	c0.1,0,0.3,0,0.5-0.2l6-6.3l0-0.1C24,12.1,24,11.9,23.9,11.6z"/>
</svg>
