<?xml version="1.0" encoding="utf-8"?>
<!-- Generator: Adobe Illustrator 21.1.0, SVG Export Plug-In . SVG Version: 6.00 Build 0)  -->
<svg version="1.1" id="Layer_1" xmlns="http://www.w3.org/2000/svg" xmlns:xlink="http://www.w3.org/1999/xlink" x="0px" y="0px"
	 viewBox="0 0 24 24" style="enable-background:new 0 0 24 24;" xml:space="preserve">
<path d="M23.3,0H0.7C0.3,0,0,0.3,0,0.7v22.7C0,23.7,0.3,24,0.7,24h22.7c0.4,0,0.7-0.3,0.7-0.7V0.7C24,0.3,23.7,0,23.3,0z M22.7,1.3
	v21.3H1.3V1.3H22.7z M21.8,9.1H8.3V8.2h13.5V9.1z M21.8,6.9H8.3V6h13.5V6.9z M6.3,13H2.2v6.2h4.1V13z M2.7,18.1v-4.4h2.9v4.4H2.7z
	 M6.3,4.3H2.2v6.2h4.1V4.3z M2.7,9.5V5.1h2.9v4.4H2.7z M21.8,15.4H8.3v-0.9h13.5V15.4z M21.8,17.3H8.3v-0.9h13.5V17.3z"/>
</svg>
