<?xml version="1.0" encoding="UTF-8"?>
<svg xmlns="http://www.w3.org/2000/svg" xmlns:xlink="http://www.w3.org/1999/xlink" width="24pt" height="24pt" viewBox="0 0 24 24" version="1.1">
<g id="surface1">
<path style=" stroke:none;fill-rule:nonzero;fill:rgb(0%,0%,0%);fill-opacity:1;" d="M 3.308594 5.128906 L 3.308594 23.726562 C 3.308594 23.832031 3.417969 23.933594 3.527344 23.933594 L 16.5625 23.933594 C 16.671875 23.933594 16.777344 23.832031 16.777344 23.726562 L 16.777344 5.128906 C 16.777344 5.027344 16.671875 4.921875 16.5625 4.921875 L 3.527344 4.921875 C 3.417969 4.921875 3.308594 5.027344 3.308594 5.128906 Z M 3.746094 5.441406 L 16.34375 5.441406 L 16.34375 23.519531 L 3.746094 23.519531 Z M 3.746094 5.441406 "/>
<path style=" stroke:none;fill-rule:nonzero;fill:rgb(0%,0%,0%);fill-opacity:1;" d="M 18.84375 3.050781 L 18.84375 21.648438 C 18.84375 21.753906 18.734375 21.859375 18.625 21.859375 L 16.34375 21.859375 C 16.453125 21.648438 16.34375 21.546875 16.34375 21.339844 L 18.515625 21.339844 L 18.515625 3.261719 L 5.917969 3.261719 L 5.917969 5.339844 C 5.808594 5.339844 5.699219 5.339844 5.589844 5.339844 L 5.589844 3.050781 C 5.589844 2.949219 5.699219 2.84375 5.808594 2.84375 L 18.84375 2.84375 C 18.84375 2.84375 18.84375 2.949219 18.84375 3.050781 Z M 18.84375 3.050781 "/>
<path style=" stroke:none;fill-rule:nonzero;fill:rgb(0%,0%,0%);fill-opacity:1;" d="M 16.777344 13.296875 C 16.777344 13.296875 16.777344 13.402344 16.777344 13.296875 C 16.777344 13.402344 16.777344 13.402344 16.777344 13.296875 L 16.5625 13.507812 C 16.5625 13.609375 16.453125 13.609375 16.453125 13.609375 C 16.453125 13.507812 16.453125 13.507812 16.453125 13.507812 C 16.34375 13.507812 16.34375 13.402344 16.34375 13.402344 L 13.738281 10.910156 L 11.457031 13.195312 C 11.347656 13.296875 11.238281 13.296875 11.238281 13.195312 L 7.765625 9.972656 L 3.960938 13.296875 C 3.855469 13.296875 3.855469 13.402344 3.855469 13.402344 C 3.855469 13.402344 3.746094 13.402344 3.746094 13.507812 C 3.746094 13.507812 3.746094 13.507812 3.746094 13.609375 C 3.746094 13.609375 3.746094 13.609375 3.636719 13.609375 L 3.636719 13.195312 L 3.746094 13.089844 C 3.960938 12.988281 4.070312 12.777344 4.289062 12.675781 L 7.65625 9.664062 L 7.765625 9.558594 C 7.871094 9.558594 7.871094 9.558594 7.980469 9.664062 L 11.457031 12.988281 L 13.738281 10.703125 C 13.847656 10.597656 13.957031 10.597656 13.957031 10.703125 L 16.34375 12.988281 C 16.453125 13.089844 16.5625 13.195312 16.777344 13.296875 Z M 16.777344 13.296875 "/>
<path style=" stroke:none;fill-rule:nonzero;fill:rgb(0%,0%,0%);fill-opacity:1;" d="M 3.308594 5.089844 L 3.308594 15.273438 C 3.308594 15.273438 3.417969 15.375 3.527344 15.375 L 16.5625 15.375 C 16.671875 15.375 16.777344 15.375 16.777344 15.273438 L 16.777344 5.089844 C 16.777344 5.089844 16.671875 4.988281 16.5625 4.988281 L 3.527344 4.988281 C 3.417969 4.988281 3.308594 4.988281 3.308594 5.089844 Z M 3.746094 5.195312 L 16.453125 5.195312 L 16.453125 15.167969 L 3.746094 15.167969 Z M 3.746094 5.195312 "/>
<path style=" stroke:none;fill-rule:nonzero;fill:rgb(0%,0%,0%);fill-opacity:1;" d="M 10.804688 9.558594 C 11.457031 9.558594 11.457031 8.726562 10.804688 8.726562 C 10.261719 8.625 10.261719 9.558594 10.804688 9.558594 Z M 10.804688 9.558594 "/>
<path style=" stroke:none;fill-rule:nonzero;fill:rgb(0%,0%,0%);fill-opacity:1;" d="M 9.175781 17.453125 L 4.832031 17.453125 L 4.832031 16.933594 L 9.175781 16.933594 Z M 9.175781 17.453125 "/>
<path style=" stroke:none;fill-rule:nonzero;fill:rgb(0%,0%,0%);fill-opacity:1;" d="M 13.738281 19.53125 L 4.832031 19.53125 L 4.832031 19.011719 L 13.738281 19.011719 Z M 13.738281 19.53125 "/>
</g>
</svg>
