<?xml version="1.0" encoding="utf-8"?>
<!-- Generator: Adobe Illustrator 21.1.0, SVG Export Plug-In . SVG Version: 6.00 Build 0)  -->
<svg version="1.1" id="Layer_1" xmlns="http://www.w3.org/2000/svg" xmlns:xlink="http://www.w3.org/1999/xlink" x="0px" y="0px"
	 viewBox="0 0 24 24" style="enable-background:new 0 0 24 24;" xml:space="preserve">
<path d="M21.2,5.9c0.2,0.3,0.5,0.7,0.5,1.1c0,0.4-0.1,0.9-0.4,1.1l-1,0.9c-0.1,0.1-0.3,0.2-0.4,0.1c-0.1,0-0.1-0.1-0.2-0.2
	c-0.1-0.1-0.1-0.3-0.1-0.4c0-0.1,0.1-0.1,0.2-0.2l0.8-0.8c0.2-0.2,0.2-0.3,0.2-0.6c0-0.2-0.1-0.4-0.2-0.6c-0.2-0.2-0.3-0.2-0.6-0.2
	c-0.2,0-0.4,0.1-0.6,0.2l-1.4,1.4c-0.2,0.2-0.2,0.3-0.2,0.6c0,0.2,0.1,0.4,0.2,0.6l0.2,0.2c0.1,0.1,0.2,0.2,0.2,0.4c0,0,0,0,0,0.1
	h0.1c0.1-0.2,0.2-0.3,0.2-0.5c0-0.2-0.1-0.4-0.2-0.6c-0.1-0.1-0.1-0.1-0.2-0.2c-0.1,0-0.2-0.2-0.2-0.4V7.8l0.1-0.1
	c0.1-0.1,0.2-0.2,0.4-0.2h0.1l0.1,0.1c0.1,0.1,0.2,0.1,0.3,0.2l0.1,0c0.2,0.2,0.5,0.7,0.5,1.1c0,0.2,0,0.8-0.5,1.2l-0.1,0.1
	c-0.4,0.4-1,1-1.4,1.4c-0.2,0.2-0.7,0.5-1.1,0.5c-0.2,0-0.8,0-1.2-0.5c-0.2-0.2-0.4-0.6-0.4-1.1c0-0.4,0.1-0.9,0.4-1.1l0.9-0.9
	c0.1-0.1,0.3-0.2,0.4-0.1c0.1,0,0.1,0.1,0.2,0.2c0.1,0.1,0.1,0.3,0.1,0.4c0,0.1-0.1,0.1-0.2,0.2l-0.8,0.8c-0.2,0.2-0.2,0.3-0.2,0.6
	c0,0.2,0.1,0.4,0.2,0.6c0.2,0.2,0.3,0.2,0.6,0.2c0.2,0,0.4-0.1,0.6-0.2c0.4-0.4,0.8-0.8,1.2-1.2c0,0,0,0,0,0h-0.2l-0.1-0.1
	c0,0,0,0-0.1-0.1c-0.1,0-0.1-0.1-0.2-0.2C17.2,9.4,17,8.9,17,8.5c0-0.4,0.1-0.9,0.4-1.1l1.5-1.5c0.3-0.4,0.8-0.5,1.1-0.5
	C20.2,5.3,20.8,5.4,21.2,5.9z M24,8.9c0,2-1.1,3.7-2.1,4.7V19h-8.8l-2.1,2.1L8.8,19H0V5.7h13.2C14.3,4,16.1,3,18.1,3
	C21.3,3,24,5.6,24,8.9z M12.7,6.7H1v2.1h11.3C12.3,8.1,12.5,7.4,12.7,6.7z M23,8.9C23,6.3,20.7,4,18.1,4c-2.6,0-4.9,2.2-4.9,4.9
	c0,2.6,2.2,4.9,4.9,4.9c0.9,0,1.8-0.3,2.6-0.8l0.1-0.1C22.2,12.1,23,10.5,23,8.9z M0.9,18h8.2l1.7,1.7l1.6-1.7h8.2v-3.7
	c-0.6,0.3-1.5,0.6-2.5,0.6c-2.9,0-5.3-2.1-5.8-4.9H0.9V18z M14.5,14.4c-0.1-0.1-0.2-0.2-0.3-0.3c-0.2-0.2-0.5-0.4-0.5-0.6l-0.1-0.2
	H1.8v1.5h13.1L14.5,14.4z M12.5,11.3c-0.3-0.3-0.4-0.4-0.5-0.6L12,10.5H1.8v1.2h11.1L12.5,11.3z"/>
</svg>
