<?xml version="1.0" encoding="utf-8"?>
<!-- Generator: Adobe Illustrator 21.1.0, SVG Export Plug-In . SVG Version: 6.00 Build 0)  -->
<svg version="1.1" id="Layer_1" xmlns="http://www.w3.org/2000/svg" xmlns:xlink="http://www.w3.org/1999/xlink" x="0px" y="0px"
	 viewBox="0 0 24 24" style="enable-background:new 0 0 24 24;" xml:space="preserve">
<path d="M19.7,14.1l-2.3,2l1,1.1l0.4-0.4c-0.6,3-3,5.3-6.2,5.7V8.9h4.1V7.5h-4.1V4.7c1-0.3,1.7-1.2,1.7-2.3C14.4,1.1,13.3,0,12,0
	S9.6,1.1,9.6,2.4c0,1.1,0.7,2,1.7,2.3v2.8H7.2v1.5h4.1v13.6c-3.1-0.4-5.6-2.8-6.2-5.8l0.6,0.4L6.6,16l-2.3-2l-2.1,2.4l1.1,1l0.4-0.5
	c0.7,4,4.1,7.1,8.2,7.2H12h0.1c4.1-0.1,7.5-3.1,8.2-7.2l0.6,0.6l1-1L19.7,14.1z M12,1.6c0.5,0,0.9,0.4,0.9,0.9
	c0,0.5-0.4,0.9-0.9,0.9S11.1,3,11.1,2.5C11.1,2,11.5,1.6,12,1.6z"/>
</svg>
