<?xml version="1.0" encoding="utf-8"?>
<!-- Generator: Adobe Illustrator 21.1.0, SVG Export Plug-In . SVG Version: 6.00 Build 0)  -->
<svg version="1.1" id="Layer_1" xmlns="http://www.w3.org/2000/svg" xmlns:xlink="http://www.w3.org/1999/xlink" x="0px" y="0px"
	 viewBox="0 0 24 24" style="enable-background:new 0 0 24 24;" xml:space="preserve">
<path d="M-0.1,6.2v12.7h0.3h11.4h12.1v-0.3h0.1V6.2H-0.1z M23,18H11.7V7.2H23V18z M19.1,14.7h-0.9V9.9c0,0,0,0,0.1,0h1l1.4,2.2
	c0.1,0.1,0.2,0.3,0.2,0.4c0-0.2,0-0.4,0-0.7v-2h1v4.9h-0.4v0l0,0H21l-1.5-2.4c-0.1-0.2-0.3-0.4-0.4-0.6V14.7z M15.6,14.7
	c1.4,0,2.3-1,2.3-2.5c0-1.4-0.9-2.4-2.2-2.5c-1.4,0-2.3,1-2.3,2.5C13.4,13.7,14.3,14.7,15.6,14.7z M15.7,10.6c0.9,0,1.2,0.8,1.2,1.5
	c0,0.8-0.4,1.6-1.2,1.6c-0.8,0-1.2-0.8-1.2-1.5C14.5,11.9,14.6,10.6,15.7,10.6z"/>
</svg>
