<?xml version="1.0" encoding="utf-8"?>
<!-- Generator: Adobe Illustrator 21.1.0, SVG Export Plug-In . SVG Version: 6.00 Build 0)  -->
<svg version="1.1" id="Layer_1" xmlns="http://www.w3.org/2000/svg" xmlns:xlink="http://www.w3.org/1999/xlink" x="0px" y="0px"
	 viewBox="0 0 24 24" style="enable-background:new 0 0 24 24;" xml:space="preserve">
<path d="M5.4,6.9H4.6c-0.1,0-0.1,0-0.1,0H4.3l-1.9,5.7h1.2l0.5-1.7h1.5l0.6,1.7h1.2L5.4,6.9z M4.4,9.9l0.3-1.2c0,0,0-0.1,0-0.1
	c0,0,0,0,0,0l0.5,1.3H4.4z M10.4,11c0-1,0.7-1.7,1.7-1.7c0.2,0,0.4,0.1,0.6,0.1c0,0,0.1,0,0.1,0l0.3,0l-0.3,1l-0.3-0.3
	c0,0-0.3,0-0.4,0c-0.7,0-0.7,0.5-0.7,0.7c0,0.5,0.3,0.7,0.6,0.7c0.1,0,0.2,0,0.3-0.1s0.2-0.1,0.3-0.1h0.2l0.4,0.7l-0.1,0.1
	c-0.2,0.2-0.5,0.2-0.9,0.2C11,12.6,10.4,11.9,10.4,11z M8.2,12.5c0.2,0.1,0.4,0.1,0.6,0.1c0.7,0,1.5-0.4,1.5-1.7
	c0-0.9-0.6-1.6-1.4-1.6c-0.3,0-0.5,0-0.6,0.1V8.1H7.4v4.4L8.2,12.5L8.2,12.5z M8.4,11.5v-0.9c0-0.3,0.2-0.4,0.4-0.4
	c0.3,0,0.5,0.3,0.5,0.7c0,0.8-0.4,0.8-0.5,0.8C8.7,11.8,8.5,11.6,8.4,11.5L8.4,11.5z M23.4,4.4H0.6C0.2,4.4,0,4.6,0,5v10.8
	c0,0.4,0.2,0.6,0.6,0.6h23.1v-0.2c0.2-0.1,0.3-0.3,0.3-0.5V5C24,4.6,23.8,4.4,23.4,4.4z M22.8,5.6v9.6H1.2V5.6H22.8z M17.6,13.6
	l-3-5.2V8.4c0-0.2,0-0.3,0.2-0.4l0.1-0.1h6.1L17.6,13.6z"/>
</svg>
