<?xml version="1.0" encoding="utf-8"?>
<!-- Generator: Adobe Illustrator 21.1.0, SVG Export Plug-In . SVG Version: 6.00 Build 0)  -->
<svg version="1.1" id="Layer_1" xmlns="http://www.w3.org/2000/svg" xmlns:xlink="http://www.w3.org/1999/xlink" x="0px" y="0px"
	 viewBox="0 0 24 24" style="enable-background:new 0 0 24 24;" xml:space="preserve">
<path d="M20.8,16.8h-3.6v3.3h3.6V16.8z M19.6,18v1h-1.1v-1H19.6z M20.8,12.5h-3.6v3.3h3.6V12.5z M19.6,13.7v1h-1.1v-1H19.6z
	 M20.8,8.2h-3.6v3.3h3.6V8.2z M19.6,9.4v1h-1.1v-1H19.6z M11.4,16.8H7.8v3.3h3.6V16.8z M10.2,18v1h-1v-1H10.2z M16.1,8.2h-3.6v3.3
	h3.6V8.2z M14.9,9.4v1h-1.1v-1H14.9z M19.9,1.7V1h-0.8V0.3H18V1h-0.8v0.7H6.7V0.9H5.9V0.2H4.6v0.7H3.8v0.7H0v22h24V1.7H19.9z
	 M22.5,6.5v16H1.2l0.1-16H22.5z M4.6,4.4V5h1.3V4.4h0.8V2.9h10.5v1.4H18v0.7h1.2V4.3h0.8V2.8h2.6v2.3H1.2V2.9h2.6v1.5H4.6z
	 M11.4,12.5H7.8v3.3h3.6V12.5z M10.2,13.7v1h-1v-1H10.2z M6.7,8.2H3.1v3.3h3.6V8.2z M5.4,9.4v1h-1v-1H5.4z M11.4,8.2H7.8v3.3h3.6
	V8.2z M10.2,9.4v1h-1v-1H10.2z M16.1,12.5h-3.6v3.3h3.6V12.5z M14.9,13.7v1h-1.1v-1H14.9z M6.7,16.8H3.1v3.3h3.6V16.8z M5.4,18v1h-1
	v-1H5.4z M6.7,12.5H3.1v3.3h3.6V12.5z M5.4,13.7v1h-1v-1H5.4z M16.1,16.8h-3.6v3.3h3.6V16.8z M14.9,18v1h-1.1v-1H14.9z"/>
</svg>
