<?xml version="1.0" encoding="utf-8"?>
<!-- Generator: Adobe Illustrator 21.1.0, SVG Export Plug-In . SVG Version: 6.00 Build 0)  -->
<svg version="1.1" id="Layer_1" xmlns="http://www.w3.org/2000/svg" xmlns:xlink="http://www.w3.org/1999/xlink" x="0px" y="0px"
	 viewBox="0 0 24 24" style="enable-background:new 0 0 24 24;" xml:space="preserve">
<g id="surface1">
	<path d="M12,0C5.3,0,0,5.3,0,12s5.3,12,12,12s12-5.3,12-12S18.7,0,12,0z M12,22.6C6.1,22.6,1.4,17.8,1.4,12C1.4,6.1,6.2,1.4,12,1.4
		S22.6,6.2,22.6,12C22.6,17.9,17.9,22.6,12,22.6z M10.8,5.9c-0.2-0.2-0.5-0.2-0.8-0.1C9.7,5.9,9.6,6.1,9.6,6.3v11.2
		c0,0.3,0.2,0.5,0.4,0.7c0.1,0,0.2,0,0.2,0c0.2,0,0.3-0.1,0.4-0.2l5.7-5.7c0.2-0.2,0.2-0.7,0-1L10.8,5.9z M10.9,15.9V8.1l3.9,3.9
		L10.9,15.9z"/>
</g>
</svg>
