<?xml version="1.0" encoding="UTF-8"?>
<svg xmlns="http://www.w3.org/2000/svg" xmlns:xlink="http://www.w3.org/1999/xlink" width="24pt" height="24pt" viewBox="0 0 24 24" version="1.1">
<g id="surface1">
<path style=" stroke:none;fill-rule:nonzero;fill:rgb(0%,0%,0%);fill-opacity:1;" d="M 0 3.601562 L 0 20.398438 C 0 20.726562 0.21875 20.945312 0.65625 20.945312 L 23.453125 20.945312 C 23.78125 20.945312 24 20.726562 24 20.398438 L 24 3.601562 C 24 3.273438 23.78125 3.054688 23.453125 3.054688 L 0.65625 3.054688 C 0.21875 3.054688 0 3.273438 0 3.601562 Z M 19.527344 4.472656 C 19.527344 4.800781 19.308594 5.128906 18.980469 5.128906 C 18.65625 5.128906 18.328125 4.910156 18.328125 4.472656 C 18.328125 4.035156 18.546875 3.925781 18.980469 3.925781 C 19.199219 3.925781 19.527344 4.144531 19.527344 4.472656 Z M 21.273438 4.472656 C 21.273438 4.800781 21.054688 5.128906 20.726562 5.128906 C 20.398438 5.128906 20.074219 4.910156 20.074219 4.472656 C 20.074219 4.035156 20.289062 3.925781 20.726562 3.925781 C 21.164062 3.925781 21.273438 4.144531 21.273438 4.472656 Z M 23.128906 4.472656 C 23.128906 4.800781 22.910156 5.128906 22.582031 5.128906 C 22.253906 5.128906 22.035156 4.910156 22.035156 4.472656 C 22.035156 4.035156 22.253906 3.925781 22.582031 3.925781 C 22.910156 3.925781 23.128906 4.144531 23.128906 4.472656 Z M 0.871094 6.328125 C 0.871094 6 1.089844 5.671875 1.527344 5.671875 L 22.472656 5.671875 C 22.800781 5.671875 23.019531 5.890625 23.019531 6.328125 L 23.019531 19.527344 C 23.019531 19.855469 22.800781 20.074219 22.472656 20.074219 L 1.527344 20.074219 C 1.199219 20.074219 0.871094 19.855469 0.871094 19.527344 Z M 10.472656 16.472656 L 7.089844 13.089844 L 7.964844 12.21875 L 10.582031 14.835938 L 16.144531 9.273438 L 17.019531 10.144531 Z M 10.472656 16.472656 "/>
</g>
</svg>
