<?xml version="1.0" encoding="utf-8"?>
<!-- Generator: Adobe Illustrator 21.1.0, SVG Export Plug-In . SVG Version: 6.00 Build 0)  -->
<svg version="1.1" id="Layer_1" xmlns="http://www.w3.org/2000/svg" xmlns:xlink="http://www.w3.org/1999/xlink" x="0px" y="0px"
	 viewBox="0 0 24 24" style="enable-background:new 0 0 24 24;" xml:space="preserve">
<path d="M14.3,7.8c0,0.2-0.1,0.5-0.2,0.6c-0.2,0.2-0.4,0.3-0.7,0.3c-0.6,0-0.9-0.5-0.9-0.9c0-0.2,0.1-0.5,0.2-0.6
	c0.2-0.2,0.4-0.3,0.6-0.3C14,6.9,14.3,7.4,14.3,7.8z M24,12c0,6.6-5.4,12-12,12c-5.2,0-9.6-3.3-11.3-8H0.5v-0.4
	C0.2,14.5,0,13.3,0,12C0,5.4,5.4,0,12,0S24,5.4,24,12z M22.1,15.6l-4.2-4.2l-3.8,4c-0.2,0.2-0.5,0.2-0.6,0L7.7,9.7l-5.9,5.4
	c1.3,4.4,5.4,7.6,10.2,7.6C16.6,22.7,20.6,19.7,22.1,15.6z M22.3,14.9c0.2-0.9,0.4-1.8,0.4-2.8c0-5.9-4.8-10.7-10.7-10.7
	C6.1,1.4,1.3,6.2,1.3,12c0,0.7,0.1,1.5,0.2,2.2l5.9-5.4h0.1c0.1,0,0.3,0,0.4,0.1l5.8,5.8l3.8-4c0.2-0.2,0.5-0.2,0.6,0L22.3,14.9
	C22.2,14.8,22.3,14.9,22.3,14.9z"/>
</svg>
