<?xml version="1.0" encoding="UTF-8"?>
<svg xmlns="http://www.w3.org/2000/svg" xmlns:xlink="http://www.w3.org/1999/xlink" width="24pt" height="24pt" viewBox="0 0 24 24" version="1.1">
<g id="surface1">
<path style=" stroke:none;fill-rule:nonzero;fill:rgb(0%,0%,0%);fill-opacity:1;" d="M 24 24 L 0 24 L 0 0 L 24 0 Z M 1.089844 22.910156 L 22.910156 22.910156 L 22.910156 1.089844 L 1.089844 1.089844 Z M 19.089844 15.816406 L 4.910156 15.816406 C 4.253906 15.816406 3.710938 15.273438 3.710938 14.617188 L 3.710938 9.492188 C 3.710938 8.835938 4.253906 8.289062 4.910156 8.289062 L 19.089844 8.289062 C 19.746094 8.289062 20.289062 8.835938 20.289062 9.492188 L 20.289062 14.617188 C 20.289062 15.273438 19.746094 15.816406 19.089844 15.816406 Z M 4.910156 8.726562 C 4.582031 8.726562 4.253906 9.054688 4.253906 9.492188 L 4.253906 14.617188 C 4.253906 14.945312 4.582031 15.273438 4.910156 15.273438 L 19.089844 15.273438 C 19.417969 15.273438 19.746094 14.945312 19.746094 14.617188 L 19.746094 9.492188 C 19.746094 9.164062 19.417969 8.835938 19.089844 8.835938 L 4.910156 8.835938 Z M 4.910156 8.726562 "/>
</g>
</svg>
