<?xml version="1.0" encoding="utf-8"?>
<!-- Generator: Adobe Illustrator 21.1.0, SVG Export Plug-In . SVG Version: 6.00 Build 0)  -->
<svg version="1.1" id="Layer_1" xmlns="http://www.w3.org/2000/svg" xmlns:xlink="http://www.w3.org/1999/xlink" x="0px" y="0px"
	 viewBox="0 0 24 24" style="enable-background:new 0 0 24 24;" xml:space="preserve">
<path d="M11.4,9c0-0.5,0.3-0.8,0.8-0.8C12.7,8.3,13,8.6,13,9c0,0.5-0.3,0.8-0.8,0.8C11.7,9.8,11.4,9.5,11.4,9z M12.2,12.5
	c0.5,0,0.8-0.3,0.8-0.8c0-0.5-0.3-0.8-0.8-0.8c-0.5,0-0.8,0.3-0.8,0.8C11.4,12.1,11.7,12.5,12.2,12.5z M12.2,15.2
	c0.5,0,0.8-0.3,0.8-0.8c0-0.5-0.3-0.8-0.8-0.8c-0.5,0-0.8,0.3-0.8,0.8C11.4,14.9,11.7,15.2,12.2,15.2z M14.7,12.5
	c0.5,0,0.8-0.3,0.8-0.8c0-0.5-0.3-0.8-0.8-0.8c-0.3,0-0.6,0.3-0.8,0.7l0,0.1C13.9,12.1,14.3,12.5,14.7,12.5z M9.6,9.8
	c0.4,0,0.7-0.4,0.7-0.8c0-0.4-0.3-0.8-0.7-0.8C9.1,8.3,8.8,8.7,8.8,9C8.8,9.4,9.2,9.8,9.6,9.8z M19.4,18v-2.4c0-0.4-0.3-0.7-0.7-0.7
	c-0.4,0-0.7,0.3-0.7,0.7v3.1l2,1.3h0.3c0.1,0,0.3,0,0.5-0.2c0.1,0,0.2-0.1,0.2-0.2c0.1-0.2,0-0.4-0.2-0.6L19.4,18z M17.4,9.8
	c0.5,0,0.8-0.3,0.8-0.8c0-0.5-0.3-0.8-0.8-0.8c-0.5,0-0.8,0.3-0.8,0.8C16.6,9.5,16.9,9.8,17.4,9.8z M17.4,12.5
	c0.5,0,0.8-0.3,0.8-0.8c0-0.5-0.3-0.8-0.8-0.8c-0.5,0-0.8,0.3-0.8,0.8C16.6,12.1,16.9,12.5,17.4,12.5z M14.7,9.8
	c0.5,0,0.8-0.3,0.8-0.8c0-0.5-0.3-0.8-0.8-0.8c-0.4,0-0.8,0.3-0.8,0.8C13.9,9.5,14.3,9.8,14.7,9.8z M9.6,12.5c0.5,0,0.8-0.3,0.8-0.8
	c0-0.5-0.3-0.8-0.8-0.8c-0.5,0-0.8,0.3-0.8,0.8C8.8,12.1,9.1,12.5,9.6,12.5z M4.5,17.8c0.5,0,0.8-0.3,0.8-0.8c0-0.5-0.3-0.8-0.8-0.8
	c-0.3,0-0.8,0.3-0.8,0.8C3.7,17.5,4,17.8,4.5,17.8z M9.6,15.2c0.5,0,0.8-0.3,0.8-0.8c0-0.5-0.3-0.8-0.8-0.8c-0.5,0-0.8,0.3-0.8,0.8
	C8.8,14.9,9.1,15.2,9.6,15.2z M4.5,12.5c0.5,0,0.8-0.3,0.8-0.8c0-0.5-0.3-0.8-0.8-0.8c-0.4,0-0.7,0.4-0.7,0.8
	C3.8,12.4,4.3,12.5,4.5,12.5z M23.9,18.5c0,2.8-2.3,5.1-5.2,5.1c-1.6,0-3.2-0.8-4.2-2.2H1.9c-1.1,0-2-0.9-2-2V1.8h3.7V1.6
	c0-0.5,0.3-0.8,0.8-0.8s0.8,0.3,0.8,0.8v0.2h4.9V1.6c0-0.5,0.5-0.8,0.8-0.8c0.5,0,0.8,0.3,0.8,0.8v0.2h4.9V1.6
	c0-0.5,0.3-0.8,0.8-0.8c0.5,0,0.8,0.3,0.8,0.8v0.2H22v12.5C23.3,15.3,24,16.9,23.9,18.5z M22.7,18.4c0-1-0.5-2-1.2-2.8
	c-0.2-0.4-0.4-0.5-0.7-0.6c-0.6-0.3-1.3-0.5-2-0.5c-2.2,0-3.9,1.8-3.9,3.9c0,0.6,0.2,1.3,0.5,1.8c0.1,0.2,0.3,0.5,0.5,0.7l0,0
	c0.7,0.8,1.8,1.3,2.9,1.3C20.9,22.3,22.7,20.6,22.7,18.4z M20.6,5.9H1.2v13.6c0,0.3,0.2,0.6,0.6,0.6h12c-0.2-0.5-0.3-1-0.3-1.7
	c0-1.2,0.4-2.4,1.1-3.2c-0.5,0-0.8-0.3-0.8-0.8l0-0.1c0.1-0.4,0.4-0.7,0.8-0.7c0.5,0,0.8,0.3,0.8,0.8c0,0,0,0,0,0
	c0.9-0.7,2-1.1,3.2-1.1c0.7,0,1.3,0.1,1.8,0.3V5.9z M3.8,3.3V3.1H1.2v1.6h19.5V3.1h-2.6v0.2c0,0.5-0.3,0.8-0.8,0.8
	c-0.5,0-0.8-0.3-0.8-0.8V3.1h-4.9v0.2c0,0.5-0.3,0.8-0.8,0.8c-0.5,0-0.8-0.3-0.8-0.8V3.1H5.3v0.2c0,0.7-0.5,0.8-0.7,0.8
	C4.1,4.1,3.8,3.7,3.8,3.3z M4.5,15.2c0.5,0,0.8-0.3,0.8-0.8c0-0.5-0.3-0.8-0.8-0.8c-0.3,0-0.6,0.3-0.8,0.7l0,0.1
	C3.7,14.9,4,15.2,4.5,15.2z M7.1,12.5c0.5,0,0.8-0.3,0.8-0.8c0-0.5-0.3-0.8-0.8-0.8c-0.5,0-0.8,0.3-0.8,0.8
	C6.3,12.1,6.6,12.5,7.1,12.5z M7.1,17.8c0.5,0,0.8-0.3,0.8-0.8c0-0.5-0.3-0.8-0.8-0.8c-0.5,0-0.8,0.3-0.8,0.8
	C6.3,17.5,6.6,17.8,7.1,17.8z M9.6,17.8c0.4,0,0.8-0.3,0.8-0.8c0-0.5-0.3-0.8-0.8-0.8c-0.5,0-0.8,0.3-0.8,0.8
	C8.8,17.5,9.3,17.8,9.6,17.8z M7.1,15.2c0.5,0,0.8-0.3,0.8-0.8c0-0.5-0.3-0.8-0.8-0.8c-0.5,0-0.8,0.3-0.8,0.8
	C6.3,14.9,6.6,15.2,7.1,15.2z"/>
</svg>
