<?xml version="1.0" encoding="utf-8"?>
<!-- Generator: Adobe Illustrator 21.1.0, SVG Export Plug-In . SVG Version: 6.00 Build 0)  -->
<svg version="1.1" id="Layer_1" xmlns="http://www.w3.org/2000/svg" xmlns:xlink="http://www.w3.org/1999/xlink" x="0px" y="0px"
	 viewBox="0 0 24 24" style="enable-background:new 0 0 24 24;" xml:space="preserve">
<path d="M18.9,8.1H5.1c-0.8,0-1.4,0.6-1.4,1.4v5c0,0.8,0.6,1.4,1.4,1.4h13.9c0.8,0,1.4-0.6,1.4-1.4v-5C20.4,8.8,19.7,8.1,18.9,8.1z
	 M19.3,9.5v5c0,0.2-0.2,0.4-0.4,0.4H5.1c-0.2,0-0.4-0.2-0.4-0.4v-5c0-0.2,0.1-0.3,0.2-0.4h14.1C19.1,9.1,19.3,9.4,19.3,9.5z M0,0v24
	h24V0H0z M1.6,22.4V1.6h20.9v20.9H1.6z"/>
</svg>
