<?xml version="1.0" encoding="UTF-8"?>
<svg xmlns="http://www.w3.org/2000/svg" xmlns:xlink="http://www.w3.org/1999/xlink" width="24pt" height="24pt" viewBox="0 0 24 24" version="1.1">
<g id="surface1">
<path style=" stroke:none;fill-rule:nonzero;fill:rgb(0%,0%,0%);fill-opacity:1;" d="M 12 0.0429688 C 5.34375 0.0429688 0 5.386719 0 12.042969 C 0 18.695312 5.34375 24.042969 12 24.042969 C 18.65625 24.042969 24 18.695312 24 12.042969 C 24 5.386719 18.65625 0.0429688 12 0.0429688 Z M 12 1.132812 C 18 1.132812 22.910156 6.042969 22.910156 12.042969 C 22.910156 18.042969 18 22.949219 12 22.949219 C 6 22.949219 1.089844 18.042969 1.089844 12.042969 C 1.089844 6.042969 6 1.132812 12 1.132812 Z M 12 1.132812 "/>
<path style=" stroke:none;fill-rule:nonzero;fill:rgb(0%,0%,0%);fill-opacity:1;" d="M 17.019531 20.441406 C 17.34375 20.441406 17.671875 20.003906 17.5625 19.675781 L 16.691406 14.441406 L 20.398438 10.730469 C 20.617188 10.515625 20.617188 10.078125 20.398438 9.75 C 20.289062 9.640625 20.183594 9.53125 20.074219 9.53125 L 14.835938 8.769531 L 12.4375 4.078125 C 12.21875 3.75 11.890625 3.640625 11.5625 3.75 C 11.453125 3.859375 11.34375 3.96875 11.238281 4.078125 L 8.835938 8.769531 L 3.601562 9.53125 C 3.273438 9.640625 2.945312 9.96875 3.054688 10.296875 C 3.054688 10.40625 3.164062 10.625 3.273438 10.625 L 6.980469 14.332031 L 6.109375 19.570312 C 6 19.894531 6.328125 20.332031 6.65625 20.332031 C 6.761719 20.332031 6.980469 20.332031 7.089844 20.222656 L 11.78125 17.824219 L 16.472656 20.222656 C 16.800781 20.441406 16.910156 20.441406 17.019531 20.441406 Z M 16.144531 18.476562 L 12.328125 16.515625 C 12.109375 16.40625 11.890625 16.40625 11.671875 16.515625 L 7.855469 18.476562 L 8.507812 14.222656 C 8.507812 14.003906 8.507812 13.785156 8.289062 13.675781 L 5.238281 10.625 L 9.492188 9.96875 C 9.710938 9.96875 9.925781 9.75 10.035156 9.640625 L 12 5.824219 L 13.964844 9.640625 C 14.074219 9.859375 14.289062 9.96875 14.507812 9.96875 L 18.761719 10.625 L 15.710938 13.675781 C 15.601562 13.785156 15.492188 14.003906 15.492188 14.222656 C 15.382812 14.222656 16.144531 18.476562 16.144531 18.476562 Z M 16.144531 18.476562 "/>
</g>
</svg>
