<?xml version="1.0" encoding="UTF-8"?>
<svg xmlns="http://www.w3.org/2000/svg" xmlns:xlink="http://www.w3.org/1999/xlink" width="24pt" height="24pt" viewBox="0 0 24 24" version="1.1">
<g id="surface1">
<path style=" stroke:none;fill-rule:nonzero;fill:rgb(0%,0%,0%);fill-opacity:1;" d="M 6.761719 10.800781 C 6.761719 12.65625 5.238281 14.183594 3.382812 14.183594 C 1.527344 14.183594 0 12.65625 0 10.800781 C 0 8.945312 1.527344 7.417969 3.382812 7.417969 C 5.238281 7.417969 6.761719 8.945312 6.761719 10.800781 Z M 6.761719 10.800781 "/>
<path style=" stroke:none;fill-rule:nonzero;fill:rgb(0%,0%,0%);fill-opacity:1;" d="M 13.089844 10.800781 C 13.089844 11.34375 12.65625 11.78125 12.109375 11.78125 C 11.5625 11.78125 11.128906 11.34375 11.128906 10.800781 C 11.128906 10.253906 11.5625 9.816406 12.109375 9.816406 C 12.65625 9.816406 13.089844 10.253906 13.089844 10.800781 Z M 13.089844 10.800781 "/>
<path style=" stroke:none;fill-rule:nonzero;fill:rgb(0%,0%,0%);fill-opacity:1;" d="M 12 14.289062 C 10.035156 14.289062 8.507812 12.761719 8.507812 10.800781 C 8.507812 8.835938 10.035156 7.308594 12 7.308594 C 13.964844 7.308594 15.492188 8.835938 15.492188 10.800781 C 15.492188 12.761719 13.964844 14.289062 12 14.289062 Z M 12 7.636719 C 10.253906 7.636719 8.726562 9.054688 8.726562 10.910156 C 8.726562 12.761719 10.144531 14.183594 12 14.183594 C 13.746094 14.183594 15.273438 12.761719 15.273438 10.910156 C 15.273438 9.054688 13.746094 7.636719 12 7.636719 Z M 12 7.636719 "/>
<path style=" stroke:none;fill-rule:nonzero;fill:rgb(0%,0%,0%);fill-opacity:1;" d="M 20.617188 14.289062 C 18.761719 14.289062 17.238281 12.761719 17.238281 10.910156 C 17.238281 9.054688 18.761719 7.527344 20.617188 7.527344 C 22.472656 7.527344 24 9.054688 24 10.910156 C 24 12.761719 22.472656 14.289062 20.617188 14.289062 Z M 20.617188 7.746094 C 18.871094 7.746094 17.453125 9.164062 17.453125 10.910156 C 17.453125 12.65625 18.871094 14.074219 20.617188 14.074219 C 22.363281 14.074219 23.78125 12.65625 23.78125 10.910156 C 23.78125 9.164062 22.363281 7.746094 20.617188 7.746094 Z M 20.617188 7.746094 "/>
<path style=" stroke:none;fill-rule:nonzero;fill:rgb(0%,0%,0%);fill-opacity:1;" d="M 6.546875 10.910156 L 8.726562 10.910156 M 8.726562 10.691406 L 6.546875 10.691406 L 6.546875 11.238281 L 8.726562 11.238281 Z M 8.726562 10.691406 "/>
<path style=" stroke:none;fill-rule:nonzero;fill:rgb(0%,0%,0%);fill-opacity:1;" d="M 15.273438 10.910156 L 17.453125 10.910156 M 17.453125 10.691406 L 15.273438 10.691406 L 15.273438 11.238281 L 17.453125 11.238281 Z M 17.453125 10.691406 "/>
</g>
</svg>
