<?xml version="1.0" encoding="utf-8"?>
<!-- Generator: Adobe Illustrator 21.1.0, SVG Export Plug-In . SVG Version: 6.00 Build 0)  -->
<svg version="1.1" id="Layer_1" xmlns="http://www.w3.org/2000/svg" xmlns:xlink="http://www.w3.org/1999/xlink" x="0px" y="0px"
	 viewBox="0 0 24 24" style="enable-background:new 0 0 24 24;" xml:space="preserve">
<path d="M12,0C5.4,0,0,5.4,0,12s5.4,12,12,12s12-5.4,12-12S18.6,0,12,0z M12,22.5C6.2,22.5,1.6,17.8,1.6,12C1.6,6.3,6.2,1.6,12,1.6
	S22.4,6.3,22.4,12C22.4,17.8,17.8,22.5,12,22.5z M20.4,9.7L20.4,9.7c-0.2-0.2-0.3-0.3-0.5-0.3c0,0,0,0,0,0l-5-0.7l-2.3-4.5
	c-0.3-0.4-0.7-0.6-1.1-0.4l-0.1,0.1c-0.1,0.1-0.2,0.2-0.3,0.3L8.7,8.6l-5,0.7c-0.4,0.1-0.8,0.6-0.7,1c0,0.2,0.1,0.4,0.3,0.5l3.5,3.5
	l-0.8,5c-0.1,0.2,0,0.5,0.1,0.7c0.2,0.2,0.4,0.4,0.6,0.4c0.1,0,0.4,0,0.6-0.1l4.5-2.3l4.5,2.3c0.4,0.2,0.5,0.3,0.7,0.3
	c0.2,0,0.5-0.1,0.6-0.4c0.2-0.2,0.2-0.5,0.1-0.7l-0.8-5l3.5-3.5C20.7,10.6,20.7,10.1,20.4,9.7z M8.8,14.2c0-0.2,0-0.6-0.3-0.7
	l-2.6-2.6l3.7-0.6c0.3,0,0.6-0.3,0.7-0.4L12,6.5l1.7,3.3c0.1,0.3,0.4,0.4,0.7,0.5l3.7,0.6l-2.6,2.6c-0.1,0.1-0.3,0.4-0.3,0.7h0
	c0,0.3,0.1,1,0.6,3.7l-3.3-1.7c-0.3-0.1-0.6-0.1-0.9,0l-3.3,1.7L8.8,14.2z"/>
</svg>
