<?xml version="1.0" encoding="utf-8"?>
<!-- Generator: Adobe Illustrator 21.1.0, SVG Export Plug-In . SVG Version: 6.00 Build 0)  -->
<svg version="1.1" id="Layer_1" xmlns="http://www.w3.org/2000/svg" xmlns:xlink="http://www.w3.org/1999/xlink" x="0px" y="0px"
	 viewBox="0 0 24 24" style="enable-background:new 0 0 24 24;" xml:space="preserve">
<path d="M14.1,11.7c0.1,0.1,0.2,0.4,0.2,0.6v1.9c0,0.2-0.1,0.4-0.4,0.4c-0.2,0-0.4-0.1-0.4-0.4v-1.4l-3.2,3.2
	c-0.1,0.1-0.2,0.1-0.3,0.1c0,0,0,0,0,0c-0.1,0-0.2,0-0.3-0.1c-0.2-0.2-0.2-0.4,0-0.6l3.2-3.2h-1.4c-0.2,0-0.4-0.2-0.4-0.4
	c0-0.2,0.1-0.4,0.4-0.4l2,0C13.8,11.5,14,11.6,14.1,11.7z M18.5,8.5L18.5,8.5l0,8.9c0,0.3-0.2,0.4-0.4,0.4h-12
	c-0.3,0-0.4-0.2-0.4-0.4V8.7c0-0.3,0.2-0.4,0.4-0.4h12C18.2,8.2,18.3,8.3,18.5,8.5z M15.7,9.3c0.1,0,0.2-0.1,0.2-0.2
	c0-0.1-0.2-0.2-0.2-0.2c-0.1,0-0.2,0.1-0.2,0.2S15.5,9.3,15.7,9.3z M16.5,9.3c0.1,0,0.2-0.1,0.2-0.2s-0.1-0.2-0.2-0.2
	s-0.2,0.1-0.2,0.2S16.4,9.3,16.5,9.3z M17.5,9.9h-11c-0.2,0-0.2,0-0.2,0.2V17c0,0.1,0.1,0.2,0.2,0.2h11c0.2,0,0.2,0,0.2-0.2v-6.9
	C17.7,9.9,17.7,9.9,17.5,9.9z M17.5,9.3c0.1,0,0.2-0.2,0.2-0.2c0-0.1-0.1-0.2-0.2-0.2c0,0-0.1,0.1-0.2,0.2
	C17.3,9.2,17.4,9.3,17.5,9.3z M24,3.7v16.6c0,0.4-0.3,0.7-0.7,0.7H0.8C0.3,21,0,20.7,0,20.3V3.7C0,3.3,0.3,3,0.8,3h22.6
	C23.7,3,24,3.3,24,3.7z M18.9,5.1c0.3,0,0.4-0.3,0.4-0.5c0-0.3-0.3-0.4-0.4-0.4c-0.4,0-0.5,0.1-0.5,0.4C18.4,4.9,18.7,5.1,18.9,5.1z
	 M20.6,5.1c0.3,0,0.4-0.3,0.4-0.5c0-0.3-0.1-0.4-0.4-0.4c-0.4,0-0.5,0.1-0.5,0.4C20.1,4.9,20.4,5.1,20.6,5.1z M22.4,5.9H1.6
	c-0.4,0-0.5,0.3-0.5,0.5v13.1c0,0.3,0.3,0.4,0.5,0.4h20.7c0.3,0,0.4-0.2,0.4-0.4V6.4C22.8,6.1,22.7,5.9,22.4,5.9z M22.9,4.6
	c0-0.3-0.2-0.4-0.4-0.4c-0.3,0-0.4,0.1-0.4,0.4c0,0.2,0.1,0.5,0.4,0.5C22.7,5.1,22.9,4.8,22.9,4.6z"/>
</svg>
