<?xml version="1.0" encoding="UTF-8"?>
<svg xmlns="http://www.w3.org/2000/svg" xmlns:xlink="http://www.w3.org/1999/xlink" width="24pt" height="24pt" viewBox="0 0 24 24" version="1.1">
<g id="surface1">
<path style=" stroke:none;fill-rule:nonzero;fill:rgb(0%,0%,0%);fill-opacity:1;" d="M 1.308594 3.203125 C 0.65625 3.203125 0 3.75 0 4.515625 C 0 5.167969 0.546875 5.824219 1.308594 5.824219 L 22.800781 5.824219 C 23.453125 5.824219 24.109375 5.277344 24.109375 4.515625 C 24.109375 3.859375 23.5625 3.203125 22.800781 3.203125 Z M 1.308594 10.730469 C 0.65625 10.730469 0 11.277344 0 12.042969 C 0 12.695312 0.546875 13.351562 1.308594 13.351562 L 22.800781 13.351562 C 23.453125 13.351562 24.109375 12.804688 24.109375 12.042969 C 24.109375 11.386719 23.5625 10.730469 22.800781 10.730469 Z M 1.308594 18.367188 C 0.65625 18.367188 0 18.914062 0 19.675781 C 0 20.332031 0.546875 20.988281 1.308594 20.988281 L 22.800781 20.988281 C 23.453125 20.988281 24.109375 20.441406 24.109375 19.675781 C 24.109375 19.023438 23.5625 18.367188 22.800781 18.367188 Z M 1.308594 18.367188 "/>
</g>
</svg>
