<?xml version="1.0" encoding="utf-8"?>
<!-- Generator: Adobe Illustrator 21.1.0, SVG Export Plug-In . SVG Version: 6.00 Build 0)  -->
<svg version="1.1" id="Layer_1" xmlns="http://www.w3.org/2000/svg" xmlns:xlink="http://www.w3.org/1999/xlink" x="0px" y="0px"
	 viewBox="0 0 24 24" style="enable-background:new 0 0 24 24;" xml:space="preserve">
<path d="M2.2,17.8h6.7v1.5H2.2V17.8z M15,12.6H2.1V8.7H15V12.6z M13.8,9.7H3.1v1.8h10.7V9.7z M15,16.9H2.1V13H15V16.9z M13.8,14.1
	H3.1v1.8h10.7V14.1z M24,4.8c0,2.5-2,4.6-4.5,4.6c-0.9,0-1.8-0.3-2.5-0.8v14c0,0.4-0.3,0.6-0.6,0.6H0.6c-0.4,0-0.6-0.3-0.6-0.6V7.2
	C0,7,0.1,6.8,0.4,6.7l0.2,0h14.7C15.1,6.1,15,5.5,15,4.8c0-2.5,2-4.6,4.5-4.6S24,2.3,24,4.8z M15.9,7.8H1.2v14.3h14.7V7.8z M23,4.8
	c0-2-1.6-3.6-3.5-3.6S16,2.9,16,4.8c0,2,1.6,3.6,3.5,3.6S23,6.8,23,4.8z M21.5,3v3.7c0,0.2-0.1,0.5-0.7,0.8
	c-0.3,0.1-0.8,0.2-1.3,0.2s-0.9-0.1-1.3-0.2c-0.6-0.2-0.7-0.6-0.7-0.8V3c0-0.2,0.1-0.5,0.7-0.8c0.7-0.3,1.9-0.3,2.6,0
	C21.4,2.5,21.5,2.8,21.5,3z M18.2,3c0,0,0.1,0.1,0.3,0.1c0.6,0.2,1.6,0.2,2.1,0C20.7,3.1,20.8,3,20.8,3c0,0-0.1-0.1-0.3-0.1
	c-0.6-0.2-1.6-0.2-2.1,0h0C18.3,2.9,18.2,3,18.2,3z M20.8,6.6l0-0.4c0,0,0,0-0.1,0c-0.7,0.3-1.9,0.3-2.6,0c0,0,0,0,0,0v0.5
	c0,0,0,0,0,0c0,0,0.1,0.1,0.3,0.2C19,7,19.9,7,20.5,6.8L20.6,7c0,0,0,0,0,0c0,0,0,0,0,0l-0.1-0.1C20.8,6.7,20.8,6.6,20.8,6.6z
	 M20.8,5.4l0-0.4c0,0,0,0-0.1,0c-0.7,0.3-1.9,0.3-2.6,0c0,0,0,0,0,0v0.5c0,0,0,0,0,0c0,0,0.1,0.1,0.3,0.2c0.6,0.2,1.6,0.2,2.1,0h0
	C20.8,5.5,20.8,5.4,20.8,5.4z M20.8,4.2l0-0.4c0,0,0,0-0.1,0c-0.7,0.3-1.9,0.3-2.6,0c0,0,0,0,0,0v0.5c0,0,0,0,0,0
	c0,0,0.1,0.1,0.3,0.2c0.6,0.2,1.6,0.2,2.1,0h0C20.8,4.3,20.8,4.2,20.8,4.2z"/>
</svg>
