<?xml version="1.0" encoding="UTF-8"?>
<svg xmlns="http://www.w3.org/2000/svg" xmlns:xlink="http://www.w3.org/1999/xlink" width="24pt" height="24pt" viewBox="0 0 24 24" version="1.1">
<g id="surface1">
<path style=" stroke:none;fill-rule:nonzero;fill:rgb(0%,0%,0%);fill-opacity:1;" d="M 21.164062 7.964844 L 21.164062 5.238281 L 18.328125 5.238281 L 18.328125 2.398438 L 0 2.398438 L 0 16.035156 L 2.835938 16.035156 L 2.835938 18.871094 L 5.671875 18.871094 L 5.671875 21.710938 L 24 21.710938 L 24 7.964844 Z M 0.761719 15.164062 L 0.761719 3.164062 L 17.5625 3.164062 L 17.5625 5.128906 L 2.835938 5.128906 L 2.835938 15.164062 Z M 3.601562 18 L 3.601562 6 L 20.398438 6 L 20.398438 7.964844 L 5.5625 7.964844 L 5.5625 18 Z M 23.238281 20.835938 L 6.4375 20.835938 L 6.4375 8.835938 L 23.238281 8.835938 Z M 23.238281 20.835938 "/>
</g>
</svg>
