<?xml version="1.0" encoding="UTF-8"?>
<svg xmlns="http://www.w3.org/2000/svg" xmlns:xlink="http://www.w3.org/1999/xlink" width="24pt" height="24pt" viewBox="0 0 24 24" version="1.1">
<g id="surface1">
<path style=" stroke:none;fill-rule:nonzero;fill:rgb(0%,0%,0%);fill-opacity:1;" d="M 4.144531 10.691406 L 3.601562 12.328125 L 2.945312 12.328125 L 4.691406 7.199219 L 5.453125 7.199219 L 7.199219 12.328125 L 6.546875 12.328125 L 6 10.691406 Z M 5.890625 10.144531 L 5.34375 8.617188 C 5.238281 8.289062 5.128906 7.964844 5.128906 7.746094 C 5.019531 7.964844 4.910156 8.289062 4.800781 8.617188 L 4.363281 10.144531 Z M 7.855469 12.21875 C 7.855469 12 7.855469 11.78125 7.855469 11.5625 L 7.855469 8.398438 L 8.289062 8.398438 L 8.289062 10.035156 C 8.507812 9.710938 8.726562 9.601562 9.164062 9.601562 C 9.816406 9.601562 10.253906 10.144531 10.253906 10.910156 C 10.253906 11.890625 9.710938 12.328125 9.054688 12.328125 C 8.617188 12.328125 8.398438 12.21875 8.183594 11.78125 L 8.183594 12.21875 Z M 8.289062 11.238281 C 8.289062 11.34375 8.289062 11.34375 8.289062 11.453125 C 8.398438 11.671875 8.726562 12 9.054688 12 C 9.601562 12 9.816406 11.5625 9.816406 10.910156 C 9.816406 10.363281 9.492188 9.925781 9.054688 9.925781 C 8.726562 9.925781 8.398438 10.144531 8.398438 10.582031 C 8.398438 10.582031 8.398438 10.691406 8.398438 10.800781 L 8.398438 11.238281 Z M 12.871094 12.21875 C 12.761719 12.328125 12.4375 12.328125 12.109375 12.328125 C 11.34375 12.328125 10.800781 11.78125 10.800781 11.019531 C 10.800781 10.253906 11.34375 9.601562 12.21875 9.601562 C 12.546875 9.601562 12.761719 9.710938 12.871094 9.710938 L 12.761719 10.035156 C 12.65625 9.925781 12.4375 9.925781 12.21875 9.925781 C 11.5625 9.925781 11.238281 10.363281 11.238281 10.910156 C 11.238281 11.5625 11.671875 11.890625 12.109375 11.890625 C 12.328125 11.890625 12.546875 11.78125 12.65625 11.78125 Z M 12.871094 12.21875 "/>
<path style=" stroke:none;fill-rule:nonzero;fill:rgb(0%,0%,0%);fill-opacity:1;" d="M 23.453125 15.96875 C 23.671875 15.96875 23.78125 15.859375 23.78125 15.640625 L 23.78125 5.058594 C 23.78125 4.839844 23.671875 4.730469 23.453125 4.730469 L 0.871094 4.730469 C 0.65625 4.730469 0.546875 4.839844 0.546875 5.058594 L 0.546875 15.75 C 0.546875 15.96875 0.65625 16.078125 0.871094 16.078125 L 23.453125 16.078125 Z M 23.128906 15.421875 L 1.199219 15.421875 L 1.199219 5.386719 L 23.128906 5.386719 Z M 23.128906 15.421875 "/>
<path style=" stroke:none;fill-rule:nonzero;fill:rgb(0%,0%,0%);fill-opacity:1;" d="M 17.671875 13.089844 L 14.945312 8.398438 C 14.945312 8.289062 14.945312 8.289062 15.054688 8.183594 L 20.507812 8.183594 Z M 17.671875 13.089844 "/>
</g>
</svg>
