<?xml version="1.0" encoding="utf-8"?>
<!-- Generator: Adobe Illustrator 21.1.0, SVG Export Plug-In . SVG Version: 6.00 Build 0)  -->
<svg version="1.1" id="Layer_1" xmlns="http://www.w3.org/2000/svg" xmlns:xlink="http://www.w3.org/1999/xlink" x="0px" y="0px"
	 viewBox="0 0 24 24" style="enable-background:new 0 0 24 24;" xml:space="preserve">
<g id="surface1">
	<path d="M23.8,22.7l-6.4-6.4c1.5-1.7,2.4-4,2.4-6.4c0-2.6-1-5.1-2.9-7C14.9,1,12.5,0,9.9,0c-2.7,0-5.1,1-7,2.9C1,4.8,0,7.2,0,9.9
		c0,2.7,1,5.1,2.9,7c2,1.9,4.4,2.9,7,2.9c2.4,0,4.6-0.9,6.4-2.4l6.4,6.4c0.1,0.1,0.3,0.2,0.5,0.2c0.2,0,0.4-0.1,0.5-0.2
		C24.1,23.5,24.1,23,23.8,22.7z M9.9,18.2c-2.2,0-4.3-0.9-5.9-2.4c-1.6-1.6-2.5-3.7-2.5-5.9c0-2.2,0.9-4.3,2.4-5.9
		c1.6-1.6,3.7-2.5,6-2.5c2.2,0,4.3,0.9,5.9,2.4c1.5,1.5,2.4,3.6,2.4,5.9c0,2.3-0.9,4.3-2.4,5.9C14.2,17.3,12.1,18.2,9.9,18.2z"/>
</g>
</svg>
