<?xml version="1.0" encoding="utf-8"?>
<!-- Generator: Adobe Illustrator 21.1.0, SVG Export Plug-In . SVG Version: 6.00 Build 0)  -->
<svg version="1.1" id="Layer_1" xmlns="http://www.w3.org/2000/svg" xmlns:xlink="http://www.w3.org/1999/xlink" x="0px" y="0px"
	 viewBox="0 0 24 24" style="enable-background:new 0 0 24 24;" xml:space="preserve">
<path d="M19.5,0C17,0,15,2,15,4.5c0,0.8,0.2,1.6,0.6,2.3c-0.2-0.1-0.4-0.1-0.6-0.2C13.4,6.2,11.3,6,9,6S4.6,6.2,3,6.6
	C1,7.1,0,7.7,0,8.6C0,9,0.2,9.3,0.4,9.5l6.1,7.1v6.8c0,0.2,0.1,0.4,0.3,0.5C7,24,7.1,24,7.2,24s0.2,0,0.3-0.1l3.6-1.7
	c0.2-0.1,0.4-0.3,0.4-0.5v-5.1l6.1-7.1C17.8,9.3,17.9,9,18,8.7C18.4,8.9,19,9,19.5,9C22,9,24,7,24,4.5S22,0,19.5,0z M10.5,16.1
	c-0.1,0.1-0.2,0.2-0.2,0.4l-0.1,5.1l-2.6,1.2v-6.2c0-0.2-0.1-0.3-0.2-0.4l-4.7-5.4c1.6,0.4,4.1,0.8,6.2,0.8c2.7,0,4.6-0.4,6.2-0.8
	L10.5,16.1z M16.6,8.8c-0.9,0.5-3.3,1.5-7.6,1.5c-4.3,0-6.5-0.9-7.4-1.3c-0.2-0.2-0.2-0.5,0-0.7C2.5,7.8,4.8,6.9,9,6.9
	c4,0,6.6,1,7.6,1.4C16.7,8.4,16.8,8.7,16.6,8.8z M19.5,8C17.6,8,16,6.4,16,4.5S17.6,1,19.5,1S23,2.6,23,4.5S21.4,8,19.5,8z M20.8,2
	c-0.7-0.3-1.9-0.3-2.6,0c-0.6,0.2-0.7,0.6-0.7,0.8v3.6c0,0.2,0.1,0.5,0.7,0.8c0.4,0.1,0.8,0.2,1.3,0.2s0.9-0.1,1.3-0.2
	c0.6-0.2,0.7-0.6,0.7-0.8V2.7C21.5,2.5,21.4,2.2,20.8,2z M18.4,2.6L18.4,2.6c0.6-0.2,1.6-0.2,2.1,0c0.2,0.1,0.3,0.1,0.3,0.1
	c0,0-0.1,0.1-0.3,0.2c-0.6,0.2-1.6,0.2-2.1,0c-0.2-0.1-0.3-0.1-0.3-0.1C18.2,2.7,18.3,2.6,18.4,2.6z M20.6,6.4l0.1,0.1c0,0,0,0,0,0
	c0,0,0,0,0,0L20.6,6.4c-0.6,0.2-1.6,0.2-2.1,0c-0.2-0.1-0.3-0.2-0.3-0.2c0,0,0,0,0,0V5.8c0,0,0,0,0,0c0.7,0.3,1.9,0.3,2.6,0
	c0,0,0,0,0.1,0l0,0.4C20.8,6.3,20.8,6.3,20.6,6.4z M20.6,5.2L20.6,5.2c-0.6,0.2-1.6,0.2-2.1,0c-0.2-0.1-0.3-0.2-0.3-0.2c0,0,0,0,0,0
	V4.6c0,0,0,0,0,0c0.7,0.3,1.9,0.3,2.6,0c0,0,0,0,0.1,0l0,0.4C20.8,5.1,20.8,5.2,20.6,5.2z M20.6,4.1L20.6,4.1
	c-0.6,0.2-1.6,0.2-2.1,0c-0.2-0.1-0.3-0.2-0.3-0.2c0,0,0,0,0,0V3.4c0,0,0,0,0,0c0.7,0.3,1.9,0.3,2.6,0c0,0,0,0,0.1,0l0,0.4
	C20.8,3.9,20.8,4,20.6,4.1z"/>
</svg>
