<?xml version="1.0" encoding="UTF-8"?>
<svg xmlns="http://www.w3.org/2000/svg" xmlns:xlink="http://www.w3.org/1999/xlink" width="24pt" height="24pt" viewBox="0 0 24 24" version="1.1">
<g id="surface1">
<path style=" stroke:none;fill-rule:nonzero;fill:rgb(0%,0%,0%);fill-opacity:1;" d="M 23.847656 0 L 23.847656 24 L 3.441406 24 L 3.441406 16.191406 L 4.800781 16.191406 L 4.800781 22.855469 L 22.601562 22.855469 L 22.601562 1.144531 L 4.800781 1.144531 L 4.800781 7.714844 L 3.441406 7.714844 L 3.441406 0 Z M 15.570312 12.570312 L 0.152344 12.570312 L 0.152344 11.429688 L 15.683594 11.429688 L 9.789062 8.09375 L 10.582031 7.144531 L 18.292969 11.523438 C 18.519531 11.617188 18.632812 11.808594 18.632812 12 C 18.632812 12.191406 18.519531 12.382812 18.292969 12.476562 L 10.582031 16.855469 L 9.789062 15.90625 Z M 16.59375 12 Z M 16.59375 12 "/>
</g>
</svg>
