<?xml version="1.0" encoding="utf-8"?>
<!-- Generator: Adobe Illustrator 21.1.0, SVG Export Plug-In . SVG Version: 6.00 Build 0)  -->
<svg version="1.1" id="Layer_1" xmlns="http://www.w3.org/2000/svg" xmlns:xlink="http://www.w3.org/1999/xlink" x="0px" y="0px"
	 viewBox="0 0 24 24" style="enable-background:new 0 0 24 24;" xml:space="preserve">
<path d="M17.1,16.3c-0.1-0.2-0.1-0.3,0-0.4c0-0.1,0.1-0.1,0.2-0.1s0.1,0,0.2,0.1l1,1.2c0.1,0.1,0.1,0.1,0.1,0.2c0,0,0,0.1-0.1,0.2
	l-0.1,0.1h-4.8c-0.2,0-0.2-0.1-0.1-0.2c0-0.2,0.1-0.2,0.2-0.2h4.1L17.1,16.3z M18.2,17.8h-4.8l-0.1,0.1c-0.1,0-0.1,0.1-0.1,0.2
	c0,0,0,0.1,0.1,0.2l1,1.2c0,0,0.1,0.1,0.2,0.1s0.1-0.1,0.2-0.1c0.2-0.2,0.2-0.3,0.1-0.4l-0.7-0.8h4.1c0.2,0,0.2-0.1,0.2-0.2
	S18.3,17.6,18.2,17.8z M14.7,9.8H2.1V5.9h12.6V9.8z M13.5,6.8H3v1.9h10.5V6.8z M2.2,16.5h6.4v-1.4H2.2V16.5z M16.6,8.6V14
	c1.9,0.2,3.4,2,3.4,4c0,2.3-1.8,4.2-4.2,4.2c-1.4,0-2.7-0.7-3.4-1.8H0.6c-0.3,0-0.6-0.2-0.6-0.6V4.4c0-0.3,0.3-0.5,0.4-0.5h14.2
	C15,1.7,16.9,0,19.3,0C21.9,0,24,2.1,24,4.7c0,2.6-2.1,4.7-4.7,4.7C18.3,9.4,17.3,9.1,16.6,8.6z M15.6,4.7c0,2,1.6,3.7,3.7,3.7
	S23,6.7,23,4.7c0-2-1.6-3.7-3.7-3.7S15.6,2.7,15.6,4.7z M11.7,18c0-1.8,1.2-3.3,2.8-3.9H2.1v-3.8h12.6V14c0.3-0.1,0.6-0.2,0.9-0.2
	V7.6c-0.6-0.8-1-1.7-1-2.7H1.2v14.4h10.8C11.8,18.9,11.7,18.5,11.7,18z M3,11.2v1.9h10.5v-1.9H3z M15.8,14.8c-1.8,0-3.2,1.4-3.2,3.2
	c0,1.8,1.4,3.2,3.2,3.2c1.8,0,3.2-1.5,3.2-3.2S17.7,14.8,15.8,14.8z M17.2,6.6V2.8c0-0.2,0.1-0.5,0.7-0.8c0.7-0.3,2-0.3,2.7,0
	c0.6,0.2,0.7,0.6,0.7,0.8v3.8c0,0.2-0.1,0.5-0.7,0.8c-0.4,0.1-0.8,0.2-1.4,0.2s-1-0.1-1.4-0.2C17.3,7.1,17.2,6.8,17.2,6.6z
	 M17.9,2.9c0,0,0.1,0.1,0.3,0.1c0.6,0.2,1.6,0.2,2.2,0c0.2-0.1,0.3-0.1,0.3-0.2c0,0-0.1-0.1-0.3-0.1c-0.6-0.2-1.6-0.2-2.2,0h0
	C18,2.8,17.9,2.8,17.9,2.9z M17.9,4.1C17.9,4.1,17.9,4.1,17.9,4.1c0,0,0.1,0.1,0.3,0.2c0.6,0.2,1.6,0.2,2.2,0h0
	c0.3-0.1,0.3-0.2,0.3-0.2l0-0.5c0,0,0,0-0.1,0c-0.7,0.3-2,0.3-2.7,0c0,0,0,0-0.1,0V4.1z M17.9,5.3C17.9,5.3,17.9,5.3,17.9,5.3
	c0,0,0.1,0.1,0.3,0.2c0.6,0.2,1.6,0.2,2.2,0h0c0.3-0.1,0.3-0.2,0.3-0.2l0-0.5c0,0,0,0-0.1,0c-0.7,0.3-2,0.3-2.7,0c0,0,0,0-0.1,0V5.3
	z M17.9,6.6C17.9,6.6,17.9,6.6,17.9,6.6c0,0,0.1,0.1,0.3,0.2c0.6,0.2,1.6,0.2,2.2,0l0.1,0.1c0,0,0,0,0,0c0,0,0,0,0,0l-0.1-0.1
	c0.3-0.1,0.3-0.2,0.3-0.2l0-0.5c0,0,0,0-0.1,0c-0.7,0.3-2,0.3-2.7,0c0,0,0,0-0.1,0V6.6z"/>
</svg>
