<?xml version="1.0" encoding="utf-8"?>
<!-- Generator: Adobe Illustrator 21.1.0, SVG Export Plug-In . SVG Version: 6.00 Build 0)  -->
<svg version="1.1" id="Layer_1" xmlns="http://www.w3.org/2000/svg" xmlns:xlink="http://www.w3.org/1999/xlink" x="0px" y="0px"
	 viewBox="0 0 24 24" style="enable-background:new 0 0 24 24;" xml:space="preserve">
<path d="M7.1,8.7C7,8.4,7,8,7.2,7.8c0.2-0.2,0.4-0.3,0.7-0.2c0,0,0,0,0,0c0.5,0,0.7,0.4,0.7,0.8c0,0.2-0.1,0.4-0.2,0.5
	C8.3,8.9,8.1,9.1,7.8,9.1C7.5,9.1,7.3,8.9,7.1,8.7z M6.5,16h-5v1.2h5V16z M11,18.2H1.6v1.2H11V18.2z M23.7,4.6
	c0,2.5-2.1,4.6-4.6,4.6c-1.2,0-2.3-0.5-3.1-1.2v13.3c0,0.3-0.3,0.6-0.6,0.6H14v1.6c0,0.3-0.3,0.6-0.6,0.6H0.6
	c-0.3,0-0.6-0.3-0.6-0.6V4.1c0-0.1,0-0.3,0.2-0.4c0.1-0.1,0.2-0.2,0.4-0.2h1.7V2c0-0.3,0.3-0.6,0.6-0.6h13c0.8-0.9,2-1.4,3.3-1.4
	C21.7,0,23.7,2.1,23.7,4.6z M12.9,15.1H1.2v7.8h11.8V15.1z M12.9,12.9l-2.2-2.2l-2,2.1c-0.2,0.2-0.4,0.2-0.6,0.2l-0.2-0.1l0-0.1
	l-3.1-3l-3.5,3.2l0,0.2l-0.1,0v1.1h11.8V12.9z M12.9,4.8H1.2v6.9l3.5-3.3h0.1c0.2,0,0.3,0.1,0.5,0.2l3.2,3.2l2-2.1
	c0.2-0.2,0.4-0.2,0.6-0.2l0.2,0.1l0,0.1l1.7,1.7V4.8z M15.1,20.6V6.7c-0.3-0.6-0.5-1.3-0.5-2.1c0-0.7,0.2-1.4,0.5-2.1H3.3v1h10.2
	c0.2,0,0.4,0.1,0.5,0.3L14,3.9l0,0.2v16.5H15.1z M22.7,4.6c0-2-1.6-3.6-3.6-3.6c-2,0-3.6,1.6-3.6,3.6c0,2,1.6,3.6,3.6,3.6
	C21.1,8.2,22.7,6.6,22.7,4.6z M21.2,2.8v3.7c0,0.2-0.1,0.5-0.7,0.8c-0.4,0.1-0.8,0.2-1.3,0.2s-1-0.1-1.3-0.2
	c-0.6-0.2-0.7-0.6-0.7-0.8V2.8c0-0.2,0.1-0.5,0.7-0.8c0.7-0.3,1.9-0.3,2.6,0C21.1,2.2,21.2,2.6,21.2,2.8z M17.8,2.8
	c0,0,0.1,0.1,0.3,0.1c0.6,0.2,1.6,0.2,2.2,0c0.2-0.1,0.3-0.1,0.3-0.2c0,0-0.1-0.1-0.3-0.1c-0.6-0.2-1.6-0.2-2.2,0h0
	C17.9,2.7,17.8,2.8,17.8,2.8z M20.5,6.4l0-0.4c0,0,0,0-0.1,0c-0.7,0.3-1.9,0.3-2.6,0c0,0,0,0-0.1,0v0.5c0,0,0,0,0,0
	c0,0,0.1,0.1,0.3,0.2c0.6,0.2,1.5,0.2,2.1,0l0.1,0.1c0,0,0,0,0,0c0,0,0,0,0,0l-0.1-0.1C20.5,6.5,20.5,6.4,20.5,6.4z M20.5,5.2l0-0.4
	c0,0,0,0-0.1,0c-0.7,0.3-1.9,0.3-2.6,0c0,0,0,0-0.1,0v0.5c0,0,0,0,0,0c0,0,0.1,0.1,0.3,0.2c0.6,0.2,1.6,0.2,2.2,0h0
	C20.5,5.3,20.5,5.2,20.5,5.2z M20.5,4l0-0.4c0,0,0,0-0.1,0c-0.7,0.3-1.9,0.3-2.6,0c0,0,0,0-0.1,0V4c0,0,0,0,0,0c0,0,0.1,0.1,0.3,0.2
	c0.6,0.2,1.6,0.2,2.2,0h0C20.5,4,20.5,4,20.5,4z"/>
</svg>
