<?xml version="1.0" encoding="utf-8"?>
<!-- Generator: Adobe Illustrator 21.1.0, SVG Export Plug-In . SVG Version: 6.00 Build 0)  -->
<svg version="1.1" id="Layer_1" xmlns="http://www.w3.org/2000/svg" xmlns:xlink="http://www.w3.org/1999/xlink" x="0px" y="0px"
	 viewBox="0 0 24 24" style="enable-background:new 0 0 24 24;" xml:space="preserve">
<path d="M24,20.9c0,0.4-0.3,0.7-0.7,0.7H0.7c-0.4,0-0.7-0.3-0.7-0.7v-18c0-0.3,0.2-0.7,0.7-0.7s0.7,0.4,0.7,0.7v17.3h22
	C23.7,20.2,24,20.5,24,20.9z M3.1,16.6c0.1,0,0.1,0,0.2,0c0.1,0,0.3,0,0.4-0.1l5.5-5l4.5,3.9c0.2,0.2,0.7,0.2,0.9,0l6.5-5.9v2.4
	c0,0.4,0.3,0.7,0.7,0.7c0.4,0,0.7-0.3,0.7-0.7v-4c0-0.4-0.3-0.7-0.7-0.7h-4.2v0.2c-0.2,0.1-0.3,0.4-0.3,0.6c0,0.4,0.4,0.7,0.7,0.7
	h2.2l-5.8,5.4l-4.5-3.9c-0.2-0.2-0.7-0.3-0.9,0l-6,5.3c-0.3,0.3-0.4,0.7-0.1,0.9C2.8,16.5,3,16.6,3.1,16.6z"/>
</svg>
