<?xml version="1.0" encoding="utf-8"?>
<!-- Generator: Adobe Illustrator 21.1.0, SVG Export Plug-In . SVG Version: 6.00 Build 0)  -->
<svg version="1.1" id="Layer_1" xmlns="http://www.w3.org/2000/svg" xmlns:xlink="http://www.w3.org/1999/xlink" x="0px" y="0px"
	 viewBox="0 0 24 24" style="enable-background:new 0 0 24 24;" xml:space="preserve">
<path d="M20.8,2.2V1.6C20.8,0.7,20,0,19.2,0s-1.6,0.7-1.6,1.6v0.6H6.4V1.6C6.4,0.7,5.6,0,4.7,0S3.1,0.7,3.1,1.6v0.6H0V24h24V2.2
	H20.8z M1,7.9v0.4h0L1,7.9L1,7.9z M1.5,22.7V8.7h21.1v13.9H1.5z M22.5,7.4H1.5V3.6h1.6V5h2.8V4.4h0.4V3.7h11.2V5h2.8V4.4h0.4V3.7
	h1.8V7.4z M19.2,1.5c0.1,0,0.2,0.1,0.2,0.2v1.9H19V1.6C19,1.6,19.1,1.5,19.2,1.5z M4.7,1.5c0.1,0,0.2,0.1,0.2,0.2v1.9H4.5V1.6
	C4.5,1.5,4.6,1.5,4.7,1.5z M11.6,11h1.1v7.4h-1.3v-5.8l-1.1,0.6L9.9,12L11.6,11z"/>
</svg>
