<svg width="32" height="33" viewBox="0 0 32 33" fill="none" xmlns="http://www.w3.org/2000/svg">
<path fill-rule="evenodd" clip-rule="evenodd" d="M23.9744 31.6C27.0854 31.6 29.6073 29.078 29.6073 25.967C29.6073 22.856 27.0854 20.3341 23.9744 20.3341C20.8634 20.3341 18.3414 22.856 18.3414 25.967C18.3414 29.078 20.8634 31.6 23.9744 31.6ZM23.9744 33C27.8586 33 31.0073 29.8512 31.0073 25.967C31.0073 22.0828 27.8586 18.9341 23.9744 18.9341C20.0902 18.9341 16.9414 22.0828 16.9414 25.967C16.9414 29.8512 20.0902 33 23.9744 33Z" fill="#959494"/>
<path fill-rule="evenodd" clip-rule="evenodd" d="M24.6183 23.2157V28.9381H23.2183V23.2157H24.6183Z" fill="#959494"/>
<path fill-rule="evenodd" clip-rule="evenodd" d="M21.2231 25.3769H26.613V26.7769H21.2231V25.3769Z" fill="#959494"/>
<path fill-rule="evenodd" clip-rule="evenodd" d="M9.78487 9.91038L6.97169 12.7125L9.78487 15.5367L8.79299 16.5248L5.48579 13.2046C5.35478 13.0731 5.28138 12.8949 5.28174 12.7092C5.2821 12.5236 5.3562 12.3456 5.48774 12.2146L8.79687 8.91849L9.78487 9.91038Z" fill="#959494"/>
<path fill-rule="evenodd" clip-rule="evenodd" d="M18.1704 8.91849L21.4795 12.2146C21.611 12.3456 21.6851 12.5236 21.6855 12.7092C21.6859 12.8949 21.6125 13.0731 21.4815 13.2046L18.1743 16.5248L17.1824 15.5367L19.9956 12.7125L17.1824 9.91038L18.1704 8.91849Z" fill="#959494"/>
<path fill-rule="evenodd" clip-rule="evenodd" d="M16.2829 8.61533L11.9634 18.3342L10.6841 17.7656L15.0036 8.04674L16.2829 8.61533Z" fill="#959494"/>
<path fill-rule="evenodd" clip-rule="evenodd" d="M2.00005 1.7C1.83436 1.7 1.70005 1.83432 1.70005 2V24.9084C1.70005 25.0741 1.83436 25.2084 2.00005 25.2084H17.7862V26.6084H2.00005C1.06117 26.6084 0.300049 25.8473 0.300049 24.9084V2C0.300049 1.06112 1.06116 0.300003 2.00005 0.300003H24.9085C25.8474 0.300003 26.6085 1.06112 26.6085 2V20.2002H25.2085V2C25.2085 1.83432 25.0742 1.7 24.9085 1.7H2.00005Z" fill="#959494"/>
</svg>
