<?xml version="1.0" encoding="UTF-8"?>
<svg xmlns="http://www.w3.org/2000/svg" xmlns:xlink="http://www.w3.org/1999/xlink" width="24pt" height="24pt" viewBox="0 0 24 24" version="1.1">
<g id="surface1">
<path style=" stroke:none;fill-rule:nonzero;fill:rgb(0%,0%,0%);fill-opacity:1;" d="M 18.09375 17.832031 C 21.148438 17.832031 23.765625 15.429688 23.984375 12.375 C 23.984375 12.265625 23.984375 12.046875 23.984375 11.9375 C 23.984375 8.886719 21.585938 6.265625 18.53125 6.046875 C 18.421875 6.046875 18.203125 6.046875 18.09375 6.046875 L 5.875 6.046875 C 2.601562 6.046875 -0.015625 8.667969 -0.015625 11.9375 C -0.015625 15.210938 2.601562 17.832031 5.875 17.832031 Z M 15.257812 17.066406 L 5.984375 17.066406 C 3.148438 17.066406 0.964844 14.777344 0.964844 12.046875 C 0.964844 9.320312 3.257812 7.03125 5.984375 7.03125 L 15.257812 7.03125 C 13.402344 8.121094 12.3125 9.976562 12.3125 12.046875 C 12.3125 14.121094 13.402344 15.976562 15.257812 17.066406 Z M 18.09375 17.066406 C 15.367188 17.066406 13.074219 14.777344 13.074219 12.046875 C 13.074219 9.320312 15.367188 7.03125 18.09375 7.03125 C 19.074219 7.03125 20.058594 7.359375 20.929688 7.902344 C 20.929688 7.902344 21.039062 8.011719 21.039062 8.011719 C 21.039062 8.011719 21.148438 8.121094 21.148438 8.121094 C 22.347656 8.992188 23.113281 10.519531 23.113281 12.046875 C 23.113281 13.683594 22.347656 15.210938 21.148438 16.085938 C 21.039062 16.195312 21.039062 16.195312 20.929688 16.304688 C 20.929688 16.304688 20.929688 16.304688 20.820312 16.304688 C 20.058594 16.738281 19.074219 17.066406 18.09375 17.066406 Z M 18.09375 17.066406 "/>
</g>
</svg>
