<?xml version="1.0" encoding="UTF-8"?>
<svg xmlns="http://www.w3.org/2000/svg" xmlns:xlink="http://www.w3.org/1999/xlink" width="24pt" height="24pt" viewBox="0 0 24 24" version="1.1">
<g id="surface1">
<path style=" stroke:none;fill-rule:nonzero;fill:rgb(0%,0%,0%);fill-opacity:1;" d="M 0 0.21875 L 0 23.5625 C 0 23.671875 0.109375 23.890625 0.328125 23.890625 L 23.671875 23.890625 C 23.78125 23.890625 24 23.78125 24 23.5625 L 24 0.21875 C 24 0.109375 23.890625 -0.109375 23.671875 -0.109375 L 0.328125 -0.109375 C 0.109375 0 0 0.109375 0 0.21875 Z M 0.65625 0.546875 L 23.453125 0.546875 L 23.453125 23.34375 L 0.65625 23.34375 Z M 0.65625 0.546875 "/>
<path style=" stroke:none;fill-rule:nonzero;fill:rgb(0%,0%,0%);fill-opacity:1;" d="M 19.089844 10.035156 L 4.910156 10.035156 C 3.273438 10.035156 1.964844 8.726562 1.964844 7.089844 L 1.964844 6.761719 C 1.964844 5.128906 3.273438 3.710938 5.019531 3.710938 L 19.199219 3.710938 C 20.835938 3.710938 22.253906 5.019531 22.253906 6.761719 L 22.253906 7.089844 C 22.035156 8.726562 20.726562 10.035156 19.089844 10.035156 Z M 4.910156 4.363281 C 3.601562 4.363281 2.398438 5.453125 2.398438 6.761719 L 2.398438 7.089844 C 2.398438 8.398438 3.492188 9.492188 4.800781 9.492188 L 18.980469 9.492188 C 20.289062 9.492188 21.382812 8.398438 21.382812 7.089844 L 21.382812 6.761719 C 21.382812 5.453125 20.289062 4.363281 18.980469 4.363281 Z M 4.910156 4.363281 "/>
<path style=" stroke:none;fill-rule:nonzero;fill:rgb(0%,0%,0%);fill-opacity:1;" d="M 19.089844 19.855469 L 4.910156 19.855469 C 3.273438 19.855469 1.855469 18.546875 1.855469 16.800781 L 1.855469 16.472656 C 1.855469 14.835938 3.164062 13.417969 4.910156 13.417969 L 19.089844 13.417969 C 20.726562 13.417969 22.144531 14.726562 22.144531 16.472656 L 22.144531 16.800781 C 22.035156 18.546875 20.726562 19.855469 19.089844 19.855469 Z M 4.910156 14.183594 C 3.601562 14.183594 2.507812 15.273438 2.507812 16.582031 L 2.507812 16.910156 C 2.507812 18.21875 3.601562 19.308594 4.910156 19.308594 L 19.089844 19.308594 C 20.398438 19.308594 21.492188 18.21875 21.492188 16.910156 L 21.492188 16.582031 C 21.492188 15.273438 20.398438 14.183594 19.089844 14.183594 Z M 4.910156 14.183594 "/>
</g>
</svg>
