<?xml version="1.0" encoding="UTF-8"?>
<svg xmlns="http://www.w3.org/2000/svg" xmlns:xlink="http://www.w3.org/1999/xlink" width="24pt" height="24pt" viewBox="0 0 24 24" version="1.1">
<g id="surface1">
<path style=" stroke:none;fill-rule:nonzero;fill:rgb(0%,0%,0%);fill-opacity:1;" d="M 12.21875 8.507812 C 12.546875 8.507812 12.761719 8.726562 12.761719 9.054688 C 12.761719 9.382812 12.546875 9.601562 12.21875 9.601562 C 11.890625 9.601562 11.671875 9.382812 11.671875 9.054688 C 11.671875 8.726562 11.890625 8.507812 12.21875 8.507812 Z M 12.21875 11.128906 C 12.546875 11.128906 12.761719 11.34375 12.761719 11.671875 C 12.761719 12 12.546875 12.21875 12.21875 12.21875 C 11.890625 12.21875 11.671875 12 11.671875 11.671875 C 11.671875 11.34375 11.890625 11.128906 12.21875 11.128906 Z M 12.21875 13.855469 C 12.546875 13.855469 12.761719 14.074219 12.761719 14.398438 C 12.761719 14.726562 12.546875 14.945312 12.21875 14.945312 C 11.890625 14.945312 11.671875 14.726562 11.671875 14.398438 C 11.671875 14.074219 11.890625 13.855469 12.21875 13.855469 Z M 14.726562 8.507812 C 15.054688 8.507812 15.273438 8.726562 15.273438 9.054688 C 15.273438 9.382812 15.054688 9.601562 14.726562 9.601562 C 14.398438 9.601562 14.183594 9.382812 14.183594 9.054688 C 14.183594 8.726562 14.507812 8.507812 14.726562 8.507812 Z M 14.726562 11.128906 C 15.054688 11.128906 15.273438 11.34375 15.273438 11.671875 C 15.273438 12 15.054688 12.21875 14.726562 12.21875 C 14.398438 12.21875 14.183594 12 14.183594 11.671875 C 14.289062 11.34375 14.507812 11.128906 14.726562 11.128906 Z M 14.726562 13.855469 C 15.054688 13.855469 15.273438 14.074219 15.273438 14.398438 C 15.273438 14.726562 15.054688 14.945312 14.726562 14.945312 C 14.398438 14.945312 14.183594 14.726562 14.183594 14.398438 C 14.289062 14.074219 14.507812 13.855469 14.726562 13.855469 Z M 17.34375 8.507812 C 17.671875 8.507812 17.890625 8.726562 17.890625 9.054688 C 17.890625 9.382812 17.671875 9.601562 17.34375 9.601562 C 17.019531 9.601562 16.800781 9.382812 16.800781 9.054688 C 16.800781 8.726562 17.019531 8.507812 17.34375 8.507812 Z M 17.34375 11.128906 C 17.671875 11.128906 17.890625 11.34375 17.890625 11.671875 C 17.890625 12 17.671875 12.21875 17.34375 12.21875 C 17.019531 12.21875 16.800781 12 16.800781 11.671875 C 16.800781 11.34375 17.019531 11.128906 17.34375 11.128906 Z M 9.601562 11.128906 C 9.925781 11.128906 10.144531 11.34375 10.144531 11.671875 C 10.144531 12 9.925781 12.21875 9.601562 12.21875 C 9.273438 12.21875 9.054688 12 9.054688 11.671875 C 9.054688 11.34375 9.273438 11.128906 9.601562 11.128906 Z M 9.601562 8.507812 C 9.816406 8.507812 10.035156 8.726562 10.035156 9.054688 C 10.035156 9.382812 9.816406 9.601562 9.601562 9.601562 C 9.382812 9.601562 9.054688 9.273438 9.054688 9.054688 C 9.054688 8.835938 9.273438 8.507812 9.601562 8.507812 Z M 9.601562 13.855469 C 9.925781 13.855469 10.144531 14.074219 10.144531 14.398438 C 10.144531 14.726562 9.925781 14.945312 9.601562 14.945312 C 9.273438 14.945312 9.054688 14.726562 9.054688 14.398438 C 9.054688 14.074219 9.273438 13.855469 9.601562 13.855469 Z M 9.601562 16.472656 C 9.925781 16.472656 10.144531 16.691406 10.144531 17.019531 C 10.144531 17.34375 9.816406 17.5625 9.601562 17.5625 C 9.382812 17.5625 9.054688 17.34375 9.054688 17.019531 C 9.054688 16.691406 9.273438 16.472656 9.601562 16.472656 Z M 7.089844 11.128906 C 7.417969 11.128906 7.636719 11.34375 7.636719 11.671875 C 7.636719 12 7.417969 12.21875 7.089844 12.21875 C 6.761719 12.21875 6.546875 12 6.546875 11.671875 C 6.546875 11.34375 6.761719 11.128906 7.089844 11.128906 Z M 7.089844 13.855469 C 7.417969 13.855469 7.636719 14.074219 7.636719 14.398438 C 7.636719 14.726562 7.417969 14.945312 7.089844 14.945312 C 6.761719 14.945312 6.546875 14.726562 6.546875 14.398438 C 6.546875 14.074219 6.761719 13.855469 7.089844 13.855469 Z M 7.089844 16.472656 C 7.417969 16.472656 7.636719 16.691406 7.636719 17.019531 C 7.636719 17.34375 7.417969 17.5625 7.089844 17.5625 C 6.761719 17.5625 6.546875 17.34375 6.546875 17.019531 C 6.546875 16.691406 6.761719 16.472656 7.089844 16.472656 Z M 4.472656 11.128906 C 4.800781 11.128906 5.019531 11.34375 5.019531 11.671875 C 5.019531 12 4.800781 12.21875 4.472656 12.21875 C 4.144531 12.21875 4.035156 12 4.035156 11.671875 C 4.035156 11.34375 4.253906 11.128906 4.472656 11.128906 Z M 4.472656 13.855469 C 4.800781 13.855469 5.019531 14.074219 5.019531 14.398438 C 5.019531 14.726562 4.800781 14.945312 4.472656 14.945312 C 4.144531 14.945312 3.925781 14.726562 3.925781 14.398438 C 4.035156 14.074219 4.253906 13.855469 4.472656 13.855469 Z M 4.472656 16.472656 C 4.800781 16.472656 5.019531 16.691406 5.019531 17.019531 C 5.019531 17.34375 4.800781 17.5625 4.472656 17.5625 C 4.144531 17.5625 3.925781 17.34375 3.925781 17.019531 C 3.925781 16.691406 4.253906 16.472656 4.472656 16.472656 Z M 21.710938 14.398438 L 21.710938 2.074219 L 17.890625 2.074219 L 17.890625 1.636719 C 17.890625 1.308594 17.671875 1.089844 17.34375 1.089844 C 17.019531 1.089844 16.800781 1.308594 16.800781 1.636719 L 16.800781 2.074219 L 11.453125 2.074219 L 11.453125 1.636719 C 11.453125 1.308594 11.238281 1.089844 10.910156 1.089844 C 10.691406 1.089844 10.363281 1.308594 10.363281 1.636719 L 10.363281 2.074219 L 5.019531 2.074219 L 5.019531 1.636719 C 5.019531 1.308594 4.800781 1.089844 4.472656 1.089844 C 4.144531 1.089844 3.925781 1.308594 3.925781 1.636719 L 3.925781 2.074219 L 0.21875 2.074219 L 0.21875 19.417969 C 0.21875 20.398438 0.980469 21.164062 1.964844 21.164062 L 14.726562 21.164062 C 15.601562 22.472656 17.128906 23.34375 18.761719 23.34375 C 21.492188 23.34375 23.671875 21.164062 23.671875 18.4375 C 23.78125 16.800781 22.910156 15.273438 21.710938 14.398438 Z M 15.710938 21.164062 C 15.492188 20.945312 15.273438 20.617188 15.164062 20.398438 C 14.835938 19.855469 14.617188 19.089844 14.617188 18.4375 C 14.617188 16.144531 16.472656 14.289062 18.761719 14.289062 C 19.527344 14.289062 20.289062 14.507812 20.835938 14.835938 C 21.164062 14.945312 21.382812 15.164062 21.601562 15.492188 C 22.363281 16.253906 22.910156 17.34375 22.910156 18.4375 C 22.910156 20.726562 21.054688 22.582031 18.761719 22.582031 C 17.5625 22.582031 16.472656 22.035156 15.710938 21.164062 Z M 0.980469 2.835938 L 4.035156 2.835938 L 4.035156 3.273438 C 4.035156 3.601562 4.253906 3.816406 4.582031 3.816406 C 4.910156 3.816406 5.019531 3.601562 5.019531 3.273438 L 5.019531 2.835938 L 10.363281 2.835938 L 10.363281 3.273438 C 10.363281 3.601562 10.582031 3.816406 10.910156 3.816406 C 11.238281 3.816406 11.453125 3.601562 11.453125 3.273438 L 11.453125 2.835938 L 16.800781 2.835938 L 16.800781 3.273438 C 16.800781 3.601562 17.019531 3.816406 17.34375 3.816406 C 17.671875 3.816406 17.890625 3.601562 17.890625 3.273438 L 17.890625 2.835938 L 20.945312 2.835938 L 20.945312 4.910156 L 0.980469 4.910156 Z M 1.855469 20.398438 C 1.308594 20.398438 0.980469 19.964844 0.980469 19.527344 L 0.980469 5.671875 L 20.835938 5.671875 L 20.835938 13.964844 C 20.183594 13.636719 19.527344 13.527344 18.761719 13.527344 C 16.035156 13.527344 13.855469 15.710938 13.855469 18.4375 C 13.855469 19.199219 13.964844 19.855469 14.289062 20.398438 Z M 20.617188 19.089844 L 20.074219 18.761719 L 19.089844 18.109375 L 19.089844 15.601562 C 19.089844 15.382812 18.871094 15.164062 18.65625 15.164062 C 18.4375 15.164062 18.21875 15.382812 18.21875 15.601562 L 18.21875 18.546875 L 20.074219 19.746094 C 20.183594 19.746094 20.183594 19.746094 20.289062 19.746094 C 20.398438 19.746094 20.507812 19.746094 20.617188 19.527344 C 20.835938 19.527344 20.835938 19.308594 20.617188 19.089844 Z M 20.617188 19.089844 "/>
</g>
</svg>
