<?xml version="1.0" encoding="UTF-8"?>
<svg xmlns="http://www.w3.org/2000/svg" xmlns:xlink="http://www.w3.org/1999/xlink" width="24pt" height="24pt" viewBox="0 0 24 24" version="1.1">
<g id="surface1">
<path style=" stroke:none;fill-rule:nonzero;fill:rgb(0.784314%,0.784314%,0.784314%);fill-opacity:1;" d="M 0 0.0507812 L 0 23.949219 L 24 23.949219 L 24 0.0507812 Z M 23.019531 23.007812 L 0.980469 23.007812 L 0.980469 0.992188 L 23.019531 0.992188 Z M 19.964844 7.878906 L 12 7.878906 L 12 6.9375 L 19.964844 6.9375 Z M 19.964844 17.0625 L 12 17.0625 L 12 16.121094 L 19.964844 16.121094 Z M 6.328125 10.90625 C 8.289062 10.90625 9.925781 9.339844 9.925781 7.460938 C 9.925781 5.582031 8.398438 3.914062 6.328125 3.914062 C 4.253906 3.914062 2.726562 5.476562 2.726562 7.355469 C 2.726562 9.234375 4.363281 10.90625 6.328125 10.90625 Z M 6.328125 4.851562 C 7.855469 4.851562 9.054688 6 9.054688 7.460938 C 9.054688 8.921875 7.855469 9.964844 6.328125 9.964844 C 4.800781 9.964844 3.710938 8.816406 3.710938 7.355469 C 3.710938 5.894531 4.910156 4.851562 6.328125 4.851562 Z M 6.328125 20.085938 C 8.289062 20.085938 9.925781 18.523438 9.925781 16.644531 C 9.925781 14.765625 8.289062 13.199219 6.328125 13.199219 C 4.363281 13.199219 2.726562 14.660156 2.726562 16.539062 C 2.726562 18.417969 4.363281 20.085938 6.328125 20.085938 Z M 6.328125 14.035156 C 7.855469 14.035156 9.054688 15.183594 9.054688 16.644531 C 9.054688 18.105469 7.855469 19.253906 6.328125 19.253906 C 4.800781 19.253906 3.601562 18.105469 3.601562 16.644531 C 3.601562 15.183594 4.910156 14.035156 6.328125 14.035156 Z M 5.34375 7.355469 C 5.34375 6.835938 5.78125 6.417969 6.328125 6.417969 C 6.871094 6.417969 7.417969 6.835938 7.417969 7.355469 C 7.417969 7.878906 6.871094 8.296875 6.328125 8.296875 C 5.78125 8.296875 5.34375 7.878906 5.34375 7.355469 Z M 5.34375 7.355469 "/>
</g>
</svg>
