<?xml version="1.0" encoding="utf-8"?>
<!-- Generator: Adobe Illustrator 21.1.0, SVG Export Plug-In . SVG Version: 6.00 Build 0)  -->
<svg version="1.1" id="Layer_1" xmlns="http://www.w3.org/2000/svg" xmlns:xlink="http://www.w3.org/1999/xlink" x="0px" y="0px"
	 viewBox="0 0 24 24" style="enable-background:new 0 0 24 24;" xml:space="preserve">
<g id="surface1">
	<path d="M1.3,3.2C0.7,3.2,0,3.8,0,4.5c0,0.7,0.5,1.3,1.3,1.3h21.5c0.7,0,1.3-0.5,1.3-1.3c0-0.7-0.5-1.3-1.3-1.3H1.3z M1.3,10.7
		C0.7,10.7,0,11.3,0,12c0,0.7,0.5,1.3,1.3,1.3h21.5c0.7,0,1.3-0.5,1.3-1.3c0-0.7-0.5-1.3-1.3-1.3H1.3z M1.3,18.4
		c-0.7,0-1.3,0.5-1.3,1.3C0,20.3,0.5,21,1.3,21h21.5c0.7,0,1.3-0.5,1.3-1.3c0-0.7-0.5-1.3-1.3-1.3H1.3z"/>
</g>
</svg>
