<?xml version="1.0" encoding="utf-8"?>
<!-- Generator: Adobe Illustrator 21.1.0, SVG Export Plug-In . SVG Version: 6.00 Build 0)  -->
<svg version="1.1" id="Layer_1" xmlns="http://www.w3.org/2000/svg" xmlns:xlink="http://www.w3.org/1999/xlink" x="0px" y="0px"
	 viewBox="0 0 24 24" style="enable-background:new 0 0 24 24;" xml:space="preserve">
<path d="M23.3,3H0.8C0.3,3,0,3.3,0,3.7v16.6C0,20.7,0.3,21,0.8,21h22.6c0.4,0,0.7-0.3,0.7-0.7V3.7C24,3.3,23.7,3,23.3,3z M18.4,4.6
	c0-0.3,0.1-0.4,0.5-0.4c0.1,0,0.4,0.2,0.4,0.4c0,0.3-0.2,0.5-0.4,0.5C18.7,5.1,18.4,4.9,18.4,4.6z M20.1,4.6c0-0.3,0.1-0.4,0.5-0.4
	c0.4,0,0.4,0.1,0.4,0.4c0,0.3-0.2,0.5-0.4,0.5C20.4,5.1,20.1,4.9,20.1,4.6z M22.8,6.4v13.1c0,0.3-0.2,0.4-0.4,0.4H1.6
	c-0.3,0-0.5-0.2-0.5-0.4V6.4c0-0.3,0.2-0.5,0.5-0.5h20.7C22.7,5.9,22.8,6.1,22.8,6.4z M22.5,5.1c-0.3,0-0.4-0.3-0.4-0.5
	c0-0.4,0.1-0.4,0.4-0.4c0.3,0,0.4,0.2,0.4,0.4C22.9,4.8,22.7,5.1,22.5,5.1z M16.3,12.2c0.2,0.2,0.4,0.6,0.4,0.9c0,0.4-0.1,0.6-0.5,1
	l-2,2.2c-0.1,0.1-0.3,0.2-0.4,0.2c-0.1,0-0.3-0.1-0.4-0.2c-0.1-0.1-0.2-0.3-0.2-0.4c0-0.1,0.1-0.3,0.2-0.4l1.7-1.7H7.9
	c-0.3,0-0.6-0.3-0.6-0.6c0-0.3,0.1-0.6,0.6-0.6H15l-1.7-1.7c-0.3-0.3-0.3-0.6,0-0.8c0.3-0.3,0.6-0.3,0.8,0L16.3,12.2z"/>
</svg>
