<svg width="32" height="32" viewBox="0 0 32 32" fill="none" xmlns="http://www.w3.org/2000/svg">
<path fill-rule="evenodd" clip-rule="evenodd" d="M20.9412 10.6066C19.7067 11.5044 18.3977 13.1317 16.9208 16.0854C14.9562 20.0147 13.3576 22.0746 11.8546 23.1056C10.3053 24.1682 8.93576 24.0789 7.74334 24.0012L7.70134 23.9984C7.288 23.9715 6.97472 23.6146 7.00161 23.2013C7.0285 22.788 7.38538 22.4747 7.79872 22.5016C8.98246 22.5786 9.89641 22.6297 11.0061 21.8686C12.1803 21.0632 13.6387 19.2955 15.5792 15.4146C17.1023 12.3683 18.5434 10.4957 20.0589 9.39345C21.604 8.26971 23.1527 8 24.75 8C25.1642 8 25.5 8.33579 25.5 8.75C25.5 9.16421 25.1642 9.5 24.75 9.5C23.3473 9.5 22.146 9.73029 20.9412 10.6066Z" fill="#959494"/>
<path fill-rule="evenodd" clip-rule="evenodd" d="M1.5 1.5V30.5H30.5V1.5H1.5ZM1 0C0.447715 0 0 0.447715 0 1V31C0 31.5523 0.447715 32 1 32H31C31.5523 32 32 31.5523 32 31V1C32 0.447715 31.5523 0 31 0H1Z" fill="#959494"/>
</svg>
