<?xml version="1.0" encoding="utf-8"?>
<!-- Generator: Adobe Illustrator 21.1.0, SVG Export Plug-In . SVG Version: 6.00 Build 0)  -->
<svg version="1.1" id="Layer_1" xmlns="http://www.w3.org/2000/svg" xmlns:xlink="http://www.w3.org/1999/xlink" x="0px" y="0px"
	 viewBox="0 0 24 24" style="enable-background:new 0 0 24 24;" xml:space="preserve">
<path d="M5.3,16.8c0.2,0.3,0.3,0.8,0.2,1.2c-0.1,0.5-0.4,0.9-0.9,1.1c-0.2,0.2-0.5,0.2-0.8,0.2c-0.1,0-0.3,0-0.4-0.1
	c-0.5-0.1-0.9-0.4-1.1-0.9c-0.2-0.5-0.3-1-0.1-1.4c0.1-0.4,0.4-0.7,0.8-0.8c0.4-0.2,0.8-0.3,1.2-0.2C4.7,16,5.1,16.4,5.3,16.8z
	 M4.8,5.7C4.2,5.4,3.6,5.3,3.1,5.5C2.6,5.7,2.2,6,2,6.5c-0.5,1-0.2,2.2,0.8,2.8c0.3,0.2,0.7,0.3,1,0.3c0.7,0,1.4-0.4,1.8-1
	C6.1,7.4,5.8,6.2,4.8,5.7z M21.2,8.1c0.1,0,0.2,0,0.3-0.1l0.1-0.1c0.1-0.1,0.4-0.4,0.2-0.8L21.7,7c-0.1-0.1-0.4-0.4-0.8-0.2
	l-0.1,0.1c-0.1,0.1-0.2,0.2-0.2,0.4c-0.1,0.2,0,0.4,0.1,0.6C20.8,7.9,21,8.1,21.2,8.1z M4.3,12.4c0-1-0.8-1.8-1.8-1.8
	s-1.8,0.8-1.8,1.8c0,1,0.8,1.8,1.8,1.8S4.3,13.5,4.3,12.4z M8.2,19.9c-0.7-0.4-1.6-0.2-2.1,0.5c-0.2,0.3-0.3,0.8-0.1,1.2
	c0.1,0.4,0.4,0.7,0.7,0.9c0.2,0.1,0.5,0.2,0.7,0.2c0.1,0,0.3,0,0.4,0c0.4-0.1,0.8-0.4,1-0.7C9.1,21.3,8.9,20.3,8.2,19.9z M12.5,21.2
	c-0.8,0-1.4,0.6-1.4,1.4c0,0.8,0.6,1.4,1.4,1.4c0.9,0,1.4-0.7,1.4-1.4C13.9,21.8,13.2,21.2,12.5,21.2z M21.8,16.7
	c-0.2-0.2-0.5-0.2-0.8-0.1c-0.3,0.1-0.5,0.2-0.7,0.5l0,0c-0.3,0.5-0.2,1.1,0.3,1.5c0.2,0.1,0.4,0.2,0.6,0.2c0.1,0,0.2,0,0.2,0
	c0.3-0.1,0.5-0.2,0.7-0.5c0.2-0.2,0.2-0.5,0.1-0.8C22.2,17.1,22,16.8,21.8,16.7z M8,1.7C7.4,1.5,6.8,1.6,6.3,1.9
	c-0.5,0.3-0.9,0.8-1,1.4c-0.1,0.6,0,1.1,0.3,1.6C6,5.6,6.7,6,7.4,6c0.4,0,0.8-0.1,1.2-0.3c0.5-0.3,0.8-0.8,1-1.4
	c0.2-0.6,0.1-1.2-0.2-1.7C9.1,2.2,8.6,1.8,8,1.7z M17,20.2L17,20.2c-0.3,0.1-0.5,0.4-0.6,0.7c-0.1,0.3,0,0.6,0.1,0.9
	c0.1,0.3,0.4,0.5,0.7,0.6c0.1,0,0.2,0,0.3,0c0.2,0,0.4,0,0.6-0.1c0.6-0.3,0.8-1,0.5-1.6C18.4,20.1,17.6,19.9,17,20.2z M22.5,11.6
	c-0.4,0-0.7,0.3-0.9,0.8l0,0.1c0,0.5,0.4,0.9,0.9,0.9c0.5,0,0.9-0.4,0.9-0.9C23.4,12,23,11.6,22.5,11.6z M12.5,0.1
	c-1.4,0-2.4,1-2.4,2.4c0,1.3,1.1,2.4,2.4,2.4c1.3,0,2.4-1.1,2.4-2.4C14.9,1.1,13.8,0.1,12.5,0.1z"/>
</svg>
