<?xml version="1.0" encoding="utf-8"?>
<!-- Generator: Adobe Illustrator 21.1.0, SVG Export Plug-In . SVG Version: 6.00 Build 0)  -->
<svg version="1.1" id="Layer_1" xmlns="http://www.w3.org/2000/svg" xmlns:xlink="http://www.w3.org/1999/xlink" x="0px" y="0px"
	 viewBox="0 0 24 24" style="enable-background:new 0 0 24 24;" xml:space="preserve">
<path d="M23.4,0H0.6C0.3,0,0,0.3,0,0.6v22.8C0,23.7,0.3,24,0.6,24h22.8c0.3,0,0.6-0.3,0.6-0.6V0.6C24,0.3,23.7,0,23.4,0z M19,8.8
	v2.6h-2.6V8.8H19z M19,12.6v2.6h-2.6v-2.6H19z M19,16.5V19h-2.7v-2.6H19z M19,20.2v2.5h-2.6v-2.5H19z M19,5v2.7h-2.6V5H19z
	 M11.3,20.2v2.5H8.8v-2.5H11.3z M15.2,8.8v2.7h-2.6V8.8H15.2z M12.6,7.5V5h2.6v2.6H12.6z M15.1,12.7v2.6h-2.6v-2.6H15.1z M8.8,7.6V5
	h2.6v2.7H8.8z M8.8,11.3V8.8h2.7v2.6H8.8z M8.8,15.1v-2.6h2.6v2.6H8.8z M11.4,16.5V19H8.8v-2.6H11.4z M15.1,16.4V19h-2.6v-2.7H15.1z
	 M15.1,20.2v2.5h-2.6v-2.5H15.1z M5,7.5V5h2.7v2.6H5z M7.5,11.4H5V8.8h2.6V11.4z M5,15.1v-2.6h2.6v2.6H5z M5,19v-2.7h2.6V19H5z
	 M7.6,20.2v2.5H5v-2.5H7.6z M3.7,20.2v2.5H1.2v-2.5H3.7z M3.7,16.4V19H1.2v-2.7H3.7z M1.2,7.6V5h2.5v2.7H1.2z M3.7,11.4H1.2V8.8h2.5
	V11.4z M3.8,12.6v2.6H1.2v-2.6H3.8z M22.7,8.8v2.6h-2.5V8.8H22.7z M22.7,12.6v2.6h-2.5v-2.6H22.7z M22.7,16.4V19h-2.5v-2.7H22.7z
	 M22.7,20.3v2.5h-2.5v-2.5H22.7z M22.7,5v2.6h-2.5V5H22.7z"/>
</svg>
