<?xml version="1.0" encoding="UTF-8"?>
<svg xmlns="http://www.w3.org/2000/svg" xmlns:xlink="http://www.w3.org/1999/xlink" width="24pt" height="24pt" viewBox="0 0 24 24" version="1.1">
<g id="surface1">
<path style=" stroke:none;fill-rule:nonzero;fill:rgb(0%,0%,0%);fill-opacity:1;" d="M 23.453125 3.054688 L 0.65625 3.054688 C 0.21875 3.054688 0 3.273438 0 3.601562 L 0 20.398438 C 0 20.726562 0.21875 20.945312 0.65625 20.945312 L 23.453125 20.945312 C 23.78125 20.945312 24 20.726562 24 20.398438 L 24 3.601562 C 24 3.273438 23.78125 3.054688 23.453125 3.054688 Z M 20.726562 3.925781 C 21.164062 3.925781 21.273438 4.144531 21.273438 4.472656 C 21.273438 4.800781 21.054688 5.128906 20.726562 5.128906 C 20.398438 5.128906 20.074219 4.910156 20.074219 4.472656 C 20.074219 4.035156 20.289062 3.925781 20.726562 3.925781 Z M 18.980469 3.925781 C 19.199219 3.925781 19.527344 4.144531 19.527344 4.472656 C 19.527344 4.800781 19.308594 5.128906 18.980469 5.128906 C 18.65625 5.128906 18.328125 4.910156 18.328125 4.472656 C 18.328125 4.035156 18.546875 3.925781 18.980469 3.925781 Z M 23.019531 19.527344 C 23.019531 19.855469 22.800781 20.074219 22.472656 20.074219 L 1.527344 20.074219 C 1.199219 20.074219 0.871094 19.855469 0.871094 19.527344 L 0.871094 6.328125 C 0.871094 6 1.089844 5.671875 1.527344 5.671875 L 22.472656 5.671875 C 22.800781 5.671875 23.019531 5.890625 23.019531 6.328125 Z M 22.582031 5.128906 C 22.253906 5.128906 22.035156 4.910156 22.035156 4.472656 C 22.035156 4.035156 22.253906 3.925781 22.582031 3.925781 C 22.910156 3.925781 23.128906 4.144531 23.128906 4.472656 C 23.128906 4.800781 22.910156 5.128906 22.582031 5.128906 Z M 22.582031 5.128906 "/>
<path style=" stroke:none;fill-rule:nonzero;fill:rgb(0%,0%,0%);fill-opacity:1;" d="M 20.835938 11.128906 L 15.816406 11.128906 C 15.492188 11.128906 15.273438 10.910156 15.273438 10.582031 L 15.273438 8.183594 C 15.273438 7.855469 15.492188 7.636719 15.816406 7.636719 L 20.835938 7.636719 C 21.164062 7.636719 21.382812 7.855469 21.382812 8.183594 L 21.382812 10.472656 C 21.382812 10.800781 21.164062 11.128906 20.835938 11.128906 Z M 15.816406 7.855469 C 15.601562 7.855469 15.492188 7.964844 15.492188 8.183594 L 15.492188 10.472656 C 15.492188 10.691406 15.601562 10.800781 15.816406 10.800781 L 20.835938 10.800781 C 21.054688 10.800781 21.164062 10.691406 21.164062 10.472656 L 21.164062 8.183594 C 21.164062 7.964844 21.054688 7.855469 20.835938 7.855469 Z M 15.816406 7.855469 "/>
<path style=" stroke:none;fill-rule:nonzero;fill:rgb(0%,0%,0%);fill-opacity:1;" d="M 20.835938 16.253906 L 15.816406 16.253906 C 15.492188 16.253906 15.273438 16.035156 15.273438 15.710938 L 15.273438 13.417969 C 15.273438 13.089844 15.492188 12.871094 15.816406 12.871094 L 20.835938 12.871094 C 21.164062 12.871094 21.382812 13.089844 21.382812 13.417969 L 21.382812 15.710938 C 21.382812 16.035156 21.164062 16.253906 20.835938 16.253906 Z M 15.816406 12.980469 C 15.601562 12.980469 15.492188 13.089844 15.492188 13.308594 L 15.492188 15.601562 C 15.492188 15.816406 15.601562 15.925781 15.816406 15.925781 L 20.835938 15.925781 C 21.054688 15.925781 21.164062 15.816406 21.164062 15.601562 L 21.164062 13.308594 C 21.164062 13.089844 21.054688 12.980469 20.835938 12.980469 Z M 15.816406 12.980469 "/>
<path style=" stroke:none;fill-rule:nonzero;fill:rgb(0%,0%,0%);fill-opacity:1;" d="M 3.492188 14.398438 L 9.273438 14.398438 L 9.273438 14.617188 L 3.492188 14.617188 Z M 3.492188 14.398438 "/>
<path style=" stroke:none;fill-rule:nonzero;fill:rgb(0%,0%,0%);fill-opacity:1;" d="M 3.492188 16.691406 L 9.273438 16.691406 L 9.273438 17.78125 L 3.492188 17.78125 Z M 3.492188 16.691406 "/>
</g>
</svg>
