<?xml version="1.0" encoding="UTF-8"?>
<svg xmlns="http://www.w3.org/2000/svg" xmlns:xlink="http://www.w3.org/1999/xlink" width="24pt" height="24pt" viewBox="0 0 24 24" version="1.1">
<g id="surface1">
<path style=" stroke:none;fill-rule:nonzero;fill:rgb(0%,0%,0%);fill-opacity:1;" d="M 22.910156 15.421875 C 22.910156 15.53125 22.910156 15.53125 22.910156 15.421875 C 22.910156 15.421875 22.910156 15.53125 22.910156 15.53125 C 22.910156 15.53125 22.910156 15.640625 22.800781 15.640625 C 22.800781 15.75 22.691406 15.75 22.691406 15.859375 C 22.691406 15.75 22.582031 15.75 22.472656 15.75 C 22.363281 15.640625 22.363281 15.53125 22.253906 15.53125 L 17.890625 11.167969 L 13.964844 15.3125 C 13.855469 15.421875 13.636719 15.421875 13.527344 15.3125 L 7.636719 9.53125 L 1.199219 15.421875 C 1.089844 15.421875 0.980469 15.53125 0.980469 15.640625 C 0.980469 15.640625 0.871094 15.640625 0.871094 15.75 C 0.761719 15.859375 0.761719 15.859375 0.65625 15.96875 C 0.65625 15.96875 0.65625 15.96875 0.546875 15.96875 L 0.546875 15.203125 C 0.546875 15.203125 0.65625 15.097656 0.65625 15.097656 C 0.980469 14.878906 1.308594 14.660156 1.527344 14.332031 L 7.308594 8.988281 C 7.308594 8.988281 7.417969 8.878906 7.417969 8.878906 C 7.527344 8.878906 7.636719 8.878906 7.746094 8.988281 L 13.746094 14.988281 L 17.671875 10.839844 C 17.78125 10.730469 18 10.730469 18.109375 10.839844 L 22.253906 14.988281 C 22.472656 14.988281 22.691406 15.203125 22.910156 15.421875 Z M 22.910156 15.421875 "/>
<path style=" stroke:none;fill-rule:nonzero;fill:rgb(0%,0%,0%);fill-opacity:1;" d="M 13.417969 8.617188 C 14.507812 8.617188 14.507812 6.980469 13.417969 6.980469 C 12.4375 6.980469 12.4375 8.617188 13.417969 8.617188 Z M 13.417969 8.617188 "/>
<path style=" stroke:none;fill-rule:nonzero;fill:rgb(0%,0%,0%);fill-opacity:1;" d="M 12 0.0429688 C 5.34375 0.0429688 0 5.386719 0 12.042969 C 0 18.695312 5.34375 24.042969 12 24.042969 C 18.65625 24.042969 24 18.695312 24 12.042969 C 24 5.386719 18.65625 0.0429688 12 0.0429688 Z M 12 1.132812 C 18 1.132812 22.910156 6.042969 22.910156 12.042969 C 22.910156 18.042969 18 22.949219 12 22.949219 C 6 22.949219 1.089844 18.042969 1.089844 12.042969 C 1.089844 6.042969 6 1.132812 12 1.132812 Z M 12 1.132812 "/>
</g>
</svg>
