<?xml version="1.0" encoding="UTF-8"?>
<svg xmlns="http://www.w3.org/2000/svg" xmlns:xlink="http://www.w3.org/1999/xlink" width="24pt" height="24pt" viewBox="0 0 24 24" version="1.1">
<g id="surface1">
<path style=" stroke:none;fill-rule:nonzero;fill:rgb(0%,0%,0%);fill-opacity:1;" d="M 20.039062 0.832031 C 17.867188 0.3125 15.042969 0 12 0 C 8.957031 0 6.132812 0.3125 3.960938 0.832031 C 1.355469 1.453125 0.0507812 2.285156 0.0507812 3.53125 C 0.0507812 3.949219 0.269531 4.363281 0.59375 4.675781 L 8.742188 14.128906 L 8.742188 23.167969 C 8.742188 23.480469 8.851562 23.6875 9.175781 23.894531 C 9.285156 24 9.5 24 9.609375 24 C 9.71875 24 9.828125 24 10.042969 23.894531 L 14.824219 21.609375 C 15.148438 21.507812 15.367188 21.195312 15.367188 20.882812 L 15.367188 14.128906 L 23.511719 4.675781 C 23.730469 4.363281 23.949219 3.949219 23.949219 3.53125 C 23.949219 2.285156 22.644531 1.453125 20.039062 0.832031 Z M 14.0625 13.402344 C 13.957031 13.507812 13.847656 13.714844 13.847656 13.921875 L 13.738281 20.675781 L 10.261719 22.234375 L 10.261719 13.921875 C 10.261719 13.714844 10.152344 13.507812 10.042969 13.402344 L 3.746094 6.234375 C 5.917969 6.753906 9.175781 7.273438 12 7.273438 C 15.585938 7.273438 18.082031 6.753906 20.253906 6.234375 Z M 22.101562 3.742188 C 20.90625 4.46875 17.648438 5.714844 12 5.714844 C 6.242188 5.714844 3.308594 4.570312 2.117188 3.949219 C 1.789062 3.742188 1.789062 3.222656 2.117188 3.011719 C 3.308594 2.390625 6.351562 1.246094 12 1.246094 C 17.324219 1.246094 20.796875 2.597656 22.101562 3.117188 C 22.320312 3.222656 22.425781 3.636719 22.101562 3.742188 Z M 22.101562 3.742188 "/>
</g>
</svg>
