<?xml version="1.0" encoding="utf-8"?>
<!-- Generator: Adobe Illustrator 21.1.0, SVG Export Plug-In . SVG Version: 6.00 Build 0)  -->
<svg version="1.1" id="Layer_1" xmlns="http://www.w3.org/2000/svg" xmlns:xlink="http://www.w3.org/1999/xlink" x="0px" y="0px"
	 viewBox="0 0 24 24" style="enable-background:new 0 0 24 24;" xml:space="preserve">
<path d="M10.6,7.2h8.8v1.5h-8.8V7.2z M5.9,19.8H2.4V7.7h3.5v2.2h1.1v4.7H7v0.1h4.7v1.1h4.1v-4.1h-4.1V14h-4v-4h2.2V5.9H5.9v1.1H2.4
	V5.2h1.6V1.2H0v4.1h1.6v15.4h0.1h0.7h3.5v2.2h4.1v-4.1H5.9V19.8z M13.4,2.5H4.7v1.5h8.8V2.5z M10.6,21.5h8.8v-1.5h-8.8V21.5z M17,13
	v1.5h7V13H17z"/>
</svg>
