<?xml version="1.0" encoding="UTF-8"?>
<svg xmlns="http://www.w3.org/2000/svg" xmlns:xlink="http://www.w3.org/1999/xlink" width="24pt" height="24pt" viewBox="0 0 24 24" version="1.1">
<g id="surface1">
<path style=" stroke:none;fill-rule:nonzero;fill:rgb(0%,0%,0%);fill-opacity:1;" d="M 0 0.257812 L 0 23.605469 C 0 23.714844 0.109375 23.933594 0.328125 23.933594 L 23.671875 23.933594 C 23.78125 23.933594 24 23.824219 24 23.605469 L 24 0.257812 C 24 0.148438 23.890625 -0.0664062 23.671875 -0.0664062 L 0.328125 -0.0664062 C 0.109375 0.0429688 0 0.148438 0 0.257812 Z M 0.65625 0.585938 L 23.453125 0.585938 L 23.453125 23.386719 L 0.65625 23.386719 Z M 0.65625 0.585938 "/>
<path style=" stroke:none;fill-rule:nonzero;fill:rgb(0%,0%,0%);fill-opacity:1;" d="M 20.945312 7.855469 L 3.054688 7.855469 L 3.054688 3.054688 L 21.054688 3.054688 L 21.054688 7.855469 Z M 3.492188 7.417969 L 20.398438 7.417969 L 20.398438 3.492188 L 3.492188 3.492188 Z M 20.945312 14.398438 L 3.054688 14.398438 L 3.054688 9.601562 L 21.054688 9.601562 L 21.054688 14.398438 Z M 3.492188 13.964844 L 20.398438 13.964844 L 20.398438 10.035156 L 3.492188 10.035156 Z M 12 16.910156 L 3.273438 16.910156 L 3.273438 18 L 12 18 Z M 12 16.910156 "/>
</g>
</svg>
