<?xml version="1.0" encoding="utf-8"?>
<!-- Generator: Adobe Illustrator 21.1.0, SVG Export Plug-In . SVG Version: 6.00 Build 0)  -->
<svg version="1.1" id="Layer_1" xmlns="http://www.w3.org/2000/svg" xmlns:xlink="http://www.w3.org/1999/xlink" x="0px" y="0px"
	 viewBox="0 0 24 24" style="enable-background:new 0 0 24 24;" xml:space="preserve">
<path d="M23.3-0.1H0.7L0.5,0C0.4,0,0,0.2,0,0.6v22.6c0,0.3,0.2,0.7,0.7,0.7h22.6c0.3,0,0.7-0.2,0.7-0.7V0.6
	C24,0.3,23.7-0.1,23.3-0.1z M22.7,22.7H1.4V1.3h21.4V22.7z M21.1,9.3H3v5.4h18.2V9.3z M19.8,13.5H4.1v-3.1h15.7V13.5z M3.2,16.4h9.2
	v1.8H3.2V16.4z M21.1,3H3v5.4h18.2V3z M19.8,7.2H4.1V4.1h15.7V7.2z"/>
</svg>
