<?xml version="1.0" encoding="utf-8"?>
<!-- Generator: Adobe Illustrator 21.1.0, SVG Export Plug-In . SVG Version: 6.00 Build 0)  -->
<svg version="1.1" id="Layer_1" xmlns="http://www.w3.org/2000/svg" xmlns:xlink="http://www.w3.org/1999/xlink" x="0px" y="0px"
	 viewBox="0 0 24 24" style="enable-background:new 0 0 24 24;" xml:space="preserve">
<path d="M18.7,12.6V4.4L14.5,0H2.3v22.4h9.1c1.1,1,2.5,1.6,4.1,1.6c3.4,0,6.2-2.8,6.2-6.2C21.7,15.7,20.5,13.7,18.7,12.6z M17.2,5.4
	V12c-0.5-0.2-1.1-0.2-1.8-0.2c-3.4,0-6.2,2.8-6.2,6.2c0,1.1,0.3,2.2,0.9,3.2H3.6V1.4h10v4H17.2z M15.5,22.4c-2.5,0-4.6-2.1-4.6-4.6
	c0-2.5,2.2-4.6,4.7-4.6c2.5,0,4.6,2.1,4.6,4.6S18.1,22.4,15.5,22.4z M16.5,4h-1.6V2.3L16.5,4z M17.7,16.5c0.2,0.2,0.2,0.5,0.2,0.7
	v0.2l-0.1,0.1c-0.2,0.2-0.5,0.2-0.7,0.2h-0.1L16.2,17v3c0,0.3-0.2,0.7-0.7,0.7c-0.4,0-0.7-0.3-0.7-0.7v-2.9l-0.4,0.4
	c-0.1,0.1-0.3,0.2-0.5,0.2c-0.2,0-0.4-0.1-0.5-0.3c-0.1-0.1-0.2-0.3-0.1-0.5c0-0.2,0.1-0.4,0.3-0.5l1.6-1.5c0.3-0.3,0.7-0.1,0.8-0.1
	l0.1,0.1L17.7,16.5z"/>
</svg>
