<?xml version="1.0" encoding="utf-8"?>
<!-- Generator: Adobe Illustrator 21.1.0, SVG Export Plug-In . SVG Version: 6.00 Build 0)  -->
<svg version="1.1" id="Layer_1" xmlns="http://www.w3.org/2000/svg" xmlns:xlink="http://www.w3.org/1999/xlink" x="0px" y="0px"
	 viewBox="0 0 24 24" style="enable-background:new 0 0 24 24;" xml:space="preserve">
<path d="M14.9,13.1H5.6v-0.7h9.2V13.1z M14.9,10.9H5.6v0.7h9.2V10.9z M4.3,19.9H1.5v-4.3h2.9V19.9z M3.8,16.2H1.9v2.9h1.9V16.2z
	 M4.3,14H1.5V9.8h2.9V14z M3.8,10.4H1.9v2.9h1.9V10.4z M14.9,16.6H5.6v0.7h9.2V16.6z M14.9,18H5.6v0.7h9.2V18z M24,4.8
	c0,2.5-2.1,4.6-4.6,4.6c-1.2,0-2.2-0.5-3-1.2v14.4c0,0.3-0.2,0.5-0.5,0.5H0.5C0.2,23.2,0,23,0,22.7V7.3c0-0.3,0.2-0.5,0.5-0.5h14.8
	c-0.3-0.6-0.5-1.3-0.5-2c0-2.5,2.1-4.6,4.6-4.6C21.9,0.2,24,2.3,24,4.8z M15.4,7.8H1v14.4h14.4V7.8z M23,4.8c0-2-1.6-3.6-3.6-3.6
	c-2,0-3.6,1.6-3.6,3.6s1.6,3.6,3.6,3.6C21.4,8.4,23,6.8,23,4.8z M21.4,3v3.7c0,0.2-0.1,0.5-0.7,0.8c-0.4,0.1-0.8,0.2-1.3,0.2
	s-1-0.1-1.3-0.2c-0.6-0.2-0.7-0.6-0.7-0.8V3c0-0.2,0.1-0.5,0.7-0.8c0.7-0.3,1.9-0.3,2.7,0C21.3,2.4,21.4,2.8,21.4,3z M18,3
	c0,0,0.1,0.1,0.3,0.1c0.6,0.2,1.6,0.2,2.2,0C20.7,3.1,20.7,3,20.8,3c0,0-0.1-0.1-0.3-0.1c-0.6-0.2-1.6-0.2-2.2,0h0
	C18.1,2.9,18,3,18,3z M20.8,6.6l0-0.4c0,0,0,0-0.1,0c-0.7,0.3-1.9,0.3-2.7,0c0,0,0,0-0.1,0v0.5c0,0,0,0,0,0c0,0,0.1,0.1,0.3,0.2
	c0.6,0.2,1.6,0.2,2.1,0l0.1,0.1c0,0,0,0,0,0c0,0,0,0,0,0l-0.1-0.1C20.7,6.7,20.8,6.6,20.8,6.6z M20.8,5.4l0-0.4c0,0,0,0-0.1,0
	C20,5.2,18.8,5.2,18,5c0,0,0,0-0.1,0v0.5c0,0,0,0,0,0c0,0,0.1,0.1,0.3,0.2c0.6,0.2,1.6,0.2,2.2,0h0C20.7,5.5,20.8,5.4,20.8,5.4z
	 M20.8,4.2l0-0.4c0,0,0,0-0.1,0C20,4,18.8,4,18,3.7c0,0,0,0-0.1,0v0.5c0,0,0,0,0,0c0,0,0.1,0.1,0.3,0.2c0.6,0.2,1.6,0.2,2.2,0h0
	C20.7,4.3,20.8,4.2,20.8,4.2z"/>
</svg>
