<?xml version="1.0" encoding="UTF-8"?>
<svg xmlns="http://www.w3.org/2000/svg" xmlns:xlink="http://www.w3.org/1999/xlink" width="24pt" height="24pt" viewBox="0 0 24 24" version="1.1">
<g id="surface1">
<path style=" stroke:none;fill-rule:nonzero;fill:rgb(0%,0%,0%);fill-opacity:1;" d="M 12.546875 0 C 13.746094 0 14.617188 0.980469 14.617188 2.074219 C 14.617188 3.164062 13.636719 4.144531 12.546875 4.144531 C 11.453125 4.144531 10.472656 3.273438 10.472656 2.074219 C 10.472656 0.871094 11.34375 0 12.546875 0 Z M 12.546875 21.925781 C 13.089844 21.925781 13.636719 22.363281 13.636719 23.019531 C 13.636719 23.5625 13.199219 24.109375 12.546875 24.109375 C 11.890625 24.109375 11.453125 23.671875 11.453125 23.019531 C 11.453125 22.363281 11.890625 21.925781 12.546875 21.925781 Z M 6.328125 1.855469 C 7.199219 1.308594 8.398438 1.636719 8.945312 2.507812 C 9.492188 3.382812 9.164062 4.582031 8.289062 5.128906 C 7.308594 5.671875 6.21875 5.34375 5.671875 4.472656 C 5.128906 3.601562 5.453125 2.398438 6.328125 1.855469 Z M 17.34375 20.835938 C 17.78125 20.617188 18.328125 20.726562 18.546875 21.164062 C 18.761719 21.601562 18.65625 22.144531 18.21875 22.363281 C 17.78125 22.582031 17.238281 22.472656 17.019531 22.035156 C 16.800781 21.601562 16.910156 21.054688 17.34375 20.835938 Z M 1.964844 6.4375 C 2.398438 5.5625 3.492188 5.34375 4.363281 5.78125 C 5.238281 6.21875 5.453125 7.308594 5.019531 8.183594 C 4.582031 9.054688 3.492188 9.273438 2.617188 8.835938 C 1.746094 8.289062 1.527344 7.308594 1.964844 6.4375 Z M 20.945312 17.34375 C 21.164062 17.019531 21.601562 16.910156 21.925781 17.128906 C 22.253906 17.34375 22.363281 17.78125 22.144531 18.109375 C 21.925781 18.4375 21.492188 18.546875 21.164062 18.328125 C 20.835938 18.109375 20.726562 17.671875 20.945312 17.34375 Z M 2.074219 10.910156 C 2.945312 10.910156 3.601562 11.5625 3.601562 12.4375 C 3.601562 13.308594 2.945312 13.964844 2.074219 13.964844 C 1.199219 13.964844 0.546875 13.308594 0.546875 12.4375 C 0.546875 11.5625 1.199219 10.910156 2.074219 10.910156 Z M 22.910156 12 C 23.238281 12 23.453125 12.21875 23.453125 12.546875 C 23.453125 12.871094 23.238281 13.089844 22.910156 13.089844 C 22.582031 13.089844 22.363281 12.871094 22.363281 12.546875 C 22.472656 12.21875 22.691406 12 22.910156 12 Z M 2.835938 16.582031 C 3.492188 16.144531 4.363281 16.472656 4.691406 17.128906 C 5.128906 17.78125 4.800781 18.65625 4.144531 18.980469 C 3.492188 19.417969 2.617188 19.089844 2.289062 18.4375 C 1.964844 17.78125 2.074219 16.910156 2.835938 16.582031 Z M 21.382812 6.980469 C 21.601562 6.871094 21.710938 6.980469 21.816406 7.089844 C 21.925781 7.308594 21.816406 7.417969 21.710938 7.527344 C 21.492188 7.636719 21.382812 7.527344 21.273438 7.417969 C 21.164062 7.308594 21.273438 7.089844 21.382812 6.980469 Z M 6.21875 20.945312 C 6.546875 20.398438 7.308594 20.183594 7.855469 20.507812 C 8.398438 20.835938 8.617188 21.601562 8.289062 22.144531 C 7.964844 22.691406 7.199219 22.910156 6.65625 22.582031 C 6.109375 22.253906 5.890625 21.492188 6.21875 20.945312 Z M 6.21875 20.945312 "/>
</g>
</svg>
