<?xml version="1.0" encoding="utf-8"?>
<!-- Generator: Adobe Illustrator 21.1.0, SVG Export Plug-In . SVG Version: 6.00 Build 0)  -->
<svg version="1.1" id="Layer_1" xmlns="http://www.w3.org/2000/svg" xmlns:xlink="http://www.w3.org/1999/xlink" x="0px" y="0px"
	 viewBox="0 0 24 24" style="enable-background:new 0 0 24 24;" xml:space="preserve">
<path d="M23.4-0.1H0.6l-0.1,0C0.3,0,0,0.1,0,0.5v22.9c0,0.2,0.2,0.6,0.6,0.6h22.9c0.2,0,0.6-0.2,0.6-0.6V0.5
	C24,0.2,23.8-0.1,23.4-0.1z M23,1v21.8H1.1V1H23z M5.1,10.3h13.9c1.7,0,3.1-1.3,3.3-3.1V6.9c0-1.8-1.5-3.2-3.2-3.2H5.2
	c-1.8,0-3.2,1.5-3.2,3.2v0.3C1.9,8.9,3.3,10.3,5.1,10.3z M5.1,4.8h13.8c1.1,0,2.1,1,2.1,2.1v0.3c0,1.1-1,2.1-2.1,2.1H4.9
	c-1.1,0-2.1-1-2.1-2.1V6.9C2.8,5.7,3.9,4.8,5.1,4.8z M5.1,19.9h13.9c1.7,0,3.1-1.4,3.2-3.2v-0.3c0-1.8-1.5-3.2-3.2-3.2H5.1
	c-1.8,0-3.2,1.5-3.2,3.2v0.3C1.8,18.5,3.3,19.9,5.1,19.9z M5.1,14.4h13.9c1.1,0,2.1,1,2.1,2.1v0.3c0,1.1-1,2.1-2.1,2.1H5.1
	c-1.1,0-2.1-1-2.1-2.1v-0.3C2.9,15.3,3.9,14.4,5.1,14.4z"/>
</svg>
