<?xml version="1.0" encoding="UTF-8"?>
<svg xmlns="http://www.w3.org/2000/svg" xmlns:xlink="http://www.w3.org/1999/xlink" width="24pt" height="24pt" viewBox="0 0 24 24" version="1.1">
<g id="surface1">
<path style=" stroke:none;fill-rule:nonzero;fill:rgb(0%,0%,0%);fill-opacity:1;" d="M 6.871094 5.238281 C 6.65625 5.019531 6.328125 5.019531 6.21875 5.238281 L 0.109375 11.671875 C -0.109375 11.890625 -0.109375 12.21875 0.109375 12.328125 L 6.21875 18.761719 C 6.328125 18.871094 6.4375 18.871094 6.546875 18.871094 C 6.65625 18.871094 6.761719 18.871094 6.871094 18.761719 C 7.089844 18.546875 7.089844 18.21875 6.871094 18.109375 L 1.199219 12 L 6.980469 5.890625 C 7.089844 5.671875 7.089844 5.34375 6.871094 5.238281 Z M 23.890625 11.671875 L 17.78125 5.238281 C 17.5625 5.019531 17.238281 5.019531 17.128906 5.238281 C 16.910156 5.453125 16.910156 5.78125 17.128906 5.890625 L 22.910156 12 L 17.128906 18.109375 C 16.910156 18.328125 16.910156 18.65625 17.128906 18.761719 C 17.238281 18.871094 17.34375 18.871094 17.453125 18.871094 C 17.5625 18.871094 17.671875 18.871094 17.78125 18.761719 L 23.890625 12.328125 C 24 12.109375 24 11.890625 23.890625 11.671875 Z M 23.890625 11.671875 "/>
</g>
</svg>
