<?xml version="1.0" encoding="UTF-8"?>
<svg xmlns="http://www.w3.org/2000/svg" xmlns:xlink="http://www.w3.org/1999/xlink" width="24pt" height="24pt" viewBox="0 0 24 24" version="1.1">
<g id="surface1">
<path style=" stroke:none;fill-rule:nonzero;fill:rgb(0%,0%,0%);fill-opacity:1;" d="M 23.5625 8.398438 L 0.4375 8.398438 L 0.4375 7.527344 L 23.453125 7.527344 L 23.453125 8.398438 Z M 20.289062 4.035156 L 20.726562 4.035156 L 20.726562 1.417969 C 20.726562 0.65625 20.074219 0 19.308594 0 C 18.546875 0 17.890625 0.65625 17.890625 1.417969 L 17.890625 4.582031 L 20.289062 4.582031 Z M 18.871094 1.417969 C 18.871094 1.199219 19.089844 0.980469 19.308594 0.980469 C 19.527344 0.980469 19.746094 1.199219 19.746094 1.417969 L 19.746094 3.601562 L 18.871094 3.601562 Z M 5.5625 4.035156 L 6 4.035156 L 6 1.417969 C 6 0.65625 5.34375 0 4.582031 0 C 3.816406 0 3.164062 0.65625 3.164062 1.417969 L 3.164062 4.582031 L 5.5625 4.582031 Z M 4.144531 1.417969 C 4.144531 1.089844 4.363281 0.980469 4.582031 0.980469 C 4.800781 0.980469 5.019531 1.199219 5.019531 1.417969 L 5.019531 3.601562 L 4.144531 3.601562 Z M 24 2.289062 L 20.289062 2.289062 L 20.289062 3.273438 L 23.019531 3.273438 L 23.019531 23.128906 L 0.980469 23.128906 L 0.980469 3.164062 L 3.710938 3.164062 L 3.710938 2.289062 L 0 2.289062 L 0 24 L 24 24 Z M 18.4375 2.289062 L 5.5625 2.289062 L 5.5625 3.273438 L 18.4375 3.273438 Z M 18.4375 2.289062 "/>
<path style=" stroke:none;fill-rule:nonzero;fill:rgb(0%,0%,0%);fill-opacity:1;" d="M 11.5625 12.21875 L 10.363281 12.871094 L 10.144531 12.109375 L 11.671875 11.238281 L 12.4375 11.238281 L 12.4375 18.328125 L 11.5625 18.328125 Z M 11.5625 12.21875 "/>
</g>
</svg>
