<?xml version="1.0" encoding="UTF-8"?>
<svg xmlns="http://www.w3.org/2000/svg" xmlns:xlink="http://www.w3.org/1999/xlink" width="24pt" height="24pt" viewBox="0 0 24 24" version="1.1">
<g id="surface1">
<path style=" stroke:none;fill-rule:nonzero;fill:rgb(0%,0%,0%);fill-opacity:1;" d="M 6.328125 6.980469 C 6.546875 6.980469 6.65625 6.761719 6.65625 6.65625 C 6.65625 6.546875 6.4375 6.21875 6.328125 6.21875 C 5.890625 6.21875 5.453125 6.4375 5.128906 6.761719 C 4.800781 6.4375 4.363281 6.21875 3.925781 6.21875 C 3.816406 6.21875 3.601562 6.4375 3.601562 6.546875 C 3.601562 6.761719 3.816406 6.871094 3.925781 6.871094 C 4.144531 6.871094 4.691406 6.871094 4.691406 8.074219 L 4.691406 11.78125 C 4.691406 12.980469 4.144531 12.980469 3.925781 12.980469 C 3.710938 12.980469 3.601562 13.199219 3.601562 13.308594 C 3.601562 13.417969 3.816406 13.636719 3.925781 13.636719 C 4.363281 13.636719 4.800781 13.417969 5.128906 13.089844 C 5.34375 13.417969 5.890625 13.636719 6.328125 13.636719 C 6.546875 13.636719 6.65625 13.417969 6.65625 13.308594 C 6.65625 13.199219 6.4375 12.980469 6.328125 12.980469 C 6.109375 12.980469 5.5625 12.980469 5.5625 11.78125 L 5.5625 8.183594 C 5.453125 6.980469 6 6.980469 6.328125 6.980469 Z M 22.144531 3.601562 L 1.855469 3.601562 C 0.761719 3.601562 0 4.363281 0 5.34375 L 0 18.546875 C 0 19.527344 0.761719 20.398438 1.855469 20.398438 L 22.253906 20.398438 C 23.238281 20.398438 24.109375 19.636719 24.109375 18.546875 L 24.109375 5.34375 C 24 4.363281 23.238281 3.601562 22.144531 3.601562 Z M 23.128906 18.65625 C 23.128906 19.199219 22.691406 19.636719 22.144531 19.636719 L 1.855469 19.636719 C 1.308594 19.636719 0.871094 19.199219 0.871094 18.65625 L 0.871094 5.34375 C 0.871094 4.800781 1.308594 4.363281 1.855469 4.363281 L 22.253906 4.363281 C 22.800781 4.363281 23.238281 4.800781 23.238281 5.34375 L 23.238281 18.65625 Z M 20.289062 15.164062 C 20.398438 15.273438 20.398438 15.492188 20.289062 15.492188 L 19.089844 16.691406 C 18.980469 16.800781 18.761719 16.910156 18.546875 16.910156 C 18.328125 16.910156 18.21875 16.800781 18 16.691406 L 16.691406 15.382812 C 16.582031 15.273438 16.582031 15.054688 16.691406 15.054688 C 16.800781 14.945312 17.019531 14.945312 17.019531 15.054688 L 18.109375 16.144531 L 18.109375 7.636719 L 17.019531 8.726562 C 16.910156 8.835938 16.800781 8.835938 16.691406 8.726562 C 16.582031 8.617188 16.582031 8.507812 16.691406 8.398438 L 18 7.089844 C 18.109375 6.980469 18.328125 6.871094 18.546875 6.871094 C 18.761719 6.871094 18.871094 6.980469 19.089844 7.089844 L 20.289062 8.289062 C 20.398438 8.398438 20.398438 8.507812 20.289062 8.617188 C 20.183594 8.726562 20.074219 8.726562 19.964844 8.617188 L 18.871094 7.527344 L 18.871094 16.363281 L 19.964844 15.273438 C 20.074219 15.054688 20.183594 15.054688 20.289062 15.164062 Z M 20.289062 15.164062 "/>
</g>
</svg>
