<?xml version="1.0" encoding="utf-8"?>
<!-- Generator: Adobe Illustrator 21.1.0, SVG Export Plug-In . SVG Version: 6.00 Build 0)  -->
<svg version="1.1" id="Layer_1" xmlns="http://www.w3.org/2000/svg" xmlns:xlink="http://www.w3.org/1999/xlink" x="0px" y="0px"
	 viewBox="0 0 24 24" style="enable-background:new 0 0 24 24;" xml:space="preserve">
<g id="surface1">
	<path d="M1.5,18.7H0v-2.6h1.5V18.7z M1.5,21.4H0v2.4h2.3v-1.6H1.5V21.4z M10.6,23.7h2.8v-1.6h-2.8V23.7z M0,2.7h1.5V1.9h0.8V0.3H0
		V2.7z M13.4,0.3h-2.8v1.6h2.8V0.3z M1.5,10.7H0v2.6h1.5V10.7z M7.9,0.3H5v1.6h2.8V0.3z M1.5,5.3H0v2.7h1.5V5.3z M5,23.7h2.8v-1.6H5
		V23.7z M22.5,18.7H24v-2.6h-1.5V18.7z M22.5,13.3H24v-2.6h-1.5V13.3z M22.5,8.1H24V5.3h-1.5V8.1z M21.7,0.3v1.6h0.8v0.8H24V0.3
		H21.7z M22.5,22.2h-0.8v1.6H24v-2.4h-1.5V22.2z M5,8.1h14V5.3H5V8.1z M16.1,1.9H19V0.3h-2.8V1.9z M16.1,23.7H19v-1.6h-2.8V23.7z"/>
</g>
</svg>
