<?xml version="1.0" encoding="UTF-8"?>
<svg xmlns="http://www.w3.org/2000/svg" xmlns:xlink="http://www.w3.org/1999/xlink" width="24pt" height="24pt" viewBox="0 0 24 24" version="1.1">
<g id="surface1">
<path style=" stroke:none;fill-rule:nonzero;fill:rgb(0%,0%,0%);fill-opacity:1;" d="M 24 22.398438 L 24 23.800781 L 0 23.800781 L 0 0.199219 L 1.527344 0.199219 L 1.527344 22.398438 Z M 12.546875 15.101562 C 12.546875 17.699219 14.835938 19.699219 17.5625 19.699219 C 20.398438 19.699219 22.582031 17.601562 22.582031 15.101562 C 22.582031 12.5 20.289062 10.5 17.5625 10.5 C 14.835938 10.5 12.546875 12.601562 12.546875 15.101562 Z M 10.472656 8.699219 C 12.871094 8.699219 14.835938 6.898438 14.835938 4.699219 C 14.835938 2.5 12.871094 0.699219 10.472656 0.699219 C 8.074219 0.699219 6.109375 2.5 6.109375 4.699219 C 6.109375 6.898438 8.074219 8.699219 10.472656 8.699219 Z M 6.871094 17.398438 C 8.289062 17.398438 9.382812 16.398438 9.382812 15.101562 C 9.382812 13.800781 8.289062 12.800781 6.871094 12.800781 C 5.453125 12.800781 4.363281 13.898438 4.363281 15.101562 C 4.363281 16.300781 5.453125 17.398438 6.871094 17.398438 Z M 6.871094 17.398438 "/>
</g>
</svg>
