<?xml version="1.0" encoding="utf-8"?>
<!-- Generator: Adobe Illustrator 21.1.0, SVG Export Plug-In . SVG Version: 6.00 Build 0)  -->
<svg version="1.1" id="Layer_1" xmlns="http://www.w3.org/2000/svg" xmlns:xlink="http://www.w3.org/1999/xlink" x="0px" y="0px"
	 viewBox="0 0 24 24" style="enable-background:new 0 0 24 24;" xml:space="preserve">
<path d="M-0.1,0.1V23h23.9v-0.3h0.1V0.1H-0.1z M1,21.8V1.1h21.9v20.7H1z M4.3,18.6h15.1v-0.3h0.1v-4.1H4.3V18.6z M18.6,17.4h-2.6
	v-2.2h2.6V17.4z M13.4,17.4h-2.8v-2.2h2.8V17.4z M7.9,17.4H5.5v-2.2h2.5V17.4z M19.9,5.4c-0.1,0-0.2,0-0.2,0V3.2H4.3v2.2
	c0,0,0,0,0,0C4.2,5.3,4,5.3,3.8,5.5L1.9,7.4v0.4l2,2h0.4v3.3h15.4V9.8h0.4l2-2V7.4l-2-1.9C20.1,5.4,20,5.4,19.9,5.4z M18.6,4.4V12
	H5.4V4.4H18.6z M3,7.6l1.4-1.4V9L3,7.6z M19.7,6.3L21,7.6L19.7,9V6.3z"/>
</svg>
