<?xml version="1.0" encoding="utf-8"?>
<!-- Generator: Adobe Illustrator 21.1.0, SVG Export Plug-In . SVG Version: 6.00 Build 0)  -->
<svg version="1.1" id="Layer_1" xmlns="http://www.w3.org/2000/svg" xmlns:xlink="http://www.w3.org/1999/xlink" x="0px" y="0px"
	 viewBox="0 0 24 24" style="enable-background:new 0 0 24 24;" xml:space="preserve">
<path d="M24,11.9c-0.1-0.3-0.4-0.6-0.8-0.6h-1.4c-0.3-0.9-1.1-1.5-2.1-1.5c-1,0-1.8,0.6-2.1,1.5H6.3C6,10.5,5.1,9.8,4.2,9.8
	c-1,0-1.8,0.6-2.1,1.5H0.7c-0.4,0-0.7,0.3-0.7,0.7c0,0.4,0.3,0.7,0.7,0.7h1.4c0.3,0.9,1.1,1.5,2.1,1.5c1,0,1.8-0.6,2.1-1.5h11.4
	c0.3,0.9,1.1,1.5,2.1,1.5c1,0,1.8-0.6,2.1-1.5h1.4c0.4,0,0.7-0.3,0.7-0.7L24,11.9z M19.8,11.2c0.4,0,0.8,0.4,0.8,0.9
	c0,0.2,0,0.4-0.1,0.5c-0.1,0.2-0.4,0.3-0.7,0.3c-0.5,0-0.8-0.4-0.8-0.8C18.9,11.5,19.4,11.2,19.8,11.2z M4.2,12.8
	c-0.5,0-0.8-0.4-0.8-0.8c0-0.4,0.4-0.8,0.8-0.8c0.5,0,0.8,0.4,0.8,0.8C5.1,12.4,4.7,12.8,4.2,12.8z"/>
</svg>
