<?xml version="1.0" encoding="utf-8"?>
<!-- Generator: Adobe Illustrator 21.1.0, SVG Export Plug-In . SVG Version: 6.00 Build 0)  -->
<svg version="1.1" id="Layer_1" xmlns="http://www.w3.org/2000/svg" xmlns:xlink="http://www.w3.org/1999/xlink" x="0px" y="0px"
	 viewBox="0 0 24 24" style="enable-background:new 0 0 24 24;" xml:space="preserve">
<style type="text/css">
	.st0{fill:#FFFFFF;}
	.st1{fill:none;stroke:#000000;stroke-width:1.5;stroke-miterlimit:10;}
</style>
<g>
	<path class="st0" d="M2,12.2c-0.7,0-1.2-0.6-1.2-1.2S1.3,9.8,2,9.8h20c0.7,0,1.2,0.6,1.2,1.2s-0.6,1.2-1.2,1.2H2z"/>
	<path d="M22,10.5c0.3,0,0.5,0.2,0.5,0.5s-0.2,0.5-0.5,0.5H2c-0.3,0-0.5-0.2-0.5-0.5s0.2-0.5,0.5-0.5H22 M22,9H2c-1.1,0-2,0.9-2,2
		s0.9,2,2,2h20c1.1,0,2-0.9,2-2S23.1,9,22,9L22,9z"/>
</g>
<g>
	<path class="st1" d="M8,10v2 M16,10v2"/>
</g>
</svg>
