<?xml version="1.0" encoding="UTF-8"?>
<svg xmlns="http://www.w3.org/2000/svg" xmlns:xlink="http://www.w3.org/1999/xlink" width="24pt" height="24pt" viewBox="0 0 24 24" version="1.1">
<g id="surface1">
<path style=" stroke:none;fill-rule:nonzero;fill:rgb(0%,0%,0%);fill-opacity:1;" d="M 23.78125 0 L 0.21875 0 C 0.109375 0 0 0.109375 0 0.21875 L 0 23.78125 C 0 23.890625 0.109375 24 0.21875 24 L 23.78125 24 C 23.890625 24 24 23.890625 24 23.78125 L 24 0.21875 C 24 0.109375 23.890625 0 23.78125 0 Z M 15.710938 11.78125 L 12.328125 11.78125 L 12.328125 8.289062 L 15.710938 8.289062 Z M 16.144531 8.289062 L 19.636719 8.289062 L 19.636719 11.671875 L 16.253906 11.671875 L 16.253906 8.289062 Z M 12.21875 7.855469 L 12.21875 4.363281 L 15.601562 4.363281 L 15.601562 7.746094 L 12.21875 7.746094 Z M 11.78125 7.855469 L 8.289062 7.855469 L 8.289062 4.363281 L 11.671875 4.363281 L 11.671875 7.855469 Z M 11.78125 8.289062 L 11.78125 11.671875 L 8.289062 11.671875 L 8.289062 8.289062 Z M 7.855469 11.78125 L 4.363281 11.78125 L 4.363281 8.289062 L 7.746094 8.289062 L 7.746094 11.78125 Z M 3.925781 11.78125 L 0.4375 11.78125 L 0.4375 8.289062 L 3.816406 8.289062 L 3.816406 11.78125 Z M 3.925781 12.21875 L 3.925781 15.601562 L 0.4375 15.601562 L 0.4375 12.21875 Z M 4.363281 12.21875 L 7.746094 12.21875 L 7.746094 15.601562 L 4.363281 15.601562 Z M 8.289062 12.21875 L 11.671875 12.21875 L 11.671875 15.601562 L 8.289062 15.601562 Z M 11.78125 16.144531 L 11.78125 19.636719 L 8.289062 19.636719 L 8.289062 16.253906 L 11.78125 16.253906 Z M 12.21875 16.144531 L 15.601562 16.144531 L 15.601562 19.636719 L 12.21875 19.636719 Z M 12.21875 15.710938 L 12.21875 12.328125 L 15.601562 12.328125 L 15.601562 15.710938 Z M 16.144531 12.21875 L 19.636719 12.21875 L 19.636719 15.601562 L 16.253906 15.601562 L 16.253906 12.21875 Z M 20.074219 12.21875 L 23.453125 12.21875 L 23.453125 15.601562 L 20.074219 15.601562 Z M 20.074219 11.78125 L 20.074219 8.289062 L 23.453125 8.289062 L 23.453125 11.671875 L 20.074219 11.671875 Z M 20.074219 7.855469 L 20.074219 4.363281 L 23.453125 4.363281 L 23.453125 7.746094 L 20.074219 7.746094 Z M 19.636719 7.855469 L 16.253906 7.855469 L 16.253906 4.363281 L 19.636719 4.363281 Z M 7.855469 4.363281 L 7.855469 7.746094 L 4.363281 7.746094 L 4.363281 4.363281 Z M 3.925781 7.855469 L 0.4375 7.855469 L 0.4375 4.363281 L 3.816406 4.363281 L 3.816406 7.855469 Z M 0.4375 16.144531 L 3.816406 16.144531 L 3.816406 19.636719 L 0.4375 19.636719 Z M 4.363281 16.144531 L 7.746094 16.144531 L 7.746094 19.636719 L 4.363281 19.636719 Z M 7.855469 20.074219 L 7.855469 23.453125 L 4.363281 23.453125 L 4.363281 20.074219 Z M 8.289062 20.074219 L 11.671875 20.074219 L 11.671875 23.453125 L 8.289062 23.453125 Z M 12.21875 20.074219 L 15.601562 20.074219 L 15.601562 23.453125 L 12.21875 23.453125 Z M 16.144531 20.074219 L 19.636719 20.074219 L 19.636719 23.453125 L 16.253906 23.453125 L 16.253906 20.074219 Z M 16.144531 19.636719 L 16.144531 16.253906 L 19.636719 16.253906 L 19.636719 19.636719 Z M 20.074219 16.144531 L 23.453125 16.144531 L 23.453125 19.636719 L 20.074219 19.636719 Z M 0.4375 20.074219 L 3.816406 20.074219 L 3.816406 23.453125 L 0.4375 23.453125 Z M 20.074219 23.5625 L 20.074219 20.183594 L 23.453125 20.183594 L 23.453125 23.5625 Z M 20.074219 23.5625 "/>
</g>
</svg>
