<?xml version="1.0" encoding="utf-8"?>
<!-- Generator: Adobe Illustrator 21.1.0, SVG Export Plug-In . SVG Version: 6.00 Build 0)  -->
<svg version="1.1" id="Layer_1" xmlns="http://www.w3.org/2000/svg" xmlns:xlink="http://www.w3.org/1999/xlink" x="0px" y="0px"
	 viewBox="0 0 24 24" style="enable-background:new 0 0 24 24;" xml:space="preserve">
<path d="M20.2,11.9v9.9c0,0.5-0.3,0.8-0.8,0.8H0.9c-0.5,0-0.8-0.3-0.8-0.8V3.2c0-0.3,0.3-0.8,0.8-0.8h16.5c0.5,0,0.8,0.3,0.8,0.8
	c0,0.4-0.3,0.8-0.8,0.8H1.6v17h17v-9.1c0-0.5,0.3-0.8,0.8-0.8S20.2,11.5,20.2,11.9z M24,1.8L24,1.8c-0.3-0.3-0.7-0.5-1-0.5
	c-0.2,0-0.4,0.2-0.5,0.3c-1.4,1.4-3.6,3.8-5.9,6.2c-2.4,2.6-5,5.3-6.6,7l-4-3.4c-0.2-0.2-0.5-0.3-0.7-0.2c-0.2,0-0.3,0.1-0.4,0.2
	c-0.1,0.1-0.2,0.4-0.2,0.6c0,0.2,0.2,0.4,0.3,0.5l4.5,4c0.2,0.2,0.3,0.2,0.5,0.2c0.2,0,0.4-0.1,0.5-0.2c1.5-1.5,4.1-4.3,6.5-6.9
	c2.5-2.6,5-5.4,6.5-6.9C24,2.6,24.2,2.2,24,1.8z"/>
</svg>
