<?xml version="1.0" encoding="utf-8"?>
<!-- Generator: Adobe Illustrator 21.1.0, SVG Export Plug-In . SVG Version: 6.00 Build 0)  -->
<svg version="1.1" id="Layer_1" xmlns="http://www.w3.org/2000/svg" xmlns:xlink="http://www.w3.org/1999/xlink" x="0px" y="0px"
	 viewBox="0 0 24 24" style="enable-background:new 0 0 24 24;" xml:space="preserve">
<g id="surface1">
	<path d="M20,0.8C17.9,0.3,15,0,12,0S6.1,0.3,4,0.8C1.4,1.5,0.1,2.3,0.1,3.5c0,0.4,0.2,0.8,0.5,1.1l8.1,9.5v9c0,0.3,0.1,0.5,0.4,0.7
		C9.3,24,9.5,24,9.6,24s0.2,0,0.4-0.1l4.8-2.3c0.3-0.1,0.5-0.4,0.5-0.7v-6.8l8.1-9.5c0.2-0.3,0.4-0.7,0.4-1.1
		C23.9,2.3,22.6,1.5,20,0.8z M14.1,13.4c-0.1,0.1-0.2,0.3-0.2,0.5l-0.1,6.8l-3.5,1.6v-8.3c0-0.2-0.1-0.4-0.2-0.5L3.7,6.2
		c2.2,0.5,5.4,1,8.3,1c3.6,0,6.1-0.5,8.3-1L14.1,13.4z M22.1,3.7c-1.2,0.7-4.5,2-10.1,2c-5.8,0-8.7-1.1-9.9-1.8
		C1.8,3.7,1.8,3.2,2.1,3C3.3,2.4,6.4,1.2,12,1.2c5.3,0,8.8,1.4,10.1,1.9C22.3,3.2,22.4,3.6,22.1,3.7z"/>
</g>
</svg>
