<?xml version="1.0" encoding="utf-8"?>
<!-- Generator: Adobe Illustrator 21.1.0, SVG Export Plug-In . SVG Version: 6.00 Build 0)  -->
<svg version="1.1" id="Layer_1" xmlns="http://www.w3.org/2000/svg" xmlns:xlink="http://www.w3.org/1999/xlink" x="0px" y="0px"
	 viewBox="0 0 24 24" style="enable-background:new 0 0 24 24;" xml:space="preserve">
<style type="text/css">
	.st0{stroke:#000000;stroke-width:0.25;stroke-miterlimit:10;}
</style>
<g id="surface1">
	<path class="st0" d="M13.4,8.9C13,8.6,12.5,8.6,12,8.6c-1.9,0-3.4,1.8-3.6,4c0,0.1,0,0.4,0,0.5c0,2.6,1.6,4.7,3.7,4.7
		s3.7-2.1,3.7-4.7C15.7,11.2,14.7,9.6,13.4,8.9z M12.3,15.3h-0.1v0.5c0,0.1-0.1,0.3-0.2,0.3s-0.2-0.1-0.2-0.3v-0.5h-0.7
		c-0.1,0-0.2-0.1-0.2-0.3s0.1-0.3,0.2-0.3h1.2c0.3,0,0.5-0.3,0.5-0.7c0-0.4-0.2-0.7-0.5-0.7h-0.7c-0.5,0-0.9-0.5-0.9-1.2
		c0-0.7,0.4-1.2,1-1.2h0.1v-0.4c0-0.1,0.1-0.3,0.2-0.3s0.2,0.1,0.2,0.3v0.5H13c0.1,0,0.2,0.1,0.2,0.3s-0.1,0.3-0.2,0.3h-1.2
		c-0.3,0-0.5,0.3-0.5,0.7c0,0.4,0.2,0.7,0.5,0.7h0.7c0.5,0,1,0.5,1,1.2C13.3,14.8,12.9,15.3,12.3,15.3z M23,4.8H1
		c-0.5,0-1,0.5-1,1.4v14.1c0,0.7,0.4,1.2,1,1.2h21.9c0.5,0,1-0.5,1-1.2V6.2C24,5.3,23.6,4.8,23,4.8z M23.5,20.1
		c0,0.4-0.2,0.7-0.5,0.7H1c-0.3,0-0.5-0.3-0.5-0.7v-14c0-0.4,0.2-0.7,0.5-0.7h21.9c0.3,0,0.5,0.3,0.5,0.7V20.1z M20.4,6.4V6.2H3.6
		v0.3c0,1.2-0.3,3.1-2.3,3.1H1v7h0.2c2,0,2.3,2.1,2.3,3.2V20h16.8v-0.3c0-1.2,0.3-3.2,2.3-3.2h0.2v-6.3h-0.2
		C21.2,10.3,20.4,8.2,20.4,6.4z M22.5,16c-1.5,0.1-2.5,1.4-2.5,3.6H4c-0.1-2.1-1-3.4-2.5-3.6v-5.7C3.1,10.1,4,8.9,4,6.7h15.8
		c0.1,1.9,0.9,4,2.5,4.1L22.5,16z"/>
</g>
</svg>
