<?xml version="1.0" encoding="UTF-8"?>
<svg xmlns="http://www.w3.org/2000/svg" xmlns:xlink="http://www.w3.org/1999/xlink" width="24pt" height="24pt" viewBox="0 0 24 24" version="1.1">
<g id="surface1">
<path style=" stroke:none;fill-rule:nonzero;fill:rgb(0%,0%,0%);fill-opacity:1;" d="M 20.507812 -0.0351562 C 20.289062 -0.0351562 20.074219 0.183594 20.183594 0.398438 C 20.183594 0.617188 20.398438 0.726562 20.617188 0.726562 L 23.238281 0.726562 L 23.238281 3.34375 C 23.238281 3.5625 23.453125 3.78125 23.671875 3.78125 C 23.890625 3.78125 24.109375 3.5625 24.109375 3.34375 L 24.109375 0.398438 C 24.109375 0.183594 23.890625 -0.0351562 23.671875 -0.0351562 Z M 0.4375 -0.0351562 C 0.21875 -0.0351562 0 0.183594 0 0.398438 L 0 3.34375 C 0 3.5625 0.109375 3.78125 0.4375 3.78125 C 0.65625 3.78125 0.871094 3.671875 0.871094 3.34375 C 0.871094 3.34375 0.871094 3.34375 0.871094 3.238281 L 0.871094 0.617188 L 3.492188 0.617188 C 3.710938 0.617188 3.925781 0.507812 3.925781 0.183594 C 3.925781 -0.0351562 3.816406 -0.253906 3.492188 -0.253906 C 3.492188 -0.253906 3.492188 -0.253906 3.382812 -0.253906 L 0.4375 -0.253906 C 0.4375 -0.0351562 0.4375 -0.0351562 0.4375 -0.0351562 Z M 23.5625 20.144531 C 23.34375 20.144531 23.128906 20.363281 23.238281 20.582031 L 23.238281 23.199219 L 20.617188 23.199219 C 20.398438 23.199219 20.183594 23.308594 20.183594 23.636719 C 20.183594 23.855469 20.289062 24.074219 20.617188 24.074219 C 20.617188 24.074219 20.617188 24.074219 20.726562 24.074219 L 23.671875 24.074219 C 23.890625 24.074219 24.109375 23.855469 24.109375 23.636719 L 24.109375 20.691406 C 24 20.363281 23.78125 20.144531 23.5625 20.144531 Z M 0 20.582031 L 0 23.964844 L 3.382812 23.964844 L 3.382812 23.089844 L 0.871094 23.089844 L 0.871094 20.472656 L 0 20.472656 Z M 9.816406 4.761719 L 9.816406 11.636719 L 10.691406 11.636719 L 10.691406 4.761719 Z M 11.5625 4.761719 L 11.5625 11.636719 L 12.4375 11.636719 L 12.4375 4.761719 Z M 15.054688 4.761719 L 15.054688 11.636719 L 15.925781 11.636719 L 15.925781 4.761719 Z M 3.054688 4.761719 L 3.054688 11.636719 L 3.925781 11.636719 L 3.925781 4.761719 Z M 4.691406 4.761719 L 4.691406 11.636719 L 5.5625 11.636719 L 5.5625 4.761719 Z M 6.4375 4.761719 L 6.4375 11.636719 L 7.308594 11.636719 L 7.308594 4.761719 Z M 8.183594 4.761719 L 8.183594 11.636719 L 9.054688 11.636719 L 9.054688 4.761719 Z M 13.308594 4.761719 L 13.308594 11.636719 L 14.183594 11.636719 L 14.183594 4.761719 Z M 16.691406 4.761719 L 16.691406 11.636719 L 17.5625 11.636719 L 17.5625 4.761719 Z M 18.4375 4.761719 L 18.4375 11.636719 L 19.308594 11.636719 L 19.308594 4.761719 Z M 20.183594 4.761719 L 20.183594 11.636719 L 21.054688 11.636719 L 21.054688 4.761719 Z M 3.054688 12.398438 L 3.054688 19.273438 L 3.925781 19.273438 L 3.925781 12.398438 Z M 4.691406 12.398438 L 4.691406 17.527344 L 5.5625 17.527344 L 5.5625 12.398438 Z M 6.4375 12.398438 L 6.4375 17.527344 L 7.308594 17.527344 L 7.308594 12.398438 Z M 8.183594 12.398438 L 8.183594 17.527344 L 9.054688 17.527344 L 9.054688 12.398438 Z M 9.816406 12.398438 L 9.816406 19.273438 L 10.691406 19.273438 L 10.691406 12.398438 Z M 11.5625 12.398438 L 11.5625 17.527344 L 12.4375 17.527344 L 12.4375 12.398438 Z M 13.308594 12.398438 L 13.308594 19.273438 L 14.183594 19.273438 L 14.183594 12.398438 Z M 15.054688 12.398438 L 15.054688 17.527344 L 15.925781 17.527344 L 15.925781 12.398438 Z M 16.691406 12.398438 L 16.691406 19.273438 L 17.5625 19.273438 L 17.5625 12.398438 Z M 18.4375 12.398438 L 18.4375 17.527344 L 19.308594 17.527344 L 19.308594 12.398438 Z M 20.183594 12.398438 L 20.183594 19.273438 L 21.054688 19.273438 L 21.054688 12.398438 Z M 4.691406 18.398438 L 5.5625 18.398438 L 5.5625 19.273438 L 4.691406 19.273438 Z M 6.4375 18.398438 L 7.308594 18.398438 L 7.308594 19.273438 L 6.4375 19.273438 Z M 8.183594 18.398438 L 9.054688 18.398438 L 9.054688 19.273438 L 8.183594 19.273438 Z M 15.054688 18.398438 L 15.925781 18.398438 L 15.925781 19.273438 L 15.054688 19.273438 Z M 18.4375 18.398438 L 19.308594 18.398438 L 19.308594 19.273438 L 18.4375 19.273438 Z M 0 11.527344 L 0 12.398438 L 1.746094 12.398438 L 1.746094 11.527344 C 1.746094 11.527344 0 11.527344 0 11.527344 Z M 22.253906 11.527344 L 22.253906 12.398438 L 24 12.398438 L 24 11.527344 Z M 22.253906 11.527344 "/>
</g>
</svg>
