<?xml version="1.0" encoding="utf-8"?>
<!-- Generator: Adobe Illustrator 21.1.0, SVG Export Plug-In . SVG Version: 6.00 Build 0)  -->
<svg version="1.1" id="Layer_1" xmlns="http://www.w3.org/2000/svg" xmlns:xlink="http://www.w3.org/1999/xlink" x="0px" y="0px"
	 viewBox="0 0 24 24" style="enable-background:new 0 0 24 24;" xml:space="preserve">
<path d="M9.9,8.1C9.8,7.8,9.8,7.5,10,7.2C10.1,7,10.4,6.9,10.7,7c0.5,0,0.8,0.4,0.8,0.8c0,0.2-0.1,0.4-0.2,0.6
	c-0.1,0.1-0.3,0.2-0.6,0.2C10.3,8.6,10,8.4,9.9,8.1z M21.2,20h-4v4H3v-20h4V0h14.2V20z M4.5,5.4v5.1l3-2.7h0.2C7.8,7.8,7.9,7.9,8,8
	l3.2,3.1l2-2c0.2-0.2,0.4-0.2,0.6-0.2L14.1,9l0,0.1l1.6,1.5V5.4H4.5z M4.5,13.2h11.3v-1.1l-2.2-2.1l-2,2c-0.2,0.2-0.4,0.2-0.6,0.1
	l-0.2-0.1l0-0.1L7.5,9.1l-3.1,2.7V13.2z M15.7,22.5v-8.2H4.5v8.2H15.7z M19.7,1.4H8.4v2.5h8.8v7.9l0,0l0,0v6.7h2.5V1.4z M6.8,19.7
	h7.4v-1H6.8V19.7z M11.2,15.7H6.8v1h4.5V15.7z"/>
</svg>
