<?xml version="1.0" encoding="UTF-8"?>
<svg xmlns="http://www.w3.org/2000/svg" xmlns:xlink="http://www.w3.org/1999/xlink" width="24pt" height="24pt" viewBox="0 0 24 24" version="1.1">
<g id="surface1">
<path style=" stroke:none;fill-rule:nonzero;fill:rgb(0%,0%,0%);fill-opacity:1;" d="M 0.546875 0 C 0.21875 0 0 0.21875 0 0.546875 L 0 23.453125 C 0 23.78125 0.21875 24 0.546875 24 L 23.453125 24 C 23.78125 24 24 23.78125 24 23.453125 L 24 0.546875 C 24 0.21875 23.78125 0 23.453125 0 Z M 1.089844 1.089844 L 22.910156 1.089844 L 22.910156 22.910156 L 1.089844 22.910156 Z M 1.089844 1.089844 "/>
<path style=" stroke:none;fill-rule:nonzero;fill:rgb(0%,0%,0%);fill-opacity:1;" d="M 8.398438 8.289062 L 21.816406 8.289062 L 21.816406 8.945312 L 8.398438 8.945312 Z M 8.398438 8.289062 "/>
<path style=" stroke:none;fill-rule:nonzero;fill:rgb(0%,0%,0%);fill-opacity:1;" d="M 8.398438 6.109375 L 21.816406 6.109375 L 21.816406 6.761719 L 8.398438 6.761719 Z M 8.398438 6.109375 "/>
<path style=" stroke:none;fill-rule:nonzero;fill:rgb(0%,0%,0%);fill-opacity:1;" d="M 2.183594 19.089844 L 6.109375 19.089844 L 6.109375 13.089844 L 2.183594 13.089844 Z M 2.507812 13.636719 L 5.671875 13.636719 L 5.671875 18.328125 L 2.507812 18.328125 Z M 2.507812 13.636719 "/>
<path style=" stroke:none;fill-rule:nonzero;fill:rgb(0%,0%,0%);fill-opacity:1;" d="M 2.183594 10.363281 L 6.109375 10.363281 L 6.109375 4.363281 L 2.183594 4.363281 Z M 2.507812 4.910156 L 5.671875 4.910156 L 5.671875 9.601562 L 2.507812 9.601562 Z M 2.507812 4.910156 "/>
<path style=" stroke:none;fill-rule:nonzero;fill:rgb(0%,0%,0%);fill-opacity:1;" d="M 8.398438 14.617188 L 21.816406 14.617188 L 21.816406 15.273438 L 8.398438 15.273438 Z M 8.398438 14.617188 "/>
<path style=" stroke:none;fill-rule:nonzero;fill:rgb(0%,0%,0%);fill-opacity:1;" d="M 8.398438 16.582031 L 21.816406 16.582031 L 21.816406 17.238281 L 8.398438 17.238281 Z M 8.398438 16.582031 "/>
</g>
</svg>
