<?xml version="1.0" encoding="utf-8"?>
<!-- Generator: Adobe Illustrator 21.1.0, SVG Export Plug-In . SVG Version: 6.00 Build 0)  -->
<svg version="1.1" id="Layer_1" xmlns="http://www.w3.org/2000/svg" xmlns:xlink="http://www.w3.org/1999/xlink" x="0px" y="0px"
	 viewBox="0 0 24 24" style="enable-background:new 0 0 24 24;" xml:space="preserve">
<path d="M12,18.7c3,0,5.4-2.4,5.4-5.4c0-3-2.4-5.4-5.4-5.4s-5.4,2.4-5.4,5.4C6.6,16.3,9,18.7,12,18.7z M12,9.3
	c2.3,0,4.1,1.8,4.1,4.1s-1.8,4.1-4.1,4.1s-4.1-1.8-4.1-4.1S9.7,9.3,12,9.3z M21.5,5h-4.6l-1.2-2.3c-0.1-0.2-0.4-0.4-0.5-0.4H8.7v0.1
	c-0.2,0-0.4,0.2-0.4,0.4L7.1,5H2.5C1.1,5,0,6.2,0,7.5v11.7c0,1.4,1.1,2.5,2.5,2.5h19c1.4,0,2.5-1.1,2.5-2.5V7.5
	C24,6.2,22.9,5,21.5,5z M1.3,7.5c0-0.7,0.5-1.2,1.2-1.2h5C7.8,6.3,8,6.2,8,5.9l1.2-2.3h5.6L16,5.9c0.1,0.3,0.4,0.4,0.5,0.4h5
	c0.7,0,1.2,0.5,1.2,1.2v11.7c0,0.7-0.5,1.2-1.2,1.2h-19c-0.7,0-1.2-0.5-1.2-1.2V7.5z"/>
</svg>
