<?xml version="1.0" encoding="utf-8"?>
<!-- Generator: Adobe Illustrator 21.1.0, SVG Export Plug-In . SVG Version: 6.00 Build 0)  -->
<svg version="1.1" id="Layer_1" xmlns="http://www.w3.org/2000/svg" xmlns:xlink="http://www.w3.org/1999/xlink" x="0px" y="0px"
	 viewBox="0 0 24 24" style="enable-background:new 0 0 24 24;" xml:space="preserve">
<g id="surface1">
	<path d="M3.2,18.7c0-1.3,1.1-2.3,2.3-2.3c0.4,0,0.9,0.1,1.2,0.3l1.8-1.8c-0.2-0.3-0.3-0.8-0.3-1.2c0-1.3,1.1-2.3,2.3-2.3
		c0.5,0,1,0.2,1.3,0.4l1.7-1.7c-0.3-0.3-0.4-0.9-0.4-1.3c0-1.2,1-2.3,2.2-2.3c0.5,0,1,0.2,1.5,0.4l1.7-1.6c-0.3-0.4-0.4-0.9-0.4-1.3
		c0-1.3,1-2.3,2.3-2.3c1.3,0,2.3,1.1,2.3,2.3c0,1.3-1.1,2.3-2.3,2.3c-0.5,0-1-0.2-1.3-0.4l-1.7,1.6c0.2,0.3,0.3,0.8,0.3,1.2
		c0,1.3-1.1,2.3-2.3,2.3c-0.5,0-1-0.2-1.3-0.4l-1.7,1.7c0.3,0.4,0.4,0.9,0.4,1.3c0,1.3-1.1,2.3-2.3,2.3c-0.4,0-1-0.1-1.3-0.4
		l-1.8,1.8c0.2,0.3,0.4,0.8,0.4,1.3c0,1.3-1.1,2.3-2.3,2.3C4.2,20.9,3.2,20,3.2,18.7z M1.6,22.7V0H0.1v24h23.9v-1.5L1.6,22.7z"/>
</g>
</svg>
