<?xml version="1.0" encoding="UTF-8"?>
<svg xmlns="http://www.w3.org/2000/svg" xmlns:xlink="http://www.w3.org/1999/xlink" width="24pt" height="24pt" viewBox="0 0 24 24" version="1.1">
<g id="surface1">
<path style=" stroke:none;fill-rule:nonzero;fill:rgb(0%,0%,0%);fill-opacity:1;" d="M 24.109375 8.835938 C 24.109375 5.671875 21.492188 3.054688 18.328125 3.054688 C 16.253906 3.054688 14.507812 4.144531 13.417969 5.78125 L 0.109375 5.78125 L 0.109375 18.871094 L 8.945312 18.871094 L 11.019531 20.945312 L 13.089844 18.871094 L 21.925781 18.871094 L 21.925781 13.527344 C 23.128906 12.4375 24.109375 10.691406 24.109375 8.835938 Z M 0.546875 6.328125 L 13.199219 6.328125 C 12.871094 7.089844 12.65625 7.964844 12.65625 8.835938 C 12.65625 8.835938 12.65625 8.945312 12.65625 8.945312 L 0.65625 8.945312 L 0.65625 6.328125 Z M 21.164062 18.328125 L 12.65625 18.328125 L 10.910156 20.183594 L 9.054688 18.328125 L 0.546875 18.328125 L 0.546875 9.601562 L 12.65625 9.601562 C 12.980469 12.4375 15.382812 14.617188 18.328125 14.617188 C 19.417969 14.617188 20.398438 14.289062 21.164062 13.855469 Z M 21.273438 13.089844 C 21.273438 13.089844 21.164062 13.199219 21.164062 13.199219 C 20.289062 13.746094 19.308594 14.074219 18.328125 14.074219 C 15.492188 14.074219 13.089844 11.671875 13.089844 8.835938 C 13.089844 6 15.492188 3.601562 18.328125 3.601562 C 21.164062 3.601562 23.5625 6 23.5625 8.835938 C 23.5625 10.582031 22.691406 12.21875 21.273438 13.089844 Z M 12.4375 11.453125 L 1.964844 11.453125 L 1.964844 10.691406 L 11.890625 10.691406 C 12 11.019531 12.109375 11.128906 12.4375 11.453125 Z M 14.507812 14.617188 L 1.964844 14.617188 L 1.964844 13.636719 L 13.636719 13.636719 C 13.746094 13.964844 14.183594 14.289062 14.507812 14.617188 Z M 21.273438 5.890625 C 21.492188 6.109375 21.710938 6.546875 21.710938 6.871094 C 21.710938 7.199219 21.601562 7.636719 21.382812 7.855469 L 20.398438 8.726562 C 20.289062 8.835938 20.183594 8.835938 20.183594 8.726562 C 20.074219 8.617188 20.074219 8.507812 20.183594 8.507812 L 21.054688 7.636719 C 21.273438 7.417969 21.382812 7.199219 21.382812 6.871094 C 21.382812 6.546875 21.273438 6.328125 21.054688 6.109375 C 20.835938 5.890625 20.617188 5.78125 20.289062 5.78125 C 19.964844 5.78125 19.746094 5.890625 19.527344 6.109375 C 19.089844 6.546875 18.546875 7.089844 18.109375 7.527344 C 17.890625 7.746094 17.78125 7.964844 17.78125 8.289062 C 17.78125 8.617188 17.890625 8.835938 18.109375 9.054688 C 18.21875 9.164062 18.21875 9.164062 18.328125 9.273438 C 18.4375 9.382812 18.4375 9.382812 18.4375 9.492188 C 18.4375 9.601562 18.328125 9.601562 18.328125 9.601562 C 18.328125 9.601562 18.21875 9.601562 18.21875 9.601562 C 18.109375 9.492188 18 9.492188 17.890625 9.382812 C 17.671875 9.164062 17.453125 8.726562 17.453125 8.398438 C 17.453125 8.074219 17.5625 7.636719 17.78125 7.417969 C 18.328125 6.871094 18.761719 6.4375 19.308594 5.890625 C 19.527344 5.5625 19.855469 5.453125 20.289062 5.453125 C 20.617188 5.453125 21.054688 5.5625 21.273438 5.890625 Z M 19.089844 7.964844 C 19.308594 8.183594 19.527344 8.617188 19.527344 8.945312 C 19.527344 9.273438 19.417969 9.710938 19.089844 9.925781 L 18.980469 10.035156 C 18.546875 10.472656 18 11.019531 17.5625 11.453125 C 17.34375 11.671875 16.910156 11.890625 16.582031 11.890625 C 16.253906 11.890625 15.816406 11.78125 15.601562 11.453125 C 15.382812 11.238281 15.273438 10.910156 15.273438 10.472656 C 15.273438 10.144531 15.382812 9.710938 15.601562 9.492188 L 16.472656 8.617188 C 16.582031 8.507812 16.691406 8.507812 16.691406 8.617188 C 16.800781 8.726562 16.800781 8.835938 16.691406 8.835938 L 15.816406 9.710938 C 15.601562 9.925781 15.492188 10.144531 15.492188 10.472656 C 15.492188 10.800781 15.601562 11.019531 15.816406 11.238281 C 16.035156 11.453125 16.253906 11.5625 16.582031 11.5625 C 16.910156 11.5625 17.128906 11.453125 17.34375 11.238281 C 17.78125 10.800781 18.328125 10.253906 18.761719 9.816406 L 18.871094 9.816406 C 19.089844 9.601562 19.199219 9.382812 19.199219 9.054688 C 19.199219 8.726562 19.089844 8.507812 18.871094 8.289062 C 18.761719 8.183594 18.761719 8.183594 18.65625 8.074219 C 18.546875 8.074219 18.546875 7.964844 18.546875 7.855469 C 18.65625 7.746094 18.65625 7.746094 18.761719 7.746094 C 18.871094 7.855469 19.089844 7.964844 19.089844 7.964844 Z M 19.089844 7.964844 "/>
</g>
</svg>
