<?xml version="1.0" encoding="utf-8"?>
<!-- Generator: Adobe Illustrator 21.1.0, SVG Export Plug-In . SVG Version: 6.00 Build 0)  -->
<svg version="1.1" id="Layer_1" xmlns="http://www.w3.org/2000/svg" xmlns:xlink="http://www.w3.org/1999/xlink" x="0px" y="0px"
	 viewBox="0 0 24 24" style="enable-background:new 0 0 24 24;" xml:space="preserve">
<path d="M0,5.2v3v1.1v12.7h24V9.3V8.2v-3H0z M23.2,21.1H0.8V9.3h22.4V21.1z M23.2,8.2H0.8v-2h22.4V8.2z M13.9,20.4L13.9,20.4l0-10.5
	H1.3v10.6h12.6V20.4z M13.3,19.7H2.2v-8.8h11.1V19.7z M20.8,13.5h-6.2v-0.8h6.2V13.5z M20.8,14.6h-6.2v-0.8h6.2V14.6z M17,12.7h-2.4
	v-2.4H17V12.7z M20.8,12.5h-3.5v-0.8h3.5V12.5z M20.8,15.7h-6.2v-0.8h6.2V15.7z M20.8,11.4h-3.5v-0.8h3.5V11.4z M20.8,16.8h-6.2V16
	h6.2V16.8z M20.8,17.9h-6.2v-0.8h6.2V17.9z M20.8,18.9h-6.2v-0.8h6.2V18.9z M20.8,19.9h-6.2v-0.8h6.2V19.9z M2.9,15.6l-0.3-0.3
	L2.8,15l2.9-2.2l0.5,0.5l-2.5,2l2.5,2l-0.5,0.5L2.9,15.6z M9,17.3l2.5-2l-2.5-2l0.5-0.5l2.9,2.2l0.3,0.3l-0.3,0.3l-2.9,2.2L9,17.3z"
	/>
</svg>
