<?xml version="1.0" encoding="utf-8"?>
<!-- Generator: Adobe Illustrator 21.1.0, SVG Export Plug-In . SVG Version: 6.00 Build 0)  -->
<svg version="1.1" id="Layer_1" xmlns="http://www.w3.org/2000/svg" xmlns:xlink="http://www.w3.org/1999/xlink" x="0px" y="0px"
	 viewBox="0 0 24 24" style="enable-background:new 0 0 24 24;" xml:space="preserve">
<path d="M13.4,10.8c0,0.7-0.6,1.3-1.3,1.3c-0.7,0-1.3-0.6-1.3-1.3c0-0.7,0.6-1.3,1.3-1.3C12.8,9.5,13.4,10.1,13.4,10.8z M24,10.9
	c0,2-1.6,3.6-3.6,3.6c-1.8,0-3.3-1.3-3.6-3h-1.1c-0.4,1.7-1.8,3-3.7,3c-1.8,0-3.3-1.2-3.7-3H7.2c-0.4,1.6-1.8,2.9-3.5,2.9
	c-2,0-3.6-1.6-3.6-3.6s1.6-3.6,3.6-3.6c1.8,0,3.4,1.4,3.6,3.2h1.1c0.2-1.9,1.8-3.3,3.7-3.3c1.9,0,3.5,1.4,3.7,3.3h1.1
	c0.3-1.7,1.8-3.1,3.6-3.1C22.4,7.3,24,8.9,24,10.9z M14.8,10.9c0-1.5-1.3-2.8-2.8-2.8c-1.5,0-2.8,1.3-2.8,2.8c0,1.6,1.2,2.8,2.8,2.8
	C13.6,13.7,14.8,12.5,14.8,10.9z M23.1,10.9c0-1.5-1.2-2.7-2.7-2.7c-1.5,0-2.7,1.2-2.7,2.7s1.2,2.7,2.7,2.7
	C21.8,13.6,23.1,12.4,23.1,10.9z"/>
</svg>
