<?xml version="1.0" encoding="utf-8"?>
<!-- Generator: Adobe Illustrator 21.1.0, SVG Export Plug-In . SVG Version: 6.00 Build 0)  -->
<svg version="1.1" id="Layer_1" xmlns="http://www.w3.org/2000/svg" xmlns:xlink="http://www.w3.org/1999/xlink" x="0px" y="0px"
	 viewBox="0 0 24 24" style="enable-background:new 0 0 24 24;" xml:space="preserve">
<path d="M7.8,7.5c0,0.6-0.6,1.2-1.3,1.2c-0.7,0-1.2-0.5-1.2-1.2c0-0.6,0.5-1.2,1.2-1.2C7.1,6.3,7.8,6.8,7.8,7.5z M11.8,8.2H20V6.8
	h-8.3V8.2z M10.2,16.5c0,2-1.7,3.6-3.8,3.6c-2,0-3.8-1.7-3.8-3.7c0-1.9,1.7-3.5,3.8-3.5C8.5,12.9,10.2,14.6,10.2,16.5z M8.9,16.5
	c0-1.3-1.1-2.3-2.4-2.3c-1.3,0-2.4,1.1-2.4,2.3c0,1.3,1.1,2.3,2.4,2.3S8.9,17.8,8.9,16.5z M24,0V24H0V0H24z M22.5,22.5V1.5H1.5v21.1
	H22.5z M11.8,17.2H20v-1.4h-8.3V17.2z M10.2,7.6c0,2-1.7,3.6-3.8,3.6c-2,0-3.8-1.7-3.8-3.7c0-2,1.7-3.6,3.8-3.6
	C8.5,3.8,10.2,5.5,10.2,7.6z M8.9,7.6c0-1.3-1.1-2.3-2.4-2.3c-1.3,0-2.3,1-2.3,2.2c0,1.3,1,2.3,2.3,2.3C7.8,9.8,8.9,8.8,8.9,7.6z"/>
</svg>
