<?xml version="1.0" encoding="UTF-8"?>
<svg xmlns="http://www.w3.org/2000/svg" xmlns:xlink="http://www.w3.org/1999/xlink" width="24pt" height="24pt" viewBox="0 0 24 24" version="1.1">
<g id="surface1">
<path style=" stroke:none;fill-rule:nonzero;fill:rgb(0%,0%,0%);fill-opacity:1;" d="M 0.328125 2.332031 C 0.109375 2.332031 0 2.550781 0 2.660156 L 0 21.203125 C 0 21.421875 0.109375 21.53125 0.328125 21.53125 L 23.671875 21.53125 C 23.890625 21.53125 24 21.421875 24 21.203125 C 24 20.988281 23.890625 20.878906 23.671875 20.878906 L 0.65625 20.878906 L 0.65625 2.660156 C 0.65625 2.550781 0.546875 2.332031 0.328125 2.332031 Z M 18.109375 7.570312 C 17.890625 7.570312 17.78125 7.785156 17.78125 7.894531 C 17.78125 8.113281 18 8.222656 18.109375 8.222656 L 21.382812 8.222656 L 14.398438 14.660156 L 9.492188 10.40625 C 9.382812 10.296875 9.164062 10.296875 9.054688 10.40625 L 2.835938 15.859375 C 2.726562 15.96875 2.617188 16.1875 2.726562 16.296875 C 2.835938 16.40625 3.054688 16.515625 3.164062 16.40625 L 9.054688 11.058594 L 13.964844 15.3125 C 14.074219 15.421875 14.289062 15.421875 14.398438 15.3125 L 21.710938 8.660156 L 21.710938 11.933594 C 21.710938 12.148438 21.816406 12.257812 22.035156 12.257812 C 22.253906 12.257812 22.363281 12.148438 22.363281 11.933594 L 22.363281 7.785156 C 22.363281 7.570312 22.253906 7.460938 22.035156 7.460938 L 18.109375 7.460938 C 18.109375 7.570312 18.109375 7.570312 18.109375 7.570312 Z M 18.109375 7.570312 "/>
</g>
</svg>
