<?xml version="1.0" encoding="UTF-8"?>
<svg xmlns="http://www.w3.org/2000/svg" xmlns:xlink="http://www.w3.org/1999/xlink" width="24pt" height="24pt" viewBox="0 0 24 24" version="1.1">
<g id="surface1">
<path style=" stroke:none;fill-rule:nonzero;fill:rgb(7.843137%,6.27451%,6.27451%);fill-opacity:1;" d="M 12 0 C 5.34375 0 0 5.34375 0 12 C 0 18.65625 5.34375 24 12 24 C 18.65625 24 24 18.65625 24 12 C 24 5.34375 18.65625 0 12 0 Z M 12 22.800781 C 6 22.800781 1.199219 17.890625 1.199219 12 C 1.199219 6.109375 6 1.199219 12 1.199219 C 18 1.199219 22.800781 6.109375 22.800781 12 C 22.800781 17.890625 18 22.800781 12 22.800781 Z M 12 6.4375 C 15.054688 6.4375 17.5625 8.945312 17.5625 12 C 17.5625 15.054688 15.054688 17.5625 12 17.5625 C 8.945312 17.5625 6.4375 15.054688 6.4375 12 C 6.4375 8.945312 8.945312 6.4375 12 6.4375 Z M 12 6.4375 "/>
</g>
</svg>
