<?xml version="1.0" encoding="utf-8"?>
<!-- Generator: Adobe Illustrator 21.1.0, SVG Export Plug-In . SVG Version: 6.00 Build 0)  -->
<svg version="1.1" id="Layer_1" xmlns="http://www.w3.org/2000/svg" xmlns:xlink="http://www.w3.org/1999/xlink" x="0px" y="0px"
	 viewBox="0 0 24 24" style="enable-background:new 0 0 24 24;" xml:space="preserve">
<path d="M8.1,17.9h1.3v1.3H8.1V17.9z M6.4,11.9h1.3V4.8H6.4V11.9z M6.4,17.6h1.3v-5.4H6.4V17.6z M8.1,11.9h1.3V4.8H8.1V11.9z
	 M8.1,17.6h1.3v-5.4H8.1V17.6z M9.6,11.9H11V4.8H9.6V11.9z M9.6,19.3H11v-7.1H9.6V19.3z M6.4,19.3h1.3v-1.3H6.4V19.3z M2.3,11.3H0.2
	v1.3h2.2V11.3z M1.5,19.9H0.2v3.9h3.8v-1.3H1.5V19.9z M3.1,19.3h1.3v-7.1H3.1V19.3z M11.3,17.6h1.3v-5.4h-1.3V17.6z M3.1,11.9h1.3
	V4.8H3.1V11.9z M4.7,19.3H6v-1.3H4.7V19.3z M3.8-0.1H0.6v0.3C0.3,0.3,0.2,0.5,0.2,0.8v2.8c0,0.4,0.3,0.7,0.7,0.7
	c0.4,0,0.7-0.3,0.7-0.7V1.2h2.3c0.4,0,0.7-0.3,0.7-0.7C4.4,0.2,4.2-0.1,3.8-0.1z M4.7,11.9H6V4.8H4.7V11.9z M4.7,17.6H6v-5.4H4.7
	V17.6z M23.2,19.6c-0.2,0-0.4,0.1-0.5,0.3c-0.1,0.1-0.1,0.3,0,0.4v2.2h-2.3c-0.4,0-0.7,0.3-0.7,0.7c0,0.4,0.3,0.7,0.7,0.7h3
	c0.3,0,0.7-0.3,0.7-0.7v-2.8l0-0.1C23.8,19.9,23.5,19.6,23.2,19.6z M18,11.9h1.3V4.8H18V11.9z M18,17.6h1.3v-5.4H18V17.6z M18,19.3
	h1.3v-1.3H18V19.3z M19.7,19.3H21v-7.1h-1.3V19.3z M21,4.8h-1.3v7.1H21V4.8z M23.3,0.1h-3.1c-0.2,0-0.4,0.1-0.5,0.3
	c-0.1,0.1-0.1,0.3,0,0.4c0,0.3,0.3,0.5,0.7,0.5h2.3v2.3c0,0.3,0.3,0.7,0.7,0.7c0.3,0,0.7-0.3,0.7-0.7V0.8
	C23.9,0.4,23.6,0.1,23.3,0.1z M23.8,11.3h-2.2v1.3h2.2V11.3z M14.7,11.9H16V4.8h-1.3V11.9z M13,11.9h1.3V4.8H13V11.9z M14.7,19.3H16
	v-1.3h-1.3V19.3z M16.3,11.9h1.3V4.8h-1.3V11.9z M13,19.3h1.3v-7.1H13V19.3z M14.7,17.6H16v-5.4h-1.3V17.6z M16.3,19.3h1.3v-7.1
	h-1.3V19.3z M11.3,11.9h1.3V4.8h-1.3V11.9z"/>
</svg>
