<?xml version="1.0" encoding="utf-8"?>
<!-- Generator: Adobe Illustrator 21.1.0, SVG Export Plug-In . SVG Version: 6.00 Build 0)  -->
<svg version="1.1" id="Layer_1" xmlns="http://www.w3.org/2000/svg" xmlns:xlink="http://www.w3.org/1999/xlink" x="0px" y="0px"
	 viewBox="0 0 24 24" style="enable-background:new 0 0 24 24;" xml:space="preserve">
<path d="M23.6,9.1l-1.4-1.4c-1.1-0.7-1.8-0.4-2.2,0L17.9,10V4.4l-3.4-4.2H0v23.7h17.9V17l5.6-5.5C24.1,10.9,24.2,9.9,23.6,9.1z
	 M14.2,5.1V2L16.6,5v0.1H14.2z M16.6,6.4v4.9l-5.1,5.1v0.1c0,0-0.1,0.1-0.1,0.2l-0.9,3.5c-0.1,0.2,0,0.5,0.2,0.7
	c0.2,0.2,0.5,0.2,0.6,0.2l3.6-1c0.2,0,0.2-0.1,0.4-0.2l1.2-1.2l0.3-0.4v4.1H1.3v-21h11.5v4.9H16.6z M11.7,19.7l0.3-1.2l0.9,0.9
	L11.7,19.7z M21.1,12.1l-6.7,6.7l-1.6-1.6l6.7-6.7L21.1,12.1z M22.6,10.5l-0.6,0.6l-1.6-1.7L21,8.8c0.1-0.1,0.2-0.1,0.3,0l1.4,1.4
	C22.7,10.2,22.7,10.4,22.6,10.5z"/>
</svg>
