<?xml version="1.0" encoding="utf-8"?>
<!-- Generator: Adobe Illustrator 21.1.0, SVG Export Plug-In . SVG Version: 6.00 Build 0)  -->
<svg version="1.1" id="Layer_1" xmlns="http://www.w3.org/2000/svg" xmlns:xlink="http://www.w3.org/1999/xlink" x="0px" y="0px"
	 viewBox="0 0 24 24" style="enable-background:new 0 0 24 24;" xml:space="preserve">
<path d="M23.5,1.3c0-0.5-0.3-0.8-0.7-0.8L13.4,0c-0.1,0-0.4,0-0.6,0.2L0.4,12.6c-0.2,0.2-0.4,0.6-0.4,1c0,0.4,0.1,0.8,0.4,1l8.9,8.9
	C9.6,23.8,10,24,10.4,24c0.4,0,0.8-0.1,1-0.4l12.3-12.3c0.3-0.3,0.3-0.4,0.3-0.6L23.5,1.3z M22.4,10.3l-12,12.1h0l-8.8-8.8l12-12
	L21.9,2L22.4,10.3z M16.6,4.4c-0.8,0-1.6,0.3-2.2,0.9v0c-1.2,1.2-1.2,3.1,0,4.3c0.6,0.6,1.3,0.9,2.1,0.9c0.8,0,1.6-0.4,2.1-0.9
	c1.2-1.2,1.2-3.1,0-4.3C18.1,4.8,17.4,4.5,16.6,4.4z M16.6,9c-0.3,0-0.7-0.2-1-0.5c-0.3-0.3-0.5-0.7-0.5-1c0-0.3,0.2-0.7,0.5-1
	c0.3-0.3,0.7-0.5,1-0.5c0.3,0,0.7,0.2,1,0.5C17.8,6.7,18,7,18,7.3c0,0.4-0.1,0.9-0.4,1.2C17.3,8.8,16.9,9,16.6,9z"/>
</svg>
