<?xml version="1.0" encoding="UTF-8"?>
<svg xmlns="http://www.w3.org/2000/svg" xmlns:xlink="http://www.w3.org/1999/xlink" width="24pt" height="24pt" viewBox="0 0 24 24" version="1.1">
<g id="surface1">
<path style=" stroke:none;fill-rule:nonzero;fill:rgb(0%,0%,0%);fill-opacity:1;" d="M 12 0 C 5.34375 0 0 5.34375 0 12 C 0 18.65625 5.34375 24 12 24 C 18.65625 24 24 18.65625 24 12 C 24 5.34375 18.65625 0 12 0 Z M 12 22.582031 C 6.109375 22.582031 1.417969 17.78125 1.417969 12 C 1.417969 6.109375 6.21875 1.417969 12 1.417969 C 17.78125 1.417969 22.582031 6.21875 22.582031 12 C 22.582031 17.890625 17.890625 22.582031 12 22.582031 Z M 10.800781 5.890625 C 10.582031 5.671875 10.253906 5.671875 10.035156 5.78125 C 9.710938 5.890625 9.601562 6.109375 9.601562 6.328125 L 9.601562 17.5625 C 9.601562 17.890625 9.816406 18.109375 10.035156 18.21875 C 10.144531 18.21875 10.253906 18.21875 10.253906 18.21875 C 10.472656 18.21875 10.582031 18.109375 10.691406 18 L 16.363281 12.328125 C 16.582031 12.109375 16.582031 11.671875 16.363281 11.34375 Z M 10.910156 15.925781 L 10.910156 8.074219 L 14.835938 12 Z M 10.910156 15.925781 "/>
</g>
</svg>
