<?xml version="1.0" encoding="UTF-8"?>
<svg xmlns="http://www.w3.org/2000/svg" xmlns:xlink="http://www.w3.org/1999/xlink" width="24pt" height="24pt" viewBox="0 0 24 24" version="1.1">
<g id="surface1">
<path style=" stroke:none;fill-rule:nonzero;fill:rgb(0%,0%,0%);fill-opacity:1;" d="M 3.492188 19.746094 L 5.019531 19.746094 L 5.019531 20.617188 L 3.492188 20.617188 Z M 24 0 L 24 2.617188 C 24 4.144531 24 5.671875 24 7.199219 C 24 7.855469 24 8.617188 24 9.382812 C 24 10.910156 24 15.273438 24 16.800781 L 24 18.980469 C 24 19.089844 24 19.308594 24 19.527344 C 24 20.074219 24 20.507812 24 21.054688 C 24 21.601562 24 22.144531 24 22.691406 C 24 23.019531 24 23.238281 24 23.5625 L 24 24 L 23.5625 24 C 23.453125 24 23.34375 24 23.238281 24 L 23.128906 24 C 21.925781 24 20.945312 24 19.746094 24 C 17.78125 24 15.925781 24 13.964844 24 C 11.890625 24 9.710938 24 7.636719 24 C 5.890625 24 4.253906 24 2.507812 24 L 0 24 L 0 16.800781 C 0 16.035156 0 12.4375 0 11.671875 C 0 10.144531 0 8.726562 0 7.199219 L 0 0 L 0.761719 0 C 1.964844 0 3.164062 0 4.253906 0 C 6.21875 0 8.183594 0 10.035156 0 C 12.109375 0 14.289062 0 16.363281 0 C 18.109375 0 19.746094 0 21.492188 0 Z M 23.128906 17.238281 C 22.035156 17.238281 20.835938 17.238281 19.746094 17.238281 C 17.78125 17.238281 15.925781 17.238281 13.964844 17.238281 C 11.890625 17.238281 9.710938 17.238281 7.636719 17.238281 C 5.890625 17.238281 4.253906 17.238281 2.507812 17.238281 C 1.964844 17.238281 1.417969 17.238281 0.871094 17.238281 C 0.871094 17.78125 0.871094 18.4375 0.871094 18.980469 C 0.871094 20.398438 0.871094 21.710938 0.871094 23.128906 C 1.964844 23.128906 3.164062 23.128906 4.253906 23.128906 C 6.21875 23.128906 8.074219 23.128906 10.035156 23.128906 C 12.109375 23.128906 14.289062 23.128906 16.363281 23.128906 C 18.109375 23.128906 19.746094 23.128906 21.492188 23.128906 C 22.035156 23.128906 22.582031 23.128906 23.128906 23.128906 C 23.128906 23.019531 23.128906 22.800781 23.128906 22.691406 C 23.128906 22.253906 23.128906 21.816406 23.128906 21.382812 C 23.128906 21.382812 23.128906 21.273438 23.128906 21.164062 C 23.128906 20.617188 23.128906 20.183594 23.128906 19.636719 C 23.128906 18.871094 23.128906 18 23.128906 17.238281 Z M 23.128906 7.636719 C 22.035156 7.636719 20.835938 7.636719 19.746094 7.636719 C 17.78125 7.636719 15.925781 7.636719 13.964844 7.636719 C 11.890625 7.636719 9.710938 7.636719 7.636719 7.636719 C 5.890625 7.636719 4.253906 7.636719 2.507812 7.636719 C 1.964844 7.636719 1.417969 7.636719 0.871094 7.636719 C 0.871094 8.183594 0.871094 8.835938 0.871094 9.382812 C 0.871094 10.800781 0.871094 14.617188 0.871094 16.363281 C 1.964844 16.363281 3.164062 16.363281 4.253906 16.363281 C 6.21875 16.363281 8.074219 16.363281 10.035156 16.363281 C 12.109375 16.363281 14.289062 16.363281 16.363281 16.363281 C 18.109375 16.363281 19.746094 16.363281 21.492188 16.363281 C 22.035156 16.363281 22.582031 16.363281 23.128906 16.363281 C 23.128906 15.164062 23.128906 12.328125 23.128906 11.671875 C 23.128906 10.363281 23.128906 8.945312 23.128906 7.636719 Z M 23.128906 0.871094 C 22.035156 0.871094 20.835938 0.871094 19.746094 0.871094 C 17.78125 0.871094 15.925781 0.871094 13.964844 0.871094 C 11.890625 0.871094 9.710938 0.871094 7.636719 0.871094 C 5.890625 0.871094 4.253906 0.871094 2.507812 0.871094 C 1.964844 0.871094 1.417969 0.871094 0.871094 0.871094 C 0.871094 1.417969 0.871094 2.074219 0.871094 2.617188 C 0.871094 4.035156 0.871094 5.34375 0.871094 6.761719 C 1.964844 6.761719 3.164062 6.761719 4.253906 6.761719 C 6.21875 6.761719 8.074219 6.761719 10.035156 6.761719 C 12.109375 6.761719 14.289062 6.761719 16.363281 6.761719 C 18.109375 6.761719 19.746094 6.761719 21.492188 6.761719 C 22.035156 6.761719 22.582031 6.761719 23.128906 6.761719 C 23.128906 6.21875 23.128906 5.5625 23.128906 5.019531 C 23.128906 3.601562 23.128906 2.289062 23.128906 0.871094 Z M 3.492188 4.253906 L 5.019531 4.253906 L 5.019531 3.382812 L 3.492188 3.382812 Z M 3.492188 4.253906 "/>
</g>
</svg>
