<?xml version="1.0" encoding="UTF-8"?>
<svg xmlns="http://www.w3.org/2000/svg" xmlns:xlink="http://www.w3.org/1999/xlink" width="24pt" height="24pt" viewBox="0 0 24 24" version="1.1">
<g id="surface1">
<path style=" stroke:none;fill-rule:nonzero;fill:rgb(0%,0%,0%);fill-opacity:1;" d="M 8.835938 2.441406 C 8.617188 2.441406 8.398438 2.550781 8.398438 2.769531 L 7.089844 5.058594 L 2.398438 5.058594 C 1.089844 5.058594 0 6.148438 0 7.460938 L 0 19.242188 C 0 20.550781 1.089844 21.640625 2.398438 21.640625 L 21.601562 21.640625 C 22.910156 21.640625 24 20.550781 24 19.242188 L 24 7.460938 C 24 6.148438 22.910156 5.058594 21.601562 5.058594 L 16.910156 5.058594 L 15.710938 2.660156 C 15.601562 2.441406 15.382812 2.332031 15.273438 2.332031 L 8.835938 2.332031 Z M 9.164062 3.421875 L 14.945312 3.421875 L 16.144531 5.824219 C 16.253906 6.042969 16.472656 6.148438 16.582031 6.148438 L 21.601562 6.148438 C 22.363281 6.148438 22.910156 6.695312 22.910156 7.460938 L 22.910156 19.242188 C 22.910156 20.003906 22.363281 20.550781 21.601562 20.550781 L 2.398438 20.550781 C 1.636719 20.550781 1.089844 20.003906 1.089844 19.242188 L 1.089844 7.460938 C 1.089844 6.695312 1.636719 6.148438 2.398438 6.148438 L 7.417969 6.148438 C 7.636719 6.148438 7.855469 6.042969 7.855469 5.824219 Z M 12 8.003906 C 9.054688 8.003906 6.65625 10.40625 6.65625 13.351562 C 6.65625 16.296875 9.054688 18.695312 12 18.695312 C 14.945312 18.695312 17.34375 16.296875 17.34375 13.351562 C 17.34375 10.40625 14.945312 8.003906 12 8.003906 Z M 12 9.097656 C 14.398438 9.097656 16.253906 10.949219 16.253906 13.351562 C 16.253906 15.75 14.398438 17.605469 12 17.605469 C 9.601562 17.605469 7.746094 15.75 7.746094 13.351562 C 7.746094 10.949219 9.601562 9.097656 12 9.097656 Z M 12 9.097656 "/>
</g>
</svg>
