<?xml version="1.0" encoding="utf-8"?>
<!-- Generator: Adobe Illustrator 21.1.0, SVG Export Plug-In . SVG Version: 6.00 Build 0)  -->
<svg version="1.1" id="Layer_1" xmlns="http://www.w3.org/2000/svg" xmlns:xlink="http://www.w3.org/1999/xlink" x="0px" y="0px"
	 viewBox="0 0 24 24" style="enable-background:new 0 0 24 24;" xml:space="preserve">
<g id="surface1">
	<path d="M20.1,11.3V3.5C20,1.2,14.9,0,10,0C5.1,0,0.1,1.2,0.1,3.5v16.9c0,2.3,5,3.5,9.9,3.5c1.4,0,2.9-0.1,4.3-0.3
		c0.8,0.3,1.6,0.4,2.5,0.4c3.7,0,6.8-3.1,6.8-6.8C23.6,14.7,22.1,12.5,20.1,11.3z M10,1.5c5.3,0,8.5,1.3,8.5,2
		c0,0.7-3.3,2.2-8.5,2.2c-5.2,0-8.5-1.4-8.5-2.1C1.5,2.9,4.7,1.5,10,1.5z M14.8,10.8c-1.3,0.2-3.1,0.4-4.8,0.4
		c-5.2,0-8.5-1.4-8.5-2.1V5.5C3.4,6.5,6.7,7.1,10,7.1c3.3,0,6.7-0.5,8.5-1.6v3.7c0,0.4-0.9,1-2.4,1.4 M1.4,11.1
		c1.9,1.1,5.1,1.6,8.5,1.6c0.7,0,1.3,0,2-0.1c-1.1,1.2-1.9,2.7-1.9,4.5c0-0.1,0-0.2,0-0.2H9.9c-5.2,0-8.5-1.4-8.5-2.1V11.1z
		 M10,17.7c0-0.1,0-0.1,0-0.2C10,17.6,10,17.6,10,17.7z M9.9,22.5c-5.2,0-8.5-1.4-8.5-2.1v-3.7c1.9,1.1,5.1,1.6,8.5,1.6
		c0.1,0,0.1,0,0.2,0c0.2,1.6,1.1,3.1,2.3,4C11.6,22.5,10.8,22.5,9.9,22.5z M16.8,23.2c-3.4,0-6.1-2.7-6.1-6.1c0-3.3,2.7-6.1,6.1-6.1
		s6.1,2.7,6.1,6.1C22.9,20.5,20.2,23.2,16.8,23.2z M19.9,14.2l-4.1,2.1l-2.1,4.1c0,0.1,0,0.2,0,0.3c0,0,0.1,0.1,0.2,0.1H14l4.1-2.1
		l2.1-4.1c0-0.1,0-0.2,0-0.3C20.1,14.2,20,14.1,19.9,14.2z M14.3,20.1l1.6-3.2l1.6,1.6L14.3,20.1z M17.9,18.1l-1.6-1.6l3.2-1.6
		L17.9,18.1z"/>
</g>
</svg>
