<?xml version="1.0" encoding="UTF-8"?>
<svg xmlns="http://www.w3.org/2000/svg" xmlns:xlink="http://www.w3.org/1999/xlink" width="24pt" height="24pt" viewBox="0 0 24 24" version="1.1">
<g id="surface1">
<path style=" stroke:none;fill-rule:nonzero;fill:rgb(0%,0%,0%);fill-opacity:1;" d="M 20.074219 11.34375 L 20.074219 3.492188 C 19.964844 1.199219 14.945312 0 10.035156 0 C 5.128906 0 0.109375 1.199219 0.109375 3.492188 L 0.109375 20.398438 C 0.109375 22.691406 5.128906 23.890625 10.035156 23.890625 C 11.453125 23.890625 12.980469 23.78125 14.289062 23.5625 C 15.054688 23.890625 15.925781 24 16.800781 24 C 20.507812 24 23.5625 20.945312 23.5625 17.238281 C 23.5625 14.726562 22.144531 12.546875 20.074219 11.34375 Z M 10.035156 1.527344 C 15.382812 1.527344 18.546875 2.835938 18.546875 3.492188 C 18.546875 4.144531 15.273438 5.671875 10.035156 5.671875 C 4.800781 5.671875 1.527344 4.253906 1.527344 3.601562 C 1.527344 2.945312 4.691406 1.527344 10.035156 1.527344 Z M 14.835938 10.800781 C 13.527344 11.019531 11.78125 11.238281 10.035156 11.238281 C 4.800781 11.238281 1.527344 9.816406 1.527344 9.164062 L 1.527344 5.453125 C 3.382812 6.546875 6.65625 7.089844 10.035156 7.089844 C 13.308594 7.089844 16.691406 6.546875 18.546875 5.453125 L 18.546875 9.164062 C 18.546875 9.601562 17.671875 10.144531 16.144531 10.582031 M 1.417969 11.128906 C 3.273438 12.21875 6.546875 12.761719 9.925781 12.761719 C 10.582031 12.761719 11.238281 12.761719 11.890625 12.65625 C 10.800781 13.855469 10.035156 15.382812 10.035156 17.128906 C 10.035156 17.019531 10.035156 16.910156 10.035156 16.910156 L 9.925781 16.910156 C 4.691406 16.910156 1.417969 15.492188 1.417969 14.835938 Z M 10.035156 17.671875 C 10.035156 17.5625 10.035156 17.5625 10.035156 17.453125 C 10.035156 17.5625 10.035156 17.5625 10.035156 17.671875 Z M 9.925781 22.472656 C 4.691406 22.472656 1.417969 21.054688 1.417969 20.398438 L 1.417969 16.691406 C 3.273438 17.78125 6.546875 18.328125 9.925781 18.328125 C 10.035156 18.328125 10.035156 18.328125 10.144531 18.328125 C 10.363281 19.964844 11.238281 21.382812 12.4375 22.363281 C 11.5625 22.472656 10.800781 22.472656 9.925781 22.472656 Z M 16.800781 23.238281 C 13.417969 23.238281 10.691406 20.507812 10.691406 17.128906 C 10.691406 13.855469 13.417969 11.019531 16.800781 11.019531 C 20.183594 11.019531 22.910156 13.746094 22.910156 17.128906 C 22.910156 20.507812 20.183594 23.238281 16.800781 23.238281 Z M 19.855469 14.183594 L 15.710938 16.253906 L 13.636719 20.398438 C 13.636719 20.507812 13.636719 20.617188 13.636719 20.726562 C 13.636719 20.726562 13.746094 20.835938 13.855469 20.835938 C 13.855469 20.835938 13.964844 20.835938 13.964844 20.835938 L 18.109375 18.761719 L 20.183594 14.617188 C 20.183594 14.507812 20.183594 14.398438 20.183594 14.289062 C 20.074219 14.183594 19.964844 14.074219 19.855469 14.183594 Z M 14.289062 20.074219 L 15.925781 16.910156 L 17.5625 18.546875 Z M 17.890625 18.109375 L 16.253906 16.472656 L 19.417969 14.835938 Z M 17.890625 18.109375 "/>
</g>
</svg>
