<?xml version="1.0" encoding="UTF-8"?>
<svg xmlns="http://www.w3.org/2000/svg" xmlns:xlink="http://www.w3.org/1999/xlink" width="24pt" height="24pt" viewBox="0 0 24 24" version="1.1">
<g id="surface1">
<path style=" stroke:none;fill-rule:nonzero;fill:rgb(0%,0%,0%);fill-opacity:1;" d="M 23.453125 3.054688 L 0.65625 3.054688 C 0.21875 3.054688 0 3.273438 0 3.601562 L 0 20.398438 C 0 20.726562 0.21875 20.945312 0.65625 20.945312 L 23.453125 20.945312 C 23.78125 20.945312 24 20.726562 24 20.398438 L 24 3.601562 C 24 3.273438 23.78125 3.054688 23.453125 3.054688 Z M 20.726562 3.925781 C 21.164062 3.925781 21.273438 4.144531 21.273438 4.472656 C 21.273438 4.800781 21.054688 5.128906 20.726562 5.128906 C 20.398438 5.128906 20.074219 4.910156 20.074219 4.472656 C 20.074219 4.035156 20.289062 3.925781 20.726562 3.925781 Z M 18.980469 3.925781 C 19.199219 3.925781 19.527344 4.144531 19.527344 4.472656 C 19.527344 4.800781 19.308594 5.128906 18.980469 5.128906 C 18.65625 5.128906 18.328125 4.910156 18.328125 4.472656 C 18.328125 4.035156 18.546875 3.925781 18.980469 3.925781 Z M 23.019531 19.527344 C 23.019531 19.855469 22.800781 20.074219 22.472656 20.074219 L 1.527344 20.074219 C 1.199219 20.074219 0.871094 19.855469 0.871094 19.527344 L 0.871094 6.328125 C 0.871094 6 1.089844 5.671875 1.527344 5.671875 L 22.472656 5.671875 C 22.800781 5.671875 23.019531 5.890625 23.019531 6.328125 Z M 22.582031 5.128906 C 22.253906 5.128906 22.035156 4.910156 22.035156 4.472656 C 22.035156 4.035156 22.253906 3.925781 22.582031 3.925781 C 22.910156 3.925781 23.128906 4.144531 23.128906 4.472656 C 23.128906 4.800781 22.910156 5.128906 22.582031 5.128906 Z M 18.109375 8.289062 L 6 8.289062 C 5.78125 8.289062 5.671875 8.398438 5.671875 8.617188 L 5.671875 17.453125 C 5.671875 17.671875 5.78125 17.78125 6 17.78125 L 18.109375 17.78125 C 18.328125 17.78125 18.4375 17.671875 18.4375 17.453125 L 18.4375 8.507812 C 18.328125 8.398438 18.21875 8.289062 18.109375 8.289062 Z M 16.582031 8.726562 C 16.800781 8.726562 16.910156 8.835938 16.910156 9.054688 C 16.910156 9.273438 16.800781 9.382812 16.582031 9.382812 C 16.363281 9.382812 16.253906 9.273438 16.253906 9.054688 C 16.253906 8.835938 16.363281 8.726562 16.582031 8.726562 Z M 15.710938 8.726562 C 15.816406 8.726562 16.035156 8.835938 16.035156 9.054688 C 16.035156 9.273438 15.925781 9.382812 15.710938 9.382812 C 15.492188 9.382812 15.382812 9.273438 15.382812 9.054688 C 15.382812 8.835938 15.492188 8.726562 15.710938 8.726562 Z M 17.890625 17.019531 C 17.890625 17.238281 17.78125 17.34375 17.5625 17.34375 L 6.4375 17.34375 C 6.21875 17.34375 6.109375 17.238281 6.109375 17.019531 L 6.109375 10.035156 C 6.109375 9.816406 6.21875 9.710938 6.4375 9.710938 L 17.5625 9.710938 C 17.78125 9.710938 17.890625 9.816406 17.890625 10.035156 Z M 17.5625 9.382812 C 17.34375 9.382812 17.238281 9.273438 17.238281 9.054688 C 17.34375 8.835938 17.453125 8.726562 17.5625 8.726562 C 17.78125 8.726562 17.890625 8.835938 17.890625 9.054688 C 17.890625 9.164062 17.78125 9.382812 17.5625 9.382812 Z M 14.074219 11.78125 C 14.183594 11.890625 14.289062 12.109375 14.289062 12.328125 L 14.289062 14.289062 C 14.289062 14.398438 14.183594 14.617188 13.964844 14.617188 C 13.855469 14.617188 13.636719 14.507812 13.636719 14.289062 L 13.636719 12.546875 L 10.144531 16.035156 C 10.035156 16.144531 9.816406 16.144531 9.710938 16.035156 C 9.601562 15.925781 9.601562 15.710938 9.710938 15.601562 L 13.199219 12.109375 L 11.453125 12.109375 C 11.34375 12.109375 11.128906 12 11.128906 11.78125 C 11.128906 11.671875 11.238281 11.453125 11.453125 11.453125 L 13.417969 11.453125 C 13.746094 11.5625 13.964844 11.671875 14.074219 11.78125 Z M 14.074219 11.78125 "/>
</g>
</svg>
