<?xml version="1.0" encoding="UTF-8"?>
<svg xmlns="http://www.w3.org/2000/svg" xmlns:xlink="http://www.w3.org/1999/xlink" width="24pt" height="24pt" viewBox="0 0 24 24" version="1.1">
<g id="surface1">
<path style=" stroke:none;fill-rule:nonzero;fill:rgb(0%,0%,0%);fill-opacity:1;" d="M 3.203125 18.679688 C 3.203125 17.375 4.289062 16.398438 5.484375 16.398438 C 5.917969 16.398438 6.351562 16.507812 6.679688 16.722656 L 8.523438 14.878906 C 8.308594 14.550781 8.199219 14.117188 8.199219 13.683594 C 8.199219 12.378906 9.285156 11.402344 10.480469 11.402344 C 11.023438 11.402344 11.457031 11.621094 11.78125 11.835938 L 13.519531 10.097656 C 13.195312 9.773438 13.085938 9.230469 13.085938 8.796875 C 13.085938 7.601562 14.0625 6.515625 15.257812 6.515625 C 15.800781 6.515625 16.234375 6.734375 16.777344 6.949219 L 18.515625 5.320312 C 18.191406 4.886719 18.082031 4.453125 18.082031 4.019531 C 18.082031 2.714844 19.058594 1.738281 20.363281 1.738281 C 21.664062 1.738281 22.640625 2.824219 22.640625 4.019531 C 22.640625 5.320312 21.554688 6.296875 20.363281 6.296875 C 19.820312 6.296875 19.382812 6.082031 19.058594 5.863281 L 17.320312 7.492188 C 17.539062 7.820312 17.648438 8.253906 17.648438 8.6875 C 17.648438 9.992188 16.5625 10.96875 15.367188 10.96875 C 14.824219 10.96875 14.390625 10.75 14.0625 10.535156 L 12.324219 12.273438 C 12.652344 12.707031 12.761719 13.140625 12.761719 13.574219 C 12.761719 14.878906 11.675781 15.855469 10.480469 15.855469 C 10.046875 15.855469 9.503906 15.746094 9.175781 15.421875 L 7.332031 17.265625 C 7.546875 17.59375 7.765625 18.027344 7.765625 18.570312 C 7.765625 19.875 6.679688 20.851562 5.484375 20.851562 C 4.179688 20.851562 3.203125 19.980469 3.203125 18.679688 Z M 1.574219 22.695312 L 1.574219 0 L 0.0546875 0 L 0.0546875 24 L 23.945312 24 L 23.945312 22.480469 Z M 1.574219 22.695312 "/>
</g>
</svg>
