<?xml version="1.0" encoding="UTF-8"?>
<svg xmlns="http://www.w3.org/2000/svg" xmlns:xlink="http://www.w3.org/1999/xlink" width="24pt" height="24pt" viewBox="0 0 24 24" version="1.1">
<g id="surface1">
<path style=" stroke:none;fill-rule:nonzero;fill:rgb(0%,0%,0%);fill-opacity:1;" d="M 23.5625 11.5625 L 21.925781 11.5625 C 21.710938 10.691406 20.945312 10.035156 19.964844 10.035156 C 18.980469 10.035156 18.21875 10.691406 18 11.5625 L 6 11.5625 C 5.78125 10.691406 4.910156 10.035156 4.035156 10.035156 C 3.054688 10.035156 2.289062 10.691406 2.074219 11.5625 L 0.4375 11.5625 C 0.21875 11.5625 0 11.78125 0 12 C 0 12.21875 0.21875 12.4375 0.4375 12.4375 L 2.074219 12.4375 C 2.289062 13.308594 3.054688 13.964844 4.035156 13.964844 C 5.019531 13.964844 5.78125 13.308594 6 12.4375 L 18.109375 12.4375 C 18.328125 13.308594 19.089844 13.964844 20.074219 13.964844 C 21.054688 13.964844 21.816406 13.308594 22.035156 12.4375 L 23.671875 12.4375 C 23.890625 12.4375 24.109375 12.21875 24.109375 12 C 24 11.78125 23.78125 11.5625 23.5625 11.5625 Z M 4.035156 13.089844 C 3.382812 13.089844 2.945312 12.546875 2.945312 12 C 2.945312 11.453125 3.492188 10.910156 4.035156 10.910156 C 4.691406 10.910156 5.128906 11.453125 5.128906 12 C 5.128906 12.546875 4.691406 13.089844 4.035156 13.089844 Z M 19.964844 13.089844 C 19.308594 13.089844 18.871094 12.546875 18.871094 12 C 18.871094 11.34375 19.417969 10.910156 19.964844 10.910156 C 20.507812 10.910156 21.054688 11.453125 21.054688 12 C 21.164062 12.65625 20.617188 13.089844 19.964844 13.089844 Z M 19.964844 13.089844 "/>
</g>
</svg>
