<?xml version="1.0" encoding="UTF-8"?>
<svg xmlns="http://www.w3.org/2000/svg" xmlns:xlink="http://www.w3.org/1999/xlink" width="24pt" height="24pt" viewBox="0 0 24 24" version="1.1">
<g id="surface1">
<path style=" stroke:none;fill-rule:nonzero;fill:rgb(0%,0%,0%);fill-opacity:1;" d="M 23.78125 22.691406 L 17.34375 16.253906 C 18.871094 14.507812 19.746094 12.21875 19.746094 9.816406 C 19.746094 7.199219 18.761719 4.691406 16.800781 2.835938 C 14.945312 0.980469 12.546875 0 9.925781 0 C 7.199219 0 4.800781 0.980469 2.945312 2.945312 C 0.980469 4.800781 0 7.199219 0 9.925781 C 0 12.65625 0.980469 15.054688 2.945312 16.910156 C 4.910156 18.761719 7.308594 19.855469 9.925781 19.855469 C 12.328125 19.855469 14.507812 18.980469 16.363281 17.453125 L 22.800781 23.890625 C 22.910156 24 23.128906 24.109375 23.34375 24.109375 C 23.5625 24.109375 23.78125 24 23.890625 23.890625 C 24.109375 23.453125 24.109375 23.019531 23.78125 22.691406 Z M 9.925781 18.21875 C 7.746094 18.21875 5.671875 17.34375 4.035156 15.816406 C 2.398438 14.183594 1.527344 12.109375 1.527344 9.925781 C 1.527344 7.746094 2.398438 5.671875 3.925781 4.035156 C 5.5625 2.398438 7.636719 1.527344 9.925781 1.527344 C 12.109375 1.527344 14.183594 2.398438 15.816406 3.925781 C 17.34375 5.453125 18.21875 7.527344 18.21875 9.816406 C 18.21875 12.109375 17.34375 14.074219 15.816406 15.710938 C 14.183594 17.34375 12.109375 18.21875 9.925781 18.21875 Z M 9.925781 18.21875 "/>
</g>
</svg>
