<?xml version="1.0" encoding="UTF-8"?>
<svg xmlns="http://www.w3.org/2000/svg" xmlns:xlink="http://www.w3.org/1999/xlink" width="24pt" height="24pt" viewBox="0 0 24 24" version="1.1">
<g id="surface1">
<path style=" stroke:none;fill-rule:nonzero;fill:rgb(0%,0%,0%);fill-opacity:1;" d="M 23.453125 3.054688 L 0.65625 3.054688 C 0.21875 3.054688 0 3.273438 0 3.601562 L 0 20.398438 C 0 20.726562 0.21875 20.945312 0.65625 20.945312 L 23.453125 20.945312 C 23.78125 20.945312 24 20.726562 24 20.398438 L 24 3.601562 C 24 3.273438 23.78125 3.054688 23.453125 3.054688 Z M 20.726562 3.925781 C 21.054688 3.925781 21.273438 4.144531 21.273438 4.472656 C 21.273438 4.800781 21.054688 5.128906 20.726562 5.128906 C 20.398438 5.128906 20.074219 4.910156 20.074219 4.472656 C 20.074219 4.035156 20.398438 3.925781 20.726562 3.925781 Z M 18.871094 3.925781 C 19.199219 3.925781 19.417969 4.144531 19.417969 4.472656 C 19.417969 4.800781 19.199219 5.128906 18.871094 5.128906 C 18.546875 5.128906 18.21875 4.910156 18.21875 4.472656 C 18.21875 4.035156 18.546875 3.925781 18.871094 3.925781 Z M 23.128906 19.527344 C 23.128906 19.855469 22.910156 20.074219 22.582031 20.074219 L 1.527344 20.074219 C 1.199219 20.074219 0.871094 19.855469 0.871094 19.527344 L 0.871094 6.328125 C 0.871094 6 1.089844 5.671875 1.527344 5.671875 L 22.472656 5.671875 C 22.800781 5.671875 23.019531 5.890625 23.019531 6.328125 L 23.019531 19.527344 Z M 22.472656 5.128906 C 22.144531 5.128906 21.925781 4.910156 21.925781 4.472656 C 21.925781 4.035156 22.144531 3.925781 22.472656 3.925781 C 22.800781 3.925781 23.019531 4.144531 23.019531 4.472656 C 23.019531 4.800781 22.800781 5.128906 22.472656 5.128906 Z M 12.109375 14.398438 L 11.890625 14.398438 C 11.890625 13.964844 11.78125 13.417969 11.671875 12.871094 L 11.34375 11.671875 C 11.128906 10.910156 11.128906 10.363281 11.128906 10.035156 C 11.128906 9.710938 11.238281 9.492188 11.34375 9.382812 C 11.5625 9.164062 11.78125 9.164062 12 9.164062 C 12.328125 9.164062 12.546875 9.273438 12.65625 9.382812 C 12.871094 9.601562 12.871094 9.816406 12.871094 10.035156 C 12.871094 10.363281 12.761719 10.910156 12.546875 11.671875 L 12.21875 12.871094 C 12.21875 13.199219 12.21875 13.746094 12.109375 14.398438 Z M 12 15.164062 C 12.21875 15.164062 12.4375 15.273438 12.65625 15.382812 C 12.871094 15.601562 12.871094 15.816406 12.871094 16.035156 C 12.871094 16.253906 12.761719 16.472656 12.65625 16.691406 C 12.4375 16.910156 12.21875 16.910156 12 16.910156 C 11.78125 16.910156 11.5625 16.800781 11.34375 16.691406 C 11.128906 16.472656 11.128906 16.253906 11.128906 16.035156 C 11.128906 15.816406 11.238281 15.601562 11.34375 15.382812 C 11.5625 15.273438 11.78125 15.164062 12 15.164062 Z M 12 15.164062 "/>
</g>
</svg>
