<?xml version="1.0" encoding="utf-8"?>
<!-- Generator: Adobe Illustrator 21.1.0, SVG Export Plug-In . SVG Version: 6.00 Build 0)  -->
<svg version="1.1" id="Layer_1" xmlns="http://www.w3.org/2000/svg" xmlns:xlink="http://www.w3.org/1999/xlink" x="0px" y="0px"
	 viewBox="0 0 24 24" style="enable-background:new 0 0 24 24;" xml:space="preserve">
<path d="M21.4,4.2H2.6C1.1,4.2,0,5.3,0,6.7v10.7c0,1.4,1.2,2.6,2.6,2.6h18.8c1.4,0,2.6-1.2,2.6-2.6V6.7C24,5.3,22.9,4.2,21.4,4.2z
	 M22.7,7.2v9.6l-5.5-5.8L22.7,7.2z M8,11.8L9.9,13c0.2,0.4,1.2,0.8,2.1,0.8c1.1,0,2.1-0.8,2.2-0.8l1.9-1.3l6.1,6.5
	c-0.2,0.2-0.5,0.3-0.7,0.3H2.6c-0.3,0-0.6-0.1-0.7-0.3L8,11.8z M2.6,5.4h18.8c0.3,0,0.6,0.2,0.9,0.5L13.5,12c0,0-0.8,0.5-1.5,0.5
	c-0.8,0-1.3-0.4-1.4-0.5l-9-6.2C1.9,5.6,2.2,5.4,2.6,5.4z M6.8,11.1l-5.5,5.8V7.3L6.8,11.1z"/>
</svg>
