<?xml version="1.0" encoding="utf-8"?>
<!-- Generator: Adobe Illustrator 21.1.0, SVG Export Plug-In . SVG Version: 6.00 Build 0)  -->
<svg version="1.1" id="Layer_1" xmlns="http://www.w3.org/2000/svg" xmlns:xlink="http://www.w3.org/1999/xlink" x="0px" y="0px"
	 viewBox="0 0 24 24" style="enable-background:new 0 0 24 24;" xml:space="preserve">
<g id="surface1">
	<path d="M24,22.4v1.4H0V0.2h1.5v22.2H24z M12.5,15.1c0,2.6,2.3,4.6,5,4.6c2.8,0,5-2.1,5-4.6c0-2.6-2.3-4.6-5-4.6
		S12.5,12.6,12.5,15.1z M10.5,8.7c2.4,0,4.4-1.8,4.4-4s-2-4-4.4-4s-4.4,1.8-4.4,4S8.1,8.7,10.5,8.7z M6.9,17.4c1.4,0,2.5-1,2.5-2.3
		c0-1.3-1.1-2.3-2.5-2.3c-1.4,0-2.5,1.1-2.5,2.3C4.4,16.3,5.5,17.4,6.9,17.4z"/>
</g>
</svg>
