<?xml version="1.0" encoding="utf-8"?>
<!-- Generator: Adobe Illustrator 21.1.0, SVG Export Plug-In . SVG Version: 6.00 Build 0)  -->
<svg version="1.1" id="Layer_1" xmlns="http://www.w3.org/2000/svg" xmlns:xlink="http://www.w3.org/1999/xlink" x="0px" y="0px"
	 viewBox="0 0 24 24" style="enable-background:new 0 0 24 24;" xml:space="preserve">
<path d="M14.5,14.5h9.1V15c-0.8,3.5-3.9,7.6-8.4,8.6c-0.4,0.1-0.6,0.1-0.6,0.1h-0.1V14.5z M23.9,11.9c0,0.3-0.1,1.6-0.1,1.7l0,0.1
	l-0.1,0l-10-0.1v10.2l-0.1,0c0,0-1.2,0.1-1.6,0.1C5.4,24,0,18.6,0,12.1C0,5.4,5.4,0,11.9,0C18.5,0,23.9,5.4,23.9,11.9z M12.3,12.3
	l10.1,0.1v-0.4c0-2.8-1-5.5-3-7.5c-2-2-4.7-3.2-7.5-3.2C6.2,1.4,1.4,6.2,1.4,11.9c0,5.8,4.8,10.6,10.5,10.6h0.3V12.3L12.3,12.3z"/>
</svg>
