<svg width="25" height="25" viewBox="0 0 25 25" xmlns="http://www.w3.org/2000/svg">
    <g fill="#191919" fill-rule="nonzero">
        <path d="M20 .5H3A2.5 2.5 0 0 0 .5 3v2A2.5 2.5 0 0 0 3 7.5h17A2.5 2.5 0 0 0 22.5 5V3A2.5 2.5 0 0 0 20 .5zm-17 1h17A1.5 1.5 0 0 1 21.5 3v2A1.5 1.5 0 0 1 20 6.5H3A1.5 1.5 0 0 1 1.5 5V3A1.5 1.5 0 0 1 3 1.5z"/>
        <path d="M20 6.5a2.5 2.5 0 0 1 2.492 2.302L22.5 9v1.5a.5.5 0 0 1-.992.09l-.008-.09V9a1.5 1.5 0 0 0-1.352-1.493L20 7.5H3a1.5 1.5 0 0 0-1.493 1.352L1.5 9v2A1.5 1.5 0 0 0 3 12.5a.5.5 0 1 1 0 1 2.5 2.5 0 0 1-2.492-2.302L.5 11V9a2.5 2.5 0 0 1 2.302-2.492L3 6.5h17z"/>
        <path d="M11 12.5a.5.5 0 0 1 .09.992L11 13.5H3a1.5 1.5 0 0 0-1.493 1.352L1.5 15v2a1.5 1.5 0 0 0 1.352 1.493L3 18.5h6.5a.5.5 0 0 1 .09.992l-.09.008H3a2.5 2.5 0 0 1-2.492-2.302L.5 17v-2a2.5 2.5 0 0 1 2.302-2.492L3 12.5h8zM18 11.5a6.5 6.5 0 1 0 0 13 6.5 6.5 0 0 0 0-13zm0 1a5.5 5.5 0 1 1 0 11 5.5 5.5 0 0 1 0-11z"/>
        <path d="m14.52 17.52-.08.045c-.37.251-.237.864.242.907l2.585.234.235 2.586c.046.511.74.629.953.162l2.728-6a.5.5 0 0 0-.662-.662l-6 2.727zm5.2-1.267-1.394 3.065-.1-1.116-.016-.088a.5.5 0 0 0-.437-.365l-1.118-.102 3.065-1.394zM5.25 4.75a.75.75 0 0 1-.102-1.493l.102-.007v.5a.25.25 0 1 1 0 .5v.5z"/>
        <path d="M5 4a.25.25 0 0 1 .25-.25v-.5a.75.75 0 0 1 .102 1.493l-.102.007v-.5A.25.25 0 0 1 5 4zM5.25 10.75a.75.75 0 0 1-.102-1.493l.102-.007v.5a.25.25 0 1 1 0 .5v.5z"/>
        <path d="M5 10a.25.25 0 0 1 .25-.25v-.5a.75.75 0 0 1 .102 1.493l-.102.007v-.5A.25.25 0 0 1 5 10zM5.25 16.75a.75.75 0 0 1-.102-1.493l.102-.007v.5a.25.25 0 0 1 0 .5v.5z"/>
        <path d="M5 16a.25.25 0 0 1 .25-.25v-.5a.75.75 0 0 1 .102 1.493l-.102.007v-.5A.25.25 0 0 1 5 16zM8.75 4.75a.75.75 0 0 1-.102-1.493l.102-.007v.5a.25.25 0 1 1 0 .5v.5z"/>
        <path d="M8.5 4a.25.25 0 0 1 .25-.25v-.5a.75.75 0 0 1 .102 1.493l-.102.007v-.5A.25.25 0 0 1 8.5 4zM8.75 10.75a.75.75 0 0 1-.102-1.493l.102-.007v.5a.25.25 0 1 1 0 .5v.5z"/>
        <path d="M8.5 10a.25.25 0 0 1 .25-.25v-.5a.75.75 0 0 1 .102 1.493l-.102.007v-.5A.25.25 0 0 1 8.5 10z"/>
        <g>
            <path d="M8.75 16.75a.75.75 0 0 1-.102-1.493l.102-.007v.5a.25.25 0 0 1 0 .5v.5z"/>
            <path d="M8.5 16a.25.25 0 0 1 .25-.25v-.5a.75.75 0 0 1 .102 1.493l-.102.007v-.5A.25.25 0 0 1 8.5 16z"/>
        </g>
    </g>
</svg>
