<?xml version="1.0" encoding="UTF-8"?>
<svg xmlns="http://www.w3.org/2000/svg" xmlns:xlink="http://www.w3.org/1999/xlink" width="24pt" height="24pt" viewBox="0 0 24 24" version="1.1">
<g id="surface1">
<path style=" stroke:none;fill-rule:nonzero;fill:rgb(0%,0%,0%);fill-opacity:1;" d="M 23.78125 22.691406 L 0.21875 22.691406 L 0.21875 0.328125 L 23.671875 0.328125 L 23.671875 22.691406 Z M 0.761719 22.035156 L 23.128906 22.035156 L 23.128906 0.871094 L 0.761719 0.871094 Z M 0.761719 22.035156 "/>
<path style=" stroke:none;fill-rule:nonzero;fill:rgb(0%,0%,0%);fill-opacity:1;" d="M 19.417969 12.871094 L 4.582031 12.871094 L 4.582031 3.492188 L 19.417969 3.492188 Z M 5.128906 12.21875 L 18.871094 12.21875 L 18.871094 4.144531 L 5.128906 4.144531 Z M 5.128906 12.21875 "/>
<path style=" stroke:none;fill-rule:nonzero;fill:rgb(0%,0%,0%);fill-opacity:1;" d="M 19.417969 18.328125 L 4.582031 18.328125 L 4.582031 14.507812 L 19.308594 14.507812 L 19.308594 18.328125 Z M 5.238281 17.671875 L 18.871094 17.671875 L 18.871094 14.945312 L 5.238281 14.945312 Z M 5.238281 17.671875 "/>
<path style=" stroke:none;fill-rule:nonzero;fill:rgb(0%,0%,0%);fill-opacity:1;" d="M 10.363281 18 L 8.183594 18 L 8.183594 14.726562 L 10.363281 14.726562 Z M 10.363281 18 "/>
<path style=" stroke:none;fill-rule:nonzero;fill:rgb(0%,0%,0%);fill-opacity:1;" d="M 15.816406 18 L 13.636719 18 L 13.636719 14.726562 L 15.816406 14.726562 Z M 15.816406 18 "/>
<path style=" stroke:none;fill-rule:nonzero;fill:rgb(0%,0%,0%);fill-opacity:1;" d="M 19.855469 9.601562 C 19.855469 9.601562 19.746094 9.601562 19.746094 9.601562 C 19.636719 9.492188 19.636719 9.382812 19.636719 9.382812 L 21.382812 7.636719 L 19.636719 5.890625 C 19.636719 5.890625 19.636719 5.78125 19.636719 5.671875 C 19.746094 5.5625 19.855469 5.5625 19.855469 5.671875 L 21.816406 7.527344 C 21.816406 7.527344 21.816406 7.636719 21.816406 7.746094 L 19.964844 9.601562 C 19.855469 9.601562 19.855469 9.601562 19.855469 9.601562 Z M 19.855469 9.601562 "/>
<path style=" stroke:none;fill-rule:nonzero;fill:rgb(0%,0%,0%);fill-opacity:1;" d="M 4.035156 9.601562 L 2.183594 7.746094 C 2.183594 7.636719 2.183594 7.527344 2.183594 7.527344 L 4.035156 5.671875 C 4.144531 5.5625 4.253906 5.5625 4.253906 5.671875 C 4.363281 5.78125 4.363281 5.890625 4.363281 5.890625 L 2.617188 7.636719 L 4.363281 9.382812 C 4.363281 9.382812 4.363281 9.492188 4.363281 9.601562 C 4.363281 9.601562 4.253906 9.601562 4.253906 9.601562 C 4.144531 9.601562 4.144531 9.601562 4.035156 9.601562 Z M 4.035156 9.601562 "/>
</g>
</svg>
