<?xml version="1.0" encoding="utf-8"?>
<!-- Generator: Adobe Illustrator 21.1.0, SVG Export Plug-In . SVG Version: 6.00 Build 0)  -->
<svg version="1.1" id="Layer_1" xmlns="http://www.w3.org/2000/svg" xmlns:xlink="http://www.w3.org/1999/xlink" x="0px" y="0px"
	 viewBox="0 0 24 24" style="enable-background:new 0 0 24 24;" xml:space="preserve">
<path d="M22.3,3.2H1.8C0.9,3.2,0.1,4,0.1,4.9v14.2c0,0.9,0.8,1.7,1.7,1.7h20.5c0.9,0,1.7-0.8,1.7-1.7V4.9C24.1,4,23.2,3.2,22.3,3.2z
	 M17.7,11.7l-3.8,2.6l-5.2-4.1c-0.1-0.1-0.3-0.1-0.5-0.1c-0.1,0-0.3,0-0.3,0.2l-6.5,4.5V4.9c0-0.3,0.2-0.4,0.4-0.4h20.5
	c0.3,0,0.4,0.2,0.4,0.4v10.2l-4.2-3.4c-0.1-0.1-0.2-0.1-0.4-0.1C18,11.6,17.9,11.7,17.7,11.7z M1.4,16.1l7-4.6l5.2,4.1
	c0.3,0.1,0.5,0.1,0.8,0l3.8-2.6l4.6,3.7v2.3c0,0.3-0.2,0.4-0.4,0.4H1.8c-0.3,0-0.4-0.2-0.4-0.4V16.1z M13.8,6.3
	c-1.3,0-2.3,1-2.3,2.3c0,1.3,1,2.3,2.3,2.3c1.3,0,2.3-1,2.3-2.3C16.1,7.3,15.1,6.3,13.8,6.3z M13.8,9.6c-0.5,0-1-0.4-1-1s0.5-1,1-1
	c0.5,0,1,0.4,1,1C14.8,9.1,14.4,9.6,13.8,9.6z"/>
</svg>
