<?xml version="1.0" encoding="UTF-8"?>
<svg xmlns="http://www.w3.org/2000/svg" xmlns:xlink="http://www.w3.org/1999/xlink" width="24pt" height="24pt" viewBox="0 0 24 24" version="1.1">
<g id="surface1">
<path style=" stroke:none;fill-rule:nonzero;fill:rgb(0%,0%,0%);fill-opacity:1;" d="M 13.417969 8.617188 C 12.980469 8.398438 12.546875 8.398438 12 8.398438 C 10.144531 8.398438 8.617188 9.816406 8.398438 11.5625 C 8.398438 11.671875 8.398438 11.890625 8.398438 12 C 8.398438 14.074219 10.035156 15.710938 12.109375 15.710938 C 14.183594 15.710938 15.816406 14.074219 15.816406 12 C 15.710938 10.472656 14.726562 9.164062 13.417969 8.617188 Z M 12.328125 13.746094 L 12.21875 13.746094 L 12.21875 14.183594 C 12.21875 14.289062 12.109375 14.398438 12 14.398438 C 11.890625 14.398438 11.78125 14.289062 11.78125 14.183594 L 11.78125 13.746094 L 11.128906 13.746094 C 11.019531 13.746094 10.910156 13.636719 10.910156 13.527344 C 10.910156 13.417969 11.019531 13.308594 11.128906 13.308594 L 12.328125 13.308594 C 12.65625 13.308594 12.871094 13.089844 12.871094 12.761719 C 12.871094 12.4375 12.65625 12.21875 12.328125 12.21875 L 11.671875 12.21875 C 11.128906 12.21875 10.800781 11.78125 10.800781 11.238281 C 10.800781 10.691406 11.238281 10.253906 11.78125 10.253906 L 11.890625 10.253906 L 11.890625 9.925781 C 11.890625 9.816406 12 9.710938 12.109375 9.710938 C 12.21875 9.710938 12.328125 9.816406 12.328125 9.925781 L 12.328125 10.363281 L 12.980469 10.363281 C 13.089844 10.363281 13.199219 10.472656 13.199219 10.582031 C 13.199219 10.691406 13.089844 10.800781 12.980469 10.800781 L 11.78125 10.800781 C 11.453125 10.800781 11.238281 11.019531 11.238281 11.34375 C 11.238281 11.671875 11.453125 11.890625 11.78125 11.890625 L 12.4375 11.890625 C 12.980469 11.890625 13.417969 12.328125 13.417969 12.871094 C 13.308594 13.308594 12.871094 13.746094 12.328125 13.746094 Z M 23.019531 5.34375 L 0.980469 5.34375 C 0.4375 5.34375 0 5.78125 0 6.4375 L 0 17.671875 C 0 18.21875 0.4375 18.65625 0.980469 18.65625 L 22.910156 18.65625 C 23.453125 18.65625 23.890625 18.21875 23.890625 17.671875 L 23.890625 6.4375 C 24 5.78125 23.5625 5.34375 23.019531 5.34375 Z M 23.453125 17.5625 C 23.453125 17.890625 23.238281 18.109375 22.910156 18.109375 L 0.980469 18.109375 C 0.65625 18.109375 0.4375 17.890625 0.4375 17.5625 L 0.4375 6.4375 C 0.4375 6.109375 0.65625 5.890625 0.980469 5.890625 L 22.910156 5.890625 C 23.238281 5.890625 23.453125 6.109375 23.453125 6.4375 Z M 20.398438 6.65625 L 20.398438 6.4375 L 3.601562 6.4375 L 3.601562 6.65625 C 3.601562 7.636719 3.273438 9.164062 1.308594 9.164062 L 0.980469 9.164062 L 0.980469 14.726562 L 1.199219 14.726562 C 3.164062 14.726562 3.492188 16.363281 3.492188 17.238281 L 3.492188 17.453125 L 20.289062 17.453125 L 20.289062 17.238281 C 20.289062 16.253906 20.617188 14.726562 22.582031 14.726562 L 22.800781 14.726562 L 22.800781 9.710938 L 22.582031 9.710938 C 21.164062 9.710938 20.398438 8.074219 20.398438 6.65625 Z M 22.472656 14.289062 C 20.945312 14.398438 19.964844 15.382812 19.964844 17.128906 L 4.035156 17.128906 C 3.925781 15.492188 3.054688 14.398438 1.527344 14.289062 L 1.527344 9.710938 C 3.054688 9.601562 4.035156 8.617188 4.035156 6.871094 L 19.855469 6.871094 C 19.964844 8.398438 20.726562 10.035156 22.363281 10.144531 Z M 22.472656 14.289062 "/>
</g>
</svg>
