<?xml version="1.0" encoding="UTF-8"?>
<svg xmlns="http://www.w3.org/2000/svg" xmlns:xlink="http://www.w3.org/1999/xlink" width="24pt" height="24pt" viewBox="0 0 24 24" version="1.1">
<g id="surface1">
<path style=" stroke:none;fill-rule:nonzero;fill:rgb(0%,0%,0%);fill-opacity:1;" d="M 21.710938 0.761719 C 21.164062 0.21875 20.617188 0 19.964844 0 C 19.308594 0 18.65625 0.21875 18.21875 0.761719 L 14.945312 4.035156 L 13.964844 3.054688 C 13.417969 2.507812 12.65625 2.507812 12.21875 3.054688 C 11.78125 3.492188 11.78125 4.363281 12.21875 4.800781 L 13.308594 5.890625 L 5.34375 13.855469 L 3.601562 17.671875 L 5.128906 19.199219 L 8.726562 17.34375 L 16.691406 9.382812 L 17.78125 10.472656 C 18.328125 11.019531 19.089844 11.019531 19.527344 10.472656 C 19.964844 10.035156 19.964844 9.164062 19.527344 8.726562 L 18.546875 7.746094 L 21.816406 4.472656 C 22.363281 3.925781 22.582031 3.382812 22.582031 2.726562 C 22.582031 2.074219 22.363281 1.308594 21.816406 0.871094 Z M 8.074219 16.253906 L 5.34375 17.5625 L 5.128906 17.34375 L 6.4375 14.507812 L 14.183594 6.761719 L 15.925781 8.507812 Z M 1.417969 22.472656 C 1.417969 23.34375 2.183594 24 3.054688 24 C 3.925781 24 4.582031 23.34375 4.582031 22.472656 C 4.582031 21.601562 3.054688 19.308594 3.054688 19.308594 C 3.054688 19.308594 1.417969 21.601562 1.417969 22.472656 Z M 1.417969 22.472656 "/>
</g>
</svg>
