<?xml version="1.0" encoding="UTF-8"?>
<svg xmlns="http://www.w3.org/2000/svg" xmlns:xlink="http://www.w3.org/1999/xlink" width="24pt" height="24pt" viewBox="0 0 24 24" version="1.1">
<g id="surface1">
<path style=" stroke:none;fill-rule:nonzero;fill:rgb(0%,0%,0%);fill-opacity:1;" d="M 21.601562 4.253906 L 2.398438 4.253906 C 1.089844 4.253906 0 5.238281 0 6.546875 L 0 17.453125 C 0 18.761719 1.089844 19.855469 2.398438 19.855469 L 21.601562 19.855469 C 22.910156 19.855469 24 18.761719 24 17.453125 L 24 6.546875 C 24 5.238281 22.910156 4.253906 21.601562 4.253906 Z M 23.128906 17.5625 L 16.910156 11.019531 L 23.128906 6.65625 L 23.128906 17.453125 C 23.128906 17.453125 23.128906 17.5625 23.128906 17.5625 Z M 2.398438 5.019531 L 21.601562 5.019531 C 22.144531 5.019531 22.582031 5.34375 22.910156 5.78125 L 13.636719 12.21875 C 13.636719 12.21875 12.761719 12.761719 12 12.761719 C 11.019531 12.761719 10.472656 12.21875 10.472656 12.21875 L 1.089844 5.78125 C 1.308594 5.34375 1.855469 5.019531 2.398438 5.019531 Z M 0.871094 17.453125 L 0.871094 6.761719 L 7.089844 11.019531 L 0.871094 17.5625 C 0.871094 17.5625 0.871094 17.453125 0.871094 17.453125 Z M 21.601562 18.980469 L 2.398438 18.980469 C 1.964844 18.980469 1.527344 18.761719 1.308594 18.4375 L 7.855469 11.453125 L 10.035156 12.871094 C 10.035156 13.089844 10.910156 13.636719 12 13.636719 C 13.089844 13.636719 14.074219 12.871094 14.074219 12.871094 L 16.144531 11.453125 L 22.691406 18.4375 C 22.472656 18.761719 22.035156 18.980469 21.601562 18.980469 Z M 21.601562 18.980469 "/>
</g>
</svg>
