<?xml version="1.0" encoding="UTF-8"?>
<svg xmlns="http://www.w3.org/2000/svg" xmlns:xlink="http://www.w3.org/1999/xlink" width="24pt" height="24pt" viewBox="0 0 24 24" version="1.1">
<g id="surface1">
<path style=" stroke:none;fill-rule:nonzero;fill:rgb(0%,0%,0%);fill-opacity:1;" d="M 23.671875 17.277344 C 23.890625 17.277344 24 17.167969 24 16.949219 L 24 5.824219 C 24 5.605469 23.890625 5.496094 23.671875 5.496094 L 0.328125 5.496094 C 0.109375 5.496094 0 5.605469 0 5.824219 L 0 16.949219 C 0 17.167969 0.109375 17.277344 0.328125 17.277344 Z M 23.34375 16.730469 L 0.65625 16.730469 L 0.65625 6.257812 L 23.453125 6.257812 L 23.453125 16.730469 Z M 23.34375 16.730469 "/>
<path style=" stroke:none;fill-rule:nonzero;fill:rgb(0%,0%,0%);fill-opacity:1;" d="M 18 10.40625 L 19.746094 8.113281 L 21.492188 10.40625 Z M 21.382812 10.40625 L 18 10.40625 C 18 10.40625 17.890625 10.40625 17.890625 10.40625 C 17.890625 10.40625 17.890625 10.296875 17.890625 10.296875 L 19.636719 8.003906 C 19.636719 8.003906 19.746094 8.003906 19.746094 8.003906 L 21.492188 10.296875 C 21.492188 10.296875 21.492188 10.40625 21.382812 10.40625 C 21.492188 10.40625 21.382812 10.40625 21.382812 10.40625 Z M 18.109375 10.296875 L 21.164062 10.296875 L 19.636719 8.222656 Z M 18.109375 10.296875 "/>
<path style=" stroke:none;fill-rule:nonzero;fill:rgb(0%,0%,0%);fill-opacity:1;" d="M 21.382812 12.914062 L 19.636719 15.203125 L 18 12.914062 Z M 21.492188 12.804688 C 21.492188 12.914062 21.492188 12.914062 21.492188 12.804688 L 19.746094 15.203125 C 19.746094 15.203125 19.636719 15.203125 19.636719 15.203125 L 18 12.914062 C 18 12.914062 18 12.914062 18 12.804688 C 18 12.804688 18 12.804688 18.109375 12.804688 L 21.492188 12.804688 C 21.382812 12.804688 21.382812 12.804688 21.492188 12.804688 Z M 19.636719 15.097656 L 21.164062 13.023438 L 18.109375 13.023438 Z M 19.636719 15.097656 "/>
<path style=" stroke:none;fill-rule:nonzero;fill:rgb(0%,0%,0%);fill-opacity:1;" d="M 3.054688 12.328125 L 2.398438 14.398438 L 1.527344 14.398438 L 3.710938 7.855469 L 4.691406 7.855469 L 6.871094 14.398438 L 6.109375 14.398438 L 5.453125 12.328125 Z M 5.238281 11.671875 L 4.582031 9.816406 C 4.472656 9.382812 4.363281 8.945312 4.253906 8.617188 C 4.144531 8.945312 4.035156 9.382812 3.925781 9.816406 L 3.273438 11.671875 Z M 7.855469 14.398438 C 7.855469 14.074219 7.855469 13.636719 7.855469 13.308594 L 7.855469 8.183594 L 8.617188 8.183594 L 8.617188 10.800781 C 8.835938 10.363281 9.382812 10.035156 10.035156 10.035156 C 11.128906 10.035156 11.78125 10.910156 11.78125 12.21875 C 11.78125 13.746094 10.800781 14.507812 9.925781 14.507812 C 9.273438 14.507812 8.835938 14.289062 8.507812 13.746094 L 8.507812 14.398438 Z M 8.617188 12.65625 C 8.617188 12.761719 8.617188 12.871094 8.617188 12.980469 C 8.726562 13.527344 9.164062 13.855469 9.816406 13.855469 C 10.582031 13.855469 11.128906 13.199219 11.128906 12.21875 C 11.128906 11.34375 10.691406 10.691406 9.816406 10.691406 C 9.273438 10.691406 8.835938 11.019531 8.617188 11.671875 C 8.617188 11.78125 8.617188 11.890625 8.617188 12 Z M 15.816406 14.183594 C 15.601562 14.289062 15.164062 14.398438 14.617188 14.398438 C 13.308594 14.398438 12.546875 13.527344 12.546875 12.21875 C 12.546875 10.910156 13.417969 9.925781 14.835938 9.925781 C 15.273438 9.925781 15.710938 10.035156 15.925781 10.144531 L 15.710938 10.910156 C 15.492188 10.800781 15.273438 10.691406 14.835938 10.691406 C 13.855469 10.691406 13.308594 11.453125 13.308594 12.328125 C 13.308594 13.308594 13.964844 13.964844 14.726562 13.964844 C 15.164062 13.964844 15.492188 13.855469 15.710938 13.746094 Z M 15.816406 14.183594 "/>
</g>
</svg>
