<?xml version="1.0" encoding="UTF-8"?>
<svg xmlns="http://www.w3.org/2000/svg" xmlns:xlink="http://www.w3.org/1999/xlink" width="24pt" height="24pt" viewBox="0 0 24 24" version="1.1">
<g id="surface1">
<path style=" stroke:none;fill-rule:nonzero;fill:rgb(0%,0%,0%);fill-opacity:1;" d="M 1.636719 3.203125 C 0.761719 3.203125 0 3.96875 0 4.839844 L 0 19.242188 C 0 20.113281 0.761719 20.878906 1.636719 20.878906 L 22.472656 20.878906 C 23.34375 20.878906 24.109375 20.113281 24.109375 19.242188 L 24.109375 4.839844 C 24.109375 3.96875 23.34375 3.203125 22.472656 3.203125 Z M 1.636719 4.296875 L 22.472656 4.296875 C 22.800781 4.296875 23.019531 4.515625 23.019531 4.839844 L 23.019531 15.421875 L 18.546875 11.824219 C 18.328125 11.714844 18.109375 11.714844 17.890625 11.824219 L 13.964844 14.550781 L 8.617188 10.296875 C 8.507812 10.1875 8.398438 10.1875 8.183594 10.1875 C 8.074219 10.1875 7.964844 10.1875 7.964844 10.296875 L 1.089844 14.988281 L 1.089844 4.839844 C 1.089844 4.515625 1.308594 4.296875 1.636719 4.296875 Z M 13.855469 6.367188 C 12.65625 6.367188 11.671875 7.351562 11.671875 8.550781 C 11.671875 9.75 12.65625 10.730469 13.855469 10.730469 C 15.054688 10.730469 16.035156 9.75 16.035156 8.550781 C 16.035156 7.351562 15.054688 6.367188 13.855469 6.367188 Z M 13.855469 7.460938 C 14.398438 7.460938 14.945312 7.894531 14.945312 8.550781 C 14.945312 9.097656 14.507812 9.640625 13.855469 9.640625 C 13.308594 9.640625 12.761719 9.203125 12.761719 8.550781 C 12.761719 7.894531 13.308594 7.460938 13.855469 7.460938 Z M 8.289062 11.277344 L 13.636719 15.53125 C 13.855469 15.640625 14.074219 15.640625 14.289062 15.53125 L 18.21875 12.804688 L 23.019531 16.625 L 23.019531 19.023438 C 23.019531 19.351562 22.800781 19.570312 22.472656 19.570312 L 1.636719 19.570312 C 1.308594 19.570312 1.089844 19.351562 1.089844 19.023438 L 1.089844 16.078125 Z M 8.289062 11.277344 "/>
</g>
</svg>
