<?xml version="1.0" encoding="utf-8"?>
<!-- Generator: Adobe Illustrator 21.1.0, SVG Export Plug-In . SVG Version: 6.00 Build 0)  -->
<svg version="1.1" id="Layer_1" xmlns="http://www.w3.org/2000/svg" xmlns:xlink="http://www.w3.org/1999/xlink" x="0px" y="0px"
	 viewBox="0 0 24 24" style="enable-background:new 0 0 24 24;" xml:space="preserve">
<path d="M20.4,17.1H3.6V2.6h16.9V17.1z M5,15.6h14V4.1H5V15.6z M18.7,21.4H5.3c-0.9,0-1.7-0.8-1.7-1.8c0-1,0.8-1.8,1.7-1.8h13.5
	c0.9,0,1.7,0.8,1.7,1.8C20.4,20.6,19.7,21.4,18.7,21.4z M5.3,19.2c-0.1,0-0.2,0.2-0.2,0.4s0.1,0.4,0.2,0.4h13.5
	c0.1,0,0.2-0.2,0.2-0.4s-0.1-0.4-0.2-0.4H5.3z M8.9,20.7H7.4v-1.9h1.4V20.7z M12.7,20.7h-1.4v-1.9h1.4V20.7z M16.6,20.7h-1.4v-1.9
	h1.4V20.7z M23.8,10.4l-1.8,1.8c-0.1,0.1-0.2,0.2-0.4,0.2c-0.1,0-0.3-0.1-0.4-0.2c-0.2-0.2-0.2-0.5,0-0.7l1.4-1.4l-1.4-1.4
	c-0.2-0.2-0.2-0.5,0-0.7c0.2-0.2,0.5-0.2,0.7,0l1.8,1.8C24.1,9.9,24.1,10.2,23.8,10.4z M2.7,11.5c0.2,0.2,0.2,0.5,0,0.7
	c-0.1,0.1-0.2,0.2-0.4,0.2c-0.1,0-0.3-0.1-0.4-0.2l-1.8-1.8C0.1,10.3,0,10.2,0,10.1c0-0.1,0.1-0.3,0.2-0.4l1.8-1.8
	c0.2-0.2,0.5-0.2,0.7,0C2.8,8,2.8,8.2,2.8,8.3c0,0.1-0.1,0.3-0.2,0.4l-1.4,1.4L2.7,11.5z"/>
</svg>
