<?xml version="1.0" encoding="UTF-8"?>
<svg xmlns="http://www.w3.org/2000/svg" xmlns:xlink="http://www.w3.org/1999/xlink" width="24pt" height="24pt" viewBox="0 0 24 24" version="1.1">
<g id="surface1">
<path style=" stroke:none;fill-rule:nonzero;fill:rgb(0%,0%,0%);fill-opacity:1;" d="M 12 20.726562 L 9.816406 18.546875 L 0.21875 18.546875 L 0.21875 4.472656 L 23.671875 4.472656 L 23.671875 18.546875 L 14.183594 18.546875 Z M 0.871094 18 L 10.035156 18 L 12 19.964844 L 13.964844 18 L 23.128906 18 L 23.128906 5.019531 L 0.871094 5.019531 Z M 0.871094 18 "/>
<path style=" stroke:none;fill-rule:nonzero;fill:rgb(0%,0%,0%);fill-opacity:1;" d="M 23.453125 8.507812 L 0.546875 8.507812 L 0.546875 7.855469 L 23.453125 7.855469 Z M 23.453125 8.507812 "/>
<path style=" stroke:none;fill-rule:nonzero;fill:rgb(0%,0%,0%);fill-opacity:1;" d="M 20.183594 10.910156 L 3.816406 10.910156 L 3.816406 9.816406 L 20.183594 9.816406 Z M 20.183594 13.089844 L 3.816406 13.089844 L 3.816406 14.183594 L 20.183594 14.183594 Z M 20.183594 13.089844 "/>
</g>
</svg>
