<?xml version="1.0" encoding="UTF-8"?>
<svg xmlns="http://www.w3.org/2000/svg" xmlns:xlink="http://www.w3.org/1999/xlink" width="24pt" height="24pt" viewBox="0 0 24 24" version="1.1">
<g id="surface1">
<path style=" stroke:none;fill-rule:nonzero;fill:rgb(0%,0%,0%);fill-opacity:1;" d="M 23.78125 17.671875 L 0.21875 17.671875 L 0.21875 5.453125 L 23.671875 5.453125 L 23.671875 17.671875 Z M 0.871094 17.238281 L 23.238281 17.238281 L 23.238281 6 L 0.871094 6 Z M 0.871094 17.238281 "/>
<path style=" stroke:none;fill-rule:nonzero;fill:rgb(0%,0%,0%);fill-opacity:1;" d="M 11.453125 17.671875 L 0.546875 17.671875 L 0.546875 6 L 11.453125 6 Z M 11.453125 17.671875 "/>
<path style=" stroke:none;fill-rule:nonzero;fill:rgb(0%,0%,0%);fill-opacity:1;" d="M 17.671875 11.128906 C 17.671875 12.65625 16.800781 13.417969 15.601562 13.417969 C 14.398438 13.417969 13.636719 12.546875 13.636719 11.128906 C 13.636719 9.710938 14.507812 8.835938 15.710938 8.835938 C 16.910156 8.945312 17.671875 9.925781 17.671875 11.128906 Z M 14.289062 11.238281 C 14.289062 12.21875 14.835938 12.980469 15.710938 12.980469 C 16.582031 12.980469 17.128906 12.109375 17.128906 11.128906 C 17.128906 10.253906 16.691406 9.382812 15.710938 9.382812 C 14.726562 9.382812 14.289062 10.253906 14.289062 11.238281 Z M 18.4375 13.417969 L 18.4375 9.054688 L 19.089844 9.054688 L 20.507812 11.238281 C 20.835938 11.78125 21.054688 12.21875 21.273438 12.65625 C 21.273438 12.109375 21.164062 11.5625 21.164062 10.800781 L 21.164062 9.054688 L 21.710938 9.054688 L 21.710938 13.417969 L 21.164062 13.417969 L 19.746094 11.128906 C 19.417969 10.691406 19.089844 10.144531 18.871094 9.710938 C 18.871094 10.253906 18.871094 10.800781 18.871094 11.5625 L 18.871094 13.417969 Z M 18.4375 13.417969 "/>
</g>
</svg>
