<?xml version="1.0" encoding="utf-8"?>
<!-- Generator: Adobe Illustrator 21.1.0, SVG Export Plug-In . SVG Version: 6.00 Build 0)  -->
<svg version="1.1" id="Layer_1" xmlns="http://www.w3.org/2000/svg" xmlns:xlink="http://www.w3.org/1999/xlink" x="0px" y="0px"
	 viewBox="0 0 24 24" style="enable-background:new 0 0 24 24;" xml:space="preserve">
<path d="M16.4,9c-0.1-0.1-0.2-0.2-0.2-0.3c0-0.1,0-0.2,0.2-0.3L17.7,7c0.1-0.1,0.4-0.3,0.7-0.3c0.2,0,0.4,0.1,0.5,0.2
	C18.9,6.9,19,7,19,7l0.1,0l1.2,1.2c0.2,0.2,0.2,0.5,0,0.7C20.1,9,20,9,19.9,9c-0.1,0-0.2,0-0.3-0.2l-0.7-0.6v7.4l0.6-0.6
	c0-0.1,0.1-0.2,0.3-0.3c0.1,0,0.2,0,0.4,0.1c0.1,0.1,0.2,0.4,0.1,0.5c0,0.1-0.1,0.1-0.2,0.2l-1.1,1.1c-0.1,0.1-0.4,0.3-0.7,0.3
	c-0.2,0-0.4-0.1-0.5-0.2c0,0-0.1-0.1-0.1-0.1l-0.1,0l-1.3-1.3c-0.1-0.1-0.2-0.4-0.1-0.5c0-0.1,0.1-0.1,0.2-0.2
	c0.1-0.1,0.3-0.1,0.5-0.1c0.1,0,0.1,0.1,0.2,0.2l0.6,0.6V8.3L17.1,9C16.9,9.2,16.6,9.2,16.4,9z M24.1,18.4c0,1.1-0.9,2-2.1,2H2.1
	c-1.2,0-2.1-0.9-2.1-2V5.5c0-1.1,0.9-1.9,2.1-1.9h19.8c1.1,0,2,0.8,2.2,1.9L24.1,18.4z M1.4,5.5v13c0,0.4,0.3,0.7,0.7,0.7h19.8
	c0.4,0,0.7-0.3,0.7-0.7v-0.2h0.1V5.5c0-0.4-0.3-0.7-0.7-0.7H2.1C1.7,4.8,1.4,5.1,1.4,5.5z M4.1,12.7c-0.4,0-0.6,0.3-0.6,0.6
	c0,0.2,0.3,0.6,0.6,0.6c0.4,0,0.8-0.2,1.2-0.4c0.3,0.3,0.8,0.4,1.2,0.4c0.4,0,0.6-0.3,0.6-0.6c0-0.2-0.3-0.6-0.6-0.6
	c-0.2,0-0.5,0-0.5-0.9l0-3.5c0-0.4,0-0.7,0.1-0.8c0.1-0.1,0.2-0.1,0.4-0.1C6.8,7.3,7,7,7,6.8c0-0.2-0.3-0.7-0.6-0.7
	c-0.4,0-0.8,0.2-1.2,0.4C4.9,6.3,4.5,6.1,4.1,6.1c-0.2,0-0.6,0.3-0.6,0.6c0,0.4,0.3,0.6,0.6,0.6c0.2,0,0.5,0,0.5,0.9v3.6
	C4.6,12.7,4.3,12.7,4.1,12.7z"/>
</svg>
