<?xml version="1.0" encoding="UTF-8"?>
<svg xmlns="http://www.w3.org/2000/svg" xmlns:xlink="http://www.w3.org/1999/xlink" width="24pt" height="24pt" viewBox="0 0 24 24" version="1.1">
<g id="surface1">
<path style=" stroke:none;fill-rule:nonzero;fill:rgb(0.784314%,0.784314%,0.784314%);fill-opacity:1;" d="M 15.164062 11.25 L 15.925781 11.25 L 15.925781 8.351562 L 12.761719 8.351562 L 12.761719 11.25 Z M 13.527344 9.050781 L 15.164062 9.050781 L 15.164062 10.550781 L 13.527344 10.550781 Z M 19.964844 20.050781 L 20.726562 20.050781 L 20.726562 17.148438 L 17.5625 17.148438 L 17.5625 20.050781 Z M 18.328125 17.851562 L 19.964844 17.851562 L 19.964844 19.351562 L 18.328125 19.351562 Z M 19.964844 15.648438 L 20.726562 15.648438 L 20.726562 12.75 L 17.5625 12.75 L 17.5625 15.648438 Z M 18.328125 13.449219 L 19.964844 13.449219 L 19.964844 14.949219 L 18.328125 14.949219 Z M 19.964844 11.25 L 20.726562 11.25 L 20.726562 8.351562 L 17.5625 8.351562 L 17.5625 11.25 Z M 18.328125 9.050781 L 19.964844 9.050781 L 19.964844 10.550781 L 18.328125 10.550781 Z M 5.5625 20.050781 L 6.328125 20.050781 L 6.328125 17.148438 L 3.164062 17.148438 L 3.164062 20.050781 Z M 4.035156 17.851562 L 5.5625 17.851562 L 5.5625 19.351562 L 4.035156 19.351562 Z M 5.5625 11.25 L 6.328125 11.25 L 6.328125 8.351562 L 3.164062 8.351562 L 3.164062 11.25 Z M 4.035156 9.050781 L 5.5625 9.050781 L 5.5625 10.550781 L 4.035156 10.550781 Z M 5.5625 15.648438 L 6.328125 15.648438 L 6.328125 12.75 L 3.164062 12.75 L 3.164062 15.648438 Z M 4.035156 13.449219 L 5.5625 13.449219 L 5.5625 14.949219 L 4.035156 14.949219 Z M 15.164062 15.648438 L 15.925781 15.648438 L 15.925781 12.75 L 12.761719 12.75 L 12.761719 15.648438 Z M 13.527344 13.449219 L 15.164062 13.449219 L 15.164062 14.949219 L 13.527344 14.949219 Z M 23.238281 1.75 L 19.855469 1.75 L 19.855469 1.050781 L 19.089844 1.050781 L 19.089844 0.351562 L 18.328125 0.351562 L 18.328125 1.050781 L 17.5625 1.050781 L 17.5625 1.75 L 6.328125 1.75 L 6.328125 0.949219 L 5.5625 0.949219 L 5.5625 0.25 L 4.691406 0.25 L 4.691406 0.949219 L 3.925781 0.949219 L 3.925781 1.648438 L 0 1.648438 L 0 23.648438 L 24 23.648438 L 24 1.75 Z M 23.019531 22.949219 L 0.761719 22.949219 L 0.871094 6.148438 L 23.019531 6.148438 Z M 23.019531 5.25 L 0.761719 5.25 L 0.761719 2.449219 L 3.925781 2.449219 L 3.925781 3.949219 L 4.691406 3.949219 L 4.691406 4.648438 L 5.5625 4.648438 L 5.5625 3.949219 L 6.328125 3.949219 L 6.328125 2.449219 L 17.5625 2.449219 L 17.5625 3.851562 L 18.328125 3.851562 L 18.328125 4.550781 L 19.089844 4.550781 L 19.089844 3.851562 L 19.855469 3.851562 L 19.855469 2.351562 L 23.019531 2.351562 Z M 10.363281 20.050781 L 11.128906 20.050781 L 11.128906 17.148438 L 7.964844 17.148438 L 7.964844 20.050781 Z M 8.835938 17.851562 L 10.363281 17.851562 L 10.363281 19.351562 L 8.835938 19.351562 Z M 10.363281 15.648438 L 11.128906 15.648438 L 11.128906 12.75 L 7.964844 12.75 L 7.964844 15.648438 Z M 8.835938 13.449219 L 10.363281 13.449219 L 10.363281 14.949219 L 8.835938 14.949219 Z M 15.164062 20.050781 L 15.925781 20.050781 L 15.925781 17.148438 L 12.761719 17.148438 L 12.761719 20.050781 Z M 13.527344 17.851562 L 15.164062 17.851562 L 15.164062 19.351562 L 13.527344 19.351562 Z M 10.363281 11.25 L 11.128906 11.25 L 11.128906 8.351562 L 7.964844 8.351562 L 7.964844 11.25 Z M 8.835938 9.050781 L 10.363281 9.050781 L 10.363281 10.550781 L 8.835938 10.550781 Z M 8.835938 9.050781 "/>
</g>
</svg>
