<?xml version="1.0" encoding="UTF-8"?>
<svg width="32px" height="32px" viewBox="0 0 32 32" version="1.1" xmlns="http://www.w3.org/2000/svg" xmlns:xlink="http://www.w3.org/1999/xlink">
    <!-- Generator: Sketch 51.2 (57519) - http://www.bohemiancoding.com/sketch -->
    <title>Artboard</title>
    <desc>Created with Sketch.</desc>
    <defs></defs>
    <g id="Artboard" stroke="none" stroke-width="1" fill="none" fill-rule="evenodd">
        <path d="M7.834,12.655 L5.993,12.655 L5.993,11.316 L9.614,11.003 L9.614,19.873 L7.834,19.873 L7.834,12.655 Z M12.724,18.726 L15.482,15.663 C15.895,15.187 16.187,14.783 16.36,14.453 C16.534,14.123 16.621,13.82 16.621,13.544 C16.621,13.183 16.529,12.895 16.345,12.679 C16.162,12.463 15.886,12.355 15.52,12.355 C15.132,12.355 14.832,12.492 14.62,12.769 C14.408,13.045 14.302,13.396 14.302,13.82 L12.564,13.82 L12.552,13.784 C12.532,13.007 12.793,12.349 13.335,11.811 C13.878,11.273 14.605,11.003 15.52,11.003 C16.433,11.003 17.143,11.233 17.648,11.691 C18.154,12.15 18.407,12.765 18.407,13.537 C18.407,14.062 18.265,14.54 17.981,14.973 C17.698,15.405 17.209,16.004 16.517,16.768 L15.048,18.498 L15.061,18.528 L18.7,18.528 L18.7,19.873 L12.724,19.873 L12.724,18.726 Z M25.609,16.153 C25.861,16.503 25.988,16.926 25.988,17.423 C25.988,18.224 25.693,18.853 25.104,19.312 C24.515,19.77 23.759,19.999 22.837,19.999 C22.026,19.999 21.316,19.783 20.709,19.351 C20.101,18.918 19.807,18.312 19.828,17.531 L19.84,17.495 L21.577,17.495 C21.577,17.823 21.694,18.099 21.929,18.321 C22.164,18.543 22.466,18.654 22.837,18.654 C23.245,18.654 23.576,18.536 23.829,18.3 C24.082,18.064 24.208,17.765 24.208,17.405 C24.208,16.945 24.089,16.603 23.853,16.381 C23.616,16.159 23.27,16.048 22.813,16.048 L21.828,16.048 L21.828,14.733 L22.813,14.733 C23.237,14.733 23.552,14.625 23.758,14.408 C23.964,14.192 24.067,13.888 24.067,13.495 C24.067,13.167 23.959,12.895 23.743,12.679 C23.527,12.463 23.225,12.355 22.837,12.355 C22.511,12.355 22.237,12.453 22.015,12.649 C21.792,12.845 21.681,13.095 21.681,13.4 L19.956,13.4 L19.944,13.363 C19.919,12.679 20.188,12.114 20.751,11.67 C21.314,11.225 22.009,11.003 22.837,11.003 C23.759,11.003 24.491,11.217 25.034,11.643 C25.576,12.069 25.847,12.681 25.847,13.478 C25.847,13.878 25.73,14.245 25.496,14.579 C25.261,14.914 24.94,15.177 24.532,15.369 C24.997,15.541 25.356,15.802 25.609,16.153 Z M30,8 C30,7.447 29.552,7 29,7 L3,7 C2.447,7 2,7.447 2,8 L2,24 C2,24.552 2.447,25 3,25 L29,25 C29.552,25 30,24.552 30,24 L30,8 Z M30,27 L2,27 C0.895,27 0,26.104 0,25 L0,7 C0,5.895 0.895,5 2,5 L30,5 C31.104,5 32,5.895 32,7 L32,25 C32,26.104 31.104,27 30,27 Z" id="Fill-1" fill="#000000"></path>
    </g>
</svg>