<?xml version="1.0" encoding="UTF-8"?>
<svg xmlns="http://www.w3.org/2000/svg" xmlns:xlink="http://www.w3.org/1999/xlink" width="24pt" height="24pt" viewBox="0 0 24 24" version="1.1">
<g id="surface1">
<path style=" stroke:none;fill-rule:nonzero;fill:rgb(0%,0%,0%);fill-opacity:1;" d="M 23.78125 22.691406 L 0.21875 22.691406 L 0.21875 0.328125 L 23.671875 0.328125 L 23.671875 22.691406 Z M 0.761719 22.035156 L 23.128906 22.035156 L 23.128906 0.871094 L 0.761719 0.871094 Z M 0.761719 22.035156 "/>
<path style=" stroke:none;fill-rule:nonzero;fill:rgb(0%,0%,0%);fill-opacity:1;" d="M 4.035156 18 L 6.328125 7.089844 L 2.289062 7.089844 L 2.617188 5.671875 L 12.328125 5.671875 L 12 7.089844 L 7.964844 7.089844 L 5.671875 18 Z M 4.035156 18 "/>
<path style=" stroke:none;fill-rule:nonzero;fill:rgb(0%,0%,0%);fill-opacity:1;" d="M 19.636719 9.164062 L 13.089844 9.164062 L 13.089844 8.289062 L 19.636719 8.289062 Z M 19.636719 12.65625 L 11.453125 12.65625 L 11.453125 13.527344 L 19.636719 13.527344 Z M 19.636719 17.019531 L 9.273438 17.019531 L 9.273438 17.890625 L 19.636719 17.890625 Z M 19.636719 17.019531 "/>
</g>
</svg>
