<?xml version="1.0" encoding="UTF-8"?>
<svg xmlns="http://www.w3.org/2000/svg" xmlns:xlink="http://www.w3.org/1999/xlink" width="24pt" height="24pt" viewBox="0 0 24 24" version="1.1">
<g id="surface1">
<path style=" stroke:none;fill-rule:nonzero;fill:rgb(0%,0%,0%);fill-opacity:1;" d="M 1.417969 22.628906 L 22.800781 22.742188 L 22.800781 24 L 0 24 L 0 0 L 1.417969 0 Z M 22.472656 1.828125 C 21.710938 1.828125 21.054688 2.515625 20.945312 3.3125 L 17.238281 5.257812 C 16.910156 5.027344 16.582031 4.800781 16.144531 4.800781 C 15.273438 4.800781 14.617188 5.484375 14.617188 6.398438 C 14.617188 6.855469 14.835938 7.3125 15.164062 7.65625 L 14.726562 10.628906 C 14.183594 10.742188 13.855469 11.199219 13.636719 11.65625 L 10.800781 11.886719 C 10.582031 11.3125 10.035156 10.972656 9.492188 10.972656 C 8.617188 10.972656 7.964844 11.65625 7.964844 12.570312 C 7.964844 12.800781 7.964844 12.914062 8.074219 13.144531 L 4.035156 19.3125 C 3.925781 19.3125 3.925781 19.3125 3.816406 19.3125 C 3.164062 19.3125 2.617188 19.886719 2.617188 20.570312 C 2.617188 21.257812 3.164062 21.828125 3.816406 21.828125 C 4.472656 21.828125 5.019531 21.257812 5.019531 20.570312 C 5.019531 20.457031 5.019531 20.230469 4.910156 20.113281 L 8.835938 14.058594 C 9.054688 14.171875 9.164062 14.171875 9.382812 14.171875 C 10.035156 14.171875 10.582031 13.714844 10.800781 13.027344 L 13.636719 12.800781 C 13.855469 13.371094 14.398438 13.714844 14.945312 13.714844 C 15.816406 13.714844 16.472656 13.027344 16.472656 12.113281 C 16.472656 11.542969 16.144531 11.085938 15.710938 10.742188 L 16.363281 8 C 17.128906 7.886719 17.671875 7.199219 17.671875 6.398438 L 21.382812 4.570312 C 21.710938 4.914062 22.035156 5.027344 22.472656 5.027344 C 23.34375 5.027344 24 4.34375 24 3.429688 C 24 2.515625 23.34375 1.828125 22.472656 1.828125 Z M 22.472656 1.828125 "/>
</g>
</svg>
