<?xml version="1.0" encoding="UTF-8"?>
<svg xmlns="http://www.w3.org/2000/svg" xmlns:xlink="http://www.w3.org/1999/xlink" width="24pt" height="24pt" viewBox="0 0 24 24" version="1.1">
<g id="surface1">
<path style=" stroke:none;fill-rule:nonzero;fill:rgb(0%,0%,0%);fill-opacity:1;" d="M 24 4.582031 L 0 4.582031 C -0.328125 4.582031 -0.546875 4.363281 -0.546875 4.035156 L -0.546875 1.308594 C -0.546875 0.980469 -0.328125 0.761719 0 0.761719 L 24 0.761719 C 24.328125 0.761719 24.546875 0.980469 24.546875 1.308594 L 24.546875 3.925781 C 24.546875 4.253906 24.328125 4.582031 24 4.582031 Z M 0.546875 3.492188 L 23.453125 3.492188 L 23.453125 1.855469 L 0.546875 1.855469 Z M 24 7.199219 L 0 7.199219 C -0.328125 7.199219 -0.546875 6.980469 -0.546875 6.65625 L -0.546875 4.035156 C -0.546875 3.710938 -0.328125 3.492188 0 3.492188 L 24 3.492188 C 24.328125 3.492188 24.546875 3.710938 24.546875 4.035156 L 24.546875 6.65625 C 24.546875 6.980469 24.328125 7.199219 24 7.199219 Z M 0.546875 6.109375 L 23.453125 6.109375 L 23.453125 4.582031 L 0.546875 4.582031 Z M 24 23.238281 L 0 23.238281 C -0.328125 23.238281 -0.546875 23.019531 -0.546875 22.691406 L -0.546875 20.074219 C -0.546875 19.746094 -0.328125 19.527344 0 19.527344 L 24 19.527344 C 24.328125 19.527344 24.546875 19.746094 24.546875 20.074219 L 24.546875 22.691406 C 24.546875 23.019531 24.328125 23.238281 24 23.238281 Z M 0.546875 22.144531 L 23.453125 22.144531 L 23.453125 20.617188 L 0.546875 20.617188 Z M 21.382812 20.507812 L 2.617188 20.507812 C 2.289062 20.507812 2.074219 20.289062 2.074219 19.964844 L 2.074219 6.65625 C 2.074219 6.328125 2.289062 6.109375 2.617188 6.109375 L 21.273438 6.109375 C 21.601562 6.109375 21.816406 6.328125 21.816406 6.65625 L 21.816406 19.964844 C 21.925781 20.289062 21.601562 20.507812 21.382812 20.507812 Z M 3.164062 19.417969 L 20.726562 19.417969 L 20.726562 7.199219 L 3.164062 7.199219 Z M 3.164062 19.417969 "/>
</g>
</svg>
