<?xml version="1.0" encoding="utf-8"?>
<!-- Generator: Adobe Illustrator 21.1.0, SVG Export Plug-In . SVG Version: 6.00 Build 0)  -->
<svg version="1.1" id="Layer_1" xmlns="http://www.w3.org/2000/svg" xmlns:xlink="http://www.w3.org/1999/xlink" x="0px" y="0px"
	 viewBox="0 0 24 24" style="enable-background:new 0 0 24 24;" xml:space="preserve">
<path d="M23.2,0H0.8C0.3,0,0,0.3,0,0.8v22.4C0,23.7,0.3,24,0.8,24h22.4c0.5,0,0.8-0.3,0.8-0.8V0.8C24,0.3,23.7,0,23.2,0z M22.4,1.6
	v20.9H1.6V1.6H22.4z M21.9,9.3H8.2V8.1h13.6V9.3z M21.9,7.1H8.2V6h13.6V7.1z M6.5,12.8H2.1v6.4h4.3V12.8z M5.6,13.8V18H2.9v-4.1H5.6
	z M6.5,4.3H2.1v6.4h4.3V4.3z M5.6,5.3v4.1H2.9V5.3H5.6z M21.9,15.5H8.2v-1.1h13.6V15.5z M21.9,17.4H8.2v-1.1h13.6V17.4z"/>
</svg>
