<?xml version="1.0" encoding="utf-8"?>
<!-- Generator: Adobe Illustrator 21.1.0, SVG Export Plug-In . SVG Version: 6.00 Build 0)  -->
<svg version="1.1" id="Layer_1" xmlns="http://www.w3.org/2000/svg" xmlns:xlink="http://www.w3.org/1999/xlink" x="0px" y="0px"
	 viewBox="0 0 24 24" style="enable-background:new 0 0 24 24;" xml:space="preserve">
<g id="surface1">
	<path d="M1.4,22.6l21.4,0.1V24H0V0h1.4V22.6z M22.5,1.8c-0.8,0-1.4,0.7-1.5,1.5l-3.7,1.9c-0.3-0.2-0.7-0.5-1.1-0.5
		c-0.9,0-1.5,0.7-1.5,1.6c0,0.5,0.2,0.9,0.5,1.3l-0.4,3c-0.5,0.1-0.9,0.6-1.1,1l-2.8,0.2C10.6,11.3,10,11,9.5,11
		C8.6,11,8,11.7,8,12.6c0,0.2,0,0.3,0.1,0.6l-4,6.2c-0.1,0-0.1,0-0.2,0c-0.7,0-1.2,0.6-1.2,1.3c0,0.7,0.5,1.3,1.2,1.3
		c0.7,0,1.2-0.6,1.2-1.3c0-0.1,0-0.3-0.1-0.5l3.9-6.1c0.2,0.1,0.3,0.1,0.5,0.1c0.7,0,1.2-0.5,1.4-1.1l2.8-0.2
		c0.2,0.6,0.8,0.9,1.3,0.9c0.9,0,1.5-0.7,1.5-1.6c0-0.6-0.3-1-0.8-1.4L16.4,8c0.8-0.1,1.3-0.8,1.3-1.6l3.7-1.8C21.7,4.9,22,5,22.5,5
		C23.3,5,24,4.3,24,3.4C24,2.5,23.3,1.8,22.5,1.8z"/>
</g>
</svg>
