<?xml version="1.0" encoding="UTF-8"?>
<svg xmlns="http://www.w3.org/2000/svg" xmlns:xlink="http://www.w3.org/1999/xlink" width="24pt" height="24pt" viewBox="0 0 24 24" version="1.1">
<g id="surface1">
<path style=" stroke:none;fill-rule:nonzero;fill:rgb(0%,0%,0%);fill-opacity:1;" d="M 23.019531 0.546875 L 13.417969 0 C 13.308594 0 13.089844 0 12.980469 0.109375 L 0.328125 12.761719 C 0.109375 12.980469 0 13.308594 0 13.636719 C 0 13.964844 0.109375 14.289062 0.328125 14.507812 L 9.382812 23.5625 C 9.710938 23.890625 10.035156 24 10.363281 24 C 10.691406 24 11.019531 23.890625 11.238281 23.671875 L 23.78125 11.128906 C 24 10.910156 24 10.800781 24 10.691406 L 23.453125 1.089844 C 23.453125 0.761719 23.238281 0.546875 23.019531 0.546875 Z M 10.472656 22.910156 C 10.472656 22.910156 10.363281 22.910156 10.363281 22.910156 C 10.363281 22.910156 10.253906 22.910156 10.253906 22.910156 L 1.089844 13.746094 C 1.089844 13.746094 1.089844 13.636719 1.089844 13.636719 C 1.089844 13.636719 1.089844 13.527344 1.089844 13.527344 L 13.527344 1.089844 L 22.363281 1.527344 L 22.910156 10.363281 Z M 14.617188 5.34375 C 13.527344 6.4375 13.527344 8.289062 14.617188 9.382812 C 15.164062 9.925781 15.816406 10.253906 16.582031 10.253906 C 17.34375 10.253906 18.109375 9.925781 18.546875 9.382812 C 19.636719 8.289062 19.636719 6.4375 18.546875 5.34375 C 17.5625 4.253906 15.710938 4.253906 14.617188 5.34375 Z M 17.890625 8.617188 C 17.5625 8.945312 17.128906 9.164062 16.691406 9.164062 C 16.253906 9.164062 15.816406 8.945312 15.492188 8.617188 C 15.164062 8.289062 14.945312 7.855469 14.945312 7.417969 C 14.945312 6.980469 15.164062 6.546875 15.492188 6.21875 C 15.816406 5.890625 16.253906 5.671875 16.691406 5.671875 C 17.128906 5.671875 17.5625 5.890625 17.890625 6.21875 C 18.546875 6.761719 18.546875 7.855469 17.890625 8.617188 Z M 17.890625 8.617188 "/>
</g>
</svg>
