<?xml version="1.0" encoding="UTF-8"?>
<svg xmlns="http://www.w3.org/2000/svg" xmlns:xlink="http://www.w3.org/1999/xlink" width="24pt" height="24pt" viewBox="0 0 24 24" version="1.1">
<g id="surface1">
<path style=" stroke:none;fill-rule:nonzero;fill:rgb(0%,0%,0%);fill-opacity:1;" d="M 24 22.035156 L 0 22.035156 L 0 5.238281 L 24 5.238281 Z M 0.546875 21.273438 L 23.453125 21.273438 L 23.453125 6 L 0.546875 6 Z M 0.546875 21.273438 "/>
<path style=" stroke:none;fill-rule:nonzero;fill:rgb(0%,0%,0%);fill-opacity:1;" d="M 24 9.164062 L 0 9.164062 L 0 8.289062 L 24 8.289062 Z M 24 9.164062 "/>
<path style=" stroke:none;fill-rule:nonzero;fill:rgb(0%,0%,0%);fill-opacity:1;" d="M 13.964844 20.507812 L 1.308594 20.507812 L 1.308594 10.035156 L 13.855469 10.035156 L 13.855469 20.507812 Z M 1.964844 19.855469 L 13.417969 19.855469 L 13.417969 10.691406 L 1.964844 10.691406 Z M 1.964844 19.855469 "/>
<path style=" stroke:none;fill-rule:nonzero;fill:rgb(0%,0%,0%);fill-opacity:1;" d="M 16.910156 12.546875 L 14.726562 12.546875 L 14.726562 10.363281 L 16.910156 10.363281 Z M 20.726562 10.691406 L 17.453125 10.691406 L 17.453125 11.238281 L 20.726562 11.238281 Z M 20.726562 11.78125 L 17.453125 11.78125 L 17.453125 12.328125 L 20.726562 12.328125 Z M 20.726562 12.871094 L 14.726562 12.871094 L 14.726562 13.417969 L 20.726562 13.417969 Z M 20.726562 13.964844 L 14.726562 13.964844 L 14.726562 14.507812 L 20.726562 14.507812 Z M 20.726562 15.054688 L 14.726562 15.054688 L 14.726562 15.601562 L 20.726562 15.601562 Z M 20.726562 16.144531 L 14.726562 16.144531 L 14.726562 16.691406 L 20.726562 16.691406 Z M 20.726562 17.238281 L 14.726562 17.238281 L 14.726562 17.78125 L 20.726562 17.78125 Z M 20.726562 18.328125 L 14.726562 18.328125 L 14.726562 18.871094 L 20.726562 18.871094 Z M 20.726562 18.328125 "/>
<path style=" stroke:none;fill-rule:nonzero;fill:rgb(0%,0%,0%);fill-opacity:1;" d="M 20.726562 19.855469 L 14.726562 19.855469 L 14.726562 19.308594 L 20.726562 19.308594 Z M 20.726562 19.855469 "/>
<path style=" stroke:none;fill-rule:nonzero;fill:rgb(0%,0%,0%);fill-opacity:1;" d="M 6 13.242188 L 3.492188 15.3125 L 6 17.386719 L 5.671875 17.714844 L 2.835938 15.53125 L 2.617188 15.3125 L 2.835938 15.097656 L 5.671875 12.914062 Z M 12.328125 15.097656 L 9.492188 12.914062 L 9.164062 13.242188 L 11.671875 15.3125 L 9.164062 17.386719 L 9.492188 17.714844 L 12.328125 15.53125 L 12.546875 15.3125 Z M 12.328125 15.097656 "/>
</g>
</svg>
