<?xml version="1.0" encoding="UTF-8"?>
<svg xmlns="http://www.w3.org/2000/svg" xmlns:xlink="http://www.w3.org/1999/xlink" width="24pt" height="24pt" viewBox="0 0 24 24" version="1.1">
<g id="surface1">
<path style=" stroke:none;fill-rule:nonzero;fill:rgb(0%,0%,0%);fill-opacity:1;" d="M 0 0 L 0 24 L 24 24 L 24 0 Z M 23.019531 7.636719 L 16.363281 7.636719 L 16.363281 0.980469 L 23.019531 0.980469 Z M 8.617188 15.382812 L 8.617188 8.617188 L 15.382812 8.617188 L 15.382812 15.382812 Z M 15.382812 16.363281 L 15.382812 23.019531 L 8.617188 23.019531 L 8.617188 16.363281 Z M 7.636719 15.382812 L 0.980469 15.382812 L 0.980469 8.617188 L 7.636719 8.617188 Z M 8.617188 7.636719 L 8.617188 0.980469 L 15.382812 0.980469 L 15.382812 7.636719 Z M 16.363281 8.617188 L 23.019531 8.617188 L 23.019531 15.382812 L 16.363281 15.382812 Z M 7.636719 0.980469 L 7.636719 7.636719 L 0.980469 7.636719 L 0.980469 0.980469 Z M 0.980469 16.363281 L 7.636719 16.363281 L 7.636719 23.019531 L 0.980469 23.019531 Z M 16.363281 23.019531 L 16.363281 16.363281 L 23.019531 16.363281 L 23.019531 23.019531 Z M 16.363281 23.019531 "/>
</g>
</svg>
