<?xml version="1.0" encoding="UTF-8"?>
<svg xmlns="http://www.w3.org/2000/svg" xmlns:xlink="http://www.w3.org/1999/xlink" width="24pt" height="24pt" viewBox="0 0 24 24" version="1.1">
<g id="surface1">
<path style=" stroke:none;fill-rule:nonzero;fill:rgb(0%,0%,0%);fill-opacity:1;" d="M 0 4.582031 L 0 18.328125 C 0 18.4375 0.109375 18.546875 0.328125 18.546875 L 23.671875 18.546875 C 23.78125 18.546875 24 18.4375 24 18.328125 L 24 4.582031 C 24 4.472656 23.890625 4.363281 23.671875 4.363281 L 0.328125 4.363281 C 0.109375 4.472656 0 4.472656 0 4.582031 Z M 0.65625 4.800781 L 23.453125 4.800781 L 23.453125 18.328125 L 0.65625 18.328125 Z M 0.65625 4.800781 "/>
<path style=" stroke:none;fill-rule:nonzero;fill:rgb(0%,0%,0%);fill-opacity:1;" d="M 17.78125 14.835938 L 4.035156 14.835938 C 2.398438 14.835938 1.089844 13.417969 1.089844 11.5625 L 1.089844 11.238281 C 1.089844 9.492188 2.398438 7.964844 4.035156 7.964844 L 17.78125 7.964844 C 19.417969 7.964844 20.726562 9.382812 20.726562 11.238281 L 20.726562 11.5625 C 20.726562 13.417969 19.417969 14.835938 17.78125 14.835938 Z M 4.035156 8.617188 C 2.726562 8.617188 1.636719 9.816406 1.636719 11.238281 L 1.636719 11.5625 C 1.636719 12.980469 2.726562 14.183594 4.035156 14.183594 L 17.78125 14.183594 C 19.089844 14.183594 20.183594 12.980469 20.183594 11.5625 L 20.183594 11.238281 C 20.183594 9.816406 19.089844 8.617188 17.78125 8.617188 Z M 4.035156 8.617188 "/>
<path style=" stroke:none;fill-rule:nonzero;fill:rgb(0%,0%,0%);fill-opacity:1;" d="M 7.964844 11.453125 C 7.964844 13.308594 6.4375 14.835938 4.472656 14.835938 C 2.507812 14.835938 1.089844 13.308594 1.089844 11.453125 C 1.089844 9.601562 2.617188 7.964844 4.582031 7.964844 C 6.546875 7.964844 7.964844 9.601562 7.964844 11.453125 Z M 7.964844 11.453125 "/>
<path style=" stroke:none;fill-rule:nonzero;fill:rgb(0%,0%,0%);fill-opacity:1;" d="M 2.945312 12.871094 C 3.601562 12.109375 4.144531 11.34375 4.800781 10.472656 C 4.910156 10.253906 5.019531 10.144531 5.128906 9.816406 C 5.238281 9.601562 5.128906 9.382812 5.019531 9.164062 C 4.800781 9.164062 4.582031 9.054688 4.363281 9.054688 C 4.253906 9.054688 4.144531 9.054688 4.035156 9.054688 C 3.710938 9.273438 3.601562 9.816406 3.710938 10.144531 C 3.816406 10.582031 4.035156 10.910156 4.363281 11.238281 C 4.800781 11.78125 5.34375 12.328125 5.78125 12.980469 "/>
<path style=" stroke:none;fill-rule:nonzero;fill:rgb(100%,100%,100%);fill-opacity:1;" d="M 3.273438 13.199219 C 3.710938 12.65625 4.144531 12.109375 4.472656 11.671875 C 4.800781 11.238281 5.238281 10.800781 5.34375 10.363281 C 5.78125 9.382812 5.128906 8.617188 4.253906 8.726562 C 3.382812 8.726562 3.054688 9.601562 3.273438 10.253906 C 3.382812 10.691406 3.710938 11.128906 4.035156 11.453125 C 4.472656 12 5.019531 12.546875 5.453125 13.199219 C 5.78125 13.636719 6.328125 12.980469 6 12.65625 C 5.671875 12.21875 5.238281 11.78125 4.910156 11.34375 C 4.800781 11.128906 4.582031 10.910156 4.363281 10.582031 C 4.144531 10.253906 3.925781 10.035156 4.253906 9.710938 C 4.472656 9.382812 4.582031 9.492188 4.582031 10.144531 C 4.472656 10.253906 4.363281 10.363281 4.363281 10.472656 C 4.144531 10.691406 4.035156 10.910156 3.816406 11.128906 C 3.382812 11.671875 3.054688 12.109375 2.617188 12.65625 C 2.289062 12.980469 2.945312 13.636719 3.273438 13.199219 Z M 3.273438 13.199219 "/>
<path style=" stroke:none;fill-rule:nonzero;fill:rgb(0%,0%,0%);fill-opacity:1;" d="M 17.453125 13.089844 L 14.835938 10.144531 L 15.273438 9.816406 L 17.890625 12.761719 Z M 17.453125 13.089844 "/>
<path style=" stroke:none;fill-rule:nonzero;fill:rgb(0%,0%,0%);fill-opacity:1;" d="M 15.054688 12.980469 L 14.726562 12.546875 L 17.671875 9.925781 L 18 10.363281 Z M 15.054688 12.980469 "/>
<path style=" stroke:none;fill-rule:nonzero;fill:rgb(0%,0%,0%);fill-opacity:1;" d="M 22.691406 13.636719 L 22.144531 13.636719 L 22.144531 9.273438 L 22.691406 9.273438 Z M 22.691406 13.636719 "/>
</g>
</svg>
