<?xml version="1.0" encoding="utf-8"?>
<!-- Generator: Adobe Illustrator 21.1.0, SVG Export Plug-In . SVG Version: 6.00 Build 0)  -->
<svg version="1.1" id="Layer_1" xmlns="http://www.w3.org/2000/svg" xmlns:xlink="http://www.w3.org/1999/xlink" x="0px" y="0px"
	 viewBox="0 0 24 24" style="enable-background:new 0 0 24 24;" xml:space="preserve">
<path d="M22.7,13.6h-0.5V9.3h0.5V13.6z M24,4.6v13.8c0,0.1-0.2,0.2-0.3,0.2H0.3c-0.2,0-0.3-0.1-0.3-0.2V4.6c0-0.1,0.1-0.1,0.3-0.2
	h23.4C23.8,4.4,24,4.5,24,4.6z M23.5,5.5H0.7v12h22.9V5.5z M1.1,11.5v-0.3C1.1,9.5,2.4,8,4,8h13.8c1.6,0,2.9,1.4,2.9,3.3v0.3
	c0.1,1.8-1.2,3.2-2.8,3.2H5.3c-0.3,0.1-0.5,0.1-0.8,0.1c-0.4,0-0.7-0.1-1-0.2C2.1,14.5,1.1,13.2,1.1,11.5z M6.5,8.6
	C7.4,9.2,8,10.3,8,11.5c0,1.1-0.5,2-1.2,2.6h11c1.3,0,2.4-1.2,2.4-2.6v-0.3c0-1.4-1.1-2.6-2.4-2.6H6.5z M2.5,12.9
	c0,0.1,0.1,0.3,0.2,0.3c0.2,0.2,0.5,0.3,0.7,0c0.3-0.3,0.5-0.6,0.8-0.9c0.4,0.3,0.8,0.5,1,0.9c0.4,0.5,1.2,0,0.9-0.5
	c-0.2-0.3-0.5-0.6-0.8-0.8c-0.2-0.2-0.3-0.3-0.4-0.5c0,0,0-0.1-0.1-0.1c0.2-0.3,0.5-0.6,0.6-0.9c0.4-1-0.2-1.7-1.1-1.6
	c-0.9,0-1.2,0.9-1,1.5c0.1,0.3,0.3,0.6,0.5,0.9c0,0-0.1,0.1-0.1,0.1c-0.1,0.2-0.3,0.4-0.4,0.5c0,0.1-0.1,0.1-0.1,0.2
	c-0.2,0.2-0.3,0.3-0.5,0.5C2.6,12.6,2.5,12.8,2.5,12.9z M15.1,13l1.3-1.2l1.1,1.3l0.4-0.3l-1.2-1.3l1.3-1.1L17.7,10l-1.3,1.2
	l-1.1-1.3l-0.4,0.3l1.2,1.3l-1.3,1.1L15.1,13z"/>
</svg>
