<?xml version="1.0" encoding="utf-8"?>
<!-- Generator: Adobe Illustrator 21.1.0, SVG Export Plug-In . SVG Version: 6.00 Build 0)  -->
<svg version="1.1" id="Layer_1" xmlns="http://www.w3.org/2000/svg" xmlns:xlink="http://www.w3.org/1999/xlink" x="0px" y="0px"
	 viewBox="0 0 24 24" style="enable-background:new 0 0 24 24;" xml:space="preserve">
<path d="M0.1,21.2h23.8v-9.3H0.1V21.2z M0.6,12.4h22.8v8.3H0.6V12.4z M0.1,1.9v9.3h23.8V1.9H0.1z M23.4,10.7H0.6V2.4h22.8V10.7z
	 M11.3,10.1c2,0,3.5-1.6,3.5-3.5S13.3,3,11.3,3S7.8,4.6,7.8,6.5S9.4,10.1,11.3,10.1z M11.3,3.5c1.7,0,3,1.4,3,3s-1.4,3-3,3
	c-1.7,0-3-1.4-3-3S9.7,3.5,11.3,3.5z M11.1,6.8H9.2V6.3h1.9V4.4h0.5v1.9h1.9v0.5h-1.9v1.9h-0.5V6.8z"/>
</svg>
