<?xml version="1.0" encoding="utf-8"?>
<!-- Generator: Adobe Illustrator 21.1.0, SVG Export Plug-In . SVG Version: 6.00 Build 0)  -->
<svg version="1.1" id="Layer_1" xmlns="http://www.w3.org/2000/svg" xmlns:xlink="http://www.w3.org/1999/xlink" x="0px" y="0px"
	 viewBox="0 0 24 24" style="enable-background:new 0 0 24 24;" xml:space="preserve">
<path d="M24,16.6H0V7h24V16.6z M0.5,16.1h23V7.5h-23V16.1z M11.8,8.3c-1.9,0-3.5,1.6-3.5,3.5s1.6,3.5,3.5,3.5s3.5-1.6,3.5-3.5
	S13.7,8.3,11.8,8.3z M11.8,14.8c-1.6,0-3-1.3-3-3s1.3-3,3-3s3,1.3,3,3S13.4,14.8,11.8,14.8z M12.1,9.7h-0.5v1.8H9.7V12h1.8v1.8h0.5
	V12h1.8v-0.5h-1.8V9.7z"/>
</svg>
