<?xml version="1.0" encoding="utf-8"?>
<!-- Generator: Adobe Illustrator 21.1.0, SVG Export Plug-In . SVG Version: 6.00 Build 0)  -->
<svg version="1.1" id="Layer_1" xmlns="http://www.w3.org/2000/svg" xmlns:xlink="http://www.w3.org/1999/xlink" x="0px" y="0px"
	 viewBox="0 0 24 24" style="enable-background:new 0 0 24 24;" xml:space="preserve">
<path d="M6.6,11.5h1.8V12H6.6v1.8H6.1V12H4.3v-0.5h1.8V9.7h0.5V11.5z M9.9,11.8c0,1.9-1.6,3.5-3.5,3.5s-3.5-1.6-3.5-3.5
	s1.6-3.5,3.5-3.5S9.9,9.8,9.9,11.8z M9.4,11.8c0-1.7-1.3-3-3-3s-3,1.3-3,3s1.3,3,3,3S9.4,13.4,9.4,11.8z M22.5,2.1v19.7h-9.9V2.1
	H22.5z M22,2.6H13v18.7H22V2.6z M1.5,2.1h9.9v19.7H1.5V2.1z M2,21.4H11V2.6H2V21.4z"/>
</svg>
