<?xml version="1.0" encoding="utf-8"?>
<!-- Generator: Adobe Illustrator 21.1.0, SVG Export Plug-In . SVG Version: 6.00 Build 0)  -->
<svg version="1.1" id="Layer_1" xmlns="http://www.w3.org/2000/svg" xmlns:xlink="http://www.w3.org/1999/xlink" x="0px" y="0px"
	 viewBox="0 0 24 24" style="enable-background:new 0 0 24 24;" xml:space="preserve">
<path d="M18.7,16.7c2.3,0,4.2-1.9,4.2-4.2s-1.9-4.2-4.2-4.2s-4.2,1.9-4.2,4.2S16.4,16.7,18.7,16.7z M18.7,8.8c2,0,3.7,1.6,3.7,3.7
	s-1.6,3.7-3.7,3.7s-3.7-1.6-3.7-3.7S16.7,8.8,18.7,8.8z M18.4,12.7h-2.2v-0.6h2.2V10H19v2.2h2.2v0.6H19v2.2h-0.6V12.7z M13,0v24
	h11.3V0H13z M23.6,23.3h-9.7V0.7h9.7V23.3z M0,24h11.4V0H0V24z M0.7,0.7h10.1v22.7H0.7V0.7z"/>
</svg>
