<?xml version="1.0" encoding="utf-8"?>
<!-- Generator: Adobe Illustrator 21.1.0, SVG Export Plug-In . SVG Version: 6.00 Build 0)  -->
<svg version="1.1" id="Layer_1" xmlns="http://www.w3.org/2000/svg" xmlns:xlink="http://www.w3.org/1999/xlink" x="0px" y="0px"
	 viewBox="0 0 24 24" style="enable-background:new 0 0 24 24;" xml:space="preserve">
<path d="M0,2.3v9.4h24V2.3H0z M23.5,11.1h-23V2.8h23V11.1z M0,21.7h24v-9.4H0V21.7z M0.5,12.9h23v8.3h-23V12.9z M12.1,16.8h1.8v0.5
	h-1.8v1.8h-0.5v-1.8H9.7v-0.5h1.8v-1.8h0.5V16.8z M11.8,13.5c-1.9,0-3.5,1.6-3.5,3.5s1.6,3.5,3.5,3.5s3.5-1.6,3.5-3.5
	S13.8,13.5,11.8,13.5z M11.8,20.1c-1.7,0-3-1.4-3-3s1.4-3,3-3s3,1.4,3,3S13.5,20.1,11.8,20.1z"/>
</svg>
